<?xml version="1.0" encoding="UTF-8" standalone="no"?>
<!DOCTYPE svg PUBLIC "-//W3C//DTD SVG 1.1//EN"
 "http://www.w3.org/Graphics/SVG/1.1/DTD/svg11.dtd">
<!-- Generated by graphviz version 6.0.1 (0)
 -->
<!-- Title: snakemake_dag Pages: 1 -->
<svg width="708pt" height="769pt"
 viewBox="0.00 0.00 708.00 769.00" xmlns="http://www.w3.org/2000/svg" xmlns:xlink="http://www.w3.org/1999/xlink">
<g id="graph0" class="graph" transform="scale(1 1) rotate(0) translate(4 765)">
<title>snakemake_dag</title>
<polygon fill="white" stroke="none" points="-4,4 -4,-765 704,-765 704,4 -4,4"/>
<!-- 0 -->
<g id="node1" class="node">
<title>0</title>
<path fill="none" stroke="#566bd8" stroke-width="2" d="M245,-36C245,-36 215,-36 215,-36 209,-36 203,-30 203,-24 203,-24 203,-12 203,-12 203,-6 209,0 215,0 215,0 245,0 245,0 251,0 257,-6 257,-12 257,-12 257,-24 257,-24 257,-30 251,-36 245,-36"/>
<text text-anchor="middle" x="230" y="-15.5" font-family="sans" font-size="10.00">all</text>
</g>
<!-- 1 -->
<g id="node2" class="node">
<title>1</title>
<path fill="none" stroke="#56b1d8" stroke-width="2" d="M78.5,-612C78.5,-612 13.5,-612 13.5,-612 7.5,-612 1.5,-606 1.5,-600 1.5,-600 1.5,-588 1.5,-588 1.5,-582 7.5,-576 13.5,-576 13.5,-576 78.5,-576 78.5,-576 84.5,-576 90.5,-582 90.5,-588 90.5,-588 90.5,-600 90.5,-600 90.5,-606 84.5,-612 78.5,-612"/>
<text text-anchor="middle" x="46" y="-591.5" font-family="sans" font-size="10.00">get_zymo_mock</text>
</g>
<!-- 1&#45;&gt;0 -->
<g id="edge1" class="edge">
<title>1&#45;&gt;0</title>
<path fill="none" stroke="grey" stroke-width="2" d="M36.47,-575.66C23,-549.47 0,-497.9 0,-451 0,-451 0,-451 0,-161 0,-71.47 127.75,-36.51 192.83,-24.52"/>
<polygon fill="grey" stroke="grey" stroke-width="2" points="193.47,-27.96 202.71,-22.79 192.26,-21.07 193.47,-27.96"/>
</g>
<!-- 2 -->
<g id="node3" class="node">
<title>2</title>
<path fill="none" stroke="#56d89a" stroke-width="2" d="M171,-758.5C171,-758.5 87,-758.5 87,-758.5 81,-758.5 75,-752.5 75,-746.5 75,-746.5 75,-734.5 75,-734.5 75,-728.5 81,-722.5 87,-722.5 87,-722.5 171,-722.5 171,-722.5 177,-722.5 183,-728.5 183,-734.5 183,-734.5 183,-746.5 183,-746.5 183,-752.5 177,-758.5 171,-758.5"/>
<text text-anchor="middle" x="129" y="-738" font-family="sans" font-size="10.00">get_silva_alignments</text>
</g>
<!-- 2&#45;&gt;1 -->
<g id="edge10" class="edge">
<title>2&#45;&gt;1</title>
<path fill="none" stroke="grey" stroke-width="2" d="M119.15,-722.36C104.74,-697.26 77.78,-650.33 60.92,-620.98"/>
<polygon fill="grey" stroke="grey" stroke-width="2" points="63.85,-619.05 55.83,-612.12 57.78,-622.54 63.85,-619.05"/>
</g>
<!-- 8 -->
<g id="node9" class="node">
<title>8</title>
<path fill="none" stroke="#d85656" stroke-width="2" d="M343.5,-684C343.5,-684 296.5,-684 296.5,-684 290.5,-684 284.5,-678 284.5,-672 284.5,-672 284.5,-660 284.5,-660 284.5,-654 290.5,-648 296.5,-648 296.5,-648 343.5,-648 343.5,-648 349.5,-648 355.5,-654 355.5,-660 355.5,-660 355.5,-672 355.5,-672 355.5,-678 349.5,-684 343.5,-684"/>
<text text-anchor="middle" x="320" y="-663.5" font-family="sans" font-size="10.00">align_n_filter</text>
</g>
<!-- 2&#45;&gt;8 -->
<g id="edge21" class="edge">
<title>2&#45;&gt;8</title>
<path fill="none" stroke="grey" stroke-width="2" d="M174.26,-722.32C204.62,-710.79 244.45,-695.68 274.8,-684.16"/>
<polygon fill="grey" stroke="grey" stroke-width="2" points="276.19,-687.37 284.3,-680.55 273.71,-680.83 276.19,-687.37"/>
</g>
<!-- 3 -->
<g id="node4" class="node">
<title>3</title>
<path fill="none" stroke="#56d882" stroke-width="2" d="M516,-324C516,-324 350,-324 350,-324 344,-324 338,-318 338,-312 338,-312 338,-300 338,-300 338,-294 344,-288 350,-288 350,-288 516,-288 516,-288 522,-288 528,-294 528,-300 528,-300 528,-312 528,-312 528,-318 522,-324 516,-324"/>
<text text-anchor="middle" x="433" y="-309" font-family="sans" font-size="10.00">final_otu_files</text>
<text text-anchor="middle" x="433" y="-298" font-family="sans" font-size="10.00">finalotus: data/mothur/final/otu_analysis</text>
</g>
<!-- 3&#45;&gt;0 -->
<g id="edge2" class="edge">
<title>3&#45;&gt;0</title>
<path fill="none" stroke="grey" stroke-width="2" d="M457.93,-287.86C469.06,-278.67 481,-266.29 487,-252 518.79,-176.25 507.04,-125.85 445,-72 394.79,-28.43 314.32,-19.54 267.37,-18.36"/>
<polygon fill="grey" stroke="grey" stroke-width="2" points="267.37,-14.86 257.32,-18.21 267.27,-21.85 267.37,-14.86"/>
</g>
<!-- 18 -->
<g id="node19" class="node">
<title>18</title>
<path fill="none" stroke="#ced856" stroke-width="2" d="M466,-252C466,-252 394,-252 394,-252 388,-252 382,-246 382,-240 382,-240 382,-228 382,-228 382,-222 388,-216 394,-216 394,-216 466,-216 466,-216 472,-216 478,-222 478,-228 478,-228 478,-240 478,-240 478,-246 472,-252 466,-252"/>
<text text-anchor="middle" x="430" y="-237" font-family="sans" font-size="10.00">otutable_by_group</text>
<text text-anchor="middle" x="430" y="-226" font-family="sans" font-size="10.00">group: sample</text>
</g>
<!-- 3&#45;&gt;18 -->
<g id="edge28" class="edge">
<title>3&#45;&gt;18</title>
<path fill="none" stroke="grey" stroke-width="2" d="M432.26,-287.7C431.93,-279.98 431.53,-270.71 431.16,-262.11"/>
<polygon fill="grey" stroke="grey" stroke-width="2" points="434.66,-261.95 430.73,-252.1 427.66,-262.25 434.66,-261.95"/>
</g>
<!-- 19 -->
<g id="node20" class="node">
<title>19</title>
<path fill="none" stroke="#ced856" stroke-width="2" d="M309,-252C309,-252 237,-252 237,-252 231,-252 225,-246 225,-240 225,-240 225,-228 225,-228 225,-222 231,-216 237,-216 237,-216 309,-216 309,-216 315,-216 321,-222 321,-228 321,-228 321,-240 321,-240 321,-246 315,-252 309,-252"/>
<text text-anchor="middle" x="273" y="-237" font-family="sans" font-size="10.00">otutable_by_group</text>
<text text-anchor="middle" x="273" y="-226" font-family="sans" font-size="10.00">group: control</text>
</g>
<!-- 3&#45;&gt;19 -->
<g id="edge29" class="edge">
<title>3&#45;&gt;19</title>
<path fill="none" stroke="grey" stroke-width="2" d="M393.86,-287.88C371.99,-278.31 344.54,-266.3 321.34,-256.15"/>
<polygon fill="grey" stroke="grey" stroke-width="2" points="322.58,-252.87 312.01,-252.07 319.77,-259.28 322.58,-252.87"/>
</g>
<!-- 4 -->
<g id="node5" class="node">
<title>4</title>
<path fill="none" stroke="#569ad8" stroke-width="2" d="M430,-396C430,-396 374,-396 374,-396 368,-396 362,-390 362,-384 362,-384 362,-372 362,-372 362,-366 368,-360 374,-360 374,-360 430,-360 430,-360 436,-360 442,-366 442,-372 442,-372 442,-384 442,-384 442,-390 436,-396 430,-396"/>
<text text-anchor="middle" x="402" y="-375.5" font-family="sans" font-size="10.00">classify_otu97</text>
</g>
<!-- 4&#45;&gt;3 -->
<g id="edge11" class="edge">
<title>4&#45;&gt;3</title>
<path fill="none" stroke="grey" stroke-width="2" d="M409.66,-359.7C413.19,-351.73 417.46,-342.1 421.37,-333.26"/>
<polygon fill="grey" stroke="grey" stroke-width="2" points="424.58,-334.67 425.43,-324.1 418.18,-331.83 424.58,-334.67"/>
</g>
<!-- 5 -->
<g id="node6" class="node">
<title>5</title>
<path fill="none" stroke="#59d856" stroke-width="2" d="M427.5,-468C427.5,-468 376.5,-468 376.5,-468 370.5,-468 364.5,-462 364.5,-456 364.5,-456 364.5,-444 364.5,-444 364.5,-438 370.5,-432 376.5,-432 376.5,-432 427.5,-432 427.5,-432 433.5,-432 439.5,-438 439.5,-444 439.5,-444 439.5,-456 439.5,-456 439.5,-462 433.5,-468 427.5,-468"/>
<text text-anchor="middle" x="402" y="-447.5" font-family="sans" font-size="10.00">cluster_otu97</text>
</g>
<!-- 5&#45;&gt;4 -->
<g id="edge12" class="edge">
<title>5&#45;&gt;4</title>
<path fill="none" stroke="grey" stroke-width="2" d="M402,-431.7C402,-423.98 402,-414.71 402,-406.11"/>
<polygon fill="grey" stroke="grey" stroke-width="2" points="405.5,-406.1 402,-396.1 398.5,-406.1 405.5,-406.1"/>
</g>
<!-- 6 -->
<g id="node7" class="node">
<title>6</title>
<path fill="none" stroke="#b6d856" stroke-width="2" d="M443.5,-540C443.5,-540 360.5,-540 360.5,-540 354.5,-540 348.5,-534 348.5,-528 348.5,-528 348.5,-516 348.5,-516 348.5,-510 354.5,-504 360.5,-504 360.5,-504 443.5,-504 443.5,-504 449.5,-504 455.5,-510 455.5,-516 455.5,-516 455.5,-528 455.5,-528 455.5,-534 449.5,-540 443.5,-540"/>
<text text-anchor="middle" x="402" y="-519.5" font-family="sans" font-size="10.00">compute_seqdist003</text>
</g>
<!-- 6&#45;&gt;5 -->
<g id="edge14" class="edge">
<title>6&#45;&gt;5</title>
<path fill="none" stroke="grey" stroke-width="2" d="M402,-503.7C402,-495.98 402,-486.71 402,-478.11"/>
<polygon fill="grey" stroke="grey" stroke-width="2" points="405.5,-478.1 402,-468.1 398.5,-478.1 405.5,-478.1"/>
</g>
<!-- 7 -->
<g id="node8" class="node">
<title>7</title>
<path fill="none" stroke="#56d86b" stroke-width="2" d="M363,-612C363,-612 277,-612 277,-612 271,-612 265,-606 265,-600 265,-600 265,-588 265,-588 265,-582 271,-576 277,-576 277,-576 363,-576 363,-576 369,-576 375,-582 375,-588 375,-588 375,-600 375,-600 375,-606 369,-612 363,-612"/>
<text text-anchor="middle" x="320" y="-591.5" font-family="sans" font-size="10.00">denoise_n_classify80</text>
</g>
<!-- 7&#45;&gt;4 -->
<g id="edge13" class="edge">
<title>7&#45;&gt;4</title>
<path fill="none" stroke="grey" stroke-width="2" d="M321.09,-575.62C323.61,-545.05 331.61,-480.33 356,-432 361.08,-421.94 368.48,-412.24 375.88,-403.94"/>
<polygon fill="grey" stroke="grey" stroke-width="2" points="378.61,-406.15 382.89,-396.45 373.5,-401.36 378.61,-406.15"/>
</g>
<!-- 7&#45;&gt;5 -->
<g id="edge15" class="edge">
<title>7&#45;&gt;5</title>
<path fill="none" stroke="grey" stroke-width="2" d="M375.2,-588.08C407.1,-582.08 444.8,-568.89 465,-540 474.17,-526.89 471.75,-518.51 465,-504 459.57,-492.34 450.18,-482.34 440.28,-474.26"/>
<polygon fill="grey" stroke="grey" stroke-width="2" points="442.38,-471.45 432.3,-468.2 438.15,-477.03 442.38,-471.45"/>
</g>
<!-- 7&#45;&gt;6 -->
<g id="edge16" class="edge">
<title>7&#45;&gt;6</title>
<path fill="none" stroke="grey" stroke-width="2" d="M340.27,-575.7C350.5,-566.97 363.06,-556.24 374.18,-546.75"/>
<polygon fill="grey" stroke="grey" stroke-width="2" points="376.63,-549.26 381.96,-540.1 372.09,-543.94 376.63,-549.26"/>
</g>
<!-- 13 -->
<g id="node14" class="node">
<title>13</title>
<path fill="none" stroke="#56d8c9" stroke-width="2" d="M607,-540C607,-540 533,-540 533,-540 527,-540 521,-534 521,-528 521,-528 521,-516 521,-516 521,-510 527,-504 533,-504 533,-504 607,-504 607,-504 613,-504 619,-510 619,-516 619,-516 619,-528 619,-528 619,-534 613,-540 607,-540"/>
<text text-anchor="middle" x="570" y="-519.5" font-family="sans" font-size="10.00">classify_phylotype</text>
</g>
<!-- 7&#45;&gt;13 -->
<g id="edge23" class="edge">
<title>7&#45;&gt;13</title>
<path fill="none" stroke="grey" stroke-width="2" d="M375.17,-577.55C415.42,-566.28 469.9,-551.03 511.01,-539.52"/>
<polygon fill="grey" stroke="grey" stroke-width="2" points="512.21,-542.82 520.89,-536.75 510.32,-536.08 512.21,-542.82"/>
</g>
<!-- 15 -->
<g id="node16" class="node">
<title>15</title>
<path fill="none" stroke="#88d856" stroke-width="2" d="M154.5,-540C154.5,-540 107.5,-540 107.5,-540 101.5,-540 95.5,-534 95.5,-528 95.5,-528 95.5,-516 95.5,-516 95.5,-510 101.5,-504 107.5,-504 107.5,-504 154.5,-504 154.5,-504 160.5,-504 166.5,-510 166.5,-516 166.5,-516 166.5,-528 166.5,-528 166.5,-534 160.5,-540 154.5,-540"/>
<text text-anchor="middle" x="131" y="-519.5" font-family="sans" font-size="10.00">classify_asv</text>
</g>
<!-- 7&#45;&gt;15 -->
<g id="edge25" class="edge">
<title>7&#45;&gt;15</title>
<path fill="none" stroke="grey" stroke-width="2" d="M273.77,-575.88C244.11,-564.89 205.8,-550.7 176.32,-539.79"/>
<polygon fill="grey" stroke="grey" stroke-width="2" points="177.29,-536.41 166.69,-536.22 174.86,-542.98 177.29,-536.41"/>
</g>
<!-- 17 -->
<g id="node18" class="node">
<title>17</title>
<path fill="none" stroke="#d8b456" stroke-width="2" d="M280,-540C280,-540 204,-540 204,-540 198,-540 192,-534 192,-528 192,-528 192,-516 192,-516 192,-510 198,-504 204,-504 204,-504 280,-504 280,-504 286,-504 292,-510 292,-516 292,-516 292,-528 292,-528 292,-534 286,-540 280,-540"/>
<text text-anchor="middle" x="242" y="-519.5" font-family="sans" font-size="10.00">classify_phylogeny</text>
</g>
<!-- 7&#45;&gt;17 -->
<g id="edge27" class="edge">
<title>7&#45;&gt;17</title>
<path fill="none" stroke="grey" stroke-width="2" d="M300.72,-575.7C291.08,-567.05 279.27,-556.45 268.77,-547.03"/>
<polygon fill="grey" stroke="grey" stroke-width="2" points="270.84,-544.18 261.06,-540.1 266.16,-549.39 270.84,-544.18"/>
</g>
<!-- 8&#45;&gt;7 -->
<g id="edge17" class="edge">
<title>8&#45;&gt;7</title>
<path fill="none" stroke="grey" stroke-width="2" d="M320,-647.7C320,-639.98 320,-630.71 320,-622.11"/>
<polygon fill="grey" stroke="grey" stroke-width="2" points="323.5,-622.1 320,-612.1 316.5,-622.1 323.5,-622.1"/>
</g>
<!-- 9 -->
<g id="node10" class="node">
<title>9</title>
<path fill="none" stroke="#d89c56" stroke-width="2" d="M488,-761C488,-761 376,-761 376,-761 370,-761 364,-755 364,-749 364,-749 364,-732 364,-732 364,-726 370,-720 376,-720 376,-720 488,-720 488,-720 494,-720 500,-726 500,-732 500,-732 500,-749 500,-749 500,-755 494,-761 488,-761"/>
<text text-anchor="middle" x="432" y="-749" font-family="sans" font-size="10.00">make_contigs</text>
<text text-anchor="middle" x="432" y="-738" font-family="sans" font-size="10.00">dataset: test</text>
<text text-anchor="middle" x="432" y="-727" font-family="sans" font-size="10.00">outdir: data/mothur/process</text>
</g>
<!-- 9&#45;&gt;8 -->
<g id="edge19" class="edge">
<title>9&#45;&gt;8</title>
<path fill="none" stroke="grey" stroke-width="2" d="M401.69,-719.88C387.29,-710.56 369.98,-699.36 355.02,-689.67"/>
<polygon fill="grey" stroke="grey" stroke-width="2" points="356.82,-686.66 346.52,-684.17 353.01,-692.54 356.82,-686.66"/>
</g>
<!-- 10 -->
<g id="node11" class="node">
<title>10</title>
<path fill="none" stroke="#d89c56" stroke-width="2" d="M334,-761C334,-761 222,-761 222,-761 216,-761 210,-755 210,-749 210,-749 210,-732 210,-732 210,-726 216,-720 222,-720 222,-720 334,-720 334,-720 340,-720 346,-726 346,-732 346,-732 346,-749 346,-749 346,-755 340,-761 334,-761"/>
<text text-anchor="middle" x="278" y="-749" font-family="sans" font-size="10.00">make_contigs</text>
<text text-anchor="middle" x="278" y="-738" font-family="sans" font-size="10.00">dataset: test.test</text>
<text text-anchor="middle" x="278" y="-727" font-family="sans" font-size="10.00">outdir: data/mothur/process</text>
</g>
<!-- 10&#45;&gt;8 -->
<g id="edge20" class="edge">
<title>10&#45;&gt;8</title>
<path fill="none" stroke="grey" stroke-width="2" d="M289.48,-719.69C294.24,-711.47 299.82,-701.83 304.91,-693.05"/>
<polygon fill="grey" stroke="grey" stroke-width="2" points="307.98,-694.73 309.97,-684.32 301.93,-691.22 307.98,-694.73"/>
</g>
<!-- 11 -->
<g id="node12" class="node">
<title>11</title>
<path fill="none" stroke="#5682d8" stroke-width="2" d="M254.5,-684C254.5,-684 185.5,-684 185.5,-684 179.5,-684 173.5,-678 173.5,-672 173.5,-672 173.5,-660 173.5,-660 173.5,-654 179.5,-648 185.5,-648 185.5,-648 254.5,-648 254.5,-648 260.5,-648 266.5,-654 266.5,-660 266.5,-660 266.5,-672 266.5,-672 266.5,-678 260.5,-684 254.5,-684"/>
<text text-anchor="middle" x="220" y="-663.5" font-family="sans" font-size="10.00">get_rdp_classifier</text>
</g>
<!-- 11&#45;&gt;7 -->
<g id="edge18" class="edge">
<title>11&#45;&gt;7</title>
<path fill="none" stroke="grey" stroke-width="2" d="M244.46,-647.88C257.3,-638.89 273.2,-627.76 287.09,-618.03"/>
<polygon fill="grey" stroke="grey" stroke-width="2" points="289.26,-620.79 295.44,-612.19 285.24,-615.06 289.26,-620.79"/>
</g>
<!-- 12 -->
<g id="node13" class="node">
<title>12</title>
<path fill="none" stroke="#d86e56" stroke-width="2" d="M688,-468C688,-468 470,-468 470,-468 464,-468 458,-462 458,-456 458,-456 458,-444 458,-444 458,-438 464,-432 470,-432 470,-432 688,-432 688,-432 694,-432 700,-438 700,-444 700,-444 700,-456 700,-456 700,-462 694,-468 688,-468"/>
<text text-anchor="middle" x="579" y="-453" font-family="sans" font-size="10.00">final_phylotype_files</text>
<text text-anchor="middle" x="579" y="-442" font-family="sans" font-size="10.00">finalphylotype: data/mothur/final/phylotype_analysis</text>
</g>
<!-- 12&#45;&gt;0 -->
<g id="edge3" class="edge">
<title>12&#45;&gt;0</title>
<path fill="none" stroke="grey" stroke-width="2" d="M579,-431.95C579,-405.29 579,-352.11 579,-307 579,-307 579,-307 579,-161 579,-100.16 529.5,-99.03 475,-72 406.57,-38.06 316.81,-25.75 267.13,-21.36"/>
<polygon fill="grey" stroke="grey" stroke-width="2" points="267.42,-17.87 257.16,-20.54 266.84,-24.85 267.42,-17.87"/>
</g>
<!-- 13&#45;&gt;12 -->
<g id="edge22" class="edge">
<title>13&#45;&gt;12</title>
<path fill="none" stroke="grey" stroke-width="2" d="M572.22,-503.7C573.22,-495.98 574.41,-486.71 575.51,-478.11"/>
<polygon fill="grey" stroke="grey" stroke-width="2" points="579,-478.47 576.8,-468.1 572.05,-477.58 579,-478.47"/>
</g>
<!-- 14 -->
<g id="node15" class="node">
<title>14</title>
<path fill="none" stroke="#56c9d8" stroke-width="2" d="M205.5,-396C205.5,-396 40.5,-396 40.5,-396 34.5,-396 28.5,-390 28.5,-384 28.5,-384 28.5,-372 28.5,-372 28.5,-366 34.5,-360 40.5,-360 40.5,-360 205.5,-360 205.5,-360 211.5,-360 217.5,-366 217.5,-372 217.5,-372 217.5,-384 217.5,-384 217.5,-390 211.5,-396 205.5,-396"/>
<text text-anchor="middle" x="123" y="-381" font-family="sans" font-size="10.00">final_asv_files</text>
<text text-anchor="middle" x="123" y="-370" font-family="sans" font-size="10.00">finalasv: data/mothur/final/asv_analysis</text>
</g>
<!-- 14&#45;&gt;0 -->
<g id="edge4" class="edge">
<title>14&#45;&gt;0</title>
<path fill="none" stroke="grey" stroke-width="2" d="M97.88,-359.81C86.17,-350.53 73.07,-338.08 65,-324 44.89,-288.91 46,-275.45 46,-235 46,-235 46,-235 46,-161 46,-87.46 139.26,-46.66 192.99,-29.25"/>
<polygon fill="grey" stroke="grey" stroke-width="2" points="194.35,-32.5 202.85,-26.18 192.26,-25.81 194.35,-32.5"/>
</g>
<!-- 15&#45;&gt;14 -->
<g id="edge24" class="edge">
<title>15&#45;&gt;14</title>
<path fill="none" stroke="grey" stroke-width="2" d="M130.04,-503.87C128.67,-479.67 126.17,-435.21 124.54,-406.39"/>
<polygon fill="grey" stroke="grey" stroke-width="2" points="128.03,-405.98 123.97,-396.19 121.04,-406.37 128.03,-405.98"/>
</g>
<!-- 16 -->
<g id="node17" class="node">
<title>16</title>
<path fill="none" stroke="#70d856" stroke-width="2" d="M308,-324C308,-324 86,-324 86,-324 80,-324 74,-318 74,-312 74,-312 74,-300 74,-300 74,-294 80,-288 86,-288 86,-288 308,-288 308,-288 314,-288 320,-294 320,-300 320,-300 320,-312 320,-312 320,-318 314,-324 308,-324"/>
<text text-anchor="middle" x="197" y="-309" font-family="sans" font-size="10.00">final_phylogeny_files</text>
<text text-anchor="middle" x="197" y="-298" font-family="sans" font-size="10.00">finalphylogeny: data/mothur/final/phylogeny_analysis</text>
</g>
<!-- 16&#45;&gt;0 -->
<g id="edge5" class="edge">
<title>16&#45;&gt;0</title>
<path fill="none" stroke="grey" stroke-width="2" d="M186.62,-287.8C163.83,-247.62 114.4,-145.42 153,-72 161.71,-55.43 178.21,-43.03 193.7,-34.41"/>
<polygon fill="grey" stroke="grey" stroke-width="2" points="195.38,-37.48 202.64,-29.77 192.16,-31.27 195.38,-37.48"/>
</g>
<!-- 17&#45;&gt;16 -->
<g id="edge26" class="edge">
<title>17&#45;&gt;16</title>
<path fill="none" stroke="grey" stroke-width="2" d="M242.51,-503.63C242.92,-473.63 241.6,-410.45 226,-360 223.16,-350.83 218.65,-341.44 214.02,-333.16"/>
<polygon fill="grey" stroke="grey" stroke-width="2" points="216.92,-331.19 208.82,-324.35 210.89,-334.74 216.92,-331.19"/>
</g>
<!-- 18&#45;&gt;0 -->
<g id="edge6" class="edge">
<title>18&#45;&gt;0</title>
<path fill="none" stroke="grey" stroke-width="2" d="M441.89,-215.72C448.01,-205.76 454.84,-192.73 458,-180 470.51,-129.53 454.49,-103.35 413,-72 369.76,-39.33 306.9,-26.77 267.25,-21.96"/>
<polygon fill="grey" stroke="grey" stroke-width="2" points="267.53,-18.47 257.21,-20.85 266.76,-25.42 267.53,-18.47"/>
</g>
<!-- 20 -->
<g id="node21" class="node">
<title>20</title>
<path fill="none" stroke="#9fd856" stroke-width="2" d="M392,-108C392,-108 312,-108 312,-108 306,-108 300,-102 300,-96 300,-96 300,-84 300,-84 300,-78 306,-72 312,-72 312,-72 392,-72 392,-72 398,-72 404,-78 404,-84 404,-84 404,-96 404,-96 404,-102 398,-108 392,-108"/>
<text text-anchor="middle" x="352" y="-87.5" font-family="sans" font-size="10.00">subsample_otutable</text>
</g>
<!-- 18&#45;&gt;20 -->
<g id="edge30" class="edge">
<title>18&#45;&gt;20</title>
<path fill="none" stroke="grey" stroke-width="2" d="M437.99,-215.72C445.45,-196.85 453.69,-166.33 441,-144 433.64,-131.04 421.71,-120.92 408.95,-113.16"/>
<polygon fill="grey" stroke="grey" stroke-width="2" points="410.47,-109.99 400.03,-108.15 407.04,-116.1 410.47,-109.99"/>
</g>
<!-- 21 -->
<g id="node22" class="node">
<title>21</title>
<path fill="none" stroke="#d8cb56" stroke-width="2" d="M348.5,-180C348.5,-180 297.5,-180 297.5,-180 291.5,-180 285.5,-174 285.5,-168 285.5,-168 285.5,-156 285.5,-156 285.5,-150 291.5,-144 297.5,-144 297.5,-144 348.5,-144 348.5,-144 354.5,-144 360.5,-150 360.5,-156 360.5,-156 360.5,-168 360.5,-168 360.5,-174 354.5,-180 348.5,-180"/>
<text text-anchor="middle" x="323" y="-159.5" font-family="sans" font-size="10.00">count_groups</text>
</g>
<!-- 18&#45;&gt;21 -->
<g id="edge34" class="edge">
<title>18&#45;&gt;21</title>
<path fill="none" stroke="grey" stroke-width="2" d="M403.82,-215.88C389.96,-206.81 372.76,-195.55 357.79,-185.76"/>
<polygon fill="grey" stroke="grey" stroke-width="2" points="359.56,-182.74 349.28,-180.19 355.73,-188.59 359.56,-182.74"/>
</g>
<!-- 22 -->
<g id="node23" class="node">
<title>22</title>
<path fill="none" stroke="#d8cb56" stroke-width="2" d="M255.5,-180C255.5,-180 204.5,-180 204.5,-180 198.5,-180 192.5,-174 192.5,-168 192.5,-168 192.5,-156 192.5,-156 192.5,-150 198.5,-144 204.5,-144 204.5,-144 255.5,-144 255.5,-144 261.5,-144 267.5,-150 267.5,-156 267.5,-156 267.5,-168 267.5,-168 267.5,-174 261.5,-180 255.5,-180"/>
<text text-anchor="middle" x="230" y="-159.5" font-family="sans" font-size="10.00">count_groups</text>
</g>
<!-- 18&#45;&gt;22 -->
<g id="edge36" class="edge">
<title>18&#45;&gt;22</title>
<path fill="none" stroke="grey" stroke-width="2" d="M381.7,-216.69C353.56,-207.11 317.17,-194.61 277.29,-180.43"/>
<polygon fill="grey" stroke="grey" stroke-width="2" points="278.23,-177.05 267.63,-176.99 275.87,-183.64 278.23,-177.05"/>
</g>
<!-- 23 -->
<g id="node24" class="node">
<title>23</title>
<path fill="none" stroke="#9fd856" stroke-width="2" d="M270,-108C270,-108 190,-108 190,-108 184,-108 178,-102 178,-96 178,-96 178,-84 178,-84 178,-78 184,-72 190,-72 190,-72 270,-72 270,-72 276,-72 282,-78 282,-84 282,-84 282,-96 282,-96 282,-102 276,-108 270,-108"/>
<text text-anchor="middle" x="230" y="-87.5" font-family="sans" font-size="10.00">subsample_otutable</text>
</g>
<!-- 18&#45;&gt;23 -->
<g id="edge38" class="edge">
<title>18&#45;&gt;23</title>
<path fill="none" stroke="grey" stroke-width="2" d="M422.48,-215.92C412.93,-196.08 394.69,-163.55 370,-144 357.17,-133.84 323.07,-120.84 291.73,-110.27"/>
<polygon fill="grey" stroke="grey" stroke-width="2" points="292.72,-106.9 282.13,-107.07 290.51,-113.55 292.72,-106.9"/>
</g>
<!-- 19&#45;&gt;0 -->
<g id="edge7" class="edge">
<title>19&#45;&gt;0</title>
<path fill="none" stroke="grey" stroke-width="2" d="M224.75,-218.63C205.75,-210.43 185.7,-198.09 174,-180 147.9,-139.66 149.07,-115.72 169,-72 174.56,-59.81 184.45,-49.34 194.68,-41.01"/>
<polygon fill="grey" stroke="grey" stroke-width="2" points="197.03,-43.62 202.88,-34.79 192.79,-38.04 197.03,-43.62"/>
</g>
<!-- 19&#45;&gt;20 -->
<g id="edge31" class="edge">
<title>19&#45;&gt;20</title>
<path fill="none" stroke="grey" stroke-width="2" d="M321.16,-218.66C339.81,-210.49 359.23,-198.16 370,-180 381.3,-160.95 374.77,-136 366.58,-117.37"/>
<polygon fill="grey" stroke="grey" stroke-width="2" points="369.7,-115.78 362.24,-108.26 363.39,-118.79 369.7,-115.78"/>
</g>
<!-- 19&#45;&gt;21 -->
<g id="edge35" class="edge">
<title>19&#45;&gt;21</title>
<path fill="none" stroke="grey" stroke-width="2" d="M285.36,-215.7C291.23,-207.47 298.37,-197.48 304.84,-188.42"/>
<polygon fill="grey" stroke="grey" stroke-width="2" points="307.82,-190.28 310.78,-180.1 302.12,-186.21 307.82,-190.28"/>
</g>
<!-- 19&#45;&gt;22 -->
<g id="edge37" class="edge">
<title>19&#45;&gt;22</title>
<path fill="none" stroke="grey" stroke-width="2" d="M262.37,-215.7C257.37,-207.56 251.31,-197.69 245.79,-188.7"/>
<polygon fill="grey" stroke="grey" stroke-width="2" points="248.72,-186.79 240.51,-180.1 242.76,-190.46 248.72,-186.79"/>
</g>
<!-- 19&#45;&gt;23 -->
<g id="edge39" class="edge">
<title>19&#45;&gt;23</title>
<path fill="none" stroke="grey" stroke-width="2" d="M224.92,-216.21C208.65,-207.96 192.27,-196.21 183,-180 175.06,-166.11 177.32,-158.96 183,-144 186.97,-133.54 194.05,-123.83 201.53,-115.65"/>
<polygon fill="grey" stroke="grey" stroke-width="2" points="204.23,-117.89 208.73,-108.3 199.23,-112.99 204.23,-117.89"/>
</g>
<!-- 20&#45;&gt;0 -->
<g id="edge8" class="edge">
<title>20&#45;&gt;0</title>
<path fill="none" stroke="grey" stroke-width="2" d="M322.16,-71.88C305.22,-62.16 283.89,-49.92 266.03,-39.67"/>
<polygon fill="grey" stroke="grey" stroke-width="2" points="267.45,-36.46 257.04,-34.51 263.97,-42.53 267.45,-36.46"/>
</g>
<!-- 21&#45;&gt;20 -->
<g id="edge32" class="edge">
<title>21&#45;&gt;20</title>
<path fill="none" stroke="grey" stroke-width="2" d="M330.17,-143.7C333.43,-135.81 337.37,-126.3 341,-117.55"/>
<polygon fill="grey" stroke="grey" stroke-width="2" points="344.32,-118.68 344.91,-108.1 337.85,-116 344.32,-118.68"/>
</g>
<!-- 21&#45;&gt;23 -->
<g id="edge40" class="edge">
<title>21&#45;&gt;23</title>
<path fill="none" stroke="grey" stroke-width="2" d="M300.01,-143.7C288.19,-134.8 273.61,-123.82 260.82,-114.2"/>
<polygon fill="grey" stroke="grey" stroke-width="2" points="262.82,-111.32 252.72,-108.1 258.61,-116.91 262.82,-111.32"/>
</g>
<!-- 22&#45;&gt;20 -->
<g id="edge33" class="edge">
<title>22&#45;&gt;20</title>
<path fill="none" stroke="grey" stroke-width="2" d="M259.84,-143.88C275.94,-134.64 296,-123.13 313.29,-113.21"/>
<polygon fill="grey" stroke="grey" stroke-width="2" points="315.11,-116.2 322.04,-108.19 311.63,-110.13 315.11,-116.2"/>
</g>
<!-- 22&#45;&gt;23 -->
<g id="edge41" class="edge">
<title>22&#45;&gt;23</title>
<path fill="none" stroke="grey" stroke-width="2" d="M230,-143.7C230,-135.98 230,-126.71 230,-118.11"/>
<polygon fill="grey" stroke="grey" stroke-width="2" points="233.5,-118.1 230,-108.1 226.5,-118.1 233.5,-118.1"/>
</g>
<!-- 23&#45;&gt;0 -->
<g id="edge9" class="edge">
<title>23&#45;&gt;0</title>
<path fill="none" stroke="grey" stroke-width="2" d="M230,-71.7C230,-63.98 230,-54.71 230,-46.11"/>
<polygon fill="grey" stroke="grey" stroke-width="2" points="233.5,-46.1 230,-36.1 226.5,-46.1 233.5,-46.1"/>
</g>
</g>
</svg>
