<?xml version="1.0" encoding="UTF-8" standalone="no"?>
<!DOCTYPE svg PUBLIC "-//W3C//DTD SVG 1.1//EN"
 "http://www.w3.org/Graphics/SVG/1.1/DTD/svg11.dtd">
<!-- Generated by graphviz version 6.0.1 (0)
 -->
<!-- Title: snakemake_dag Pages: 1 -->
<svg width="949pt" height="841pt"
 viewBox="0.00 0.00 948.50 841.00" xmlns="http://www.w3.org/2000/svg" xmlns:xlink="http://www.w3.org/1999/xlink">
<g id="graph0" class="graph" transform="scale(1 1) rotate(0) translate(4 837)">
<title>snakemake_dag</title>
<polygon fill="white" stroke="none" points="-4,4 -4,-837 944.5,-837 944.5,4 -4,4"/>
<!-- 0 -->
<g id="node1" class="node">
<title>0</title>
<path fill="none" stroke="#569ad8" stroke-width="2" d="M323,-36C323,-36 293,-36 293,-36 287,-36 281,-30 281,-24 281,-24 281,-12 281,-12 281,-6 287,0 293,0 293,0 323,0 323,0 329,0 335,-6 335,-12 335,-12 335,-24 335,-24 335,-30 329,-36 323,-36"/>
<text text-anchor="middle" x="308" y="-15.5" font-family="sans" font-size="10.00">all</text>
</g>
<!-- 1 -->
<g id="node2" class="node">
<title>1</title>
<path fill="none" stroke="#56c9d8" stroke-width="2" d="M42,-108C42,-108 12,-108 12,-108 6,-108 0,-102 0,-96 0,-96 0,-84 0,-84 0,-78 6,-72 12,-72 12,-72 42,-72 42,-72 48,-72 54,-78 54,-84 54,-84 54,-96 54,-96 54,-102 48,-108 42,-108"/>
<text text-anchor="middle" x="27" y="-87.5" font-family="sans" font-size="10.00">seqkit_1</text>
</g>
<!-- 1&#45;&gt;0 -->
<g id="edge1" class="edge">
<title>1&#45;&gt;0</title>
<path fill="none" stroke="grey" stroke-width="2" d="M54.25,-75.34C57.17,-74.12 60.12,-72.98 63,-72 134.8,-47.64 222.34,-31.89 270.95,-24.31"/>
<polygon fill="grey" stroke="grey" stroke-width="2" points="271.64,-27.75 280.99,-22.78 270.58,-20.83 271.64,-27.75"/>
</g>
<!-- 2 -->
<g id="node3" class="node">
<title>2</title>
<path fill="none" stroke="#78d856" stroke-width="2" d="M114,-108C114,-108 84,-108 84,-108 78,-108 72,-102 72,-96 72,-96 72,-84 72,-84 72,-78 78,-72 84,-72 84,-72 114,-72 114,-72 120,-72 126,-78 126,-84 126,-84 126,-96 126,-96 126,-102 120,-108 114,-108"/>
<text text-anchor="middle" x="99" y="-87.5" font-family="sans" font-size="10.00">fastqc_1</text>
</g>
<!-- 2&#45;&gt;0 -->
<g id="edge2" class="edge">
<title>2&#45;&gt;0</title>
<path fill="none" stroke="grey" stroke-width="2" d="M126.34,-75.59C129.24,-74.32 132.16,-73.1 135,-72 180.99,-54.2 235.64,-38.3 271.03,-28.66"/>
<polygon fill="grey" stroke="grey" stroke-width="2" points="272.18,-31.98 280.92,-26 270.35,-25.22 272.18,-31.98"/>
</g>
<!-- 3 -->
<g id="node4" class="node">
<title>3</title>
<path fill="none" stroke="#56d8b9" stroke-width="2" d="M191.5,-108C191.5,-108 156.5,-108 156.5,-108 150.5,-108 144.5,-102 144.5,-96 144.5,-96 144.5,-84 144.5,-84 144.5,-78 150.5,-72 156.5,-72 156.5,-72 191.5,-72 191.5,-72 197.5,-72 203.5,-78 203.5,-84 203.5,-84 203.5,-96 203.5,-96 203.5,-102 197.5,-108 191.5,-108"/>
<text text-anchor="middle" x="174" y="-87.5" font-family="sans" font-size="10.00">multiqc_1</text>
</g>
<!-- 3&#45;&gt;0 -->
<g id="edge3" class="edge">
<title>3&#45;&gt;0</title>
<path fill="none" stroke="grey" stroke-width="2" d="M203.74,-73.46C223.75,-63.01 250.27,-49.16 271.56,-38.04"/>
<polygon fill="grey" stroke="grey" stroke-width="2" points="273.38,-41.03 280.63,-33.3 270.14,-34.83 273.38,-41.03"/>
</g>
<!-- 4 -->
<g id="node5" class="node">
<title>4</title>
<path fill="none" stroke="#56b1d8" stroke-width="2" d="M551,-324C551,-324 385,-324 385,-324 379,-324 373,-318 373,-312 373,-312 373,-300 373,-300 373,-294 379,-288 385,-288 385,-288 551,-288 551,-288 557,-288 563,-294 563,-300 563,-300 563,-312 563,-312 563,-318 557,-324 551,-324"/>
<text text-anchor="middle" x="468" y="-309" font-family="sans" font-size="10.00">final_otu_files</text>
<text text-anchor="middle" x="468" y="-298" font-family="sans" font-size="10.00">finalotus: data/mothur/final/otu_analysis</text>
</g>
<!-- 4&#45;&gt;0 -->
<g id="edge4" class="edge">
<title>4&#45;&gt;0</title>
<path fill="none" stroke="grey" stroke-width="2" d="M428.16,-287.92C410.69,-279.04 390.82,-266.9 376,-252 326.6,-202.35 324.34,-176.94 312,-108 308.35,-87.57 307.42,-64.12 307.37,-46.41"/>
<polygon fill="grey" stroke="grey" stroke-width="2" points="310.87,-46.23 307.44,-36.21 303.87,-46.19 310.87,-46.23"/>
</g>
<!-- 20 -->
<g id="node21" class="node">
<title>20</title>
<path fill="none" stroke="#8fd856" stroke-width="2" d="M469,-252C469,-252 397,-252 397,-252 391,-252 385,-246 385,-240 385,-240 385,-228 385,-228 385,-222 391,-216 397,-216 397,-216 469,-216 469,-216 475,-216 481,-222 481,-228 481,-228 481,-240 481,-240 481,-246 475,-252 469,-252"/>
<text text-anchor="middle" x="433" y="-237" font-family="sans" font-size="10.00">otutable_by_group</text>
<text text-anchor="middle" x="433" y="-226" font-family="sans" font-size="10.00">group: sample</text>
</g>
<!-- 4&#45;&gt;20 -->
<g id="edge31" class="edge">
<title>4&#45;&gt;20</title>
<path fill="none" stroke="grey" stroke-width="2" d="M459.35,-287.7C455.36,-279.73 450.55,-270.1 446.13,-261.26"/>
<polygon fill="grey" stroke="grey" stroke-width="2" points="449.15,-259.48 441.55,-252.1 442.89,-262.61 449.15,-259.48"/>
</g>
<!-- 21 -->
<g id="node22" class="node">
<title>21</title>
<path fill="none" stroke="#8fd856" stroke-width="2" d="M604,-252C604,-252 532,-252 532,-252 526,-252 520,-246 520,-240 520,-240 520,-228 520,-228 520,-222 526,-216 532,-216 532,-216 604,-216 604,-216 610,-216 616,-222 616,-228 616,-228 616,-240 616,-240 616,-246 610,-252 604,-252"/>
<text text-anchor="middle" x="568" y="-237" font-family="sans" font-size="10.00">otutable_by_group</text>
<text text-anchor="middle" x="568" y="-226" font-family="sans" font-size="10.00">group: control</text>
</g>
<!-- 4&#45;&gt;21 -->
<g id="edge32" class="edge">
<title>4&#45;&gt;21</title>
<path fill="none" stroke="grey" stroke-width="2" d="M492.46,-287.88C505.3,-278.89 521.2,-267.76 535.09,-258.03"/>
<polygon fill="grey" stroke="grey" stroke-width="2" points="537.26,-260.79 543.44,-252.19 533.24,-255.06 537.26,-260.79"/>
</g>
<!-- 5 -->
<g id="node6" class="node">
<title>5</title>
<path fill="none" stroke="#56d87b" stroke-width="2" d="M496,-396C496,-396 440,-396 440,-396 434,-396 428,-390 428,-384 428,-384 428,-372 428,-372 428,-366 434,-360 440,-360 440,-360 496,-360 496,-360 502,-360 508,-366 508,-372 508,-372 508,-384 508,-384 508,-390 502,-396 496,-396"/>
<text text-anchor="middle" x="468" y="-375.5" font-family="sans" font-size="10.00">classify_otu97</text>
</g>
<!-- 5&#45;&gt;4 -->
<g id="edge12" class="edge">
<title>5&#45;&gt;4</title>
<path fill="none" stroke="grey" stroke-width="2" d="M468,-359.7C468,-351.98 468,-342.71 468,-334.11"/>
<polygon fill="grey" stroke="grey" stroke-width="2" points="471.5,-334.1 468,-324.1 464.5,-334.1 471.5,-334.1"/>
</g>
<!-- 6 -->
<g id="node7" class="node">
<title>6</title>
<path fill="none" stroke="#d88556" stroke-width="2" d="M545.5,-468C545.5,-468 494.5,-468 494.5,-468 488.5,-468 482.5,-462 482.5,-456 482.5,-456 482.5,-444 482.5,-444 482.5,-438 488.5,-432 494.5,-432 494.5,-432 545.5,-432 545.5,-432 551.5,-432 557.5,-438 557.5,-444 557.5,-444 557.5,-456 557.5,-456 557.5,-462 551.5,-468 545.5,-468"/>
<text text-anchor="middle" x="520" y="-447.5" font-family="sans" font-size="10.00">cluster_otu97</text>
</g>
<!-- 6&#45;&gt;5 -->
<g id="edge13" class="edge">
<title>6&#45;&gt;5</title>
<path fill="none" stroke="grey" stroke-width="2" d="M507.15,-431.7C500.97,-423.39 493.46,-413.28 486.68,-404.14"/>
<polygon fill="grey" stroke="grey" stroke-width="2" points="489.48,-402.04 480.71,-396.1 483.86,-406.22 489.48,-402.04"/>
</g>
<!-- 7 -->
<g id="node8" class="node">
<title>7</title>
<path fill="none" stroke="#a7d856" stroke-width="2" d="M616.5,-540C616.5,-540 533.5,-540 533.5,-540 527.5,-540 521.5,-534 521.5,-528 521.5,-528 521.5,-516 521.5,-516 521.5,-510 527.5,-504 533.5,-504 533.5,-504 616.5,-504 616.5,-504 622.5,-504 628.5,-510 628.5,-516 628.5,-516 628.5,-528 628.5,-528 628.5,-534 622.5,-540 616.5,-540"/>
<text text-anchor="middle" x="575" y="-519.5" font-family="sans" font-size="10.00">compute_seqdist003</text>
</g>
<!-- 7&#45;&gt;6 -->
<g id="edge15" class="edge">
<title>7&#45;&gt;6</title>
<path fill="none" stroke="grey" stroke-width="2" d="M561.4,-503.7C554.88,-495.39 546.93,-485.28 539.75,-476.14"/>
<polygon fill="grey" stroke="grey" stroke-width="2" points="542.37,-473.81 533.44,-468.1 536.87,-478.13 542.37,-473.81"/>
</g>
<!-- 8 -->
<g id="node9" class="node">
<title>8</title>
<path fill="none" stroke="#d89c56" stroke-width="2" d="M563,-612C563,-612 477,-612 477,-612 471,-612 465,-606 465,-600 465,-600 465,-588 465,-588 465,-582 471,-576 477,-576 477,-576 563,-576 563,-576 569,-576 575,-582 575,-588 575,-588 575,-600 575,-600 575,-606 569,-612 563,-612"/>
<text text-anchor="middle" x="520" y="-591.5" font-family="sans" font-size="10.00">denoise_n_classify80</text>
</g>
<!-- 8&#45;&gt;5 -->
<g id="edge14" class="edge">
<title>8&#45;&gt;5</title>
<path fill="none" stroke="grey" stroke-width="2" d="M511.57,-575.71C500.48,-552.04 481.42,-507.93 473,-468 468.71,-447.69 467.55,-424.22 467.41,-406.49"/>
<polygon fill="grey" stroke="grey" stroke-width="2" points="470.91,-406.27 467.43,-396.26 463.91,-406.26 470.91,-406.27"/>
</g>
<!-- 8&#45;&gt;6 -->
<g id="edge16" class="edge">
<title>8&#45;&gt;6</title>
<path fill="none" stroke="grey" stroke-width="2" d="M517.16,-575.87C515.58,-565.52 513.79,-552.04 513,-540 511.95,-524.03 511.95,-519.97 513,-504 513.56,-495.53 514.61,-486.36 515.73,-478.06"/>
<polygon fill="grey" stroke="grey" stroke-width="2" points="519.2,-478.53 517.16,-468.13 512.27,-477.53 519.2,-478.53"/>
</g>
<!-- 8&#45;&gt;7 -->
<g id="edge17" class="edge">
<title>8&#45;&gt;7</title>
<path fill="none" stroke="grey" stroke-width="2" d="M533.6,-575.7C540.12,-567.39 548.07,-557.28 555.25,-548.14"/>
<polygon fill="grey" stroke="grey" stroke-width="2" points="558.13,-550.13 561.56,-540.1 552.63,-545.81 558.13,-550.13"/>
</g>
<!-- 14 -->
<g id="node15" class="node">
<title>14</title>
<path fill="none" stroke="#d8c356" stroke-width="2" d="M734,-540C734,-540 660,-540 660,-540 654,-540 648,-534 648,-528 648,-528 648,-516 648,-516 648,-510 654,-504 660,-504 660,-504 734,-504 734,-504 740,-504 746,-510 746,-516 746,-516 746,-528 746,-528 746,-534 740,-540 734,-540"/>
<text text-anchor="middle" x="697" y="-519.5" font-family="sans" font-size="10.00">classify_phylotype</text>
</g>
<!-- 8&#45;&gt;14 -->
<g id="edge24" class="edge">
<title>8&#45;&gt;14</title>
<path fill="none" stroke="grey" stroke-width="2" d="M563.3,-575.88C587.71,-566.22 618.4,-554.09 644.21,-543.88"/>
<polygon fill="grey" stroke="grey" stroke-width="2" points="645.83,-547 653.84,-540.07 643.26,-540.49 645.83,-547"/>
</g>
<!-- 16 -->
<g id="node17" class="node">
<title>16</title>
<path fill="none" stroke="#5682d8" stroke-width="2" d="M846.5,-540C846.5,-540 799.5,-540 799.5,-540 793.5,-540 787.5,-534 787.5,-528 787.5,-528 787.5,-516 787.5,-516 787.5,-510 793.5,-504 799.5,-504 799.5,-504 846.5,-504 846.5,-504 852.5,-504 858.5,-510 858.5,-516 858.5,-516 858.5,-528 858.5,-528 858.5,-534 852.5,-540 846.5,-540"/>
<text text-anchor="middle" x="823" y="-519.5" font-family="sans" font-size="10.00">classify_asv</text>
</g>
<!-- 8&#45;&gt;16 -->
<g id="edge26" class="edge">
<title>8&#45;&gt;16</title>
<path fill="none" stroke="grey" stroke-width="2" d="M575.16,-580.94C622.84,-570.42 693.56,-554.61 755,-540 762.33,-538.26 770.08,-536.37 777.64,-534.5"/>
<polygon fill="grey" stroke="grey" stroke-width="2" points="778.54,-537.88 787.39,-532.07 776.84,-531.09 778.54,-537.88"/>
</g>
<!-- 9 -->
<g id="node10" class="node">
<title>9</title>
<path fill="none" stroke="#bed856" stroke-width="2" d="M421.5,-684C421.5,-684 374.5,-684 374.5,-684 368.5,-684 362.5,-678 362.5,-672 362.5,-672 362.5,-660 362.5,-660 362.5,-654 368.5,-648 374.5,-648 374.5,-648 421.5,-648 421.5,-648 427.5,-648 433.5,-654 433.5,-660 433.5,-660 433.5,-672 433.5,-672 433.5,-678 427.5,-684 421.5,-684"/>
<text text-anchor="middle" x="398" y="-663.5" font-family="sans" font-size="10.00">align_n_filter</text>
</g>
<!-- 9&#45;&gt;8 -->
<g id="edge18" class="edge">
<title>9&#45;&gt;8</title>
<path fill="none" stroke="grey" stroke-width="2" d="M427.84,-647.88C443.94,-638.64 464,-627.13 481.29,-617.21"/>
<polygon fill="grey" stroke="grey" stroke-width="2" points="483.11,-620.2 490.04,-612.19 479.63,-614.13 483.11,-620.2"/>
</g>
<!-- 19 -->
<g id="node20" class="node">
<title>19</title>
<path fill="none" stroke="#d89c56" stroke-width="2" d="M435,-612C435,-612 323,-612 323,-612 317,-612 311,-606 311,-600 311,-600 311,-588 311,-588 311,-582 317,-576 323,-576 323,-576 435,-576 435,-576 441,-576 447,-582 447,-588 447,-588 447,-600 447,-600 447,-606 441,-612 435,-612"/>
<text text-anchor="middle" x="379" y="-597" font-family="sans" font-size="10.00">denoise_n_classify80</text>
<text text-anchor="middle" x="379" y="-586" font-family="sans" font-size="10.00">outdir: data/mothur/process</text>
</g>
<!-- 9&#45;&gt;19 -->
<g id="edge29" class="edge">
<title>9&#45;&gt;19</title>
<path fill="none" stroke="grey" stroke-width="2" d="M393.3,-647.7C391.19,-639.9 388.64,-630.51 386.28,-621.83"/>
<polygon fill="grey" stroke="grey" stroke-width="2" points="389.64,-620.84 383.64,-612.1 382.88,-622.67 389.64,-620.84"/>
</g>
<!-- 10 -->
<g id="node11" class="node">
<title>10</title>
<path fill="none" stroke="#61d856" stroke-width="2" d="M415,-756C415,-756 335,-756 335,-756 329,-756 323,-750 323,-744 323,-744 323,-732 323,-732 323,-726 329,-720 335,-720 335,-720 415,-720 415,-720 421,-720 427,-726 427,-732 427,-732 427,-744 427,-744 427,-750 421,-756 415,-756"/>
<text text-anchor="middle" x="375" y="-741" font-family="sans" font-size="10.00">make_contigs</text>
<text text-anchor="middle" x="375" y="-730" font-family="sans" font-size="10.00">outdir: data/qc/stats</text>
</g>
<!-- 10&#45;&gt;9 -->
<g id="edge20" class="edge">
<title>10&#45;&gt;9</title>
<path fill="none" stroke="grey" stroke-width="2" d="M380.69,-719.7C383.25,-711.9 386.33,-702.51 389.18,-693.83"/>
<polygon fill="grey" stroke="grey" stroke-width="2" points="392.58,-694.7 392.38,-684.1 385.93,-692.51 392.58,-694.7"/>
</g>
<!-- 11 -->
<g id="node12" class="node">
<title>11</title>
<path fill="none" stroke="#566bd8" stroke-width="2" d="M431,-833C431,-833 319,-833 319,-833 313,-833 307,-827 307,-821 307,-821 307,-804 307,-804 307,-798 313,-792 319,-792 319,-792 431,-792 431,-792 437,-792 443,-798 443,-804 443,-804 443,-821 443,-821 443,-827 437,-833 431,-833"/>
<text text-anchor="middle" x="375" y="-821" font-family="sans" font-size="10.00">make_files</text>
<text text-anchor="middle" x="375" y="-810" font-family="sans" font-size="10.00">dataset: test</text>
<text text-anchor="middle" x="375" y="-799" font-family="sans" font-size="10.00">outdir: data/mothur/process</text>
</g>
<!-- 11&#45;&gt;10 -->
<g id="edge22" class="edge">
<title>11&#45;&gt;10</title>
<path fill="none" stroke="grey" stroke-width="2" d="M375,-791.69C375,-783.91 375,-774.84 375,-766.45"/>
<polygon fill="grey" stroke="grey" stroke-width="2" points="378.5,-766.32 375,-756.32 371.5,-766.32 378.5,-766.32"/>
</g>
<!-- 12 -->
<g id="node13" class="node">
<title>12</title>
<path fill="none" stroke="#56d8a2" stroke-width="2" d="M514.5,-756C514.5,-756 457.5,-756 457.5,-756 451.5,-756 445.5,-750 445.5,-744 445.5,-744 445.5,-732 445.5,-732 445.5,-726 451.5,-720 457.5,-720 457.5,-720 514.5,-720 514.5,-720 520.5,-720 526.5,-726 526.5,-732 526.5,-732 526.5,-744 526.5,-744 526.5,-750 520.5,-756 514.5,-756"/>
<text text-anchor="middle" x="486" y="-735.5" font-family="sans" font-size="10.00">get_references</text>
</g>
<!-- 12&#45;&gt;8 -->
<g id="edge19" class="edge">
<title>12&#45;&gt;8</title>
<path fill="none" stroke="grey" stroke-width="2" d="M490.1,-719.87C495.92,-695.56 506.63,-650.82 513.53,-622.01"/>
<polygon fill="grey" stroke="grey" stroke-width="2" points="516.96,-622.73 515.88,-612.19 510.15,-621.1 516.96,-622.73"/>
</g>
<!-- 12&#45;&gt;9 -->
<g id="edge21" class="edge">
<title>12&#45;&gt;9</title>
<path fill="none" stroke="grey" stroke-width="2" d="M464.25,-719.7C453.16,-710.88 439.53,-700.03 427.51,-690.47"/>
<polygon fill="grey" stroke="grey" stroke-width="2" points="429.51,-687.59 419.5,-684.1 425.15,-693.07 429.51,-687.59"/>
</g>
<!-- 12&#45;&gt;19 -->
<g id="edge30" class="edge">
<title>12&#45;&gt;19</title>
<path fill="none" stroke="grey" stroke-width="2" d="M479.93,-719.74C472.76,-700.88 459.56,-670.38 442,-648 433.42,-637.07 422.27,-626.8 411.74,-618.26"/>
<polygon fill="grey" stroke="grey" stroke-width="2" points="413.9,-615.5 403.87,-612.09 409.58,-621.01 413.9,-615.5"/>
</g>
<!-- 13 -->
<g id="node14" class="node">
<title>13</title>
<path fill="none" stroke="#56d863" stroke-width="2" d="M806,-468C806,-468 588,-468 588,-468 582,-468 576,-462 576,-456 576,-456 576,-444 576,-444 576,-438 582,-432 588,-432 588,-432 806,-432 806,-432 812,-432 818,-438 818,-444 818,-444 818,-456 818,-456 818,-462 812,-468 806,-468"/>
<text text-anchor="middle" x="697" y="-453" font-family="sans" font-size="10.00">final_phylotype_files</text>
<text text-anchor="middle" x="697" y="-442" font-family="sans" font-size="10.00">finalphylotype: data/mothur/final/phylotype_analysis</text>
</g>
<!-- 13&#45;&gt;0 -->
<g id="edge5" class="edge">
<title>13&#45;&gt;0</title>
<path fill="none" stroke="grey" stroke-width="2" d="M702.26,-431.7C709.86,-405.14 723,-352.61 723,-307 723,-307 723,-307 723,-161 723,-100.16 674.09,-97.82 619,-72 527.3,-29.02 405.83,-20.48 345.42,-19.05"/>
<polygon fill="grey" stroke="grey" stroke-width="2" points="345.29,-15.54 335.22,-18.86 345.16,-22.54 345.29,-15.54"/>
</g>
<!-- 14&#45;&gt;13 -->
<g id="edge23" class="edge">
<title>14&#45;&gt;13</title>
<path fill="none" stroke="grey" stroke-width="2" d="M697,-503.7C697,-495.98 697,-486.71 697,-478.11"/>
<polygon fill="grey" stroke="grey" stroke-width="2" points="700.5,-478.1 697,-468.1 693.5,-478.1 700.5,-478.1"/>
</g>
<!-- 15 -->
<g id="node16" class="node">
<title>15</title>
<path fill="none" stroke="#56d8d0" stroke-width="2" d="M928.5,-396C928.5,-396 763.5,-396 763.5,-396 757.5,-396 751.5,-390 751.5,-384 751.5,-384 751.5,-372 751.5,-372 751.5,-366 757.5,-360 763.5,-360 763.5,-360 928.5,-360 928.5,-360 934.5,-360 940.5,-366 940.5,-372 940.5,-372 940.5,-384 940.5,-384 940.5,-390 934.5,-396 928.5,-396"/>
<text text-anchor="middle" x="846" y="-381" font-family="sans" font-size="10.00">final_asv_files</text>
<text text-anchor="middle" x="846" y="-370" font-family="sans" font-size="10.00">finalasv: data/mothur/final/asv_analysis</text>
</g>
<!-- 15&#45;&gt;0 -->
<g id="edge6" class="edge">
<title>15&#45;&gt;0</title>
<path fill="none" stroke="grey" stroke-width="2" d="M837.5,-359.99C825.23,-333.82 804,-281.79 804,-235 804,-235 804,-235 804,-161 804,-111.49 779.86,-96.78 737,-72 670.68,-33.66 437.28,-22.76 345.48,-19.92"/>
<polygon fill="grey" stroke="grey" stroke-width="2" points="345.36,-16.42 335.26,-19.62 345.16,-23.41 345.36,-16.42"/>
</g>
<!-- 16&#45;&gt;15 -->
<g id="edge25" class="edge">
<title>16&#45;&gt;15</title>
<path fill="none" stroke="grey" stroke-width="2" d="M825.77,-503.87C829.69,-479.67 836.9,-435.21 841.56,-406.39"/>
<polygon fill="grey" stroke="grey" stroke-width="2" points="845.07,-406.62 843.22,-396.19 838.16,-405.5 845.07,-406.62"/>
</g>
<!-- 17 -->
<g id="node18" class="node">
<title>17</title>
<path fill="none" stroke="#d86e56" stroke-width="2" d="M343,-324C343,-324 121,-324 121,-324 115,-324 109,-318 109,-312 109,-312 109,-300 109,-300 109,-294 115,-288 121,-288 121,-288 343,-288 343,-288 349,-288 355,-294 355,-300 355,-300 355,-312 355,-312 355,-318 349,-324 343,-324"/>
<text text-anchor="middle" x="232" y="-309" font-family="sans" font-size="10.00">final_phylogeny_files</text>
<text text-anchor="middle" x="232" y="-298" font-family="sans" font-size="10.00">finalphylogeny: data/mothur/final/phylogeny_analysis</text>
</g>
<!-- 17&#45;&gt;0 -->
<g id="edge7" class="edge">
<title>17&#45;&gt;0</title>
<path fill="none" stroke="grey" stroke-width="2" d="M230.06,-287.9C226.29,-247.93 221.15,-146.16 256,-72 261.09,-61.17 269.32,-51.23 277.75,-42.95"/>
<polygon fill="grey" stroke="grey" stroke-width="2" points="280.17,-45.49 285.14,-36.13 275.42,-40.34 280.17,-45.49"/>
</g>
<!-- 18 -->
<g id="node19" class="node">
<title>18</title>
<path fill="none" stroke="#d8b456" stroke-width="2" d="M389,-540C389,-540 309,-540 309,-540 303,-540 297,-534 297,-528 297,-528 297,-516 297,-516 297,-510 303,-504 309,-504 309,-504 389,-504 389,-504 395,-504 401,-510 401,-516 401,-516 401,-528 401,-528 401,-534 395,-540 389,-540"/>
<text text-anchor="middle" x="349" y="-525" font-family="sans" font-size="10.00">classify_phylogeny</text>
<text text-anchor="middle" x="349" y="-514" font-family="sans" font-size="10.00">outdir: data/qc/stats</text>
</g>
<!-- 18&#45;&gt;17 -->
<g id="edge27" class="edge">
<title>18&#45;&gt;17</title>
<path fill="none" stroke="grey" stroke-width="2" d="M339.62,-503.85C319.21,-466.52 270.65,-377.69 246.36,-333.26"/>
<polygon fill="grey" stroke="grey" stroke-width="2" points="249.29,-331.33 241.42,-324.23 243.15,-334.69 249.29,-331.33"/>
</g>
<!-- 19&#45;&gt;18 -->
<g id="edge28" class="edge">
<title>19&#45;&gt;18</title>
<path fill="none" stroke="grey" stroke-width="2" d="M371.58,-575.7C368.21,-567.81 364.13,-558.3 360.38,-549.55"/>
<polygon fill="grey" stroke="grey" stroke-width="2" points="363.49,-547.92 356.33,-540.1 357.05,-550.67 363.49,-547.92"/>
</g>
<!-- 20&#45;&gt;0 -->
<g id="edge8" class="edge">
<title>20&#45;&gt;0</title>
<path fill="none" stroke="grey" stroke-width="2" d="M399.62,-215.98C385.01,-207.03 368.78,-194.83 358,-180 328.35,-139.19 315.96,-80.36 311.03,-46.27"/>
<polygon fill="grey" stroke="grey" stroke-width="2" points="314.47,-45.57 309.68,-36.12 307.53,-46.5 314.47,-45.57"/>
</g>
<!-- 22 -->
<g id="node23" class="node">
<title>22</title>
<path fill="none" stroke="#d85656" stroke-width="2" d="M440,-108C440,-108 360,-108 360,-108 354,-108 348,-102 348,-96 348,-96 348,-84 348,-84 348,-78 354,-72 360,-72 360,-72 440,-72 440,-72 446,-72 452,-78 452,-84 452,-84 452,-96 452,-96 452,-102 446,-108 440,-108"/>
<text text-anchor="middle" x="400" y="-87.5" font-family="sans" font-size="10.00">subsample_otutable</text>
</g>
<!-- 20&#45;&gt;22 -->
<g id="edge33" class="edge">
<title>20&#45;&gt;22</title>
<path fill="none" stroke="grey" stroke-width="2" d="M399.64,-215.86C386.29,-207.09 372.36,-195.06 365,-180 354.79,-159.1 366.23,-134.43 378.69,-116.37"/>
<polygon fill="grey" stroke="grey" stroke-width="2" points="381.68,-118.2 384.8,-108.08 376.05,-114.05 381.68,-118.2"/>
</g>
<!-- 23 -->
<g id="node24" class="node">
<title>23</title>
<path fill="none" stroke="#d6d856" stroke-width="2" d="M437.5,-180C437.5,-180 386.5,-180 386.5,-180 380.5,-180 374.5,-174 374.5,-168 374.5,-168 374.5,-156 374.5,-156 374.5,-150 380.5,-144 386.5,-144 386.5,-144 437.5,-144 437.5,-144 443.5,-144 449.5,-150 449.5,-156 449.5,-156 449.5,-168 449.5,-168 449.5,-174 443.5,-180 437.5,-180"/>
<text text-anchor="middle" x="412" y="-159.5" font-family="sans" font-size="10.00">count_groups</text>
</g>
<!-- 20&#45;&gt;23 -->
<g id="edge37" class="edge">
<title>20&#45;&gt;23</title>
<path fill="none" stroke="grey" stroke-width="2" d="M427.81,-215.7C425.47,-207.9 422.65,-198.51 420.05,-189.83"/>
<polygon fill="grey" stroke="grey" stroke-width="2" points="423.36,-188.68 417.13,-180.1 416.65,-190.69 423.36,-188.68"/>
</g>
<!-- 24 -->
<g id="node25" class="node">
<title>24</title>
<path fill="none" stroke="#d6d856" stroke-width="2" d="M530.5,-180C530.5,-180 479.5,-180 479.5,-180 473.5,-180 467.5,-174 467.5,-168 467.5,-168 467.5,-156 467.5,-156 467.5,-150 473.5,-144 479.5,-144 479.5,-144 530.5,-144 530.5,-144 536.5,-144 542.5,-150 542.5,-156 542.5,-156 542.5,-168 542.5,-168 542.5,-174 536.5,-180 530.5,-180"/>
<text text-anchor="middle" x="505" y="-159.5" font-family="sans" font-size="10.00">count_groups</text>
</g>
<!-- 20&#45;&gt;24 -->
<g id="edge39" class="edge">
<title>20&#45;&gt;24</title>
<path fill="none" stroke="grey" stroke-width="2" d="M450.8,-215.7C459.6,-207.14 470.38,-196.66 480,-187.3"/>
<polygon fill="grey" stroke="grey" stroke-width="2" points="482.68,-189.58 487.41,-180.1 477.8,-184.57 482.68,-189.58"/>
</g>
<!-- 25 -->
<g id="node26" class="node">
<title>25</title>
<path fill="none" stroke="#d85656" stroke-width="2" d="M562,-108C562,-108 482,-108 482,-108 476,-108 470,-102 470,-96 470,-96 470,-84 470,-84 470,-78 476,-72 482,-72 482,-72 562,-72 562,-72 568,-72 574,-78 574,-84 574,-84 574,-96 574,-96 574,-102 568,-108 562,-108"/>
<text text-anchor="middle" x="522" y="-87.5" font-family="sans" font-size="10.00">subsample_otutable</text>
</g>
<!-- 20&#45;&gt;25 -->
<g id="edge41" class="edge">
<title>20&#45;&gt;25</title>
<path fill="none" stroke="grey" stroke-width="2" d="M481.28,-224.54C506.95,-217.32 536.36,-204.09 552,-180 564.65,-160.52 553.93,-135.16 541.94,-116.5"/>
<polygon fill="grey" stroke="grey" stroke-width="2" points="544.78,-114.45 536.23,-108.19 539.01,-118.41 544.78,-114.45"/>
</g>
<!-- 21&#45;&gt;0 -->
<g id="edge9" class="edge">
<title>21&#45;&gt;0</title>
<path fill="none" stroke="grey" stroke-width="2" d="M603.17,-215.94C616.98,-207.25 631.35,-195.26 639,-180 663.23,-131.67 629.09,-100.26 583,-72 507.85,-25.92 401.2,-18.52 345.37,-18.13"/>
<polygon fill="grey" stroke="grey" stroke-width="2" points="345.23,-14.63 335.23,-18.14 345.23,-21.63 345.23,-14.63"/>
</g>
<!-- 21&#45;&gt;22 -->
<g id="edge34" class="edge">
<title>21&#45;&gt;22</title>
<path fill="none" stroke="grey" stroke-width="2" d="M569.7,-215.79C570.66,-196.12 569.12,-164.06 552,-144 545.69,-136.6 501.3,-121.58 462.1,-109.41"/>
<polygon fill="grey" stroke="grey" stroke-width="2" points="462.87,-105.98 452.28,-106.38 460.81,-112.67 462.87,-105.98"/>
</g>
<!-- 21&#45;&gt;23 -->
<g id="edge38" class="edge">
<title>21&#45;&gt;23</title>
<path fill="none" stroke="grey" stroke-width="2" d="M529.84,-215.88C508.53,-206.31 481.79,-194.32 459.18,-184.17"/>
<polygon fill="grey" stroke="grey" stroke-width="2" points="460.32,-180.85 449.77,-179.95 457.46,-187.23 460.32,-180.85"/>
</g>
<!-- 21&#45;&gt;24 -->
<g id="edge40" class="edge">
<title>21&#45;&gt;24</title>
<path fill="none" stroke="grey" stroke-width="2" d="M552.43,-215.7C544.8,-207.22 535.48,-196.86 527.12,-187.58"/>
<polygon fill="grey" stroke="grey" stroke-width="2" points="529.69,-185.2 520.39,-180.1 524.48,-189.88 529.69,-185.2"/>
</g>
<!-- 21&#45;&gt;25 -->
<g id="edge42" class="edge">
<title>21&#45;&gt;25</title>
<path fill="none" stroke="grey" stroke-width="2" d="M593.38,-215.95C604.71,-206.79 616.88,-194.4 623,-180 629.26,-165.28 631.28,-157.69 623,-144 613.92,-128.98 599.03,-118.01 583.43,-110.09"/>
<polygon fill="grey" stroke="grey" stroke-width="2" points="584.75,-106.84 574.21,-105.76 581.78,-113.18 584.75,-106.84"/>
</g>
<!-- 22&#45;&gt;0 -->
<g id="edge10" class="edge">
<title>22&#45;&gt;0</title>
<path fill="none" stroke="grey" stroke-width="2" d="M377.26,-71.7C365.56,-62.8 351.14,-51.82 338.49,-42.2"/>
<polygon fill="grey" stroke="grey" stroke-width="2" points="340.56,-39.37 330.48,-36.1 336.32,-44.94 340.56,-39.37"/>
</g>
<!-- 23&#45;&gt;22 -->
<g id="edge35" class="edge">
<title>23&#45;&gt;22</title>
<path fill="none" stroke="grey" stroke-width="2" d="M409.03,-143.7C407.71,-135.98 406.12,-126.71 404.65,-118.11"/>
<polygon fill="grey" stroke="grey" stroke-width="2" points="408.07,-117.37 402.93,-108.1 401.17,-118.55 408.07,-117.37"/>
</g>
<!-- 23&#45;&gt;25 -->
<g id="edge43" class="edge">
<title>23&#45;&gt;25</title>
<path fill="none" stroke="grey" stroke-width="2" d="M438.91,-143.88C453.16,-134.81 470.85,-123.55 486.24,-113.76"/>
<polygon fill="grey" stroke="grey" stroke-width="2" points="488.43,-116.51 494.99,-108.19 484.67,-110.61 488.43,-116.51"/>
</g>
<!-- 24&#45;&gt;22 -->
<g id="edge36" class="edge">
<title>24&#45;&gt;22</title>
<path fill="none" stroke="grey" stroke-width="2" d="M479.31,-143.88C465.71,-134.81 448.83,-123.55 434.14,-113.76"/>
<polygon fill="grey" stroke="grey" stroke-width="2" points="436.05,-110.82 425.78,-108.19 432.16,-116.65 436.05,-110.82"/>
</g>
<!-- 24&#45;&gt;25 -->
<g id="edge44" class="edge">
<title>24&#45;&gt;25</title>
<path fill="none" stroke="grey" stroke-width="2" d="M509.2,-143.7C511.1,-135.9 513.38,-126.51 515.48,-117.83"/>
<polygon fill="grey" stroke="grey" stroke-width="2" points="518.89,-118.65 517.85,-108.1 512.08,-117 518.89,-118.65"/>
</g>
<!-- 25&#45;&gt;0 -->
<g id="edge11" class="edge">
<title>25&#45;&gt;0</title>
<path fill="none" stroke="grey" stroke-width="2" d="M469.92,-71.97C431.19,-59.29 379.28,-42.31 344.79,-31.03"/>
<polygon fill="grey" stroke="grey" stroke-width="2" points="345.71,-27.65 335.11,-27.87 343.53,-34.3 345.71,-27.65"/>
</g>
</g>
</svg>
