<?xml version="1.0" encoding="UTF-8" standalone="no"?>
<!DOCTYPE svg PUBLIC "-//W3C//DTD SVG 1.1//EN"
 "http://www.w3.org/Graphics/SVG/1.1/DTD/svg11.dtd">
<!-- Generated by graphviz version 6.0.1 (0)
 -->
<!-- Title: snakemake_dag Pages: 1 -->
<svg width="4218pt" height="409pt"
 viewBox="0.00 0.00 4218.00 409.00" xmlns="http://www.w3.org/2000/svg" xmlns:xlink="http://www.w3.org/1999/xlink">
<g id="graph0" class="graph" transform="scale(1 1) rotate(0) translate(4 405)">
<title>snakemake_dag</title>
<polygon fill="white" stroke="none" points="-4,4 -4,-405 4214,-405 4214,4 -4,4"/>
<!-- 0 -->
<g id="node1" class="node">
<title>0</title>
<path fill="none" stroke="#d85656" stroke-width="2" d="M2266,-36C2266,-36 2236,-36 2236,-36 2230,-36 2224,-30 2224,-24 2224,-24 2224,-12 2224,-12 2224,-6 2230,0 2236,0 2236,0 2266,0 2266,0 2272,0 2278,-6 2278,-12 2278,-12 2278,-24 2278,-24 2278,-30 2272,-36 2266,-36"/>
<text text-anchor="middle" x="2251" y="-15.5" font-family="sans" font-size="10.00">all</text>
</g>
<!-- 1 -->
<g id="node2" class="node">
<title>1</title>
<path fill="none" stroke="#56d8b9" stroke-width="2" d="M2320.5,-180C2320.5,-180 2271.5,-180 2271.5,-180 2265.5,-180 2259.5,-174 2259.5,-168 2259.5,-168 2259.5,-156 2259.5,-156 2259.5,-150 2265.5,-144 2271.5,-144 2271.5,-144 2320.5,-144 2320.5,-144 2326.5,-144 2332.5,-150 2332.5,-156 2332.5,-156 2332.5,-168 2332.5,-168 2332.5,-174 2326.5,-180 2320.5,-180"/>
<text text-anchor="middle" x="2296" y="-159.5" font-family="sans" font-size="10.00">calc16SError</text>
</g>
<!-- 1&#45;&gt;0 -->
<g id="edge1" class="edge">
<title>1&#45;&gt;0</title>
<path fill="none" stroke="grey" stroke-width="2" d="M2290.57,-143.87C2282.87,-119.56 2268.69,-74.82 2259.56,-46.01"/>
<polygon fill="grey" stroke="grey" stroke-width="2" points="2262.8,-44.66 2256.45,-36.19 2256.13,-46.78 2262.8,-44.66"/>
</g>
<!-- 2 -->
<g id="node3" class="node">
<title>2</title>
<path fill="none" stroke="#d8a456" stroke-width="2" d="M2235.5,-252C2235.5,-252 2170.5,-252 2170.5,-252 2164.5,-252 2158.5,-246 2158.5,-240 2158.5,-240 2158.5,-228 2158.5,-228 2158.5,-222 2164.5,-216 2170.5,-216 2170.5,-216 2235.5,-216 2235.5,-216 2241.5,-216 2247.5,-222 2247.5,-228 2247.5,-228 2247.5,-240 2247.5,-240 2247.5,-246 2241.5,-252 2235.5,-252"/>
<text text-anchor="middle" x="2203" y="-231.5" font-family="sans" font-size="10.00">make16SShared</text>
</g>
<!-- 2&#45;&gt;0 -->
<g id="edge2" class="edge">
<title>2&#45;&gt;0</title>
<path fill="none" stroke="grey" stroke-width="2" d="M2206.85,-215.85C2215.17,-178.75 2234.89,-90.81 2244.92,-46.1"/>
<polygon fill="grey" stroke="grey" stroke-width="2" points="2248.36,-46.76 2247.13,-36.23 2241.53,-45.22 2248.36,-46.76"/>
</g>
<!-- 2&#45;&gt;1 -->
<g id="edge7" class="edge">
<title>2&#45;&gt;1</title>
<path fill="none" stroke="grey" stroke-width="2" d="M2225.99,-215.7C2237.81,-206.8 2252.39,-195.82 2265.18,-186.2"/>
<polygon fill="grey" stroke="grey" stroke-width="2" points="2267.39,-188.91 2273.28,-180.1 2263.18,-183.32 2267.39,-188.91"/>
</g>
<!-- 28 -->
<g id="node29" class="node">
<title>28</title>
<path fill="none" stroke="#d87d56" stroke-width="2" d="M2180.5,-180C2180.5,-180 2121.5,-180 2121.5,-180 2115.5,-180 2109.5,-174 2109.5,-168 2109.5,-168 2109.5,-156 2109.5,-156 2109.5,-150 2115.5,-144 2121.5,-144 2121.5,-144 2180.5,-144 2180.5,-144 2186.5,-144 2192.5,-150 2192.5,-156 2192.5,-156 2192.5,-168 2192.5,-168 2192.5,-174 2186.5,-180 2180.5,-180"/>
<text text-anchor="middle" x="2151" y="-159.5" font-family="sans" font-size="10.00">split16SShared</text>
</g>
<!-- 2&#45;&gt;28 -->
<g id="edge56" class="edge">
<title>2&#45;&gt;28</title>
<path fill="none" stroke="grey" stroke-width="2" d="M2190.15,-215.7C2183.97,-207.39 2176.46,-197.28 2169.68,-188.14"/>
<polygon fill="grey" stroke="grey" stroke-width="2" points="2172.48,-186.04 2163.71,-180.1 2166.86,-190.22 2172.48,-186.04"/>
</g>
<!-- 3 -->
<g id="node4" class="node">
<title>3</title>
<path fill="none" stroke="#56d892" stroke-width="2" d="M2162.5,-324C2162.5,-324 2093.5,-324 2093.5,-324 2087.5,-324 2081.5,-318 2081.5,-312 2081.5,-312 2081.5,-300 2081.5,-300 2081.5,-294 2087.5,-288 2093.5,-288 2093.5,-288 2162.5,-288 2162.5,-288 2168.5,-288 2174.5,-294 2174.5,-300 2174.5,-300 2174.5,-312 2174.5,-312 2174.5,-318 2168.5,-324 2162.5,-324"/>
<text text-anchor="middle" x="2128" y="-303.5" font-family="sans" font-size="10.00">makeMappingFile</text>
</g>
<!-- 3&#45;&gt;2 -->
<g id="edge9" class="edge">
<title>3&#45;&gt;2</title>
<path fill="none" stroke="grey" stroke-width="2" d="M2146.54,-287.7C2155.8,-279.05 2167.16,-268.45 2177.26,-259.03"/>
<polygon fill="grey" stroke="grey" stroke-width="2" points="2179.75,-261.49 2184.67,-252.1 2174.98,-256.37 2179.75,-261.49"/>
</g>
<!-- 4 -->
<g id="node5" class="node">
<title>4</title>
<path fill="none" stroke="#8fd856" stroke-width="2" d="M3818,-401C3818,-401 3668,-401 3668,-401 3662,-401 3656,-395 3656,-389 3656,-389 3656,-372 3656,-372 3656,-366 3662,-360 3668,-360 3668,-360 3818,-360 3818,-360 3824,-360 3830,-366 3830,-372 3830,-372 3830,-389 3830,-389 3830,-395 3824,-401 3818,-401"/>
<text text-anchor="middle" x="3743" y="-389" font-family="sans" font-size="10.00">getReadData</text>
<text text-anchor="middle" x="3743" y="-378" font-family="sans" font-size="10.00">mothurSamples: Mock2_S184_L001</text>
<text text-anchor="middle" x="3743" y="-367" font-family="sans" font-size="10.00">readNum: R1</text>
</g>
<!-- 4&#45;&gt;2 -->
<g id="edge11" class="edge">
<title>4&#45;&gt;2</title>
<path fill="none" stroke="grey" stroke-width="2" d="M3655.98,-361.16C3652.96,-360.73 3649.96,-360.35 3647,-360 3523.77,-345.6 2647.84,-365.72 2531,-324 2506.22,-315.15 2508.1,-298.57 2484,-288 2398.88,-250.67 2369.13,-270.28 2278,-252 2271.4,-250.68 2264.5,-249.22 2257.66,-247.72"/>
<polygon fill="grey" stroke="grey" stroke-width="2" points="2258.26,-244.27 2247.74,-245.52 2256.74,-251.1 2258.26,-244.27"/>
</g>
<!-- 4&#45;&gt;3 -->
<g id="edge33" class="edge">
<title>4&#45;&gt;3</title>
<path fill="none" stroke="grey" stroke-width="2" d="M3655.98,-361.16C3652.96,-360.73 3649.96,-360.34 3647,-360 3137.3,-300.72 3005.75,-343.94 2493,-324 2383.95,-319.76 2256.63,-313.54 2184.84,-309.92"/>
<polygon fill="grey" stroke="grey" stroke-width="2" points="2184.82,-306.41 2174.66,-309.4 2184.47,-313.4 2184.82,-306.41"/>
</g>
<!-- 5 -->
<g id="node6" class="node">
<title>5</title>
<path fill="none" stroke="#8fd856" stroke-width="2" d="M4010,-401C4010,-401 3860,-401 3860,-401 3854,-401 3848,-395 3848,-389 3848,-389 3848,-372 3848,-372 3848,-366 3854,-360 3860,-360 3860,-360 4010,-360 4010,-360 4016,-360 4022,-366 4022,-372 4022,-372 4022,-389 4022,-389 4022,-395 4016,-401 4010,-401"/>
<text text-anchor="middle" x="3935" y="-389" font-family="sans" font-size="10.00">getReadData</text>
<text text-anchor="middle" x="3935" y="-378" font-family="sans" font-size="10.00">mothurSamples: Mock2_S184_L001</text>
<text text-anchor="middle" x="3935" y="-367" font-family="sans" font-size="10.00">readNum: R2</text>
</g>
<!-- 5&#45;&gt;2 -->
<g id="edge12" class="edge">
<title>5&#45;&gt;2</title>
<path fill="none" stroke="grey" stroke-width="2" d="M3847.98,-361.15C3844.96,-360.72 3841.96,-360.34 3839,-360 3698.75,-343.89 2702.28,-370.53 2569,-324 2543.82,-315.21 2545.61,-298.27 2521,-288 2420.24,-245.96 2385.32,-272.08 2278,-252 2271.39,-250.76 2264.47,-249.35 2257.63,-247.89"/>
<polygon fill="grey" stroke="grey" stroke-width="2" points="2258.22,-244.43 2247.7,-245.72 2256.72,-251.27 2258.22,-244.43"/>
</g>
<!-- 5&#45;&gt;3 -->
<g id="edge34" class="edge">
<title>5&#45;&gt;3</title>
<path fill="none" stroke="grey" stroke-width="2" d="M3847.98,-361.14C3844.96,-360.72 3841.96,-360.34 3839,-360 3261.22,-293.87 3112.2,-344.26 2531,-324 2407.43,-319.69 2262.6,-313.24 2184.62,-309.65"/>
<polygon fill="grey" stroke="grey" stroke-width="2" points="2184.68,-306.15 2174.53,-309.18 2184.36,-313.14 2184.68,-306.15"/>
</g>
<!-- 6 -->
<g id="node7" class="node">
<title>6</title>
<path fill="none" stroke="#8fd856" stroke-width="2" d="M4198,-401C4198,-401 4052,-401 4052,-401 4046,-401 4040,-395 4040,-389 4040,-389 4040,-372 4040,-372 4040,-366 4046,-360 4052,-360 4052,-360 4198,-360 4198,-360 4204,-360 4210,-366 4210,-372 4210,-372 4210,-389 4210,-389 4210,-395 4204,-401 4198,-401"/>
<text text-anchor="middle" x="4125" y="-389" font-family="sans" font-size="10.00">getReadData</text>
<text text-anchor="middle" x="4125" y="-378" font-family="sans" font-size="10.00">mothurSamples: Water1_S92_L001</text>
<text text-anchor="middle" x="4125" y="-367" font-family="sans" font-size="10.00">readNum: R1</text>
</g>
<!-- 6&#45;&gt;2 -->
<g id="edge13" class="edge">
<title>6&#45;&gt;2</title>
<path fill="none" stroke="grey" stroke-width="2" d="M4039.8,-361.13C4036.84,-360.71 4033.9,-360.33 4031,-360 3873.22,-341.8 2750.58,-380.12 2602,-324 2578.68,-315.19 2581.84,-297.99 2559,-288 2443.64,-237.55 2401.98,-273.94 2278,-252 2271.38,-250.83 2264.45,-249.46 2257.61,-248.01"/>
<polygon fill="grey" stroke="grey" stroke-width="2" points="2258.19,-244.56 2247.67,-245.86 2256.7,-251.4 2258.19,-244.56"/>
</g>
<!-- 6&#45;&gt;3 -->
<g id="edge35" class="edge">
<title>6&#45;&gt;3</title>
<path fill="none" stroke="grey" stroke-width="2" d="M4039.8,-361.13C4036.84,-360.71 4033.9,-360.33 4031,-360 3708.14,-322.84 2893.83,-334.26 2569,-324 2430.98,-319.64 2268.71,-312.99 2184.75,-309.44"/>
<polygon fill="grey" stroke="grey" stroke-width="2" points="2184.8,-305.94 2174.66,-309.01 2184.51,-312.93 2184.8,-305.94"/>
</g>
<!-- 7 -->
<g id="node8" class="node">
<title>7</title>
<path fill="none" stroke="#8fd856" stroke-width="2" d="M158,-401C158,-401 12,-401 12,-401 6,-401 0,-395 0,-389 0,-389 0,-372 0,-372 0,-366 6,-360 12,-360 12,-360 158,-360 158,-360 164,-360 170,-366 170,-372 170,-372 170,-389 170,-389 170,-395 164,-401 158,-401"/>
<text text-anchor="middle" x="85" y="-389" font-family="sans" font-size="10.00">getReadData</text>
<text text-anchor="middle" x="85" y="-378" font-family="sans" font-size="10.00">mothurSamples: Water1_S92_L001</text>
<text text-anchor="middle" x="85" y="-367" font-family="sans" font-size="10.00">readNum: R2</text>
</g>
<!-- 7&#45;&gt;2 -->
<g id="edge14" class="edge">
<title>7&#45;&gt;2</title>
<path fill="none" stroke="grey" stroke-width="2" d="M170.34,-360.16C271.35,-338.21 444.93,-303.46 596,-288 906.89,-256.19 1903.3,-239.48 2148.23,-235.79"/>
<polygon fill="grey" stroke="grey" stroke-width="2" points="2148.37,-239.29 2158.31,-235.64 2148.26,-232.29 2148.37,-239.29"/>
</g>
<!-- 7&#45;&gt;3 -->
<g id="edge36" class="edge">
<title>7&#45;&gt;3</title>
<path fill="none" stroke="grey" stroke-width="2" d="M170.2,-361.14C173.16,-360.72 176.1,-360.34 179,-360 559.5,-315.71 1790.71,-308.31 2070.9,-307.19"/>
<polygon fill="grey" stroke="grey" stroke-width="2" points="2071.24,-310.68 2081.23,-307.15 2071.22,-303.68 2071.24,-310.68"/>
</g>
<!-- 8 -->
<g id="node9" class="node">
<title>8</title>
<path fill="none" stroke="#8fd856" stroke-width="2" d="M355.5,-401C355.5,-401 200.5,-401 200.5,-401 194.5,-401 188.5,-395 188.5,-389 188.5,-389 188.5,-372 188.5,-372 188.5,-366 194.5,-360 200.5,-360 200.5,-360 355.5,-360 355.5,-360 361.5,-360 367.5,-366 367.5,-372 367.5,-372 367.5,-389 367.5,-389 367.5,-395 361.5,-401 355.5,-401"/>
<text text-anchor="middle" x="278" y="-389" font-family="sans" font-size="10.00">getReadData</text>
<text text-anchor="middle" x="278" y="-378" font-family="sans" font-size="10.00">mothurSamples: F3D141_S207_L001</text>
<text text-anchor="middle" x="278" y="-367" font-family="sans" font-size="10.00">readNum: R1</text>
</g>
<!-- 8&#45;&gt;2 -->
<g id="edge15" class="edge">
<title>8&#45;&gt;2</title>
<path fill="none" stroke="grey" stroke-width="2" d="M367.68,-361.42C370.48,-360.93 373.26,-360.45 376,-360 614.86,-320.35 674.79,-309 916,-288 1392.18,-246.54 1970.39,-237.36 2148.3,-235.47"/>
<polygon fill="grey" stroke="grey" stroke-width="2" points="2148.49,-238.96 2158.45,-235.36 2148.41,-231.97 2148.49,-238.96"/>
</g>
<!-- 8&#45;&gt;3 -->
<g id="edge37" class="edge">
<title>8&#45;&gt;3</title>
<path fill="none" stroke="grey" stroke-width="2" d="M367.63,-361.05C370.45,-360.66 373.24,-360.31 376,-360 715.77,-321.33 1809.3,-309.71 2071.23,-307.45"/>
<polygon fill="grey" stroke="grey" stroke-width="2" points="2071.31,-310.95 2081.28,-307.36 2071.25,-303.95 2071.31,-310.95"/>
</g>
<!-- 9 -->
<g id="node10" class="node">
<title>9</title>
<path fill="none" stroke="#8fd856" stroke-width="2" d="M552.5,-401C552.5,-401 397.5,-401 397.5,-401 391.5,-401 385.5,-395 385.5,-389 385.5,-389 385.5,-372 385.5,-372 385.5,-366 391.5,-360 397.5,-360 397.5,-360 552.5,-360 552.5,-360 558.5,-360 564.5,-366 564.5,-372 564.5,-372 564.5,-389 564.5,-389 564.5,-395 558.5,-401 552.5,-401"/>
<text text-anchor="middle" x="475" y="-389" font-family="sans" font-size="10.00">getReadData</text>
<text text-anchor="middle" x="475" y="-378" font-family="sans" font-size="10.00">mothurSamples: F3D141_S207_L001</text>
<text text-anchor="middle" x="475" y="-367" font-family="sans" font-size="10.00">readNum: R2</text>
</g>
<!-- 9&#45;&gt;2 -->
<g id="edge16" class="edge">
<title>9&#45;&gt;2</title>
<path fill="none" stroke="grey" stroke-width="2" d="M564.66,-361.29C567.47,-360.84 570.25,-360.41 573,-360 653.62,-348.03 1221.75,-294.4 1303,-288 1623.06,-262.8 2008.02,-243.96 2148.4,-237.46"/>
<polygon fill="grey" stroke="grey" stroke-width="2" points="2148.65,-240.96 2158.48,-237 2148.32,-233.96 2148.65,-240.96"/>
</g>
<!-- 9&#45;&gt;3 -->
<g id="edge38" class="edge">
<title>9&#45;&gt;3</title>
<path fill="none" stroke="grey" stroke-width="2" d="M564.63,-361.06C567.45,-360.67 570.24,-360.32 573,-360 723.85,-342.54 1809.51,-314.86 2071.31,-308.39"/>
<polygon fill="grey" stroke="grey" stroke-width="2" points="2071.44,-311.88 2081.35,-308.14 2071.27,-304.89 2071.44,-311.88"/>
</g>
<!-- 10 -->
<g id="node11" class="node">
<title>10</title>
<path fill="none" stroke="#8fd856" stroke-width="2" d="M741.5,-401C741.5,-401 594.5,-401 594.5,-401 588.5,-401 582.5,-395 582.5,-389 582.5,-389 582.5,-372 582.5,-372 582.5,-366 588.5,-360 594.5,-360 594.5,-360 741.5,-360 741.5,-360 747.5,-360 753.5,-366 753.5,-372 753.5,-372 753.5,-389 753.5,-389 753.5,-395 747.5,-401 741.5,-401"/>
<text text-anchor="middle" x="668" y="-389" font-family="sans" font-size="10.00">getReadData</text>
<text text-anchor="middle" x="668" y="-378" font-family="sans" font-size="10.00">mothurSamples: M1D0_S191_L001</text>
<text text-anchor="middle" x="668" y="-367" font-family="sans" font-size="10.00">readNum: R1</text>
</g>
<!-- 10&#45;&gt;2 -->
<g id="edge17" class="edge">
<title>10&#45;&gt;2</title>
<path fill="none" stroke="grey" stroke-width="2" d="M753.72,-361.21C756.51,-360.78 759.28,-360.37 762,-360 1000.77,-327.45 1063.68,-352.21 1303,-324 1397.91,-312.81 1420.15,-299.68 1515,-288 1749.58,-259.11 2031.23,-243.27 2148.06,-237.52"/>
<polygon fill="grey" stroke="grey" stroke-width="2" points="2148.37,-241.01 2158.19,-237.03 2148.03,-234.02 2148.37,-241.01"/>
</g>
<!-- 10&#45;&gt;3 -->
<g id="edge39" class="edge">
<title>10&#45;&gt;3</title>
<path fill="none" stroke="grey" stroke-width="2" d="M753.71,-361.11C756.5,-360.71 759.27,-360.33 762,-360 893.08,-343.97 1828.74,-315.75 2070.9,-308.66"/>
<polygon fill="grey" stroke="grey" stroke-width="2" points="2071.34,-312.14 2081.23,-308.35 2071.13,-305.15 2071.34,-312.14"/>
</g>
<!-- 11 -->
<g id="node12" class="node">
<title>11</title>
<path fill="none" stroke="#8fd856" stroke-width="2" d="M930.5,-401C930.5,-401 783.5,-401 783.5,-401 777.5,-401 771.5,-395 771.5,-389 771.5,-389 771.5,-372 771.5,-372 771.5,-366 777.5,-360 783.5,-360 783.5,-360 930.5,-360 930.5,-360 936.5,-360 942.5,-366 942.5,-372 942.5,-372 942.5,-389 942.5,-389 942.5,-395 936.5,-401 930.5,-401"/>
<text text-anchor="middle" x="857" y="-389" font-family="sans" font-size="10.00">getReadData</text>
<text text-anchor="middle" x="857" y="-378" font-family="sans" font-size="10.00">mothurSamples: M1D0_S191_L001</text>
<text text-anchor="middle" x="857" y="-367" font-family="sans" font-size="10.00">readNum: R2</text>
</g>
<!-- 11&#45;&gt;2 -->
<g id="edge18" class="edge">
<title>11&#45;&gt;2</title>
<path fill="none" stroke="grey" stroke-width="2" d="M942.72,-361.2C945.51,-360.77 948.27,-360.37 951,-360 1199.92,-326.41 1267.53,-367.01 1515,-324 1571.96,-314.1 1583.2,-298.76 1640,-288 1824.23,-253.12 2046.94,-240.78 2148.16,-236.77"/>
<polygon fill="grey" stroke="grey" stroke-width="2" points="2148.59,-240.26 2158.45,-236.37 2148.32,-233.26 2148.59,-240.26"/>
</g>
<!-- 11&#45;&gt;3 -->
<g id="edge40" class="edge">
<title>11&#45;&gt;3</title>
<path fill="none" stroke="grey" stroke-width="2" d="M942.71,-361.13C945.5,-360.72 948.27,-360.34 951,-360 1062.63,-346 1851.7,-316.92 2071.37,-309.02"/>
<polygon fill="grey" stroke="grey" stroke-width="2" points="2071.52,-312.51 2081.39,-308.66 2071.27,-305.52 2071.52,-312.51"/>
</g>
<!-- 12 -->
<g id="node13" class="node">
<title>12</title>
<path fill="none" stroke="#8fd856" stroke-width="2" d="M1127.5,-401C1127.5,-401 972.5,-401 972.5,-401 966.5,-401 960.5,-395 960.5,-389 960.5,-389 960.5,-372 960.5,-372 960.5,-366 966.5,-360 972.5,-360 972.5,-360 1127.5,-360 1127.5,-360 1133.5,-360 1139.5,-366 1139.5,-372 1139.5,-372 1139.5,-389 1139.5,-389 1139.5,-395 1133.5,-401 1127.5,-401"/>
<text text-anchor="middle" x="1050" y="-389" font-family="sans" font-size="10.00">getReadData</text>
<text text-anchor="middle" x="1050" y="-378" font-family="sans" font-size="10.00">mothurSamples: F3D143_S209_L001</text>
<text text-anchor="middle" x="1050" y="-367" font-family="sans" font-size="10.00">readNum: R1</text>
</g>
<!-- 12&#45;&gt;2 -->
<g id="edge19" class="edge">
<title>12&#45;&gt;2</title>
<path fill="none" stroke="grey" stroke-width="2" d="M1139.65,-361.2C1142.46,-360.78 1145.25,-360.37 1148,-360 1365.26,-330.55 1427.21,-376.83 1640,-324 1678.63,-314.41 1683.55,-298.3 1722,-288 1872.81,-247.6 2058.14,-237.93 2148.4,-235.66"/>
<polygon fill="grey" stroke="grey" stroke-width="2" points="2148.49,-239.16 2158.4,-235.43 2148.32,-232.16 2148.49,-239.16"/>
</g>
<!-- 12&#45;&gt;3 -->
<g id="edge41" class="edge">
<title>12&#45;&gt;3</title>
<path fill="none" stroke="grey" stroke-width="2" d="M1139.64,-361.13C1142.45,-360.73 1145.25,-360.35 1148,-360 1239.45,-348.49 1876.43,-318.57 2071.41,-309.59"/>
<polygon fill="grey" stroke="grey" stroke-width="2" points="2071.62,-313.08 2081.45,-309.13 2071.3,-306.09 2071.62,-313.08"/>
</g>
<!-- 13 -->
<g id="node14" class="node">
<title>13</title>
<path fill="none" stroke="#8fd856" stroke-width="2" d="M1324.5,-401C1324.5,-401 1169.5,-401 1169.5,-401 1163.5,-401 1157.5,-395 1157.5,-389 1157.5,-389 1157.5,-372 1157.5,-372 1157.5,-366 1163.5,-360 1169.5,-360 1169.5,-360 1324.5,-360 1324.5,-360 1330.5,-360 1336.5,-366 1336.5,-372 1336.5,-372 1336.5,-389 1336.5,-389 1336.5,-395 1330.5,-401 1324.5,-401"/>
<text text-anchor="middle" x="1247" y="-389" font-family="sans" font-size="10.00">getReadData</text>
<text text-anchor="middle" x="1247" y="-378" font-family="sans" font-size="10.00">mothurSamples: F3D143_S209_L001</text>
<text text-anchor="middle" x="1247" y="-367" font-family="sans" font-size="10.00">readNum: R2</text>
</g>
<!-- 13&#45;&gt;2 -->
<g id="edge20" class="edge">
<title>13&#45;&gt;2</title>
<path fill="none" stroke="grey" stroke-width="2" d="M1336.66,-361.28C1339.47,-360.83 1342.25,-360.4 1345,-360 1511.53,-335.54 1562.11,-376.6 1722,-324 1751.54,-314.28 1752.61,-298.16 1782,-288 1908.03,-244.43 2066.31,-235.98 2148.23,-234.76"/>
<polygon fill="grey" stroke="grey" stroke-width="2" points="2148.35,-238.26 2158.31,-234.65 2148.27,-231.26 2148.35,-238.26"/>
</g>
<!-- 13&#45;&gt;3 -->
<g id="edge42" class="edge">
<title>13&#45;&gt;3</title>
<path fill="none" stroke="grey" stroke-width="2" d="M1336.64,-361.18C1339.46,-360.76 1342.25,-360.37 1345,-360 1485.61,-341.33 1915.47,-317.97 2071.04,-309.9"/>
<polygon fill="grey" stroke="grey" stroke-width="2" points="2071.52,-313.38 2081.32,-309.37 2071.16,-306.39 2071.52,-313.38"/>
</g>
<!-- 14 -->
<g id="node15" class="node">
<title>14</title>
<path fill="none" stroke="#8fd856" stroke-width="2" d="M1513.5,-401C1513.5,-401 1366.5,-401 1366.5,-401 1360.5,-401 1354.5,-395 1354.5,-389 1354.5,-389 1354.5,-372 1354.5,-372 1354.5,-366 1360.5,-360 1366.5,-360 1366.5,-360 1513.5,-360 1513.5,-360 1519.5,-360 1525.5,-366 1525.5,-372 1525.5,-372 1525.5,-389 1525.5,-389 1525.5,-395 1519.5,-401 1513.5,-401"/>
<text text-anchor="middle" x="1440" y="-389" font-family="sans" font-size="10.00">getReadData</text>
<text text-anchor="middle" x="1440" y="-378" font-family="sans" font-size="10.00">mothurSamples: M1D1_S150_L001</text>
<text text-anchor="middle" x="1440" y="-367" font-family="sans" font-size="10.00">readNum: R1</text>
</g>
<!-- 14&#45;&gt;2 -->
<g id="edge21" class="edge">
<title>14&#45;&gt;2</title>
<path fill="none" stroke="grey" stroke-width="2" d="M1525.52,-361.53C1528.38,-361 1531.21,-360.49 1534,-360 1643.69,-340.68 1678.94,-366.23 1782,-324 1807.01,-313.75 1805.98,-298.21 1831,-288 1937.43,-244.55 2073.59,-235.81 2148.13,-234.58"/>
<polygon fill="grey" stroke="grey" stroke-width="2" points="2148.28,-238.07 2158.23,-234.45 2148.19,-231.07 2148.28,-238.07"/>
</g>
<!-- 14&#45;&gt;3 -->
<g id="edge43" class="edge">
<title>14&#45;&gt;3</title>
<path fill="none" stroke="grey" stroke-width="2" d="M1525.74,-361.29C1528.52,-360.83 1531.28,-360.4 1534,-360 1730.01,-331.02 1964.92,-315.75 2071.03,-309.89"/>
<polygon fill="grey" stroke="grey" stroke-width="2" points="2071.4,-313.37 2081.19,-309.33 2071.02,-306.38 2071.4,-313.37"/>
</g>
<!-- 15 -->
<g id="node16" class="node">
<title>15</title>
<path fill="none" stroke="#8fd856" stroke-width="2" d="M1702.5,-401C1702.5,-401 1555.5,-401 1555.5,-401 1549.5,-401 1543.5,-395 1543.5,-389 1543.5,-389 1543.5,-372 1543.5,-372 1543.5,-366 1549.5,-360 1555.5,-360 1555.5,-360 1702.5,-360 1702.5,-360 1708.5,-360 1714.5,-366 1714.5,-372 1714.5,-372 1714.5,-389 1714.5,-389 1714.5,-395 1708.5,-401 1702.5,-401"/>
<text text-anchor="middle" x="1629" y="-389" font-family="sans" font-size="10.00">getReadData</text>
<text text-anchor="middle" x="1629" y="-378" font-family="sans" font-size="10.00">mothurSamples: M1D1_S150_L001</text>
<text text-anchor="middle" x="1629" y="-367" font-family="sans" font-size="10.00">readNum: R2</text>
</g>
<!-- 15&#45;&gt;2 -->
<g id="edge22" class="edge">
<title>15&#45;&gt;2</title>
<path fill="none" stroke="grey" stroke-width="2" d="M1702.58,-359.95C1740.95,-349.59 1788.6,-336.46 1831,-324 1882.39,-308.9 1894.15,-301.43 1946,-288 2015.05,-270.12 2095.76,-254.29 2148.05,-244.68"/>
<polygon fill="grey" stroke="grey" stroke-width="2" points="2148.91,-248.09 2158.12,-242.85 2147.65,-241.2 2148.91,-248.09"/>
</g>
<!-- 15&#45;&gt;3 -->
<g id="edge44" class="edge">
<title>15&#45;&gt;3</title>
<path fill="none" stroke="grey" stroke-width="2" d="M1714.51,-361.48C1717.37,-360.97 1720.21,-360.47 1723,-360 1846.63,-339.12 1992.68,-321.8 2071.21,-313.08"/>
<polygon fill="grey" stroke="grey" stroke-width="2" points="2071.81,-316.54 2081.37,-311.96 2071.04,-309.58 2071.81,-316.54"/>
</g>
<!-- 16 -->
<g id="node17" class="node">
<title>16</title>
<path fill="none" stroke="#8fd856" stroke-width="2" d="M1899.5,-401C1899.5,-401 1744.5,-401 1744.5,-401 1738.5,-401 1732.5,-395 1732.5,-389 1732.5,-389 1732.5,-372 1732.5,-372 1732.5,-366 1738.5,-360 1744.5,-360 1744.5,-360 1899.5,-360 1899.5,-360 1905.5,-360 1911.5,-366 1911.5,-372 1911.5,-372 1911.5,-389 1911.5,-389 1911.5,-395 1905.5,-401 1899.5,-401"/>
<text text-anchor="middle" x="1822" y="-389" font-family="sans" font-size="10.00">getReadData</text>
<text text-anchor="middle" x="1822" y="-378" font-family="sans" font-size="10.00">mothurSamples: F3D142_S208_L001</text>
<text text-anchor="middle" x="1822" y="-367" font-family="sans" font-size="10.00">readNum: R1</text>
</g>
<!-- 16&#45;&gt;2 -->
<g id="edge23" class="edge">
<title>16&#45;&gt;2</title>
<path fill="none" stroke="grey" stroke-width="2" d="M1865.83,-359.84C1909.55,-340.53 1978.83,-310.74 2040,-288 2075.89,-274.66 2116.89,-261.34 2148.79,-251.39"/>
<polygon fill="grey" stroke="grey" stroke-width="2" points="2149.87,-254.72 2158.38,-248.41 2147.79,-248.03 2149.87,-254.72"/>
</g>
<!-- 16&#45;&gt;3 -->
<g id="edge45" class="edge">
<title>16&#45;&gt;3</title>
<path fill="none" stroke="grey" stroke-width="2" d="M1904.4,-359.98C1957.18,-347.47 2024.3,-331.57 2071.17,-320.46"/>
<polygon fill="grey" stroke="grey" stroke-width="2" points="2072.23,-323.81 2081.15,-318.1 2070.61,-317 2072.23,-323.81"/>
</g>
<!-- 17 -->
<g id="node18" class="node">
<title>17</title>
<path fill="none" stroke="#8fd856" stroke-width="2" d="M2096.5,-401C2096.5,-401 1941.5,-401 1941.5,-401 1935.5,-401 1929.5,-395 1929.5,-389 1929.5,-389 1929.5,-372 1929.5,-372 1929.5,-366 1935.5,-360 1941.5,-360 1941.5,-360 2096.5,-360 2096.5,-360 2102.5,-360 2108.5,-366 2108.5,-372 2108.5,-372 2108.5,-389 2108.5,-389 2108.5,-395 2102.5,-401 2096.5,-401"/>
<text text-anchor="middle" x="2019" y="-389" font-family="sans" font-size="10.00">getReadData</text>
<text text-anchor="middle" x="2019" y="-378" font-family="sans" font-size="10.00">mothurSamples: F3D142_S208_L001</text>
<text text-anchor="middle" x="2019" y="-367" font-family="sans" font-size="10.00">readNum: R2</text>
</g>
<!-- 17&#45;&gt;2 -->
<g id="edge24" class="edge">
<title>17&#45;&gt;2</title>
<path fill="none" stroke="grey" stroke-width="2" d="M2025.96,-359.82C2034.1,-339.35 2049.41,-307.62 2072,-288 2093.75,-269.11 2123.1,-256.4 2148.51,-248.17"/>
<polygon fill="grey" stroke="grey" stroke-width="2" points="2149.87,-251.42 2158.4,-245.13 2147.81,-244.73 2149.87,-251.42"/>
</g>
<!-- 17&#45;&gt;3 -->
<g id="edge46" class="edge">
<title>17&#45;&gt;3</title>
<path fill="none" stroke="grey" stroke-width="2" d="M2048.5,-359.88C2062.39,-350.64 2079.04,-339.57 2093.51,-329.94"/>
<polygon fill="grey" stroke="grey" stroke-width="2" points="2095.8,-332.62 2102.19,-324.17 2091.93,-326.79 2095.8,-332.62"/>
</g>
<!-- 18 -->
<g id="node19" class="node">
<title>18</title>
<path fill="none" stroke="#8fd856" stroke-width="2" d="M2291,-401C2291,-401 2139,-401 2139,-401 2133,-401 2127,-395 2127,-389 2127,-389 2127,-372 2127,-372 2127,-366 2133,-360 2139,-360 2139,-360 2291,-360 2291,-360 2297,-360 2303,-366 2303,-372 2303,-372 2303,-389 2303,-389 2303,-395 2297,-401 2291,-401"/>
<text text-anchor="middle" x="2215" y="-389" font-family="sans" font-size="10.00">getReadData</text>
<text text-anchor="middle" x="2215" y="-378" font-family="sans" font-size="10.00">mothurSamples: Water3_S216_L001</text>
<text text-anchor="middle" x="2215" y="-367" font-family="sans" font-size="10.00">readNum: R1</text>
</g>
<!-- 18&#45;&gt;2 -->
<g id="edge25" class="edge">
<title>18&#45;&gt;2</title>
<path fill="none" stroke="grey" stroke-width="2" d="M2213.36,-359.71C2211.26,-334.49 2207.63,-290.76 2205.27,-262.36"/>
<polygon fill="grey" stroke="grey" stroke-width="2" points="2208.75,-261.97 2204.44,-252.3 2201.78,-262.55 2208.75,-261.97"/>
</g>
<!-- 18&#45;&gt;3 -->
<g id="edge47" class="edge">
<title>18&#45;&gt;3</title>
<path fill="none" stroke="grey" stroke-width="2" d="M2191.23,-359.69C2180.46,-350.72 2167.64,-340.04 2156.37,-330.65"/>
<polygon fill="grey" stroke="grey" stroke-width="2" points="2158.42,-327.79 2148.49,-324.08 2153.94,-333.17 2158.42,-327.79"/>
</g>
<!-- 19 -->
<g id="node20" class="node">
<title>19</title>
<path fill="none" stroke="#8fd856" stroke-width="2" d="M2485,-401C2485,-401 2333,-401 2333,-401 2327,-401 2321,-395 2321,-389 2321,-389 2321,-372 2321,-372 2321,-366 2327,-360 2333,-360 2333,-360 2485,-360 2485,-360 2491,-360 2497,-366 2497,-372 2497,-372 2497,-389 2497,-389 2497,-395 2491,-401 2485,-401"/>
<text text-anchor="middle" x="2409" y="-389" font-family="sans" font-size="10.00">getReadData</text>
<text text-anchor="middle" x="2409" y="-378" font-family="sans" font-size="10.00">mothurSamples: Water3_S216_L001</text>
<text text-anchor="middle" x="2409" y="-367" font-family="sans" font-size="10.00">readNum: R2</text>
</g>
<!-- 19&#45;&gt;2 -->
<g id="edge26" class="edge">
<title>19&#45;&gt;2</title>
<path fill="none" stroke="grey" stroke-width="2" d="M2333.54,-359.9C2310.02,-351.4 2285.03,-339.71 2265,-324 2243.48,-307.12 2226.42,-280.75 2215.69,-261.09"/>
<polygon fill="grey" stroke="grey" stroke-width="2" points="2218.69,-259.27 2210.94,-252.05 2212.49,-262.53 2218.69,-259.27"/>
</g>
<!-- 19&#45;&gt;3 -->
<g id="edge48" class="edge">
<title>19&#45;&gt;3</title>
<path fill="none" stroke="grey" stroke-width="2" d="M2333.33,-359.98C2286.43,-347.88 2227.18,-332.59 2184.4,-321.55"/>
<polygon fill="grey" stroke="grey" stroke-width="2" points="2185.27,-318.16 2174.71,-319.05 2183.52,-324.94 2185.27,-318.16"/>
</g>
<!-- 20 -->
<g id="node21" class="node">
<title>20</title>
<path fill="none" stroke="#8fd856" stroke-width="2" d="M2672.5,-401C2672.5,-401 2527.5,-401 2527.5,-401 2521.5,-401 2515.5,-395 2515.5,-389 2515.5,-389 2515.5,-372 2515.5,-372 2515.5,-366 2521.5,-360 2527.5,-360 2527.5,-360 2672.5,-360 2672.5,-360 2678.5,-360 2684.5,-366 2684.5,-372 2684.5,-372 2684.5,-389 2684.5,-389 2684.5,-395 2678.5,-401 2672.5,-401"/>
<text text-anchor="middle" x="2600" y="-389" font-family="sans" font-size="10.00">getReadData</text>
<text text-anchor="middle" x="2600" y="-378" font-family="sans" font-size="10.00">mothurSamples: Mock1_S93_L001</text>
<text text-anchor="middle" x="2600" y="-367" font-family="sans" font-size="10.00">readNum: R1</text>
</g>
<!-- 20&#45;&gt;2 -->
<g id="edge27" class="edge">
<title>20&#45;&gt;2</title>
<path fill="none" stroke="grey" stroke-width="2" d="M2515.47,-361.84C2512.28,-361.21 2509.11,-360.6 2506,-360 2416.02,-342.69 2385.09,-364.72 2303,-324 2281.87,-313.52 2281.57,-303.74 2264,-288 2253.17,-278.3 2241.12,-267.78 2230.61,-258.68"/>
<polygon fill="grey" stroke="grey" stroke-width="2" points="2232.77,-255.92 2222.91,-252.04 2228.19,-261.22 2232.77,-255.92"/>
</g>
<!-- 20&#45;&gt;3 -->
<g id="edge49" class="edge">
<title>20&#45;&gt;3</title>
<path fill="none" stroke="grey" stroke-width="2" d="M2515.5,-361.7C2512.29,-361.11 2509.12,-360.54 2506,-360 2392.51,-340.29 2258.87,-322.91 2184.76,-313.79"/>
<polygon fill="grey" stroke="grey" stroke-width="2" points="2185.06,-310.3 2174.71,-312.55 2184.21,-317.24 2185.06,-310.3"/>
</g>
<!-- 21 -->
<g id="node22" class="node">
<title>21</title>
<path fill="none" stroke="#8fd856" stroke-width="2" d="M2859.5,-401C2859.5,-401 2714.5,-401 2714.5,-401 2708.5,-401 2702.5,-395 2702.5,-389 2702.5,-389 2702.5,-372 2702.5,-372 2702.5,-366 2708.5,-360 2714.5,-360 2714.5,-360 2859.5,-360 2859.5,-360 2865.5,-360 2871.5,-366 2871.5,-372 2871.5,-372 2871.5,-389 2871.5,-389 2871.5,-395 2865.5,-401 2859.5,-401"/>
<text text-anchor="middle" x="2787" y="-389" font-family="sans" font-size="10.00">getReadData</text>
<text text-anchor="middle" x="2787" y="-378" font-family="sans" font-size="10.00">mothurSamples: Mock1_S93_L001</text>
<text text-anchor="middle" x="2787" y="-367" font-family="sans" font-size="10.00">readNum: R2</text>
</g>
<!-- 21&#45;&gt;2 -->
<g id="edge28" class="edge">
<title>21&#45;&gt;2</title>
<path fill="none" stroke="grey" stroke-width="2" d="M2702.42,-361.37C2699.58,-360.89 2696.77,-360.43 2694,-360 2538.17,-335.79 2486.3,-385.31 2341,-324 2318.04,-314.31 2318.53,-302.13 2298,-288 2281.72,-276.79 2262.88,-265.9 2246.3,-256.92"/>
<polygon fill="grey" stroke="grey" stroke-width="2" points="2247.81,-253.77 2237.34,-252.15 2244.52,-259.94 2247.81,-253.77"/>
</g>
<!-- 21&#45;&gt;3 -->
<g id="edge50" class="edge">
<title>21&#45;&gt;3</title>
<path fill="none" stroke="grey" stroke-width="2" d="M2702.43,-361.34C2699.59,-360.86 2696.77,-360.42 2694,-360 2521.43,-334.05 2476.74,-340.44 2303,-324 2263.62,-320.27 2219.26,-315.96 2185.06,-312.62"/>
<polygon fill="grey" stroke="grey" stroke-width="2" points="2185.08,-309.1 2174.79,-311.61 2184.4,-316.07 2185.08,-309.1"/>
</g>
<!-- 22 -->
<g id="node23" class="node">
<title>22</title>
<path fill="none" stroke="#8fd856" stroke-width="2" d="M3048.5,-401C3048.5,-401 2901.5,-401 2901.5,-401 2895.5,-401 2889.5,-395 2889.5,-389 2889.5,-389 2889.5,-372 2889.5,-372 2889.5,-366 2895.5,-360 2901.5,-360 2901.5,-360 3048.5,-360 3048.5,-360 3054.5,-360 3060.5,-366 3060.5,-372 3060.5,-372 3060.5,-389 3060.5,-389 3060.5,-395 3054.5,-401 3048.5,-401"/>
<text text-anchor="middle" x="2975" y="-389" font-family="sans" font-size="10.00">getReadData</text>
<text text-anchor="middle" x="2975" y="-378" font-family="sans" font-size="10.00">mothurSamples: M1D2_S302_L001</text>
<text text-anchor="middle" x="2975" y="-367" font-family="sans" font-size="10.00">readNum: R1</text>
</g>
<!-- 22&#45;&gt;2 -->
<g id="edge29" class="edge">
<title>22&#45;&gt;2</title>
<path fill="none" stroke="grey" stroke-width="2" d="M2889.27,-361.23C2886.49,-360.79 2883.72,-360.38 2881,-360 2770.22,-344.61 2483.14,-364.77 2379,-324 2355.15,-314.66 2356.1,-300.94 2334,-288 2309.89,-273.89 2281.3,-261.84 2257,-252.82"/>
<polygon fill="grey" stroke="grey" stroke-width="2" points="2258.16,-249.51 2247.57,-249.38 2255.77,-256.09 2258.16,-249.51"/>
</g>
<!-- 22&#45;&gt;3 -->
<g id="edge51" class="edge">
<title>22&#45;&gt;3</title>
<path fill="none" stroke="grey" stroke-width="2" d="M2889.28,-361.21C2886.49,-360.78 2883.72,-360.37 2881,-360 2642.67,-327.49 2580.89,-341.57 2341,-324 2287.91,-320.11 2227.41,-315.24 2184.49,-311.71"/>
<polygon fill="grey" stroke="grey" stroke-width="2" points="2184.78,-308.22 2174.52,-310.89 2184.2,-315.2 2184.78,-308.22"/>
</g>
<!-- 23 -->
<g id="node24" class="node">
<title>23</title>
<path fill="none" stroke="#8fd856" stroke-width="2" d="M3237.5,-401C3237.5,-401 3090.5,-401 3090.5,-401 3084.5,-401 3078.5,-395 3078.5,-389 3078.5,-389 3078.5,-372 3078.5,-372 3078.5,-366 3084.5,-360 3090.5,-360 3090.5,-360 3237.5,-360 3237.5,-360 3243.5,-360 3249.5,-366 3249.5,-372 3249.5,-372 3249.5,-389 3249.5,-389 3249.5,-395 3243.5,-401 3237.5,-401"/>
<text text-anchor="middle" x="3164" y="-389" font-family="sans" font-size="10.00">getReadData</text>
<text text-anchor="middle" x="3164" y="-378" font-family="sans" font-size="10.00">mothurSamples: M1D2_S302_L001</text>
<text text-anchor="middle" x="3164" y="-367" font-family="sans" font-size="10.00">readNum: R2</text>
</g>
<!-- 23&#45;&gt;2 -->
<g id="edge30" class="edge">
<title>23&#45;&gt;2</title>
<path fill="none" stroke="grey" stroke-width="2" d="M3078.28,-361.17C3075.49,-360.75 3072.73,-360.36 3070,-360 2925.89,-341.19 2553.04,-375.14 2417,-324 2392.7,-314.87 2393.97,-300.1 2371,-288 2335.04,-269.06 2291.15,-255.5 2257.25,-246.84"/>
<polygon fill="grey" stroke="grey" stroke-width="2" points="2258.07,-243.44 2247.52,-244.42 2256.37,-250.23 2258.07,-243.44"/>
</g>
<!-- 23&#45;&gt;3 -->
<g id="edge52" class="edge">
<title>23&#45;&gt;3</title>
<path fill="none" stroke="grey" stroke-width="2" d="M3078.28,-361.16C3075.49,-360.74 3072.73,-360.35 3070,-360 2765,-320.65 2685.98,-342.39 2379,-324 2312.31,-320 2235.71,-314.71 2184.84,-311.1"/>
<polygon fill="grey" stroke="grey" stroke-width="2" points="2184.93,-307.6 2174.71,-310.38 2184.44,-314.58 2184.93,-307.6"/>
</g>
<!-- 24 -->
<g id="node25" class="node">
<title>24</title>
<path fill="none" stroke="#8fd856" stroke-width="2" d="M3432,-401C3432,-401 3280,-401 3280,-401 3274,-401 3268,-395 3268,-389 3268,-389 3268,-372 3268,-372 3268,-366 3274,-360 3280,-360 3280,-360 3432,-360 3432,-360 3438,-360 3444,-366 3444,-372 3444,-372 3444,-389 3444,-389 3444,-395 3438,-401 3432,-401"/>
<text text-anchor="middle" x="3356" y="-389" font-family="sans" font-size="10.00">getReadData</text>
<text text-anchor="middle" x="3356" y="-378" font-family="sans" font-size="10.00">mothurSamples: Water2_S185_L001</text>
<text text-anchor="middle" x="3356" y="-367" font-family="sans" font-size="10.00">readNum: R1</text>
</g>
<!-- 24&#45;&gt;2 -->
<g id="edge31" class="edge">
<title>24&#45;&gt;2</title>
<path fill="none" stroke="grey" stroke-width="2" d="M3267.81,-361.17C3264.84,-360.75 3261.9,-360.35 3259,-360 3081.47,-338.31 2623.05,-385.19 2455,-324 2430.28,-315 2431.65,-299.52 2408,-288 2394.4,-281.37 2313.52,-261.35 2257.52,-247.91"/>
<polygon fill="grey" stroke="grey" stroke-width="2" points="2258.26,-244.48 2247.72,-245.56 2256.63,-251.29 2258.26,-244.48"/>
</g>
<!-- 24&#45;&gt;3 -->
<g id="edge53" class="edge">
<title>24&#45;&gt;3</title>
<path fill="none" stroke="grey" stroke-width="2" d="M3267.81,-361.16C3264.84,-360.74 3261.9,-360.35 3259,-360 2887.15,-314.95 2791.08,-343 2417,-324 2336.26,-319.9 2242.9,-314.24 2184.64,-310.6"/>
<polygon fill="grey" stroke="grey" stroke-width="2" points="2184.74,-307.1 2174.54,-309.97 2184.3,-314.09 2184.74,-307.1"/>
</g>
<!-- 25 -->
<g id="node26" class="node">
<title>25</title>
<path fill="none" stroke="#8fd856" stroke-width="2" d="M3626,-401C3626,-401 3474,-401 3474,-401 3468,-401 3462,-395 3462,-389 3462,-389 3462,-372 3462,-372 3462,-366 3468,-360 3474,-360 3474,-360 3626,-360 3626,-360 3632,-360 3638,-366 3638,-372 3638,-372 3638,-389 3638,-389 3638,-395 3632,-401 3626,-401"/>
<text text-anchor="middle" x="3550" y="-389" font-family="sans" font-size="10.00">getReadData</text>
<text text-anchor="middle" x="3550" y="-378" font-family="sans" font-size="10.00">mothurSamples: Water2_S185_L001</text>
<text text-anchor="middle" x="3550" y="-367" font-family="sans" font-size="10.00">readNum: R2</text>
</g>
<!-- 25&#45;&gt;2 -->
<g id="edge32" class="edge">
<title>25&#45;&gt;2</title>
<path fill="none" stroke="grey" stroke-width="2" d="M3461.81,-361.14C3458.84,-360.73 3455.9,-360.34 3453,-360 3347,-347.44 2593.43,-360.16 2493,-324 2468.24,-315.09 2469.89,-299.03 2446,-288 2376.67,-256 2352.57,-268.44 2278,-252 2271.43,-250.55 2264.54,-249.01 2257.71,-247.48"/>
<polygon fill="grey" stroke="grey" stroke-width="2" points="2258.32,-244.03 2247.8,-245.24 2256.78,-250.86 2258.32,-244.03"/>
</g>
<!-- 25&#45;&gt;3 -->
<g id="edge54" class="edge">
<title>25&#45;&gt;3</title>
<path fill="none" stroke="grey" stroke-width="2" d="M3461.81,-361.14C3458.84,-360.72 3455.9,-360.34 3453,-360 3012.2,-308.09 2898.41,-343.52 2455,-324 2360.12,-319.82 2249.82,-313.86 2184.62,-310.22"/>
<polygon fill="grey" stroke="grey" stroke-width="2" points="2184.74,-306.72 2174.56,-309.65 2184.35,-313.71 2184.74,-306.72"/>
</g>
<!-- 26 -->
<g id="node27" class="node">
<title>26</title>
<path fill="none" stroke="#567bd8" stroke-width="2" d="M2697,-324C2697,-324 2623,-324 2623,-324 2617,-324 2611,-318 2611,-312 2611,-312 2611,-300 2611,-300 2611,-294 2617,-288 2623,-288 2623,-288 2697,-288 2697,-288 2703,-288 2709,-294 2709,-300 2709,-300 2709,-312 2709,-312 2709,-318 2703,-324 2697,-324"/>
<text text-anchor="middle" x="2660" y="-303.5" font-family="sans" font-size="10.00">get16SReferences</text>
</g>
<!-- 26&#45;&gt;2 -->
<g id="edge10" class="edge">
<title>26&#45;&gt;2</title>
<path fill="none" stroke="grey" stroke-width="2" d="M2610.99,-291.01C2606.28,-289.89 2601.56,-288.87 2597,-288 2456.84,-261.34 2418.68,-275.81 2278,-252 2271.37,-250.88 2264.44,-249.54 2257.59,-248.11"/>
<polygon fill="grey" stroke="grey" stroke-width="2" points="2258.17,-244.66 2247.65,-245.97 2256.69,-251.5 2258.17,-244.66"/>
</g>
<!-- 27 -->
<g id="node28" class="node">
<title>27</title>
<path fill="none" stroke="#d8cb56" stroke-width="2" d="M2346.5,-252C2346.5,-252 2299.5,-252 2299.5,-252 2293.5,-252 2287.5,-246 2287.5,-240 2287.5,-240 2287.5,-228 2287.5,-228 2287.5,-222 2293.5,-216 2299.5,-216 2299.5,-216 2346.5,-216 2346.5,-216 2352.5,-216 2358.5,-222 2358.5,-228 2358.5,-228 2358.5,-240 2358.5,-240 2358.5,-246 2352.5,-252 2346.5,-252"/>
<text text-anchor="middle" x="2323" y="-231.5" font-family="sans" font-size="10.00">get16SMock</text>
</g>
<!-- 26&#45;&gt;27 -->
<g id="edge55" class="edge">
<title>26&#45;&gt;27</title>
<path fill="none" stroke="grey" stroke-width="2" d="M2610.91,-291.38C2606.22,-290.19 2601.53,-289.05 2597,-288 2517.18,-269.54 2423.25,-252.34 2368.69,-242.79"/>
<polygon fill="grey" stroke="grey" stroke-width="2" points="2369.09,-239.31 2358.64,-241.04 2367.89,-246.21 2369.09,-239.31"/>
</g>
<!-- 27&#45;&gt;1 -->
<g id="edge8" class="edge">
<title>27&#45;&gt;1</title>
<path fill="none" stroke="grey" stroke-width="2" d="M2316.33,-215.7C2313.29,-207.81 2309.62,-198.3 2306.24,-189.55"/>
<polygon fill="grey" stroke="grey" stroke-width="2" points="2309.46,-188.17 2302.6,-180.1 2302.93,-190.69 2309.46,-188.17"/>
</g>
<!-- 28&#45;&gt;0 -->
<g id="edge3" class="edge">
<title>28&#45;&gt;0</title>
<path fill="none" stroke="grey" stroke-width="2" d="M2121.5,-143.94C2109.02,-134.99 2095.81,-122.79 2089,-108 2082.3,-93.47 2079.61,-84.95 2089,-72 2117.34,-32.91 2175.36,-22.12 2213.72,-19.43"/>
<polygon fill="grey" stroke="grey" stroke-width="2" points="2214.18,-22.91 2223.97,-18.87 2213.8,-15.92 2214.18,-22.91"/>
</g>
<!-- 29 -->
<g id="node30" class="node">
<title>29</title>
<path fill="none" stroke="#b6d856" stroke-width="2" d="M2192,-108C2192,-108 2110,-108 2110,-108 2104,-108 2098,-102 2098,-96 2098,-96 2098,-84 2098,-84 2098,-78 2104,-72 2110,-72 2110,-72 2192,-72 2192,-72 2198,-72 2204,-78 2204,-84 2204,-84 2204,-96 2204,-96 2204,-102 2198,-108 2192,-108"/>
<text text-anchor="middle" x="2151" y="-87.5" font-family="sans" font-size="10.00">alpha_beta_diversity</text>
</g>
<!-- 28&#45;&gt;29 -->
<g id="edge57" class="edge">
<title>28&#45;&gt;29</title>
<path fill="none" stroke="grey" stroke-width="2" d="M2151,-143.7C2151,-135.98 2151,-126.71 2151,-118.11"/>
<polygon fill="grey" stroke="grey" stroke-width="2" points="2154.5,-118.1 2151,-108.1 2147.5,-118.1 2154.5,-118.1"/>
</g>
<!-- 29&#45;&gt;0 -->
<g id="edge4" class="edge">
<title>29&#45;&gt;0</title>
<path fill="none" stroke="grey" stroke-width="2" d="M2175.46,-71.88C2188.3,-62.89 2204.2,-51.76 2218.09,-42.03"/>
<polygon fill="grey" stroke="grey" stroke-width="2" points="2220.26,-44.79 2226.44,-36.19 2216.24,-39.06 2220.26,-44.79"/>
</g>
<!-- 30 -->
<g id="node31" class="node">
<title>30</title>
<path fill="none" stroke="#56d0d8" stroke-width="2" d="M2413.5,-180C2413.5,-180 2362.5,-180 2362.5,-180 2356.5,-180 2350.5,-174 2350.5,-168 2350.5,-168 2350.5,-156 2350.5,-156 2350.5,-150 2356.5,-144 2362.5,-144 2362.5,-144 2413.5,-144 2413.5,-144 2419.5,-144 2425.5,-150 2425.5,-156 2425.5,-156 2425.5,-168 2425.5,-168 2425.5,-174 2419.5,-180 2413.5,-180"/>
<text text-anchor="middle" x="2388" y="-159.5" font-family="sans" font-size="10.00">get_rulegraph</text>
</g>
<!-- 30&#45;&gt;0 -->
<g id="edge5" class="edge">
<title>30&#45;&gt;0</title>
<path fill="none" stroke="grey" stroke-width="2" d="M2368.19,-143.83C2356.76,-133.68 2342.26,-120.43 2330,-108 2309.5,-87.2 2287.55,-62.24 2272.01,-44.05"/>
<polygon fill="grey" stroke="grey" stroke-width="2" points="2274.49,-41.56 2265.34,-36.21 2269.15,-46.09 2274.49,-41.56"/>
</g>
<!-- 31 -->
<g id="node32" class="node">
<title>31</title>
<path fill="none" stroke="#56a9d8" stroke-width="2" d="M2425,-108C2425,-108 2351,-108 2351,-108 2345,-108 2339,-102 2339,-96 2339,-96 2339,-84 2339,-84 2339,-78 2345,-72 2351,-72 2351,-72 2425,-72 2425,-72 2431,-72 2437,-78 2437,-84 2437,-84 2437,-96 2437,-96 2437,-102 2431,-108 2425,-108"/>
<text text-anchor="middle" x="2388" y="-87.5" font-family="sans" font-size="10.00">github_page_index</text>
</g>
<!-- 30&#45;&gt;31 -->
<g id="edge58" class="edge">
<title>30&#45;&gt;31</title>
<path fill="none" stroke="grey" stroke-width="2" d="M2388,-143.7C2388,-135.98 2388,-126.71 2388,-118.11"/>
<polygon fill="grey" stroke="grey" stroke-width="2" points="2391.5,-118.1 2388,-108.1 2384.5,-118.1 2391.5,-118.1"/>
</g>
<!-- 31&#45;&gt;0 -->
<g id="edge6" class="edge">
<title>31&#45;&gt;0</title>
<path fill="none" stroke="grey" stroke-width="2" d="M2354.49,-71.88C2334.15,-61.49 2308.2,-48.22 2287.37,-37.58"/>
<polygon fill="grey" stroke="grey" stroke-width="2" points="2288.69,-34.33 2278.19,-32.9 2285.51,-40.56 2288.69,-34.33"/>
</g>
</g>
</svg>
