<?xml version="1.0" encoding="UTF-8" standalone="no"?>
<!DOCTYPE svg PUBLIC "-//W3C//DTD SVG 1.1//EN"
 "http://www.w3.org/Graphics/SVG/1.1/DTD/svg11.dtd">
<!-- Generated by graphviz version 6.0.1 (0)
 -->
<!-- Title: snakemake_dag Pages: 1 -->
<svg width="1067pt" height="841pt"
 viewBox="0.00 0.00 1067.02 841.00" xmlns="http://www.w3.org/2000/svg" xmlns:xlink="http://www.w3.org/1999/xlink">
<g id="graph0" class="graph" transform="scale(1 1) rotate(0) translate(4 837)">
<title>snakemake_dag</title>
<polygon fill="white" stroke="none" points="-4,4 -4,-837 1063.02,-837 1063.02,4 -4,4"/>
<!-- 0 -->
<g id="node1" class="node">
<title>0</title>
<path fill="none" stroke="#78d856" stroke-width="2" d="M473,-36C473,-36 443,-36 443,-36 437,-36 431,-30 431,-24 431,-24 431,-12 431,-12 431,-6 437,0 443,0 443,0 473,0 473,0 479,0 485,-6 485,-12 485,-12 485,-24 485,-24 485,-30 479,-36 473,-36"/>
<text text-anchor="middle" x="458" y="-15.5" font-family="sans" font-size="10.00">all</text>
</g>
<!-- 1 -->
<g id="node2" class="node">
<title>1</title>
<path fill="none" stroke="#56d86b" stroke-width="2" d="M91,-180C91,-180 39,-180 39,-180 33,-180 27,-174 27,-168 27,-168 27,-156 27,-156 27,-150 33,-144 39,-144 39,-144 91,-144 91,-144 97,-144 103,-150 103,-156 103,-156 103,-168 103,-168 103,-174 97,-180 91,-180"/>
<text text-anchor="middle" x="65" y="-159.5" font-family="sans" font-size="10.00">get_metadata</text>
</g>
<!-- 1&#45;&gt;0 -->
<g id="edge1" class="edge">
<title>1&#45;&gt;0</title>
<path fill="none" stroke="grey" stroke-width="2" d="M69.64,-143.79C76.15,-123.18 90.09,-89.26 115,-72 163.95,-38.07 341.86,-24.94 420.35,-20.71"/>
<polygon fill="grey" stroke="grey" stroke-width="2" points="420.94,-24.19 430.75,-20.18 420.58,-17.2 420.94,-24.19"/>
</g>
<!-- 2 -->
<g id="node3" class="node">
<title>2</title>
<path fill="none" stroke="#567bd8" stroke-width="2" d="M56,-108C56,-108 12,-108 12,-108 6,-108 0,-102 0,-96 0,-96 0,-84 0,-84 0,-78 6,-72 12,-72 12,-72 56,-72 56,-72 62,-72 68,-78 68,-84 68,-84 68,-96 68,-96 68,-102 62,-108 56,-108"/>
<text text-anchor="middle" x="34" y="-87.5" font-family="sans" font-size="10.00">plot_varfreq</text>
</g>
<!-- 1&#45;&gt;2 -->
<g id="edge16" class="edge">
<title>1&#45;&gt;2</title>
<path fill="none" stroke="grey" stroke-width="2" d="M57.34,-143.7C53.81,-135.73 49.54,-126.1 45.63,-117.26"/>
<polygon fill="grey" stroke="grey" stroke-width="2" points="48.82,-115.83 41.57,-108.1 42.42,-118.67 48.82,-115.83"/>
</g>
<!-- 2&#45;&gt;0 -->
<g id="edge2" class="edge">
<title>2&#45;&gt;0</title>
<path fill="none" stroke="grey" stroke-width="2" d="M68.09,-75.99C72.73,-74.5 77.45,-73.11 82,-72 203.86,-42.15 352.34,-27.39 420.51,-21.78"/>
<polygon fill="grey" stroke="grey" stroke-width="2" points="421.06,-25.25 430.75,-20.96 420.5,-18.27 421.06,-25.25"/>
</g>
<!-- 3 -->
<g id="node4" class="node">
<title>3</title>
<path fill="none" stroke="#568ad8" stroke-width="2" d="M166,-108C166,-108 136,-108 136,-108 130,-108 124,-102 124,-96 124,-96 124,-84 124,-84 124,-78 130,-72 136,-72 136,-72 166,-72 166,-72 172,-72 178,-78 178,-84 178,-84 178,-96 178,-96 178,-102 172,-108 166,-108"/>
<text text-anchor="middle" x="151" y="-87.5" font-family="sans" font-size="10.00">multiqc</text>
</g>
<!-- 3&#45;&gt;0 -->
<g id="edge3" class="edge">
<title>3&#45;&gt;0</title>
<path fill="none" stroke="grey" stroke-width="2" d="M178.23,-75.29C181.15,-74.07 184.11,-72.95 187,-72 268.35,-45.3 368.09,-30.06 420.97,-23.28"/>
<polygon fill="grey" stroke="grey" stroke-width="2" points="421.41,-26.75 430.9,-22.04 420.54,-19.81 421.41,-26.75"/>
</g>
<!-- 4 -->
<g id="node5" class="node">
<title>4</title>
<path fill="none" stroke="#d8b456" stroke-width="2" d="M238,-108C238,-108 208,-108 208,-108 202,-108 196,-102 196,-96 196,-96 196,-84 196,-84 196,-78 202,-72 208,-72 208,-72 238,-72 238,-72 244,-72 250,-78 250,-84 250,-84 250,-96 250,-96 250,-102 244,-108 238,-108"/>
<text text-anchor="middle" x="223" y="-87.5" font-family="sans" font-size="10.00">seqkit</text>
</g>
<!-- 4&#45;&gt;0 -->
<g id="edge4" class="edge">
<title>4&#45;&gt;0</title>
<path fill="none" stroke="grey" stroke-width="2" d="M250.16,-77.17C254.74,-75.34 259.48,-73.55 264,-72 317.67,-53.62 381.36,-37.22 420.73,-27.69"/>
<polygon fill="grey" stroke="grey" stroke-width="2" points="421.77,-31.04 430.68,-25.31 420.14,-24.24 421.77,-31.04"/>
</g>
<!-- 5 -->
<g id="node6" class="node">
<title>5</title>
<path fill="none" stroke="#56c9d8" stroke-width="2" d="M564,-324C564,-324 398,-324 398,-324 392,-324 386,-318 386,-312 386,-312 386,-300 386,-300 386,-294 392,-288 398,-288 398,-288 564,-288 564,-288 570,-288 576,-294 576,-300 576,-300 576,-312 576,-312 576,-318 570,-324 564,-324"/>
<text text-anchor="middle" x="481" y="-309" font-family="sans" font-size="10.00">final_otu_files</text>
<text text-anchor="middle" x="481" y="-298" font-family="sans" font-size="10.00">finalotus: data/mothur/final/otu_analysis</text>
</g>
<!-- 5&#45;&gt;0 -->
<g id="edge5" class="edge">
<title>5&#45;&gt;0</title>
<path fill="none" stroke="grey" stroke-width="2" d="M444.13,-287.99C428.97,-279.25 412.53,-267.21 402,-252 383.28,-224.97 389.48,-212.57 385,-180 378.45,-132.43 359.79,-114.57 382,-72 390.5,-55.7 406.56,-43.39 421.73,-34.76"/>
<polygon fill="grey" stroke="grey" stroke-width="2" points="423.79,-37.63 430.99,-29.86 420.51,-31.44 423.79,-37.63"/>
</g>
<!-- 21 -->
<g id="node22" class="node">
<title>21</title>
<path fill="none" stroke="#d6d856" stroke-width="2" d="M495,-252C495,-252 423,-252 423,-252 417,-252 411,-246 411,-240 411,-240 411,-228 411,-228 411,-222 417,-216 423,-216 423,-216 495,-216 495,-216 501,-216 507,-222 507,-228 507,-228 507,-240 507,-240 507,-246 501,-252 495,-252"/>
<text text-anchor="middle" x="459" y="-237" font-family="sans" font-size="10.00">otutable_by_group</text>
<text text-anchor="middle" x="459" y="-226" font-family="sans" font-size="10.00">group: sample</text>
</g>
<!-- 5&#45;&gt;21 -->
<g id="edge36" class="edge">
<title>5&#45;&gt;21</title>
<path fill="none" stroke="grey" stroke-width="2" d="M475.56,-287.7C473.11,-279.9 470.16,-270.51 467.43,-261.83"/>
<polygon fill="grey" stroke="grey" stroke-width="2" points="470.71,-260.59 464.38,-252.1 464.04,-262.69 470.71,-260.59"/>
</g>
<!-- 22 -->
<g id="node23" class="node">
<title>22</title>
<path fill="none" stroke="#d6d856" stroke-width="2" d="M639,-252C639,-252 567,-252 567,-252 561,-252 555,-246 555,-240 555,-240 555,-228 555,-228 555,-222 561,-216 567,-216 567,-216 639,-216 639,-216 645,-216 651,-222 651,-228 651,-228 651,-240 651,-240 651,-246 645,-252 639,-252"/>
<text text-anchor="middle" x="603" y="-237" font-family="sans" font-size="10.00">otutable_by_group</text>
<text text-anchor="middle" x="603" y="-226" font-family="sans" font-size="10.00">group: control</text>
</g>
<!-- 5&#45;&gt;22 -->
<g id="edge37" class="edge">
<title>5&#45;&gt;22</title>
<path fill="none" stroke="grey" stroke-width="2" d="M510.84,-287.88C526.94,-278.64 547,-267.13 564.29,-257.21"/>
<polygon fill="grey" stroke="grey" stroke-width="2" points="566.11,-260.2 573.04,-252.19 562.63,-254.13 566.11,-260.2"/>
</g>
<!-- 6 -->
<g id="node7" class="node">
<title>6</title>
<path fill="none" stroke="#56d8c9" stroke-width="2" d="M510,-396C510,-396 454,-396 454,-396 448,-396 442,-390 442,-384 442,-384 442,-372 442,-372 442,-366 448,-360 454,-360 454,-360 510,-360 510,-360 516,-360 522,-366 522,-372 522,-372 522,-384 522,-384 522,-390 516,-396 510,-396"/>
<text text-anchor="middle" x="482" y="-375.5" font-family="sans" font-size="10.00">classify_otu97</text>
</g>
<!-- 6&#45;&gt;5 -->
<g id="edge17" class="edge">
<title>6&#45;&gt;5</title>
<path fill="none" stroke="grey" stroke-width="2" d="M481.75,-359.7C481.64,-351.98 481.51,-342.71 481.39,-334.11"/>
<polygon fill="grey" stroke="grey" stroke-width="2" points="484.89,-334.05 481.24,-324.1 477.89,-334.15 484.89,-334.05"/>
</g>
<!-- 7 -->
<g id="node8" class="node">
<title>7</title>
<path fill="none" stroke="#d86656" stroke-width="2" d="M573.5,-468C573.5,-468 522.5,-468 522.5,-468 516.5,-468 510.5,-462 510.5,-456 510.5,-456 510.5,-444 510.5,-444 510.5,-438 516.5,-432 522.5,-432 522.5,-432 573.5,-432 573.5,-432 579.5,-432 585.5,-438 585.5,-444 585.5,-444 585.5,-456 585.5,-456 585.5,-462 579.5,-468 573.5,-468"/>
<text text-anchor="middle" x="548" y="-447.5" font-family="sans" font-size="10.00">cluster_otu97</text>
</g>
<!-- 7&#45;&gt;6 -->
<g id="edge18" class="edge">
<title>7&#45;&gt;6</title>
<path fill="none" stroke="grey" stroke-width="2" d="M531.69,-431.7C523.69,-423.22 513.93,-412.86 505.18,-403.58"/>
<polygon fill="grey" stroke="grey" stroke-width="2" points="507.53,-400.98 498.13,-396.1 502.44,-405.78 507.53,-400.98"/>
</g>
<!-- 8 -->
<g id="node9" class="node">
<title>8</title>
<path fill="none" stroke="#d8c356" stroke-width="2" d="M648.5,-540C648.5,-540 565.5,-540 565.5,-540 559.5,-540 553.5,-534 553.5,-528 553.5,-528 553.5,-516 553.5,-516 553.5,-510 559.5,-504 565.5,-504 565.5,-504 648.5,-504 648.5,-504 654.5,-504 660.5,-510 660.5,-516 660.5,-516 660.5,-528 660.5,-528 660.5,-534 654.5,-540 648.5,-540"/>
<text text-anchor="middle" x="607" y="-519.5" font-family="sans" font-size="10.00">compute_seqdist003</text>
</g>
<!-- 8&#45;&gt;7 -->
<g id="edge20" class="edge">
<title>8&#45;&gt;7</title>
<path fill="none" stroke="grey" stroke-width="2" d="M592.42,-503.7C585.34,-495.3 576.72,-485.07 568.95,-475.86"/>
<polygon fill="grey" stroke="grey" stroke-width="2" points="571.54,-473.49 562.42,-468.1 566.19,-478.01 571.54,-473.49"/>
</g>
<!-- 9 -->
<g id="node10" class="node">
<title>9</title>
<path fill="none" stroke="#9fd856" stroke-width="2" d="M609,-612C609,-612 523,-612 523,-612 517,-612 511,-606 511,-600 511,-600 511,-588 511,-588 511,-582 517,-576 523,-576 523,-576 609,-576 609,-576 615,-576 621,-582 621,-588 621,-588 621,-600 621,-600 621,-606 615,-612 609,-612"/>
<text text-anchor="middle" x="566" y="-591.5" font-family="sans" font-size="10.00">denoise_n_classify80</text>
</g>
<!-- 9&#45;&gt;6 -->
<g id="edge19" class="edge">
<title>9&#45;&gt;6</title>
<path fill="none" stroke="grey" stroke-width="2" d="M556.87,-575.84C551.37,-565.48 544.25,-552 538,-540 521.37,-508.09 513.08,-501.89 501,-468 493.8,-447.82 488.9,-424.04 485.88,-406.14"/>
<polygon fill="grey" stroke="grey" stroke-width="2" points="489.31,-405.42 484.28,-396.1 482.4,-406.53 489.31,-405.42"/>
</g>
<!-- 9&#45;&gt;7 -->
<g id="edge21" class="edge">
<title>9&#45;&gt;7</title>
<path fill="none" stroke="grey" stroke-width="2" d="M556.87,-575.88C551.99,-565.76 546.49,-552.51 544,-540 539.93,-519.55 541.25,-495.97 543.42,-478.21"/>
<polygon fill="grey" stroke="grey" stroke-width="2" points="546.89,-478.63 544.8,-468.25 539.96,-477.67 546.89,-478.63"/>
</g>
<!-- 9&#45;&gt;8 -->
<g id="edge22" class="edge">
<title>9&#45;&gt;8</title>
<path fill="none" stroke="grey" stroke-width="2" d="M576.13,-575.7C580.85,-567.64 586.56,-557.89 591.78,-548.98"/>
<polygon fill="grey" stroke="grey" stroke-width="2" points="594.95,-550.5 596.98,-540.1 588.91,-546.96 594.95,-550.5"/>
</g>
<!-- 15 -->
<g id="node16" class="node">
<title>15</title>
<path fill="none" stroke="#56a2d8" stroke-width="2" d="M768,-540C768,-540 694,-540 694,-540 688,-540 682,-534 682,-528 682,-528 682,-516 682,-516 682,-510 688,-504 694,-504 694,-504 768,-504 768,-504 774,-504 780,-510 780,-516 780,-516 780,-528 780,-528 780,-534 774,-540 768,-540"/>
<text text-anchor="middle" x="731" y="-519.5" font-family="sans" font-size="10.00">classify_phylotype</text>
</g>
<!-- 9&#45;&gt;15 -->
<g id="edge29" class="edge">
<title>9&#45;&gt;15</title>
<path fill="none" stroke="grey" stroke-width="2" d="M606.36,-575.88C629.02,-566.26 657.47,-554.19 681.47,-544.01"/>
<polygon fill="grey" stroke="grey" stroke-width="2" points="682.93,-547.2 690.77,-540.07 680.19,-540.75 682.93,-547.2"/>
</g>
<!-- 17 -->
<g id="node18" class="node">
<title>17</title>
<path fill="none" stroke="#56b1d8" stroke-width="2" d="M886.5,-540C886.5,-540 839.5,-540 839.5,-540 833.5,-540 827.5,-534 827.5,-528 827.5,-528 827.5,-516 827.5,-516 827.5,-510 833.5,-504 839.5,-504 839.5,-504 886.5,-504 886.5,-504 892.5,-504 898.5,-510 898.5,-516 898.5,-516 898.5,-528 898.5,-528 898.5,-534 892.5,-540 886.5,-540"/>
<text text-anchor="middle" x="863" y="-519.5" font-family="sans" font-size="10.00">classify_asv</text>
</g>
<!-- 9&#45;&gt;17 -->
<g id="edge31" class="edge">
<title>9&#45;&gt;17</title>
<path fill="none" stroke="grey" stroke-width="2" d="M621.17,-580C677.74,-566.66 764.72,-546.16 817.49,-533.73"/>
<polygon fill="grey" stroke="grey" stroke-width="2" points="818.32,-537.13 827.25,-531.42 816.72,-530.31 818.32,-537.13"/>
</g>
<!-- 10 -->
<g id="node11" class="node">
<title>10</title>
<path fill="none" stroke="#566bd8" stroke-width="2" d="M465.5,-684C465.5,-684 418.5,-684 418.5,-684 412.5,-684 406.5,-678 406.5,-672 406.5,-672 406.5,-660 406.5,-660 406.5,-654 412.5,-648 418.5,-648 418.5,-648 465.5,-648 465.5,-648 471.5,-648 477.5,-654 477.5,-660 477.5,-660 477.5,-672 477.5,-672 477.5,-678 471.5,-684 465.5,-684"/>
<text text-anchor="middle" x="442" y="-663.5" font-family="sans" font-size="10.00">align_n_filter</text>
</g>
<!-- 10&#45;&gt;9 -->
<g id="edge23" class="edge">
<title>10&#45;&gt;9</title>
<path fill="none" stroke="grey" stroke-width="2" d="M472.33,-647.88C488.7,-638.64 509.08,-627.13 526.65,-617.21"/>
<polygon fill="grey" stroke="grey" stroke-width="2" points="528.56,-620.15 535.55,-612.19 525.12,-614.06 528.56,-620.15"/>
</g>
<!-- 20 -->
<g id="node21" class="node">
<title>20</title>
<path fill="none" stroke="#9fd856" stroke-width="2" d="M481,-612C481,-612 369,-612 369,-612 363,-612 357,-606 357,-600 357,-600 357,-588 357,-588 357,-582 363,-576 369,-576 369,-576 481,-576 481,-576 487,-576 493,-582 493,-588 493,-588 493,-600 493,-600 493,-606 487,-612 481,-612"/>
<text text-anchor="middle" x="425" y="-597" font-family="sans" font-size="10.00">denoise_n_classify80</text>
<text text-anchor="middle" x="425" y="-586" font-family="sans" font-size="10.00">outdir: data/mothur/process</text>
</g>
<!-- 10&#45;&gt;20 -->
<g id="edge34" class="edge">
<title>10&#45;&gt;20</title>
<path fill="none" stroke="grey" stroke-width="2" d="M437.8,-647.7C435.9,-639.9 433.62,-630.51 431.52,-621.83"/>
<polygon fill="grey" stroke="grey" stroke-width="2" points="434.92,-621 429.15,-612.1 428.11,-622.65 434.92,-621"/>
</g>
<!-- 11 -->
<g id="node12" class="node">
<title>11</title>
<path fill="none" stroke="#d88d56" stroke-width="2" d="M478,-756C478,-756 398,-756 398,-756 392,-756 386,-750 386,-744 386,-744 386,-732 386,-732 386,-726 392,-720 398,-720 398,-720 478,-720 478,-720 484,-720 490,-726 490,-732 490,-732 490,-744 490,-744 490,-750 484,-756 478,-756"/>
<text text-anchor="middle" x="438" y="-741" font-family="sans" font-size="10.00">make_contigs</text>
<text text-anchor="middle" x="438" y="-730" font-family="sans" font-size="10.00">outdir: data/qc/stats</text>
</g>
<!-- 11&#45;&gt;10 -->
<g id="edge25" class="edge">
<title>11&#45;&gt;10</title>
<path fill="none" stroke="grey" stroke-width="2" d="M438.99,-719.7C439.43,-711.98 439.96,-702.71 440.45,-694.11"/>
<polygon fill="grey" stroke="grey" stroke-width="2" points="443.95,-694.29 441.02,-684.1 436.96,-693.89 443.95,-694.29"/>
</g>
<!-- 12 -->
<g id="node13" class="node">
<title>12</title>
<path fill="none" stroke="#d8a456" stroke-width="2" d="M494,-833C494,-833 382,-833 382,-833 376,-833 370,-827 370,-821 370,-821 370,-804 370,-804 370,-798 376,-792 382,-792 382,-792 494,-792 494,-792 500,-792 506,-798 506,-804 506,-804 506,-821 506,-821 506,-827 500,-833 494,-833"/>
<text text-anchor="middle" x="438" y="-821" font-family="sans" font-size="10.00">make_files</text>
<text text-anchor="middle" x="438" y="-810" font-family="sans" font-size="10.00">dataset: test</text>
<text text-anchor="middle" x="438" y="-799" font-family="sans" font-size="10.00">outdir: data/mothur/process</text>
</g>
<!-- 12&#45;&gt;11 -->
<g id="edge27" class="edge">
<title>12&#45;&gt;11</title>
<path fill="none" stroke="grey" stroke-width="2" d="M438,-791.69C438,-783.91 438,-774.84 438,-766.45"/>
<polygon fill="grey" stroke="grey" stroke-width="2" points="441.5,-766.32 438,-756.32 434.5,-766.32 441.5,-766.32"/>
</g>
<!-- 13 -->
<g id="node14" class="node">
<title>13</title>
<path fill="none" stroke="#d85656" stroke-width="2" d="M577.5,-756C577.5,-756 520.5,-756 520.5,-756 514.5,-756 508.5,-750 508.5,-744 508.5,-744 508.5,-732 508.5,-732 508.5,-726 514.5,-720 520.5,-720 520.5,-720 577.5,-720 577.5,-720 583.5,-720 589.5,-726 589.5,-732 589.5,-732 589.5,-744 589.5,-744 589.5,-750 583.5,-756 577.5,-756"/>
<text text-anchor="middle" x="549" y="-735.5" font-family="sans" font-size="10.00">get_references</text>
</g>
<!-- 13&#45;&gt;9 -->
<g id="edge24" class="edge">
<title>13&#45;&gt;9</title>
<path fill="none" stroke="grey" stroke-width="2" d="M551.05,-719.87C553.95,-695.67 559.27,-651.21 562.72,-622.39"/>
<polygon fill="grey" stroke="grey" stroke-width="2" points="566.23,-622.53 563.94,-612.19 559.28,-621.7 566.23,-622.53"/>
</g>
<!-- 13&#45;&gt;10 -->
<g id="edge26" class="edge">
<title>13&#45;&gt;10</title>
<path fill="none" stroke="grey" stroke-width="2" d="M522.82,-719.88C508.96,-710.81 491.76,-699.55 476.79,-689.76"/>
<polygon fill="grey" stroke="grey" stroke-width="2" points="478.56,-686.74 468.28,-684.19 474.73,-692.59 478.56,-686.74"/>
</g>
<!-- 13&#45;&gt;20 -->
<g id="edge35" class="edge">
<title>13&#45;&gt;20</title>
<path fill="none" stroke="grey" stroke-width="2" d="M538.51,-719.7C526.83,-701.07 506.84,-671.02 486,-648 476.71,-637.74 465.53,-627.52 455.28,-618.83"/>
<polygon fill="grey" stroke="grey" stroke-width="2" points="457.25,-615.92 447.33,-612.22 452.78,-621.3 457.25,-615.92"/>
</g>
<!-- 14 -->
<g id="node15" class="node">
<title>14</title>
<path fill="none" stroke="#56d8b1" stroke-width="2" d="M841,-396C841,-396 623,-396 623,-396 617,-396 611,-390 611,-384 611,-384 611,-372 611,-372 611,-366 617,-360 623,-360 623,-360 841,-360 841,-360 847,-360 853,-366 853,-372 853,-372 853,-384 853,-384 853,-390 847,-396 841,-396"/>
<text text-anchor="middle" x="732" y="-381" font-family="sans" font-size="10.00">final_phylotype_files</text>
<text text-anchor="middle" x="732" y="-370" font-family="sans" font-size="10.00">finalphylotype: data/mothur/final/phylotype_analysis</text>
</g>
<!-- 14&#45;&gt;0 -->
<g id="edge6" class="edge">
<title>14&#45;&gt;0</title>
<path fill="none" stroke="grey" stroke-width="2" d="M739.49,-359.89C750.3,-333.58 769,-281.37 769,-235 769,-235 769,-235 769,-161 769,-41.87 577.84,-22.26 495.26,-19.34"/>
<polygon fill="grey" stroke="grey" stroke-width="2" points="495.15,-15.83 485.06,-19.05 494.95,-22.83 495.15,-15.83"/>
</g>
<!-- 15&#45;&gt;14 -->
<g id="edge28" class="edge">
<title>15&#45;&gt;14</title>
<path fill="none" stroke="grey" stroke-width="2" d="M731.12,-503.87C731.29,-479.67 731.6,-435.21 731.81,-406.39"/>
<polygon fill="grey" stroke="grey" stroke-width="2" points="735.31,-406.21 731.88,-396.19 728.31,-406.16 735.31,-406.21"/>
</g>
<!-- 16 -->
<g id="node17" class="node">
<title>16</title>
<path fill="none" stroke="#56d8a2" stroke-width="2" d="M974.5,-324C974.5,-324 809.5,-324 809.5,-324 803.5,-324 797.5,-318 797.5,-312 797.5,-312 797.5,-300 797.5,-300 797.5,-294 803.5,-288 809.5,-288 809.5,-288 974.5,-288 974.5,-288 980.5,-288 986.5,-294 986.5,-300 986.5,-300 986.5,-312 986.5,-312 986.5,-318 980.5,-324 974.5,-324"/>
<text text-anchor="middle" x="892" y="-309" font-family="sans" font-size="10.00">final_asv_files</text>
<text text-anchor="middle" x="892" y="-298" font-family="sans" font-size="10.00">finalasv: data/mothur/final/asv_analysis</text>
</g>
<!-- 16&#45;&gt;0 -->
<g id="edge7" class="edge">
<title>16&#45;&gt;0</title>
<path fill="none" stroke="grey" stroke-width="2" d="M889.49,-287.84C882.12,-243.98 856.2,-127.35 783,-72 738.2,-38.12 570.68,-25.02 495.24,-20.77"/>
<polygon fill="grey" stroke="grey" stroke-width="2" points="495.4,-17.27 485.23,-20.22 495.02,-24.26 495.4,-17.27"/>
</g>
<!-- 17&#45;&gt;16 -->
<g id="edge30" class="edge">
<title>17&#45;&gt;16</title>
<path fill="none" stroke="grey" stroke-width="2" d="M865.32,-503.85C870.34,-466.83 882.22,-379.18 888.29,-334.39"/>
<polygon fill="grey" stroke="grey" stroke-width="2" points="891.79,-334.61 889.66,-324.23 884.85,-333.67 891.79,-334.61"/>
</g>
<!-- 18 -->
<g id="node19" class="node">
<title>18</title>
<path fill="none" stroke="#56d88a" stroke-width="2" d="M411,-468C411,-468 189,-468 189,-468 183,-468 177,-462 177,-456 177,-456 177,-444 177,-444 177,-438 183,-432 189,-432 189,-432 411,-432 411,-432 417,-432 423,-438 423,-444 423,-444 423,-456 423,-456 423,-462 417,-468 411,-468"/>
<text text-anchor="middle" x="300" y="-453" font-family="sans" font-size="10.00">final_phylogeny_files</text>
<text text-anchor="middle" x="300" y="-442" font-family="sans" font-size="10.00">finalphylogeny: data/mothur/final/phylogeny_analysis</text>
</g>
<!-- 18&#45;&gt;0 -->
<g id="edge8" class="edge">
<title>18&#45;&gt;0</title>
<path fill="none" stroke="grey" stroke-width="2" d="M295.55,-431.65C289.12,-405.02 278,-352.4 278,-307 278,-307 278,-307 278,-161 278,-88.83 368.29,-47.66 420.98,-29.78"/>
<polygon fill="grey" stroke="grey" stroke-width="2" points="422.25,-33.05 430.66,-26.61 420.07,-26.39 422.25,-33.05"/>
</g>
<!-- 19 -->
<g id="node20" class="node">
<title>19</title>
<path fill="none" stroke="#c6d856" stroke-width="2" d="M364,-540C364,-540 284,-540 284,-540 278,-540 272,-534 272,-528 272,-528 272,-516 272,-516 272,-510 278,-504 284,-504 284,-504 364,-504 364,-504 370,-504 376,-510 376,-516 376,-516 376,-528 376,-528 376,-534 370,-540 364,-540"/>
<text text-anchor="middle" x="324" y="-525" font-family="sans" font-size="10.00">classify_phylogeny</text>
<text text-anchor="middle" x="324" y="-514" font-family="sans" font-size="10.00">outdir: data/qc/stats</text>
</g>
<!-- 19&#45;&gt;18 -->
<g id="edge32" class="edge">
<title>19&#45;&gt;18</title>
<path fill="none" stroke="grey" stroke-width="2" d="M318.07,-503.7C315.39,-495.9 312.17,-486.51 309.2,-477.83"/>
<polygon fill="grey" stroke="grey" stroke-width="2" points="312.42,-476.43 305.86,-468.1 305.8,-478.7 312.42,-476.43"/>
</g>
<!-- 20&#45;&gt;19 -->
<g id="edge33" class="edge">
<title>20&#45;&gt;19</title>
<path fill="none" stroke="grey" stroke-width="2" d="M400.29,-575.88C387.33,-566.89 371.27,-555.76 357.23,-546.03"/>
<polygon fill="grey" stroke="grey" stroke-width="2" points="359.02,-543.01 348.8,-540.19 355.03,-548.76 359.02,-543.01"/>
</g>
<!-- 21&#45;&gt;0 -->
<g id="edge9" class="edge">
<title>21&#45;&gt;0</title>
<path fill="none" stroke="grey" stroke-width="2" d="M433.69,-215.81C422.27,-206.61 409.84,-194.24 403,-180 382.17,-136.67 377.06,-115.74 397,-72 402.56,-59.81 412.45,-49.34 422.68,-41.01"/>
<polygon fill="grey" stroke="grey" stroke-width="2" points="425.03,-43.62 430.88,-34.79 420.79,-38.04 425.03,-43.62"/>
</g>
<!-- 23 -->
<g id="node24" class="node">
<title>23</title>
<path fill="none" stroke="#56d87b" stroke-width="2" d="M498,-108C498,-108 418,-108 418,-108 412,-108 406,-102 406,-96 406,-96 406,-84 406,-84 406,-78 412,-72 418,-72 418,-72 498,-72 498,-72 504,-72 510,-78 510,-84 510,-84 510,-96 510,-96 510,-102 504,-108 498,-108"/>
<text text-anchor="middle" x="458" y="-87.5" font-family="sans" font-size="10.00">subsample_otutable</text>
</g>
<!-- 21&#45;&gt;23 -->
<g id="edge38" class="edge">
<title>21&#45;&gt;23</title>
<path fill="none" stroke="grey" stroke-width="2" d="M437.29,-215.79C427.24,-206.41 416.36,-193.9 411,-180 405.24,-165.07 405.32,-158.96 411,-144 414.97,-133.54 422.05,-123.83 429.53,-115.65"/>
<polygon fill="grey" stroke="grey" stroke-width="2" points="432.23,-117.89 436.73,-108.3 427.23,-112.99 432.23,-117.89"/>
</g>
<!-- 24 -->
<g id="node25" class="node">
<title>24</title>
<path fill="none" stroke="#b6d856" stroke-width="2" d="M483.5,-180C483.5,-180 432.5,-180 432.5,-180 426.5,-180 420.5,-174 420.5,-168 420.5,-168 420.5,-156 420.5,-156 420.5,-150 426.5,-144 432.5,-144 432.5,-144 483.5,-144 483.5,-144 489.5,-144 495.5,-150 495.5,-156 495.5,-156 495.5,-168 495.5,-168 495.5,-174 489.5,-180 483.5,-180"/>
<text text-anchor="middle" x="458" y="-159.5" font-family="sans" font-size="10.00">count_groups</text>
</g>
<!-- 21&#45;&gt;24 -->
<g id="edge42" class="edge">
<title>21&#45;&gt;24</title>
<path fill="none" stroke="grey" stroke-width="2" d="M458.75,-215.7C458.64,-207.98 458.51,-198.71 458.39,-190.11"/>
<polygon fill="grey" stroke="grey" stroke-width="2" points="461.89,-190.05 458.24,-180.1 454.89,-190.15 461.89,-190.05"/>
</g>
<!-- 25 -->
<g id="node26" class="node">
<title>25</title>
<path fill="none" stroke="#b6d856" stroke-width="2" d="M576.5,-180C576.5,-180 525.5,-180 525.5,-180 519.5,-180 513.5,-174 513.5,-168 513.5,-168 513.5,-156 513.5,-156 513.5,-150 519.5,-144 525.5,-144 525.5,-144 576.5,-144 576.5,-144 582.5,-144 588.5,-150 588.5,-156 588.5,-156 588.5,-168 588.5,-168 588.5,-174 582.5,-180 576.5,-180"/>
<text text-anchor="middle" x="551" y="-159.5" font-family="sans" font-size="10.00">count_groups</text>
</g>
<!-- 21&#45;&gt;25 -->
<g id="edge44" class="edge">
<title>21&#45;&gt;25</title>
<path fill="none" stroke="grey" stroke-width="2" d="M481.74,-215.7C493.44,-206.8 507.86,-195.82 520.51,-186.2"/>
<polygon fill="grey" stroke="grey" stroke-width="2" points="522.68,-188.94 528.52,-180.1 518.44,-183.37 522.68,-188.94"/>
</g>
<!-- 26 -->
<g id="node27" class="node">
<title>26</title>
<path fill="none" stroke="#56d87b" stroke-width="2" d="M620,-108C620,-108 540,-108 540,-108 534,-108 528,-102 528,-96 528,-96 528,-84 528,-84 528,-78 534,-72 540,-72 540,-72 620,-72 620,-72 626,-72 632,-78 632,-84 632,-84 632,-96 632,-96 632,-102 626,-108 620,-108"/>
<text text-anchor="middle" x="580" y="-87.5" font-family="sans" font-size="10.00">subsample_otutable</text>
</g>
<!-- 21&#45;&gt;26 -->
<g id="edge46" class="edge">
<title>21&#45;&gt;26</title>
<path fill="none" stroke="grey" stroke-width="2" d="M507.3,-220.71C542.7,-210.61 586.35,-195.49 597,-180 609.59,-161.67 603.1,-136.45 594.75,-117.53"/>
<polygon fill="grey" stroke="grey" stroke-width="2" points="597.79,-115.78 590.31,-108.29 591.48,-118.82 597.79,-115.78"/>
</g>
<!-- 22&#45;&gt;0 -->
<g id="edge10" class="edge">
<title>22&#45;&gt;0</title>
<path fill="none" stroke="grey" stroke-width="2" d="M646.56,-215.87C661.86,-207.49 677.37,-195.74 686,-180 710.99,-134.4 682.49,-103.35 641,-72 597.76,-39.33 534.9,-26.77 495.25,-21.96"/>
<polygon fill="grey" stroke="grey" stroke-width="2" points="495.53,-18.47 485.21,-20.85 494.76,-25.42 495.53,-18.47"/>
</g>
<!-- 22&#45;&gt;23 -->
<g id="edge39" class="edge">
<title>22&#45;&gt;23</title>
<path fill="none" stroke="grey" stroke-width="2" d="M606.91,-215.75C610.25,-196.33 612.38,-164.79 597,-144 591.89,-137.1 554.58,-123.06 519.9,-111.17"/>
<polygon fill="grey" stroke="grey" stroke-width="2" points="520.81,-107.78 510.21,-107.88 518.56,-114.41 520.81,-107.78"/>
</g>
<!-- 22&#45;&gt;24 -->
<g id="edge43" class="edge">
<title>22&#45;&gt;24</title>
<path fill="none" stroke="grey" stroke-width="2" d="M567.53,-215.88C547.88,-206.39 523.28,-194.51 502.37,-184.42"/>
<polygon fill="grey" stroke="grey" stroke-width="2" points="503.88,-181.26 493.36,-180.07 500.84,-187.57 503.88,-181.26"/>
</g>
<!-- 22&#45;&gt;25 -->
<g id="edge45" class="edge">
<title>22&#45;&gt;25</title>
<path fill="none" stroke="grey" stroke-width="2" d="M590.15,-215.7C583.97,-207.39 576.46,-197.28 569.68,-188.14"/>
<polygon fill="grey" stroke="grey" stroke-width="2" points="572.48,-186.04 563.71,-180.1 566.86,-190.22 572.48,-186.04"/>
</g>
<!-- 22&#45;&gt;26 -->
<g id="edge47" class="edge">
<title>22&#45;&gt;26</title>
<path fill="none" stroke="grey" stroke-width="2" d="M635.05,-215.88C648.12,-207.05 661.82,-194.97 669,-180 675.92,-165.57 676.91,-157.91 669,-144 661.64,-131.04 649.71,-120.92 636.95,-113.16"/>
<polygon fill="grey" stroke="grey" stroke-width="2" points="638.47,-109.99 628.03,-108.15 635.04,-116.1 638.47,-109.99"/>
</g>
<!-- 23&#45;&gt;0 -->
<g id="edge11" class="edge">
<title>23&#45;&gt;0</title>
<path fill="none" stroke="grey" stroke-width="2" d="M458,-71.7C458,-63.98 458,-54.71 458,-46.11"/>
<polygon fill="grey" stroke="grey" stroke-width="2" points="461.5,-46.1 458,-36.1 454.5,-46.1 461.5,-46.1"/>
</g>
<!-- 24&#45;&gt;23 -->
<g id="edge40" class="edge">
<title>24&#45;&gt;23</title>
<path fill="none" stroke="grey" stroke-width="2" d="M458,-143.7C458,-135.98 458,-126.71 458,-118.11"/>
<polygon fill="grey" stroke="grey" stroke-width="2" points="461.5,-118.1 458,-108.1 454.5,-118.1 461.5,-118.1"/>
</g>
<!-- 24&#45;&gt;26 -->
<g id="edge48" class="edge">
<title>24&#45;&gt;26</title>
<path fill="none" stroke="grey" stroke-width="2" d="M487.84,-143.88C503.94,-134.64 524,-123.13 541.29,-113.21"/>
<polygon fill="grey" stroke="grey" stroke-width="2" points="543.11,-116.2 550.04,-108.19 539.63,-110.13 543.11,-116.2"/>
</g>
<!-- 25&#45;&gt;23 -->
<g id="edge41" class="edge">
<title>25&#45;&gt;23</title>
<path fill="none" stroke="grey" stroke-width="2" d="M528.01,-143.7C516.19,-134.8 501.61,-123.82 488.82,-114.2"/>
<polygon fill="grey" stroke="grey" stroke-width="2" points="490.82,-111.32 480.72,-108.1 486.61,-116.91 490.82,-111.32"/>
</g>
<!-- 25&#45;&gt;26 -->
<g id="edge49" class="edge">
<title>25&#45;&gt;26</title>
<path fill="none" stroke="grey" stroke-width="2" d="M558.17,-143.7C561.43,-135.81 565.37,-126.3 569,-117.55"/>
<polygon fill="grey" stroke="grey" stroke-width="2" points="572.32,-118.68 572.91,-108.1 565.85,-116 572.32,-118.68"/>
</g>
<!-- 26&#45;&gt;0 -->
<g id="edge12" class="edge">
<title>26&#45;&gt;0</title>
<path fill="none" stroke="grey" stroke-width="2" d="M550.16,-71.88C533.22,-62.16 511.89,-49.92 494.03,-39.67"/>
<polygon fill="grey" stroke="grey" stroke-width="2" points="495.45,-36.46 485.04,-34.51 491.97,-42.53 495.45,-36.46"/>
</g>
<!-- 27 -->
<g id="node28" class="node">
<title>27</title>
<path fill="none" stroke="#8fd856" stroke-width="2" d="M992,-180C992,-180 962,-180 962,-180 956,-180 950,-174 950,-168 950,-168 950,-156 950,-156 950,-150 956,-144 962,-144 962,-144 992,-144 992,-144 998,-144 1004,-150 1004,-156 1004,-156 1004,-168 1004,-168 1004,-174 998,-180 992,-180"/>
<text text-anchor="middle" x="977" y="-159.5" font-family="sans" font-size="10.00">get_dag</text>
</g>
<!-- 27&#45;&gt;0 -->
<g id="edge13" class="edge">
<title>27&#45;&gt;0</title>
<path fill="none" stroke="grey" stroke-width="2" d="M1004.04,-149.86C1021.18,-141.21 1041.96,-127.4 1052,-108 1059.36,-93.79 1062.8,-83.81 1052,-72 1014.4,-30.89 620.17,-21.44 495.54,-19.48"/>
<polygon fill="grey" stroke="grey" stroke-width="2" points="495.4,-15.97 485.35,-19.32 495.29,-22.97 495.4,-15.97"/>
</g>
<!-- 29 -->
<g id="node30" class="node">
<title>29</title>
<path fill="none" stroke="#59d856" stroke-width="2" d="M921,-108C921,-108 847,-108 847,-108 841,-108 835,-102 835,-96 835,-96 835,-84 835,-84 835,-78 841,-72 847,-72 847,-72 921,-72 921,-72 927,-72 933,-78 933,-84 933,-84 933,-96 933,-96 933,-102 927,-108 921,-108"/>
<text text-anchor="middle" x="884" y="-87.5" font-family="sans" font-size="10.00">github_page_index</text>
</g>
<!-- 27&#45;&gt;29 -->
<g id="edge50" class="edge">
<title>27&#45;&gt;29</title>
<path fill="none" stroke="grey" stroke-width="2" d="M954.01,-143.7C942.19,-134.8 927.61,-123.82 914.82,-114.2"/>
<polygon fill="grey" stroke="grey" stroke-width="2" points="916.82,-111.32 906.72,-108.1 912.61,-116.91 916.82,-111.32"/>
</g>
<!-- 28 -->
<g id="node29" class="node">
<title>28</title>
<path fill="none" stroke="#d87d56" stroke-width="2" d="M1031,-108C1031,-108 963,-108 963,-108 957,-108 951,-102 951,-96 951,-96 951,-84 951,-84 951,-78 957,-72 963,-72 963,-72 1031,-72 1031,-72 1037,-72 1043,-78 1043,-84 1043,-84 1043,-96 1043,-96 1043,-102 1037,-108 1031,-108"/>
<text text-anchor="middle" x="997" y="-87.5" font-family="sans" font-size="10.00">interactive_report</text>
</g>
<!-- 28&#45;&gt;0 -->
<g id="edge14" class="edge">
<title>28&#45;&gt;0</title>
<path fill="none" stroke="grey" stroke-width="2" d="M950.95,-74.07C947.94,-73.31 944.94,-72.61 942,-72 777.63,-37.92 577.03,-24.82 495.31,-20.66"/>
<polygon fill="grey" stroke="grey" stroke-width="2" points="495.2,-17.15 485.04,-20.15 494.86,-24.14 495.2,-17.15"/>
</g>
<!-- 29&#45;&gt;0 -->
<g id="edge15" class="edge">
<title>29&#45;&gt;0</title>
<path fill="none" stroke="grey" stroke-width="2" d="M834.95,-75.16C830.26,-74.02 825.55,-72.94 821,-72 703.14,-47.58 561.48,-30.33 495.38,-22.98"/>
<polygon fill="grey" stroke="grey" stroke-width="2" points="495.38,-19.45 485.06,-21.84 494.62,-26.41 495.38,-19.45"/>
</g>
</g>
</svg>
