<?xml version="1.0" encoding="UTF-8" standalone="no"?>
<!DOCTYPE svg PUBLIC "-//W3C//DTD SVG 1.1//EN"
 "http://www.w3.org/Graphics/SVG/1.1/DTD/svg11.dtd">
<!-- Generated by graphviz version 6.0.1 (0)
 -->
<!-- Title: snakemake_dag Pages: 1 -->
<svg width="4218pt" height="553pt"
 viewBox="0.00 0.00 4218.00 553.00" xmlns="http://www.w3.org/2000/svg" xmlns:xlink="http://www.w3.org/1999/xlink">
<g id="graph0" class="graph" transform="scale(1 1) rotate(0) translate(4 549)">
<title>snakemake_dag</title>
<polygon fill="white" stroke="none" points="-4,4 -4,-549 4214,-549 4214,4 -4,4"/>
<!-- 0 -->
<g id="node1" class="node">
<title>0</title>
<path fill="none" stroke="#569ad8" stroke-width="2" d="M2163,-36C2163,-36 2133,-36 2133,-36 2127,-36 2121,-30 2121,-24 2121,-24 2121,-12 2121,-12 2121,-6 2127,0 2133,0 2133,0 2163,0 2163,0 2169,0 2175,-6 2175,-12 2175,-12 2175,-24 2175,-24 2175,-30 2169,-36 2163,-36"/>
<text text-anchor="middle" x="2148" y="-15.5" font-family="sans" font-size="10.00">all</text>
</g>
<!-- 1 -->
<g id="node2" class="node">
<title>1</title>
<path fill="none" stroke="#d85656" stroke-width="2" d="M2009.5,-252C2009.5,-252 1944.5,-252 1944.5,-252 1938.5,-252 1932.5,-246 1932.5,-240 1932.5,-240 1932.5,-228 1932.5,-228 1932.5,-222 1938.5,-216 1944.5,-216 1944.5,-216 2009.5,-216 2009.5,-216 2015.5,-216 2021.5,-222 2021.5,-228 2021.5,-228 2021.5,-240 2021.5,-240 2021.5,-246 2015.5,-252 2009.5,-252"/>
<text text-anchor="middle" x="1977" y="-237" font-family="sans" font-size="10.00">count16SShared</text>
<text text-anchor="middle" x="1977" y="-226" font-family="sans" font-size="10.00">group: sample</text>
</g>
<!-- 1&#45;&gt;0 -->
<g id="edge1" class="edge">
<title>1&#45;&gt;0</title>
<path fill="none" stroke="grey" stroke-width="2" d="M1932.24,-222.46C1850.86,-202.29 1683.97,-155.95 1651,-108 1641.94,-94.82 1640.3,-83.9 1651,-72 1681.63,-37.93 2000.04,-24 2110.51,-20.17"/>
<polygon fill="grey" stroke="grey" stroke-width="2" points="2110.95,-23.66 2120.83,-19.82 2110.72,-16.66 2110.95,-23.66"/>
</g>
<!-- 30 -->
<g id="node31" class="node">
<title>30</title>
<path fill="none" stroke="#59d856" stroke-width="2" d="M2185,-180C2185,-180 2097,-180 2097,-180 2091,-180 2085,-174 2085,-168 2085,-168 2085,-156 2085,-156 2085,-150 2091,-144 2097,-144 2097,-144 2185,-144 2185,-144 2191,-144 2197,-150 2197,-156 2197,-156 2197,-168 2197,-168 2197,-174 2191,-180 2185,-180"/>
<text text-anchor="middle" x="2141" y="-159.5" font-family="sans" font-size="10.00">subsample16SShared</text>
</g>
<!-- 1&#45;&gt;30 -->
<g id="edge67" class="edge">
<title>1&#45;&gt;30</title>
<path fill="none" stroke="grey" stroke-width="2" d="M2017.12,-215.88C2039.64,-206.26 2067.92,-194.19 2091.77,-184.01"/>
<polygon fill="grey" stroke="grey" stroke-width="2" points="2093.19,-187.21 2101.01,-180.07 2090.44,-180.77 2093.19,-187.21"/>
</g>
<!-- 33 -->
<g id="node34" class="node">
<title>33</title>
<path fill="none" stroke="#97d856" stroke-width="2" d="M1604,-180C1604,-180 1512,-180 1512,-180 1506,-180 1500,-174 1500,-168 1500,-168 1500,-156 1500,-156 1500,-150 1506,-144 1512,-144 1512,-144 1604,-144 1604,-144 1610,-144 1616,-150 1616,-156 1616,-156 1616,-168 1616,-168 1616,-174 1610,-180 1604,-180"/>
<text text-anchor="middle" x="1558" y="-159.5" font-family="sans" font-size="10.00">calc16SAlphaDiversity</text>
</g>
<!-- 1&#45;&gt;33 -->
<g id="edge72" class="edge">
<title>1&#45;&gt;33</title>
<path fill="none" stroke="grey" stroke-width="2" d="M1932.43,-227.36C1866.2,-218.71 1737.98,-200.96 1630,-180 1628.72,-179.75 1627.44,-179.5 1626.14,-179.24"/>
<polygon fill="grey" stroke="grey" stroke-width="2" points="1626.58,-175.75 1616.07,-177.13 1625.15,-182.6 1626.58,-175.75"/>
</g>
<!-- 34 -->
<g id="node35" class="node">
<title>34</title>
<path fill="none" stroke="#56d8b9" stroke-width="2" d="M2020.5,-180C2020.5,-180 1933.5,-180 1933.5,-180 1927.5,-180 1921.5,-174 1921.5,-168 1921.5,-168 1921.5,-156 1921.5,-156 1921.5,-150 1927.5,-144 1933.5,-144 1933.5,-144 2020.5,-144 2020.5,-144 2026.5,-144 2032.5,-150 2032.5,-156 2032.5,-156 2032.5,-168 2032.5,-168 2032.5,-174 2026.5,-180 2020.5,-180"/>
<text text-anchor="middle" x="1977" y="-159.5" font-family="sans" font-size="10.00">calc16SBetaDiversity</text>
</g>
<!-- 1&#45;&gt;34 -->
<g id="edge74" class="edge">
<title>1&#45;&gt;34</title>
<path fill="none" stroke="grey" stroke-width="2" d="M1977,-215.7C1977,-207.98 1977,-198.71 1977,-190.11"/>
<polygon fill="grey" stroke="grey" stroke-width="2" points="1980.5,-190.1 1977,-180.1 1973.5,-190.1 1980.5,-190.1"/>
</g>
<!-- 2 -->
<g id="node3" class="node">
<title>2</title>
<path fill="none" stroke="#b6d856" stroke-width="2" d="M2206.5,-324C2206.5,-324 2147.5,-324 2147.5,-324 2141.5,-324 2135.5,-318 2135.5,-312 2135.5,-312 2135.5,-300 2135.5,-300 2135.5,-294 2141.5,-288 2147.5,-288 2147.5,-288 2206.5,-288 2206.5,-288 2212.5,-288 2218.5,-294 2218.5,-300 2218.5,-300 2218.5,-312 2218.5,-312 2218.5,-318 2212.5,-324 2206.5,-324"/>
<text text-anchor="middle" x="2177" y="-303.5" font-family="sans" font-size="10.00">split16SShared</text>
</g>
<!-- 2&#45;&gt;1 -->
<g id="edge16" class="edge">
<title>2&#45;&gt;1</title>
<path fill="none" stroke="grey" stroke-width="2" d="M2135.07,-290.33C2104.97,-279.79 2064.12,-265.49 2031.49,-254.07"/>
<polygon fill="grey" stroke="grey" stroke-width="2" points="2032.24,-250.63 2021.65,-250.63 2029.93,-257.23 2032.24,-250.63"/>
</g>
<!-- 28 -->
<g id="node29" class="node">
<title>28</title>
<path fill="none" stroke="#d85656" stroke-width="2" d="M2390.5,-252C2390.5,-252 2325.5,-252 2325.5,-252 2319.5,-252 2313.5,-246 2313.5,-240 2313.5,-240 2313.5,-228 2313.5,-228 2313.5,-222 2319.5,-216 2325.5,-216 2325.5,-216 2390.5,-216 2390.5,-216 2396.5,-216 2402.5,-222 2402.5,-228 2402.5,-228 2402.5,-240 2402.5,-240 2402.5,-246 2396.5,-252 2390.5,-252"/>
<text text-anchor="middle" x="2358" y="-237" font-family="sans" font-size="10.00">count16SShared</text>
<text text-anchor="middle" x="2358" y="-226" font-family="sans" font-size="10.00">group: mock</text>
</g>
<!-- 2&#45;&gt;28 -->
<g id="edge64" class="edge">
<title>2&#45;&gt;28</title>
<path fill="none" stroke="grey" stroke-width="2" d="M2218.53,-288.94C2244.01,-279.08 2276.92,-266.36 2304.36,-255.74"/>
<polygon fill="grey" stroke="grey" stroke-width="2" points="2305.76,-258.96 2313.82,-252.08 2303.24,-252.43 2305.76,-258.96"/>
</g>
<!-- 29 -->
<g id="node30" class="node">
<title>29</title>
<path fill="none" stroke="#d85656" stroke-width="2" d="M2497.5,-252C2497.5,-252 2432.5,-252 2432.5,-252 2426.5,-252 2420.5,-246 2420.5,-240 2420.5,-240 2420.5,-228 2420.5,-228 2420.5,-222 2426.5,-216 2432.5,-216 2432.5,-216 2497.5,-216 2497.5,-216 2503.5,-216 2509.5,-222 2509.5,-228 2509.5,-228 2509.5,-240 2509.5,-240 2509.5,-246 2503.5,-252 2497.5,-252"/>
<text text-anchor="middle" x="2465" y="-237" font-family="sans" font-size="10.00">count16SShared</text>
<text text-anchor="middle" x="2465" y="-226" font-family="sans" font-size="10.00">group: control</text>
</g>
<!-- 2&#45;&gt;29 -->
<g id="edge65" class="edge">
<title>2&#45;&gt;29</title>
<path fill="none" stroke="grey" stroke-width="2" d="M2218.68,-296.64C2263.66,-287.38 2337.55,-271.48 2410.48,-252.03"/>
<polygon fill="grey" stroke="grey" stroke-width="2" points="2411.55,-255.36 2420.29,-249.39 2409.73,-248.6 2411.55,-255.36"/>
</g>
<!-- 2&#45;&gt;30 -->
<g id="edge66" class="edge">
<title>2&#45;&gt;30</title>
<path fill="none" stroke="grey" stroke-width="2" d="M2171.05,-287.94C2167.57,-277.62 2163.23,-264.14 2160,-252 2154.54,-231.52 2149.59,-208.06 2146.11,-190.37"/>
<polygon fill="grey" stroke="grey" stroke-width="2" points="2149.47,-189.34 2144.14,-180.18 2142.6,-190.66 2149.47,-189.34"/>
</g>
<!-- 31 -->
<g id="node32" class="node">
<title>31</title>
<path fill="none" stroke="#59d856" stroke-width="2" d="M2402,-180C2402,-180 2314,-180 2314,-180 2308,-180 2302,-174 2302,-168 2302,-168 2302,-156 2302,-156 2302,-150 2308,-144 2314,-144 2314,-144 2402,-144 2402,-144 2408,-144 2414,-150 2414,-156 2414,-156 2414,-168 2414,-168 2414,-174 2408,-180 2402,-180"/>
<text text-anchor="middle" x="2358" y="-159.5" font-family="sans" font-size="10.00">subsample16SShared</text>
</g>
<!-- 2&#45;&gt;31 -->
<g id="edge68" class="edge">
<title>2&#45;&gt;31</title>
<path fill="none" stroke="grey" stroke-width="2" d="M2209.05,-287.97C2226.24,-278.29 2247.43,-265.43 2265,-252 2272.24,-246.46 2308.01,-211.85 2333.02,-187.46"/>
<polygon fill="grey" stroke="grey" stroke-width="2" points="2335.68,-189.75 2340.39,-180.26 2330.79,-184.74 2335.68,-189.75"/>
</g>
<!-- 32 -->
<g id="node33" class="node">
<title>32</title>
<path fill="none" stroke="#56d8d8" stroke-width="2" d="M2244.5,-252C2244.5,-252 2181.5,-252 2181.5,-252 2175.5,-252 2169.5,-246 2169.5,-240 2169.5,-240 2169.5,-228 2169.5,-228 2169.5,-222 2175.5,-216 2181.5,-216 2181.5,-216 2244.5,-216 2244.5,-216 2250.5,-216 2256.5,-222 2256.5,-228 2256.5,-228 2256.5,-240 2256.5,-240 2256.5,-246 2250.5,-252 2244.5,-252"/>
<text text-anchor="middle" x="2213" y="-231.5" font-family="sans" font-size="10.00">rarefy16SReads</text>
</g>
<!-- 2&#45;&gt;32 -->
<g id="edge70" class="edge">
<title>2&#45;&gt;32</title>
<path fill="none" stroke="grey" stroke-width="2" d="M2185.9,-287.7C2190,-279.73 2194.95,-270.1 2199.49,-261.26"/>
<polygon fill="grey" stroke="grey" stroke-width="2" points="2202.74,-262.6 2204.2,-252.1 2196.52,-259.4 2202.74,-262.6"/>
</g>
<!-- 2&#45;&gt;33 -->
<g id="edge71" class="edge">
<title>2&#45;&gt;33</title>
<path fill="none" stroke="grey" stroke-width="2" d="M2135.11,-296.71C2084.68,-286.62 1997.47,-268.84 1923,-252 1819.1,-228.5 1699.22,-198.76 1626.03,-180.31"/>
<polygon fill="grey" stroke="grey" stroke-width="2" points="1626.57,-176.84 1616.02,-177.78 1624.86,-183.62 1626.57,-176.84"/>
</g>
<!-- 2&#45;&gt;34 -->
<g id="edge73" class="edge">
<title>2&#45;&gt;34</title>
<path fill="none" stroke="grey" stroke-width="2" d="M2152.88,-287.87C2117.06,-262.44 2049.75,-214.65 2009.59,-186.14"/>
<polygon fill="grey" stroke="grey" stroke-width="2" points="2011.39,-183.12 2001.21,-180.19 2007.34,-188.83 2011.39,-183.12"/>
</g>
<!-- 3 -->
<g id="node4" class="node">
<title>3</title>
<path fill="none" stroke="#567bd8" stroke-width="2" d="M2209.5,-396C2209.5,-396 2144.5,-396 2144.5,-396 2138.5,-396 2132.5,-390 2132.5,-384 2132.5,-384 2132.5,-372 2132.5,-372 2132.5,-366 2138.5,-360 2144.5,-360 2144.5,-360 2209.5,-360 2209.5,-360 2215.5,-360 2221.5,-366 2221.5,-372 2221.5,-372 2221.5,-384 2221.5,-384 2221.5,-390 2215.5,-396 2209.5,-396"/>
<text text-anchor="middle" x="2177" y="-375.5" font-family="sans" font-size="10.00">make16SShared</text>
</g>
<!-- 3&#45;&gt;2 -->
<g id="edge17" class="edge">
<title>3&#45;&gt;2</title>
<path fill="none" stroke="grey" stroke-width="2" d="M2177,-359.7C2177,-351.98 2177,-342.71 2177,-334.11"/>
<polygon fill="grey" stroke="grey" stroke-width="2" points="2180.5,-334.1 2177,-324.1 2173.5,-334.1 2180.5,-334.1"/>
</g>
<!-- 41 -->
<g id="node42" class="node">
<title>41</title>
<path fill="none" stroke="#56d89a" stroke-width="2" d="M2562.5,-324C2562.5,-324 2513.5,-324 2513.5,-324 2507.5,-324 2501.5,-318 2501.5,-312 2501.5,-312 2501.5,-300 2501.5,-300 2501.5,-294 2507.5,-288 2513.5,-288 2513.5,-288 2562.5,-288 2562.5,-288 2568.5,-288 2574.5,-294 2574.5,-300 2574.5,-300 2574.5,-312 2574.5,-312 2574.5,-318 2568.5,-324 2562.5,-324"/>
<text text-anchor="middle" x="2538" y="-303.5" font-family="sans" font-size="10.00">calc16SError</text>
</g>
<!-- 3&#45;&gt;41 -->
<g id="edge81" class="edge">
<title>3&#45;&gt;41</title>
<path fill="none" stroke="grey" stroke-width="2" d="M2221.63,-368.35C2290.4,-355.01 2421.64,-329.56 2491.52,-316.01"/>
<polygon fill="grey" stroke="grey" stroke-width="2" points="2492.22,-319.44 2501.37,-314.1 2490.88,-312.57 2492.22,-319.44"/>
</g>
<!-- 4 -->
<g id="node5" class="node">
<title>4</title>
<path fill="none" stroke="#d87556" stroke-width="2" d="M2136.5,-468C2136.5,-468 2059.5,-468 2059.5,-468 2053.5,-468 2047.5,-462 2047.5,-456 2047.5,-456 2047.5,-444 2047.5,-444 2047.5,-438 2053.5,-432 2059.5,-432 2059.5,-432 2136.5,-432 2136.5,-432 2142.5,-432 2148.5,-438 2148.5,-444 2148.5,-444 2148.5,-456 2148.5,-456 2148.5,-462 2142.5,-468 2136.5,-468"/>
<text text-anchor="middle" x="2098" y="-447.5" font-family="sans" font-size="10.00">make_mapping_file</text>
</g>
<!-- 4&#45;&gt;3 -->
<g id="edge18" class="edge">
<title>4&#45;&gt;3</title>
<path fill="none" stroke="grey" stroke-width="2" d="M2117.53,-431.7C2127.38,-422.97 2139.49,-412.24 2150.2,-402.75"/>
<polygon fill="grey" stroke="grey" stroke-width="2" points="2152.53,-405.36 2157.7,-396.1 2147.89,-400.12 2152.53,-405.36"/>
</g>
<!-- 5 -->
<g id="node6" class="node">
<title>5</title>
<path fill="none" stroke="#d89556" stroke-width="2" d="M3808.5,-545C3808.5,-545 3653.5,-545 3653.5,-545 3647.5,-545 3641.5,-539 3641.5,-533 3641.5,-533 3641.5,-516 3641.5,-516 3641.5,-510 3647.5,-504 3653.5,-504 3653.5,-504 3808.5,-504 3808.5,-504 3814.5,-504 3820.5,-510 3820.5,-516 3820.5,-516 3820.5,-533 3820.5,-533 3820.5,-539 3814.5,-545 3808.5,-545"/>
<text text-anchor="middle" x="3731" y="-533" font-family="sans" font-size="10.00">get_read_data</text>
<text text-anchor="middle" x="3731" y="-522" font-family="sans" font-size="10.00">mothurSamples: F3D142_S208_L001</text>
<text text-anchor="middle" x="3731" y="-511" font-family="sans" font-size="10.00">readNum: R1</text>
</g>
<!-- 5&#45;&gt;3 -->
<g id="edge20" class="edge">
<title>5&#45;&gt;3</title>
<path fill="none" stroke="grey" stroke-width="2" d="M3641.37,-505.05C3638.55,-504.67 3635.76,-504.32 3633,-504 3508.42,-489.72 2623.1,-510.15 2505,-468 2480.22,-459.16 2482.03,-442.73 2458,-432 2384.02,-398.96 2290.16,-386.51 2231.84,-381.82"/>
<polygon fill="grey" stroke="grey" stroke-width="2" points="2231.97,-378.32 2221.73,-381.06 2231.44,-385.3 2231.97,-378.32"/>
</g>
<!-- 5&#45;&gt;4 -->
<g id="edge42" class="edge">
<title>5&#45;&gt;4</title>
<path fill="none" stroke="grey" stroke-width="2" d="M3641.37,-505.05C3638.55,-504.67 3635.76,-504.31 3633,-504 3117.87,-445.21 2985.09,-487.93 2467,-468 2358.58,-463.83 2232.31,-457.75 2159.13,-454.1"/>
<polygon fill="grey" stroke="grey" stroke-width="2" points="2158.89,-450.58 2148.72,-453.58 2158.54,-457.58 2158.89,-450.58"/>
</g>
<!-- 6 -->
<g id="node7" class="node">
<title>6</title>
<path fill="none" stroke="#d89556" stroke-width="2" d="M4005.5,-545C4005.5,-545 3850.5,-545 3850.5,-545 3844.5,-545 3838.5,-539 3838.5,-533 3838.5,-533 3838.5,-516 3838.5,-516 3838.5,-510 3844.5,-504 3850.5,-504 3850.5,-504 4005.5,-504 4005.5,-504 4011.5,-504 4017.5,-510 4017.5,-516 4017.5,-516 4017.5,-533 4017.5,-533 4017.5,-539 4011.5,-545 4005.5,-545"/>
<text text-anchor="middle" x="3928" y="-533" font-family="sans" font-size="10.00">get_read_data</text>
<text text-anchor="middle" x="3928" y="-522" font-family="sans" font-size="10.00">mothurSamples: F3D142_S208_L001</text>
<text text-anchor="middle" x="3928" y="-511" font-family="sans" font-size="10.00">readNum: R2</text>
</g>
<!-- 6&#45;&gt;3 -->
<g id="edge21" class="edge">
<title>6&#45;&gt;3</title>
<path fill="none" stroke="grey" stroke-width="2" d="M3838.37,-505.04C3835.55,-504.66 3832.76,-504.31 3830,-504 3687.84,-487.98 2677.83,-515.82 2543,-468 2518.2,-459.21 2520.14,-442.47 2496,-432 2408.73,-394.16 2297.24,-383.19 2231.82,-380.1"/>
<polygon fill="grey" stroke="grey" stroke-width="2" points="2231.87,-376.6 2221.73,-379.67 2231.57,-383.59 2231.87,-376.6"/>
</g>
<!-- 6&#45;&gt;4 -->
<g id="edge43" class="edge">
<title>6&#45;&gt;4</title>
<path fill="none" stroke="grey" stroke-width="2" d="M3838.37,-505.04C3835.55,-504.66 3832.76,-504.31 3830,-504 3244.57,-438.28 3093.76,-488.29 2505,-468 2382.23,-463.77 2238.68,-457.45 2159.08,-453.83"/>
<polygon fill="grey" stroke="grey" stroke-width="2" points="2158.9,-450.32 2148.75,-453.36 2158.58,-457.31 2158.9,-450.32"/>
</g>
<!-- 7 -->
<g id="node8" class="node">
<title>7</title>
<path fill="none" stroke="#d89556" stroke-width="2" d="M4198,-545C4198,-545 4048,-545 4048,-545 4042,-545 4036,-539 4036,-533 4036,-533 4036,-516 4036,-516 4036,-510 4042,-504 4048,-504 4048,-504 4198,-504 4198,-504 4204,-504 4210,-510 4210,-516 4210,-516 4210,-533 4210,-533 4210,-539 4204,-545 4198,-545"/>
<text text-anchor="middle" x="4123" y="-533" font-family="sans" font-size="10.00">get_read_data</text>
<text text-anchor="middle" x="4123" y="-522" font-family="sans" font-size="10.00">mothurSamples: Mock2_S184_L001</text>
<text text-anchor="middle" x="4123" y="-511" font-family="sans" font-size="10.00">readNum: R1</text>
</g>
<!-- 7&#45;&gt;3 -->
<g id="edge22" class="edge">
<title>7&#45;&gt;3</title>
<path fill="none" stroke="grey" stroke-width="2" d="M4035.99,-505.13C4032.96,-504.71 4029.96,-504.33 4027,-504 3866.75,-485.88 2726.55,-525.82 2576,-468 2553.05,-459.18 2556.37,-442.2 2534,-432 2481.21,-407.92 2317.93,-390.94 2231.67,-383.39"/>
<polygon fill="grey" stroke="grey" stroke-width="2" points="2231.81,-379.89 2221.55,-382.52 2231.21,-386.86 2231.81,-379.89"/>
</g>
<!-- 7&#45;&gt;4 -->
<g id="edge44" class="edge">
<title>7&#45;&gt;4</title>
<path fill="none" stroke="grey" stroke-width="2" d="M4035.99,-505.13C4032.96,-504.71 4029.96,-504.33 4027,-504 3699.2,-467.02 2872.71,-478.3 2543,-468 2405.62,-463.71 2244.45,-457.18 2158.78,-453.59"/>
<polygon fill="grey" stroke="grey" stroke-width="2" points="2158.85,-450.09 2148.71,-453.17 2158.56,-457.08 2158.85,-450.09"/>
</g>
<!-- 8 -->
<g id="node9" class="node">
<title>8</title>
<path fill="none" stroke="#d89556" stroke-width="2" d="M162,-545C162,-545 12,-545 12,-545 6,-545 0,-539 0,-533 0,-533 0,-516 0,-516 0,-510 6,-504 12,-504 12,-504 162,-504 162,-504 168,-504 174,-510 174,-516 174,-516 174,-533 174,-533 174,-539 168,-545 162,-545"/>
<text text-anchor="middle" x="87" y="-533" font-family="sans" font-size="10.00">get_read_data</text>
<text text-anchor="middle" x="87" y="-522" font-family="sans" font-size="10.00">mothurSamples: Mock2_S184_L001</text>
<text text-anchor="middle" x="87" y="-511" font-family="sans" font-size="10.00">readNum: R2</text>
</g>
<!-- 8&#45;&gt;3 -->
<g id="edge23" class="edge">
<title>8&#45;&gt;3</title>
<path fill="none" stroke="grey" stroke-width="2" d="M172.56,-504C272.9,-482.07 444.54,-447.52 594,-432 899.72,-400.26 1878.64,-383.54 2121.89,-379.81"/>
<polygon fill="grey" stroke="grey" stroke-width="2" points="2122.3,-383.3 2132.24,-379.65 2122.19,-376.3 2122.3,-383.3"/>
</g>
<!-- 8&#45;&gt;4 -->
<g id="edge45" class="edge">
<title>8&#45;&gt;4</title>
<path fill="none" stroke="grey" stroke-width="2" d="M174.02,-505.14C177.04,-504.72 180.04,-504.34 183,-504 554.89,-461.41 1753.32,-452.74 2037.26,-451.27"/>
<polygon fill="grey" stroke="grey" stroke-width="2" points="2037.39,-454.77 2047.37,-451.22 2037.35,-447.77 2037.39,-454.77"/>
</g>
<!-- 9 -->
<g id="node10" class="node">
<title>9</title>
<path fill="none" stroke="#d89556" stroke-width="2" d="M350,-545C350,-545 204,-545 204,-545 198,-545 192,-539 192,-533 192,-533 192,-516 192,-516 192,-510 198,-504 204,-504 204,-504 350,-504 350,-504 356,-504 362,-510 362,-516 362,-516 362,-533 362,-533 362,-539 356,-545 350,-545"/>
<text text-anchor="middle" x="277" y="-533" font-family="sans" font-size="10.00">get_read_data</text>
<text text-anchor="middle" x="277" y="-522" font-family="sans" font-size="10.00">mothurSamples: Water1_S92_L001</text>
<text text-anchor="middle" x="277" y="-511" font-family="sans" font-size="10.00">readNum: R1</text>
</g>
<!-- 9&#45;&gt;3 -->
<g id="edge24" class="edge">
<title>9&#45;&gt;3</title>
<path fill="none" stroke="grey" stroke-width="2" d="M362,-505.57C365.04,-505.03 368.04,-504.5 371,-504 612.77,-463.07 673.71,-453.18 918,-432 1382.79,-391.71 1946.86,-381.77 2122.29,-379.57"/>
<polygon fill="grey" stroke="grey" stroke-width="2" points="2122.35,-383.07 2132.3,-379.45 2122.26,-376.07 2122.35,-383.07"/>
</g>
<!-- 9&#45;&gt;4 -->
<g id="edge46" class="edge">
<title>9&#45;&gt;4</title>
<path fill="none" stroke="grey" stroke-width="2" d="M362.2,-505.15C365.16,-504.73 368.1,-504.34 371,-504 703.55,-464.71 1769.64,-453.64 2036.83,-451.45"/>
<polygon fill="grey" stroke="grey" stroke-width="2" points="2037.13,-454.95 2047.1,-451.37 2037.08,-447.95 2037.13,-454.95"/>
</g>
<!-- 10 -->
<g id="node11" class="node">
<title>10</title>
<path fill="none" stroke="#d89556" stroke-width="2" d="M538,-545C538,-545 392,-545 392,-545 386,-545 380,-539 380,-533 380,-533 380,-516 380,-516 380,-510 386,-504 392,-504 392,-504 538,-504 538,-504 544,-504 550,-510 550,-516 550,-516 550,-533 550,-533 550,-539 544,-545 538,-545"/>
<text text-anchor="middle" x="465" y="-533" font-family="sans" font-size="10.00">get_read_data</text>
<text text-anchor="middle" x="465" y="-522" font-family="sans" font-size="10.00">mothurSamples: Water1_S92_L001</text>
<text text-anchor="middle" x="465" y="-511" font-family="sans" font-size="10.00">readNum: R2</text>
</g>
<!-- 10&#45;&gt;3 -->
<g id="edge25" class="edge">
<title>10&#45;&gt;3</title>
<path fill="none" stroke="grey" stroke-width="2" d="M550.23,-505.41C553.19,-504.91 556.12,-504.44 559,-504 599.01,-497.88 1243.65,-435.2 1284,-432 1601.19,-406.85 1982.62,-388.01 2122.33,-381.49"/>
<polygon fill="grey" stroke="grey" stroke-width="2" points="2122.53,-384.98 2132.36,-381.02 2122.2,-377.99 2122.53,-384.98"/>
</g>
<!-- 10&#45;&gt;4 -->
<g id="edge47" class="edge">
<title>10&#45;&gt;4</title>
<path fill="none" stroke="grey" stroke-width="2" d="M550.2,-505.17C553.16,-504.74 556.1,-504.35 559,-504 707.32,-486.19 1769.83,-459.08 2037.11,-452.48"/>
<polygon fill="grey" stroke="grey" stroke-width="2" points="2037.48,-455.98 2047.39,-452.23 2037.31,-448.98 2037.48,-455.98"/>
</g>
<!-- 11 -->
<g id="node12" class="node">
<title>11</title>
<path fill="none" stroke="#d89556" stroke-width="2" d="M725.5,-545C725.5,-545 580.5,-545 580.5,-545 574.5,-545 568.5,-539 568.5,-533 568.5,-533 568.5,-516 568.5,-516 568.5,-510 574.5,-504 580.5,-504 580.5,-504 725.5,-504 725.5,-504 731.5,-504 737.5,-510 737.5,-516 737.5,-516 737.5,-533 737.5,-533 737.5,-539 731.5,-545 725.5,-545"/>
<text text-anchor="middle" x="653" y="-533" font-family="sans" font-size="10.00">get_read_data</text>
<text text-anchor="middle" x="653" y="-522" font-family="sans" font-size="10.00">mothurSamples: Mock1_S93_L001</text>
<text text-anchor="middle" x="653" y="-511" font-family="sans" font-size="10.00">readNum: R1</text>
</g>
<!-- 11&#45;&gt;3 -->
<g id="edge26" class="edge">
<title>11&#45;&gt;3</title>
<path fill="none" stroke="grey" stroke-width="2" d="M737.56,-505.25C740.4,-504.8 743.22,-504.38 746,-504 983.41,-471.33 1046.04,-496.38 1284,-468 1377.59,-456.84 1399.47,-443.65 1493,-432 1726.19,-402.95 2006.21,-387.2 2122.38,-381.5"/>
<polygon fill="grey" stroke="grey" stroke-width="2" points="2122.62,-384.99 2132.44,-381.01 2122.28,-378 2122.62,-384.99"/>
</g>
<!-- 11&#45;&gt;4 -->
<g id="edge48" class="edge">
<title>11&#45;&gt;4</title>
<path fill="none" stroke="grey" stroke-width="2" d="M737.55,-505.15C740.39,-504.73 743.22,-504.34 746,-504 874.92,-488.07 1790.44,-460.1 2036.98,-452.79"/>
<polygon fill="grey" stroke="grey" stroke-width="2" points="2037.29,-456.28 2047.19,-452.49 2037.09,-449.28 2037.29,-456.28"/>
</g>
<!-- 12 -->
<g id="node13" class="node">
<title>12</title>
<path fill="none" stroke="#d89556" stroke-width="2" d="M912.5,-545C912.5,-545 767.5,-545 767.5,-545 761.5,-545 755.5,-539 755.5,-533 755.5,-533 755.5,-516 755.5,-516 755.5,-510 761.5,-504 767.5,-504 767.5,-504 912.5,-504 912.5,-504 918.5,-504 924.5,-510 924.5,-516 924.5,-516 924.5,-533 924.5,-533 924.5,-539 918.5,-545 912.5,-545"/>
<text text-anchor="middle" x="840" y="-533" font-family="sans" font-size="10.00">get_read_data</text>
<text text-anchor="middle" x="840" y="-522" font-family="sans" font-size="10.00">mothurSamples: Mock1_S93_L001</text>
<text text-anchor="middle" x="840" y="-511" font-family="sans" font-size="10.00">readNum: R2</text>
</g>
<!-- 12&#45;&gt;3 -->
<g id="edge27" class="edge">
<title>12&#45;&gt;3</title>
<path fill="none" stroke="grey" stroke-width="2" d="M924.56,-505.24C927.4,-504.79 930.22,-504.38 933,-504 1180.12,-470.32 1247.38,-511.29 1493,-468 1549.1,-458.11 1560.06,-442.73 1616,-432 1799.27,-396.86 2020.89,-384.66 2121.96,-380.72"/>
<polygon fill="grey" stroke="grey" stroke-width="2" points="2122.37,-384.21 2132.23,-380.34 2122.11,-377.22 2122.37,-384.21"/>
</g>
<!-- 12&#45;&gt;4 -->
<g id="edge49" class="edge">
<title>12&#45;&gt;4</title>
<path fill="none" stroke="grey" stroke-width="2" d="M924.55,-505.17C927.39,-504.74 930.22,-504.35 933,-504 1042.67,-490.1 1813.19,-461.34 2037.11,-453.19"/>
<polygon fill="grey" stroke="grey" stroke-width="2" points="2037.49,-456.68 2047.36,-452.82 2037.23,-449.69 2037.49,-456.68"/>
</g>
<!-- 13 -->
<g id="node14" class="node">
<title>13</title>
<path fill="none" stroke="#d89556" stroke-width="2" d="M1101.5,-545C1101.5,-545 954.5,-545 954.5,-545 948.5,-545 942.5,-539 942.5,-533 942.5,-533 942.5,-516 942.5,-516 942.5,-510 948.5,-504 954.5,-504 954.5,-504 1101.5,-504 1101.5,-504 1107.5,-504 1113.5,-510 1113.5,-516 1113.5,-516 1113.5,-533 1113.5,-533 1113.5,-539 1107.5,-545 1101.5,-545"/>
<text text-anchor="middle" x="1028" y="-533" font-family="sans" font-size="10.00">get_read_data</text>
<text text-anchor="middle" x="1028" y="-522" font-family="sans" font-size="10.00">mothurSamples: M1D0_S191_L001</text>
<text text-anchor="middle" x="1028" y="-511" font-family="sans" font-size="10.00">readNum: R1</text>
</g>
<!-- 13&#45;&gt;3 -->
<g id="edge28" class="edge">
<title>13&#45;&gt;3</title>
<path fill="none" stroke="grey" stroke-width="2" d="M1113.73,-505.23C1116.51,-504.79 1119.28,-504.38 1122,-504 1340.03,-473.58 1402.46,-521.5 1616,-468 1654.21,-458.43 1658.97,-442.28 1697,-432 1847.25,-391.37 2032.01,-381.8 2122.22,-379.6"/>
<polygon fill="grey" stroke="grey" stroke-width="2" points="2122.56,-383.1 2132.48,-379.38 2122.4,-376.1 2122.56,-383.1"/>
</g>
<!-- 13&#45;&gt;4 -->
<g id="edge50" class="edge">
<title>13&#45;&gt;4</title>
<path fill="none" stroke="grey" stroke-width="2" d="M1113.72,-505.16C1116.51,-504.74 1119.27,-504.35 1122,-504 1212.35,-492.24 1838.02,-462.91 2037.23,-453.77"/>
<polygon fill="grey" stroke="grey" stroke-width="2" points="2037.4,-457.26 2047.22,-453.31 2037.07,-450.27 2037.4,-457.26"/>
</g>
<!-- 14 -->
<g id="node15" class="node">
<title>14</title>
<path fill="none" stroke="#d89556" stroke-width="2" d="M1290.5,-545C1290.5,-545 1143.5,-545 1143.5,-545 1137.5,-545 1131.5,-539 1131.5,-533 1131.5,-533 1131.5,-516 1131.5,-516 1131.5,-510 1137.5,-504 1143.5,-504 1143.5,-504 1290.5,-504 1290.5,-504 1296.5,-504 1302.5,-510 1302.5,-516 1302.5,-516 1302.5,-533 1302.5,-533 1302.5,-539 1296.5,-545 1290.5,-545"/>
<text text-anchor="middle" x="1217" y="-533" font-family="sans" font-size="10.00">get_read_data</text>
<text text-anchor="middle" x="1217" y="-522" font-family="sans" font-size="10.00">mothurSamples: M1D0_S191_L001</text>
<text text-anchor="middle" x="1217" y="-511" font-family="sans" font-size="10.00">readNum: R2</text>
</g>
<!-- 14&#45;&gt;3 -->
<g id="edge29" class="edge">
<title>14&#45;&gt;3</title>
<path fill="none" stroke="grey" stroke-width="2" d="M1302.63,-505.48C1305.79,-504.95 1308.92,-504.46 1312,-504 1481.98,-478.68 1533.9,-522.15 1697,-468 1726.15,-458.32 1727.01,-442.14 1756,-432 1881.86,-387.97 2040.21,-379.7 2122.19,-378.64"/>
<polygon fill="grey" stroke="grey" stroke-width="2" points="2122.31,-382.14 2132.28,-378.54 2122.24,-375.14 2122.31,-382.14"/>
</g>
<!-- 14&#45;&gt;4 -->
<g id="edge51" class="edge">
<title>14&#45;&gt;4</title>
<path fill="none" stroke="grey" stroke-width="2" d="M1302.61,-505.37C1305.78,-504.88 1308.91,-504.42 1312,-504 1452.07,-484.99 1878.41,-462.12 2037.39,-454.02"/>
<polygon fill="grey" stroke="grey" stroke-width="2" points="2037.66,-457.51 2047.47,-453.51 2037.3,-450.52 2037.66,-457.51"/>
</g>
<!-- 15 -->
<g id="node16" class="node">
<title>15</title>
<path fill="none" stroke="#d89556" stroke-width="2" d="M1485,-545C1485,-545 1333,-545 1333,-545 1327,-545 1321,-539 1321,-533 1321,-533 1321,-516 1321,-516 1321,-510 1327,-504 1333,-504 1333,-504 1485,-504 1485,-504 1491,-504 1497,-510 1497,-516 1497,-516 1497,-533 1497,-533 1497,-539 1491,-545 1485,-545"/>
<text text-anchor="middle" x="1409" y="-533" font-family="sans" font-size="10.00">get_read_data</text>
<text text-anchor="middle" x="1409" y="-522" font-family="sans" font-size="10.00">mothurSamples: Water3_S216_L001</text>
<text text-anchor="middle" x="1409" y="-511" font-family="sans" font-size="10.00">readNum: R1</text>
</g>
<!-- 15&#45;&gt;3 -->
<g id="edge30" class="edge">
<title>15&#45;&gt;3</title>
<path fill="none" stroke="grey" stroke-width="2" d="M1497.25,-505.54C1500.2,-505.01 1503.12,-504.5 1506,-504 1616.63,-484.93 1652.1,-510.5 1756,-468 1781.01,-457.77 1779.98,-442.21 1805,-432 1911.43,-388.55 2047.59,-379.81 2122.13,-378.58"/>
<polygon fill="grey" stroke="grey" stroke-width="2" points="2122.28,-382.07 2132.23,-378.45 2122.19,-375.07 2122.28,-382.07"/>
</g>
<!-- 15&#45;&gt;4 -->
<g id="edge52" class="edge">
<title>15&#45;&gt;4</title>
<path fill="none" stroke="grey" stroke-width="2" d="M1497.22,-505.34C1500.18,-504.87 1503.11,-504.42 1506,-504 1699.16,-476.02 1930.07,-460.45 2037.49,-454.23"/>
<polygon fill="grey" stroke="grey" stroke-width="2" points="2037.71,-457.72 2047.5,-453.66 2037.31,-450.74 2037.71,-457.72"/>
</g>
<!-- 16 -->
<g id="node17" class="node">
<title>16</title>
<path fill="none" stroke="#d89556" stroke-width="2" d="M1679,-545C1679,-545 1527,-545 1527,-545 1521,-545 1515,-539 1515,-533 1515,-533 1515,-516 1515,-516 1515,-510 1521,-504 1527,-504 1527,-504 1679,-504 1679,-504 1685,-504 1691,-510 1691,-516 1691,-516 1691,-533 1691,-533 1691,-539 1685,-545 1679,-545"/>
<text text-anchor="middle" x="1603" y="-533" font-family="sans" font-size="10.00">get_read_data</text>
<text text-anchor="middle" x="1603" y="-522" font-family="sans" font-size="10.00">mothurSamples: Water3_S216_L001</text>
<text text-anchor="middle" x="1603" y="-511" font-family="sans" font-size="10.00">readNum: R2</text>
</g>
<!-- 16&#45;&gt;3 -->
<g id="edge31" class="edge">
<title>16&#45;&gt;3</title>
<path fill="none" stroke="grey" stroke-width="2" d="M1677.09,-503.96C1715.39,-493.65 1762.83,-480.57 1805,-468 1855.11,-453.07 1866.42,-445.24 1917,-432 1987.19,-413.62 2069.43,-397.8 2122.32,-388.34"/>
<polygon fill="grey" stroke="grey" stroke-width="2" points="2123.26,-391.73 2132.49,-386.53 2122.04,-384.84 2123.26,-391.73"/>
</g>
<!-- 16&#45;&gt;4 -->
<g id="edge53" class="edge">
<title>16&#45;&gt;4</title>
<path fill="none" stroke="grey" stroke-width="2" d="M1691.24,-505.5C1694.19,-504.98 1697.12,-504.48 1700,-504 1818.94,-484.15 1958.86,-466.93 2037.11,-457.84"/>
<polygon fill="grey" stroke="grey" stroke-width="2" points="2037.73,-461.29 2047.26,-456.67 2036.93,-454.34 2037.73,-461.29"/>
</g>
<!-- 17 -->
<g id="node18" class="node">
<title>17</title>
<path fill="none" stroke="#d89556" stroke-width="2" d="M1873,-545C1873,-545 1721,-545 1721,-545 1715,-545 1709,-539 1709,-533 1709,-533 1709,-516 1709,-516 1709,-510 1715,-504 1721,-504 1721,-504 1873,-504 1873,-504 1879,-504 1885,-510 1885,-516 1885,-516 1885,-533 1885,-533 1885,-539 1879,-545 1873,-545"/>
<text text-anchor="middle" x="1797" y="-533" font-family="sans" font-size="10.00">get_read_data</text>
<text text-anchor="middle" x="1797" y="-522" font-family="sans" font-size="10.00">mothurSamples: Water2_S185_L001</text>
<text text-anchor="middle" x="1797" y="-511" font-family="sans" font-size="10.00">readNum: R1</text>
</g>
<!-- 17&#45;&gt;3 -->
<g id="edge32" class="edge">
<title>17&#45;&gt;3</title>
<path fill="none" stroke="grey" stroke-width="2" d="M1838.51,-503.96C1880.68,-484.47 1948.13,-454.3 2008,-432 2045.73,-417.95 2089.09,-404.4 2122.43,-394.52"/>
<polygon fill="grey" stroke="grey" stroke-width="2" points="2123.84,-397.76 2132.44,-391.58 2121.86,-391.04 2123.84,-397.76"/>
</g>
<!-- 17&#45;&gt;4 -->
<g id="edge54" class="edge">
<title>17&#45;&gt;4</title>
<path fill="none" stroke="grey" stroke-width="2" d="M1878.06,-503.98C1928.18,-491.9 1991.47,-476.66 2037.28,-465.63"/>
<polygon fill="grey" stroke="grey" stroke-width="2" points="2038.16,-469.01 2047.07,-463.27 2036.52,-462.21 2038.16,-469.01"/>
</g>
<!-- 18 -->
<g id="node19" class="node">
<title>18</title>
<path fill="none" stroke="#d89556" stroke-width="2" d="M2067,-545C2067,-545 1915,-545 1915,-545 1909,-545 1903,-539 1903,-533 1903,-533 1903,-516 1903,-516 1903,-510 1909,-504 1915,-504 1915,-504 2067,-504 2067,-504 2073,-504 2079,-510 2079,-516 2079,-516 2079,-533 2079,-533 2079,-539 2073,-545 2067,-545"/>
<text text-anchor="middle" x="1991" y="-533" font-family="sans" font-size="10.00">get_read_data</text>
<text text-anchor="middle" x="1991" y="-522" font-family="sans" font-size="10.00">mothurSamples: Water2_S185_L001</text>
<text text-anchor="middle" x="1991" y="-511" font-family="sans" font-size="10.00">readNum: R2</text>
</g>
<!-- 18&#45;&gt;3 -->
<g id="edge33" class="edge">
<title>18&#45;&gt;3</title>
<path fill="none" stroke="grey" stroke-width="2" d="M1996.52,-503.74C2003.19,-483.2 2016.31,-451.42 2038,-432 2061.56,-410.9 2094.39,-397.86 2122.23,-390"/>
<polygon fill="grey" stroke="grey" stroke-width="2" points="2123.47,-393.29 2132.23,-387.33 2121.66,-386.52 2123.47,-393.29"/>
</g>
<!-- 18&#45;&gt;4 -->
<g id="edge55" class="edge">
<title>18&#45;&gt;4</title>
<path fill="none" stroke="grey" stroke-width="2" d="M2019.96,-503.88C2033.59,-494.64 2049.94,-483.57 2064.14,-473.94"/>
<polygon fill="grey" stroke="grey" stroke-width="2" points="2066.35,-476.67 2072.66,-468.17 2062.42,-470.88 2066.35,-476.67"/>
</g>
<!-- 19 -->
<g id="node20" class="node">
<title>19</title>
<path fill="none" stroke="#d89556" stroke-width="2" d="M2264.5,-545C2264.5,-545 2109.5,-545 2109.5,-545 2103.5,-545 2097.5,-539 2097.5,-533 2097.5,-533 2097.5,-516 2097.5,-516 2097.5,-510 2103.5,-504 2109.5,-504 2109.5,-504 2264.5,-504 2264.5,-504 2270.5,-504 2276.5,-510 2276.5,-516 2276.5,-516 2276.5,-533 2276.5,-533 2276.5,-539 2270.5,-545 2264.5,-545"/>
<text text-anchor="middle" x="2187" y="-533" font-family="sans" font-size="10.00">get_read_data</text>
<text text-anchor="middle" x="2187" y="-522" font-family="sans" font-size="10.00">mothurSamples: F3D141_S207_L001</text>
<text text-anchor="middle" x="2187" y="-511" font-family="sans" font-size="10.00">readNum: R1</text>
</g>
<!-- 19&#45;&gt;3 -->
<g id="edge34" class="edge">
<title>19&#45;&gt;3</title>
<path fill="none" stroke="grey" stroke-width="2" d="M2185.63,-503.71C2183.89,-478.49 2180.86,-434.76 2178.89,-406.36"/>
<polygon fill="grey" stroke="grey" stroke-width="2" points="2182.38,-406.03 2178.2,-396.3 2175.4,-406.51 2182.38,-406.03"/>
</g>
<!-- 19&#45;&gt;4 -->
<g id="edge56" class="edge">
<title>19&#45;&gt;4</title>
<path fill="none" stroke="grey" stroke-width="2" d="M2162.68,-503.69C2151.66,-494.72 2138.55,-484.04 2127.03,-474.65"/>
<polygon fill="grey" stroke="grey" stroke-width="2" points="2128.93,-471.68 2118.96,-468.08 2124.51,-477.11 2128.93,-471.68"/>
</g>
<!-- 20 -->
<g id="node21" class="node">
<title>20</title>
<path fill="none" stroke="#d89556" stroke-width="2" d="M2461.5,-545C2461.5,-545 2306.5,-545 2306.5,-545 2300.5,-545 2294.5,-539 2294.5,-533 2294.5,-533 2294.5,-516 2294.5,-516 2294.5,-510 2300.5,-504 2306.5,-504 2306.5,-504 2461.5,-504 2461.5,-504 2467.5,-504 2473.5,-510 2473.5,-516 2473.5,-516 2473.5,-533 2473.5,-533 2473.5,-539 2467.5,-545 2461.5,-545"/>
<text text-anchor="middle" x="2384" y="-533" font-family="sans" font-size="10.00">get_read_data</text>
<text text-anchor="middle" x="2384" y="-522" font-family="sans" font-size="10.00">mothurSamples: F3D141_S207_L001</text>
<text text-anchor="middle" x="2384" y="-511" font-family="sans" font-size="10.00">readNum: R2</text>
</g>
<!-- 20&#45;&gt;3 -->
<g id="edge35" class="edge">
<title>20&#45;&gt;3</title>
<path fill="none" stroke="grey" stroke-width="2" d="M2308.01,-503.98C2284.33,-495.49 2259.17,-483.78 2239,-468 2217.46,-451.15 2200.41,-424.77 2189.68,-405.1"/>
<polygon fill="grey" stroke="grey" stroke-width="2" points="2192.68,-403.28 2184.93,-396.06 2186.48,-406.54 2192.68,-403.28"/>
</g>
<!-- 20&#45;&gt;4 -->
<g id="edge57" class="edge">
<title>20&#45;&gt;4</title>
<path fill="none" stroke="grey" stroke-width="2" d="M2306.98,-503.98C2260.32,-492.15 2201.65,-477.28 2158.37,-466.3"/>
<polygon fill="grey" stroke="grey" stroke-width="2" points="2159.1,-462.88 2148.54,-463.81 2157.38,-469.66 2159.1,-462.88"/>
</g>
<!-- 21 -->
<g id="node22" class="node">
<title>21</title>
<path fill="none" stroke="#d89556" stroke-width="2" d="M2658.5,-545C2658.5,-545 2503.5,-545 2503.5,-545 2497.5,-545 2491.5,-539 2491.5,-533 2491.5,-533 2491.5,-516 2491.5,-516 2491.5,-510 2497.5,-504 2503.5,-504 2503.5,-504 2658.5,-504 2658.5,-504 2664.5,-504 2670.5,-510 2670.5,-516 2670.5,-516 2670.5,-533 2670.5,-533 2670.5,-539 2664.5,-545 2658.5,-545"/>
<text text-anchor="middle" x="2581" y="-533" font-family="sans" font-size="10.00">get_read_data</text>
<text text-anchor="middle" x="2581" y="-522" font-family="sans" font-size="10.00">mothurSamples: F3D143_S209_L001</text>
<text text-anchor="middle" x="2581" y="-511" font-family="sans" font-size="10.00">readNum: R1</text>
</g>
<!-- 21&#45;&gt;3 -->
<g id="edge36" class="edge">
<title>21&#45;&gt;3</title>
<path fill="none" stroke="grey" stroke-width="2" d="M2491.44,-505.77C2488.25,-505.17 2485.1,-504.58 2482,-504 2391.06,-487.06 2359.9,-509.04 2277,-468 2255.86,-457.54 2255.57,-447.74 2238,-432 2227.17,-422.3 2215.12,-411.78 2204.61,-402.68"/>
<polygon fill="grey" stroke="grey" stroke-width="2" points="2206.77,-399.92 2196.91,-396.04 2202.19,-405.22 2206.77,-399.92"/>
</g>
<!-- 21&#45;&gt;4 -->
<g id="edge58" class="edge">
<title>21&#45;&gt;4</title>
<path fill="none" stroke="grey" stroke-width="2" d="M2491.46,-505.63C2488.27,-505.06 2485.11,-504.52 2482,-504 2368.37,-484.98 2234.99,-467.7 2159.09,-458.33"/>
<polygon fill="grey" stroke="grey" stroke-width="2" points="2159.12,-454.81 2148.77,-457.07 2158.27,-461.76 2159.12,-454.81"/>
</g>
<!-- 22 -->
<g id="node23" class="node">
<title>22</title>
<path fill="none" stroke="#d89556" stroke-width="2" d="M2855.5,-545C2855.5,-545 2700.5,-545 2700.5,-545 2694.5,-545 2688.5,-539 2688.5,-533 2688.5,-533 2688.5,-516 2688.5,-516 2688.5,-510 2694.5,-504 2700.5,-504 2700.5,-504 2855.5,-504 2855.5,-504 2861.5,-504 2867.5,-510 2867.5,-516 2867.5,-516 2867.5,-533 2867.5,-533 2867.5,-539 2861.5,-545 2855.5,-545"/>
<text text-anchor="middle" x="2778" y="-533" font-family="sans" font-size="10.00">get_read_data</text>
<text text-anchor="middle" x="2778" y="-522" font-family="sans" font-size="10.00">mothurSamples: F3D143_S209_L001</text>
<text text-anchor="middle" x="2778" y="-511" font-family="sans" font-size="10.00">readNum: R2</text>
</g>
<!-- 22&#45;&gt;3 -->
<g id="edge37" class="edge">
<title>22&#45;&gt;3</title>
<path fill="none" stroke="grey" stroke-width="2" d="M2688.34,-505.29C2685.53,-504.84 2682.75,-504.41 2680,-504 2518.76,-480.07 2465.29,-531.13 2315,-468 2292.02,-458.35 2292.53,-446.13 2272,-432 2255.72,-420.79 2236.88,-409.9 2220.3,-400.92"/>
<polygon fill="grey" stroke="grey" stroke-width="2" points="2221.81,-397.77 2211.34,-396.15 2218.52,-403.94 2221.81,-397.77"/>
</g>
<!-- 22&#45;&gt;4 -->
<g id="edge59" class="edge">
<title>22&#45;&gt;4</title>
<path fill="none" stroke="grey" stroke-width="2" d="M2688.34,-505.26C2685.53,-504.82 2682.75,-504.39 2680,-504 2502,-478.42 2456.07,-484.5 2277,-468 2237.53,-464.36 2193.18,-460.15 2158.5,-456.83"/>
<polygon fill="grey" stroke="grey" stroke-width="2" points="2158.82,-453.35 2148.53,-455.87 2158.15,-460.31 2158.82,-453.35"/>
</g>
<!-- 23 -->
<g id="node24" class="node">
<title>23</title>
<path fill="none" stroke="#d89556" stroke-width="2" d="M3044.5,-545C3044.5,-545 2897.5,-545 2897.5,-545 2891.5,-545 2885.5,-539 2885.5,-533 2885.5,-533 2885.5,-516 2885.5,-516 2885.5,-510 2891.5,-504 2897.5,-504 2897.5,-504 3044.5,-504 3044.5,-504 3050.5,-504 3056.5,-510 3056.5,-516 3056.5,-516 3056.5,-533 3056.5,-533 3056.5,-539 3050.5,-545 3044.5,-545"/>
<text text-anchor="middle" x="2971" y="-533" font-family="sans" font-size="10.00">get_read_data</text>
<text text-anchor="middle" x="2971" y="-522" font-family="sans" font-size="10.00">mothurSamples: M1D2_S302_L001</text>
<text text-anchor="middle" x="2971" y="-511" font-family="sans" font-size="10.00">readNum: R1</text>
</g>
<!-- 23&#45;&gt;3 -->
<g id="edge38" class="edge">
<title>23&#45;&gt;3</title>
<path fill="none" stroke="grey" stroke-width="2" d="M2885.27,-505.22C2882.49,-504.78 2879.72,-504.37 2877,-504 2761.37,-488.11 2461.75,-510.39 2353,-468 2329.14,-458.7 2330.1,-444.94 2308,-432 2283.89,-417.89 2255.3,-405.84 2231,-396.82"/>
<polygon fill="grey" stroke="grey" stroke-width="2" points="2232.16,-393.51 2221.57,-393.38 2229.77,-400.09 2232.16,-393.51"/>
</g>
<!-- 23&#45;&gt;4 -->
<g id="edge60" class="edge">
<title>23&#45;&gt;4</title>
<path fill="none" stroke="grey" stroke-width="2" d="M2885.28,-505.2C2882.49,-504.77 2879.73,-504.37 2877,-504 2628.96,-470.5 2564.66,-485.77 2315,-468 2262.31,-464.25 2202.45,-459.52 2158.97,-456.01"/>
<polygon fill="grey" stroke="grey" stroke-width="2" points="2159.1,-452.51 2148.85,-455.19 2158.53,-459.49 2159.1,-452.51"/>
</g>
<!-- 24 -->
<g id="node25" class="node">
<title>24</title>
<path fill="none" stroke="#d89556" stroke-width="2" d="M3233.5,-545C3233.5,-545 3086.5,-545 3086.5,-545 3080.5,-545 3074.5,-539 3074.5,-533 3074.5,-533 3074.5,-516 3074.5,-516 3074.5,-510 3080.5,-504 3086.5,-504 3086.5,-504 3233.5,-504 3233.5,-504 3239.5,-504 3245.5,-510 3245.5,-516 3245.5,-516 3245.5,-533 3245.5,-533 3245.5,-539 3239.5,-545 3233.5,-545"/>
<text text-anchor="middle" x="3160" y="-533" font-family="sans" font-size="10.00">get_read_data</text>
<text text-anchor="middle" x="3160" y="-522" font-family="sans" font-size="10.00">mothurSamples: M1D2_S302_L001</text>
<text text-anchor="middle" x="3160" y="-511" font-family="sans" font-size="10.00">readNum: R2</text>
</g>
<!-- 24&#45;&gt;3 -->
<g id="edge39" class="edge">
<title>24&#45;&gt;3</title>
<path fill="none" stroke="grey" stroke-width="2" d="M3074.28,-505.16C3071.49,-504.74 3068.73,-504.35 3066,-504 2917.03,-484.69 2531.65,-520.73 2391,-468 2366.69,-458.89 2367.97,-444.1 2345,-432 2309.04,-413.06 2265.15,-399.5 2231.25,-390.84"/>
<polygon fill="grey" stroke="grey" stroke-width="2" points="2232.07,-387.44 2221.52,-388.42 2230.37,-394.23 2232.07,-387.44"/>
</g>
<!-- 24&#45;&gt;4 -->
<g id="edge61" class="edge">
<title>24&#45;&gt;4</title>
<path fill="none" stroke="grey" stroke-width="2" d="M3074.28,-505.15C3071.49,-504.74 3068.73,-504.35 3066,-504 2751.28,-463.66 2669.75,-486.55 2353,-468 2286.56,-464.11 2210.43,-458.94 2158.78,-455.33"/>
<polygon fill="grey" stroke="grey" stroke-width="2" points="2159.01,-451.84 2148.79,-454.63 2158.52,-458.82 2159.01,-451.84"/>
</g>
<!-- 25 -->
<g id="node26" class="node">
<title>25</title>
<path fill="none" stroke="#d89556" stroke-width="2" d="M3422.5,-545C3422.5,-545 3275.5,-545 3275.5,-545 3269.5,-545 3263.5,-539 3263.5,-533 3263.5,-533 3263.5,-516 3263.5,-516 3263.5,-510 3269.5,-504 3275.5,-504 3275.5,-504 3422.5,-504 3422.5,-504 3428.5,-504 3434.5,-510 3434.5,-516 3434.5,-516 3434.5,-533 3434.5,-533 3434.5,-539 3428.5,-545 3422.5,-545"/>
<text text-anchor="middle" x="3349" y="-533" font-family="sans" font-size="10.00">get_read_data</text>
<text text-anchor="middle" x="3349" y="-522" font-family="sans" font-size="10.00">mothurSamples: M1D1_S150_L001</text>
<text text-anchor="middle" x="3349" y="-511" font-family="sans" font-size="10.00">readNum: R1</text>
</g>
<!-- 25&#45;&gt;3 -->
<g id="edge40" class="edge">
<title>25&#45;&gt;3</title>
<path fill="none" stroke="grey" stroke-width="2" d="M3263.29,-505.13C3260.5,-504.72 3257.73,-504.34 3255,-504 3072.68,-481.27 2601.68,-530.76 2429,-468 2404.27,-459.01 2405.65,-443.52 2382,-432 2333.81,-408.53 2274.01,-394.6 2231.46,-386.96"/>
<polygon fill="grey" stroke="grey" stroke-width="2" points="2232.03,-383.5 2221.58,-385.24 2230.83,-390.4 2232.03,-383.5"/>
</g>
<!-- 25&#45;&gt;4 -->
<g id="edge62" class="edge">
<title>25&#45;&gt;4</title>
<path fill="none" stroke="grey" stroke-width="2" d="M3263.29,-505.12C3260.5,-504.71 3257.73,-504.34 3255,-504 2873.57,-456.81 2774.86,-487.13 2391,-468 2310.71,-464 2218.09,-458.47 2158.84,-454.82"/>
<polygon fill="grey" stroke="grey" stroke-width="2" points="2158.74,-451.31 2148.54,-454.18 2158.3,-458.29 2158.74,-451.31"/>
</g>
<!-- 26 -->
<g id="node27" class="node">
<title>26</title>
<path fill="none" stroke="#d89556" stroke-width="2" d="M3611.5,-545C3611.5,-545 3464.5,-545 3464.5,-545 3458.5,-545 3452.5,-539 3452.5,-533 3452.5,-533 3452.5,-516 3452.5,-516 3452.5,-510 3458.5,-504 3464.5,-504 3464.5,-504 3611.5,-504 3611.5,-504 3617.5,-504 3623.5,-510 3623.5,-516 3623.5,-516 3623.5,-533 3623.5,-533 3623.5,-539 3617.5,-545 3611.5,-545"/>
<text text-anchor="middle" x="3538" y="-533" font-family="sans" font-size="10.00">get_read_data</text>
<text text-anchor="middle" x="3538" y="-522" font-family="sans" font-size="10.00">mothurSamples: M1D1_S150_L001</text>
<text text-anchor="middle" x="3538" y="-511" font-family="sans" font-size="10.00">readNum: R2</text>
</g>
<!-- 26&#45;&gt;3 -->
<g id="edge41" class="edge">
<title>26&#45;&gt;3</title>
<path fill="none" stroke="grey" stroke-width="2" d="M3452.29,-505.1C3449.5,-504.7 3446.73,-504.33 3444,-504 3336.16,-490.92 2569.22,-504.76 2467,-468 2442.24,-459.1 2443.87,-443.07 2420,-432 2359.16,-403.79 2282.71,-390.3 2231.98,-384.06"/>
<polygon fill="grey" stroke="grey" stroke-width="2" points="2232.21,-380.56 2221.87,-382.87 2231.39,-387.51 2232.21,-380.56"/>
</g>
<!-- 26&#45;&gt;4 -->
<g id="edge63" class="edge">
<title>26&#45;&gt;4</title>
<path fill="none" stroke="grey" stroke-width="2" d="M3452.29,-505.1C3449.5,-504.7 3446.73,-504.33 3444,-504 2995.85,-449.96 2879.97,-487.58 2429,-468 2334.73,-463.91 2225.42,-458.08 2159.02,-454.42"/>
<polygon fill="grey" stroke="grey" stroke-width="2" points="2158.92,-450.91 2148.74,-453.86 2158.53,-457.9 2158.92,-450.91"/>
</g>
<!-- 27 -->
<g id="node28" class="node">
<title>27</title>
<path fill="none" stroke="#d8b456" stroke-width="2" d="M2671,-468C2671,-468 2597,-468 2597,-468 2591,-468 2585,-462 2585,-456 2585,-456 2585,-444 2585,-444 2585,-438 2591,-432 2597,-432 2597,-432 2671,-432 2671,-432 2677,-432 2683,-438 2683,-444 2683,-444 2683,-456 2683,-456 2683,-462 2677,-468 2671,-468"/>
<text text-anchor="middle" x="2634" y="-447.5" font-family="sans" font-size="10.00">get16SReferences</text>
</g>
<!-- 27&#45;&gt;3 -->
<g id="edge19" class="edge">
<title>27&#45;&gt;3</title>
<path fill="none" stroke="grey" stroke-width="2" d="M2584.97,-435.11C2580.26,-433.98 2575.55,-432.92 2571,-432 2451.13,-407.87 2308.47,-391.75 2231.97,-384.12"/>
<polygon fill="grey" stroke="grey" stroke-width="2" points="2231.92,-380.6 2221.63,-383.1 2231.24,-387.56 2231.92,-380.6"/>
</g>
<!-- 42 -->
<g id="node43" class="node">
<title>42</title>
<path fill="none" stroke="#56d87b" stroke-width="2" d="M2609.5,-396C2609.5,-396 2562.5,-396 2562.5,-396 2556.5,-396 2550.5,-390 2550.5,-384 2550.5,-384 2550.5,-372 2550.5,-372 2550.5,-366 2556.5,-360 2562.5,-360 2562.5,-360 2609.5,-360 2609.5,-360 2615.5,-360 2621.5,-366 2621.5,-372 2621.5,-372 2621.5,-384 2621.5,-384 2621.5,-390 2615.5,-396 2609.5,-396"/>
<text text-anchor="middle" x="2586" y="-375.5" font-family="sans" font-size="10.00">get16SMock</text>
</g>
<!-- 27&#45;&gt;42 -->
<g id="edge83" class="edge">
<title>27&#45;&gt;42</title>
<path fill="none" stroke="grey" stroke-width="2" d="M2622.13,-431.7C2616.5,-423.47 2609.65,-413.48 2603.43,-404.42"/>
<polygon fill="grey" stroke="grey" stroke-width="2" points="2606.27,-402.37 2597.73,-396.1 2600.5,-406.33 2606.27,-402.37"/>
</g>
<!-- 28&#45;&gt;0 -->
<g id="edge2" class="edge">
<title>28&#45;&gt;0</title>
<path fill="none" stroke="grey" stroke-width="2" d="M2389.58,-215.78C2402.45,-206.93 2415.94,-194.86 2423,-180 2444.14,-135.49 2434.95,-104.59 2398,-72 2366.78,-44.47 2247.01,-28.82 2185.28,-22.43"/>
<polygon fill="grey" stroke="grey" stroke-width="2" points="2185.47,-18.93 2175.17,-21.41 2184.77,-25.9 2185.47,-18.93"/>
</g>
<!-- 28&#45;&gt;31 -->
<g id="edge69" class="edge">
<title>28&#45;&gt;31</title>
<path fill="none" stroke="grey" stroke-width="2" d="M2358,-215.7C2358,-207.98 2358,-198.71 2358,-190.11"/>
<polygon fill="grey" stroke="grey" stroke-width="2" points="2361.5,-190.1 2358,-180.1 2354.5,-190.1 2361.5,-190.1"/>
</g>
<!-- 29&#45;&gt;0 -->
<g id="edge3" class="edge">
<title>29&#45;&gt;0</title>
<path fill="none" stroke="grey" stroke-width="2" d="M2466.49,-215.77C2468.32,-182.74 2467.15,-110.42 2427,-72 2392.85,-39.32 2253.34,-25.86 2185.46,-21.16"/>
<polygon fill="grey" stroke="grey" stroke-width="2" points="2185.41,-17.65 2175.2,-20.48 2184.95,-24.64 2185.41,-17.65"/>
</g>
<!-- 30&#45;&gt;0 -->
<g id="edge4" class="edge">
<title>30&#45;&gt;0</title>
<path fill="none" stroke="grey" stroke-width="2" d="M2197.02,-150.69C2240.46,-141.42 2295.48,-126.44 2309,-108 2344.18,-60.01 2242.88,-34.73 2185.12,-24.53"/>
<polygon fill="grey" stroke="grey" stroke-width="2" points="2185.67,-21.07 2175.22,-22.85 2184.5,-27.97 2185.67,-21.07"/>
</g>
<!-- 31&#45;&gt;0 -->
<g id="edge5" class="edge">
<title>31&#45;&gt;0</title>
<path fill="none" stroke="grey" stroke-width="2" d="M2370.14,-143.74C2382.16,-124.32 2396.57,-92.78 2380,-72 2356.07,-41.98 2244.62,-27.62 2185.33,-22"/>
<polygon fill="grey" stroke="grey" stroke-width="2" points="2185.52,-18.5 2175.25,-21.08 2184.89,-25.47 2185.52,-18.5"/>
</g>
<!-- 32&#45;&gt;0 -->
<g id="edge6" class="edge">
<title>32&#45;&gt;0</title>
<path fill="none" stroke="grey" stroke-width="2" d="M2228.21,-215.83C2244.22,-197.82 2270.19,-168.75 2293,-144 2307.91,-127.82 2318.87,-128.45 2327,-108 2332.91,-93.13 2336.57,-84.82 2327,-72 2310.02,-49.26 2232.48,-32.83 2185.2,-24.72"/>
<polygon fill="grey" stroke="grey" stroke-width="2" points="2185.76,-21.26 2175.32,-23.07 2184.61,-28.16 2185.76,-21.26"/>
</g>
<!-- 33&#45;&gt;0 -->
<g id="edge7" class="edge">
<title>33&#45;&gt;0</title>
<path fill="none" stroke="grey" stroke-width="2" d="M1564.25,-143.85C1572.86,-122.97 1590.49,-88.44 1618,-72 1701.27,-22.24 2004,-18.44 2110.57,-18.69"/>
<polygon fill="grey" stroke="grey" stroke-width="2" points="2110.83,-22.19 2120.84,-18.73 2110.86,-15.19 2110.83,-22.19"/>
</g>
<!-- 34&#45;&gt;0 -->
<g id="edge8" class="edge">
<title>34&#45;&gt;0</title>
<path fill="none" stroke="grey" stroke-width="2" d="M1928.44,-143.97C1912.33,-135.73 1896.18,-124.06 1887,-108 1879.06,-94.11 1876.87,-84.39 1887,-72 1914.79,-38 2045,-25.28 2110.37,-20.98"/>
<polygon fill="grey" stroke="grey" stroke-width="2" points="2110.89,-24.45 2120.65,-20.33 2110.45,-17.46 2110.89,-24.45"/>
</g>
<!-- 35 -->
<g id="node36" class="node">
<title>35</title>
<path fill="none" stroke="#d6d856" stroke-width="2" d="M1976,-108C1976,-108 1908,-108 1908,-108 1902,-108 1896,-102 1896,-96 1896,-96 1896,-84 1896,-84 1896,-78 1902,-72 1908,-72 1908,-72 1976,-72 1976,-72 1982,-72 1988,-78 1988,-84 1988,-84 1988,-96 1988,-96 1988,-102 1982,-108 1976,-108"/>
<text text-anchor="middle" x="1942" y="-93" font-family="sans" font-size="10.00">calc16SNMDS</text>
<text text-anchor="middle" x="1942" y="-82" font-family="sans" font-size="10.00">beta: sharedsobs</text>
</g>
<!-- 34&#45;&gt;35 -->
<g id="edge75" class="edge">
<title>34&#45;&gt;35</title>
<path fill="none" stroke="grey" stroke-width="2" d="M1968.35,-143.7C1964.36,-135.73 1959.55,-126.1 1955.13,-117.26"/>
<polygon fill="grey" stroke="grey" stroke-width="2" points="1958.15,-115.48 1950.55,-108.1 1951.89,-118.61 1958.15,-115.48"/>
</g>
<!-- 36 -->
<g id="node37" class="node">
<title>36</title>
<path fill="none" stroke="#d6d856" stroke-width="2" d="M2076,-108C2076,-108 2018,-108 2018,-108 2012,-108 2006,-102 2006,-96 2006,-96 2006,-84 2006,-84 2006,-78 2012,-72 2018,-72 2018,-72 2076,-72 2076,-72 2082,-72 2088,-78 2088,-84 2088,-84 2088,-96 2088,-96 2088,-102 2082,-108 2076,-108"/>
<text text-anchor="middle" x="2047" y="-93" font-family="sans" font-size="10.00">calc16SNMDS</text>
<text text-anchor="middle" x="2047" y="-82" font-family="sans" font-size="10.00">beta: thetayc</text>
</g>
<!-- 34&#45;&gt;36 -->
<g id="edge76" class="edge">
<title>34&#45;&gt;36</title>
<path fill="none" stroke="grey" stroke-width="2" d="M1994.3,-143.7C2002.86,-135.14 2013.34,-124.66 2022.7,-115.3"/>
<polygon fill="grey" stroke="grey" stroke-width="2" points="2025.3,-117.65 2029.9,-108.1 2020.35,-112.7 2025.3,-117.65"/>
</g>
<!-- 37 -->
<g id="node38" class="node">
<title>37</title>
<path fill="none" stroke="#d6d856" stroke-width="2" d="M2178,-108C2178,-108 2118,-108 2118,-108 2112,-108 2106,-102 2106,-96 2106,-96 2106,-84 2106,-84 2106,-78 2112,-72 2118,-72 2118,-72 2178,-72 2178,-72 2184,-72 2190,-78 2190,-84 2190,-84 2190,-96 2190,-96 2190,-102 2184,-108 2178,-108"/>
<text text-anchor="middle" x="2148" y="-93" font-family="sans" font-size="10.00">calc16SNMDS</text>
<text text-anchor="middle" x="2148" y="-82" font-family="sans" font-size="10.00">beta: braycurtis</text>
</g>
<!-- 34&#45;&gt;37 -->
<g id="edge77" class="edge">
<title>34&#45;&gt;37</title>
<path fill="none" stroke="grey" stroke-width="2" d="M2018.83,-143.88C2042.42,-134.22 2072.06,-122.09 2097,-111.88"/>
<polygon fill="grey" stroke="grey" stroke-width="2" points="2098.38,-115.1 2106.3,-108.07 2095.72,-108.62 2098.38,-115.1"/>
</g>
<!-- 38 -->
<g id="node39" class="node">
<title>38</title>
<path fill="none" stroke="#56b9d8" stroke-width="2" d="M2288,-108C2288,-108 2220,-108 2220,-108 2214,-108 2208,-102 2208,-96 2208,-96 2208,-84 2208,-84 2208,-78 2214,-72 2220,-72 2220,-72 2288,-72 2288,-72 2294,-72 2300,-78 2300,-84 2300,-84 2300,-96 2300,-96 2300,-102 2294,-108 2288,-108"/>
<text text-anchor="middle" x="2254" y="-93" font-family="sans" font-size="10.00">calc16SPCoA</text>
<text text-anchor="middle" x="2254" y="-82" font-family="sans" font-size="10.00">beta: sharedsobs</text>
</g>
<!-- 34&#45;&gt;38 -->
<g id="edge78" class="edge">
<title>34&#45;&gt;38</title>
<path fill="none" stroke="grey" stroke-width="2" d="M2032.91,-148.72C2075.67,-139.08 2136.28,-124.9 2197.95,-108.21"/>
<polygon fill="grey" stroke="grey" stroke-width="2" points="2199.12,-111.51 2207.85,-105.5 2197.28,-104.76 2199.12,-111.51"/>
</g>
<!-- 39 -->
<g id="node40" class="node">
<title>39</title>
<path fill="none" stroke="#56b9d8" stroke-width="2" d="M1726,-108C1726,-108 1672,-108 1672,-108 1666,-108 1660,-102 1660,-96 1660,-96 1660,-84 1660,-84 1660,-78 1666,-72 1672,-72 1672,-72 1726,-72 1726,-72 1732,-72 1738,-78 1738,-84 1738,-84 1738,-96 1738,-96 1738,-102 1732,-108 1726,-108"/>
<text text-anchor="middle" x="1699" y="-93" font-family="sans" font-size="10.00">calc16SPCoA</text>
<text text-anchor="middle" x="1699" y="-82" font-family="sans" font-size="10.00">beta: thetayc</text>
</g>
<!-- 34&#45;&gt;39 -->
<g id="edge79" class="edge">
<title>34&#45;&gt;39</title>
<path fill="none" stroke="grey" stroke-width="2" d="M1921.24,-150.01C1876.66,-140.8 1812.46,-126.6 1748.09,-108.16"/>
<polygon fill="grey" stroke="grey" stroke-width="2" points="1748.75,-104.71 1738.17,-105.28 1746.8,-111.43 1748.75,-104.71"/>
</g>
<!-- 40 -->
<g id="node41" class="node">
<title>40</title>
<path fill="none" stroke="#56b9d8" stroke-width="2" d="M1828,-108C1828,-108 1768,-108 1768,-108 1762,-108 1756,-102 1756,-96 1756,-96 1756,-84 1756,-84 1756,-78 1762,-72 1768,-72 1768,-72 1828,-72 1828,-72 1834,-72 1840,-78 1840,-84 1840,-84 1840,-96 1840,-96 1840,-102 1834,-108 1828,-108"/>
<text text-anchor="middle" x="1798" y="-93" font-family="sans" font-size="10.00">calc16SPCoA</text>
<text text-anchor="middle" x="1798" y="-82" font-family="sans" font-size="10.00">beta: braycurtis</text>
</g>
<!-- 34&#45;&gt;40 -->
<g id="edge80" class="edge">
<title>34&#45;&gt;40</title>
<path fill="none" stroke="grey" stroke-width="2" d="M1933.21,-143.88C1907.95,-134 1876.06,-121.53 1849.59,-111.17"/>
<polygon fill="grey" stroke="grey" stroke-width="2" points="1850.69,-107.85 1840.1,-107.47 1848.14,-114.37 1850.69,-107.85"/>
</g>
<!-- 35&#45;&gt;0 -->
<g id="edge9" class="edge">
<title>35&#45;&gt;0</title>
<path fill="none" stroke="grey" stroke-width="2" d="M1988.23,-73.29C2025.37,-60.67 2076.83,-43.18 2111.21,-31.5"/>
<polygon fill="grey" stroke="grey" stroke-width="2" points="2112.52,-34.75 2120.86,-28.22 2110.27,-28.12 2112.52,-34.75"/>
</g>
<!-- 36&#45;&gt;0 -->
<g id="edge10" class="edge">
<title>36&#45;&gt;0</title>
<path fill="none" stroke="grey" stroke-width="2" d="M2071.71,-71.88C2084.67,-62.89 2100.73,-51.76 2114.77,-42.03"/>
<polygon fill="grey" stroke="grey" stroke-width="2" points="2116.97,-44.76 2123.2,-36.19 2112.98,-39.01 2116.97,-44.76"/>
</g>
<!-- 37&#45;&gt;0 -->
<g id="edge11" class="edge">
<title>37&#45;&gt;0</title>
<path fill="none" stroke="grey" stroke-width="2" d="M2148,-71.7C2148,-63.98 2148,-54.71 2148,-46.11"/>
<polygon fill="grey" stroke="grey" stroke-width="2" points="2151.5,-46.1 2148,-36.1 2144.5,-46.1 2151.5,-46.1"/>
</g>
<!-- 38&#45;&gt;0 -->
<g id="edge12" class="edge">
<title>38&#45;&gt;0</title>
<path fill="none" stroke="grey" stroke-width="2" d="M2228.07,-71.88C2214.34,-62.81 2197.29,-51.55 2182.46,-41.76"/>
<polygon fill="grey" stroke="grey" stroke-width="2" points="2184.3,-38.78 2174.03,-36.19 2180.45,-44.62 2184.3,-38.78"/>
</g>
<!-- 39&#45;&gt;0 -->
<g id="edge13" class="edge">
<title>39&#45;&gt;0</title>
<path fill="none" stroke="grey" stroke-width="2" d="M1738.09,-74.4C1741.08,-73.52 1744.08,-72.7 1747,-72 1878.51,-40.39 2039.13,-26.34 2110.61,-21.32"/>
<polygon fill="grey" stroke="grey" stroke-width="2" points="2111.16,-24.8 2120.9,-20.62 2110.68,-17.81 2111.16,-24.8"/>
</g>
<!-- 40&#45;&gt;0 -->
<g id="edge14" class="edge">
<title>40&#45;&gt;0</title>
<path fill="none" stroke="grey" stroke-width="2" d="M1840.05,-75.66C1844.74,-74.35 1849.46,-73.1 1854,-72 1945.18,-50.02 2054.25,-32.65 2110.44,-24.34"/>
<polygon fill="grey" stroke="grey" stroke-width="2" points="2111.24,-27.76 2120.62,-22.85 2110.22,-20.83 2111.24,-27.76"/>
</g>
<!-- 41&#45;&gt;0 -->
<g id="edge15" class="edge">
<title>41&#45;&gt;0</title>
<path fill="none" stroke="grey" stroke-width="2" d="M2537.55,-287.71C2535.36,-243.53 2522.93,-126.21 2453,-72 2411.7,-39.99 2257.19,-26.03 2185.27,-21.17"/>
<polygon fill="grey" stroke="grey" stroke-width="2" points="2185.48,-17.67 2175.28,-20.51 2185.03,-24.66 2185.48,-17.67"/>
</g>
<!-- 42&#45;&gt;41 -->
<g id="edge82" class="edge">
<title>42&#45;&gt;41</title>
<path fill="none" stroke="grey" stroke-width="2" d="M2574.13,-359.7C2568.5,-351.47 2561.65,-341.48 2555.43,-332.42"/>
<polygon fill="grey" stroke="grey" stroke-width="2" points="2558.27,-330.37 2549.73,-324.1 2552.5,-334.33 2558.27,-330.37"/>
</g>
</g>
</svg>
