<?xml version="1.0" encoding="UTF-8" standalone="no"?>
<!DOCTYPE svg PUBLIC "-//W3C//DTD SVG 1.1//EN"
 "http://www.w3.org/Graphics/SVG/1.1/DTD/svg11.dtd">
<!-- Generated by graphviz version 6.0.1 (0)
 -->
<!-- Title: snakemake_dag Pages: 1 -->
<svg width="1040pt" height="697pt"
 viewBox="0.00 0.00 1039.50 697.00" xmlns="http://www.w3.org/2000/svg" xmlns:xlink="http://www.w3.org/1999/xlink">
<g id="graph0" class="graph" transform="scale(1 1) rotate(0) translate(4 693)">
<title>snakemake_dag</title>
<polygon fill="white" stroke="none" points="-4,4 -4,-693 1035.5,-693 1035.5,4 -4,4"/>
<!-- 0 -->
<g id="node1" class="node">
<title>0</title>
<path fill="none" stroke="#61d856" stroke-width="2" d="M432.5,-36C432.5,-36 402.5,-36 402.5,-36 396.5,-36 390.5,-30 390.5,-24 390.5,-24 390.5,-12 390.5,-12 390.5,-6 396.5,0 402.5,0 402.5,0 432.5,0 432.5,0 438.5,0 444.5,-6 444.5,-12 444.5,-12 444.5,-24 444.5,-24 444.5,-30 438.5,-36 432.5,-36"/>
<text text-anchor="middle" x="417.5" y="-15.5" font-family="sans" font-size="10.00">all</text>
</g>
<!-- 1 -->
<g id="node2" class="node">
<title>1</title>
<path fill="none" stroke="#56d8c1" stroke-width="2" d="M211.5,-108C211.5,-108 131.5,-108 131.5,-108 125.5,-108 119.5,-102 119.5,-96 119.5,-96 119.5,-84 119.5,-84 119.5,-78 125.5,-72 131.5,-72 131.5,-72 211.5,-72 211.5,-72 217.5,-72 223.5,-78 223.5,-84 223.5,-84 223.5,-96 223.5,-96 223.5,-102 217.5,-108 211.5,-108"/>
<text text-anchor="middle" x="171.5" y="-87.5" font-family="sans" font-size="10.00">ggplot_variable_freq</text>
</g>
<!-- 1&#45;&gt;0 -->
<g id="edge1" class="edge">
<title>1&#45;&gt;0</title>
<path fill="none" stroke="grey" stroke-width="2" d="M223.67,-74.15C270.84,-60.73 339.08,-41.31 380.75,-29.46"/>
<polygon fill="grey" stroke="grey" stroke-width="2" points="381.82,-32.79 390.48,-26.69 379.91,-26.06 381.82,-32.79"/>
</g>
<!-- 2 -->
<g id="node3" class="node">
<title>2</title>
<path fill="none" stroke="#56b9d8" stroke-width="2" d="M147,-180C147,-180 76,-180 76,-180 70,-180 64,-174 64,-168 64,-168 64,-156 64,-156 64,-150 70,-144 76,-144 76,-144 147,-144 147,-144 153,-144 159,-150 159,-156 159,-156 159,-168 159,-168 159,-174 153,-180 147,-180"/>
<text text-anchor="middle" x="111.5" y="-159.5" font-family="sans" font-size="10.00">get_sra_metadata</text>
</g>
<!-- 2&#45;&gt;1 -->
<g id="edge12" class="edge">
<title>2&#45;&gt;1</title>
<path fill="none" stroke="grey" stroke-width="2" d="M126.33,-143.7C133.52,-135.3 142.3,-125.07 150.19,-115.86"/>
<polygon fill="grey" stroke="grey" stroke-width="2" points="152.99,-117.97 156.84,-108.1 147.67,-113.42 152.99,-117.97"/>
</g>
<!-- 3 -->
<g id="node4" class="node">
<title>3</title>
<path fill="none" stroke="#56d8a9" stroke-width="2" d="M89,-108C89,-108 12,-108 12,-108 6,-108 0,-102 0,-96 0,-96 0,-84 0,-84 0,-78 6,-72 12,-72 12,-72 89,-72 89,-72 95,-72 101,-78 101,-84 101,-84 101,-96 101,-96 101,-102 95,-108 89,-108"/>
<text text-anchor="middle" x="50.5" y="-87.5" font-family="sans" font-size="10.00">leaflet_sample_gps</text>
</g>
<!-- 2&#45;&gt;3 -->
<g id="edge13" class="edge">
<title>2&#45;&gt;3</title>
<path fill="none" stroke="grey" stroke-width="2" d="M96.42,-143.7C89.11,-135.3 80.19,-125.07 72.16,-115.86"/>
<polygon fill="grey" stroke="grey" stroke-width="2" points="74.61,-113.34 65.41,-108.1 69.34,-117.94 74.61,-113.34"/>
</g>
<!-- 3&#45;&gt;0 -->
<g id="edge2" class="edge">
<title>3&#45;&gt;0</title>
<path fill="none" stroke="grey" stroke-width="2" d="M101.14,-74.25C104.3,-73.45 107.44,-72.7 110.5,-72 206.82,-50.1 321.96,-32.47 380.04,-24.17"/>
<polygon fill="grey" stroke="grey" stroke-width="2" points="380.8,-27.6 390.21,-22.73 379.81,-20.67 380.8,-27.6"/>
</g>
<!-- 4 -->
<g id="node5" class="node">
<title>4</title>
<path fill="none" stroke="#d8cb56" stroke-width="2" d="M301.5,-108C301.5,-108 253.5,-108 253.5,-108 247.5,-108 241.5,-102 241.5,-96 241.5,-96 241.5,-84 241.5,-84 241.5,-78 247.5,-72 253.5,-72 253.5,-72 301.5,-72 301.5,-72 307.5,-72 313.5,-78 313.5,-84 313.5,-84 313.5,-96 313.5,-96 313.5,-102 307.5,-108 301.5,-108"/>
<text text-anchor="middle" x="277.5" y="-87.5" font-family="sans" font-size="10.00">qc_rawreads</text>
</g>
<!-- 4&#45;&gt;0 -->
<g id="edge3" class="edge">
<title>4&#45;&gt;0</title>
<path fill="none" stroke="grey" stroke-width="2" d="M311.75,-71.88C332.76,-61.37 359.65,-47.92 381.06,-37.22"/>
<polygon fill="grey" stroke="grey" stroke-width="2" points="382.78,-40.27 390.16,-32.67 379.65,-34.01 382.78,-40.27"/>
</g>
<!-- 5 -->
<g id="node6" class="node">
<title>5</title>
<path fill="none" stroke="#88d856" stroke-width="2" d="M689.5,-324C689.5,-324 523.5,-324 523.5,-324 517.5,-324 511.5,-318 511.5,-312 511.5,-312 511.5,-300 511.5,-300 511.5,-294 517.5,-288 523.5,-288 523.5,-288 689.5,-288 689.5,-288 695.5,-288 701.5,-294 701.5,-300 701.5,-300 701.5,-312 701.5,-312 701.5,-318 695.5,-324 689.5,-324"/>
<text text-anchor="middle" x="606.5" y="-309" font-family="sans" font-size="10.00">final_otu_files</text>
<text text-anchor="middle" x="606.5" y="-298" font-family="sans" font-size="10.00">finalotus: data/mothur/final/otu_analysis</text>
</g>
<!-- 5&#45;&gt;0 -->
<g id="edge4" class="edge">
<title>5&#45;&gt;0</title>
<path fill="none" stroke="grey" stroke-width="2" d="M530.61,-287.94C510.24,-280.04 489.9,-268.58 475.5,-252 423.89,-192.58 416.86,-94.08 416.72,-46.46"/>
<polygon fill="grey" stroke="grey" stroke-width="2" points="420.22,-46.32 416.8,-36.3 413.22,-46.27 420.22,-46.32"/>
</g>
<!-- 20 -->
<g id="node21" class="node">
<title>20</title>
<path fill="none" stroke="#afd856" stroke-width="2" d="M552.5,-252C552.5,-252 496.5,-252 496.5,-252 490.5,-252 484.5,-246 484.5,-240 484.5,-240 484.5,-228 484.5,-228 484.5,-222 490.5,-216 496.5,-216 496.5,-216 552.5,-216 552.5,-216 558.5,-216 564.5,-222 564.5,-228 564.5,-228 564.5,-240 564.5,-240 564.5,-246 558.5,-252 552.5,-252"/>
<text text-anchor="middle" x="524.5" y="-237" font-family="sans" font-size="10.00">split_by_group</text>
<text text-anchor="middle" x="524.5" y="-226" font-family="sans" font-size="10.00">group: sample</text>
</g>
<!-- 5&#45;&gt;20 -->
<g id="edge33" class="edge">
<title>5&#45;&gt;20</title>
<path fill="none" stroke="grey" stroke-width="2" d="M586.23,-287.7C576,-278.97 563.44,-268.24 552.32,-258.75"/>
<polygon fill="grey" stroke="grey" stroke-width="2" points="554.41,-255.94 544.54,-252.1 549.87,-261.26 554.41,-255.94"/>
</g>
<!-- 21 -->
<g id="node22" class="node">
<title>21</title>
<path fill="none" stroke="#afd856" stroke-width="2" d="M650.5,-252C650.5,-252 594.5,-252 594.5,-252 588.5,-252 582.5,-246 582.5,-240 582.5,-240 582.5,-228 582.5,-228 582.5,-222 588.5,-216 594.5,-216 594.5,-216 650.5,-216 650.5,-216 656.5,-216 662.5,-222 662.5,-228 662.5,-228 662.5,-240 662.5,-240 662.5,-246 656.5,-252 650.5,-252"/>
<text text-anchor="middle" x="622.5" y="-237" font-family="sans" font-size="10.00">split_by_group</text>
<text text-anchor="middle" x="622.5" y="-226" font-family="sans" font-size="10.00">group: control</text>
</g>
<!-- 5&#45;&gt;21 -->
<g id="edge34" class="edge">
<title>5&#45;&gt;21</title>
<path fill="none" stroke="grey" stroke-width="2" d="M610.46,-287.7C612.22,-279.98 614.34,-270.71 616.3,-262.11"/>
<polygon fill="grey" stroke="grey" stroke-width="2" points="619.77,-262.63 618.59,-252.1 612.95,-261.07 619.77,-262.63"/>
</g>
<!-- 6 -->
<g id="node7" class="node">
<title>6</title>
<path fill="none" stroke="#5692d8" stroke-width="2" d="M599.5,-396C599.5,-396 543.5,-396 543.5,-396 537.5,-396 531.5,-390 531.5,-384 531.5,-384 531.5,-372 531.5,-372 531.5,-366 537.5,-360 543.5,-360 543.5,-360 599.5,-360 599.5,-360 605.5,-360 611.5,-366 611.5,-372 611.5,-372 611.5,-384 611.5,-384 611.5,-390 605.5,-396 599.5,-396"/>
<text text-anchor="middle" x="571.5" y="-375.5" font-family="sans" font-size="10.00">classify_otu97</text>
</g>
<!-- 6&#45;&gt;5 -->
<g id="edge14" class="edge">
<title>6&#45;&gt;5</title>
<path fill="none" stroke="grey" stroke-width="2" d="M580.15,-359.7C584.14,-351.73 588.95,-342.1 593.37,-333.26"/>
<polygon fill="grey" stroke="grey" stroke-width="2" points="596.61,-334.61 597.95,-324.1 590.35,-331.48 596.61,-334.61"/>
</g>
<!-- 7 -->
<g id="node8" class="node">
<title>7</title>
<path fill="none" stroke="#97d856" stroke-width="2" d="M495.5,-468C495.5,-468 409.5,-468 409.5,-468 403.5,-468 397.5,-462 397.5,-456 397.5,-456 397.5,-444 397.5,-444 397.5,-438 403.5,-432 409.5,-432 409.5,-432 495.5,-432 495.5,-432 501.5,-432 507.5,-438 507.5,-444 507.5,-444 507.5,-456 507.5,-456 507.5,-462 501.5,-468 495.5,-468"/>
<text text-anchor="middle" x="452.5" y="-447.5" font-family="sans" font-size="10.00">denoise_n_classify80</text>
</g>
<!-- 7&#45;&gt;6 -->
<g id="edge15" class="edge">
<title>7&#45;&gt;6</title>
<path fill="none" stroke="grey" stroke-width="2" d="M481.61,-431.88C497.17,-422.72 516.52,-411.34 533.28,-401.48"/>
<polygon fill="grey" stroke="grey" stroke-width="2" points="535.43,-404.28 542.28,-396.19 531.88,-398.24 535.43,-404.28"/>
</g>
<!-- 13 -->
<g id="node14" class="node">
<title>13</title>
<path fill="none" stroke="#566bd8" stroke-width="2" d="M779.5,-396C779.5,-396 705.5,-396 705.5,-396 699.5,-396 693.5,-390 693.5,-384 693.5,-384 693.5,-372 693.5,-372 693.5,-366 699.5,-360 705.5,-360 705.5,-360 779.5,-360 779.5,-360 785.5,-360 791.5,-366 791.5,-372 791.5,-372 791.5,-384 791.5,-384 791.5,-390 785.5,-396 779.5,-396"/>
<text text-anchor="middle" x="742.5" y="-375.5" font-family="sans" font-size="10.00">classify_phylotype</text>
</g>
<!-- 7&#45;&gt;13 -->
<g id="edge22" class="edge">
<title>7&#45;&gt;13</title>
<path fill="none" stroke="grey" stroke-width="2" d="M507.73,-435.67C557.96,-423.55 631.87,-405.7 683.3,-393.29"/>
<polygon fill="grey" stroke="grey" stroke-width="2" points="684.37,-396.63 693.27,-390.88 682.73,-389.83 684.37,-396.63"/>
</g>
<!-- 15 -->
<g id="node16" class="node">
<title>15</title>
<path fill="none" stroke="#56d8d0" stroke-width="2" d="M444,-396C444,-396 397,-396 397,-396 391,-396 385,-390 385,-384 385,-384 385,-372 385,-372 385,-366 391,-360 397,-360 397,-360 444,-360 444,-360 450,-360 456,-366 456,-372 456,-372 456,-384 456,-384 456,-390 450,-396 444,-396"/>
<text text-anchor="middle" x="420.5" y="-375.5" font-family="sans" font-size="10.00">classify_asv</text>
</g>
<!-- 7&#45;&gt;15 -->
<g id="edge24" class="edge">
<title>7&#45;&gt;15</title>
<path fill="none" stroke="grey" stroke-width="2" d="M444.59,-431.7C440.95,-423.73 436.55,-414.1 432.51,-405.26"/>
<polygon fill="grey" stroke="grey" stroke-width="2" points="435.66,-403.74 428.32,-396.1 429.29,-406.65 435.66,-403.74"/>
</g>
<!-- 8 -->
<g id="node9" class="node">
<title>8</title>
<path fill="none" stroke="#d87d56" stroke-width="2" d="M408,-540C408,-540 361,-540 361,-540 355,-540 349,-534 349,-528 349,-528 349,-516 349,-516 349,-510 355,-504 361,-504 361,-504 408,-504 408,-504 414,-504 420,-510 420,-516 420,-516 420,-528 420,-528 420,-534 414,-540 408,-540"/>
<text text-anchor="middle" x="384.5" y="-519.5" font-family="sans" font-size="10.00">align_n_filter</text>
</g>
<!-- 8&#45;&gt;7 -->
<g id="edge16" class="edge">
<title>8&#45;&gt;7</title>
<path fill="none" stroke="grey" stroke-width="2" d="M401.31,-503.7C409.63,-495.14 419.81,-484.66 428.89,-475.3"/>
<polygon fill="grey" stroke="grey" stroke-width="2" points="431.43,-477.72 435.88,-468.1 426.41,-472.84 431.43,-477.72"/>
</g>
<!-- 18 -->
<g id="node19" class="node">
<title>18</title>
<path fill="none" stroke="#97d856" stroke-width="2" d="M367.5,-468C367.5,-468 255.5,-468 255.5,-468 249.5,-468 243.5,-462 243.5,-456 243.5,-456 243.5,-444 243.5,-444 243.5,-438 249.5,-432 255.5,-432 255.5,-432 367.5,-432 367.5,-432 373.5,-432 379.5,-438 379.5,-444 379.5,-444 379.5,-456 379.5,-456 379.5,-462 373.5,-468 367.5,-468"/>
<text text-anchor="middle" x="311.5" y="-453" font-family="sans" font-size="10.00">denoise_n_classify80</text>
<text text-anchor="middle" x="311.5" y="-442" font-family="sans" font-size="10.00">outdir: data/mothur/process</text>
</g>
<!-- 8&#45;&gt;18 -->
<g id="edge27" class="edge">
<title>8&#45;&gt;18</title>
<path fill="none" stroke="grey" stroke-width="2" d="M366.46,-503.7C357.44,-495.05 346.38,-484.45 336.56,-475.03"/>
<polygon fill="grey" stroke="grey" stroke-width="2" points="338.98,-472.5 329.34,-468.1 334.13,-477.55 338.98,-472.5"/>
</g>
<!-- 9 -->
<g id="node10" class="node">
<title>9</title>
<path fill="none" stroke="#d8b456" stroke-width="2" d="M346.5,-612C346.5,-612 266.5,-612 266.5,-612 260.5,-612 254.5,-606 254.5,-600 254.5,-600 254.5,-588 254.5,-588 254.5,-582 260.5,-576 266.5,-576 266.5,-576 346.5,-576 346.5,-576 352.5,-576 358.5,-582 358.5,-588 358.5,-588 358.5,-600 358.5,-600 358.5,-606 352.5,-612 346.5,-612"/>
<text text-anchor="middle" x="306.5" y="-597" font-family="sans" font-size="10.00">make_contigs</text>
<text text-anchor="middle" x="306.5" y="-586" font-family="sans" font-size="10.00">outdir: data/qc/stats</text>
</g>
<!-- 9&#45;&gt;8 -->
<g id="edge18" class="edge">
<title>9&#45;&gt;8</title>
<path fill="none" stroke="grey" stroke-width="2" d="M325.78,-575.7C335.42,-567.05 347.23,-556.45 357.73,-547.03"/>
<polygon fill="grey" stroke="grey" stroke-width="2" points="360.34,-549.39 365.44,-540.1 355.66,-544.18 360.34,-549.39"/>
</g>
<!-- 10 -->
<g id="node11" class="node">
<title>10</title>
<path fill="none" stroke="#70d856" stroke-width="2" d="M362.5,-689C362.5,-689 250.5,-689 250.5,-689 244.5,-689 238.5,-683 238.5,-677 238.5,-677 238.5,-660 238.5,-660 238.5,-654 244.5,-648 250.5,-648 250.5,-648 362.5,-648 362.5,-648 368.5,-648 374.5,-654 374.5,-660 374.5,-660 374.5,-677 374.5,-677 374.5,-683 368.5,-689 362.5,-689"/>
<text text-anchor="middle" x="306.5" y="-677" font-family="sans" font-size="10.00">make_files</text>
<text text-anchor="middle" x="306.5" y="-666" font-family="sans" font-size="10.00">dataset: test</text>
<text text-anchor="middle" x="306.5" y="-655" font-family="sans" font-size="10.00">outdir: data/mothur/process</text>
</g>
<!-- 10&#45;&gt;9 -->
<g id="edge20" class="edge">
<title>10&#45;&gt;9</title>
<path fill="none" stroke="grey" stroke-width="2" d="M306.5,-647.69C306.5,-639.91 306.5,-630.84 306.5,-622.45"/>
<polygon fill="grey" stroke="grey" stroke-width="2" points="310,-622.32 306.5,-612.32 303,-622.32 310,-622.32"/>
</g>
<!-- 11 -->
<g id="node12" class="node">
<title>11</title>
<path fill="none" stroke="#d6d856" stroke-width="2" d="M446,-612C446,-612 389,-612 389,-612 383,-612 377,-606 377,-600 377,-600 377,-588 377,-588 377,-582 383,-576 389,-576 389,-576 446,-576 446,-576 452,-576 458,-582 458,-588 458,-588 458,-600 458,-600 458,-606 452,-612 446,-612"/>
<text text-anchor="middle" x="417.5" y="-591.5" font-family="sans" font-size="10.00">get_references</text>
</g>
<!-- 11&#45;&gt;7 -->
<g id="edge17" class="edge">
<title>11&#45;&gt;7</title>
<path fill="none" stroke="grey" stroke-width="2" d="M421.72,-575.87C427.71,-551.56 438.74,-506.82 445.84,-478.01"/>
<polygon fill="grey" stroke="grey" stroke-width="2" points="449.27,-478.74 448.26,-468.19 442.47,-477.06 449.27,-478.74"/>
</g>
<!-- 11&#45;&gt;8 -->
<g id="edge19" class="edge">
<title>11&#45;&gt;8</title>
<path fill="none" stroke="grey" stroke-width="2" d="M409.34,-575.7C405.59,-567.73 401.05,-558.1 396.88,-549.26"/>
<polygon fill="grey" stroke="grey" stroke-width="2" points="399.99,-547.66 392.56,-540.1 393.66,-550.64 399.99,-547.66"/>
</g>
<!-- 11&#45;&gt;18 -->
<g id="edge28" class="edge">
<title>11&#45;&gt;18</title>
<path fill="none" stroke="grey" stroke-width="2" d="M382.41,-575.99C367.32,-567.13 350.64,-554.98 339.5,-540 326.03,-521.88 318.92,-497.1 315.25,-478.29"/>
<polygon fill="grey" stroke="grey" stroke-width="2" points="318.67,-477.51 313.5,-468.27 311.77,-478.72 318.67,-477.51"/>
</g>
<!-- 12 -->
<g id="node13" class="node">
<title>12</title>
<path fill="none" stroke="#d85656" stroke-width="2" d="M910.5,-252C910.5,-252 692.5,-252 692.5,-252 686.5,-252 680.5,-246 680.5,-240 680.5,-240 680.5,-228 680.5,-228 680.5,-222 686.5,-216 692.5,-216 692.5,-216 910.5,-216 910.5,-216 916.5,-216 922.5,-222 922.5,-228 922.5,-228 922.5,-240 922.5,-240 922.5,-246 916.5,-252 910.5,-252"/>
<text text-anchor="middle" x="801.5" y="-237" font-family="sans" font-size="10.00">final_phylotype_files</text>
<text text-anchor="middle" x="801.5" y="-226" font-family="sans" font-size="10.00">finalphylotype: data/mothur/final/phylotype_analysis</text>
</g>
<!-- 12&#45;&gt;0 -->
<g id="edge5" class="edge">
<title>12&#45;&gt;0</title>
<path fill="none" stroke="grey" stroke-width="2" d="M795.7,-215.78C783.12,-181.42 749.73,-104.86 692.5,-72 616.24,-28.22 510.49,-19.85 454.97,-18.7"/>
<polygon fill="grey" stroke="grey" stroke-width="2" points="454.93,-15.2 444.88,-18.56 454.83,-22.2 454.93,-15.2"/>
</g>
<!-- 13&#45;&gt;12 -->
<g id="edge21" class="edge">
<title>13&#45;&gt;12</title>
<path fill="none" stroke="grey" stroke-width="2" d="M749.62,-359.87C759.76,-335.46 778.47,-290.43 790.43,-261.64"/>
<polygon fill="grey" stroke="grey" stroke-width="2" points="793.75,-262.77 794.36,-252.19 787.29,-260.08 793.75,-262.77"/>
</g>
<!-- 14 -->
<g id="node15" class="node">
<title>14</title>
<path fill="none" stroke="#56a2d8" stroke-width="2" d="M481,-324C481,-324 316,-324 316,-324 310,-324 304,-318 304,-312 304,-312 304,-300 304,-300 304,-294 310,-288 316,-288 316,-288 481,-288 481,-288 487,-288 493,-294 493,-300 493,-300 493,-312 493,-312 493,-318 487,-324 481,-324"/>
<text text-anchor="middle" x="398.5" y="-309" font-family="sans" font-size="10.00">final_asv_files</text>
<text text-anchor="middle" x="398.5" y="-298" font-family="sans" font-size="10.00">finalasv: data/mothur/final/asv_analysis</text>
</g>
<!-- 14&#45;&gt;0 -->
<g id="edge6" class="edge">
<title>14&#45;&gt;0</title>
<path fill="none" stroke="grey" stroke-width="2" d="M397.49,-287.93C395.51,-249.27 392.22,-152.13 403.5,-72 404.69,-63.52 406.78,-54.45 408.98,-46.26"/>
<polygon fill="grey" stroke="grey" stroke-width="2" points="412.4,-47.03 411.77,-36.45 405.67,-45.11 412.4,-47.03"/>
</g>
<!-- 15&#45;&gt;14 -->
<g id="edge23" class="edge">
<title>15&#45;&gt;14</title>
<path fill="none" stroke="grey" stroke-width="2" d="M415.06,-359.7C412.61,-351.9 409.66,-342.51 406.93,-333.83"/>
<polygon fill="grey" stroke="grey" stroke-width="2" points="410.21,-332.59 403.88,-324.1 403.54,-334.69 410.21,-332.59"/>
</g>
<!-- 16 -->
<g id="node17" class="node">
<title>16</title>
<path fill="none" stroke="#567bd8" stroke-width="2" d="M273.5,-324C273.5,-324 51.5,-324 51.5,-324 45.5,-324 39.5,-318 39.5,-312 39.5,-312 39.5,-300 39.5,-300 39.5,-294 45.5,-288 51.5,-288 51.5,-288 273.5,-288 273.5,-288 279.5,-288 285.5,-294 285.5,-300 285.5,-300 285.5,-312 285.5,-312 285.5,-318 279.5,-324 273.5,-324"/>
<text text-anchor="middle" x="162.5" y="-309" font-family="sans" font-size="10.00">final_phylogeny_files</text>
<text text-anchor="middle" x="162.5" y="-298" font-family="sans" font-size="10.00">finalphylogeny: data/mothur/final/phylogeny_analysis</text>
</g>
<!-- 16&#45;&gt;0 -->
<g id="edge7" class="edge">
<title>16&#45;&gt;0</title>
<path fill="none" stroke="grey" stroke-width="2" d="M177.69,-287.97C220.9,-239.5 344.69,-100.67 395.41,-43.77"/>
<polygon fill="grey" stroke="grey" stroke-width="2" points="398.03,-46.1 402.07,-36.31 392.8,-41.44 398.03,-46.1"/>
</g>
<!-- 17 -->
<g id="node18" class="node">
<title>17</title>
<path fill="none" stroke="#56d863" stroke-width="2" d="M322.5,-396C322.5,-396 242.5,-396 242.5,-396 236.5,-396 230.5,-390 230.5,-384 230.5,-384 230.5,-372 230.5,-372 230.5,-366 236.5,-360 242.5,-360 242.5,-360 322.5,-360 322.5,-360 328.5,-360 334.5,-366 334.5,-372 334.5,-372 334.5,-384 334.5,-384 334.5,-390 328.5,-396 322.5,-396"/>
<text text-anchor="middle" x="282.5" y="-381" font-family="sans" font-size="10.00">classify_phylogeny</text>
<text text-anchor="middle" x="282.5" y="-370" font-family="sans" font-size="10.00">outdir: data/qc/stats</text>
</g>
<!-- 17&#45;&gt;16 -->
<g id="edge25" class="edge">
<title>17&#45;&gt;16</title>
<path fill="none" stroke="grey" stroke-width="2" d="M253.14,-359.88C237.45,-350.72 217.94,-339.34 201.05,-329.48"/>
<polygon fill="grey" stroke="grey" stroke-width="2" points="202.37,-326.21 191.97,-324.19 198.84,-332.25 202.37,-326.21"/>
</g>
<!-- 18&#45;&gt;17 -->
<g id="edge26" class="edge">
<title>18&#45;&gt;17</title>
<path fill="none" stroke="grey" stroke-width="2" d="M304.33,-431.7C301.07,-423.81 297.13,-414.3 293.5,-405.55"/>
<polygon fill="grey" stroke="grey" stroke-width="2" points="296.65,-404 289.59,-396.1 290.18,-406.68 296.65,-404"/>
</g>
<!-- 19 -->
<g id="node20" class="node">
<title>19</title>
<path fill="none" stroke="#d88d56" stroke-width="2" d="M549.5,-108C549.5,-108 469.5,-108 469.5,-108 463.5,-108 457.5,-102 457.5,-96 457.5,-96 457.5,-84 457.5,-84 457.5,-78 463.5,-72 469.5,-72 469.5,-72 549.5,-72 549.5,-72 555.5,-72 561.5,-78 561.5,-84 561.5,-84 561.5,-96 561.5,-96 561.5,-102 555.5,-108 549.5,-108"/>
<text text-anchor="middle" x="509.5" y="-87.5" font-family="sans" font-size="10.00">subsample_otutable</text>
</g>
<!-- 19&#45;&gt;0 -->
<g id="edge8" class="edge">
<title>19&#45;&gt;0</title>
<path fill="none" stroke="grey" stroke-width="2" d="M486.76,-71.7C475.06,-62.8 460.64,-51.82 447.99,-42.2"/>
<polygon fill="grey" stroke="grey" stroke-width="2" points="450.06,-39.37 439.98,-36.1 445.82,-44.94 450.06,-39.37"/>
</g>
<!-- 20&#45;&gt;19 -->
<g id="edge29" class="edge">
<title>20&#45;&gt;19</title>
<path fill="none" stroke="grey" stroke-width="2" d="M502.35,-215.87C492.09,-206.52 480.98,-194 475.5,-180 469.67,-165.1 471,-159.35 475.5,-144 478.3,-134.45 483.41,-124.98 488.83,-116.76"/>
<polygon fill="grey" stroke="grey" stroke-width="2" points="491.85,-118.56 494.75,-108.37 486.12,-114.52 491.85,-118.56"/>
</g>
<!-- 22 -->
<g id="node23" class="node">
<title>22</title>
<path fill="none" stroke="#56c9d8" stroke-width="2" d="M547,-180C547,-180 496,-180 496,-180 490,-180 484,-174 484,-168 484,-168 484,-156 484,-156 484,-150 490,-144 496,-144 496,-144 547,-144 547,-144 553,-144 559,-150 559,-156 559,-156 559,-168 559,-168 559,-174 553,-180 547,-180"/>
<text text-anchor="middle" x="521.5" y="-159.5" font-family="sans" font-size="10.00">count_groups</text>
</g>
<!-- 20&#45;&gt;22 -->
<g id="edge35" class="edge">
<title>20&#45;&gt;22</title>
<path fill="none" stroke="grey" stroke-width="2" d="M523.76,-215.7C523.43,-207.98 523.03,-198.71 522.66,-190.11"/>
<polygon fill="grey" stroke="grey" stroke-width="2" points="526.16,-189.95 522.23,-180.1 519.16,-190.25 526.16,-189.95"/>
</g>
<!-- 23 -->
<g id="node24" class="node">
<title>23</title>
<path fill="none" stroke="#56c9d8" stroke-width="2" d="M717,-180C717,-180 666,-180 666,-180 660,-180 654,-174 654,-168 654,-168 654,-156 654,-156 654,-150 660,-144 666,-144 666,-144 717,-144 717,-144 723,-144 729,-150 729,-156 729,-156 729,-168 729,-168 729,-174 723,-180 717,-180"/>
<text text-anchor="middle" x="691.5" y="-159.5" font-family="sans" font-size="10.00">count_groups</text>
</g>
<!-- 20&#45;&gt;23 -->
<g id="edge37" class="edge">
<title>20&#45;&gt;23</title>
<path fill="none" stroke="grey" stroke-width="2" d="M564.5,-216.23C588.54,-206.16 619.26,-193.28 644.47,-182.71"/>
<polygon fill="grey" stroke="grey" stroke-width="2" points="645.96,-185.88 653.83,-178.79 643.26,-179.43 645.96,-185.88"/>
</g>
<!-- 24 -->
<g id="node25" class="node">
<title>24</title>
<path fill="none" stroke="#d88d56" stroke-width="2" d="M671.5,-108C671.5,-108 591.5,-108 591.5,-108 585.5,-108 579.5,-102 579.5,-96 579.5,-96 579.5,-84 579.5,-84 579.5,-78 585.5,-72 591.5,-72 591.5,-72 671.5,-72 671.5,-72 677.5,-72 683.5,-78 683.5,-84 683.5,-84 683.5,-96 683.5,-96 683.5,-102 677.5,-108 671.5,-108"/>
<text text-anchor="middle" x="631.5" y="-87.5" font-family="sans" font-size="10.00">subsample_otutable</text>
</g>
<!-- 20&#45;&gt;24 -->
<g id="edge39" class="edge">
<title>20&#45;&gt;24</title>
<path fill="none" stroke="grey" stroke-width="2" d="M539.51,-215.61C548.18,-205.39 559.18,-192.14 568.5,-180 584.64,-158.96 601.98,-134.3 614.37,-116.28"/>
<polygon fill="grey" stroke="grey" stroke-width="2" points="617.27,-118.24 620.03,-108.01 611.5,-114.28 617.27,-118.24"/>
</g>
<!-- 21&#45;&gt;19 -->
<g id="edge30" class="edge">
<title>21&#45;&gt;19</title>
<path fill="none" stroke="grey" stroke-width="2" d="M614.1,-215.96C604.46,-197.29 587.53,-166.96 568.5,-144 559.83,-133.54 549.09,-123.28 539.15,-114.61"/>
<polygon fill="grey" stroke="grey" stroke-width="2" points="541.29,-111.84 531.41,-108.02 536.76,-117.17 541.29,-111.84"/>
</g>
<!-- 21&#45;&gt;22 -->
<g id="edge36" class="edge">
<title>21&#45;&gt;22</title>
<path fill="none" stroke="grey" stroke-width="2" d="M597.79,-215.88C584.83,-206.89 568.77,-195.76 554.73,-186.03"/>
<polygon fill="grey" stroke="grey" stroke-width="2" points="556.52,-183.01 546.3,-180.19 552.53,-188.76 556.52,-183.01"/>
</g>
<!-- 21&#45;&gt;23 -->
<g id="edge38" class="edge">
<title>21&#45;&gt;23</title>
<path fill="none" stroke="grey" stroke-width="2" d="M639.56,-215.7C648,-207.14 658.32,-196.66 667.54,-187.3"/>
<polygon fill="grey" stroke="grey" stroke-width="2" points="670.11,-189.68 674.64,-180.1 665.13,-184.77 670.11,-189.68"/>
</g>
<!-- 21&#45;&gt;24 -->
<g id="edge40" class="edge">
<title>21&#45;&gt;24</title>
<path fill="none" stroke="grey" stroke-width="2" d="M662.76,-217.11C694.44,-204.21 733.98,-187.03 738.5,-180 747.15,-166.54 746.94,-157.59 738.5,-144 728.12,-127.28 710.72,-115.67 692.94,-107.68"/>
<polygon fill="grey" stroke="grey" stroke-width="2" points="694.22,-104.42 683.64,-103.82 691.53,-110.89 694.22,-104.42"/>
</g>
<!-- 22&#45;&gt;19 -->
<g id="edge31" class="edge">
<title>22&#45;&gt;19</title>
<path fill="none" stroke="grey" stroke-width="2" d="M518.53,-143.7C517.21,-135.98 515.62,-126.71 514.15,-118.11"/>
<polygon fill="grey" stroke="grey" stroke-width="2" points="517.57,-117.37 512.43,-108.1 510.67,-118.55 517.57,-117.37"/>
</g>
<!-- 22&#45;&gt;24 -->
<g id="edge41" class="edge">
<title>22&#45;&gt;24</title>
<path fill="none" stroke="grey" stroke-width="2" d="M548.41,-143.88C562.66,-134.81 580.35,-123.55 595.74,-113.76"/>
<polygon fill="grey" stroke="grey" stroke-width="2" points="597.93,-116.51 604.49,-108.19 594.17,-110.61 597.93,-116.51"/>
</g>
<!-- 23&#45;&gt;19 -->
<g id="edge32" class="edge">
<title>23&#45;&gt;19</title>
<path fill="none" stroke="grey" stroke-width="2" d="M653.79,-146.5C627.69,-136.46 592.56,-122.95 563.5,-111.77"/>
<polygon fill="grey" stroke="grey" stroke-width="2" points="564.49,-108.4 553.9,-108.08 561.98,-114.93 564.49,-108.4"/>
</g>
<!-- 23&#45;&gt;24 -->
<g id="edge42" class="edge">
<title>23&#45;&gt;24</title>
<path fill="none" stroke="grey" stroke-width="2" d="M676.67,-143.7C669.48,-135.3 660.7,-125.07 652.81,-115.86"/>
<polygon fill="grey" stroke="grey" stroke-width="2" points="655.33,-113.42 646.16,-108.1 650.01,-117.97 655.33,-113.42"/>
</g>
<!-- 24&#45;&gt;0 -->
<g id="edge9" class="edge">
<title>24&#45;&gt;0</title>
<path fill="none" stroke="grey" stroke-width="2" d="M579.42,-71.97C540.69,-59.29 488.78,-42.31 454.29,-31.03"/>
<polygon fill="grey" stroke="grey" stroke-width="2" points="455.21,-27.65 444.61,-27.87 453.03,-34.3 455.21,-27.65"/>
</g>
<!-- 25 -->
<g id="node26" class="node">
<title>25</title>
<path fill="none" stroke="#d8a456" stroke-width="2" d="M903.5,-108C903.5,-108 835.5,-108 835.5,-108 829.5,-108 823.5,-102 823.5,-96 823.5,-96 823.5,-84 823.5,-84 823.5,-78 829.5,-72 835.5,-72 835.5,-72 903.5,-72 903.5,-72 909.5,-72 915.5,-78 915.5,-84 915.5,-84 915.5,-96 915.5,-96 915.5,-102 909.5,-108 903.5,-108"/>
<text text-anchor="middle" x="869.5" y="-87.5" font-family="sans" font-size="10.00">interactive_report</text>
</g>
<!-- 25&#45;&gt;0 -->
<g id="edge10" class="edge">
<title>25&#45;&gt;0</title>
<path fill="none" stroke="grey" stroke-width="2" d="M823.48,-75.25C818.78,-74.06 814.06,-72.95 809.5,-72 680.64,-45.17 525.01,-28.81 454.92,-22.28"/>
<polygon fill="grey" stroke="grey" stroke-width="2" points="455.09,-18.78 444.81,-21.35 454.45,-25.75 455.09,-18.78"/>
</g>
<!-- 26 -->
<g id="node27" class="node">
<title>26</title>
<path fill="none" stroke="#56d873" stroke-width="2" d="M1019.5,-108C1019.5,-108 945.5,-108 945.5,-108 939.5,-108 933.5,-102 933.5,-96 933.5,-96 933.5,-84 933.5,-84 933.5,-78 939.5,-72 945.5,-72 945.5,-72 1019.5,-72 1019.5,-72 1025.5,-72 1031.5,-78 1031.5,-84 1031.5,-84 1031.5,-96 1031.5,-96 1031.5,-102 1025.5,-108 1019.5,-108"/>
<text text-anchor="middle" x="982.5" y="-87.5" font-family="sans" font-size="10.00">github_page_index</text>
</g>
<!-- 26&#45;&gt;0 -->
<g id="edge11" class="edge">
<title>26&#45;&gt;0</title>
<path fill="none" stroke="grey" stroke-width="2" d="M933.29,-73.92C930.33,-73.22 927.38,-72.57 924.5,-72 750.89,-37.77 539.19,-24.68 454.8,-20.59"/>
<polygon fill="grey" stroke="grey" stroke-width="2" points="454.84,-17.09 444.69,-20.11 454.51,-24.08 454.84,-17.09"/>
</g>
<!-- 27 -->
<g id="node28" class="node">
<title>27</title>
<path fill="none" stroke="#bed856" stroke-width="2" d="M997.5,-180C997.5,-180 967.5,-180 967.5,-180 961.5,-180 955.5,-174 955.5,-168 955.5,-168 955.5,-156 955.5,-156 955.5,-150 961.5,-144 967.5,-144 967.5,-144 997.5,-144 997.5,-144 1003.5,-144 1009.5,-150 1009.5,-156 1009.5,-156 1009.5,-168 1009.5,-168 1009.5,-174 1003.5,-180 997.5,-180"/>
<text text-anchor="middle" x="982.5" y="-159.5" font-family="sans" font-size="10.00">get_dag</text>
</g>
<!-- 27&#45;&gt;26 -->
<g id="edge43" class="edge">
<title>27&#45;&gt;26</title>
<path fill="none" stroke="grey" stroke-width="2" d="M982.5,-143.7C982.5,-135.98 982.5,-126.71 982.5,-118.11"/>
<polygon fill="grey" stroke="grey" stroke-width="2" points="986,-118.1 982.5,-108.1 979,-118.1 986,-118.1"/>
</g>
</g>
</svg>
