<?xml version="1.0" encoding="UTF-8" standalone="no"?>
<!DOCTYPE svg PUBLIC "-//W3C//DTD SVG 1.1//EN"
 "http://www.w3.org/Graphics/SVG/1.1/DTD/svg11.dtd">
<!-- Generated by graphviz version 6.0.1 (0)
 -->
<!-- Title: snakemake_dag Pages: 1 -->
<svg width="1070pt" height="697pt"
 viewBox="0.00 0.00 1070.00 697.00" xmlns="http://www.w3.org/2000/svg" xmlns:xlink="http://www.w3.org/1999/xlink">
<g id="graph0" class="graph" transform="scale(1 1) rotate(0) translate(4 693)">
<title>snakemake_dag</title>
<polygon fill="white" stroke="none" points="-4,4 -4,-693 1066,-693 1066,4 -4,4"/>
<!-- 0 -->
<g id="node1" class="node">
<title>0</title>
<path fill="none" stroke="#70d856" stroke-width="2" d="M519,-36C519,-36 489,-36 489,-36 483,-36 477,-30 477,-24 477,-24 477,-12 477,-12 477,-6 483,0 489,0 489,0 519,0 519,0 525,0 531,-6 531,-12 531,-12 531,-24 531,-24 531,-30 525,-36 519,-36"/>
<text text-anchor="middle" x="504" y="-15.5" font-family="sans" font-size="10.00">all</text>
</g>
<!-- 1 -->
<g id="node2" class="node">
<title>1</title>
<path fill="none" stroke="#5692d8" stroke-width="2" d="M92,-108C92,-108 12,-108 12,-108 6,-108 0,-102 0,-96 0,-96 0,-84 0,-84 0,-78 6,-72 12,-72 12,-72 92,-72 92,-72 98,-72 104,-78 104,-84 104,-84 104,-96 104,-96 104,-102 98,-108 92,-108"/>
<text text-anchor="middle" x="52" y="-87.5" font-family="sans" font-size="10.00">ggplot_variable_freq</text>
</g>
<!-- 1&#45;&gt;0 -->
<g id="edge1" class="edge">
<title>1&#45;&gt;0</title>
<path fill="none" stroke="grey" stroke-width="2" d="M104.13,-73.97C107.12,-73.26 110.09,-72.6 113,-72 241.59,-45.5 396.8,-28.97 466.69,-22.34"/>
<polygon fill="grey" stroke="grey" stroke-width="2" points="467.13,-25.81 476.76,-21.39 466.48,-18.84 467.13,-25.81"/>
</g>
<!-- 2 -->
<g id="node3" class="node">
<title>2</title>
<path fill="none" stroke="#56b9d8" stroke-width="2" d="M148.5,-180C148.5,-180 77.5,-180 77.5,-180 71.5,-180 65.5,-174 65.5,-168 65.5,-168 65.5,-156 65.5,-156 65.5,-150 71.5,-144 77.5,-144 77.5,-144 148.5,-144 148.5,-144 154.5,-144 160.5,-150 160.5,-156 160.5,-156 160.5,-168 160.5,-168 160.5,-174 154.5,-180 148.5,-180"/>
<text text-anchor="middle" x="113" y="-159.5" font-family="sans" font-size="10.00">get_sra_metadata</text>
</g>
<!-- 2&#45;&gt;1 -->
<g id="edge13" class="edge">
<title>2&#45;&gt;1</title>
<path fill="none" stroke="grey" stroke-width="2" d="M97.92,-143.7C90.61,-135.3 81.69,-125.07 73.66,-115.86"/>
<polygon fill="grey" stroke="grey" stroke-width="2" points="76.11,-113.34 66.91,-108.1 70.84,-117.94 76.11,-113.34"/>
</g>
<!-- 3 -->
<g id="node4" class="node">
<title>3</title>
<path fill="none" stroke="#56d8d0" stroke-width="2" d="M211.5,-108C211.5,-108 134.5,-108 134.5,-108 128.5,-108 122.5,-102 122.5,-96 122.5,-96 122.5,-84 122.5,-84 122.5,-78 128.5,-72 134.5,-72 134.5,-72 211.5,-72 211.5,-72 217.5,-72 223.5,-78 223.5,-84 223.5,-84 223.5,-96 223.5,-96 223.5,-102 217.5,-108 211.5,-108"/>
<text text-anchor="middle" x="173" y="-87.5" font-family="sans" font-size="10.00">leaflet_sample_gps</text>
</g>
<!-- 2&#45;&gt;3 -->
<g id="edge14" class="edge">
<title>2&#45;&gt;3</title>
<path fill="none" stroke="grey" stroke-width="2" d="M127.83,-143.7C135.02,-135.3 143.8,-125.07 151.69,-115.86"/>
<polygon fill="grey" stroke="grey" stroke-width="2" points="154.49,-117.97 158.34,-108.1 149.17,-113.42 154.49,-117.97"/>
</g>
<!-- 3&#45;&gt;0 -->
<g id="edge2" class="edge">
<title>3&#45;&gt;0</title>
<path fill="none" stroke="grey" stroke-width="2" d="M223.66,-74.33C226.81,-73.51 229.95,-72.73 233,-72 315.88,-52.19 414.32,-34.34 466.75,-25.28"/>
<polygon fill="grey" stroke="grey" stroke-width="2" points="467.65,-28.67 476.91,-23.53 466.47,-21.77 467.65,-28.67"/>
</g>
<!-- 4 -->
<g id="node5" class="node">
<title>4</title>
<path fill="none" stroke="#d8a456" stroke-width="2" d="M302,-108C302,-108 254,-108 254,-108 248,-108 242,-102 242,-96 242,-96 242,-84 242,-84 242,-78 248,-72 254,-72 254,-72 302,-72 302,-72 308,-72 314,-78 314,-84 314,-84 314,-96 314,-96 314,-102 308,-108 302,-108"/>
<text text-anchor="middle" x="278" y="-87.5" font-family="sans" font-size="10.00">qc_rawreads</text>
</g>
<!-- 4&#45;&gt;0 -->
<g id="edge3" class="edge">
<title>4&#45;&gt;0</title>
<path fill="none" stroke="grey" stroke-width="2" d="M314.27,-76.5C318.88,-74.96 323.55,-73.43 328,-72 375.71,-56.71 431.1,-40.24 466.8,-29.79"/>
<polygon fill="grey" stroke="grey" stroke-width="2" points="468.15,-33.04 476.77,-26.88 466.19,-26.32 468.15,-33.04"/>
</g>
<!-- 5 -->
<g id="node6" class="node">
<title>5</title>
<path fill="none" stroke="#56d88a" stroke-width="2" d="M672,-324C672,-324 506,-324 506,-324 500,-324 494,-318 494,-312 494,-312 494,-300 494,-300 494,-294 500,-288 506,-288 506,-288 672,-288 672,-288 678,-288 684,-294 684,-300 684,-300 684,-312 684,-312 684,-318 678,-324 672,-324"/>
<text text-anchor="middle" x="589" y="-309" font-family="sans" font-size="10.00">final_otu_files</text>
<text text-anchor="middle" x="589" y="-298" font-family="sans" font-size="10.00">finalotus: data/mothur/final/otu_analysis</text>
</g>
<!-- 5&#45;&gt;0 -->
<g id="edge4" class="edge">
<title>5&#45;&gt;0</title>
<path fill="none" stroke="grey" stroke-width="2" d="M576.97,-287.9C564.33,-269.96 543.84,-240.95 526,-216 514.52,-199.95 508.2,-197.95 500,-180 479.8,-135.81 473.89,-119.73 483,-72 484.71,-63.06 487.9,-53.7 491.29,-45.37"/>
<polygon fill="grey" stroke="grey" stroke-width="2" points="494.51,-46.73 495.28,-36.17 488.09,-43.95 494.51,-46.73"/>
</g>
<!-- 20 -->
<g id="node21" class="node">
<title>20</title>
<path fill="none" stroke="#566bd8" stroke-width="2" d="M740,-252C740,-252 684,-252 684,-252 678,-252 672,-246 672,-240 672,-240 672,-228 672,-228 672,-222 678,-216 684,-216 684,-216 740,-216 740,-216 746,-216 752,-222 752,-228 752,-228 752,-240 752,-240 752,-246 746,-252 740,-252"/>
<text text-anchor="middle" x="712" y="-237" font-family="sans" font-size="10.00">split_by_group</text>
<text text-anchor="middle" x="712" y="-226" font-family="sans" font-size="10.00">group: sample</text>
</g>
<!-- 5&#45;&gt;20 -->
<g id="edge34" class="edge">
<title>5&#45;&gt;20</title>
<path fill="none" stroke="grey" stroke-width="2" d="M619.09,-287.88C635.32,-278.64 655.54,-267.13 672.97,-257.21"/>
<polygon fill="grey" stroke="grey" stroke-width="2" points="674.84,-260.18 681.8,-252.19 671.37,-254.09 674.84,-260.18"/>
</g>
<!-- 21 -->
<g id="node22" class="node">
<title>21</title>
<path fill="none" stroke="#566bd8" stroke-width="2" d="M642,-252C642,-252 586,-252 586,-252 580,-252 574,-246 574,-240 574,-240 574,-228 574,-228 574,-222 580,-216 586,-216 586,-216 642,-216 642,-216 648,-216 654,-222 654,-228 654,-228 654,-240 654,-240 654,-246 648,-252 642,-252"/>
<text text-anchor="middle" x="614" y="-237" font-family="sans" font-size="10.00">split_by_group</text>
<text text-anchor="middle" x="614" y="-226" font-family="sans" font-size="10.00">group: control</text>
</g>
<!-- 5&#45;&gt;21 -->
<g id="edge35" class="edge">
<title>5&#45;&gt;21</title>
<path fill="none" stroke="grey" stroke-width="2" d="M595.18,-287.7C598,-279.81 601.39,-270.3 604.52,-261.55"/>
<polygon fill="grey" stroke="grey" stroke-width="2" points="607.82,-262.7 607.89,-252.1 601.23,-260.34 607.82,-262.7"/>
</g>
<!-- 6 -->
<g id="node7" class="node">
<title>6</title>
<path fill="none" stroke="#d6d856" stroke-width="2" d="M609,-396C609,-396 553,-396 553,-396 547,-396 541,-390 541,-384 541,-384 541,-372 541,-372 541,-366 547,-360 553,-360 553,-360 609,-360 609,-360 615,-360 621,-366 621,-372 621,-372 621,-384 621,-384 621,-390 615,-396 609,-396"/>
<text text-anchor="middle" x="581" y="-375.5" font-family="sans" font-size="10.00">classify_otu97</text>
</g>
<!-- 6&#45;&gt;5 -->
<g id="edge15" class="edge">
<title>6&#45;&gt;5</title>
<path fill="none" stroke="grey" stroke-width="2" d="M582.98,-359.7C583.86,-351.98 584.92,-342.71 585.9,-334.11"/>
<polygon fill="grey" stroke="grey" stroke-width="2" points="589.39,-334.44 587.05,-324.1 582.43,-333.64 589.39,-334.44"/>
</g>
<!-- 7 -->
<g id="node8" class="node">
<title>7</title>
<path fill="none" stroke="#56d8a9" stroke-width="2" d="M552,-468C552,-468 466,-468 466,-468 460,-468 454,-462 454,-456 454,-456 454,-444 454,-444 454,-438 460,-432 466,-432 466,-432 552,-432 552,-432 558,-432 564,-438 564,-444 564,-444 564,-456 564,-456 564,-462 558,-468 552,-468"/>
<text text-anchor="middle" x="509" y="-447.5" font-family="sans" font-size="10.00">denoise_n_classify80</text>
</g>
<!-- 7&#45;&gt;6 -->
<g id="edge16" class="edge">
<title>7&#45;&gt;6</title>
<path fill="none" stroke="grey" stroke-width="2" d="M526.8,-431.7C535.6,-423.14 546.38,-412.66 556,-403.3"/>
<polygon fill="grey" stroke="grey" stroke-width="2" points="558.68,-405.58 563.41,-396.1 553.8,-400.57 558.68,-405.58"/>
</g>
<!-- 13 -->
<g id="node14" class="node">
<title>13</title>
<path fill="none" stroke="#567bd8" stroke-width="2" d="M797,-396C797,-396 723,-396 723,-396 717,-396 711,-390 711,-384 711,-384 711,-372 711,-372 711,-366 717,-360 723,-360 723,-360 797,-360 797,-360 803,-360 809,-366 809,-372 809,-372 809,-384 809,-384 809,-390 803,-396 797,-396"/>
<text text-anchor="middle" x="760" y="-375.5" font-family="sans" font-size="10.00">classify_phylotype</text>
</g>
<!-- 7&#45;&gt;13 -->
<g id="edge23" class="edge">
<title>7&#45;&gt;13</title>
<path fill="none" stroke="grey" stroke-width="2" d="M564.08,-433.64C604.7,-422.31 659.86,-406.93 701.3,-395.37"/>
<polygon fill="grey" stroke="grey" stroke-width="2" points="702.3,-398.73 710.99,-392.67 700.42,-391.98 702.3,-398.73"/>
</g>
<!-- 15 -->
<g id="node16" class="node">
<title>15</title>
<path fill="none" stroke="#afd856" stroke-width="2" d="M494.5,-396C494.5,-396 447.5,-396 447.5,-396 441.5,-396 435.5,-390 435.5,-384 435.5,-384 435.5,-372 435.5,-372 435.5,-366 441.5,-360 447.5,-360 447.5,-360 494.5,-360 494.5,-360 500.5,-360 506.5,-366 506.5,-372 506.5,-372 506.5,-384 506.5,-384 506.5,-390 500.5,-396 494.5,-396"/>
<text text-anchor="middle" x="471" y="-375.5" font-family="sans" font-size="10.00">classify_asv</text>
</g>
<!-- 7&#45;&gt;15 -->
<g id="edge25" class="edge">
<title>7&#45;&gt;15</title>
<path fill="none" stroke="grey" stroke-width="2" d="M499.61,-431.7C495.24,-423.64 489.94,-413.89 485.1,-404.98"/>
<polygon fill="grey" stroke="grey" stroke-width="2" points="488.13,-403.22 480.29,-396.1 481.98,-406.56 488.13,-403.22"/>
</g>
<!-- 8 -->
<g id="node9" class="node">
<title>8</title>
<path fill="none" stroke="#d86656" stroke-width="2" d="M464.5,-540C464.5,-540 417.5,-540 417.5,-540 411.5,-540 405.5,-534 405.5,-528 405.5,-528 405.5,-516 405.5,-516 405.5,-510 411.5,-504 417.5,-504 417.5,-504 464.5,-504 464.5,-504 470.5,-504 476.5,-510 476.5,-516 476.5,-516 476.5,-528 476.5,-528 476.5,-534 470.5,-540 464.5,-540"/>
<text text-anchor="middle" x="441" y="-519.5" font-family="sans" font-size="10.00">align_n_filter</text>
</g>
<!-- 8&#45;&gt;7 -->
<g id="edge17" class="edge">
<title>8&#45;&gt;7</title>
<path fill="none" stroke="grey" stroke-width="2" d="M457.81,-503.7C466.13,-495.14 476.31,-484.66 485.39,-475.3"/>
<polygon fill="grey" stroke="grey" stroke-width="2" points="487.93,-477.72 492.38,-468.1 482.91,-472.84 487.93,-477.72"/>
</g>
<!-- 18 -->
<g id="node19" class="node">
<title>18</title>
<path fill="none" stroke="#56d8a9" stroke-width="2" d="M424,-468C424,-468 312,-468 312,-468 306,-468 300,-462 300,-456 300,-456 300,-444 300,-444 300,-438 306,-432 312,-432 312,-432 424,-432 424,-432 430,-432 436,-438 436,-444 436,-444 436,-456 436,-456 436,-462 430,-468 424,-468"/>
<text text-anchor="middle" x="368" y="-453" font-family="sans" font-size="10.00">denoise_n_classify80</text>
<text text-anchor="middle" x="368" y="-442" font-family="sans" font-size="10.00">outdir: data/mothur/process</text>
</g>
<!-- 8&#45;&gt;18 -->
<g id="edge28" class="edge">
<title>8&#45;&gt;18</title>
<path fill="none" stroke="grey" stroke-width="2" d="M422.96,-503.7C413.94,-495.05 402.88,-484.45 393.06,-475.03"/>
<polygon fill="grey" stroke="grey" stroke-width="2" points="395.48,-472.5 385.84,-468.1 390.63,-477.55 395.48,-472.5"/>
</g>
<!-- 9 -->
<g id="node10" class="node">
<title>9</title>
<path fill="none" stroke="#56d8c1" stroke-width="2" d="M403,-612C403,-612 323,-612 323,-612 317,-612 311,-606 311,-600 311,-600 311,-588 311,-588 311,-582 317,-576 323,-576 323,-576 403,-576 403,-576 409,-576 415,-582 415,-588 415,-588 415,-600 415,-600 415,-606 409,-612 403,-612"/>
<text text-anchor="middle" x="363" y="-597" font-family="sans" font-size="10.00">make_contigs</text>
<text text-anchor="middle" x="363" y="-586" font-family="sans" font-size="10.00">outdir: data/qc/stats</text>
</g>
<!-- 9&#45;&gt;8 -->
<g id="edge19" class="edge">
<title>9&#45;&gt;8</title>
<path fill="none" stroke="grey" stroke-width="2" d="M382.28,-575.7C391.92,-567.05 403.73,-556.45 414.23,-547.03"/>
<polygon fill="grey" stroke="grey" stroke-width="2" points="416.84,-549.39 421.94,-540.1 412.16,-544.18 416.84,-549.39"/>
</g>
<!-- 10 -->
<g id="node11" class="node">
<title>10</title>
<path fill="none" stroke="#56d89a" stroke-width="2" d="M419,-689C419,-689 307,-689 307,-689 301,-689 295,-683 295,-677 295,-677 295,-660 295,-660 295,-654 301,-648 307,-648 307,-648 419,-648 419,-648 425,-648 431,-654 431,-660 431,-660 431,-677 431,-677 431,-683 425,-689 419,-689"/>
<text text-anchor="middle" x="363" y="-677" font-family="sans" font-size="10.00">make_files</text>
<text text-anchor="middle" x="363" y="-666" font-family="sans" font-size="10.00">dataset: test</text>
<text text-anchor="middle" x="363" y="-655" font-family="sans" font-size="10.00">outdir: data/mothur/process</text>
</g>
<!-- 10&#45;&gt;9 -->
<g id="edge21" class="edge">
<title>10&#45;&gt;9</title>
<path fill="none" stroke="grey" stroke-width="2" d="M363,-647.69C363,-639.91 363,-630.84 363,-622.45"/>
<polygon fill="grey" stroke="grey" stroke-width="2" points="366.5,-622.32 363,-612.32 359.5,-622.32 366.5,-622.32"/>
</g>
<!-- 11 -->
<g id="node12" class="node">
<title>11</title>
<path fill="none" stroke="#d88d56" stroke-width="2" d="M502.5,-612C502.5,-612 445.5,-612 445.5,-612 439.5,-612 433.5,-606 433.5,-600 433.5,-600 433.5,-588 433.5,-588 433.5,-582 439.5,-576 445.5,-576 445.5,-576 502.5,-576 502.5,-576 508.5,-576 514.5,-582 514.5,-588 514.5,-588 514.5,-600 514.5,-600 514.5,-606 508.5,-612 502.5,-612"/>
<text text-anchor="middle" x="474" y="-591.5" font-family="sans" font-size="10.00">get_references</text>
</g>
<!-- 11&#45;&gt;7 -->
<g id="edge18" class="edge">
<title>11&#45;&gt;7</title>
<path fill="none" stroke="grey" stroke-width="2" d="M478.22,-575.87C484.21,-551.56 495.24,-506.82 502.34,-478.01"/>
<polygon fill="grey" stroke="grey" stroke-width="2" points="505.77,-478.74 504.76,-468.19 498.97,-477.06 505.77,-478.74"/>
</g>
<!-- 11&#45;&gt;8 -->
<g id="edge20" class="edge">
<title>11&#45;&gt;8</title>
<path fill="none" stroke="grey" stroke-width="2" d="M465.84,-575.7C462.09,-567.73 457.55,-558.1 453.38,-549.26"/>
<polygon fill="grey" stroke="grey" stroke-width="2" points="456.49,-547.66 449.06,-540.1 450.16,-550.64 456.49,-547.66"/>
</g>
<!-- 11&#45;&gt;18 -->
<g id="edge29" class="edge">
<title>11&#45;&gt;18</title>
<path fill="none" stroke="grey" stroke-width="2" d="M438.91,-575.99C423.82,-567.13 407.14,-554.98 396,-540 382.53,-521.88 375.42,-497.1 371.75,-478.29"/>
<polygon fill="grey" stroke="grey" stroke-width="2" points="375.17,-477.51 370,-468.27 368.27,-478.72 375.17,-477.51"/>
</g>
<!-- 12 -->
<g id="node13" class="node">
<title>12</title>
<path fill="none" stroke="#56c9d8" stroke-width="2" d="M934,-324C934,-324 716,-324 716,-324 710,-324 704,-318 704,-312 704,-312 704,-300 704,-300 704,-294 710,-288 716,-288 716,-288 934,-288 934,-288 940,-288 946,-294 946,-300 946,-300 946,-312 946,-312 946,-318 940,-324 934,-324"/>
<text text-anchor="middle" x="825" y="-309" font-family="sans" font-size="10.00">final_phylotype_files</text>
<text text-anchor="middle" x="825" y="-298" font-family="sans" font-size="10.00">finalphylotype: data/mothur/final/phylotype_analysis</text>
</g>
<!-- 12&#45;&gt;0 -->
<g id="edge5" class="edge">
<title>12&#45;&gt;0</title>
<path fill="none" stroke="grey" stroke-width="2" d="M823.89,-287.63C821.34,-257.08 813.3,-192.37 789,-144 770.05,-106.26 763.08,-93.95 727,-72 668.5,-36.4 587.87,-24.71 541.31,-20.88"/>
<polygon fill="grey" stroke="grey" stroke-width="2" points="541.31,-17.37 531.07,-20.11 540.79,-24.35 541.31,-17.37"/>
</g>
<!-- 13&#45;&gt;12 -->
<g id="edge22" class="edge">
<title>13&#45;&gt;12</title>
<path fill="none" stroke="grey" stroke-width="2" d="M776.07,-359.7C783.94,-351.22 793.56,-340.86 802.17,-331.58"/>
<polygon fill="grey" stroke="grey" stroke-width="2" points="804.88,-333.81 809.12,-324.1 799.75,-329.05 804.88,-333.81"/>
</g>
<!-- 14 -->
<g id="node15" class="node">
<title>14</title>
<path fill="none" stroke="#d85656" stroke-width="2" d="M505.5,-252C505.5,-252 340.5,-252 340.5,-252 334.5,-252 328.5,-246 328.5,-240 328.5,-240 328.5,-228 328.5,-228 328.5,-222 334.5,-216 340.5,-216 340.5,-216 505.5,-216 505.5,-216 511.5,-216 517.5,-222 517.5,-228 517.5,-228 517.5,-240 517.5,-240 517.5,-246 511.5,-252 505.5,-252"/>
<text text-anchor="middle" x="423" y="-237" font-family="sans" font-size="10.00">final_asv_files</text>
<text text-anchor="middle" x="423" y="-226" font-family="sans" font-size="10.00">finalasv: data/mothur/final/asv_analysis</text>
</g>
<!-- 14&#45;&gt;0 -->
<g id="edge6" class="edge">
<title>14&#45;&gt;0</title>
<path fill="none" stroke="grey" stroke-width="2" d="M420.44,-215.78C416.71,-184.91 412.73,-118.97 438,-72 445,-58.98 456.69,-48.01 468.3,-39.49"/>
<polygon fill="grey" stroke="grey" stroke-width="2" points="470.43,-42.28 476.68,-33.72 466.46,-36.51 470.43,-42.28"/>
</g>
<!-- 15&#45;&gt;14 -->
<g id="edge24" class="edge">
<title>15&#45;&gt;14</title>
<path fill="none" stroke="grey" stroke-width="2" d="M465.21,-359.87C456.99,-335.56 441.87,-290.82 432.13,-262.01"/>
<polygon fill="grey" stroke="grey" stroke-width="2" points="435.33,-260.54 428.81,-252.19 428.7,-262.78 435.33,-260.54"/>
</g>
<!-- 16 -->
<g id="node17" class="node">
<title>16</title>
<path fill="none" stroke="#d8cb56" stroke-width="2" d="M416,-324C416,-324 194,-324 194,-324 188,-324 182,-318 182,-312 182,-312 182,-300 182,-300 182,-294 188,-288 194,-288 194,-288 416,-288 416,-288 422,-288 428,-294 428,-300 428,-300 428,-312 428,-312 428,-318 422,-324 416,-324"/>
<text text-anchor="middle" x="305" y="-309" font-family="sans" font-size="10.00">final_phylogeny_files</text>
<text text-anchor="middle" x="305" y="-298" font-family="sans" font-size="10.00">finalphylogeny: data/mothur/final/phylogeny_analysis</text>
</g>
<!-- 16&#45;&gt;0 -->
<g id="edge7" class="edge">
<title>16&#45;&gt;0</title>
<path fill="none" stroke="grey" stroke-width="2" d="M305.38,-287.99C306.31,-269.61 309.34,-239.76 319,-216 348.54,-143.35 364.23,-126.11 421,-72 434.86,-58.79 452.49,-46.99 467.92,-37.9"/>
<polygon fill="grey" stroke="grey" stroke-width="2" points="469.77,-40.87 476.72,-32.87 466.3,-34.8 469.77,-40.87"/>
</g>
<!-- 17 -->
<g id="node18" class="node">
<title>17</title>
<path fill="none" stroke="#bed856" stroke-width="2" d="M379,-396C379,-396 299,-396 299,-396 293,-396 287,-390 287,-384 287,-384 287,-372 287,-372 287,-366 293,-360 299,-360 299,-360 379,-360 379,-360 385,-360 391,-366 391,-372 391,-372 391,-384 391,-384 391,-390 385,-396 379,-396"/>
<text text-anchor="middle" x="339" y="-381" font-family="sans" font-size="10.00">classify_phylogeny</text>
<text text-anchor="middle" x="339" y="-370" font-family="sans" font-size="10.00">outdir: data/qc/stats</text>
</g>
<!-- 17&#45;&gt;16 -->
<g id="edge26" class="edge">
<title>17&#45;&gt;16</title>
<path fill="none" stroke="grey" stroke-width="2" d="M330.6,-359.7C326.73,-351.73 322.05,-342.1 317.76,-333.26"/>
<polygon fill="grey" stroke="grey" stroke-width="2" points="320.83,-331.57 313.31,-324.1 314.53,-334.63 320.83,-331.57"/>
</g>
<!-- 18&#45;&gt;17 -->
<g id="edge27" class="edge">
<title>18&#45;&gt;17</title>
<path fill="none" stroke="grey" stroke-width="2" d="M360.83,-431.7C357.57,-423.81 353.63,-414.3 350,-405.55"/>
<polygon fill="grey" stroke="grey" stroke-width="2" points="353.15,-404 346.09,-396.1 346.68,-406.68 353.15,-404"/>
</g>
<!-- 19 -->
<g id="node20" class="node">
<title>19</title>
<path fill="none" stroke="#56a2d8" stroke-width="2" d="M706,-108C706,-108 626,-108 626,-108 620,-108 614,-102 614,-96 614,-96 614,-84 614,-84 614,-78 620,-72 626,-72 626,-72 706,-72 706,-72 712,-72 718,-78 718,-84 718,-84 718,-96 718,-96 718,-102 712,-108 706,-108"/>
<text text-anchor="middle" x="666" y="-87.5" font-family="sans" font-size="10.00">subsample_otutable</text>
</g>
<!-- 19&#45;&gt;0 -->
<g id="edge8" class="edge">
<title>19&#45;&gt;0</title>
<path fill="none" stroke="grey" stroke-width="2" d="M626.37,-71.88C600.12,-60.53 565.95,-45.77 540.4,-34.73"/>
<polygon fill="grey" stroke="grey" stroke-width="2" points="541.62,-31.44 531.06,-30.69 538.85,-37.87 541.62,-31.44"/>
</g>
<!-- 20&#45;&gt;19 -->
<g id="edge30" class="edge">
<title>20&#45;&gt;19</title>
<path fill="none" stroke="grey" stroke-width="2" d="M740.26,-215.97C752.43,-206.96 765.37,-194.7 772,-180 778.58,-165.41 780.41,-157.61 772,-144 761.91,-127.68 745.12,-116.22 727.83,-108.24"/>
<polygon fill="grey" stroke="grey" stroke-width="2" points="728.79,-104.85 718.22,-104.16 726.05,-111.29 728.79,-104.85"/>
</g>
<!-- 22 -->
<g id="node23" class="node">
<title>22</title>
<path fill="none" stroke="#56d873" stroke-width="2" d="M581.5,-180C581.5,-180 530.5,-180 530.5,-180 524.5,-180 518.5,-174 518.5,-168 518.5,-168 518.5,-156 518.5,-156 518.5,-150 524.5,-144 530.5,-144 530.5,-144 581.5,-144 581.5,-144 587.5,-144 593.5,-150 593.5,-156 593.5,-156 593.5,-168 593.5,-168 593.5,-174 587.5,-180 581.5,-180"/>
<text text-anchor="middle" x="556" y="-159.5" font-family="sans" font-size="10.00">count_groups</text>
</g>
<!-- 20&#45;&gt;22 -->
<g id="edge36" class="edge">
<title>20&#45;&gt;22</title>
<path fill="none" stroke="grey" stroke-width="2" d="M673.84,-215.88C652.53,-206.31 625.79,-194.32 603.18,-184.17"/>
<polygon fill="grey" stroke="grey" stroke-width="2" points="604.32,-180.85 593.77,-179.95 601.46,-187.23 604.32,-180.85"/>
</g>
<!-- 23 -->
<g id="node24" class="node">
<title>23</title>
<path fill="none" stroke="#56d873" stroke-width="2" d="M751.5,-180C751.5,-180 700.5,-180 700.5,-180 694.5,-180 688.5,-174 688.5,-168 688.5,-168 688.5,-156 688.5,-156 688.5,-150 694.5,-144 700.5,-144 700.5,-144 751.5,-144 751.5,-144 757.5,-144 763.5,-150 763.5,-156 763.5,-156 763.5,-168 763.5,-168 763.5,-174 757.5,-180 751.5,-180"/>
<text text-anchor="middle" x="726" y="-159.5" font-family="sans" font-size="10.00">count_groups</text>
</g>
<!-- 20&#45;&gt;23 -->
<g id="edge38" class="edge">
<title>20&#45;&gt;23</title>
<path fill="none" stroke="grey" stroke-width="2" d="M715.46,-215.7C717,-207.98 718.86,-198.71 720.58,-190.11"/>
<polygon fill="grey" stroke="grey" stroke-width="2" points="724.05,-190.6 722.58,-180.1 717.19,-189.22 724.05,-190.6"/>
</g>
<!-- 24 -->
<g id="node25" class="node">
<title>24</title>
<path fill="none" stroke="#56a2d8" stroke-width="2" d="M584,-108C584,-108 504,-108 504,-108 498,-108 492,-102 492,-96 492,-96 492,-84 492,-84 492,-78 498,-72 504,-72 504,-72 584,-72 584,-72 590,-72 596,-78 596,-84 596,-84 596,-96 596,-96 596,-102 590,-108 584,-108"/>
<text text-anchor="middle" x="544" y="-87.5" font-family="sans" font-size="10.00">subsample_otutable</text>
</g>
<!-- 20&#45;&gt;24 -->
<g id="edge40" class="edge">
<title>20&#45;&gt;24</title>
<path fill="none" stroke="grey" stroke-width="2" d="M691.74,-215.87C661.84,-190.6 605.82,-143.25 572.01,-114.68"/>
<polygon fill="grey" stroke="grey" stroke-width="2" points="574.23,-111.97 564.34,-108.19 569.71,-117.32 574.23,-111.97"/>
</g>
<!-- 21&#45;&gt;19 -->
<g id="edge31" class="edge">
<title>21&#45;&gt;19</title>
<path fill="none" stroke="grey" stroke-width="2" d="M620.27,-215.87C629.21,-191.46 645.7,-146.43 656.25,-117.64"/>
<polygon fill="grey" stroke="grey" stroke-width="2" points="659.55,-118.78 659.71,-108.19 652.98,-116.38 659.55,-118.78"/>
</g>
<!-- 21&#45;&gt;22 -->
<g id="edge37" class="edge">
<title>21&#45;&gt;22</title>
<path fill="none" stroke="grey" stroke-width="2" d="M599.66,-215.7C592.71,-207.3 584.23,-197.07 576.6,-187.86"/>
<polygon fill="grey" stroke="grey" stroke-width="2" points="579.25,-185.57 570.17,-180.1 573.86,-190.04 579.25,-185.57"/>
</g>
<!-- 21&#45;&gt;23 -->
<g id="edge39" class="edge">
<title>21&#45;&gt;23</title>
<path fill="none" stroke="grey" stroke-width="2" d="M641.4,-215.88C655.91,-206.81 673.92,-195.55 689.59,-185.76"/>
<polygon fill="grey" stroke="grey" stroke-width="2" points="691.87,-188.46 698.5,-180.19 688.16,-182.52 691.87,-188.46"/>
</g>
<!-- 21&#45;&gt;24 -->
<g id="edge41" class="edge">
<title>21&#45;&gt;24</title>
<path fill="none" stroke="grey" stroke-width="2" d="M573.76,-217.83C547.41,-206.99 516.52,-192.22 509,-180 496.62,-159.89 508.8,-134.66 522.07,-116.2"/>
<polygon fill="grey" stroke="grey" stroke-width="2" points="524.86,-118.31 528.16,-108.24 519.3,-114.05 524.86,-118.31"/>
</g>
<!-- 22&#45;&gt;19 -->
<g id="edge32" class="edge">
<title>22&#45;&gt;19</title>
<path fill="none" stroke="grey" stroke-width="2" d="M582.91,-143.88C597.16,-134.81 614.85,-123.55 630.24,-113.76"/>
<polygon fill="grey" stroke="grey" stroke-width="2" points="632.43,-116.51 638.99,-108.19 628.67,-110.61 632.43,-116.51"/>
</g>
<!-- 22&#45;&gt;24 -->
<g id="edge42" class="edge">
<title>22&#45;&gt;24</title>
<path fill="none" stroke="grey" stroke-width="2" d="M553.03,-143.7C551.71,-135.98 550.12,-126.71 548.65,-118.11"/>
<polygon fill="grey" stroke="grey" stroke-width="2" points="552.07,-117.37 546.93,-108.1 545.17,-118.55 552.07,-117.37"/>
</g>
<!-- 23&#45;&gt;19 -->
<g id="edge33" class="edge">
<title>23&#45;&gt;19</title>
<path fill="none" stroke="grey" stroke-width="2" d="M711.17,-143.7C703.98,-135.3 695.2,-125.07 687.31,-115.86"/>
<polygon fill="grey" stroke="grey" stroke-width="2" points="689.83,-113.42 680.66,-108.1 684.51,-117.97 689.83,-113.42"/>
</g>
<!-- 23&#45;&gt;24 -->
<g id="edge43" class="edge">
<title>23&#45;&gt;24</title>
<path fill="none" stroke="grey" stroke-width="2" d="M688.29,-146.5C662.19,-136.46 627.06,-122.95 598,-111.77"/>
<polygon fill="grey" stroke="grey" stroke-width="2" points="598.99,-108.4 588.4,-108.08 596.48,-114.93 598.99,-108.4"/>
</g>
<!-- 24&#45;&gt;0 -->
<g id="edge9" class="edge">
<title>24&#45;&gt;0</title>
<path fill="none" stroke="grey" stroke-width="2" d="M534.11,-71.7C529.51,-63.64 523.94,-53.89 518.85,-44.98"/>
<polygon fill="grey" stroke="grey" stroke-width="2" points="521.77,-43.05 513.77,-36.1 515.7,-46.52 521.77,-43.05"/>
</g>
<!-- 25 -->
<g id="node26" class="node">
<title>25</title>
<path fill="none" stroke="#88d856" stroke-width="2" d="M985,-180C985,-180 955,-180 955,-180 949,-180 943,-174 943,-168 943,-168 943,-156 943,-156 943,-150 949,-144 955,-144 955,-144 985,-144 985,-144 991,-144 997,-150 997,-156 997,-156 997,-168 997,-168 997,-174 991,-180 985,-180"/>
<text text-anchor="middle" x="970" y="-159.5" font-family="sans" font-size="10.00">get_dag</text>
</g>
<!-- 25&#45;&gt;0 -->
<g id="edge10" class="edge">
<title>25&#45;&gt;0</title>
<path fill="none" stroke="grey" stroke-width="2" d="M942.54,-152.02C916.43,-142.87 876.57,-127.31 845,-108 823.74,-94.99 824.59,-82.54 802,-72 714.81,-31.32 599.89,-21.72 541.52,-19.55"/>
<polygon fill="grey" stroke="grey" stroke-width="2" points="541.4,-16.04 531.3,-19.23 541.18,-23.04 541.4,-16.04"/>
</g>
<!-- 27 -->
<g id="node28" class="node">
<title>27</title>
<path fill="none" stroke="#d87d56" stroke-width="2" d="M1050,-108C1050,-108 976,-108 976,-108 970,-108 964,-102 964,-96 964,-96 964,-84 964,-84 964,-78 970,-72 976,-72 976,-72 1050,-72 1050,-72 1056,-72 1062,-78 1062,-84 1062,-84 1062,-96 1062,-96 1062,-102 1056,-108 1050,-108"/>
<text text-anchor="middle" x="1013" y="-87.5" font-family="sans" font-size="10.00">github_page_index</text>
</g>
<!-- 25&#45;&gt;27 -->
<g id="edge44" class="edge">
<title>25&#45;&gt;27</title>
<path fill="none" stroke="grey" stroke-width="2" d="M980.63,-143.7C985.63,-135.56 991.69,-125.69 997.21,-116.7"/>
<polygon fill="grey" stroke="grey" stroke-width="2" points="1000.24,-118.46 1002.49,-108.1 994.28,-114.79 1000.24,-118.46"/>
</g>
<!-- 26 -->
<g id="node27" class="node">
<title>26</title>
<path fill="none" stroke="#56d863" stroke-width="2" d="M934,-108C934,-108 866,-108 866,-108 860,-108 854,-102 854,-96 854,-96 854,-84 854,-84 854,-78 860,-72 866,-72 866,-72 934,-72 934,-72 940,-72 946,-78 946,-84 946,-84 946,-96 946,-96 946,-102 940,-108 934,-108"/>
<text text-anchor="middle" x="900" y="-87.5" font-family="sans" font-size="10.00">interactive_report</text>
</g>
<!-- 26&#45;&gt;0 -->
<g id="edge11" class="edge">
<title>26&#45;&gt;0</title>
<path fill="none" stroke="grey" stroke-width="2" d="M853.95,-75.35C849.26,-74.14 844.55,-73 840,-72 732.59,-48.4 603.64,-31.09 541.34,-23.41"/>
<polygon fill="grey" stroke="grey" stroke-width="2" points="541.56,-19.91 531.21,-22.17 540.71,-26.86 541.56,-19.91"/>
</g>
<!-- 27&#45;&gt;0 -->
<g id="edge12" class="edge">
<title>27&#45;&gt;0</title>
<path fill="none" stroke="grey" stroke-width="2" d="M963.78,-73.96C960.82,-73.25 957.88,-72.59 955,-72 803.38,-41.1 619.16,-26.43 541.44,-21.26"/>
<polygon fill="grey" stroke="grey" stroke-width="2" points="541.4,-17.75 531.19,-20.6 540.95,-24.74 541.4,-17.75"/>
</g>
</g>
</svg>
