<?xml version="1.0" encoding="UTF-8" standalone="no"?>
<!DOCTYPE svg PUBLIC "-//W3C//DTD SVG 1.1//EN"
 "http://www.w3.org/Graphics/SVG/1.1/DTD/svg11.dtd">
<!-- Generated by graphviz version 6.0.1 (0)
 -->
<!-- Title: snakemake_dag Pages: 1 -->
<svg width="528pt" height="548pt"
 viewBox="0.00 0.00 528.00 548.00" xmlns="http://www.w3.org/2000/svg" xmlns:xlink="http://www.w3.org/1999/xlink">
<g id="graph0" class="graph" transform="scale(1 1) rotate(0) translate(4 544)">
<title>snakemake_dag</title>
<polygon fill="white" stroke="none" points="-4,4 -4,-544 524,-544 524,4 -4,4"/>
<!-- 0 -->
<g id="node1" class="node">
<title>0</title>
<path fill="none" stroke="#56d8d8" stroke-width="2" d="M311,-36C311,-36 281,-36 281,-36 275,-36 269,-30 269,-24 269,-24 269,-12 269,-12 269,-6 275,0 281,0 281,0 311,0 311,0 317,0 323,-6 323,-12 323,-12 323,-24 323,-24 323,-30 317,-36 311,-36"/>
<text text-anchor="middle" x="296" y="-15.5" font-family="sans" font-size="10.00">all</text>
</g>
<!-- 1 -->
<g id="node2" class="node">
<title>1</title>
<path fill="none" stroke="#569ad8" stroke-width="2" d="M258.5,-252C258.5,-252 193.5,-252 193.5,-252 187.5,-252 181.5,-246 181.5,-240 181.5,-240 181.5,-228 181.5,-228 181.5,-222 187.5,-216 193.5,-216 193.5,-216 258.5,-216 258.5,-216 264.5,-216 270.5,-222 270.5,-228 270.5,-228 270.5,-240 270.5,-240 270.5,-246 264.5,-252 258.5,-252"/>
<text text-anchor="middle" x="226" y="-231.5" font-family="sans" font-size="10.00">count16SShared</text>
</g>
<!-- 1&#45;&gt;0 -->
<g id="edge8" class="edge">
<title>1&#45;&gt;0</title>
<path fill="none" stroke="grey" stroke-width="2" d="M193.47,-215.98C180.21,-207.18 166.3,-195.09 159,-180 152.03,-165.6 155.96,-159.71 159,-144 165.56,-110.13 164.52,-97.27 188,-72 207.16,-51.38 236.07,-37.79 259.16,-29.53"/>
<polygon fill="grey" stroke="grey" stroke-width="2" points="260.31,-32.84 268.65,-26.32 258.06,-26.21 260.31,-32.84"/>
</g>
<!-- 7 -->
<g id="node8" class="node">
<title>7</title>
<path fill="none" stroke="#d85656" stroke-width="2" d="M100,-180C100,-180 12,-180 12,-180 6,-180 0,-174 0,-168 0,-168 0,-156 0,-156 0,-150 6,-144 12,-144 12,-144 100,-144 100,-144 106,-144 112,-150 112,-156 112,-156 112,-168 112,-168 112,-174 106,-180 100,-180"/>
<text text-anchor="middle" x="56" y="-159.5" font-family="sans" font-size="10.00">subsample16SShared</text>
</g>
<!-- 1&#45;&gt;7 -->
<g id="edge15" class="edge">
<title>1&#45;&gt;7</title>
<path fill="none" stroke="grey" stroke-width="2" d="M184.41,-215.88C160.97,-206.22 131.5,-194.09 106.7,-183.88"/>
<polygon fill="grey" stroke="grey" stroke-width="2" points="108.03,-180.64 97.45,-180.07 105.37,-187.11 108.03,-180.64"/>
</g>
<!-- 9 -->
<g id="node10" class="node">
<title>9</title>
<path fill="none" stroke="#59d856" stroke-width="2" d="M272,-180C272,-180 180,-180 180,-180 174,-180 168,-174 168,-168 168,-168 168,-156 168,-156 168,-150 174,-144 180,-144 180,-144 272,-144 272,-144 278,-144 284,-150 284,-156 284,-156 284,-168 284,-168 284,-174 278,-180 272,-180"/>
<text text-anchor="middle" x="226" y="-159.5" font-family="sans" font-size="10.00">calc16SAlphaDiversity</text>
</g>
<!-- 1&#45;&gt;9 -->
<g id="edge18" class="edge">
<title>1&#45;&gt;9</title>
<path fill="none" stroke="grey" stroke-width="2" d="M226,-215.7C226,-207.98 226,-198.71 226,-190.11"/>
<polygon fill="grey" stroke="grey" stroke-width="2" points="229.5,-190.1 226,-180.1 222.5,-190.1 229.5,-190.1"/>
</g>
<!-- 10 -->
<g id="node11" class="node">
<title>10</title>
<path fill="none" stroke="#d6d856" stroke-width="2" d="M401.5,-180C401.5,-180 314.5,-180 314.5,-180 308.5,-180 302.5,-174 302.5,-168 302.5,-168 302.5,-156 302.5,-156 302.5,-150 308.5,-144 314.5,-144 314.5,-144 401.5,-144 401.5,-144 407.5,-144 413.5,-150 413.5,-156 413.5,-156 413.5,-168 413.5,-168 413.5,-174 407.5,-180 401.5,-180"/>
<text text-anchor="middle" x="358" y="-159.5" font-family="sans" font-size="10.00">calc16SBetaDiversity</text>
</g>
<!-- 1&#45;&gt;10 -->
<g id="edge20" class="edge">
<title>1&#45;&gt;10</title>
<path fill="none" stroke="grey" stroke-width="2" d="M258.29,-215.88C275.87,-206.55 297.81,-194.92 316.63,-184.94"/>
<polygon fill="grey" stroke="grey" stroke-width="2" points="318.39,-187.97 325.59,-180.19 315.11,-181.78 318.39,-187.97"/>
</g>
<!-- 2 -->
<g id="node3" class="node">
<title>2</title>
<path fill="none" stroke="#d89556" stroke-width="2" d="M347.5,-324C347.5,-324 288.5,-324 288.5,-324 282.5,-324 276.5,-318 276.5,-312 276.5,-312 276.5,-300 276.5,-300 276.5,-294 282.5,-288 288.5,-288 288.5,-288 347.5,-288 347.5,-288 353.5,-288 359.5,-294 359.5,-300 359.5,-300 359.5,-312 359.5,-312 359.5,-318 353.5,-324 347.5,-324"/>
<text text-anchor="middle" x="318" y="-303.5" font-family="sans" font-size="10.00">split16SShared</text>
</g>
<!-- 2&#45;&gt;1 -->
<g id="edge9" class="edge">
<title>2&#45;&gt;1</title>
<path fill="none" stroke="grey" stroke-width="2" d="M295.26,-287.7C283.56,-278.8 269.14,-267.82 256.49,-258.2"/>
<polygon fill="grey" stroke="grey" stroke-width="2" points="258.56,-255.37 248.48,-252.1 254.32,-260.94 258.56,-255.37"/>
</g>
<!-- 2&#45;&gt;7 -->
<g id="edge16" class="edge">
<title>2&#45;&gt;7</title>
<path fill="none" stroke="grey" stroke-width="2" d="M276.27,-293.59C246.25,-284.5 205.34,-270.27 172,-252 138.69,-233.75 104.69,-206.43 82.19,-186.88"/>
<polygon fill="grey" stroke="grey" stroke-width="2" points="84.26,-184.03 74.44,-180.05 79.63,-189.29 84.26,-184.03"/>
</g>
<!-- 8 -->
<g id="node9" class="node">
<title>8</title>
<path fill="none" stroke="#d87556" stroke-width="2" d="M446.5,-252C446.5,-252 383.5,-252 383.5,-252 377.5,-252 371.5,-246 371.5,-240 371.5,-240 371.5,-228 371.5,-228 371.5,-222 377.5,-216 383.5,-216 383.5,-216 446.5,-216 446.5,-216 452.5,-216 458.5,-222 458.5,-228 458.5,-228 458.5,-240 458.5,-240 458.5,-246 452.5,-252 446.5,-252"/>
<text text-anchor="middle" x="415" y="-231.5" font-family="sans" font-size="10.00">rarefy16SReads</text>
</g>
<!-- 2&#45;&gt;8 -->
<g id="edge17" class="edge">
<title>2&#45;&gt;8</title>
<path fill="none" stroke="grey" stroke-width="2" d="M341.98,-287.7C354.31,-278.8 369.52,-267.82 382.85,-258.2"/>
<polygon fill="grey" stroke="grey" stroke-width="2" points="385.24,-260.79 391.3,-252.1 381.14,-255.12 385.24,-260.79"/>
</g>
<!-- 2&#45;&gt;9 -->
<g id="edge19" class="edge">
<title>2&#45;&gt;9</title>
<path fill="none" stroke="grey" stroke-width="2" d="M312.67,-287.97C306.36,-269.31 294.7,-238.99 279,-216 271.96,-205.69 262.76,-195.67 254,-187.17"/>
<polygon fill="grey" stroke="grey" stroke-width="2" points="256.17,-184.4 246.48,-180.11 251.38,-189.51 256.17,-184.4"/>
</g>
<!-- 2&#45;&gt;10 -->
<g id="edge21" class="edge">
<title>2&#45;&gt;10</title>
<path fill="none" stroke="grey" stroke-width="2" d="M322.82,-287.87C329.67,-263.56 342.28,-218.82 350.39,-190.01"/>
<polygon fill="grey" stroke="grey" stroke-width="2" points="353.82,-190.76 353.16,-180.19 347.08,-188.87 353.82,-190.76"/>
</g>
<!-- 3 -->
<g id="node4" class="node">
<title>3</title>
<path fill="none" stroke="#d8b456" stroke-width="2" d="M385.5,-396C385.5,-396 320.5,-396 320.5,-396 314.5,-396 308.5,-390 308.5,-384 308.5,-384 308.5,-372 308.5,-372 308.5,-366 314.5,-360 320.5,-360 320.5,-360 385.5,-360 385.5,-360 391.5,-360 397.5,-366 397.5,-372 397.5,-372 397.5,-384 397.5,-384 397.5,-390 391.5,-396 385.5,-396"/>
<text text-anchor="middle" x="353" y="-375.5" font-family="sans" font-size="10.00">make16SShared</text>
</g>
<!-- 3&#45;&gt;2 -->
<g id="edge10" class="edge">
<title>3&#45;&gt;2</title>
<path fill="none" stroke="grey" stroke-width="2" d="M344.35,-359.7C340.36,-351.73 335.55,-342.1 331.13,-333.26"/>
<polygon fill="grey" stroke="grey" stroke-width="2" points="334.15,-331.48 326.55,-324.1 327.89,-334.61 334.15,-331.48"/>
</g>
<!-- 13 -->
<g id="node14" class="node">
<title>13</title>
<path fill="none" stroke="#567bd8" stroke-width="2" d="M495.5,-324C495.5,-324 446.5,-324 446.5,-324 440.5,-324 434.5,-318 434.5,-312 434.5,-312 434.5,-300 434.5,-300 434.5,-294 440.5,-288 446.5,-288 446.5,-288 495.5,-288 495.5,-288 501.5,-288 507.5,-294 507.5,-300 507.5,-300 507.5,-312 507.5,-312 507.5,-318 501.5,-324 495.5,-324"/>
<text text-anchor="middle" x="471" y="-303.5" font-family="sans" font-size="10.00">calc16SError</text>
</g>
<!-- 3&#45;&gt;13 -->
<g id="edge25" class="edge">
<title>3&#45;&gt;13</title>
<path fill="none" stroke="grey" stroke-width="2" d="M381.87,-359.88C397.29,-350.72 416.48,-339.34 433.1,-329.48"/>
<polygon fill="grey" stroke="grey" stroke-width="2" points="435.21,-332.3 442.02,-324.19 431.64,-326.28 435.21,-332.3"/>
</g>
<!-- 4 -->
<g id="node5" class="node">
<title>4</title>
<path fill="none" stroke="#56d89a" stroke-width="2" d="M391.5,-468C391.5,-468 314.5,-468 314.5,-468 308.5,-468 302.5,-462 302.5,-456 302.5,-456 302.5,-444 302.5,-444 302.5,-438 308.5,-432 314.5,-432 314.5,-432 391.5,-432 391.5,-432 397.5,-432 403.5,-438 403.5,-444 403.5,-444 403.5,-456 403.5,-456 403.5,-462 397.5,-468 391.5,-468"/>
<text text-anchor="middle" x="353" y="-447.5" font-family="sans" font-size="10.00">make_mapping_file</text>
</g>
<!-- 4&#45;&gt;3 -->
<g id="edge13" class="edge">
<title>4&#45;&gt;3</title>
<path fill="none" stroke="grey" stroke-width="2" d="M353,-431.7C353,-423.98 353,-414.71 353,-406.11"/>
<polygon fill="grey" stroke="grey" stroke-width="2" points="356.5,-406.1 353,-396.1 349.5,-406.1 356.5,-406.1"/>
</g>
<!-- 5 -->
<g id="node6" class="node">
<title>5</title>
<path fill="none" stroke="#b6d856" stroke-width="2" d="M340,-540C340,-540 286,-540 286,-540 280,-540 274,-534 274,-528 274,-528 274,-516 274,-516 274,-510 280,-504 286,-504 286,-504 340,-504 340,-504 346,-504 352,-510 352,-516 352,-516 352,-528 352,-528 352,-534 346,-540 340,-540"/>
<text text-anchor="middle" x="313" y="-519.5" font-family="sans" font-size="10.00">get_read_data</text>
</g>
<!-- 5&#45;&gt;3 -->
<g id="edge11" class="edge">
<title>5&#45;&gt;3</title>
<path fill="none" stroke="grey" stroke-width="2" d="M302.97,-503.95C293.53,-485.54 282.32,-455.68 293,-432 298.18,-420.52 307.21,-410.52 316.72,-402.4"/>
<polygon fill="grey" stroke="grey" stroke-width="2" points="319.09,-404.99 324.74,-396.03 314.73,-399.51 319.09,-404.99"/>
</g>
<!-- 5&#45;&gt;4 -->
<g id="edge14" class="edge">
<title>5&#45;&gt;4</title>
<path fill="none" stroke="grey" stroke-width="2" d="M322.89,-503.7C327.49,-495.64 333.06,-485.89 338.15,-476.98"/>
<polygon fill="grey" stroke="grey" stroke-width="2" points="341.3,-478.52 343.23,-468.1 335.23,-475.05 341.3,-478.52"/>
</g>
<!-- 6 -->
<g id="node7" class="node">
<title>6</title>
<path fill="none" stroke="#56b9d8" stroke-width="2" d="M508,-468C508,-468 434,-468 434,-468 428,-468 422,-462 422,-456 422,-456 422,-444 422,-444 422,-438 428,-432 434,-432 434,-432 508,-432 508,-432 514,-432 520,-438 520,-444 520,-444 520,-456 520,-456 520,-462 514,-468 508,-468"/>
<text text-anchor="middle" x="471" y="-447.5" font-family="sans" font-size="10.00">get16SReferences</text>
</g>
<!-- 6&#45;&gt;3 -->
<g id="edge12" class="edge">
<title>6&#45;&gt;3</title>
<path fill="none" stroke="grey" stroke-width="2" d="M442.13,-431.88C426.71,-422.72 407.52,-411.34 390.9,-401.48"/>
<polygon fill="grey" stroke="grey" stroke-width="2" points="392.36,-398.28 381.98,-396.19 388.79,-404.3 392.36,-398.28"/>
</g>
<!-- 14 -->
<g id="node15" class="node">
<title>14</title>
<path fill="none" stroke="#97d856" stroke-width="2" d="M494.5,-396C494.5,-396 447.5,-396 447.5,-396 441.5,-396 435.5,-390 435.5,-384 435.5,-384 435.5,-372 435.5,-372 435.5,-366 441.5,-360 447.5,-360 447.5,-360 494.5,-360 494.5,-360 500.5,-360 506.5,-366 506.5,-372 506.5,-372 506.5,-384 506.5,-384 506.5,-390 500.5,-396 494.5,-396"/>
<text text-anchor="middle" x="471" y="-375.5" font-family="sans" font-size="10.00">get16SMock</text>
</g>
<!-- 6&#45;&gt;14 -->
<g id="edge26" class="edge">
<title>6&#45;&gt;14</title>
<path fill="none" stroke="grey" stroke-width="2" d="M471,-431.7C471,-423.98 471,-414.71 471,-406.11"/>
<polygon fill="grey" stroke="grey" stroke-width="2" points="474.5,-406.1 471,-396.1 467.5,-406.1 474.5,-406.1"/>
</g>
<!-- 7&#45;&gt;0 -->
<g id="edge1" class="edge">
<title>7&#45;&gt;0</title>
<path fill="none" stroke="grey" stroke-width="2" d="M65.28,-143.68C76.9,-123.6 98.64,-90.85 126,-72 166.43,-44.14 222.13,-30.45 258.59,-24.07"/>
<polygon fill="grey" stroke="grey" stroke-width="2" points="259.49,-27.47 268.79,-22.39 258.35,-20.56 259.49,-27.47"/>
</g>
<!-- 8&#45;&gt;0 -->
<g id="edge3" class="edge">
<title>8&#45;&gt;0</title>
<path fill="none" stroke="grey" stroke-width="2" d="M420.25,-215.79C428.88,-183.74 442.02,-114.36 409,-72 390.38,-48.12 358.42,-34.52 333.23,-27.09"/>
<polygon fill="grey" stroke="grey" stroke-width="2" points="333.82,-23.62 323.25,-24.36 331.97,-30.37 333.82,-23.62"/>
</g>
<!-- 9&#45;&gt;0 -->
<g id="edge4" class="edge">
<title>9&#45;&gt;0</title>
<path fill="none" stroke="grey" stroke-width="2" d="M212.39,-143.98C199.25,-125.33 183.22,-95 197,-72 210.44,-49.56 236.98,-36.09 259.2,-28.34"/>
<polygon fill="grey" stroke="grey" stroke-width="2" points="260.28,-31.67 268.72,-25.27 258.13,-25.01 260.28,-31.67"/>
</g>
<!-- 10&#45;&gt;0 -->
<g id="edge2" class="edge">
<title>10&#45;&gt;0</title>
<path fill="none" stroke="grey" stroke-width="2" d="M373.69,-143.85C388.62,-125.36 406.89,-95.42 393,-72 380.01,-50.1 354.43,-36.67 332.8,-28.8"/>
<polygon fill="grey" stroke="grey" stroke-width="2" points="333.79,-25.44 323.2,-25.57 331.56,-32.08 333.79,-25.44"/>
</g>
<!-- 11 -->
<g id="node12" class="node">
<title>11</title>
<path fill="none" stroke="#56d8b9" stroke-width="2" d="M276,-108C276,-108 218,-108 218,-108 212,-108 206,-102 206,-96 206,-96 206,-84 206,-84 206,-78 212,-72 218,-72 218,-72 276,-72 276,-72 282,-72 288,-78 288,-84 288,-84 288,-96 288,-96 288,-102 282,-108 276,-108"/>
<text text-anchor="middle" x="247" y="-87.5" font-family="sans" font-size="10.00">calc16SNMDS</text>
</g>
<!-- 10&#45;&gt;11 -->
<g id="edge22" class="edge">
<title>10&#45;&gt;11</title>
<path fill="none" stroke="grey" stroke-width="2" d="M330.85,-143.88C316.47,-134.81 298.62,-123.55 283.09,-113.76"/>
<polygon fill="grey" stroke="grey" stroke-width="2" points="284.58,-110.56 274.26,-108.19 280.85,-116.48 284.58,-110.56"/>
</g>
<!-- 12 -->
<g id="node13" class="node">
<title>12</title>
<path fill="none" stroke="#56d87b" stroke-width="2" d="M372,-108C372,-108 318,-108 318,-108 312,-108 306,-102 306,-96 306,-96 306,-84 306,-84 306,-78 312,-72 318,-72 318,-72 372,-72 372,-72 378,-72 384,-78 384,-84 384,-84 384,-96 384,-96 384,-102 378,-108 372,-108"/>
<text text-anchor="middle" x="345" y="-87.5" font-family="sans" font-size="10.00">calc16SPCoA</text>
</g>
<!-- 10&#45;&gt;12 -->
<g id="edge23" class="edge">
<title>10&#45;&gt;12</title>
<path fill="none" stroke="grey" stroke-width="2" d="M354.79,-143.7C353.35,-135.98 351.63,-126.71 350.04,-118.11"/>
<polygon fill="grey" stroke="grey" stroke-width="2" points="353.44,-117.3 348.18,-108.1 346.56,-118.58 353.44,-117.3"/>
</g>
<!-- 11&#45;&gt;0 -->
<g id="edge6" class="edge">
<title>11&#45;&gt;0</title>
<path fill="none" stroke="grey" stroke-width="2" d="M259.11,-71.7C264.87,-63.47 271.86,-53.48 278.21,-44.42"/>
<polygon fill="grey" stroke="grey" stroke-width="2" points="281.16,-46.3 284.03,-36.1 275.42,-42.29 281.16,-46.3"/>
</g>
<!-- 12&#45;&gt;0 -->
<g id="edge5" class="edge">
<title>12&#45;&gt;0</title>
<path fill="none" stroke="grey" stroke-width="2" d="M332.89,-71.7C327.13,-63.47 320.14,-53.48 313.79,-44.42"/>
<polygon fill="grey" stroke="grey" stroke-width="2" points="316.58,-42.29 307.97,-36.1 310.84,-46.3 316.58,-42.29"/>
</g>
<!-- 13&#45;&gt;0 -->
<g id="edge7" class="edge">
<title>13&#45;&gt;0</title>
<path fill="none" stroke="grey" stroke-width="2" d="M473.58,-287.83C478.93,-245.44 486.47,-134.72 431,-72 405.9,-43.62 363.66,-30.29 333.1,-24.12"/>
<polygon fill="grey" stroke="grey" stroke-width="2" points="333.7,-20.67 323.23,-22.3 332.43,-27.56 333.7,-20.67"/>
</g>
<!-- 14&#45;&gt;13 -->
<g id="edge24" class="edge">
<title>14&#45;&gt;13</title>
<path fill="none" stroke="grey" stroke-width="2" d="M471,-359.7C471,-351.98 471,-342.71 471,-334.11"/>
<polygon fill="grey" stroke="grey" stroke-width="2" points="474.5,-334.1 471,-324.1 467.5,-334.1 474.5,-334.1"/>
</g>
</g>
</svg>
