<?xml version="1.0" encoding="UTF-8" standalone="no"?>
<!DOCTYPE svg PUBLIC "-//W3C//DTD SVG 1.1//EN"
 "http://www.w3.org/Graphics/SVG/1.1/DTD/svg11.dtd">
<!-- Generated by graphviz version 7.1.0 (0)
 -->
<!-- Title: snakemake_dag Pages: 1 -->
<svg width="1134pt" height="332pt"
 viewBox="0.00 0.00 1134.00 332.00" xmlns="http://www.w3.org/2000/svg" xmlns:xlink="http://www.w3.org/1999/xlink">
<g id="graph0" class="graph" transform="scale(1 1) rotate(0) translate(4 328)">
<title>snakemake_dag</title>
<polygon fill="white" stroke="none" points="-4,4 -4,-328 1130,-328 1130,4 -4,4"/>
<!-- 0 -->
<g id="node1" class="node">
<title>0</title>
<path fill="none" stroke="#56d0d8" stroke-width="2" d="M365,-36C365,-36 335,-36 335,-36 329,-36 323,-30 323,-24 323,-24 323,-12 323,-12 323,-6 329,0 335,0 335,0 365,0 365,0 371,0 377,-6 377,-12 377,-12 377,-24 377,-24 377,-30 371,-36 365,-36"/>
<text text-anchor="middle" x="350" y="-15.5" font-family="sans" font-size="10.00">all</text>
</g>
<!-- 1 -->
<g id="node2" class="node">
<title>1</title>
<path fill="none" stroke="#56c1d8" stroke-width="2" d="M282.5,-252C282.5,-252 167.5,-252 167.5,-252 161.5,-252 155.5,-246 155.5,-240 155.5,-240 155.5,-228 155.5,-228 155.5,-222 161.5,-216 167.5,-216 167.5,-216 282.5,-216 282.5,-216 288.5,-216 294.5,-222 294.5,-228 294.5,-228 294.5,-240 294.5,-240 294.5,-246 288.5,-252 282.5,-252"/>
<text text-anchor="middle" x="225" y="-231.5" font-family="sans" font-size="10.00">mothur_process_sequences</text>
</g>
<!-- 1&#45;&gt;0 -->
<g id="edge10" class="edge">
<title>1&#45;&gt;0</title>
<path fill="none" stroke="grey" stroke-width="2" d="M208.58,-215.37C200.7,-205.71 192.11,-193.06 188,-180 183.2,-164.74 181.78,-158.74 188,-144 210.54,-90.62 270.13,-54.51 310.41,-35.34"/>
<polygon fill="grey" stroke="grey" stroke-width="2" points="311.83,-38.54 319.47,-31.19 308.92,-32.17 311.83,-38.54"/>
</g>
<!-- 5 -->
<g id="node6" class="node">
<title>5</title>
<path fill="none" stroke="#5692d8" stroke-width="2" d="M469,-180C469,-180 361,-180 361,-180 355,-180 349,-174 349,-168 349,-168 349,-156 349,-156 349,-150 355,-144 361,-144 361,-144 469,-144 469,-144 475,-144 481,-150 481,-156 481,-156 481,-168 481,-168 481,-174 475,-180 469,-180"/>
<text text-anchor="middle" x="415" y="-159.5" font-family="sans" font-size="10.00">mothur_calculate_errorrate</text>
</g>
<!-- 1&#45;&gt;5 -->
<g id="edge15" class="edge">
<title>1&#45;&gt;5</title>
<path fill="none" stroke="grey" stroke-width="2" d="M273.44,-215.15C298.02,-206.1 328.13,-195.01 354.25,-185.38"/>
<polygon fill="grey" stroke="grey" stroke-width="2" points="355.31,-188.72 363.48,-181.98 352.89,-182.15 355.31,-188.72"/>
</g>
<!-- 7 -->
<g id="node8" class="node">
<title>7</title>
<path fill="none" stroke="#566bd8" stroke-width="2" d="M319,-180C319,-180 209,-180 209,-180 203,-180 197,-174 197,-168 197,-168 197,-156 197,-156 197,-150 203,-144 209,-144 209,-144 319,-144 319,-144 325,-144 331,-150 331,-156 331,-156 331,-168 331,-168 331,-174 325,-180 319,-180"/>
<text text-anchor="middle" x="264" y="-159.5" font-family="sans" font-size="10.00">remove_intermedeate_files</text>
</g>
<!-- 1&#45;&gt;7 -->
<g id="edge18" class="edge">
<title>1&#45;&gt;7</title>
<path fill="none" stroke="grey" stroke-width="2" d="M234.84,-215.34C238.74,-208.34 243.32,-200.12 247.69,-192.28"/>
<polygon fill="grey" stroke="grey" stroke-width="2" points="250.74,-193.99 252.55,-183.55 244.63,-190.58 250.74,-193.99"/>
</g>
<!-- 9 -->
<g id="node10" class="node">
<title>9</title>
<path fill="none" stroke="#d87d56" stroke-width="2" d="M129,-180C129,-180 19,-180 19,-180 13,-180 7,-174 7,-168 7,-168 7,-156 7,-156 7,-150 13,-144 19,-144 19,-144 129,-144 129,-144 135,-144 141,-150 141,-156 141,-156 141,-168 141,-168 141,-174 135,-180 129,-180"/>
<text text-anchor="middle" x="74" y="-159.5" font-family="sans" font-size="10.00">mothur_split_group_shared</text>
</g>
<!-- 1&#45;&gt;9 -->
<g id="edge19" class="edge">
<title>1&#45;&gt;9</title>
<path fill="none" stroke="grey" stroke-width="2" d="M186.51,-215.15C167.59,-206.38 144.55,-195.71 124.26,-186.3"/>
<polygon fill="grey" stroke="grey" stroke-width="2" points="125.98,-183.24 115.43,-182.21 123.03,-189.59 125.98,-183.24"/>
</g>
<!-- 2 -->
<g id="node3" class="node">
<title>2</title>
<path fill="none" stroke="#56d873" stroke-width="2" d="M124,-324C124,-324 12,-324 12,-324 6,-324 0,-318 0,-312 0,-312 0,-300 0,-300 0,-294 6,-288 12,-288 12,-288 124,-288 124,-288 130,-288 136,-294 136,-300 136,-300 136,-312 136,-312 136,-318 130,-324 124,-324"/>
<text text-anchor="middle" x="68" y="-303.5" font-family="sans" font-size="10.00">auto_mothur_mapping_files</text>
</g>
<!-- 2&#45;&gt;1 -->
<g id="edge14" class="edge">
<title>2&#45;&gt;1</title>
<path fill="none" stroke="grey" stroke-width="2" d="M108.02,-287.15C127.79,-278.34 151.87,-267.61 173.04,-258.17"/>
<polygon fill="grey" stroke="grey" stroke-width="2" points="174.3,-261.44 182.01,-254.17 171.45,-255.04 174.3,-261.44"/>
</g>
<!-- 3 -->
<g id="node4" class="node">
<title>3</title>
<path fill="none" stroke="#56a9d8" stroke-width="2" d="M421,-324C421,-324 329,-324 329,-324 323,-324 317,-318 317,-312 317,-312 317,-300 317,-300 317,-294 323,-288 329,-288 329,-288 421,-288 421,-288 427,-288 433,-294 433,-300 433,-300 433,-312 433,-312 433,-318 427,-324 421,-324"/>
<text text-anchor="middle" x="375" y="-303.5" font-family="sans" font-size="10.00">get_mothur_references</text>
</g>
<!-- 3&#45;&gt;1 -->
<g id="edge13" class="edge">
<title>3&#45;&gt;1</title>
<path fill="none" stroke="grey" stroke-width="2" d="M336.76,-287.15C318.06,-278.43 295.3,-267.81 275.21,-258.43"/>
<polygon fill="grey" stroke="grey" stroke-width="2" points="276.72,-255.27 266.17,-254.21 273.75,-261.61 276.72,-255.27"/>
</g>
<!-- 6 -->
<g id="node7" class="node">
<title>6</title>
<path fill="none" stroke="#88d856" stroke-width="2" d="M425,-252C425,-252 325,-252 325,-252 319,-252 313,-246 313,-240 313,-240 313,-228 313,-228 313,-222 319,-216 325,-216 325,-216 425,-216 425,-216 431,-216 437,-222 437,-228 437,-228 437,-240 437,-240 437,-246 431,-252 425,-252"/>
<text text-anchor="middle" x="375" y="-231.5" font-family="sans" font-size="10.00">get_mothur_zymo_mock</text>
</g>
<!-- 3&#45;&gt;6 -->
<g id="edge17" class="edge">
<title>3&#45;&gt;6</title>
<path fill="none" stroke="grey" stroke-width="2" d="M375,-287.34C375,-280.75 375,-273.08 375,-265.67"/>
<polygon fill="grey" stroke="grey" stroke-width="2" points="378.5,-265.93 375,-255.93 371.5,-265.93 378.5,-265.93"/>
</g>
<!-- 4 -->
<g id="node5" class="node">
<title>4</title>
<path fill="none" stroke="#5682d8" stroke-width="2" d="M286,-324C286,-324 166,-324 166,-324 160,-324 154,-318 154,-312 154,-312 154,-300 154,-300 154,-294 160,-288 166,-288 166,-288 286,-288 286,-288 292,-288 298,-294 298,-300 298,-300 298,-312 298,-312 298,-318 292,-324 286,-324"/>
<text text-anchor="middle" x="226" y="-303.5" font-family="sans" font-size="10.00">import_mothur_mapping_files</text>
</g>
<!-- 4&#45;&gt;1 -->
<g id="edge12" class="edge">
<title>4&#45;&gt;1</title>
<path fill="none" stroke="grey" stroke-width="2" d="M225.75,-287.34C225.65,-280.75 225.54,-273.08 225.44,-265.67"/>
<polygon fill="grey" stroke="grey" stroke-width="2" points="228.94,-265.88 225.3,-255.93 221.94,-265.98 228.94,-265.88"/>
</g>
<!-- 5&#45;&gt;0 -->
<g id="edge1" class="edge">
<title>5&#45;&gt;0</title>
<path fill="none" stroke="grey" stroke-width="2" d="M354.26,-143.03C325.33,-133.12 295.25,-120.35 287,-108 278.11,-94.7 280.25,-86.51 287,-72 292.42,-60.36 301.79,-50.37 311.67,-42.3"/>
<polygon fill="grey" stroke="grey" stroke-width="2" points="313.65,-45.18 319.58,-36.4 309.47,-39.57 313.65,-45.18"/>
</g>
<!-- 6&#45;&gt;5 -->
<g id="edge16" class="edge">
<title>6&#45;&gt;5</title>
<path fill="none" stroke="grey" stroke-width="2" d="M385.09,-215.34C389.14,-208.26 393.9,-199.92 398.43,-192"/>
<polygon fill="grey" stroke="grey" stroke-width="2" points="401.35,-193.95 403.27,-183.53 395.27,-190.48 401.35,-193.95"/>
</g>
<!-- 7&#45;&gt;0 -->
<g id="edge11" class="edge">
<title>7&#45;&gt;0</title>
<path fill="none" stroke="grey" stroke-width="2" d="M262.96,-143.27C262.68,-124.28 264.68,-93.92 278,-72 286.04,-58.77 298.75,-47.8 311.27,-39.34"/>
<polygon fill="grey" stroke="grey" stroke-width="2" points="312.92,-42.44 319.53,-34.16 309.2,-36.5 312.92,-42.44"/>
</g>
<!-- 8 -->
<g id="node9" class="node">
<title>8</title>
<path fill="none" stroke="#78d856" stroke-width="2" d="M391.5,-108C391.5,-108 308.5,-108 308.5,-108 302.5,-108 296.5,-102 296.5,-96 296.5,-96 296.5,-84 296.5,-84 296.5,-78 302.5,-72 308.5,-72 308.5,-72 391.5,-72 391.5,-72 397.5,-72 403.5,-78 403.5,-84 403.5,-84 403.5,-96 403.5,-96 403.5,-102 397.5,-108 391.5,-108"/>
<text text-anchor="middle" x="350" y="-87.5" font-family="sans" font-size="10.00">get_files4smk_report</text>
</g>
<!-- 8&#45;&gt;0 -->
<g id="edge8" class="edge">
<title>8&#45;&gt;0</title>
<path fill="none" stroke="grey" stroke-width="2" d="M350,-71.34C350,-64.75 350,-57.08 350,-49.67"/>
<polygon fill="grey" stroke="grey" stroke-width="2" points="353.5,-49.93 350,-39.93 346.5,-49.93 353.5,-49.93"/>
</g>
<!-- 9&#45;&gt;0 -->
<g id="edge4" class="edge">
<title>9&#45;&gt;0</title>
<path fill="none" stroke="grey" stroke-width="2" d="M52.63,-143.28C32.3,-124.29 7.36,-93.94 26,-72 61.94,-29.71 230.68,-21.09 309.39,-19.39"/>
<polygon fill="grey" stroke="grey" stroke-width="2" points="309.14,-22.89 319.07,-19.21 309.01,-15.89 309.14,-22.89"/>
</g>
<!-- 10 -->
<g id="node11" class="node">
<title>10</title>
<path fill="none" stroke="#56d8a2" stroke-width="2" d="M129,-108C129,-108 47,-108 47,-108 41,-108 35,-102 35,-96 35,-96 35,-84 35,-84 35,-78 41,-72 47,-72 47,-72 129,-72 129,-72 135,-72 141,-78 141,-84 141,-84 141,-96 141,-96 141,-102 135,-108 129,-108"/>
<text text-anchor="middle" x="88" y="-87.5" font-family="sans" font-size="10.00">alpha_beta_diversity</text>
</g>
<!-- 9&#45;&gt;10 -->
<g id="edge20" class="edge">
<title>9&#45;&gt;10</title>
<path fill="none" stroke="grey" stroke-width="2" d="M77.53,-143.34C78.85,-136.75 80.38,-129.08 81.87,-121.67"/>
<polygon fill="grey" stroke="grey" stroke-width="2" points="85.3,-122.36 83.83,-111.87 78.43,-120.99 85.3,-122.36"/>
</g>
<!-- 10&#45;&gt;0 -->
<g id="edge5" class="edge">
<title>10&#45;&gt;0</title>
<path fill="none" stroke="grey" stroke-width="2" d="M141.97,-74.58C191.87,-61.25 264.9,-41.74 309.84,-29.73"/>
<polygon fill="grey" stroke="grey" stroke-width="2" points="310.59,-33.15 319.35,-27.19 308.79,-26.39 310.59,-33.15"/>
</g>
<!-- 11 -->
<g id="node12" class="node">
<title>11</title>
<path fill="none" stroke="#56d88a" stroke-width="2" d="M560,-108C560,-108 434,-108 434,-108 428,-108 422,-102 422,-96 422,-96 422,-84 422,-84 422,-78 428,-72 434,-72 434,-72 560,-72 560,-72 566,-72 572,-78 572,-84 572,-84 572,-96 572,-96 572,-102 566,-108 560,-108"/>
<text text-anchor="middle" x="497" y="-87.5" font-family="sans" font-size="10.00">qiime2_create_n_view_qc_qvz</text>
</g>
<!-- 11&#45;&gt;0 -->
<g id="edge3" class="edge">
<title>11&#45;&gt;0</title>
<path fill="none" stroke="grey" stroke-width="2" d="M459.53,-71.15C437.99,-60.9 410.98,-48.04 389.17,-37.65"/>
<polygon fill="grey" stroke="grey" stroke-width="2" points="390.92,-34.61 380.39,-33.47 387.91,-40.93 390.92,-34.61"/>
</g>
<!-- 12 -->
<g id="node13" class="node">
<title>12</title>
<path fill="none" stroke="#56d863" stroke-width="2" d="M573,-252C573,-252 467,-252 467,-252 461,-252 455,-246 455,-240 455,-240 455,-228 455,-228 455,-222 461,-216 467,-216 467,-216 573,-216 573,-216 579,-216 585,-222 585,-228 585,-228 585,-240 585,-240 585,-246 579,-252 573,-252"/>
<text text-anchor="middle" x="520" y="-231.5" font-family="sans" font-size="10.00">qiime2_validate_metadata</text>
</g>
<!-- 12&#45;&gt;11 -->
<g id="edge22" class="edge">
<title>12&#45;&gt;11</title>
<path fill="none" stroke="grey" stroke-width="2" d="M517.09,-215.02C513.29,-191.54 506.57,-150.11 501.96,-121.64"/>
<polygon fill="grey" stroke="grey" stroke-width="2" points="505.43,-121.14 500.37,-111.83 498.52,-122.26 505.43,-121.14"/>
</g>
<!-- 13 -->
<g id="node14" class="node">
<title>13</title>
<path fill="none" stroke="#56d8b1" stroke-width="2" d="M656.5,-324C656.5,-324 537.5,-324 537.5,-324 531.5,-324 525.5,-318 525.5,-312 525.5,-312 525.5,-300 525.5,-300 525.5,-294 531.5,-288 537.5,-288 537.5,-288 656.5,-288 656.5,-288 662.5,-288 668.5,-294 668.5,-300 668.5,-300 668.5,-312 668.5,-312 668.5,-318 662.5,-324 656.5,-324"/>
<text text-anchor="middle" x="597" y="-303.5" font-family="sans" font-size="10.00">import_qiime2_mapping_files</text>
</g>
<!-- 13&#45;&gt;12 -->
<g id="edge23" class="edge">
<title>13&#45;&gt;12</title>
<path fill="none" stroke="grey" stroke-width="2" d="M577.57,-287.34C568.97,-279.52 558.68,-270.16 549.19,-261.53"/>
<polygon fill="grey" stroke="grey" stroke-width="2" points="551.69,-259.07 541.93,-254.94 546.98,-264.25 551.69,-259.07"/>
</g>
<!-- 15 -->
<g id="node16" class="node">
<title>15</title>
<path fill="none" stroke="#b6d856" stroke-width="2" d="M727,-252C727,-252 615,-252 615,-252 609,-252 603,-246 603,-240 603,-240 603,-228 603,-228 603,-222 609,-216 615,-216 615,-216 727,-216 727,-216 733,-216 739,-222 739,-228 739,-228 739,-240 739,-240 739,-246 733,-252 727,-252"/>
<text text-anchor="middle" x="671" y="-231.5" font-family="sans" font-size="10.00">qiime2_import_paired_fastq</text>
</g>
<!-- 13&#45;&gt;15 -->
<g id="edge25" class="edge">
<title>13&#45;&gt;15</title>
<path fill="none" stroke="grey" stroke-width="2" d="M615.67,-287.34C623.85,-279.6 633.62,-270.36 642.66,-261.81"/>
<polygon fill="grey" stroke="grey" stroke-width="2" points="645.02,-264.4 649.88,-254.98 640.21,-259.31 645.02,-264.4"/>
</g>
<!-- 14 -->
<g id="node15" class="node">
<title>14</title>
<path fill="none" stroke="#56d8c9" stroke-width="2" d="M701.5,-180C701.5,-180 640.5,-180 640.5,-180 634.5,-180 628.5,-174 628.5,-168 628.5,-168 628.5,-156 628.5,-156 628.5,-150 634.5,-144 640.5,-144 640.5,-144 701.5,-144 701.5,-144 707.5,-144 713.5,-150 713.5,-156 713.5,-156 713.5,-168 713.5,-168 713.5,-174 707.5,-180 701.5,-180"/>
<text text-anchor="middle" x="671" y="-159.5" font-family="sans" font-size="10.00">qiime2_read_qc</text>
</g>
<!-- 14&#45;&gt;11 -->
<g id="edge21" class="edge">
<title>14&#45;&gt;11</title>
<path fill="none" stroke="grey" stroke-width="2" d="M627.54,-143.52C605.15,-134.51 577.58,-123.42 553.55,-113.75"/>
<polygon fill="grey" stroke="grey" stroke-width="2" points="555.11,-110.61 544.53,-110.12 552.5,-117.1 555.11,-110.61"/>
</g>
<!-- 16 -->
<g id="node17" class="node">
<title>16</title>
<path fill="none" stroke="#61d856" stroke-width="2" d="M830,-108C830,-108 738,-108 738,-108 732,-108 726,-102 726,-96 726,-96 726,-84 726,-84 726,-78 732,-72 738,-72 738,-72 830,-72 830,-72 836,-72 842,-78 842,-84 842,-84 842,-96 842,-96 842,-102 836,-108 830,-108"/>
<text text-anchor="middle" x="784" y="-87.5" font-family="sans" font-size="10.00">qiime2_denovo_cluster</text>
</g>
<!-- 14&#45;&gt;16 -->
<g id="edge26" class="edge">
<title>14&#45;&gt;16</title>
<path fill="none" stroke="grey" stroke-width="2" d="M699.81,-143.15C713.35,-134.76 729.72,-124.62 744.41,-115.52"/>
<polygon fill="grey" stroke="grey" stroke-width="2" points="746.01,-118.65 752.67,-110.41 742.33,-112.7 746.01,-118.65"/>
</g>
<!-- 17 -->
<g id="node18" class="node">
<title>17</title>
<path fill="none" stroke="#d89556" stroke-width="2" d="M973.5,-108C973.5,-108 872.5,-108 872.5,-108 866.5,-108 860.5,-102 860.5,-96 860.5,-96 860.5,-84 860.5,-84 860.5,-78 866.5,-72 872.5,-72 872.5,-72 973.5,-72 973.5,-72 979.5,-72 985.5,-78 985.5,-84 985.5,-84 985.5,-96 985.5,-96 985.5,-102 979.5,-108 973.5,-108"/>
<text text-anchor="middle" x="923" y="-87.5" font-family="sans" font-size="10.00">qiime2_closedref_cluster</text>
</g>
<!-- 14&#45;&gt;17 -->
<g id="edge27" class="edge">
<title>14&#45;&gt;17</title>
<path fill="none" stroke="grey" stroke-width="2" d="M714.32,-148.97C750.9,-138.81 804.13,-124.02 847.67,-111.92"/>
<polygon fill="grey" stroke="grey" stroke-width="2" points="848.35,-115.37 857.05,-109.32 846.48,-108.62 848.35,-115.37"/>
</g>
<!-- 18 -->
<g id="node19" class="node">
<title>18</title>
<path fill="none" stroke="#d86e56" stroke-width="2" d="M695.5,-108C695.5,-108 602.5,-108 602.5,-108 596.5,-108 590.5,-102 590.5,-96 590.5,-96 590.5,-84 590.5,-84 590.5,-78 596.5,-72 602.5,-72 602.5,-72 695.5,-72 695.5,-72 701.5,-72 707.5,-78 707.5,-84 707.5,-84 707.5,-96 707.5,-96 707.5,-102 701.5,-108 695.5,-108"/>
<text text-anchor="middle" x="649" y="-87.5" font-family="sans" font-size="10.00">qiime2_openref_cluster</text>
</g>
<!-- 14&#45;&gt;18 -->
<g id="edge28" class="edge">
<title>14&#45;&gt;18</title>
<path fill="none" stroke="grey" stroke-width="2" d="M665.45,-143.34C663.33,-136.59 660.85,-128.69 658.46,-121.11"/>
<polygon fill="grey" stroke="grey" stroke-width="2" points="661.87,-120.28 655.53,-111.79 655.19,-122.38 661.87,-120.28"/>
</g>
<!-- 15&#45;&gt;14 -->
<g id="edge24" class="edge">
<title>15&#45;&gt;14</title>
<path fill="none" stroke="grey" stroke-width="2" d="M671,-215.34C671,-208.75 671,-201.08 671,-193.67"/>
<polygon fill="grey" stroke="grey" stroke-width="2" points="674.5,-193.93 671,-183.93 667.5,-193.93 674.5,-193.93"/>
</g>
<!-- 16&#45;&gt;0 -->
<g id="edge9" class="edge">
<title>16&#45;&gt;0</title>
<path fill="none" stroke="grey" stroke-width="2" d="M725.11,-73.89C722.04,-73.22 718.98,-72.59 716,-72 598.47,-48.86 457.87,-31.3 390.23,-23.48"/>
<polygon fill="grey" stroke="grey" stroke-width="2" points="391.05,-20.05 380.72,-22.39 390.25,-27 391.05,-20.05"/>
</g>
<!-- 17&#45;&gt;0 -->
<g id="edge7" class="edge">
<title>17&#45;&gt;0</title>
<path fill="none" stroke="grey" stroke-width="2" d="M859.88,-73.62C856.88,-73.04 853.91,-72.5 851,-72 681.35,-43.12 476.52,-27.32 390.81,-21.56"/>
<polygon fill="grey" stroke="grey" stroke-width="2" points="391.1,-18.07 380.89,-20.91 390.64,-25.06 391.1,-18.07"/>
</g>
<!-- 18&#45;&gt;0 -->
<g id="edge6" class="edge">
<title>18&#45;&gt;0</title>
<path fill="none" stroke="grey" stroke-width="2" d="M589.68,-74.1C586.75,-73.38 583.84,-72.68 581,-72 514.36,-56.03 436.65,-38.4 390.48,-28.04"/>
<polygon fill="grey" stroke="grey" stroke-width="2" points="391.25,-24.62 380.73,-25.85 389.72,-31.45 391.25,-24.62"/>
</g>
<!-- 19 -->
<g id="node20" class="node">
<title>19</title>
<path fill="none" stroke="#9fd856" stroke-width="2" d="M1114,-108C1114,-108 1016,-108 1016,-108 1010,-108 1004,-102 1004,-96 1004,-96 1004,-84 1004,-84 1004,-78 1010,-72 1016,-72 1016,-72 1114,-72 1114,-72 1120,-72 1126,-78 1126,-84 1126,-84 1126,-96 1126,-96 1126,-102 1120,-108 1114,-108"/>
<text text-anchor="middle" x="1065" y="-87.5" font-family="sans" font-size="10.00">deploy_to_github_pages</text>
</g>
<!-- 19&#45;&gt;0 -->
<g id="edge2" class="edge">
<title>19&#45;&gt;0</title>
<path fill="none" stroke="grey" stroke-width="2" d="M1003.27,-73.45C1000.48,-72.93 997.72,-72.44 995,-72 768.59,-35.44 493.18,-23.49 390.84,-20.14"/>
<polygon fill="grey" stroke="grey" stroke-width="2" points="390.98,-16.65 380.87,-19.83 390.76,-23.64 390.98,-16.65"/>
</g>
</g>
</svg>
