<?xml version="1.0" encoding="UTF-8" standalone="no"?>
<!DOCTYPE svg PUBLIC "-//W3C//DTD SVG 1.1//EN"
 "http://www.w3.org/Graphics/SVG/1.1/DTD/svg11.dtd">
<!-- Generated by graphviz version 7.1.0 (0)
 -->
<!-- Title: snakemake_dag Pages: 1 -->
<svg width="961pt" height="476pt"
 viewBox="0.00 0.00 960.50 476.00" xmlns="http://www.w3.org/2000/svg" xmlns:xlink="http://www.w3.org/1999/xlink">
<g id="graph0" class="graph" transform="scale(1 1) rotate(0) translate(4 472)">
<title>snakemake_dag</title>
<polygon fill="white" stroke="none" points="-4,4 -4,-472 956.5,-472 956.5,4 -4,4"/>
<!-- 0 -->
<g id="node1" class="node">
<title>0</title>
<path fill="none" stroke="#80d856" stroke-width="2" d="M450,-36C450,-36 420,-36 420,-36 414,-36 408,-30 408,-24 408,-24 408,-12 408,-12 408,-6 414,0 420,0 420,0 450,0 450,0 456,0 462,-6 462,-12 462,-12 462,-24 462,-24 462,-30 456,-36 450,-36"/>
<text text-anchor="middle" x="435" y="-15.5" font-family="sans" font-size="10.00">all</text>
</g>
<!-- 1 -->
<g id="node2" class="node">
<title>1</title>
<path fill="none" stroke="#b6d856" stroke-width="2" d="M124,-468C124,-468 12,-468 12,-468 6,-468 0,-462 0,-456 0,-456 0,-444 0,-444 0,-438 6,-432 12,-432 12,-432 124,-432 124,-432 130,-432 136,-438 136,-444 136,-444 136,-456 136,-456 136,-462 130,-468 124,-468"/>
<text text-anchor="middle" x="68" y="-447.5" font-family="sans" font-size="10.00">auto_mothur_mapping_files</text>
</g>
<!-- 1&#45;&gt;0 -->
<g id="edge6" class="edge">
<title>1&#45;&gt;0</title>
<path fill="none" stroke="grey" stroke-width="2" d="M58.88,-431.14C46.26,-404.73 25,-353.36 25,-307 25,-307 25,-307 25,-161 25,-118.66 25.89,-98.39 59,-72 110.13,-31.24 307.82,-21.83 394.21,-19.65"/>
<polygon fill="grey" stroke="grey" stroke-width="2" points="394.14,-23.15 404.05,-19.43 393.98,-16.16 394.14,-23.15"/>
</g>
<!-- 4 -->
<g id="node5" class="node">
<title>4</title>
<path fill="none" stroke="#56d863" stroke-width="2" d="M362.5,-396C362.5,-396 247.5,-396 247.5,-396 241.5,-396 235.5,-390 235.5,-384 235.5,-384 235.5,-372 235.5,-372 235.5,-366 241.5,-360 247.5,-360 247.5,-360 362.5,-360 362.5,-360 368.5,-360 374.5,-366 374.5,-372 374.5,-372 374.5,-384 374.5,-384 374.5,-390 368.5,-396 362.5,-396"/>
<text text-anchor="middle" x="305" y="-375.5" font-family="sans" font-size="10.00">mothur_process_sequences</text>
</g>
<!-- 1&#45;&gt;4 -->
<g id="edge15" class="edge">
<title>1&#45;&gt;4</title>
<path fill="none" stroke="grey" stroke-width="2" d="M128.73,-431.06C160.22,-421.76 198.93,-410.33 232.04,-400.55"/>
<polygon fill="grey" stroke="grey" stroke-width="2" points="232.93,-403.94 241.53,-397.75 230.95,-397.22 232.93,-403.94"/>
</g>
<!-- 2 -->
<g id="node3" class="node">
<title>2</title>
<path fill="none" stroke="#56c1d8" stroke-width="2" d="M761,-468C761,-468 669,-468 669,-468 663,-468 657,-462 657,-456 657,-456 657,-444 657,-444 657,-438 663,-432 669,-432 669,-432 761,-432 761,-432 767,-432 773,-438 773,-444 773,-444 773,-456 773,-456 773,-462 767,-468 761,-468"/>
<text text-anchor="middle" x="715" y="-447.5" font-family="sans" font-size="10.00">get_mothur_references</text>
</g>
<!-- 2&#45;&gt;0 -->
<g id="edge7" class="edge">
<title>2&#45;&gt;0</title>
<path fill="none" stroke="grey" stroke-width="2" d="M739.43,-431.09C769.61,-406.7 817,-359.97 817,-307 817,-307 817,-307 817,-161 817,-100.5 768.47,-98.32 714,-72 635.26,-33.95 531.69,-23.18 475.5,-20.16"/>
<polygon fill="grey" stroke="grey" stroke-width="2" points="475.79,-16.67 465.64,-19.7 475.46,-23.66 475.79,-16.67"/>
</g>
<!-- 3 -->
<g id="node4" class="node">
<title>3</title>
<path fill="none" stroke="#d8ac56" stroke-width="2" d="M765,-324C765,-324 665,-324 665,-324 659,-324 653,-318 653,-312 653,-312 653,-300 653,-300 653,-294 659,-288 665,-288 665,-288 765,-288 765,-288 771,-288 777,-294 777,-300 777,-300 777,-312 777,-312 777,-318 771,-324 765,-324"/>
<text text-anchor="middle" x="715" y="-303.5" font-family="sans" font-size="10.00">get_mothur_zymo_mock</text>
</g>
<!-- 2&#45;&gt;3 -->
<g id="edge14" class="edge">
<title>2&#45;&gt;3</title>
<path fill="none" stroke="grey" stroke-width="2" d="M715,-431.02C715,-407.54 715,-366.11 715,-337.64"/>
<polygon fill="grey" stroke="grey" stroke-width="2" points="718.5,-337.87 715,-327.87 711.5,-337.87 718.5,-337.87"/>
</g>
<!-- 2&#45;&gt;4 -->
<g id="edge16" class="edge">
<title>2&#45;&gt;4</title>
<path fill="none" stroke="grey" stroke-width="2" d="M656.26,-438.97C585.85,-426.95 467.41,-406.73 387.75,-393.13"/>
<polygon fill="grey" stroke="grey" stroke-width="2" points="388.75,-389.75 378.3,-391.51 387.57,-396.65 388.75,-389.75"/>
</g>
<!-- 3&#45;&gt;0 -->
<g id="edge9" class="edge">
<title>3&#45;&gt;0</title>
<path fill="none" stroke="grey" stroke-width="2" d="M735.85,-287.06C745.15,-277.68 755.09,-265.37 760,-252 765.52,-236.98 762.26,-231.84 760,-216 749.58,-143.09 741.12,-109.95 678,-72 614.44,-33.79 526.79,-22.99 475.98,-20.03"/>
<polygon fill="grey" stroke="grey" stroke-width="2" points="476.16,-16.53 466,-19.54 475.82,-23.52 476.16,-16.53"/>
</g>
<!-- 11 -->
<g id="node12" class="node">
<title>11</title>
<path fill="none" stroke="#d87556" stroke-width="2" d="M738.5,-252C738.5,-252 669.5,-252 669.5,-252 663.5,-252 657.5,-246 657.5,-240 657.5,-240 657.5,-228 657.5,-228 657.5,-222 663.5,-216 669.5,-216 669.5,-216 738.5,-216 738.5,-216 744.5,-216 750.5,-222 750.5,-228 750.5,-228 750.5,-240 750.5,-240 750.5,-246 744.5,-252 738.5,-252"/>
<text text-anchor="middle" x="704" y="-231.5" font-family="sans" font-size="10.00">mothur_error_rate</text>
</g>
<!-- 3&#45;&gt;11 -->
<g id="edge23" class="edge">
<title>3&#45;&gt;11</title>
<path fill="none" stroke="grey" stroke-width="2" d="M712.22,-287.34C711.19,-280.75 709.98,-273.08 708.82,-265.67"/>
<polygon fill="grey" stroke="grey" stroke-width="2" points="712.29,-265.23 707.28,-255.89 705.38,-266.31 712.29,-265.23"/>
</g>
<!-- 4&#45;&gt;0 -->
<g id="edge8" class="edge">
<title>4&#45;&gt;0</title>
<path fill="none" stroke="grey" stroke-width="2" d="M234.68,-366.33C163.23,-351.02 63,-315.25 63,-235 63,-235 63,-235 63,-161 63,-120.55 52.54,-99.71 82,-72 126.42,-30.22 311.15,-21.36 394.22,-19.49"/>
<polygon fill="grey" stroke="grey" stroke-width="2" points="394.15,-22.99 404.08,-19.3 394.01,-15.99 394.15,-22.99"/>
</g>
<!-- 6 -->
<g id="node7" class="node">
<title>6</title>
<path fill="none" stroke="#97d856" stroke-width="2" d="M405,-324C405,-324 283,-324 283,-324 277,-324 271,-318 271,-312 271,-312 271,-300 271,-300 271,-294 277,-288 283,-288 283,-288 405,-288 405,-288 411,-288 417,-294 417,-300 417,-300 417,-312 417,-312 417,-318 411,-324 405,-324"/>
<text text-anchor="middle" x="344" y="-303.5" font-family="sans" font-size="10.00">mothur_final_processed_seqs</text>
</g>
<!-- 4&#45;&gt;6 -->
<g id="edge18" class="edge">
<title>4&#45;&gt;6</title>
<path fill="none" stroke="grey" stroke-width="2" d="M314.84,-359.34C318.74,-352.34 323.32,-344.12 327.69,-336.28"/>
<polygon fill="grey" stroke="grey" stroke-width="2" points="330.74,-337.99 332.55,-327.55 324.63,-334.58 330.74,-337.99"/>
</g>
<!-- 5 -->
<g id="node6" class="node">
<title>5</title>
<path fill="none" stroke="#568ad8" stroke-width="2" d="M365,-468C365,-468 245,-468 245,-468 239,-468 233,-462 233,-456 233,-456 233,-444 233,-444 233,-438 239,-432 245,-432 245,-432 365,-432 365,-432 371,-432 377,-438 377,-444 377,-444 377,-456 377,-456 377,-462 371,-468 365,-468"/>
<text text-anchor="middle" x="305" y="-447.5" font-family="sans" font-size="10.00">import_mothur_mapping_files</text>
</g>
<!-- 5&#45;&gt;4 -->
<g id="edge17" class="edge">
<title>5&#45;&gt;4</title>
<path fill="none" stroke="grey" stroke-width="2" d="M305,-431.34C305,-424.75 305,-417.08 305,-409.67"/>
<polygon fill="grey" stroke="grey" stroke-width="2" points="308.5,-409.93 305,-399.93 301.5,-409.93 308.5,-409.93"/>
</g>
<!-- 6&#45;&gt;0 -->
<g id="edge10" class="edge">
<title>6&#45;&gt;0</title>
<path fill="none" stroke="grey" stroke-width="2" d="M312.22,-287.2C299.75,-278.38 286.81,-266.49 280,-252 259.57,-208.56 271.44,-191.23 280,-144 286.1,-110.37 283.25,-96.57 307,-72 330.45,-47.74 366.64,-34.15 394.56,-26.83"/>
<polygon fill="grey" stroke="grey" stroke-width="2" points="395.28,-30.26 404.18,-24.51 393.64,-23.45 395.28,-30.26"/>
</g>
<!-- 7 -->
<g id="node8" class="node">
<title>7</title>
<path fill="none" stroke="#5673d8" stroke-width="2" d="M387,-252C387,-252 301,-252 301,-252 295,-252 289,-246 289,-240 289,-240 289,-228 289,-228 289,-222 295,-216 301,-216 301,-216 387,-216 387,-216 393,-216 399,-222 399,-228 399,-228 399,-240 399,-240 399,-246 393,-252 387,-252"/>
<text text-anchor="middle" x="344" y="-231.5" font-family="sans" font-size="10.00">mothur_classify_otus</text>
</g>
<!-- 6&#45;&gt;7 -->
<g id="edge19" class="edge">
<title>6&#45;&gt;7</title>
<path fill="none" stroke="grey" stroke-width="2" d="M344,-287.34C344,-280.75 344,-273.08 344,-265.67"/>
<polygon fill="grey" stroke="grey" stroke-width="2" points="347.5,-265.93 344,-255.93 340.5,-265.93 347.5,-265.93"/>
</g>
<!-- 8 -->
<g id="node9" class="node">
<title>8</title>
<path fill="none" stroke="#56a9d8" stroke-width="2" d="M570.5,-180C570.5,-180 461.5,-180 461.5,-180 455.5,-180 449.5,-174 449.5,-168 449.5,-168 449.5,-156 449.5,-156 449.5,-150 455.5,-144 461.5,-144 461.5,-144 570.5,-144 570.5,-144 576.5,-144 582.5,-150 582.5,-156 582.5,-156 582.5,-168 582.5,-168 582.5,-174 576.5,-180 570.5,-180"/>
<text text-anchor="middle" x="516" y="-159.5" font-family="sans" font-size="10.00">mothur_classify_phylotype</text>
</g>
<!-- 6&#45;&gt;8 -->
<g id="edge20" class="edge">
<title>6&#45;&gt;8</title>
<path fill="none" stroke="grey" stroke-width="2" d="M365.78,-287.02C395.77,-262.26 449.95,-217.53 484.39,-189.1"/>
<polygon fill="grey" stroke="grey" stroke-width="2" points="486.58,-191.83 492.06,-182.77 482.12,-186.43 486.58,-191.83"/>
</g>
<!-- 9 -->
<g id="node10" class="node">
<title>9</title>
<path fill="none" stroke="#61d856" stroke-width="2" d="M701,-180C701,-180 613,-180 613,-180 607,-180 601,-174 601,-168 601,-168 601,-156 601,-156 601,-150 607,-144 613,-144 613,-144 701,-144 701,-144 707,-144 713,-150 713,-156 713,-156 713,-168 713,-168 713,-174 707,-180 701,-180"/>
<text text-anchor="middle" x="657" y="-159.5" font-family="sans" font-size="10.00">mothur_classify_asvs</text>
</g>
<!-- 6&#45;&gt;9 -->
<g id="edge21" class="edge">
<title>6&#45;&gt;9</title>
<path fill="none" stroke="grey" stroke-width="2" d="M383.64,-287.02C440.09,-261.41 543.65,-214.43 605.82,-186.22"/>
<polygon fill="grey" stroke="grey" stroke-width="2" points="607.26,-189.41 614.92,-182.09 604.37,-183.03 607.26,-189.41"/>
</g>
<!-- 10 -->
<g id="node11" class="node">
<title>10</title>
<path fill="none" stroke="#d85656" stroke-width="2" d="M214.5,-108C214.5,-108 103.5,-108 103.5,-108 97.5,-108 91.5,-102 91.5,-96 91.5,-96 91.5,-84 91.5,-84 91.5,-78 97.5,-72 103.5,-72 103.5,-72 214.5,-72 214.5,-72 220.5,-72 226.5,-78 226.5,-84 226.5,-84 226.5,-96 226.5,-96 226.5,-102 220.5,-108 214.5,-108"/>
<text text-anchor="middle" x="159" y="-87.5" font-family="sans" font-size="10.00">mothur_classify_phylogeny</text>
</g>
<!-- 6&#45;&gt;10 -->
<g id="edge22" class="edge">
<title>6&#45;&gt;10</title>
<path fill="none" stroke="grey" stroke-width="2" d="M272.74,-287.09C252.59,-279.12 232.07,-267.84 217,-252 182.47,-215.71 168.26,-157.38 162.59,-121.78"/>
<polygon fill="grey" stroke="grey" stroke-width="2" points="166.06,-121.32 161.18,-111.91 159.13,-122.31 166.06,-121.32"/>
</g>
<!-- 6&#45;&gt;11 -->
<g id="edge24" class="edge">
<title>6&#45;&gt;11</title>
<path fill="none" stroke="grey" stroke-width="2" d="M417.72,-290.67C484.55,-277.67 581.84,-258.75 644.02,-246.66"/>
<polygon fill="grey" stroke="grey" stroke-width="2" points="644.61,-250.11 653.76,-244.77 643.28,-243.24 644.61,-250.11"/>
</g>
<!-- 7&#45;&gt;0 -->
<g id="edge13" class="edge">
<title>7&#45;&gt;0</title>
<path fill="none" stroke="grey" stroke-width="2" d="M316.99,-215.11C305.8,-206.06 294.03,-194.02 288,-180 281.67,-165.3 281.93,-158.8 288,-144 308.13,-94.92 359.61,-58.73 395.95,-38.26"/>
<polygon fill="grey" stroke="grey" stroke-width="2" points="397.38,-41.47 404.49,-33.62 394.04,-35.31 397.38,-41.47"/>
</g>
<!-- 12 -->
<g id="node13" class="node">
<title>12</title>
<path fill="none" stroke="#56d89a" stroke-width="2" d="M419,-180C419,-180 309,-180 309,-180 303,-180 297,-174 297,-168 297,-168 297,-156 297,-156 297,-150 303,-144 309,-144 309,-144 419,-144 419,-144 425,-144 431,-150 431,-156 431,-156 431,-168 431,-168 431,-174 425,-180 419,-180"/>
<text text-anchor="middle" x="364" y="-159.5" font-family="sans" font-size="10.00">mothur_split_group_shared</text>
</g>
<!-- 7&#45;&gt;12 -->
<g id="edge25" class="edge">
<title>7&#45;&gt;12</title>
<path fill="none" stroke="grey" stroke-width="2" d="M349.05,-215.34C350.95,-208.67 353.18,-200.89 355.32,-193.39"/>
<polygon fill="grey" stroke="grey" stroke-width="2" points="358.67,-194.39 358.05,-183.81 351.94,-192.47 358.67,-194.39"/>
</g>
<!-- 8&#45;&gt;0 -->
<g id="edge11" class="edge">
<title>8&#45;&gt;0</title>
<path fill="none" stroke="grey" stroke-width="2" d="M515.51,-143.06C514.27,-124.16 510.17,-94.13 497,-72 490.83,-61.63 481.9,-52.3 472.73,-44.45"/>
<polygon fill="grey" stroke="grey" stroke-width="2" points="475.18,-41.93 465.18,-38.44 470.82,-47.4 475.18,-41.93"/>
</g>
<!-- 9&#45;&gt;0 -->
<g id="edge5" class="edge">
<title>9&#45;&gt;0</title>
<path fill="none" stroke="grey" stroke-width="2" d="M629.05,-143.09C600.99,-125.11 556.51,-96.62 518,-72 503.45,-62.7 487.46,-52.49 473.44,-43.53"/>
<polygon fill="grey" stroke="grey" stroke-width="2" points="475.54,-40.72 465.22,-38.29 471.77,-46.62 475.54,-40.72"/>
</g>
<!-- 10&#45;&gt;0 -->
<g id="edge3" class="edge">
<title>10&#45;&gt;0</title>
<path fill="none" stroke="grey" stroke-width="2" d="M227.22,-71.7C279.85,-58.35 350.85,-40.34 394.74,-29.21"/>
<polygon fill="grey" stroke="grey" stroke-width="2" points="395.41,-32.65 404.24,-26.8 393.69,-25.87 395.41,-32.65"/>
</g>
<!-- 11&#45;&gt;0 -->
<g id="edge4" class="edge">
<title>11&#45;&gt;0</title>
<path fill="none" stroke="grey" stroke-width="2" d="M714.78,-215.17C724.77,-196.08 736.14,-165.65 722,-144 666.79,-59.46 540.56,-31.79 475.47,-22.97"/>
<polygon fill="grey" stroke="grey" stroke-width="2" points="475.91,-19.5 465.56,-21.74 475.05,-26.45 475.91,-19.5"/>
</g>
<!-- 12&#45;&gt;0 -->
<g id="edge12" class="edge">
<title>12&#45;&gt;0</title>
<path fill="none" stroke="grey" stroke-width="2" d="M362.05,-143.18C360.82,-124.38 361.26,-94.43 373,-72 378.69,-61.13 387.63,-51.54 396.97,-43.62"/>
<polygon fill="grey" stroke="grey" stroke-width="2" points="399.01,-46.47 404.74,-37.56 394.71,-40.95 399.01,-46.47"/>
</g>
<!-- 13 -->
<g id="node14" class="node">
<title>13</title>
<path fill="none" stroke="#56d8b9" stroke-width="2" d="M476,-108C476,-108 394,-108 394,-108 388,-108 382,-102 382,-96 382,-96 382,-84 382,-84 382,-78 388,-72 394,-72 394,-72 476,-72 476,-72 482,-72 488,-78 488,-84 488,-84 488,-96 488,-96 488,-102 482,-108 476,-108"/>
<text text-anchor="middle" x="435" y="-87.5" font-family="sans" font-size="10.00">alpha_beta_diversity</text>
</g>
<!-- 12&#45;&gt;13 -->
<g id="edge26" class="edge">
<title>12&#45;&gt;13</title>
<path fill="none" stroke="grey" stroke-width="2" d="M381.92,-143.34C389.76,-135.6 399.14,-126.36 407.81,-117.81"/>
<polygon fill="grey" stroke="grey" stroke-width="2" points="410.02,-120.54 414.69,-111.03 405.11,-115.56 410.02,-120.54"/>
</g>
<!-- 13&#45;&gt;0 -->
<g id="edge1" class="edge">
<title>13&#45;&gt;0</title>
<path fill="none" stroke="grey" stroke-width="2" d="M435,-71.34C435,-64.75 435,-57.08 435,-49.67"/>
<polygon fill="grey" stroke="grey" stroke-width="2" points="438.5,-49.93 435,-39.93 431.5,-49.93 438.5,-49.93"/>
</g>
<!-- 14 -->
<g id="node15" class="node">
<title>14</title>
<path fill="none" stroke="#d8c356" stroke-width="2" d="M940.5,-108C940.5,-108 857.5,-108 857.5,-108 851.5,-108 845.5,-102 845.5,-96 845.5,-96 845.5,-84 845.5,-84 845.5,-78 851.5,-72 857.5,-72 857.5,-72 940.5,-72 940.5,-72 946.5,-72 952.5,-78 952.5,-84 952.5,-84 952.5,-96 952.5,-96 952.5,-102 946.5,-108 940.5,-108"/>
<text text-anchor="middle" x="899" y="-87.5" font-family="sans" font-size="10.00">get_files4smk_report</text>
</g>
<!-- 14&#45;&gt;0 -->
<g id="edge2" class="edge">
<title>14&#45;&gt;0</title>
<path fill="none" stroke="grey" stroke-width="2" d="M844.56,-74.82C839.99,-73.8 835.42,-72.85 831,-72 702.03,-47.33 547.27,-30.16 475.37,-22.89"/>
<polygon fill="grey" stroke="grey" stroke-width="2" points="475.85,-19.42 465.55,-21.91 475.15,-26.39 475.85,-19.42"/>
</g>
</g>
</svg>
