<?xml version="1.0" encoding="UTF-8" standalone="no"?>
<!DOCTYPE svg PUBLIC "-//W3C//DTD SVG 1.1//EN"
 "http://www.w3.org/Graphics/SVG/1.1/DTD/svg11.dtd">
<!-- Generated by graphviz version 6.0.1 (0)
 -->
<!-- Title: snakemake_dag Pages: 1 -->
<svg width="693pt" height="404pt"
 viewBox="0.00 0.00 693.00 404.00" xmlns="http://www.w3.org/2000/svg" xmlns:xlink="http://www.w3.org/1999/xlink">
<g id="graph0" class="graph" transform="scale(1 1) rotate(0) translate(4 400)">
<title>snakemake_dag</title>
<polygon fill="white" stroke="none" points="-4,4 -4,-400 689,-400 689,4 -4,4"/>
<!-- 0 -->
<g id="node1" class="node">
<title>0</title>
<path fill="none" stroke="#56d86b" stroke-width="2" d="M274.5,-36C274.5,-36 244.5,-36 244.5,-36 238.5,-36 232.5,-30 232.5,-24 232.5,-24 232.5,-12 232.5,-12 232.5,-6 238.5,0 244.5,0 244.5,0 274.5,0 274.5,0 280.5,0 286.5,-6 286.5,-12 286.5,-12 286.5,-24 286.5,-24 286.5,-30 280.5,-36 274.5,-36"/>
<text text-anchor="middle" x="259.5" y="-15.5" font-family="sans" font-size="10.00">all</text>
</g>
<!-- 1 -->
<g id="node2" class="node">
<title>1</title>
<path fill="none" stroke="#56d8a9" stroke-width="2" d="M113,-252C113,-252 12,-252 12,-252 6,-252 0,-246 0,-240 0,-240 0,-228 0,-228 0,-222 6,-216 12,-216 12,-216 113,-216 113,-216 119,-216 125,-222 125,-228 125,-228 125,-240 125,-240 125,-246 119,-252 113,-252"/>
<text text-anchor="middle" x="62.5" y="-231.5" font-family="sans" font-size="10.00">samples_units_metadata</text>
</g>
<!-- 1&#45;&gt;0 -->
<g id="edge5" class="edge">
<title>1&#45;&gt;0</title>
<path fill="none" stroke="grey" stroke-width="2" d="M66.4,-215.6C74.47,-183.25 95.95,-113.37 138.5,-72 161.73,-49.42 196.16,-35.62 222.36,-27.79"/>
<polygon fill="grey" stroke="grey" stroke-width="2" points="223.64,-31.06 232.31,-24.98 221.74,-24.33 223.64,-31.06"/>
</g>
<!-- 2 -->
<g id="node3" class="node">
<title>2</title>
<path fill="none" stroke="#afd856" stroke-width="2" d="M143.5,-396C143.5,-396 55.5,-396 55.5,-396 49.5,-396 43.5,-390 43.5,-384 43.5,-384 43.5,-372 43.5,-372 43.5,-366 49.5,-360 55.5,-360 55.5,-360 143.5,-360 143.5,-360 149.5,-360 155.5,-366 155.5,-372 155.5,-372 155.5,-384 155.5,-384 155.5,-390 149.5,-396 143.5,-396"/>
<text text-anchor="middle" x="99.5" y="-375.5" font-family="sans" font-size="10.00">get_bioinfo_resources</text>
</g>
<!-- 2&#45;&gt;1 -->
<g id="edge9" class="edge">
<title>2&#45;&gt;1</title>
<path fill="none" stroke="grey" stroke-width="2" d="M93.15,-359.97C89.45,-349.66 84.86,-336.18 81.5,-324 75.87,-303.57 70.92,-280.11 67.49,-262.4"/>
<polygon fill="grey" stroke="grey" stroke-width="2" points="70.86,-261.38 65.55,-252.21 63.98,-262.68 70.86,-261.38"/>
</g>
<!-- 4 -->
<g id="node5" class="node">
<title>4</title>
<path fill="none" stroke="#ced856" stroke-width="2" d="M172,-324C172,-324 103,-324 103,-324 97,-324 91,-318 91,-312 91,-312 91,-300 91,-300 91,-294 97,-288 103,-288 103,-288 172,-288 172,-288 178,-288 184,-294 184,-300 184,-300 184,-312 184,-312 184,-318 178,-324 172,-324"/>
<text text-anchor="middle" x="137.5" y="-303.5" font-family="sans" font-size="10.00">makeMappingFile</text>
</g>
<!-- 2&#45;&gt;4 -->
<g id="edge12" class="edge">
<title>2&#45;&gt;4</title>
<path fill="none" stroke="grey" stroke-width="2" d="M108.89,-359.7C113.26,-351.64 118.56,-341.89 123.4,-332.98"/>
<polygon fill="grey" stroke="grey" stroke-width="2" points="126.52,-334.56 128.21,-324.1 120.37,-331.22 126.52,-334.56"/>
</g>
<!-- 3 -->
<g id="node4" class="node">
<title>3</title>
<path fill="none" stroke="#d85656" stroke-width="2" d="M227,-252C227,-252 162,-252 162,-252 156,-252 150,-246 150,-240 150,-240 150,-228 150,-228 150,-222 156,-216 162,-216 162,-216 227,-216 227,-216 233,-216 239,-222 239,-228 239,-228 239,-240 239,-240 239,-246 233,-252 227,-252"/>
<text text-anchor="middle" x="194.5" y="-231.5" font-family="sans" font-size="10.00">make16SShared</text>
</g>
<!-- 3&#45;&gt;0 -->
<g id="edge1" class="edge">
<title>3&#45;&gt;0</title>
<path fill="none" stroke="grey" stroke-width="2" d="M171.2,-215.82C160.6,-206.54 149.18,-194.09 143.5,-180 135.6,-160.4 142.97,-81.49 149.5,-72 166.29,-47.59 197.53,-34.04 222.44,-26.76"/>
<polygon fill="grey" stroke="grey" stroke-width="2" points="223.57,-30.08 232.32,-24.1 221.75,-23.32 223.57,-30.08"/>
</g>
<!-- 6 -->
<g id="node7" class="node">
<title>6</title>
<path fill="none" stroke="#567bd8" stroke-width="2" d="M224,-180C224,-180 165,-180 165,-180 159,-180 153,-174 153,-168 153,-168 153,-156 153,-156 153,-150 159,-144 165,-144 165,-144 224,-144 224,-144 230,-144 236,-150 236,-156 236,-156 236,-168 236,-168 236,-174 230,-180 224,-180"/>
<text text-anchor="middle" x="194.5" y="-159.5" font-family="sans" font-size="10.00">split16SShared</text>
</g>
<!-- 3&#45;&gt;6 -->
<g id="edge13" class="edge">
<title>3&#45;&gt;6</title>
<path fill="none" stroke="grey" stroke-width="2" d="M194.5,-215.7C194.5,-207.98 194.5,-198.71 194.5,-190.11"/>
<polygon fill="grey" stroke="grey" stroke-width="2" points="198,-190.1 194.5,-180.1 191,-190.1 198,-190.1"/>
</g>
<!-- 8 -->
<g id="node9" class="node">
<title>8</title>
<path fill="none" stroke="#56d88a" stroke-width="2" d="M318,-180C318,-180 269,-180 269,-180 263,-180 257,-174 257,-168 257,-168 257,-156 257,-156 257,-150 263,-144 269,-144 269,-144 318,-144 318,-144 324,-144 330,-150 330,-156 330,-156 330,-168 330,-168 330,-174 324,-180 318,-180"/>
<text text-anchor="middle" x="293.5" y="-159.5" font-family="sans" font-size="10.00">calc16SError</text>
</g>
<!-- 3&#45;&gt;8 -->
<g id="edge15" class="edge">
<title>3&#45;&gt;8</title>
<path fill="none" stroke="grey" stroke-width="2" d="M218.72,-215.88C231.42,-206.89 247.16,-195.76 260.92,-186.03"/>
<polygon fill="grey" stroke="grey" stroke-width="2" points="263.04,-188.82 269.19,-180.19 259,-183.11 263.04,-188.82"/>
</g>
<!-- 4&#45;&gt;3 -->
<g id="edge10" class="edge">
<title>4&#45;&gt;3</title>
<path fill="none" stroke="grey" stroke-width="2" d="M151.59,-287.7C158.42,-279.3 166.76,-269.07 174.26,-259.86"/>
<polygon fill="grey" stroke="grey" stroke-width="2" points="176.97,-262.07 180.57,-252.1 171.54,-257.65 176.97,-262.07"/>
</g>
<!-- 5 -->
<g id="node6" class="node">
<title>5</title>
<path fill="none" stroke="#d87556" stroke-width="2" d="M288.5,-324C288.5,-324 214.5,-324 214.5,-324 208.5,-324 202.5,-318 202.5,-312 202.5,-312 202.5,-300 202.5,-300 202.5,-294 208.5,-288 214.5,-288 214.5,-288 288.5,-288 288.5,-288 294.5,-288 300.5,-294 300.5,-300 300.5,-300 300.5,-312 300.5,-312 300.5,-318 294.5,-324 288.5,-324"/>
<text text-anchor="middle" x="251.5" y="-303.5" font-family="sans" font-size="10.00">mothur_references</text>
</g>
<!-- 5&#45;&gt;3 -->
<g id="edge11" class="edge">
<title>5&#45;&gt;3</title>
<path fill="none" stroke="grey" stroke-width="2" d="M237.41,-287.7C230.58,-279.3 222.24,-269.07 214.74,-259.86"/>
<polygon fill="grey" stroke="grey" stroke-width="2" points="217.46,-257.65 208.43,-252.1 212.03,-262.07 217.46,-257.65"/>
</g>
<!-- 6&#45;&gt;0 -->
<g id="edge8" class="edge">
<title>6&#45;&gt;0</title>
<path fill="none" stroke="grey" stroke-width="2" d="M178.08,-143.87C162.45,-125.38 143.25,-95.46 157.5,-72 171.58,-48.82 199.45,-35.32 222.51,-27.75"/>
<polygon fill="grey" stroke="grey" stroke-width="2" points="223.81,-31.01 232.37,-24.76 221.78,-24.31 223.81,-31.01"/>
</g>
<!-- 7 -->
<g id="node8" class="node">
<title>7</title>
<path fill="none" stroke="#88d856" stroke-width="2" d="M260.5,-108C260.5,-108 178.5,-108 178.5,-108 172.5,-108 166.5,-102 166.5,-96 166.5,-96 166.5,-84 166.5,-84 166.5,-78 172.5,-72 178.5,-72 178.5,-72 260.5,-72 260.5,-72 266.5,-72 272.5,-78 272.5,-84 272.5,-84 272.5,-96 272.5,-96 272.5,-102 266.5,-108 260.5,-108"/>
<text text-anchor="middle" x="219.5" y="-87.5" font-family="sans" font-size="10.00">alpha_beta_diversity</text>
</g>
<!-- 6&#45;&gt;7 -->
<g id="edge14" class="edge">
<title>6&#45;&gt;7</title>
<path fill="none" stroke="grey" stroke-width="2" d="M200.68,-143.7C203.5,-135.81 206.89,-126.3 210.02,-117.55"/>
<polygon fill="grey" stroke="grey" stroke-width="2" points="213.32,-118.7 213.39,-108.1 206.73,-116.34 213.32,-118.7"/>
</g>
<!-- 7&#45;&gt;0 -->
<g id="edge3" class="edge">
<title>7&#45;&gt;0</title>
<path fill="none" stroke="grey" stroke-width="2" d="M229.39,-71.7C233.99,-63.64 239.56,-53.89 244.65,-44.98"/>
<polygon fill="grey" stroke="grey" stroke-width="2" points="247.8,-46.52 249.73,-36.1 241.73,-43.05 247.8,-46.52"/>
</g>
<!-- 8&#45;&gt;0 -->
<g id="edge4" class="edge">
<title>8&#45;&gt;0</title>
<path fill="none" stroke="grey" stroke-width="2" d="M292.5,-143.68C291.14,-125.55 288.08,-96.38 281.5,-72 279.11,-63.15 275.6,-53.82 272.08,-45.49"/>
<polygon fill="grey" stroke="grey" stroke-width="2" points="275.25,-44 268.01,-36.27 268.84,-46.83 275.25,-44"/>
</g>
<!-- 9 -->
<g id="node10" class="node">
<title>9</title>
<path fill="none" stroke="#569ad8" stroke-width="2" d="M438.5,-108C438.5,-108 340.5,-108 340.5,-108 334.5,-108 328.5,-102 328.5,-96 328.5,-96 328.5,-84 328.5,-84 328.5,-78 334.5,-72 340.5,-72 340.5,-72 438.5,-72 438.5,-72 444.5,-72 450.5,-78 450.5,-84 450.5,-84 450.5,-96 450.5,-96 450.5,-102 444.5,-108 438.5,-108"/>
<text text-anchor="middle" x="389.5" y="-87.5" font-family="sans" font-size="10.00">deploy_to_github_pages</text>
</g>
<!-- 9&#45;&gt;0 -->
<g id="edge7" class="edge">
<title>9&#45;&gt;0</title>
<path fill="none" stroke="grey" stroke-width="2" d="M357.7,-71.88C338.88,-61.74 314.99,-48.88 295.48,-38.37"/>
<polygon fill="grey" stroke="grey" stroke-width="2" points="297.04,-35.24 286.58,-33.58 293.73,-41.4 297.04,-35.24"/>
</g>
<!-- 10 -->
<g id="node11" class="node">
<title>10</title>
<path fill="none" stroke="#68d856" stroke-width="2" d="M413,-180C413,-180 362,-180 362,-180 356,-180 350,-174 350,-168 350,-168 350,-156 350,-156 350,-150 356,-144 362,-144 362,-144 413,-144 413,-144 419,-144 425,-150 425,-156 425,-156 425,-168 425,-168 425,-174 419,-180 413,-180"/>
<text text-anchor="middle" x="387.5" y="-159.5" font-family="sans" font-size="10.00">dot_rulegraph</text>
</g>
<!-- 10&#45;&gt;9 -->
<g id="edge17" class="edge">
<title>10&#45;&gt;9</title>
<path fill="none" stroke="grey" stroke-width="2" d="M387.99,-143.7C388.21,-135.98 388.48,-126.71 388.73,-118.11"/>
<polygon fill="grey" stroke="grey" stroke-width="2" points="392.22,-118.2 389.01,-108.1 385.23,-118 392.22,-118.2"/>
</g>
<!-- 11 -->
<g id="node12" class="node">
<title>11</title>
<path fill="none" stroke="#56c1d8" stroke-width="2" d="M499.5,-180C499.5,-180 455.5,-180 455.5,-180 449.5,-180 443.5,-174 443.5,-168 443.5,-168 443.5,-156 443.5,-156 443.5,-150 449.5,-144 455.5,-144 455.5,-144 499.5,-144 499.5,-144 505.5,-144 511.5,-150 511.5,-156 511.5,-156 511.5,-168 511.5,-168 511.5,-174 505.5,-180 499.5,-180"/>
<text text-anchor="middle" x="477.5" y="-159.5" font-family="sans" font-size="10.00">project_tree</text>
</g>
<!-- 11&#45;&gt;9 -->
<g id="edge16" class="edge">
<title>11&#45;&gt;9</title>
<path fill="none" stroke="grey" stroke-width="2" d="M455.75,-143.7C444.66,-134.88 431.03,-124.03 419.01,-114.47"/>
<polygon fill="grey" stroke="grey" stroke-width="2" points="421.01,-111.59 411,-108.1 416.65,-117.07 421.01,-111.59"/>
</g>
<!-- 12 -->
<g id="node13" class="node">
<title>12</title>
<path fill="none" stroke="#56d8d0" stroke-width="2" d="M578,-108C578,-108 481,-108 481,-108 475,-108 469,-102 469,-96 469,-96 469,-84 469,-84 469,-78 475,-72 481,-72 481,-72 578,-72 578,-72 584,-72 590,-78 590,-84 590,-84 590,-96 590,-96 590,-102 584,-108 578,-108"/>
<text text-anchor="middle" x="529.5" y="-87.5" font-family="sans" font-size="10.00">snakemake_html_report</text>
</g>
<!-- 12&#45;&gt;0 -->
<g id="edge6" class="edge">
<title>12&#45;&gt;0</title>
<path fill="none" stroke="grey" stroke-width="2" d="M468.91,-73.29C415.97,-59.57 340.83,-40.09 296.43,-28.58"/>
<polygon fill="grey" stroke="grey" stroke-width="2" points="297.2,-25.16 286.64,-26.04 295.44,-31.93 297.2,-25.16"/>
</g>
<!-- 13 -->
<g id="node14" class="node">
<title>13</title>
<path fill="none" stroke="#d89c56" stroke-width="2" d="M673,-108C673,-108 620,-108 620,-108 614,-108 608,-102 608,-96 608,-96 608,-84 608,-84 608,-78 614,-72 620,-72 620,-72 673,-72 673,-72 679,-72 685,-78 685,-84 685,-84 685,-96 685,-96 685,-102 679,-108 673,-108"/>
<text text-anchor="middle" x="646.5" y="-87.5" font-family="sans" font-size="10.00">get_final_files</text>
</g>
<!-- 13&#45;&gt;0 -->
<g id="edge2" class="edge">
<title>13&#45;&gt;0</title>
<path fill="none" stroke="grey" stroke-width="2" d="M607.96,-74.39C605.11,-73.52 602.27,-72.71 599.5,-72 491.46,-44.31 360.17,-28.82 297,-22.46"/>
<polygon fill="grey" stroke="grey" stroke-width="2" points="297.04,-18.95 286.74,-21.45 296.35,-25.92 297.04,-18.95"/>
</g>
</g>
</svg>
