<?xml version="1.0" encoding="UTF-8" standalone="no"?>
<!DOCTYPE svg PUBLIC "-//W3C//DTD SVG 1.1//EN"
 "http://www.w3.org/Graphics/SVG/1.1/DTD/svg11.dtd">
<!-- Generated by graphviz version 6.0.1 (0)
 -->
<!-- Title: snakemake_dag Pages: 1 -->
<svg width="641pt" height="332pt"
 viewBox="0.00 0.00 641.09 332.00" xmlns="http://www.w3.org/2000/svg" xmlns:xlink="http://www.w3.org/1999/xlink">
<g id="graph0" class="graph" transform="scale(1 1) rotate(0) translate(4 328)">
<title>snakemake_dag</title>
<polygon fill="white" stroke="none" points="-4,4 -4,-328 637.09,-328 637.09,4 -4,4"/>
<!-- 0 -->
<g id="node1" class="node">
<title>0</title>
<path fill="none" stroke="#d8c356" stroke-width="2" d="M265.09,-36C265.09,-36 235.09,-36 235.09,-36 229.09,-36 223.09,-30 223.09,-24 223.09,-24 223.09,-12 223.09,-12 223.09,-6 229.09,0 235.09,0 235.09,0 265.09,0 265.09,0 271.09,0 277.09,-6 277.09,-12 277.09,-12 277.09,-24 277.09,-24 277.09,-30 271.09,-36 265.09,-36"/>
<text text-anchor="middle" x="250.09" y="-15.5" font-family="sans" font-size="10.00">all</text>
</g>
<!-- 1 -->
<g id="node2" class="node">
<title>1</title>
<path fill="none" stroke="#c6d856" stroke-width="2" d="M307.59,-252C307.59,-252 192.59,-252 192.59,-252 186.59,-252 180.59,-246 180.59,-240 180.59,-240 180.59,-228 180.59,-228 180.59,-222 186.59,-216 192.59,-216 192.59,-216 307.59,-216 307.59,-216 313.59,-216 319.59,-222 319.59,-228 319.59,-228 319.59,-240 319.59,-240 319.59,-246 313.59,-252 307.59,-252"/>
<text text-anchor="middle" x="250.09" y="-231.5" font-family="sans" font-size="10.00">mothur_process_sequences</text>
</g>
<!-- 1&#45;&gt;0 -->
<g id="edge3" class="edge">
<title>1&#45;&gt;0</title>
<path fill="none" stroke="grey" stroke-width="2" d="M180.46,-226.94C118.24,-219.91 33.78,-205.83 13.09,-180 -49.39,-102 132.17,-47.27 213.21,-27.32"/>
<polygon fill="grey" stroke="grey" stroke-width="2" points="214.12,-30.7 223.03,-24.96 212.48,-23.9 214.12,-30.7"/>
</g>
<!-- 4 -->
<g id="node5" class="node">
<title>4</title>
<path fill="none" stroke="#9fd856" stroke-width="2" d="M464.09,-180C464.09,-180 356.09,-180 356.09,-180 350.09,-180 344.09,-174 344.09,-168 344.09,-168 344.09,-156 344.09,-156 344.09,-150 350.09,-144 356.09,-144 356.09,-144 464.09,-144 464.09,-144 470.09,-144 476.09,-150 476.09,-156 476.09,-156 476.09,-168 476.09,-168 476.09,-174 470.09,-180 464.09,-180"/>
<text text-anchor="middle" x="410.09" y="-159.5" font-family="sans" font-size="10.00">mothur_calculate_errorrate</text>
</g>
<!-- 1&#45;&gt;4 -->
<g id="edge10" class="edge">
<title>1&#45;&gt;4</title>
<path fill="none" stroke="grey" stroke-width="2" d="M289.23,-215.88C311.11,-206.31 338.55,-194.3 361.75,-184.15"/>
<polygon fill="grey" stroke="grey" stroke-width="2" points="363.32,-187.28 371.08,-180.07 360.51,-180.87 363.32,-187.28"/>
</g>
<!-- 6 -->
<g id="node7" class="node">
<title>6</title>
<path fill="none" stroke="#56c9d8" stroke-width="2" d="M144.09,-180C144.09,-180 34.09,-180 34.09,-180 28.09,-180 22.09,-174 22.09,-168 22.09,-168 22.09,-156 22.09,-156 22.09,-150 28.09,-144 34.09,-144 34.09,-144 144.09,-144 144.09,-144 150.09,-144 156.09,-150 156.09,-156 156.09,-156 156.09,-168 156.09,-168 156.09,-174 150.09,-180 144.09,-180"/>
<text text-anchor="middle" x="89.09" y="-159.5" font-family="sans" font-size="10.00">remove_intermedeate_files</text>
</g>
<!-- 1&#45;&gt;6 -->
<g id="edge13" class="edge">
<title>1&#45;&gt;6</title>
<path fill="none" stroke="grey" stroke-width="2" d="M210.71,-215.88C188.7,-206.31 161.08,-194.3 137.73,-184.15"/>
<polygon fill="grey" stroke="grey" stroke-width="2" points="138.92,-180.85 128.35,-180.07 136.12,-187.27 138.92,-180.85"/>
</g>
<!-- 8 -->
<g id="node9" class="node">
<title>8</title>
<path fill="none" stroke="#567bd8" stroke-width="2" d="M314.09,-180C314.09,-180 186.09,-180 186.09,-180 180.09,-180 174.09,-174 174.09,-168 174.09,-168 174.09,-156 174.09,-156 174.09,-150 180.09,-144 186.09,-144 186.09,-144 314.09,-144 314.09,-144 320.09,-144 326.09,-150 326.09,-156 326.09,-156 326.09,-168 326.09,-168 326.09,-174 320.09,-180 314.09,-180"/>
<text text-anchor="middle" x="250.09" y="-159.5" font-family="sans" font-size="10.00">samples_mock_control_shared</text>
</g>
<!-- 1&#45;&gt;8 -->
<g id="edge14" class="edge">
<title>1&#45;&gt;8</title>
<path fill="none" stroke="grey" stroke-width="2" d="M250.09,-215.7C250.09,-207.98 250.09,-198.71 250.09,-190.11"/>
<polygon fill="grey" stroke="grey" stroke-width="2" points="253.59,-190.1 250.09,-180.1 246.59,-190.1 253.59,-190.1"/>
</g>
<!-- 2 -->
<g id="node3" class="node">
<title>2</title>
<path fill="none" stroke="#56d8a2" stroke-width="2" d="M291.09,-324C291.09,-324 209.09,-324 209.09,-324 203.09,-324 197.09,-318 197.09,-312 197.09,-312 197.09,-300 197.09,-300 197.09,-294 203.09,-288 209.09,-288 209.09,-288 291.09,-288 291.09,-288 297.09,-288 303.09,-294 303.09,-300 303.09,-300 303.09,-312 303.09,-312 303.09,-318 297.09,-324 291.09,-324"/>
<text text-anchor="middle" x="250.09" y="-303.5" font-family="sans" font-size="10.00">make_mapping_files</text>
</g>
<!-- 2&#45;&gt;1 -->
<g id="edge9" class="edge">
<title>2&#45;&gt;1</title>
<path fill="none" stroke="grey" stroke-width="2" d="M250.09,-287.7C250.09,-279.98 250.09,-270.71 250.09,-262.11"/>
<polygon fill="grey" stroke="grey" stroke-width="2" points="253.59,-262.1 250.09,-252.1 246.59,-262.1 253.59,-262.1"/>
</g>
<!-- 3 -->
<g id="node4" class="node">
<title>3</title>
<path fill="none" stroke="#56d87b" stroke-width="2" d="M435.09,-324C435.09,-324 343.09,-324 343.09,-324 337.09,-324 331.09,-318 331.09,-312 331.09,-312 331.09,-300 331.09,-300 331.09,-294 337.09,-288 343.09,-288 343.09,-288 435.09,-288 435.09,-288 441.09,-288 447.09,-294 447.09,-300 447.09,-300 447.09,-312 447.09,-312 447.09,-318 441.09,-324 435.09,-324"/>
<text text-anchor="middle" x="389.09" y="-303.5" font-family="sans" font-size="10.00">get_mothur_references</text>
</g>
<!-- 3&#45;&gt;1 -->
<g id="edge8" class="edge">
<title>3&#45;&gt;1</title>
<path fill="none" stroke="grey" stroke-width="2" d="M355.09,-287.88C336.49,-278.51 313.26,-266.81 293.39,-256.8"/>
<polygon fill="grey" stroke="grey" stroke-width="2" points="294.73,-253.56 284.23,-252.19 291.58,-259.81 294.73,-253.56"/>
</g>
<!-- 5 -->
<g id="node6" class="node">
<title>5</title>
<path fill="none" stroke="#78d856" stroke-width="2" d="M455.09,-252C455.09,-252 355.09,-252 355.09,-252 349.09,-252 343.09,-246 343.09,-240 343.09,-240 343.09,-228 343.09,-228 343.09,-222 349.09,-216 355.09,-216 355.09,-216 455.09,-216 455.09,-216 461.09,-216 467.09,-222 467.09,-228 467.09,-228 467.09,-240 467.09,-240 467.09,-246 461.09,-252 455.09,-252"/>
<text text-anchor="middle" x="405.09" y="-231.5" font-family="sans" font-size="10.00">get_mothur_zymo_mock</text>
</g>
<!-- 3&#45;&gt;5 -->
<g id="edge12" class="edge">
<title>3&#45;&gt;5</title>
<path fill="none" stroke="grey" stroke-width="2" d="M393.05,-287.7C394.81,-279.98 396.93,-270.71 398.9,-262.11"/>
<polygon fill="grey" stroke="grey" stroke-width="2" points="402.37,-262.63 401.18,-252.1 395.54,-261.07 402.37,-262.63"/>
</g>
<!-- 4&#45;&gt;0 -->
<g id="edge4" class="edge">
<title>4&#45;&gt;0</title>
<path fill="none" stroke="grey" stroke-width="2" d="M390.48,-143.98C378.69,-133.67 363.42,-120.2 350.09,-108 332.93,-92.3 329.38,-87.56 312.09,-72 301.27,-62.26 289.14,-51.8 278.5,-42.76"/>
<polygon fill="grey" stroke="grey" stroke-width="2" points="280.6,-39.95 270.7,-36.17 276.08,-45.3 280.6,-39.95"/>
</g>
<!-- 5&#45;&gt;4 -->
<g id="edge11" class="edge">
<title>5&#45;&gt;4</title>
<path fill="none" stroke="grey" stroke-width="2" d="M406.33,-215.7C406.88,-207.98 407.54,-198.71 408.16,-190.11"/>
<polygon fill="grey" stroke="grey" stroke-width="2" points="411.65,-190.33 408.87,-180.1 404.67,-189.83 411.65,-190.33"/>
</g>
<!-- 6&#45;&gt;0 -->
<g id="edge6" class="edge">
<title>6&#45;&gt;0</title>
<path fill="none" stroke="grey" stroke-width="2" d="M105.02,-143.89C122.52,-125.42 151.77,-95.51 179.09,-72 191.12,-61.65 204.99,-51.03 217.26,-42.04"/>
<polygon fill="grey" stroke="grey" stroke-width="2" points="219.41,-44.81 225.46,-36.1 215.3,-39.14 219.41,-44.81"/>
</g>
<!-- 7 -->
<g id="node8" class="node">
<title>7</title>
<path fill="none" stroke="#d8a456" stroke-width="2" d="M481.09,-108C481.09,-108 371.09,-108 371.09,-108 365.09,-108 359.09,-102 359.09,-96 359.09,-96 359.09,-84 359.09,-84 359.09,-78 365.09,-72 371.09,-72 371.09,-72 481.09,-72 481.09,-72 487.09,-72 493.09,-78 493.09,-84 493.09,-84 493.09,-96 493.09,-96 493.09,-102 487.09,-108 481.09,-108"/>
<text text-anchor="middle" x="426.09" y="-87.5" font-family="sans" font-size="10.00">gather_informative_images</text>
</g>
<!-- 7&#45;&gt;0 -->
<g id="edge2" class="edge">
<title>7&#45;&gt;0</title>
<path fill="none" stroke="grey" stroke-width="2" d="M383.04,-71.88C353.45,-60.11 314.6,-44.66 286.55,-33.5"/>
<polygon fill="grey" stroke="grey" stroke-width="2" points="287.69,-30.19 277.11,-29.74 285.1,-36.69 287.69,-30.19"/>
</g>
<!-- 8&#45;&gt;0 -->
<g id="edge7" class="edge">
<title>8&#45;&gt;0</title>
<path fill="none" stroke="grey" stroke-width="2" d="M220.59,-143.94C208.11,-134.99 194.91,-122.79 188.09,-108 181.4,-93.47 181.4,-86.53 188.09,-72 193.85,-59.5 204.18,-48.85 214.77,-40.44"/>
<polygon fill="grey" stroke="grey" stroke-width="2" points="216.9,-43.23 222.86,-34.46 212.74,-37.6 216.9,-43.23"/>
</g>
<!-- 9 -->
<g id="node10" class="node">
<title>9</title>
<path fill="none" stroke="#59d856" stroke-width="2" d="M291.09,-108C291.09,-108 209.09,-108 209.09,-108 203.09,-108 197.09,-102 197.09,-96 197.09,-96 197.09,-84 197.09,-84 197.09,-78 203.09,-72 209.09,-72 209.09,-72 291.09,-72 291.09,-72 297.09,-72 303.09,-78 303.09,-84 303.09,-84 303.09,-96 303.09,-96 303.09,-102 297.09,-108 291.09,-108"/>
<text text-anchor="middle" x="250.09" y="-87.5" font-family="sans" font-size="10.00">alpha_beta_diversity</text>
</g>
<!-- 8&#45;&gt;9 -->
<g id="edge15" class="edge">
<title>8&#45;&gt;9</title>
<path fill="none" stroke="grey" stroke-width="2" d="M250.09,-143.7C250.09,-135.98 250.09,-126.71 250.09,-118.11"/>
<polygon fill="grey" stroke="grey" stroke-width="2" points="253.59,-118.1 250.09,-108.1 246.59,-118.1 253.59,-118.1"/>
</g>
<!-- 9&#45;&gt;0 -->
<g id="edge5" class="edge">
<title>9&#45;&gt;0</title>
<path fill="none" stroke="grey" stroke-width="2" d="M250.09,-71.7C250.09,-63.98 250.09,-54.71 250.09,-46.11"/>
<polygon fill="grey" stroke="grey" stroke-width="2" points="253.59,-46.1 250.09,-36.1 246.59,-46.1 253.59,-46.1"/>
</g>
<!-- 10 -->
<g id="node11" class="node">
<title>10</title>
<path fill="none" stroke="#d87d56" stroke-width="2" d="M621.09,-108C621.09,-108 523.09,-108 523.09,-108 517.09,-108 511.09,-102 511.09,-96 511.09,-96 511.09,-84 511.09,-84 511.09,-78 517.09,-72 523.09,-72 523.09,-72 621.09,-72 621.09,-72 627.09,-72 633.09,-78 633.09,-84 633.09,-84 633.09,-96 633.09,-96 633.09,-102 627.09,-108 621.09,-108"/>
<text text-anchor="middle" x="572.09" y="-87.5" font-family="sans" font-size="10.00">deploy_to_github_pages</text>
</g>
<!-- 10&#45;&gt;0 -->
<g id="edge1" class="edge">
<title>10&#45;&gt;0</title>
<path fill="none" stroke="grey" stroke-width="2" d="M511.03,-74.05C508.01,-73.35 505.02,-72.66 502.09,-72 425.97,-54.76 336.47,-36.38 287.25,-26.44"/>
<polygon fill="grey" stroke="grey" stroke-width="2" points="287.87,-22.99 277.37,-24.45 286.49,-29.86 287.87,-22.99"/>
</g>
</g>
</svg>
