<?xml version="1.0" encoding="UTF-8" standalone="no"?>
<!DOCTYPE svg PUBLIC "-//W3C//DTD SVG 1.1//EN"
 "http://www.w3.org/Graphics/SVG/1.1/DTD/svg11.dtd">
<!-- Generated by graphviz version 6.0.1 (0)
 -->
<!-- Title: snakemake_dag Pages: 1 -->
<svg width="853pt" height="836pt"
 viewBox="0.00 0.00 853.00 836.00" xmlns="http://www.w3.org/2000/svg" xmlns:xlink="http://www.w3.org/1999/xlink">
<g id="graph0" class="graph" transform="scale(1 1) rotate(0) translate(4 832)">
<title>snakemake_dag</title>
<polygon fill="white" stroke="none" points="-4,4 -4,-832 849,-832 849,4 -4,4"/>
<!-- 0 -->
<g id="node1" class="node">
<title>0</title>
<path fill="none" stroke="#d85656" stroke-width="2" d="M413,-36C413,-36 383,-36 383,-36 377,-36 371,-30 371,-24 371,-24 371,-12 371,-12 371,-6 377,0 383,0 383,0 413,0 413,0 419,0 425,-6 425,-12 425,-12 425,-24 425,-24 425,-30 419,-36 413,-36"/>
<text text-anchor="middle" x="398" y="-15.5" font-family="sans" font-size="10.00">all</text>
</g>
<!-- 1 -->
<g id="node2" class="node">
<title>1</title>
<path fill="none" stroke="#d87d56" stroke-width="2" d="M64,-180C64,-180 12,-180 12,-180 6,-180 0,-174 0,-168 0,-168 0,-156 0,-156 0,-150 6,-144 12,-144 12,-144 64,-144 64,-144 70,-144 76,-150 76,-156 76,-156 76,-168 76,-168 76,-174 70,-180 64,-180"/>
<text text-anchor="middle" x="38" y="-159.5" font-family="sans" font-size="10.00">get_metadata</text>
</g>
<!-- 1&#45;&gt;0 -->
<g id="edge6" class="edge">
<title>1&#45;&gt;0</title>
<path fill="none" stroke="grey" stroke-width="2" d="M28.64,-143.69C19.37,-123.93 8.83,-91.78 26,-72 69.14,-22.27 275.49,-18.01 360.88,-18.44"/>
<polygon fill="grey" stroke="grey" stroke-width="2" points="360.88,-21.94 370.91,-18.51 360.94,-14.94 360.88,-21.94"/>
</g>
<!-- 2 -->
<g id="node3" class="node">
<title>2</title>
<path fill="none" stroke="#568ad8" stroke-width="2" d="M91,-108C91,-108 47,-108 47,-108 41,-108 35,-102 35,-96 35,-96 35,-84 35,-84 35,-78 41,-72 47,-72 47,-72 91,-72 91,-72 97,-72 103,-78 103,-84 103,-84 103,-96 103,-96 103,-102 97,-108 91,-108"/>
<text text-anchor="middle" x="69" y="-87.5" font-family="sans" font-size="10.00">plot_varfreq</text>
</g>
<!-- 1&#45;&gt;2 -->
<g id="edge14" class="edge">
<title>1&#45;&gt;2</title>
<path fill="none" stroke="grey" stroke-width="2" d="M45.66,-143.7C49.19,-135.73 53.46,-126.1 57.37,-117.26"/>
<polygon fill="grey" stroke="grey" stroke-width="2" points="60.58,-118.67 61.43,-108.1 54.18,-115.83 60.58,-118.67"/>
</g>
<!-- 2&#45;&gt;0 -->
<g id="edge9" class="edge">
<title>2&#45;&gt;0</title>
<path fill="none" stroke="grey" stroke-width="2" d="M103.06,-74.85C106.06,-73.81 109.07,-72.84 112,-72 199.54,-46.84 305.71,-30.82 360.79,-23.56"/>
<polygon fill="grey" stroke="grey" stroke-width="2" points="361.32,-27.02 370.78,-22.26 360.42,-20.07 361.32,-27.02"/>
</g>
<!-- 3 -->
<g id="node4" class="node">
<title>3</title>
<path fill="none" stroke="#d6d856" stroke-width="2" d="M163,-108C163,-108 133,-108 133,-108 127,-108 121,-102 121,-96 121,-96 121,-84 121,-84 121,-78 127,-72 133,-72 133,-72 163,-72 163,-72 169,-72 175,-78 175,-84 175,-84 175,-96 175,-96 175,-102 169,-108 163,-108"/>
<text text-anchor="middle" x="148" y="-87.5" font-family="sans" font-size="10.00">multiqc</text>
</g>
<!-- 3&#45;&gt;0 -->
<g id="edge11" class="edge">
<title>3&#45;&gt;0</title>
<path fill="none" stroke="grey" stroke-width="2" d="M175.28,-75.43C178.19,-74.19 181.13,-73.02 184,-72 244.46,-50.48 317.53,-34.41 360.75,-25.89"/>
<polygon fill="grey" stroke="grey" stroke-width="2" points="361.66,-29.28 370.81,-23.93 360.32,-22.41 361.66,-29.28"/>
</g>
<!-- 4 -->
<g id="node5" class="node">
<title>4</title>
<path fill="none" stroke="#d8a456" stroke-width="2" d="M235,-108C235,-108 205,-108 205,-108 199,-108 193,-102 193,-96 193,-96 193,-84 193,-84 193,-78 199,-72 205,-72 205,-72 235,-72 235,-72 241,-72 247,-78 247,-84 247,-84 247,-96 247,-96 247,-102 241,-108 235,-108"/>
<text text-anchor="middle" x="220" y="-87.5" font-family="sans" font-size="10.00">seqkit</text>
</g>
<!-- 4&#45;&gt;0 -->
<g id="edge8" class="edge">
<title>4&#45;&gt;0</title>
<path fill="none" stroke="grey" stroke-width="2" d="M247.31,-77.57C251.87,-75.69 256.57,-73.78 261,-72 294.84,-58.44 333.6,-43.5 361.24,-32.95"/>
<polygon fill="grey" stroke="grey" stroke-width="2" points="362.79,-36.1 370.89,-29.27 360.3,-29.56 362.79,-36.1"/>
</g>
<!-- 5 -->
<g id="node6" class="node">
<title>5</title>
<path fill="none" stroke="#56d88a" stroke-width="2" d="M301.5,-324C301.5,-324 248.5,-324 248.5,-324 242.5,-324 236.5,-318 236.5,-312 236.5,-312 236.5,-300 236.5,-300 236.5,-294 242.5,-288 248.5,-288 248.5,-288 301.5,-288 301.5,-288 307.5,-288 313.5,-294 313.5,-300 313.5,-300 313.5,-312 313.5,-312 313.5,-318 307.5,-324 301.5,-324"/>
<text text-anchor="middle" x="275" y="-303.5" font-family="sans" font-size="10.00">final_otu_files</text>
</g>
<!-- 5&#45;&gt;0 -->
<g id="edge1" class="edge">
<title>5&#45;&gt;0</title>
<path fill="none" stroke="grey" stroke-width="2" d="M274.53,-287.91C274.22,-247.09 278.25,-142.1 324,-72 333.35,-57.67 348.03,-45.98 361.86,-37.26"/>
<polygon fill="grey" stroke="grey" stroke-width="2" points="363.96,-40.09 370.76,-31.96 360.38,-34.07 363.96,-40.09"/>
</g>
<!-- 20 -->
<g id="node21" class="node">
<title>20</title>
<path fill="none" stroke="#b6d856" stroke-width="2" d="M387,-252C387,-252 315,-252 315,-252 309,-252 303,-246 303,-240 303,-240 303,-228 303,-228 303,-222 309,-216 315,-216 315,-216 387,-216 387,-216 393,-216 399,-222 399,-228 399,-228 399,-240 399,-240 399,-246 393,-252 387,-252"/>
<text text-anchor="middle" x="351" y="-231.5" font-family="sans" font-size="10.00">otutable_by_group</text>
</g>
<!-- 5&#45;&gt;20 -->
<g id="edge32" class="edge">
<title>5&#45;&gt;20</title>
<path fill="none" stroke="grey" stroke-width="2" d="M293.79,-287.7C303.17,-279.05 314.68,-268.45 324.91,-259.03"/>
<polygon fill="grey" stroke="grey" stroke-width="2" points="327.45,-261.45 332.43,-252.1 322.7,-256.3 327.45,-261.45"/>
</g>
<!-- 6 -->
<g id="node7" class="node">
<title>6</title>
<path fill="none" stroke="#68d856" stroke-width="2" d="M298,-396C298,-396 242,-396 242,-396 236,-396 230,-390 230,-384 230,-384 230,-372 230,-372 230,-366 236,-360 242,-360 242,-360 298,-360 298,-360 304,-360 310,-366 310,-372 310,-372 310,-384 310,-384 310,-390 304,-396 298,-396"/>
<text text-anchor="middle" x="270" y="-375.5" font-family="sans" font-size="10.00">classify_otu97</text>
</g>
<!-- 6&#45;&gt;5 -->
<g id="edge15" class="edge">
<title>6&#45;&gt;5</title>
<path fill="none" stroke="grey" stroke-width="2" d="M271.24,-359.7C271.79,-351.98 272.45,-342.71 273.06,-334.11"/>
<polygon fill="grey" stroke="grey" stroke-width="2" points="276.56,-334.33 273.78,-324.1 269.57,-333.83 276.56,-334.33"/>
</g>
<!-- 7 -->
<g id="node8" class="node">
<title>7</title>
<path fill="none" stroke="#d88d56" stroke-width="2" d="M295.5,-468C295.5,-468 244.5,-468 244.5,-468 238.5,-468 232.5,-462 232.5,-456 232.5,-456 232.5,-444 232.5,-444 232.5,-438 238.5,-432 244.5,-432 244.5,-432 295.5,-432 295.5,-432 301.5,-432 307.5,-438 307.5,-444 307.5,-444 307.5,-456 307.5,-456 307.5,-462 301.5,-468 295.5,-468"/>
<text text-anchor="middle" x="270" y="-447.5" font-family="sans" font-size="10.00">cluster_otu97</text>
</g>
<!-- 7&#45;&gt;6 -->
<g id="edge16" class="edge">
<title>7&#45;&gt;6</title>
<path fill="none" stroke="grey" stroke-width="2" d="M270,-431.7C270,-423.98 270,-414.71 270,-406.11"/>
<polygon fill="grey" stroke="grey" stroke-width="2" points="273.5,-406.1 270,-396.1 266.5,-406.1 273.5,-406.1"/>
</g>
<!-- 8 -->
<g id="node9" class="node">
<title>8</title>
<path fill="none" stroke="#78d856" stroke-width="2" d="M355.5,-540C355.5,-540 272.5,-540 272.5,-540 266.5,-540 260.5,-534 260.5,-528 260.5,-528 260.5,-516 260.5,-516 260.5,-510 266.5,-504 272.5,-504 272.5,-504 355.5,-504 355.5,-504 361.5,-504 367.5,-510 367.5,-516 367.5,-516 367.5,-528 367.5,-528 367.5,-534 361.5,-540 355.5,-540"/>
<text text-anchor="middle" x="314" y="-519.5" font-family="sans" font-size="10.00">compute_seqdist003</text>
</g>
<!-- 8&#45;&gt;7 -->
<g id="edge18" class="edge">
<title>8&#45;&gt;7</title>
<path fill="none" stroke="grey" stroke-width="2" d="M303.12,-503.7C298.01,-495.56 291.8,-485.69 286.16,-476.7"/>
<polygon fill="grey" stroke="grey" stroke-width="2" points="289.04,-474.71 280.75,-468.1 283.11,-478.43 289.04,-474.71"/>
</g>
<!-- 9 -->
<g id="node10" class="node">
<title>9</title>
<path fill="none" stroke="#56d86b" stroke-width="2" d="M417,-612C417,-612 331,-612 331,-612 325,-612 319,-606 319,-600 319,-600 319,-588 319,-588 319,-582 325,-576 331,-576 331,-576 417,-576 417,-576 423,-576 429,-582 429,-588 429,-588 429,-600 429,-600 429,-606 423,-612 417,-612"/>
<text text-anchor="middle" x="374" y="-591.5" font-family="sans" font-size="10.00">denoise_n_classify80</text>
</g>
<!-- 9&#45;&gt;6 -->
<g id="edge17" class="edge">
<title>9&#45;&gt;6</title>
<path fill="none" stroke="grey" stroke-width="2" d="M318.9,-583.31C291.84,-575.83 260.87,-562.74 241,-540 208.98,-503.36 205.73,-477.5 223,-432 226.97,-421.54 234.05,-411.83 241.53,-403.65"/>
<polygon fill="grey" stroke="grey" stroke-width="2" points="244.23,-405.89 248.73,-396.3 239.23,-400.99 244.23,-405.89"/>
</g>
<!-- 9&#45;&gt;7 -->
<g id="edge19" class="edge">
<title>9&#45;&gt;7</title>
<path fill="none" stroke="grey" stroke-width="2" d="M318.77,-583.48C293.62,-576.08 266.15,-563.02 251,-540 238.67,-521.26 245.86,-495.92 254.72,-477.08"/>
<polygon fill="grey" stroke="grey" stroke-width="2" points="257.85,-478.64 259.26,-468.14 251.61,-475.47 257.85,-478.64"/>
</g>
<!-- 9&#45;&gt;8 -->
<g id="edge20" class="edge">
<title>9&#45;&gt;8</title>
<path fill="none" stroke="grey" stroke-width="2" d="M359.17,-575.7C351.98,-567.3 343.2,-557.07 335.31,-547.86"/>
<polygon fill="grey" stroke="grey" stroke-width="2" points="337.83,-545.42 328.66,-540.1 332.51,-549.97 337.83,-545.42"/>
</g>
<!-- 15 -->
<g id="node16" class="node">
<title>15</title>
<path fill="none" stroke="#56d8b1" stroke-width="2" d="M472,-540C472,-540 398,-540 398,-540 392,-540 386,-534 386,-528 386,-528 386,-516 386,-516 386,-510 392,-504 398,-504 398,-504 472,-504 472,-504 478,-504 484,-510 484,-516 484,-516 484,-528 484,-528 484,-534 478,-540 472,-540"/>
<text text-anchor="middle" x="435" y="-519.5" font-family="sans" font-size="10.00">classify_phylotype</text>
</g>
<!-- 9&#45;&gt;15 -->
<g id="edge27" class="edge">
<title>9&#45;&gt;15</title>
<path fill="none" stroke="grey" stroke-width="2" d="M389.08,-575.7C396.39,-567.3 405.31,-557.07 413.34,-547.86"/>
<polygon fill="grey" stroke="grey" stroke-width="2" points="416.16,-549.94 420.09,-540.1 410.89,-545.34 416.16,-549.94"/>
</g>
<!-- 17 -->
<g id="node18" class="node">
<title>17</title>
<path fill="none" stroke="#59d856" stroke-width="2" d="M561.5,-540C561.5,-540 514.5,-540 514.5,-540 508.5,-540 502.5,-534 502.5,-528 502.5,-528 502.5,-516 502.5,-516 502.5,-510 508.5,-504 514.5,-504 514.5,-504 561.5,-504 561.5,-504 567.5,-504 573.5,-510 573.5,-516 573.5,-516 573.5,-528 573.5,-528 573.5,-534 567.5,-540 561.5,-540"/>
<text text-anchor="middle" x="538" y="-519.5" font-family="sans" font-size="10.00">classify_asv</text>
</g>
<!-- 9&#45;&gt;17 -->
<g id="edge29" class="edge">
<title>9&#45;&gt;17</title>
<path fill="none" stroke="grey" stroke-width="2" d="M414.12,-575.88C437.98,-565.69 468.3,-552.75 492.98,-542.22"/>
<polygon fill="grey" stroke="grey" stroke-width="2" points="494.65,-545.31 502.48,-538.16 491.91,-538.87 494.65,-545.31"/>
</g>
<!-- 19 -->
<g id="node20" class="node">
<title>19</title>
<path fill="none" stroke="#56d8c9" stroke-width="2" d="M680,-540C680,-540 604,-540 604,-540 598,-540 592,-534 592,-528 592,-528 592,-516 592,-516 592,-510 598,-504 604,-504 604,-504 680,-504 680,-504 686,-504 692,-510 692,-516 692,-516 692,-528 692,-528 692,-534 686,-540 680,-540"/>
<text text-anchor="middle" x="642" y="-519.5" font-family="sans" font-size="10.00">classify_phylogeny</text>
</g>
<!-- 9&#45;&gt;19 -->
<g id="edge31" class="edge">
<title>9&#45;&gt;19</title>
<path fill="none" stroke="grey" stroke-width="2" d="M429.28,-579.34C471.26,-568.86 530.36,-553.89 582,-540 582.1,-539.97 582.2,-539.95 582.3,-539.92"/>
<polygon fill="grey" stroke="grey" stroke-width="2" points="583.21,-543.3 591.94,-537.29 581.37,-536.55 583.21,-543.3"/>
</g>
<!-- 10 -->
<g id="node11" class="node">
<title>10</title>
<path fill="none" stroke="#566bd8" stroke-width="2" d="M365.5,-684C365.5,-684 318.5,-684 318.5,-684 312.5,-684 306.5,-678 306.5,-672 306.5,-672 306.5,-660 306.5,-660 306.5,-654 312.5,-648 318.5,-648 318.5,-648 365.5,-648 365.5,-648 371.5,-648 377.5,-654 377.5,-660 377.5,-660 377.5,-672 377.5,-672 377.5,-678 371.5,-684 365.5,-684"/>
<text text-anchor="middle" x="342" y="-663.5" font-family="sans" font-size="10.00">align_n_filter</text>
</g>
<!-- 10&#45;&gt;9 -->
<g id="edge21" class="edge">
<title>10&#45;&gt;9</title>
<path fill="none" stroke="grey" stroke-width="2" d="M349.91,-647.7C353.55,-639.73 357.95,-630.1 361.99,-621.26"/>
<polygon fill="grey" stroke="grey" stroke-width="2" points="365.21,-622.65 366.18,-612.1 358.84,-619.74 365.21,-622.65"/>
</g>
<!-- 11 -->
<g id="node12" class="node">
<title>11</title>
<path fill="none" stroke="#d8c356" stroke-width="2" d="M335.5,-756C335.5,-756 282.5,-756 282.5,-756 276.5,-756 270.5,-750 270.5,-744 270.5,-744 270.5,-732 270.5,-732 270.5,-726 276.5,-720 282.5,-720 282.5,-720 335.5,-720 335.5,-720 341.5,-720 347.5,-726 347.5,-732 347.5,-732 347.5,-744 347.5,-744 347.5,-750 341.5,-756 335.5,-756"/>
<text text-anchor="middle" x="309" y="-735.5" font-family="sans" font-size="10.00">make_contigs</text>
</g>
<!-- 11&#45;&gt;10 -->
<g id="edge24" class="edge">
<title>11&#45;&gt;10</title>
<path fill="none" stroke="grey" stroke-width="2" d="M317.16,-719.7C320.91,-711.73 325.45,-702.1 329.62,-693.26"/>
<polygon fill="grey" stroke="grey" stroke-width="2" points="332.84,-694.64 333.94,-684.1 326.51,-691.66 332.84,-694.64"/>
</g>
<!-- 12 -->
<g id="node13" class="node">
<title>12</title>
<path fill="none" stroke="#8fd856" stroke-width="2" d="M329,-828C329,-828 289,-828 289,-828 283,-828 277,-822 277,-816 277,-816 277,-804 277,-804 277,-798 283,-792 289,-792 289,-792 329,-792 329,-792 335,-792 341,-798 341,-804 341,-804 341,-816 341,-816 341,-822 335,-828 329,-828"/>
<text text-anchor="middle" x="309" y="-807.5" font-family="sans" font-size="10.00">make_files</text>
</g>
<!-- 12&#45;&gt;11 -->
<g id="edge25" class="edge">
<title>12&#45;&gt;11</title>
<path fill="none" stroke="grey" stroke-width="2" d="M309,-791.7C309,-783.98 309,-774.71 309,-766.11"/>
<polygon fill="grey" stroke="grey" stroke-width="2" points="312.5,-766.1 309,-756.1 305.5,-766.1 312.5,-766.1"/>
</g>
<!-- 13 -->
<g id="node14" class="node">
<title>13</title>
<path fill="none" stroke="#56b1d8" stroke-width="2" d="M434.5,-756C434.5,-756 377.5,-756 377.5,-756 371.5,-756 365.5,-750 365.5,-744 365.5,-744 365.5,-732 365.5,-732 365.5,-726 371.5,-720 377.5,-720 377.5,-720 434.5,-720 434.5,-720 440.5,-720 446.5,-726 446.5,-732 446.5,-732 446.5,-744 446.5,-744 446.5,-750 440.5,-756 434.5,-756"/>
<text text-anchor="middle" x="406" y="-735.5" font-family="sans" font-size="10.00">get_references</text>
</g>
<!-- 13&#45;&gt;9 -->
<g id="edge22" class="edge">
<title>13&#45;&gt;9</title>
<path fill="none" stroke="grey" stroke-width="2" d="M402.17,-719.94C398.15,-702.02 391.65,-673.03 386,-648 384.1,-639.59 382.03,-630.43 380.15,-622.12"/>
<polygon fill="grey" stroke="grey" stroke-width="2" points="383.52,-621.16 377.9,-612.18 376.69,-622.71 383.52,-621.16"/>
</g>
<!-- 13&#45;&gt;10 -->
<g id="edge23" class="edge">
<title>13&#45;&gt;10</title>
<path fill="none" stroke="grey" stroke-width="2" d="M390.18,-719.7C382.43,-711.22 372.96,-700.86 364.48,-691.58"/>
<polygon fill="grey" stroke="grey" stroke-width="2" points="366.97,-689.12 357.64,-684.1 361.8,-693.85 366.97,-689.12"/>
</g>
<!-- 14 -->
<g id="node15" class="node">
<title>14</title>
<path fill="none" stroke="#d86656" stroke-width="2" d="M483.5,-324C483.5,-324 402.5,-324 402.5,-324 396.5,-324 390.5,-318 390.5,-312 390.5,-312 390.5,-300 390.5,-300 390.5,-294 396.5,-288 402.5,-288 402.5,-288 483.5,-288 483.5,-288 489.5,-288 495.5,-294 495.5,-300 495.5,-300 495.5,-312 495.5,-312 495.5,-318 489.5,-324 483.5,-324"/>
<text text-anchor="middle" x="443" y="-303.5" font-family="sans" font-size="10.00">final_phylotype_files</text>
</g>
<!-- 14&#45;&gt;0 -->
<g id="edge4" class="edge">
<title>14&#45;&gt;0</title>
<path fill="none" stroke="grey" stroke-width="2" d="M449.75,-287.79C464.39,-247.59 494.94,-145.37 459,-72 453.16,-60.07 443.29,-49.71 433.18,-41.4"/>
<polygon fill="grey" stroke="grey" stroke-width="2" points="435.15,-38.5 425.09,-35.18 430.88,-44.05 435.15,-38.5"/>
</g>
<!-- 15&#45;&gt;14 -->
<g id="edge26" class="edge">
<title>15&#45;&gt;14</title>
<path fill="none" stroke="grey" stroke-width="2" d="M435.64,-503.85C437.02,-466.83 440.3,-379.18 441.98,-334.39"/>
<polygon fill="grey" stroke="grey" stroke-width="2" points="445.48,-334.36 442.36,-324.23 438.48,-334.09 445.48,-334.36"/>
</g>
<!-- 16 -->
<g id="node17" class="node">
<title>16</title>
<path fill="none" stroke="#56d8a2" stroke-width="2" d="M555.5,-252C555.5,-252 500.5,-252 500.5,-252 494.5,-252 488.5,-246 488.5,-240 488.5,-240 488.5,-228 488.5,-228 488.5,-222 494.5,-216 500.5,-216 500.5,-216 555.5,-216 555.5,-216 561.5,-216 567.5,-222 567.5,-228 567.5,-228 567.5,-240 567.5,-240 567.5,-246 561.5,-252 555.5,-252"/>
<text text-anchor="middle" x="528" y="-231.5" font-family="sans" font-size="10.00">final_asv_files</text>
</g>
<!-- 16&#45;&gt;0 -->
<g id="edge5" class="edge">
<title>16&#45;&gt;0</title>
<path fill="none" stroke="grey" stroke-width="2" d="M529.24,-215.85C530.63,-184.21 529.32,-115.89 497,-72 481.76,-51.31 455.97,-37.87 434.53,-29.71"/>
<polygon fill="grey" stroke="grey" stroke-width="2" points="435.64,-26.39 425.04,-26.32 433.28,-32.98 435.64,-26.39"/>
</g>
<!-- 17&#45;&gt;16 -->
<g id="edge28" class="edge">
<title>17&#45;&gt;16</title>
<path fill="none" stroke="grey" stroke-width="2" d="M537.4,-503.97C535.74,-456.29 531.01,-321.18 528.97,-262.63"/>
<polygon fill="grey" stroke="grey" stroke-width="2" points="532.45,-262.18 528.61,-252.31 525.46,-262.42 532.45,-262.18"/>
</g>
<!-- 18 -->
<g id="node19" class="node">
<title>18</title>
<path fill="none" stroke="#56d8d8" stroke-width="2" d="M665.5,-396C665.5,-396 582.5,-396 582.5,-396 576.5,-396 570.5,-390 570.5,-384 570.5,-384 570.5,-372 570.5,-372 570.5,-366 576.5,-360 582.5,-360 582.5,-360 665.5,-360 665.5,-360 671.5,-360 677.5,-366 677.5,-372 677.5,-372 677.5,-384 677.5,-384 677.5,-390 671.5,-396 665.5,-396"/>
<text text-anchor="middle" x="624" y="-375.5" font-family="sans" font-size="10.00">final_phylogeny_files</text>
</g>
<!-- 18&#45;&gt;0 -->
<g id="edge13" class="edge">
<title>18&#45;&gt;0</title>
<path fill="none" stroke="grey" stroke-width="2" d="M623.07,-359.93C619.42,-309.11 601.83,-157.08 520,-72 497.08,-48.17 461.62,-34.41 434.83,-26.92"/>
<polygon fill="grey" stroke="grey" stroke-width="2" points="435.59,-23.5 425.03,-24.35 433.81,-30.27 435.59,-23.5"/>
</g>
<!-- 19&#45;&gt;18 -->
<g id="edge30" class="edge">
<title>19&#45;&gt;18</title>
<path fill="none" stroke="grey" stroke-width="2" d="M639.83,-503.87C636.76,-479.67 631.13,-435.21 627.47,-406.39"/>
<polygon fill="grey" stroke="grey" stroke-width="2" points="630.91,-405.67 626.18,-396.19 623.96,-406.55 630.91,-405.67"/>
</g>
<!-- 20&#45;&gt;0 -->
<g id="edge10" class="edge">
<title>20&#45;&gt;0</title>
<path fill="none" stroke="grey" stroke-width="2" d="M344.11,-215.6C333.12,-185.01 315,-120.25 337,-72 342.56,-59.81 352.45,-49.34 362.68,-41.01"/>
<polygon fill="grey" stroke="grey" stroke-width="2" points="365.03,-43.62 370.88,-34.79 360.79,-38.04 365.03,-43.62"/>
</g>
<!-- 21 -->
<g id="node22" class="node">
<title>21</title>
<path fill="none" stroke="#56a2d8" stroke-width="2" d="M438,-108C438,-108 358,-108 358,-108 352,-108 346,-102 346,-96 346,-96 346,-84 346,-84 346,-78 352,-72 358,-72 358,-72 438,-72 438,-72 444,-72 450,-78 450,-84 450,-84 450,-96 450,-96 450,-102 444,-108 438,-108"/>
<text text-anchor="middle" x="398" y="-87.5" font-family="sans" font-size="10.00">subsample_otutable</text>
</g>
<!-- 20&#45;&gt;21 -->
<g id="edge34" class="edge">
<title>20&#45;&gt;21</title>
<path fill="none" stroke="grey" stroke-width="2" d="M353.22,-215.88C355.91,-197.67 361.21,-168.21 370,-144 373.3,-134.9 377.9,-125.42 382.42,-117.03"/>
<polygon fill="grey" stroke="grey" stroke-width="2" points="385.58,-118.55 387.41,-108.11 379.47,-115.13 385.58,-118.55"/>
</g>
<!-- 22 -->
<g id="node23" class="node">
<title>22</title>
<path fill="none" stroke="#d8b456" stroke-width="2" d="M442.5,-180C442.5,-180 391.5,-180 391.5,-180 385.5,-180 379.5,-174 379.5,-168 379.5,-168 379.5,-156 379.5,-156 379.5,-150 385.5,-144 391.5,-144 391.5,-144 442.5,-144 442.5,-144 448.5,-144 454.5,-150 454.5,-156 454.5,-156 454.5,-168 454.5,-168 454.5,-174 448.5,-180 442.5,-180"/>
<text text-anchor="middle" x="417" y="-159.5" font-family="sans" font-size="10.00">count_groups</text>
</g>
<!-- 20&#45;&gt;22 -->
<g id="edge35" class="edge">
<title>20&#45;&gt;22</title>
<path fill="none" stroke="grey" stroke-width="2" d="M367.31,-215.7C375.31,-207.22 385.07,-196.86 393.82,-187.58"/>
<polygon fill="grey" stroke="grey" stroke-width="2" points="396.56,-189.78 400.87,-180.1 391.47,-184.98 396.56,-189.78"/>
</g>
<!-- 21&#45;&gt;0 -->
<g id="edge7" class="edge">
<title>21&#45;&gt;0</title>
<path fill="none" stroke="grey" stroke-width="2" d="M398,-71.7C398,-63.98 398,-54.71 398,-46.11"/>
<polygon fill="grey" stroke="grey" stroke-width="2" points="401.5,-46.1 398,-36.1 394.5,-46.1 401.5,-46.1"/>
</g>
<!-- 22&#45;&gt;21 -->
<g id="edge33" class="edge">
<title>22&#45;&gt;21</title>
<path fill="none" stroke="grey" stroke-width="2" d="M412.3,-143.7C410.19,-135.9 407.64,-126.51 405.28,-117.83"/>
<polygon fill="grey" stroke="grey" stroke-width="2" points="408.64,-116.84 402.64,-108.1 401.88,-118.67 408.64,-116.84"/>
</g>
<!-- 23 -->
<g id="node24" class="node">
<title>23</title>
<path fill="none" stroke="#567bd8" stroke-width="2" d="M678,-180C678,-180 648,-180 648,-180 642,-180 636,-174 636,-168 636,-168 636,-156 636,-156 636,-150 642,-144 648,-144 648,-144 678,-144 678,-144 684,-144 690,-150 690,-156 690,-156 690,-168 690,-168 690,-174 684,-180 678,-180"/>
<text text-anchor="middle" x="663" y="-159.5" font-family="sans" font-size="10.00">get_dag</text>
</g>
<!-- 23&#45;&gt;0 -->
<g id="edge12" class="edge">
<title>23&#45;&gt;0</title>
<path fill="none" stroke="grey" stroke-width="2" d="M652.5,-143.93C639.23,-123.79 614.52,-90.66 585,-72 538.26,-42.46 474.74,-29.02 435.07,-23.17"/>
<polygon fill="grey" stroke="grey" stroke-width="2" points="435.43,-19.69 425.04,-21.78 434.46,-26.62 435.43,-19.69"/>
</g>
<!-- 25 -->
<g id="node26" class="node">
<title>25</title>
<path fill="none" stroke="#9fd856" stroke-width="2" d="M723,-108C723,-108 649,-108 649,-108 643,-108 637,-102 637,-96 637,-96 637,-84 637,-84 637,-78 643,-72 649,-72 649,-72 723,-72 723,-72 729,-72 735,-78 735,-84 735,-84 735,-96 735,-96 735,-102 729,-108 723,-108"/>
<text text-anchor="middle" x="686" y="-87.5" font-family="sans" font-size="10.00">github_page_index</text>
</g>
<!-- 23&#45;&gt;25 -->
<g id="edge36" class="edge">
<title>23&#45;&gt;25</title>
<path fill="none" stroke="grey" stroke-width="2" d="M668.69,-143.7C671.25,-135.9 674.33,-126.51 677.18,-117.83"/>
<polygon fill="grey" stroke="grey" stroke-width="2" points="680.58,-118.7 680.38,-108.1 673.93,-116.51 680.58,-118.7"/>
</g>
<!-- 24 -->
<g id="node25" class="node">
<title>24</title>
<path fill="none" stroke="#56c9d8" stroke-width="2" d="M833,-108C833,-108 765,-108 765,-108 759,-108 753,-102 753,-96 753,-96 753,-84 753,-84 753,-78 759,-72 765,-72 765,-72 833,-72 833,-72 839,-72 845,-78 845,-84 845,-84 845,-96 845,-96 845,-102 839,-108 833,-108"/>
<text text-anchor="middle" x="799" y="-87.5" font-family="sans" font-size="10.00">interactive_report</text>
</g>
<!-- 24&#45;&gt;0 -->
<g id="edge2" class="edge">
<title>24&#45;&gt;0</title>
<path fill="none" stroke="grey" stroke-width="2" d="M752.92,-74.22C749.91,-73.42 746.92,-72.67 744,-72 632.92,-46.47 498.88,-29.9 435.15,-22.87"/>
<polygon fill="grey" stroke="grey" stroke-width="2" points="435.5,-19.38 425.18,-21.78 434.74,-26.34 435.5,-19.38"/>
</g>
<!-- 25&#45;&gt;0 -->
<g id="edge3" class="edge">
<title>25&#45;&gt;0</title>
<path fill="none" stroke="grey" stroke-width="2" d="M636.86,-75.58C632.18,-74.35 627.5,-73.14 623,-72 556.94,-55.31 479.54,-37.45 434.9,-27.31"/>
<polygon fill="grey" stroke="grey" stroke-width="2" points="435.61,-23.88 425.08,-25.08 434.06,-30.71 435.61,-23.88"/>
</g>
</g>
</svg>
