<?xml version="1.0" encoding="UTF-8" standalone="no"?>
<!DOCTYPE svg PUBLIC "-//W3C//DTD SVG 1.1//EN"
 "http://www.w3.org/Graphics/SVG/1.1/DTD/svg11.dtd">
<!-- Generated by graphviz version 6.0.1 (0)
 -->
<!-- Title: snakemake_dag Pages: 1 -->
<svg width="1117pt" height="620pt"
 viewBox="0.00 0.00 1117.20 620.00" xmlns="http://www.w3.org/2000/svg" xmlns:xlink="http://www.w3.org/1999/xlink">
<g id="graph0" class="graph" transform="scale(1 1) rotate(0) translate(4 616)">
<title>snakemake_dag</title>
<polygon fill="white" stroke="none" points="-4,4 -4,-616 1113.2,-616 1113.2,4 -4,4"/>
<!-- 0 -->
<g id="node1" class="node">
<title>0</title>
<path fill="none" stroke="#5692d8" stroke-width="2" d="M565,-36C565,-36 535,-36 535,-36 529,-36 523,-30 523,-24 523,-24 523,-12 523,-12 523,-6 529,0 535,0 535,0 565,0 565,0 571,0 577,-6 577,-12 577,-12 577,-24 577,-24 577,-30 571,-36 565,-36"/>
<text text-anchor="middle" x="550" y="-15.5" font-family="sans" font-size="10.00">all</text>
</g>
<!-- 1 -->
<g id="node2" class="node">
<title>1</title>
<path fill="none" stroke="#56d863" stroke-width="2" d="M252,-108C252,-108 154,-108 154,-108 148,-108 142,-102 142,-96 142,-96 142,-84 142,-84 142,-78 148,-72 154,-72 154,-72 252,-72 252,-72 258,-72 264,-78 264,-84 264,-84 264,-96 264,-96 264,-102 258,-108 252,-108"/>
<text text-anchor="middle" x="203" y="-87.5" font-family="sans" font-size="10.00">deploy_to_github_pages</text>
</g>
<!-- 1&#45;&gt;0 -->
<g id="edge4" class="edge">
<title>1&#45;&gt;0</title>
<path fill="none" stroke="grey" stroke-width="2" d="M264.24,-76.65C336.19,-62.13 453.27,-38.51 512.76,-26.51"/>
<polygon fill="grey" stroke="grey" stroke-width="2" points="513.72,-29.89 522.83,-24.48 512.34,-23.03 513.72,-29.89"/>
</g>
<!-- 2 -->
<g id="node3" class="node">
<title>2</title>
<path fill="none" stroke="#56d88a" stroke-width="2" d="M82,-180C82,-180 12,-180 12,-180 6,-180 0,-174 0,-168 0,-168 0,-156 0,-156 0,-150 6,-144 12,-144 12,-144 82,-144 82,-144 88,-144 94,-150 94,-156 94,-156 94,-168 94,-168 94,-174 88,-180 82,-180"/>
<text text-anchor="middle" x="47" y="-159.5" font-family="sans" font-size="10.00">get_dot_rulegraph</text>
</g>
<!-- 2&#45;&gt;1 -->
<g id="edge14" class="edge">
<title>2&#45;&gt;1</title>
<path fill="none" stroke="grey" stroke-width="2" d="M85.16,-143.88C106.39,-134.35 133.01,-122.41 155.57,-112.28"/>
<polygon fill="grey" stroke="grey" stroke-width="2" points="157.27,-115.36 164.96,-108.07 154.41,-108.97 157.27,-115.36"/>
</g>
<!-- 3 -->
<g id="node4" class="node">
<title>3</title>
<path fill="none" stroke="#d85656" stroke-width="2" d="M168,-180C168,-180 124,-180 124,-180 118,-180 112,-174 112,-168 112,-168 112,-156 112,-156 112,-150 118,-144 124,-144 124,-144 168,-144 168,-144 174,-144 180,-150 180,-156 180,-156 180,-168 180,-168 180,-174 174,-180 168,-180"/>
<text text-anchor="middle" x="146" y="-159.5" font-family="sans" font-size="10.00">project_tree</text>
</g>
<!-- 3&#45;&gt;1 -->
<g id="edge13" class="edge">
<title>3&#45;&gt;1</title>
<path fill="none" stroke="grey" stroke-width="2" d="M160.09,-143.7C166.92,-135.3 175.26,-125.07 182.76,-115.86"/>
<polygon fill="grey" stroke="grey" stroke-width="2" points="185.47,-118.07 189.07,-108.1 180.04,-113.65 185.47,-118.07"/>
</g>
<!-- 4 -->
<g id="node5" class="node">
<title>4</title>
<path fill="none" stroke="#c6d856" stroke-width="2" d="M307.5,-180C307.5,-180 210.5,-180 210.5,-180 204.5,-180 198.5,-174 198.5,-168 198.5,-168 198.5,-156 198.5,-156 198.5,-150 204.5,-144 210.5,-144 210.5,-144 307.5,-144 307.5,-144 313.5,-144 319.5,-150 319.5,-156 319.5,-156 319.5,-168 319.5,-168 319.5,-174 313.5,-180 307.5,-180"/>
<text text-anchor="middle" x="259" y="-159.5" font-family="sans" font-size="10.00">snakemake_html_report</text>
</g>
<!-- 4&#45;&gt;1 -->
<g id="edge12" class="edge">
<title>4&#45;&gt;1</title>
<path fill="none" stroke="grey" stroke-width="2" d="M245.16,-143.7C238.51,-135.39 230.42,-125.28 223.11,-116.14"/>
<polygon fill="grey" stroke="grey" stroke-width="2" points="225.66,-113.73 216.68,-108.1 220.2,-118.1 225.66,-113.73"/>
</g>
<!-- 5 -->
<g id="node6" class="node">
<title>5</title>
<path fill="none" stroke="#d8ac56" stroke-width="2" d="M477.5,-324C477.5,-324 368.5,-324 368.5,-324 362.5,-324 356.5,-318 356.5,-312 356.5,-312 356.5,-300 356.5,-300 356.5,-294 362.5,-288 368.5,-288 368.5,-288 477.5,-288 477.5,-288 483.5,-288 489.5,-294 489.5,-300 489.5,-300 489.5,-312 489.5,-312 489.5,-318 483.5,-324 477.5,-324"/>
<text text-anchor="middle" x="423" y="-303.5" font-family="sans" font-size="10.00">mothur_classify_phylotype</text>
</g>
<!-- 5&#45;&gt;0 -->
<g id="edge6" class="edge">
<title>5&#45;&gt;0</title>
<path fill="none" stroke="grey" stroke-width="2" d="M422.42,-287.83C421.86,-246.85 425.39,-141.53 472,-72 482.27,-56.68 498.6,-44.59 513.67,-35.84"/>
<polygon fill="grey" stroke="grey" stroke-width="2" points="515.73,-38.7 522.82,-30.83 512.37,-32.56 515.73,-38.7"/>
</g>
<!-- 6 -->
<g id="node7" class="node">
<title>6</title>
<path fill="none" stroke="#56d0d8" stroke-width="2" d="M537,-396C537,-396 415,-396 415,-396 409,-396 403,-390 403,-384 403,-384 403,-372 403,-372 403,-366 409,-360 415,-360 415,-360 537,-360 537,-360 543,-360 549,-366 549,-372 549,-372 549,-384 549,-384 549,-390 543,-396 537,-396"/>
<text text-anchor="middle" x="476" y="-375.5" font-family="sans" font-size="10.00">mothur_final_processed_seqs</text>
</g>
<!-- 6&#45;&gt;5 -->
<g id="edge15" class="edge">
<title>6&#45;&gt;5</title>
<path fill="none" stroke="grey" stroke-width="2" d="M462.9,-359.7C456.61,-351.39 448.95,-341.28 442.04,-332.14"/>
<polygon fill="grey" stroke="grey" stroke-width="2" points="444.78,-329.96 435.95,-324.1 439.2,-334.19 444.78,-329.96"/>
</g>
<!-- 12 -->
<g id="node13" class="node">
<title>12</title>
<path fill="none" stroke="#d8d356" stroke-width="2" d="M230,-252C230,-252 142,-252 142,-252 136,-252 130,-246 130,-240 130,-240 130,-228 130,-228 130,-222 136,-216 142,-216 142,-216 230,-216 230,-216 236,-216 242,-222 242,-228 242,-228 242,-240 242,-240 242,-246 236,-252 230,-252"/>
<text text-anchor="middle" x="186" y="-231.5" font-family="sans" font-size="10.00">mothur_classify_asvs</text>
</g>
<!-- 6&#45;&gt;12 -->
<g id="edge21" class="edge">
<title>6&#45;&gt;12</title>
<path fill="none" stroke="grey" stroke-width="2" d="M418.9,-359.98C390.65,-350.74 356.39,-338.28 327,-324 287.77,-304.93 245.87,-277.47 218.03,-258.11"/>
<polygon fill="grey" stroke="grey" stroke-width="2" points="219.71,-255.01 209.51,-252.13 215.68,-260.74 219.71,-255.01"/>
</g>
<!-- 13 -->
<g id="node14" class="node">
<title>13</title>
<path fill="none" stroke="#d89556" stroke-width="2" d="M383.5,-252C383.5,-252 272.5,-252 272.5,-252 266.5,-252 260.5,-246 260.5,-240 260.5,-240 260.5,-228 260.5,-228 260.5,-222 266.5,-216 272.5,-216 272.5,-216 383.5,-216 383.5,-216 389.5,-216 395.5,-222 395.5,-228 395.5,-228 395.5,-240 395.5,-240 395.5,-246 389.5,-252 383.5,-252"/>
<text text-anchor="middle" x="328" y="-231.5" font-family="sans" font-size="10.00">mothur_classify_phylogeny</text>
</g>
<!-- 6&#45;&gt;13 -->
<g id="edge22" class="edge">
<title>6&#45;&gt;13</title>
<path fill="none" stroke="grey" stroke-width="2" d="M402.92,-360.8C382.18,-352.88 361.35,-341.19 347,-324 332.71,-306.89 328.4,-281.6 327.41,-262.35"/>
<polygon fill="grey" stroke="grey" stroke-width="2" points="330.91,-262.01 327.16,-252.1 323.91,-262.18 330.91,-262.01"/>
</g>
<!-- 14 -->
<g id="node15" class="node">
<title>14</title>
<path fill="none" stroke="#56d873" stroke-width="2" d="M717.5,-324C717.5,-324 648.5,-324 648.5,-324 642.5,-324 636.5,-318 636.5,-312 636.5,-312 636.5,-300 636.5,-300 636.5,-294 642.5,-288 648.5,-288 648.5,-288 717.5,-288 717.5,-288 723.5,-288 729.5,-294 729.5,-300 729.5,-300 729.5,-312 729.5,-312 729.5,-318 723.5,-324 717.5,-324"/>
<text text-anchor="middle" x="683" y="-303.5" font-family="sans" font-size="10.00">mothur_error_rate</text>
</g>
<!-- 6&#45;&gt;14 -->
<g id="edge23" class="edge">
<title>6&#45;&gt;14</title>
<path fill="none" stroke="grey" stroke-width="2" d="M526.37,-359.97C556.74,-349.7 595.48,-336.6 626.83,-325.99"/>
<polygon fill="grey" stroke="grey" stroke-width="2" points="627.96,-329.31 636.31,-322.79 625.71,-322.68 627.96,-329.31"/>
</g>
<!-- 18 -->
<g id="node19" class="node">
<title>18</title>
<path fill="none" stroke="#d87d56" stroke-width="2" d="M606,-324C606,-324 520,-324 520,-324 514,-324 508,-318 508,-312 508,-312 508,-300 508,-300 508,-294 514,-288 520,-288 520,-288 606,-288 606,-288 612,-288 618,-294 618,-300 618,-300 618,-312 618,-312 618,-318 612,-324 606,-324"/>
<text text-anchor="middle" x="563" y="-303.5" font-family="sans" font-size="10.00">mothur_classify_otus</text>
</g>
<!-- 6&#45;&gt;18 -->
<g id="edge28" class="edge">
<title>6&#45;&gt;18</title>
<path fill="none" stroke="grey" stroke-width="2" d="M497.51,-359.7C508.46,-350.88 521.95,-340.03 533.82,-330.47"/>
<polygon fill="grey" stroke="grey" stroke-width="2" points="536.14,-333.1 541.74,-324.1 531.76,-327.65 536.14,-333.1"/>
</g>
<!-- 7 -->
<g id="node8" class="node">
<title>7</title>
<path fill="none" stroke="#56a9d8" stroke-width="2" d="M537.5,-468C537.5,-468 422.5,-468 422.5,-468 416.5,-468 410.5,-462 410.5,-456 410.5,-456 410.5,-444 410.5,-444 410.5,-438 416.5,-432 422.5,-432 422.5,-432 537.5,-432 537.5,-432 543.5,-432 549.5,-438 549.5,-444 549.5,-444 549.5,-456 549.5,-456 549.5,-462 543.5,-468 537.5,-468"/>
<text text-anchor="middle" x="480" y="-447.5" font-family="sans" font-size="10.00">mothur_process_sequences</text>
</g>
<!-- 7&#45;&gt;6 -->
<g id="edge16" class="edge">
<title>7&#45;&gt;6</title>
<path fill="none" stroke="grey" stroke-width="2" d="M479.01,-431.7C478.57,-423.98 478.04,-414.71 477.55,-406.11"/>
<polygon fill="grey" stroke="grey" stroke-width="2" points="481.04,-405.89 476.98,-396.1 474.05,-406.29 481.04,-405.89"/>
</g>
<!-- 8 -->
<g id="node9" class="node">
<title>8</title>
<path fill="none" stroke="#56d8c9" stroke-width="2" d="M397.5,-540C397.5,-540 296.5,-540 296.5,-540 290.5,-540 284.5,-534 284.5,-528 284.5,-528 284.5,-516 284.5,-516 284.5,-510 290.5,-504 296.5,-504 296.5,-504 397.5,-504 397.5,-504 403.5,-504 409.5,-510 409.5,-516 409.5,-516 409.5,-528 409.5,-528 409.5,-534 403.5,-540 397.5,-540"/>
<text text-anchor="middle" x="347" y="-519.5" font-family="sans" font-size="10.00">import_mothur_metadata</text>
</g>
<!-- 8&#45;&gt;7 -->
<g id="edge17" class="edge">
<title>8&#45;&gt;7</title>
<path fill="none" stroke="grey" stroke-width="2" d="M379.54,-503.88C397.25,-494.55 419.35,-482.92 438.32,-472.94"/>
<polygon fill="grey" stroke="grey" stroke-width="2" points="440.12,-475.94 447.34,-468.19 436.86,-469.75 440.12,-475.94"/>
</g>
<!-- 9 -->
<g id="node10" class="node">
<title>9</title>
<path fill="none" stroke="#56d8a2" stroke-width="2" d="M552.5,-540C552.5,-540 439.5,-540 439.5,-540 433.5,-540 427.5,-534 427.5,-528 427.5,-528 427.5,-516 427.5,-516 427.5,-510 433.5,-504 439.5,-504 439.5,-504 552.5,-504 552.5,-504 558.5,-504 564.5,-510 564.5,-516 564.5,-516 564.5,-528 564.5,-528 564.5,-534 558.5,-540 552.5,-540"/>
<text text-anchor="middle" x="496" y="-519.5" font-family="sans" font-size="10.00">mothur_generated_mapping</text>
</g>
<!-- 9&#45;&gt;7 -->
<g id="edge18" class="edge">
<title>9&#45;&gt;7</title>
<path fill="none" stroke="grey" stroke-width="2" d="M492.04,-503.7C490.28,-495.98 488.16,-486.71 486.2,-478.11"/>
<polygon fill="grey" stroke="grey" stroke-width="2" points="489.55,-477.07 483.91,-468.1 482.73,-478.63 489.55,-477.07"/>
</g>
<!-- 10 -->
<g id="node11" class="node">
<title>10</title>
<path fill="none" stroke="#566bd8" stroke-width="2" d="M534,-612C534,-612 458,-612 458,-612 452,-612 446,-606 446,-600 446,-600 446,-588 446,-588 446,-582 452,-576 458,-576 458,-576 534,-576 534,-576 540,-576 546,-582 546,-588 546,-588 546,-600 546,-600 546,-606 540,-612 534,-612"/>
<text text-anchor="middle" x="496" y="-591.5" font-family="sans" font-size="10.00">import_fastq_reads</text>
</g>
<!-- 10&#45;&gt;9 -->
<g id="edge20" class="edge">
<title>10&#45;&gt;9</title>
<path fill="none" stroke="grey" stroke-width="2" d="M496,-575.7C496,-567.98 496,-558.71 496,-550.11"/>
<polygon fill="grey" stroke="grey" stroke-width="2" points="499.5,-550.1 496,-540.1 492.5,-550.1 499.5,-550.1"/>
</g>
<!-- 11 -->
<g id="node12" class="node">
<title>11</title>
<path fill="none" stroke="#56d8b1" stroke-width="2" d="M693.5,-540C693.5,-540 602.5,-540 602.5,-540 596.5,-540 590.5,-534 590.5,-528 590.5,-528 590.5,-516 590.5,-516 590.5,-510 596.5,-504 602.5,-504 602.5,-504 693.5,-504 693.5,-504 699.5,-504 705.5,-510 705.5,-516 705.5,-516 705.5,-528 705.5,-528 705.5,-534 699.5,-540 693.5,-540"/>
<text text-anchor="middle" x="648" y="-519.5" font-family="sans" font-size="10.00">download_mothur_refs</text>
</g>
<!-- 11&#45;&gt;7 -->
<g id="edge19" class="edge">
<title>11&#45;&gt;7</title>
<path fill="none" stroke="grey" stroke-width="2" d="M606.9,-503.88C583.83,-494.26 554.86,-482.19 530.43,-472.01"/>
<polygon fill="grey" stroke="grey" stroke-width="2" points="531.54,-468.68 520.96,-468.07 528.85,-475.15 531.54,-468.68"/>
</g>
<!-- 15 -->
<g id="node16" class="node">
<title>15</title>
<path fill="none" stroke="#5682d8" stroke-width="2" d="M706,-396C706,-396 606,-396 606,-396 600,-396 594,-390 594,-384 594,-384 594,-372 594,-372 594,-366 600,-360 606,-360 606,-360 706,-360 706,-360 712,-360 718,-366 718,-372 718,-372 718,-384 718,-384 718,-390 712,-396 706,-396"/>
<text text-anchor="middle" x="656" y="-375.5" font-family="sans" font-size="10.00">get_mothur_zymo_mock</text>
</g>
<!-- 11&#45;&gt;15 -->
<g id="edge25" class="edge">
<title>11&#45;&gt;15</title>
<path fill="none" stroke="grey" stroke-width="2" d="M648.96,-503.87C650.33,-479.67 652.83,-435.21 654.46,-406.39"/>
<polygon fill="grey" stroke="grey" stroke-width="2" points="657.96,-406.37 655.03,-396.19 650.97,-405.98 657.96,-406.37"/>
</g>
<!-- 12&#45;&gt;0 -->
<g id="edge11" class="edge">
<title>12&#45;&gt;0</title>
<path fill="none" stroke="grey" stroke-width="2" d="M242.33,-216.63C276.02,-205.96 314.79,-191.87 328,-180 367.91,-144.12 341.18,-106.83 382,-72 419.16,-40.29 475.36,-27.52 512.36,-22.4"/>
<polygon fill="grey" stroke="grey" stroke-width="2" points="513.24,-25.81 522.72,-21.09 512.36,-18.87 513.24,-25.81"/>
</g>
<!-- 13&#45;&gt;0 -->
<g id="edge3" class="edge">
<title>13&#45;&gt;0</title>
<path fill="none" stroke="grey" stroke-width="2" d="M340.02,-215.74C346.86,-205.57 355.36,-192.32 362,-180 386.92,-133.76 371.83,-108.08 410,-72 438.51,-45.05 482.07,-31.46 513.02,-24.84"/>
<polygon fill="grey" stroke="grey" stroke-width="2" points="513.87,-28.24 522.99,-22.85 512.5,-21.37 513.87,-28.24"/>
</g>
<!-- 14&#45;&gt;0 -->
<g id="edge7" class="edge">
<title>14&#45;&gt;0</title>
<path fill="none" stroke="grey" stroke-width="2" d="M729.77,-297.07C858.22,-273.44 1199.54,-197.32 1086,-72 1052.55,-35.08 703.39,-22.9 587.3,-19.86"/>
<polygon fill="grey" stroke="grey" stroke-width="2" points="587.21,-16.35 577.12,-19.6 587.03,-23.35 587.21,-16.35"/>
</g>
<!-- 15&#45;&gt;14 -->
<g id="edge24" class="edge">
<title>15&#45;&gt;14</title>
<path fill="none" stroke="grey" stroke-width="2" d="M662.67,-359.7C665.71,-351.81 669.38,-342.3 672.76,-333.55"/>
<polygon fill="grey" stroke="grey" stroke-width="2" points="676.07,-334.69 676.4,-324.1 669.54,-332.17 676.07,-334.69"/>
</g>
<!-- 16 -->
<g id="node17" class="node">
<title>16</title>
<path fill="none" stroke="#9fd856" stroke-width="2" d="M583,-180C583,-180 491,-180 491,-180 485,-180 479,-174 479,-168 479,-168 479,-156 479,-156 479,-150 485,-144 491,-144 491,-144 583,-144 583,-144 589,-144 595,-150 595,-156 595,-156 595,-168 595,-168 595,-174 589,-180 583,-180"/>
<text text-anchor="middle" x="537" y="-159.5" font-family="sans" font-size="10.00">count_classified_reads</text>
</g>
<!-- 16&#45;&gt;0 -->
<g id="edge8" class="edge">
<title>16&#45;&gt;0</title>
<path fill="none" stroke="grey" stroke-width="2" d="M510.88,-143.82C499.42,-134.69 487.19,-122.39 481,-108 474.67,-93.3 473.93,-86.35 481,-72 488.11,-57.58 501.23,-45.99 514.14,-37.37"/>
<polygon fill="grey" stroke="grey" stroke-width="2" points="516.33,-40.13 522.97,-31.87 512.63,-34.18 516.33,-40.13"/>
</g>
<!-- 17 -->
<g id="node18" class="node">
<title>17</title>
<path fill="none" stroke="#d86e56" stroke-width="2" d="M618,-252C618,-252 508,-252 508,-252 502,-252 496,-246 496,-240 496,-240 496,-228 496,-228 496,-222 502,-216 508,-216 508,-216 618,-216 618,-216 624,-216 630,-222 630,-228 630,-228 630,-240 630,-240 630,-246 624,-252 618,-252"/>
<text text-anchor="middle" x="563" y="-231.5" font-family="sans" font-size="10.00">mothur_split_group_shared</text>
</g>
<!-- 17&#45;&gt;16 -->
<g id="edge26" class="edge">
<title>17&#45;&gt;16</title>
<path fill="none" stroke="grey" stroke-width="2" d="M556.57,-215.7C553.64,-207.81 550.11,-198.3 546.86,-189.55"/>
<polygon fill="grey" stroke="grey" stroke-width="2" points="550.12,-188.26 543.35,-180.1 543.55,-190.7 550.12,-188.26"/>
</g>
<!-- 20 -->
<g id="node21" class="node">
<title>20</title>
<path fill="none" stroke="#61d856" stroke-width="2" d="M785,-180C785,-180 687,-180 687,-180 681,-180 675,-174 675,-168 675,-168 675,-156 675,-156 675,-150 681,-144 687,-144 687,-144 785,-144 785,-144 791,-144 797,-150 797,-156 797,-156 797,-168 797,-168 797,-174 791,-180 785,-180"/>
<text text-anchor="middle" x="736" y="-159.5" font-family="sans" font-size="10.00">get_subsample_otutable</text>
</g>
<!-- 17&#45;&gt;20 -->
<g id="edge30" class="edge">
<title>17&#45;&gt;20</title>
<path fill="none" stroke="grey" stroke-width="2" d="M605.32,-215.88C629.18,-206.22 659.17,-194.09 684.4,-183.88"/>
<polygon fill="grey" stroke="grey" stroke-width="2" points="685.86,-187.06 693.82,-180.07 683.23,-180.57 685.86,-187.06"/>
</g>
<!-- 18&#45;&gt;17 -->
<g id="edge27" class="edge">
<title>18&#45;&gt;17</title>
<path fill="none" stroke="grey" stroke-width="2" d="M563,-287.7C563,-279.98 563,-270.71 563,-262.11"/>
<polygon fill="grey" stroke="grey" stroke-width="2" points="566.5,-262.1 563,-252.1 559.5,-262.1 566.5,-262.1"/>
</g>
<!-- 19 -->
<g id="node20" class="node">
<title>19</title>
<path fill="none" stroke="#b6d856" stroke-width="2" d="M597.5,-108C597.5,-108 502.5,-108 502.5,-108 496.5,-108 490.5,-102 490.5,-96 490.5,-96 490.5,-84 490.5,-84 490.5,-78 496.5,-72 502.5,-72 502.5,-72 597.5,-72 597.5,-72 603.5,-72 609.5,-78 609.5,-84 609.5,-84 609.5,-96 609.5,-96 609.5,-102 603.5,-108 597.5,-108"/>
<text text-anchor="middle" x="550" y="-87.5" font-family="sans" font-size="10.00">alpha_diversity_metrics</text>
</g>
<!-- 19&#45;&gt;0 -->
<g id="edge5" class="edge">
<title>19&#45;&gt;0</title>
<path fill="none" stroke="grey" stroke-width="2" d="M550,-71.7C550,-63.98 550,-54.71 550,-46.11"/>
<polygon fill="grey" stroke="grey" stroke-width="2" points="553.5,-46.1 550,-36.1 546.5,-46.1 553.5,-46.1"/>
</g>
<!-- 20&#45;&gt;19 -->
<g id="edge29" class="edge">
<title>20&#45;&gt;19</title>
<path fill="none" stroke="grey" stroke-width="2" d="M690.5,-143.88C664.62,-134.14 632.03,-121.87 604.76,-111.61"/>
<polygon fill="grey" stroke="grey" stroke-width="2" points="605.94,-108.31 595.35,-108.07 603.48,-114.87 605.94,-108.31"/>
</g>
<!-- 21 -->
<g id="node22" class="node">
<title>21</title>
<path fill="none" stroke="#d8bc56" stroke-width="2" d="M704.5,-108C704.5,-108 639.5,-108 639.5,-108 633.5,-108 627.5,-102 627.5,-96 627.5,-96 627.5,-84 627.5,-84 627.5,-78 633.5,-72 639.5,-72 639.5,-72 704.5,-72 704.5,-72 710.5,-72 716.5,-78 716.5,-84 716.5,-84 716.5,-96 716.5,-96 716.5,-102 710.5,-108 704.5,-108"/>
<text text-anchor="middle" x="672" y="-87.5" font-family="sans" font-size="10.00">rarefaction_table</text>
</g>
<!-- 20&#45;&gt;21 -->
<g id="edge31" class="edge">
<title>20&#45;&gt;21</title>
<path fill="none" stroke="grey" stroke-width="2" d="M720.18,-143.7C712.43,-135.22 702.96,-124.86 694.48,-115.58"/>
<polygon fill="grey" stroke="grey" stroke-width="2" points="696.97,-113.12 687.64,-108.1 691.8,-117.85 696.97,-113.12"/>
</g>
<!-- 22 -->
<g id="node23" class="node">
<title>22</title>
<path fill="none" stroke="#88d856" stroke-width="2" d="M847.5,-108C847.5,-108 746.5,-108 746.5,-108 740.5,-108 734.5,-102 734.5,-96 734.5,-96 734.5,-84 734.5,-84 734.5,-78 740.5,-72 746.5,-72 746.5,-72 847.5,-72 847.5,-72 853.5,-72 859.5,-78 859.5,-84 859.5,-84 859.5,-96 859.5,-96 859.5,-102 853.5,-108 847.5,-108"/>
<text text-anchor="middle" x="797" y="-87.5" font-family="sans" font-size="10.00">beta_distance_measures</text>
</g>
<!-- 20&#45;&gt;22 -->
<g id="edge32" class="edge">
<title>20&#45;&gt;22</title>
<path fill="none" stroke="grey" stroke-width="2" d="M751.08,-143.7C758.39,-135.3 767.31,-125.07 775.34,-115.86"/>
<polygon fill="grey" stroke="grey" stroke-width="2" points="778.16,-117.94 782.09,-108.1 772.89,-113.34 778.16,-117.94"/>
</g>
<!-- 23 -->
<g id="node24" class="node">
<title>23</title>
<path fill="none" stroke="#56c1d8" stroke-width="2" d="M954,-108C954,-108 890,-108 890,-108 884,-108 878,-102 878,-96 878,-96 878,-84 878,-84 878,-78 884,-72 890,-72 890,-72 954,-72 954,-72 960,-72 966,-78 966,-84 966,-84 966,-96 966,-96 966,-102 960,-108 954,-108"/>
<text text-anchor="middle" x="922" y="-87.5" font-family="sans" font-size="10.00">pcoa_mds_axes</text>
</g>
<!-- 20&#45;&gt;23 -->
<g id="edge33" class="edge">
<title>20&#45;&gt;23</title>
<path fill="none" stroke="grey" stroke-width="2" d="M781.5,-143.88C807.76,-133.99 840.94,-121.51 868.45,-111.15"/>
<polygon fill="grey" stroke="grey" stroke-width="2" points="869.8,-114.38 877.93,-107.59 867.34,-107.83 869.8,-114.38"/>
</g>
<!-- 24 -->
<g id="node25" class="node">
<title>24</title>
<path fill="none" stroke="#78d856" stroke-width="2" d="M1065.5,-108C1065.5,-108 996.5,-108 996.5,-108 990.5,-108 984.5,-102 984.5,-96 984.5,-96 984.5,-84 984.5,-84 984.5,-78 990.5,-72 996.5,-72 996.5,-72 1065.5,-72 1065.5,-72 1071.5,-72 1077.5,-78 1077.5,-84 1077.5,-84 1077.5,-96 1077.5,-96 1077.5,-102 1071.5,-108 1065.5,-108"/>
<text text-anchor="middle" x="1031" y="-87.5" font-family="sans" font-size="10.00">nmds_axes_table</text>
</g>
<!-- 20&#45;&gt;24 -->
<g id="edge34" class="edge">
<title>20&#45;&gt;24</title>
<path fill="none" stroke="grey" stroke-width="2" d="M797.21,-148.77C843.41,-139.23 908.53,-125.14 974.58,-108.01"/>
<polygon fill="grey" stroke="grey" stroke-width="2" points="975.54,-111.38 984.33,-105.46 973.76,-104.6 975.54,-111.38"/>
</g>
<!-- 21&#45;&gt;0 -->
<g id="edge1" class="edge">
<title>21&#45;&gt;0</title>
<path fill="none" stroke="grey" stroke-width="2" d="M642.16,-71.88C625.22,-62.16 603.89,-49.92 586.03,-39.67"/>
<polygon fill="grey" stroke="grey" stroke-width="2" points="587.45,-36.46 577.04,-34.51 583.97,-42.53 587.45,-36.46"/>
</g>
<!-- 22&#45;&gt;0 -->
<g id="edge9" class="edge">
<title>22&#45;&gt;0</title>
<path fill="none" stroke="grey" stroke-width="2" d="M736.89,-71.97C690.13,-58.71 626.72,-40.74 587.1,-29.51"/>
<polygon fill="grey" stroke="grey" stroke-width="2" points="587.89,-26.1 577.32,-26.74 585.99,-32.84 587.89,-26.1"/>
</g>
<!-- 23&#45;&gt;0 -->
<g id="edge2" class="edge">
<title>23&#45;&gt;0</title>
<path fill="none" stroke="grey" stroke-width="2" d="M877.94,-74.58C874.59,-73.65 871.25,-72.78 868,-72 767.62,-47.96 646.83,-31.05 587.13,-23.47"/>
<polygon fill="grey" stroke="grey" stroke-width="2" points="587.42,-19.98 577.06,-22.21 586.54,-26.93 587.42,-19.98"/>
</g>
<!-- 24&#45;&gt;0 -->
<g id="edge10" class="edge">
<title>24&#45;&gt;0</title>
<path fill="none" stroke="grey" stroke-width="2" d="M984.4,-74.2C981.24,-73.4 978.08,-72.65 975,-72 833.58,-41.95 661.81,-26.97 587.38,-21.51"/>
<polygon fill="grey" stroke="grey" stroke-width="2" points="587.34,-18 577.12,-20.77 586.84,-24.98 587.34,-18"/>
</g>
</g>
</svg>
