<?xml version="1.0" encoding="UTF-8" standalone="no"?>
<!DOCTYPE svg PUBLIC "-//W3C//DTD SVG 1.1//EN"
 "http://www.w3.org/Graphics/SVG/1.1/DTD/svg11.dtd">
<!-- Generated by graphviz version 6.0.1 (0)
 -->
<!-- Title: snakemake_dag Pages: 1 -->
<svg width="481pt" height="260pt"
 viewBox="0.00 0.00 481.00 260.00" xmlns="http://www.w3.org/2000/svg" xmlns:xlink="http://www.w3.org/1999/xlink">
<g id="graph0" class="graph" transform="scale(1 1) rotate(0) translate(4 256)">
<title>snakemake_dag</title>
<polygon fill="white" stroke="none" points="-4,4 -4,-256 477,-256 477,4 -4,4"/>
<!-- 0 -->
<g id="node1" class="node">
<title>0</title>
<path fill="none" stroke="#78d856" stroke-width="2" d="M235,-36C235,-36 205,-36 205,-36 199,-36 193,-30 193,-24 193,-24 193,-12 193,-12 193,-6 199,0 205,0 205,0 235,0 235,0 241,0 247,-6 247,-12 247,-12 247,-24 247,-24 247,-30 241,-36 235,-36"/>
<text text-anchor="middle" x="220" y="-15.5" font-family="sans" font-size="10.00">all</text>
</g>
<!-- 1 -->
<g id="node2" class="node">
<title>1</title>
<path fill="none" stroke="#56d8c9" stroke-width="2" d="M94,-252C94,-252 12,-252 12,-252 6,-252 0,-246 0,-240 0,-240 0,-228 0,-228 0,-222 6,-216 12,-216 12,-216 94,-216 94,-216 100,-216 106,-222 106,-228 106,-228 106,-240 106,-240 106,-246 100,-252 94,-252"/>
<text text-anchor="middle" x="53" y="-231.5" font-family="sans" font-size="10.00">make_mapping_files</text>
</g>
<!-- 1&#45;&gt;0 -->
<g id="edge5" class="edge">
<title>1&#45;&gt;0</title>
<path fill="none" stroke="grey" stroke-width="2" d="M39.75,-215.92C27.36,-197.75 12.26,-168.31 23,-144 51.87,-78.62 134.53,-43.98 183.12,-28.77"/>
<polygon fill="grey" stroke="grey" stroke-width="2" points="184.37,-32.05 192.94,-25.81 182.35,-25.35 184.37,-32.05"/>
</g>
<!-- 4 -->
<g id="node5" class="node">
<title>4</title>
<path fill="none" stroke="#d8a456" stroke-width="2" d="M159.5,-180C159.5,-180 44.5,-180 44.5,-180 38.5,-180 32.5,-174 32.5,-168 32.5,-168 32.5,-156 32.5,-156 32.5,-150 38.5,-144 44.5,-144 44.5,-144 159.5,-144 159.5,-144 165.5,-144 171.5,-150 171.5,-156 171.5,-156 171.5,-168 171.5,-168 171.5,-174 165.5,-180 159.5,-180"/>
<text text-anchor="middle" x="102" y="-159.5" font-family="sans" font-size="10.00">mothur_process_sequences</text>
</g>
<!-- 1&#45;&gt;4 -->
<g id="edge8" class="edge">
<title>1&#45;&gt;4</title>
<path fill="none" stroke="grey" stroke-width="2" d="M65.11,-215.7C70.87,-207.47 77.86,-197.48 84.21,-188.42"/>
<polygon fill="grey" stroke="grey" stroke-width="2" points="87.16,-190.3 90.03,-180.1 81.42,-186.29 87.16,-190.3"/>
</g>
<!-- 2 -->
<g id="node3" class="node">
<title>2</title>
<path fill="none" stroke="#d85656" stroke-width="2" d="M279,-252C279,-252 205,-252 205,-252 199,-252 193,-246 193,-240 193,-240 193,-228 193,-228 193,-222 199,-216 205,-216 205,-216 279,-216 279,-216 285,-216 291,-222 291,-228 291,-228 291,-240 291,-240 291,-246 285,-252 279,-252"/>
<text text-anchor="middle" x="242" y="-231.5" font-family="sans" font-size="10.00">mothur_references</text>
</g>
<!-- 2&#45;&gt;0 -->
<g id="edge1" class="edge">
<title>2&#45;&gt;0</title>
<path fill="none" stroke="grey" stroke-width="2" d="M271.04,-215.84C283.32,-206.87 296.31,-194.68 303,-180 309.64,-165.44 307.49,-159.36 303,-144 291.69,-105.3 263.73,-67.71 243.37,-44.03"/>
<polygon fill="grey" stroke="grey" stroke-width="2" points="245.76,-41.45 236.53,-36.26 240.51,-46.08 245.76,-41.45"/>
</g>
<!-- 3 -->
<g id="node4" class="node">
<title>3</title>
<path fill="none" stroke="#56a2d8" stroke-width="2" d="M282.5,-180C282.5,-180 201.5,-180 201.5,-180 195.5,-180 189.5,-174 189.5,-168 189.5,-168 189.5,-156 189.5,-156 189.5,-150 195.5,-144 201.5,-144 201.5,-144 282.5,-144 282.5,-144 288.5,-144 294.5,-150 294.5,-156 294.5,-156 294.5,-168 294.5,-168 294.5,-174 288.5,-180 282.5,-180"/>
<text text-anchor="middle" x="242" y="-159.5" font-family="sans" font-size="10.00">mothur_zymo_mock</text>
</g>
<!-- 2&#45;&gt;3 -->
<g id="edge7" class="edge">
<title>2&#45;&gt;3</title>
<path fill="none" stroke="grey" stroke-width="2" d="M242,-215.7C242,-207.98 242,-198.71 242,-190.11"/>
<polygon fill="grey" stroke="grey" stroke-width="2" points="245.5,-190.1 242,-180.1 238.5,-190.1 245.5,-190.1"/>
</g>
<!-- 2&#45;&gt;4 -->
<g id="edge9" class="edge">
<title>2&#45;&gt;4</title>
<path fill="none" stroke="grey" stroke-width="2" d="M207.75,-215.88C188.94,-206.47 165.42,-194.71 145.33,-184.67"/>
<polygon fill="grey" stroke="grey" stroke-width="2" points="146.89,-181.53 136.38,-180.19 143.76,-187.79 146.89,-181.53"/>
</g>
<!-- 3&#45;&gt;0 -->
<g id="edge6" class="edge">
<title>3&#45;&gt;0</title>
<path fill="none" stroke="grey" stroke-width="2" d="M243.65,-143.75C244.95,-125.68 245.83,-96.56 241,-72 239.24,-63.07 236.04,-53.71 232.65,-45.38"/>
<polygon fill="grey" stroke="grey" stroke-width="2" points="235.85,-43.97 228.67,-36.18 229.42,-46.74 235.85,-43.97"/>
</g>
<!-- 5 -->
<g id="node6" class="node">
<title>5</title>
<path fill="none" stroke="#56d87b" stroke-width="2" d="M220,-108C220,-108 142,-108 142,-108 136,-108 130,-102 130,-96 130,-96 130,-84 130,-84 130,-78 136,-72 142,-72 142,-72 220,-72 220,-72 226,-72 232,-78 232,-84 232,-84 232,-96 232,-96 232,-102 226,-108 220,-108"/>
<text text-anchor="middle" x="181" y="-87.5" font-family="sans" font-size="10.00">calculate_error_rate</text>
</g>
<!-- 3&#45;&gt;5 -->
<g id="edge11" class="edge">
<title>3&#45;&gt;5</title>
<path fill="none" stroke="grey" stroke-width="2" d="M226.92,-143.7C219.61,-135.3 210.69,-125.07 202.66,-115.86"/>
<polygon fill="grey" stroke="grey" stroke-width="2" points="205.11,-113.34 195.91,-108.1 199.84,-117.94 205.11,-113.34"/>
</g>
<!-- 4&#45;&gt;0 -->
<g id="edge2" class="edge">
<title>4&#45;&gt;0</title>
<path fill="none" stroke="grey" stroke-width="2" d="M101.54,-143.85C101.89,-124.54 105.14,-93.09 121,-72 136.34,-51.6 161.89,-38.2 183.19,-29.98"/>
<polygon fill="grey" stroke="grey" stroke-width="2" points="184.42,-33.26 192.63,-26.56 182.03,-26.68 184.42,-33.26"/>
</g>
<!-- 4&#45;&gt;5 -->
<g id="edge10" class="edge">
<title>4&#45;&gt;5</title>
<path fill="none" stroke="grey" stroke-width="2" d="M121.53,-143.7C131.38,-134.97 143.49,-124.24 154.2,-114.75"/>
<polygon fill="grey" stroke="grey" stroke-width="2" points="156.53,-117.36 161.7,-108.1 151.89,-112.12 156.53,-117.36"/>
</g>
<!-- 5&#45;&gt;0 -->
<g id="edge4" class="edge">
<title>5&#45;&gt;0</title>
<path fill="none" stroke="grey" stroke-width="2" d="M190.64,-71.7C195.13,-63.64 200.56,-53.89 205.52,-44.98"/>
<polygon fill="grey" stroke="grey" stroke-width="2" points="208.66,-46.54 210.47,-36.1 202.55,-43.14 208.66,-46.54"/>
</g>
<!-- 6 -->
<g id="node7" class="node">
<title>6</title>
<path fill="none" stroke="#c6d856" stroke-width="2" d="M461,-108C461,-108 363,-108 363,-108 357,-108 351,-102 351,-96 351,-96 351,-84 351,-84 351,-78 357,-72 363,-72 363,-72 461,-72 461,-72 467,-72 473,-78 473,-84 473,-84 473,-96 473,-96 473,-102 467,-108 461,-108"/>
<text text-anchor="middle" x="412" y="-87.5" font-family="sans" font-size="10.00">deploy_to_github_pages</text>
</g>
<!-- 6&#45;&gt;0 -->
<g id="edge3" class="edge">
<title>6&#45;&gt;0</title>
<path fill="none" stroke="grey" stroke-width="2" d="M365.03,-71.88C331.67,-59.71 287.52,-43.62 256.73,-32.39"/>
<polygon fill="grey" stroke="grey" stroke-width="2" points="257.82,-29.06 247.23,-28.93 255.43,-35.64 257.82,-29.06"/>
</g>
</g>
</svg>
