<?xml version="1.0" encoding="UTF-8" standalone="no"?>
<!DOCTYPE svg PUBLIC "-//W3C//DTD SVG 1.1//EN"
 "http://www.w3.org/Graphics/SVG/1.1/DTD/svg11.dtd">
<!-- Generated by graphviz version 6.0.1 (0)
 -->
<!-- Title: snakemake_dag Pages: 1 -->
<svg width="628pt" height="260pt"
 viewBox="0.00 0.00 628.00 260.00" xmlns="http://www.w3.org/2000/svg" xmlns:xlink="http://www.w3.org/1999/xlink">
<g id="graph0" class="graph" transform="scale(1 1) rotate(0) translate(4 256)">
<title>snakemake_dag</title>
<polygon fill="white" stroke="none" points="-4,4 -4,-256 624,-256 624,4 -4,4"/>
<!-- 0 -->
<g id="node1" class="node">
<title>0</title>
<path fill="none" stroke="#9fd856" stroke-width="2" d="M370,-36C370,-36 340,-36 340,-36 334,-36 328,-30 328,-24 328,-24 328,-12 328,-12 328,-6 334,0 340,0 340,0 370,0 370,0 376,0 382,-6 382,-12 382,-12 382,-24 382,-24 382,-30 376,-36 370,-36"/>
<text text-anchor="middle" x="355" y="-15.5" font-family="sans" font-size="10.00">all</text>
</g>
<!-- 1 -->
<g id="node2" class="node">
<title>1</title>
<path fill="none" stroke="#56d89a" stroke-width="2" d="M233,-108C233,-108 135,-108 135,-108 129,-108 123,-102 123,-96 123,-96 123,-84 123,-84 123,-78 129,-72 135,-72 135,-72 233,-72 233,-72 239,-72 245,-78 245,-84 245,-84 245,-96 245,-96 245,-102 239,-108 233,-108"/>
<text text-anchor="middle" x="184" y="-87.5" font-family="sans" font-size="10.00">deploy_to_github_pages</text>
</g>
<!-- 1&#45;&gt;0 -->
<g id="edge2" class="edge">
<title>1&#45;&gt;0</title>
<path fill="none" stroke="grey" stroke-width="2" d="M225.83,-71.88C254.19,-60.27 291.3,-45.08 318.47,-33.95"/>
<polygon fill="grey" stroke="grey" stroke-width="2" points="320.06,-37.08 327.99,-30.06 317.41,-30.61 320.06,-37.08"/>
</g>
<!-- 2 -->
<g id="node3" class="node">
<title>2</title>
<path fill="none" stroke="#56d86b" stroke-width="2" d="M56,-180C56,-180 12,-180 12,-180 6,-180 0,-174 0,-168 0,-168 0,-156 0,-156 0,-150 6,-144 12,-144 12,-144 56,-144 56,-144 62,-144 68,-150 68,-156 68,-156 68,-168 68,-168 68,-174 62,-180 56,-180"/>
<text text-anchor="middle" x="34" y="-159.5" font-family="sans" font-size="10.00">project_tree</text>
</g>
<!-- 2&#45;&gt;1 -->
<g id="edge6" class="edge">
<title>2&#45;&gt;1</title>
<path fill="none" stroke="grey" stroke-width="2" d="M68.04,-145.12C88.85,-135.4 115.74,-122.85 138.39,-112.29"/>
<polygon fill="grey" stroke="grey" stroke-width="2" points="139.89,-115.44 147.48,-108.04 136.93,-109.1 139.89,-115.44"/>
</g>
<!-- 3 -->
<g id="node4" class="node">
<title>3</title>
<path fill="none" stroke="#d8b456" stroke-width="2" d="M200,-180C200,-180 98,-180 98,-180 92,-180 86,-174 86,-168 86,-168 86,-156 86,-156 86,-150 92,-144 98,-144 98,-144 200,-144 200,-144 206,-144 212,-150 212,-156 212,-156 212,-168 212,-168 212,-174 206,-180 200,-180"/>
<text text-anchor="middle" x="149" y="-159.5" font-family="sans" font-size="10.00">static_snakemake_report</text>
</g>
<!-- 3&#45;&gt;1 -->
<g id="edge7" class="edge">
<title>3&#45;&gt;1</title>
<path fill="none" stroke="grey" stroke-width="2" d="M157.65,-143.7C161.64,-135.73 166.45,-126.1 170.87,-117.26"/>
<polygon fill="grey" stroke="grey" stroke-width="2" points="174.11,-118.61 175.45,-108.1 167.85,-115.48 174.11,-118.61"/>
</g>
<!-- 4 -->
<g id="node5" class="node">
<title>4</title>
<path fill="none" stroke="#ced856" stroke-width="2" d="M304,-180C304,-180 242,-180 242,-180 236,-180 230,-174 230,-168 230,-168 230,-156 230,-156 230,-150 236,-144 242,-144 242,-144 304,-144 304,-144 310,-144 316,-150 316,-156 316,-156 316,-168 316,-168 316,-174 310,-180 304,-180"/>
<text text-anchor="middle" x="273" y="-159.5" font-family="sans" font-size="10.00">dot_rules_graph</text>
</g>
<!-- 4&#45;&gt;1 -->
<g id="edge5" class="edge">
<title>4&#45;&gt;1</title>
<path fill="none" stroke="grey" stroke-width="2" d="M251,-143.7C239.79,-134.88 226,-124.03 213.85,-114.47"/>
<polygon fill="grey" stroke="grey" stroke-width="2" points="215.77,-111.54 205.75,-108.1 211.44,-117.04 215.77,-111.54"/>
</g>
<!-- 5 -->
<g id="node6" class="node">
<title>5</title>
<path fill="none" stroke="#56b1d8" stroke-width="2" d="M461.5,-180C461.5,-180 346.5,-180 346.5,-180 340.5,-180 334.5,-174 334.5,-168 334.5,-168 334.5,-156 334.5,-156 334.5,-150 340.5,-144 346.5,-144 346.5,-144 461.5,-144 461.5,-144 467.5,-144 473.5,-150 473.5,-156 473.5,-156 473.5,-168 473.5,-168 473.5,-174 467.5,-180 461.5,-180"/>
<text text-anchor="middle" x="404" y="-159.5" font-family="sans" font-size="10.00">mothur_process_sequences</text>
</g>
<!-- 5&#45;&gt;0 -->
<g id="edge3" class="edge">
<title>5&#45;&gt;0</title>
<path fill="none" stroke="grey" stroke-width="2" d="M364.73,-143.9C350.13,-135.37 335.16,-123.51 327,-108 316.43,-87.88 325.85,-63.09 336.53,-44.78"/>
<polygon fill="grey" stroke="grey" stroke-width="2" points="339.62,-46.44 341.96,-36.11 333.69,-42.73 339.62,-46.44"/>
</g>
<!-- 8 -->
<g id="node9" class="node">
<title>8</title>
<path fill="none" stroke="#5682d8" stroke-width="2" d="M608,-108C608,-108 500,-108 500,-108 494,-108 488,-102 488,-96 488,-96 488,-84 488,-84 488,-78 494,-72 500,-72 500,-72 608,-72 608,-72 614,-72 620,-78 620,-84 620,-84 620,-96 620,-96 620,-102 614,-108 608,-108"/>
<text text-anchor="middle" x="554" y="-87.5" font-family="sans" font-size="10.00">mothur_calculate_errorrate</text>
</g>
<!-- 5&#45;&gt;8 -->
<g id="edge11" class="edge">
<title>5&#45;&gt;8</title>
<path fill="none" stroke="grey" stroke-width="2" d="M440.69,-143.88C461.02,-134.39 486.47,-122.51 508.1,-112.42"/>
<polygon fill="grey" stroke="grey" stroke-width="2" points="509.84,-115.47 517.43,-108.07 506.88,-109.13 509.84,-115.47"/>
</g>
<!-- 10 -->
<g id="node11" class="node">
<title>10</title>
<path fill="none" stroke="#d85656" stroke-width="2" d="M458,-108C458,-108 348,-108 348,-108 342,-108 336,-102 336,-96 336,-96 336,-84 336,-84 336,-78 342,-72 348,-72 348,-72 458,-72 458,-72 464,-72 470,-78 470,-84 470,-84 470,-96 470,-96 470,-102 464,-108 458,-108"/>
<text text-anchor="middle" x="403" y="-87.5" font-family="sans" font-size="10.00">remove_intermedeate_files</text>
</g>
<!-- 5&#45;&gt;10 -->
<g id="edge13" class="edge">
<title>5&#45;&gt;10</title>
<path fill="none" stroke="grey" stroke-width="2" d="M403.75,-143.7C403.64,-135.98 403.51,-126.71 403.39,-118.11"/>
<polygon fill="grey" stroke="grey" stroke-width="2" points="406.89,-118.05 403.24,-108.1 399.89,-118.15 406.89,-118.05"/>
</g>
<!-- 6 -->
<g id="node7" class="node">
<title>6</title>
<path fill="none" stroke="#56d8c9" stroke-width="2" d="M445,-252C445,-252 363,-252 363,-252 357,-252 351,-246 351,-240 351,-240 351,-228 351,-228 351,-222 357,-216 363,-216 363,-216 445,-216 445,-216 451,-216 457,-222 457,-228 457,-228 457,-240 457,-240 457,-246 451,-252 445,-252"/>
<text text-anchor="middle" x="404" y="-231.5" font-family="sans" font-size="10.00">make_mapping_files</text>
</g>
<!-- 6&#45;&gt;5 -->
<g id="edge8" class="edge">
<title>6&#45;&gt;5</title>
<path fill="none" stroke="grey" stroke-width="2" d="M404,-215.7C404,-207.98 404,-198.71 404,-190.11"/>
<polygon fill="grey" stroke="grey" stroke-width="2" points="407.5,-190.1 404,-180.1 400.5,-190.1 407.5,-190.1"/>
</g>
<!-- 7 -->
<g id="node8" class="node">
<title>7</title>
<path fill="none" stroke="#70d856" stroke-width="2" d="M589,-252C589,-252 497,-252 497,-252 491,-252 485,-246 485,-240 485,-240 485,-228 485,-228 485,-222 491,-216 497,-216 497,-216 589,-216 589,-216 595,-216 601,-222 601,-228 601,-228 601,-240 601,-240 601,-246 595,-252 589,-252"/>
<text text-anchor="middle" x="543" y="-231.5" font-family="sans" font-size="10.00">get_mothur_references</text>
</g>
<!-- 7&#45;&gt;5 -->
<g id="edge9" class="edge">
<title>7&#45;&gt;5</title>
<path fill="none" stroke="grey" stroke-width="2" d="M509,-215.88C490.4,-206.51 467.17,-194.81 447.29,-184.8"/>
<polygon fill="grey" stroke="grey" stroke-width="2" points="448.64,-181.56 438.13,-180.19 445.49,-187.81 448.64,-181.56"/>
</g>
<!-- 9 -->
<g id="node10" class="node">
<title>9</title>
<path fill="none" stroke="#d88556" stroke-width="2" d="M604,-180C604,-180 504,-180 504,-180 498,-180 492,-174 492,-168 492,-168 492,-156 492,-156 492,-150 498,-144 504,-144 504,-144 604,-144 604,-144 610,-144 616,-150 616,-156 616,-156 616,-168 616,-168 616,-174 610,-180 604,-180"/>
<text text-anchor="middle" x="554" y="-159.5" font-family="sans" font-size="10.00">get_mothur_zymo_mock</text>
</g>
<!-- 7&#45;&gt;9 -->
<g id="edge12" class="edge">
<title>7&#45;&gt;9</title>
<path fill="none" stroke="grey" stroke-width="2" d="M545.72,-215.7C546.93,-207.98 548.39,-198.71 549.74,-190.11"/>
<polygon fill="grey" stroke="grey" stroke-width="2" points="553.22,-190.53 551.31,-180.1 546.3,-189.44 553.22,-190.53"/>
</g>
<!-- 8&#45;&gt;0 -->
<g id="edge4" class="edge">
<title>8&#45;&gt;0</title>
<path fill="none" stroke="grey" stroke-width="2" d="M505.57,-71.97C470.44,-59.61 423.64,-43.15 391.6,-31.87"/>
<polygon fill="grey" stroke="grey" stroke-width="2" points="392.75,-28.57 382.16,-28.55 390.43,-35.17 392.75,-28.57"/>
</g>
<!-- 9&#45;&gt;8 -->
<g id="edge10" class="edge">
<title>9&#45;&gt;8</title>
<path fill="none" stroke="grey" stroke-width="2" d="M554,-143.7C554,-135.98 554,-126.71 554,-118.11"/>
<polygon fill="grey" stroke="grey" stroke-width="2" points="557.5,-118.1 554,-108.1 550.5,-118.1 557.5,-118.1"/>
</g>
<!-- 10&#45;&gt;0 -->
<g id="edge1" class="edge">
<title>10&#45;&gt;0</title>
<path fill="none" stroke="grey" stroke-width="2" d="M391.13,-71.7C385.5,-63.47 378.65,-53.48 372.43,-44.42"/>
<polygon fill="grey" stroke="grey" stroke-width="2" points="375.27,-42.37 366.73,-36.1 369.5,-46.33 375.27,-42.37"/>
</g>
</g>
</svg>
