<?xml version="1.0" encoding="UTF-8" standalone="no"?>
<!DOCTYPE svg PUBLIC "-//W3C//DTD SVG 1.1//EN"
 "http://www.w3.org/Graphics/SVG/1.1/DTD/svg11.dtd">
<!-- Generated by graphviz version 6.0.1 (0)
 -->
<!-- Title: snakemake_dag Pages: 1 -->
<svg width="657pt" height="836pt"
 viewBox="0.00 0.00 657.00 836.00" xmlns="http://www.w3.org/2000/svg" xmlns:xlink="http://www.w3.org/1999/xlink">
<g id="graph0" class="graph" transform="scale(1 1) rotate(0) translate(4 832)">
<title>snakemake_dag</title>
<polygon fill="white" stroke="none" points="-4,4 -4,-832 653,-832 653,4 -4,4"/>
<!-- 0 -->
<g id="node1" class="node">
<title>0</title>
<path fill="none" stroke="#56c9d8" stroke-width="2" d="M285,-36C285,-36 255,-36 255,-36 249,-36 243,-30 243,-24 243,-24 243,-12 243,-12 243,-6 249,0 255,0 255,0 285,0 285,0 291,0 297,-6 297,-12 297,-12 297,-24 297,-24 297,-30 291,-36 285,-36"/>
<text text-anchor="middle" x="270" y="-15.5" font-family="sans" font-size="10.00">all</text>
</g>
<!-- 1 -->
<g id="node2" class="node">
<title>1</title>
<path fill="none" stroke="#d8b456" stroke-width="2" d="M42,-108C42,-108 12,-108 12,-108 6,-108 0,-102 0,-96 0,-96 0,-84 0,-84 0,-78 6,-72 12,-72 12,-72 42,-72 42,-72 48,-72 54,-78 54,-84 54,-84 54,-96 54,-96 54,-102 48,-108 42,-108"/>
<text text-anchor="middle" x="27" y="-87.5" font-family="sans" font-size="10.00">seqkit_1</text>
</g>
<!-- 1&#45;&gt;0 -->
<g id="edge8" class="edge">
<title>1&#45;&gt;0</title>
<path fill="none" stroke="grey" stroke-width="2" d="M54.29,-75.46C57.2,-74.21 60.14,-73.03 63,-72 120.91,-51.13 190.72,-35.05 232.67,-26.31"/>
<polygon fill="grey" stroke="grey" stroke-width="2" points="233.62,-29.69 242.71,-24.25 232.21,-22.84 233.62,-29.69"/>
</g>
<!-- 2 -->
<g id="node3" class="node">
<title>2</title>
<path fill="none" stroke="#8fd856" stroke-width="2" d="M114,-108C114,-108 84,-108 84,-108 78,-108 72,-102 72,-96 72,-96 72,-84 72,-84 72,-78 78,-72 84,-72 84,-72 114,-72 114,-72 120,-72 126,-78 126,-84 126,-84 126,-96 126,-96 126,-102 120,-108 114,-108"/>
<text text-anchor="middle" x="99" y="-87.5" font-family="sans" font-size="10.00">fastqc_1</text>
</g>
<!-- 2&#45;&gt;0 -->
<g id="edge2" class="edge">
<title>2&#45;&gt;0</title>
<path fill="none" stroke="grey" stroke-width="2" d="M126.04,-75.99C129.05,-74.62 132.08,-73.26 135,-72 167.94,-57.78 206.04,-42.96 233.35,-32.63"/>
<polygon fill="grey" stroke="grey" stroke-width="2" points="234.77,-35.83 242.89,-29.03 232.3,-29.28 234.77,-35.83"/>
</g>
<!-- 3 -->
<g id="node4" class="node">
<title>3</title>
<path fill="none" stroke="#d89c56" stroke-width="2" d="M191.5,-108C191.5,-108 156.5,-108 156.5,-108 150.5,-108 144.5,-102 144.5,-96 144.5,-96 144.5,-84 144.5,-84 144.5,-78 150.5,-72 156.5,-72 156.5,-72 191.5,-72 191.5,-72 197.5,-72 203.5,-78 203.5,-84 203.5,-84 203.5,-96 203.5,-96 203.5,-102 197.5,-108 191.5,-108"/>
<text text-anchor="middle" x="174" y="-87.5" font-family="sans" font-size="10.00">multiqc_1</text>
</g>
<!-- 3&#45;&gt;0 -->
<g id="edge7" class="edge">
<title>3&#45;&gt;0</title>
<path fill="none" stroke="grey" stroke-width="2" d="M197.73,-71.7C209.94,-62.8 224.99,-51.82 238.18,-42.2"/>
<polygon fill="grey" stroke="grey" stroke-width="2" points="240.52,-44.82 246.54,-36.1 236.4,-39.17 240.52,-44.82"/>
</g>
<!-- 4 -->
<g id="node5" class="node">
<title>4</title>
<path fill="none" stroke="#56d892" stroke-width="2" d="M258.5,-324C258.5,-324 205.5,-324 205.5,-324 199.5,-324 193.5,-318 193.5,-312 193.5,-312 193.5,-300 193.5,-300 193.5,-294 199.5,-288 205.5,-288 205.5,-288 258.5,-288 258.5,-288 264.5,-288 270.5,-294 270.5,-300 270.5,-300 270.5,-312 270.5,-312 270.5,-318 264.5,-324 258.5,-324"/>
<text text-anchor="middle" x="232" y="-303.5" font-family="sans" font-size="10.00">final_otu_files</text>
</g>
<!-- 4&#45;&gt;0 -->
<g id="edge3" class="edge">
<title>4&#45;&gt;0</title>
<path fill="none" stroke="grey" stroke-width="2" d="M234.26,-287.97C240.61,-240.19 258.62,-104.62 266.38,-46.27"/>
<polygon fill="grey" stroke="grey" stroke-width="2" points="269.85,-46.68 267.7,-36.31 262.91,-45.76 269.85,-46.68"/>
</g>
<!-- 19 -->
<g id="node20" class="node">
<title>19</title>
<path fill="none" stroke="#d86e56" stroke-width="2" d="M344,-252C344,-252 272,-252 272,-252 266,-252 260,-246 260,-240 260,-240 260,-228 260,-228 260,-222 266,-216 272,-216 272,-216 344,-216 344,-216 350,-216 356,-222 356,-228 356,-228 356,-240 356,-240 356,-246 350,-252 344,-252"/>
<text text-anchor="middle" x="308" y="-231.5" font-family="sans" font-size="10.00">otutable_by_group</text>
</g>
<!-- 4&#45;&gt;19 -->
<g id="edge27" class="edge">
<title>4&#45;&gt;19</title>
<path fill="none" stroke="grey" stroke-width="2" d="M250.79,-287.7C260.17,-279.05 271.68,-268.45 281.91,-259.03"/>
<polygon fill="grey" stroke="grey" stroke-width="2" points="284.45,-261.45 289.43,-252.1 279.7,-256.3 284.45,-261.45"/>
</g>
<!-- 5 -->
<g id="node6" class="node">
<title>5</title>
<path fill="none" stroke="#569ad8" stroke-width="2" d="M254,-396C254,-396 198,-396 198,-396 192,-396 186,-390 186,-384 186,-384 186,-372 186,-372 186,-366 192,-360 198,-360 198,-360 254,-360 254,-360 260,-360 266,-366 266,-372 266,-372 266,-384 266,-384 266,-390 260,-396 254,-396"/>
<text text-anchor="middle" x="226" y="-375.5" font-family="sans" font-size="10.00">classify_otu97</text>
</g>
<!-- 5&#45;&gt;4 -->
<g id="edge10" class="edge">
<title>5&#45;&gt;4</title>
<path fill="none" stroke="grey" stroke-width="2" d="M227.48,-359.7C228.14,-351.98 228.94,-342.71 229.68,-334.11"/>
<polygon fill="grey" stroke="grey" stroke-width="2" points="233.17,-334.37 230.53,-324.1 226.19,-333.77 233.17,-334.37"/>
</g>
<!-- 6 -->
<g id="node7" class="node">
<title>6</title>
<path fill="none" stroke="#bed856" stroke-width="2" d="M251.5,-468C251.5,-468 200.5,-468 200.5,-468 194.5,-468 188.5,-462 188.5,-456 188.5,-456 188.5,-444 188.5,-444 188.5,-438 194.5,-432 200.5,-432 200.5,-432 251.5,-432 251.5,-432 257.5,-432 263.5,-438 263.5,-444 263.5,-444 263.5,-456 263.5,-456 263.5,-462 257.5,-468 251.5,-468"/>
<text text-anchor="middle" x="226" y="-447.5" font-family="sans" font-size="10.00">cluster_otu97</text>
</g>
<!-- 6&#45;&gt;5 -->
<g id="edge12" class="edge">
<title>6&#45;&gt;5</title>
<path fill="none" stroke="grey" stroke-width="2" d="M226,-431.7C226,-423.98 226,-414.71 226,-406.11"/>
<polygon fill="grey" stroke="grey" stroke-width="2" points="229.5,-406.1 226,-396.1 222.5,-406.1 229.5,-406.1"/>
</g>
<!-- 7 -->
<g id="node8" class="node">
<title>7</title>
<path fill="none" stroke="#56d87b" stroke-width="2" d="M312.5,-540C312.5,-540 229.5,-540 229.5,-540 223.5,-540 217.5,-534 217.5,-528 217.5,-528 217.5,-516 217.5,-516 217.5,-510 223.5,-504 229.5,-504 229.5,-504 312.5,-504 312.5,-504 318.5,-504 324.5,-510 324.5,-516 324.5,-516 324.5,-528 324.5,-528 324.5,-534 318.5,-540 312.5,-540"/>
<text text-anchor="middle" x="271" y="-519.5" font-family="sans" font-size="10.00">compute_seqdist003</text>
</g>
<!-- 7&#45;&gt;6 -->
<g id="edge14" class="edge">
<title>7&#45;&gt;6</title>
<path fill="none" stroke="grey" stroke-width="2" d="M259.88,-503.7C254.64,-495.56 248.3,-485.69 242.52,-476.7"/>
<polygon fill="grey" stroke="grey" stroke-width="2" points="245.35,-474.62 237,-468.1 239.46,-478.41 245.35,-474.62"/>
</g>
<!-- 8 -->
<g id="node9" class="node">
<title>8</title>
<path fill="none" stroke="#56d8a2" stroke-width="2" d="M374,-612C374,-612 288,-612 288,-612 282,-612 276,-606 276,-600 276,-600 276,-588 276,-588 276,-582 282,-576 288,-576 288,-576 374,-576 374,-576 380,-576 386,-582 386,-588 386,-588 386,-600 386,-600 386,-606 380,-612 374,-612"/>
<text text-anchor="middle" x="331" y="-591.5" font-family="sans" font-size="10.00">denoise_n_classify80</text>
</g>
<!-- 8&#45;&gt;5 -->
<g id="edge11" class="edge">
<title>8&#45;&gt;5</title>
<path fill="none" stroke="grey" stroke-width="2" d="M275.69,-583.11C248.74,-575.59 217.94,-562.52 198,-540 165.69,-503.51 161.71,-477.57 179,-432 182.97,-421.54 190.05,-411.83 197.53,-403.65"/>
<polygon fill="grey" stroke="grey" stroke-width="2" points="200.23,-405.89 204.73,-396.3 195.23,-400.99 200.23,-405.89"/>
</g>
<!-- 8&#45;&gt;6 -->
<g id="edge13" class="edge">
<title>8&#45;&gt;6</title>
<path fill="none" stroke="grey" stroke-width="2" d="M275.77,-583.48C250.62,-576.08 223.15,-563.02 208,-540 195.75,-521.38 202.52,-496.19 211.03,-477.36"/>
<polygon fill="grey" stroke="grey" stroke-width="2" points="214.29,-478.68 215.56,-468.16 208,-475.59 214.29,-478.68"/>
</g>
<!-- 8&#45;&gt;7 -->
<g id="edge15" class="edge">
<title>8&#45;&gt;7</title>
<path fill="none" stroke="grey" stroke-width="2" d="M316.17,-575.7C308.98,-567.3 300.2,-557.07 292.31,-547.86"/>
<polygon fill="grey" stroke="grey" stroke-width="2" points="294.83,-545.42 285.66,-540.1 289.51,-549.97 294.83,-545.42"/>
</g>
<!-- 14 -->
<g id="node15" class="node">
<title>14</title>
<path fill="none" stroke="#56d863" stroke-width="2" d="M429,-540C429,-540 355,-540 355,-540 349,-540 343,-534 343,-528 343,-528 343,-516 343,-516 343,-510 349,-504 355,-504 355,-504 429,-504 429,-504 435,-504 441,-510 441,-516 441,-516 441,-528 441,-528 441,-534 435,-540 429,-540"/>
<text text-anchor="middle" x="392" y="-519.5" font-family="sans" font-size="10.00">classify_phylotype</text>
</g>
<!-- 8&#45;&gt;14 -->
<g id="edge22" class="edge">
<title>8&#45;&gt;14</title>
<path fill="none" stroke="grey" stroke-width="2" d="M346.08,-575.7C353.39,-567.3 362.31,-557.07 370.34,-547.86"/>
<polygon fill="grey" stroke="grey" stroke-width="2" points="373.16,-549.94 377.09,-540.1 367.89,-545.34 373.16,-549.94"/>
</g>
<!-- 16 -->
<g id="node17" class="node">
<title>16</title>
<path fill="none" stroke="#61d856" stroke-width="2" d="M518.5,-540C518.5,-540 471.5,-540 471.5,-540 465.5,-540 459.5,-534 459.5,-528 459.5,-528 459.5,-516 459.5,-516 459.5,-510 465.5,-504 471.5,-504 471.5,-504 518.5,-504 518.5,-504 524.5,-504 530.5,-510 530.5,-516 530.5,-516 530.5,-528 530.5,-528 530.5,-534 524.5,-540 518.5,-540"/>
<text text-anchor="middle" x="495" y="-519.5" font-family="sans" font-size="10.00">classify_asv</text>
</g>
<!-- 8&#45;&gt;16 -->
<g id="edge24" class="edge">
<title>8&#45;&gt;16</title>
<path fill="none" stroke="grey" stroke-width="2" d="M371.12,-575.88C394.98,-565.69 425.3,-552.75 449.98,-542.22"/>
<polygon fill="grey" stroke="grey" stroke-width="2" points="451.65,-545.31 459.48,-538.16 448.91,-538.87 451.65,-545.31"/>
</g>
<!-- 18 -->
<g id="node19" class="node">
<title>18</title>
<path fill="none" stroke="#56d8d0" stroke-width="2" d="M637,-540C637,-540 561,-540 561,-540 555,-540 549,-534 549,-528 549,-528 549,-516 549,-516 549,-510 555,-504 561,-504 561,-504 637,-504 637,-504 643,-504 649,-510 649,-516 649,-516 649,-528 649,-528 649,-534 643,-540 637,-540"/>
<text text-anchor="middle" x="599" y="-519.5" font-family="sans" font-size="10.00">classify_phylogeny</text>
</g>
<!-- 8&#45;&gt;18 -->
<g id="edge26" class="edge">
<title>8&#45;&gt;18</title>
<path fill="none" stroke="grey" stroke-width="2" d="M386.13,-579.53C426.04,-569.67 481.5,-555.72 538.85,-540.27"/>
<polygon fill="grey" stroke="grey" stroke-width="2" points="540.08,-543.57 548.82,-537.58 538.25,-536.81 540.08,-543.57"/>
</g>
<!-- 9 -->
<g id="node10" class="node">
<title>9</title>
<path fill="none" stroke="#56d8b9" stroke-width="2" d="M322.5,-684C322.5,-684 275.5,-684 275.5,-684 269.5,-684 263.5,-678 263.5,-672 263.5,-672 263.5,-660 263.5,-660 263.5,-654 269.5,-648 275.5,-648 275.5,-648 322.5,-648 322.5,-648 328.5,-648 334.5,-654 334.5,-660 334.5,-660 334.5,-672 334.5,-672 334.5,-678 328.5,-684 322.5,-684"/>
<text text-anchor="middle" x="299" y="-663.5" font-family="sans" font-size="10.00">align_n_filter</text>
</g>
<!-- 9&#45;&gt;8 -->
<g id="edge16" class="edge">
<title>9&#45;&gt;8</title>
<path fill="none" stroke="grey" stroke-width="2" d="M306.91,-647.7C310.55,-639.73 314.95,-630.1 318.99,-621.26"/>
<polygon fill="grey" stroke="grey" stroke-width="2" points="322.21,-622.65 323.18,-612.1 315.84,-619.74 322.21,-622.65"/>
</g>
<!-- 10 -->
<g id="node11" class="node">
<title>10</title>
<path fill="none" stroke="#d6d856" stroke-width="2" d="M292.5,-756C292.5,-756 239.5,-756 239.5,-756 233.5,-756 227.5,-750 227.5,-744 227.5,-744 227.5,-732 227.5,-732 227.5,-726 233.5,-720 239.5,-720 239.5,-720 292.5,-720 292.5,-720 298.5,-720 304.5,-726 304.5,-732 304.5,-732 304.5,-744 304.5,-744 304.5,-750 298.5,-756 292.5,-756"/>
<text text-anchor="middle" x="266" y="-735.5" font-family="sans" font-size="10.00">make_contigs</text>
</g>
<!-- 10&#45;&gt;9 -->
<g id="edge19" class="edge">
<title>10&#45;&gt;9</title>
<path fill="none" stroke="grey" stroke-width="2" d="M274.16,-719.7C277.91,-711.73 282.45,-702.1 286.62,-693.26"/>
<polygon fill="grey" stroke="grey" stroke-width="2" points="289.84,-694.64 290.94,-684.1 283.51,-691.66 289.84,-694.64"/>
</g>
<!-- 11 -->
<g id="node12" class="node">
<title>11</title>
<path fill="none" stroke="#a7d856" stroke-width="2" d="M286,-828C286,-828 246,-828 246,-828 240,-828 234,-822 234,-816 234,-816 234,-804 234,-804 234,-798 240,-792 246,-792 246,-792 286,-792 286,-792 292,-792 298,-798 298,-804 298,-804 298,-816 298,-816 298,-822 292,-828 286,-828"/>
<text text-anchor="middle" x="266" y="-807.5" font-family="sans" font-size="10.00">make_files</text>
</g>
<!-- 11&#45;&gt;10 -->
<g id="edge20" class="edge">
<title>11&#45;&gt;10</title>
<path fill="none" stroke="grey" stroke-width="2" d="M266,-791.7C266,-783.98 266,-774.71 266,-766.11"/>
<polygon fill="grey" stroke="grey" stroke-width="2" points="269.5,-766.1 266,-756.1 262.5,-766.1 269.5,-766.1"/>
</g>
<!-- 12 -->
<g id="node13" class="node">
<title>12</title>
<path fill="none" stroke="#5682d8" stroke-width="2" d="M391.5,-756C391.5,-756 334.5,-756 334.5,-756 328.5,-756 322.5,-750 322.5,-744 322.5,-744 322.5,-732 322.5,-732 322.5,-726 328.5,-720 334.5,-720 334.5,-720 391.5,-720 391.5,-720 397.5,-720 403.5,-726 403.5,-732 403.5,-732 403.5,-744 403.5,-744 403.5,-750 397.5,-756 391.5,-756"/>
<text text-anchor="middle" x="363" y="-735.5" font-family="sans" font-size="10.00">get_references</text>
</g>
<!-- 12&#45;&gt;8 -->
<g id="edge17" class="edge">
<title>12&#45;&gt;8</title>
<path fill="none" stroke="grey" stroke-width="2" d="M359.17,-719.94C355.15,-702.02 348.65,-673.03 343,-648 341.1,-639.59 339.03,-630.43 337.15,-622.12"/>
<polygon fill="grey" stroke="grey" stroke-width="2" points="340.52,-621.16 334.9,-612.18 333.69,-622.71 340.52,-621.16"/>
</g>
<!-- 12&#45;&gt;9 -->
<g id="edge18" class="edge">
<title>12&#45;&gt;9</title>
<path fill="none" stroke="grey" stroke-width="2" d="M347.18,-719.7C339.43,-711.22 329.96,-700.86 321.48,-691.58"/>
<polygon fill="grey" stroke="grey" stroke-width="2" points="323.97,-689.12 314.64,-684.1 318.8,-693.85 323.97,-689.12"/>
</g>
<!-- 13 -->
<g id="node14" class="node">
<title>13</title>
<path fill="none" stroke="#d8c356" stroke-width="2" d="M436.5,-324C436.5,-324 355.5,-324 355.5,-324 349.5,-324 343.5,-318 343.5,-312 343.5,-312 343.5,-300 343.5,-300 343.5,-294 349.5,-288 355.5,-288 355.5,-288 436.5,-288 436.5,-288 442.5,-288 448.5,-294 448.5,-300 448.5,-300 448.5,-312 448.5,-312 448.5,-318 442.5,-324 436.5,-324"/>
<text text-anchor="middle" x="396" y="-303.5" font-family="sans" font-size="10.00">final_phylotype_files</text>
</g>
<!-- 13&#45;&gt;0 -->
<g id="edge1" class="edge">
<title>13&#45;&gt;0</title>
<path fill="none" stroke="grey" stroke-width="2" d="M404.13,-287.75C422.65,-245.65 462.52,-136.42 411,-72 385.8,-40.49 339.75,-27.71 307.14,-22.53"/>
<polygon fill="grey" stroke="grey" stroke-width="2" points="307.47,-19.04 297.07,-21.1 306.48,-25.97 307.47,-19.04"/>
</g>
<!-- 14&#45;&gt;13 -->
<g id="edge21" class="edge">
<title>14&#45;&gt;13</title>
<path fill="none" stroke="grey" stroke-width="2" d="M392.32,-503.85C393.01,-466.83 394.65,-379.18 395.49,-334.39"/>
<polygon fill="grey" stroke="grey" stroke-width="2" points="398.99,-334.3 395.68,-324.23 391.99,-334.17 398.99,-334.3"/>
</g>
<!-- 15 -->
<g id="node16" class="node">
<title>15</title>
<path fill="none" stroke="#78d856" stroke-width="2" d="M510.5,-396C510.5,-396 455.5,-396 455.5,-396 449.5,-396 443.5,-390 443.5,-384 443.5,-384 443.5,-372 443.5,-372 443.5,-366 449.5,-360 455.5,-360 455.5,-360 510.5,-360 510.5,-360 516.5,-360 522.5,-366 522.5,-372 522.5,-372 522.5,-384 522.5,-384 522.5,-390 516.5,-396 510.5,-396"/>
<text text-anchor="middle" x="483" y="-375.5" font-family="sans" font-size="10.00">final_asv_files</text>
</g>
<!-- 15&#45;&gt;0 -->
<g id="edge9" class="edge">
<title>15&#45;&gt;0</title>
<path fill="none" stroke="grey" stroke-width="2" d="M482.8,-359.95C482.51,-333.29 482,-280.12 482,-235 482,-235 482,-235 482,-161 482,-116.06 468.54,-100.76 434,-72 397.48,-41.59 343.15,-28.51 307.17,-22.97"/>
<polygon fill="grey" stroke="grey" stroke-width="2" points="307.47,-19.48 297.08,-21.54 306.49,-26.41 307.47,-19.48"/>
</g>
<!-- 16&#45;&gt;15 -->
<g id="edge23" class="edge">
<title>16&#45;&gt;15</title>
<path fill="none" stroke="grey" stroke-width="2" d="M493.55,-503.87C491.51,-479.67 487.75,-435.21 485.31,-406.39"/>
<polygon fill="grey" stroke="grey" stroke-width="2" points="488.78,-405.86 484.45,-396.19 481.81,-406.45 488.78,-405.86"/>
</g>
<!-- 17 -->
<g id="node18" class="node">
<title>17</title>
<path fill="none" stroke="#d88556" stroke-width="2" d="M627.5,-252C627.5,-252 544.5,-252 544.5,-252 538.5,-252 532.5,-246 532.5,-240 532.5,-240 532.5,-228 532.5,-228 532.5,-222 538.5,-216 544.5,-216 544.5,-216 627.5,-216 627.5,-216 633.5,-216 639.5,-222 639.5,-228 639.5,-228 639.5,-240 639.5,-240 639.5,-246 633.5,-252 627.5,-252"/>
<text text-anchor="middle" x="586" y="-231.5" font-family="sans" font-size="10.00">final_phylogeny_files</text>
</g>
<!-- 17&#45;&gt;0 -->
<g id="edge6" class="edge">
<title>17&#45;&gt;0</title>
<path fill="none" stroke="grey" stroke-width="2" d="M581.45,-215.82C571.72,-182.57 545.62,-109.38 496,-72 439.92,-29.75 355.51,-20.46 307.29,-18.84"/>
<polygon fill="grey" stroke="grey" stroke-width="2" points="307.37,-15.34 297.29,-18.59 307.2,-22.33 307.37,-15.34"/>
</g>
<!-- 18&#45;&gt;17 -->
<g id="edge25" class="edge">
<title>18&#45;&gt;17</title>
<path fill="none" stroke="grey" stroke-width="2" d="M598.23,-503.97C596.06,-456.29 589.92,-321.18 587.26,-262.63"/>
<polygon fill="grey" stroke="grey" stroke-width="2" points="590.74,-262.14 586.79,-252.31 583.74,-262.46 590.74,-262.14"/>
</g>
<!-- 19&#45;&gt;0 -->
<g id="edge5" class="edge">
<title>19&#45;&gt;0</title>
<path fill="none" stroke="grey" stroke-width="2" d="M304.95,-215.85C298.37,-178.75 282.75,-90.81 274.81,-46.1"/>
<polygon fill="grey" stroke="grey" stroke-width="2" points="278.25,-45.47 273.06,-36.23 271.36,-46.69 278.25,-45.47"/>
</g>
<!-- 20 -->
<g id="node21" class="node">
<title>20</title>
<path fill="none" stroke="#d85656" stroke-width="2" d="M390,-108C390,-108 310,-108 310,-108 304,-108 298,-102 298,-96 298,-96 298,-84 298,-84 298,-78 304,-72 310,-72 310,-72 390,-72 390,-72 396,-72 402,-78 402,-84 402,-84 402,-96 402,-96 402,-102 396,-108 390,-108"/>
<text text-anchor="middle" x="350" y="-87.5" font-family="sans" font-size="10.00">subsample_otutable</text>
</g>
<!-- 19&#45;&gt;20 -->
<g id="edge29" class="edge">
<title>19&#45;&gt;20</title>
<path fill="none" stroke="grey" stroke-width="2" d="M310.65,-215.67C313.66,-197.54 319.19,-168.38 327,-144 329.81,-135.21 333.58,-125.89 337.24,-117.56"/>
<polygon fill="grey" stroke="grey" stroke-width="2" points="340.49,-118.88 341.44,-108.33 334.11,-115.99 340.49,-118.88"/>
</g>
<!-- 21 -->
<g id="node22" class="node">
<title>21</title>
<path fill="none" stroke="#56b1d8" stroke-width="2" d="M399.5,-180C399.5,-180 348.5,-180 348.5,-180 342.5,-180 336.5,-174 336.5,-168 336.5,-168 336.5,-156 336.5,-156 336.5,-150 342.5,-144 348.5,-144 348.5,-144 399.5,-144 399.5,-144 405.5,-144 411.5,-150 411.5,-156 411.5,-156 411.5,-168 411.5,-168 411.5,-174 405.5,-180 399.5,-180"/>
<text text-anchor="middle" x="374" y="-159.5" font-family="sans" font-size="10.00">count_groups</text>
</g>
<!-- 19&#45;&gt;21 -->
<g id="edge30" class="edge">
<title>19&#45;&gt;21</title>
<path fill="none" stroke="grey" stroke-width="2" d="M324.31,-215.7C332.31,-207.22 342.07,-196.86 350.82,-187.58"/>
<polygon fill="grey" stroke="grey" stroke-width="2" points="353.56,-189.78 357.87,-180.1 348.47,-184.98 353.56,-189.78"/>
</g>
<!-- 20&#45;&gt;0 -->
<g id="edge4" class="edge">
<title>20&#45;&gt;0</title>
<path fill="none" stroke="grey" stroke-width="2" d="M330.22,-71.7C320.25,-62.97 307.99,-52.24 297.14,-42.75"/>
<polygon fill="grey" stroke="grey" stroke-width="2" points="299.38,-40.06 289.55,-36.1 294.77,-45.32 299.38,-40.06"/>
</g>
<!-- 21&#45;&gt;20 -->
<g id="edge28" class="edge">
<title>21&#45;&gt;20</title>
<path fill="none" stroke="grey" stroke-width="2" d="M368.07,-143.7C365.39,-135.9 362.17,-126.51 359.2,-117.83"/>
<polygon fill="grey" stroke="grey" stroke-width="2" points="362.42,-116.43 355.86,-108.1 355.8,-118.7 362.42,-116.43"/>
</g>
</g>
</svg>
