<?xml version="1.0" encoding="UTF-8" standalone="no"?>
<!DOCTYPE svg PUBLIC "-//W3C//DTD SVG 1.1//EN"
 "http://www.w3.org/Graphics/SVG/1.1/DTD/svg11.dtd">
<!-- Generated by graphviz version 7.1.0 (0)
 -->
<!-- Title: snakemake_dag Pages: 1 -->
<svg width="916pt" height="476pt"
 viewBox="0.00 0.00 915.50 476.00" xmlns="http://www.w3.org/2000/svg" xmlns:xlink="http://www.w3.org/1999/xlink">
<g id="graph0" class="graph" transform="scale(1 1) rotate(0) translate(4 472)">
<title>snakemake_dag</title>
<polygon fill="white" stroke="none" points="-4,4 -4,-472 911.5,-472 911.5,4 -4,4"/>
<!-- 0 -->
<g id="node1" class="node">
<title>0</title>
<path fill="none" stroke="#d87556" stroke-width="2" d="M461.5,-36C461.5,-36 431.5,-36 431.5,-36 425.5,-36 419.5,-30 419.5,-24 419.5,-24 419.5,-12 419.5,-12 419.5,-6 425.5,0 431.5,0 431.5,0 461.5,0 461.5,0 467.5,0 473.5,-6 473.5,-12 473.5,-12 473.5,-24 473.5,-24 473.5,-30 467.5,-36 461.5,-36"/>
<text text-anchor="middle" x="446.5" y="-15.5" font-family="sans" font-size="10.00">all</text>
</g>
<!-- 1 -->
<g id="node2" class="node">
<title>1</title>
<path fill="none" stroke="#56d8c9" stroke-width="2" d="M63,-180C63,-180 12,-180 12,-180 6,-180 0,-174 0,-168 0,-168 0,-156 0,-156 0,-150 6,-144 12,-144 12,-144 63,-144 63,-144 69,-144 75,-150 75,-156 75,-156 75,-168 75,-168 75,-174 69,-180 63,-180"/>
<text text-anchor="middle" x="37.5" y="-159.5" font-family="sans" font-size="10.00">dot_rulegraph</text>
</g>
<!-- 1&#45;&gt;0 -->
<g id="edge8" class="edge">
<title>1&#45;&gt;0</title>
<path fill="none" stroke="grey" stroke-width="2" d="M36.02,-143.06C35.41,-122.7 37.9,-89.99 57.5,-72 107.66,-25.96 316.43,-19.5 405.71,-18.88"/>
<polygon fill="grey" stroke="grey" stroke-width="2" points="405.71,-22.38 415.7,-18.84 405.69,-15.38 405.71,-22.38"/>
</g>
<!-- 2 -->
<g id="node3" class="node">
<title>2</title>
<path fill="none" stroke="#d85656" stroke-width="2" d="M176.5,-108C176.5,-108 78.5,-108 78.5,-108 72.5,-108 66.5,-102 66.5,-96 66.5,-96 66.5,-84 66.5,-84 66.5,-78 72.5,-72 78.5,-72 78.5,-72 176.5,-72 176.5,-72 182.5,-72 188.5,-78 188.5,-84 188.5,-84 188.5,-96 188.5,-96 188.5,-102 182.5,-108 176.5,-108"/>
<text text-anchor="middle" x="127.5" y="-87.5" font-family="sans" font-size="10.00">deploy_to_github_pages</text>
</g>
<!-- 1&#45;&gt;2 -->
<g id="edge14" class="edge">
<title>1&#45;&gt;2</title>
<path fill="none" stroke="grey" stroke-width="2" d="M60.21,-143.34C70.58,-135.27 83.05,-125.57 94.43,-116.72"/>
<polygon fill="grey" stroke="grey" stroke-width="2" points="96.35,-119.66 102.09,-110.76 92.05,-114.14 96.35,-119.66"/>
</g>
<!-- 2&#45;&gt;0 -->
<g id="edge1" class="edge">
<title>2&#45;&gt;0</title>
<path fill="none" stroke="grey" stroke-width="2" d="M189.29,-74.95C193.76,-73.95 198.2,-72.95 202.5,-72 274.06,-56.12 357.55,-38.09 405.98,-27.68"/>
<polygon fill="grey" stroke="grey" stroke-width="2" points="406.67,-31.12 415.71,-25.59 405.2,-24.27 406.67,-31.12"/>
</g>
<!-- 3 -->
<g id="node4" class="node">
<title>3</title>
<path fill="none" stroke="#56d892" stroke-width="2" d="M149.5,-180C149.5,-180 105.5,-180 105.5,-180 99.5,-180 93.5,-174 93.5,-168 93.5,-168 93.5,-156 93.5,-156 93.5,-150 99.5,-144 105.5,-144 105.5,-144 149.5,-144 149.5,-144 155.5,-144 161.5,-150 161.5,-156 161.5,-156 161.5,-168 161.5,-168 161.5,-174 155.5,-180 149.5,-180"/>
<text text-anchor="middle" x="127.5" y="-159.5" font-family="sans" font-size="10.00">project_tree</text>
</g>
<!-- 3&#45;&gt;2 -->
<g id="edge12" class="edge">
<title>3&#45;&gt;2</title>
<path fill="none" stroke="grey" stroke-width="2" d="M127.5,-143.34C127.5,-136.75 127.5,-129.08 127.5,-121.67"/>
<polygon fill="grey" stroke="grey" stroke-width="2" points="131,-121.93 127.5,-111.93 124,-121.93 131,-121.93"/>
</g>
<!-- 4 -->
<g id="node5" class="node">
<title>4</title>
<path fill="none" stroke="#56d8a9" stroke-width="2" d="M289,-180C289,-180 192,-180 192,-180 186,-180 180,-174 180,-168 180,-168 180,-156 180,-156 180,-150 186,-144 192,-144 192,-144 289,-144 289,-144 295,-144 301,-150 301,-156 301,-156 301,-168 301,-168 301,-174 295,-180 289,-180"/>
<text text-anchor="middle" x="240.5" y="-159.5" font-family="sans" font-size="10.00">snakemake_html_report</text>
</g>
<!-- 4&#45;&gt;0 -->
<g id="edge6" class="edge">
<title>4&#45;&gt;0</title>
<path fill="none" stroke="grey" stroke-width="2" d="M233.22,-143.25C226.49,-123.67 219.7,-92.26 235.5,-72 256.21,-45.45 350.42,-30.17 405.71,-23.35"/>
<polygon fill="grey" stroke="grey" stroke-width="2" points="406,-26.84 415.52,-22.18 405.18,-19.88 406,-26.84"/>
</g>
<!-- 4&#45;&gt;2 -->
<g id="edge13" class="edge">
<title>4&#45;&gt;2</title>
<path fill="none" stroke="grey" stroke-width="2" d="M211.69,-143.15C198.15,-134.76 181.78,-124.62 167.09,-115.52"/>
<polygon fill="grey" stroke="grey" stroke-width="2" points="169.17,-112.7 158.83,-110.41 165.49,-118.65 169.17,-112.7"/>
</g>
<!-- 5 -->
<g id="node6" class="node">
<title>5</title>
<path fill="none" stroke="#d8cb56" stroke-width="2" d="M368.5,-108C368.5,-108 256.5,-108 256.5,-108 250.5,-108 244.5,-102 244.5,-96 244.5,-96 244.5,-84 244.5,-84 244.5,-78 250.5,-72 256.5,-72 256.5,-72 368.5,-72 368.5,-72 374.5,-72 380.5,-78 380.5,-84 380.5,-84 380.5,-96 380.5,-96 380.5,-102 374.5,-108 368.5,-108"/>
<text text-anchor="middle" x="312.5" y="-87.5" font-family="sans" font-size="10.00">auto_mothur_mapping_files</text>
</g>
<!-- 5&#45;&gt;0 -->
<g id="edge3" class="edge">
<title>5&#45;&gt;0</title>
<path fill="none" stroke="grey" stroke-width="2" d="M346.66,-71.15C365.15,-61.49 388.08,-49.52 407.3,-39.48"/>
<polygon fill="grey" stroke="grey" stroke-width="2" points="408.79,-42.65 416.03,-34.92 405.55,-36.44 408.79,-42.65"/>
</g>
<!-- 6 -->
<g id="node7" class="node">
<title>6</title>
<path fill="none" stroke="#56c9d8" stroke-width="2" d="M450.5,-252C450.5,-252 364.5,-252 364.5,-252 358.5,-252 352.5,-246 352.5,-240 352.5,-240 352.5,-228 352.5,-228 352.5,-222 358.5,-216 364.5,-216 364.5,-216 450.5,-216 450.5,-216 456.5,-216 462.5,-222 462.5,-228 462.5,-228 462.5,-240 462.5,-240 462.5,-246 456.5,-252 450.5,-252"/>
<text text-anchor="middle" x="407.5" y="-231.5" font-family="sans" font-size="10.00">mothur_classify_otus</text>
</g>
<!-- 6&#45;&gt;0 -->
<g id="edge9" class="edge">
<title>6&#45;&gt;0</title>
<path fill="none" stroke="grey" stroke-width="2" d="M410.76,-215.12C417.41,-178.62 432.63,-95.13 440.9,-49.74"/>
<polygon fill="grey" stroke="grey" stroke-width="2" points="444.33,-50.42 442.68,-39.96 437.44,-49.17 444.33,-50.42"/>
</g>
<!-- 15 -->
<g id="node16" class="node">
<title>15</title>
<path fill="none" stroke="#56d873" stroke-width="2" d="M558.5,-180C558.5,-180 448.5,-180 448.5,-180 442.5,-180 436.5,-174 436.5,-168 436.5,-168 436.5,-156 436.5,-156 436.5,-150 442.5,-144 448.5,-144 448.5,-144 558.5,-144 558.5,-144 564.5,-144 570.5,-150 570.5,-156 570.5,-156 570.5,-168 570.5,-168 570.5,-174 564.5,-180 558.5,-180"/>
<text text-anchor="middle" x="503.5" y="-159.5" font-family="sans" font-size="10.00">mothur_split_group_shared</text>
</g>
<!-- 6&#45;&gt;15 -->
<g id="edge24" class="edge">
<title>6&#45;&gt;15</title>
<path fill="none" stroke="grey" stroke-width="2" d="M431.97,-215.15C443.14,-207.01 456.57,-197.22 468.77,-188.33"/>
<polygon fill="grey" stroke="grey" stroke-width="2" points="470.61,-191.32 476.63,-182.6 466.48,-185.66 470.61,-191.32"/>
</g>
<!-- 7 -->
<g id="node8" class="node">
<title>7</title>
<path fill="none" stroke="#70d856" stroke-width="2" d="M752.5,-324C752.5,-324 630.5,-324 630.5,-324 624.5,-324 618.5,-318 618.5,-312 618.5,-312 618.5,-300 618.5,-300 618.5,-294 624.5,-288 630.5,-288 630.5,-288 752.5,-288 752.5,-288 758.5,-288 764.5,-294 764.5,-300 764.5,-300 764.5,-312 764.5,-312 764.5,-318 758.5,-324 752.5,-324"/>
<text text-anchor="middle" x="691.5" y="-303.5" font-family="sans" font-size="10.00">mothur_final_processed_seqs</text>
</g>
<!-- 7&#45;&gt;6 -->
<g id="edge15" class="edge">
<title>7&#45;&gt;6</title>
<path fill="none" stroke="grey" stroke-width="2" d="M617.56,-287.64C577.99,-278.24 528.12,-266.24 475.92,-253.09"/>
<polygon fill="grey" stroke="grey" stroke-width="2" points="476.82,-249.71 466.26,-250.65 475.1,-256.5 476.82,-249.71"/>
</g>
<!-- 10 -->
<g id="node11" class="node">
<title>10</title>
<path fill="none" stroke="#59d856" stroke-width="2" d="M602,-252C602,-252 493,-252 493,-252 487,-252 481,-246 481,-240 481,-240 481,-228 481,-228 481,-222 487,-216 493,-216 493,-216 602,-216 602,-216 608,-216 614,-222 614,-228 614,-228 614,-240 614,-240 614,-246 608,-252 602,-252"/>
<text text-anchor="middle" x="547.5" y="-231.5" font-family="sans" font-size="10.00">mothur_classify_phylotype</text>
</g>
<!-- 7&#45;&gt;10 -->
<g id="edge18" class="edge">
<title>7&#45;&gt;10</title>
<path fill="none" stroke="grey" stroke-width="2" d="M654.79,-287.15C636.92,-278.47 615.19,-267.91 595.98,-258.56"/>
<polygon fill="grey" stroke="grey" stroke-width="2" points="597.64,-255.48 587.12,-254.26 594.58,-261.78 597.64,-255.48"/>
</g>
<!-- 11 -->
<g id="node12" class="node">
<title>11</title>
<path fill="none" stroke="#c6d856" stroke-width="2" d="M732.5,-252C732.5,-252 644.5,-252 644.5,-252 638.5,-252 632.5,-246 632.5,-240 632.5,-240 632.5,-228 632.5,-228 632.5,-222 638.5,-216 644.5,-216 644.5,-216 732.5,-216 732.5,-216 738.5,-216 744.5,-222 744.5,-228 744.5,-228 744.5,-240 744.5,-240 744.5,-246 738.5,-252 732.5,-252"/>
<text text-anchor="middle" x="688.5" y="-231.5" font-family="sans" font-size="10.00">mothur_classify_asvs</text>
</g>
<!-- 7&#45;&gt;11 -->
<g id="edge19" class="edge">
<title>7&#45;&gt;11</title>
<path fill="none" stroke="grey" stroke-width="2" d="M690.74,-287.34C690.46,-280.75 690.13,-273.08 689.81,-265.67"/>
<polygon fill="grey" stroke="grey" stroke-width="2" points="693.32,-265.77 689.4,-255.93 686.33,-266.07 693.32,-265.77"/>
</g>
<!-- 12 -->
<g id="node13" class="node">
<title>12</title>
<path fill="none" stroke="#afd856" stroke-width="2" d="M805,-108C805,-108 694,-108 694,-108 688,-108 682,-102 682,-96 682,-96 682,-84 682,-84 682,-78 688,-72 694,-72 694,-72 805,-72 805,-72 811,-72 817,-78 817,-84 817,-84 817,-96 817,-96 817,-102 811,-108 805,-108"/>
<text text-anchor="middle" x="749.5" y="-87.5" font-family="sans" font-size="10.00">mothur_classify_phylogeny</text>
</g>
<!-- 7&#45;&gt;12 -->
<g id="edge20" class="edge">
<title>7&#45;&gt;12</title>
<path fill="none" stroke="grey" stroke-width="2" d="M721.98,-287.23C734.17,-278.35 746.86,-266.4 753.5,-252 772.83,-210.04 765.54,-155.17 757.94,-121.54"/>
<polygon fill="grey" stroke="grey" stroke-width="2" points="761.35,-120.76 755.57,-111.88 754.56,-122.42 761.35,-120.76"/>
</g>
<!-- 13 -->
<g id="node14" class="node">
<title>13</title>
<path fill="none" stroke="#5692d8" stroke-width="2" d="M882,-252C882,-252 813,-252 813,-252 807,-252 801,-246 801,-240 801,-240 801,-228 801,-228 801,-222 807,-216 813,-216 813,-216 882,-216 882,-216 888,-216 894,-222 894,-228 894,-228 894,-240 894,-240 894,-246 888,-252 882,-252"/>
<text text-anchor="middle" x="847.5" y="-231.5" font-family="sans" font-size="10.00">mothur_error_rate</text>
</g>
<!-- 7&#45;&gt;13 -->
<g id="edge21" class="edge">
<title>7&#45;&gt;13</title>
<path fill="none" stroke="grey" stroke-width="2" d="M731.27,-287.15C750.9,-278.34 774.84,-267.61 795.87,-258.17"/>
<polygon fill="grey" stroke="grey" stroke-width="2" points="797.08,-261.46 804.77,-254.17 794.21,-255.07 797.08,-261.46"/>
</g>
<!-- 8 -->
<g id="node9" class="node">
<title>8</title>
<path fill="none" stroke="#5673d8" stroke-width="2" d="M776,-396C776,-396 661,-396 661,-396 655,-396 649,-390 649,-384 649,-384 649,-372 649,-372 649,-366 655,-360 661,-360 661,-360 776,-360 776,-360 782,-360 788,-366 788,-372 788,-372 788,-384 788,-384 788,-390 782,-396 776,-396"/>
<text text-anchor="middle" x="718.5" y="-375.5" font-family="sans" font-size="10.00">mothur_process_sequences</text>
</g>
<!-- 8&#45;&gt;7 -->
<g id="edge16" class="edge">
<title>8&#45;&gt;7</title>
<path fill="none" stroke="grey" stroke-width="2" d="M711.69,-359.34C709.05,-352.51 705.96,-344.5 703.01,-336.83"/>
<polygon fill="grey" stroke="grey" stroke-width="2" points="706.36,-335.8 699.49,-327.73 699.83,-338.32 706.36,-335.8"/>
</g>
<!-- 9 -->
<g id="node10" class="node">
<title>9</title>
<path fill="none" stroke="#8fd856" stroke-width="2" d="M813.5,-468C813.5,-468 721.5,-468 721.5,-468 715.5,-468 709.5,-462 709.5,-456 709.5,-456 709.5,-444 709.5,-444 709.5,-438 715.5,-432 721.5,-432 721.5,-432 813.5,-432 813.5,-432 819.5,-432 825.5,-438 825.5,-444 825.5,-444 825.5,-456 825.5,-456 825.5,-462 819.5,-468 813.5,-468"/>
<text text-anchor="middle" x="767.5" y="-447.5" font-family="sans" font-size="10.00">get_mothur_references</text>
</g>
<!-- 9&#45;&gt;8 -->
<g id="edge17" class="edge">
<title>9&#45;&gt;8</title>
<path fill="none" stroke="grey" stroke-width="2" d="M755.14,-431.34C750.07,-424.1 744.07,-415.53 738.42,-407.45"/>
<polygon fill="grey" stroke="grey" stroke-width="2" points="741.37,-405.57 732.77,-399.38 735.63,-409.58 741.37,-405.57"/>
</g>
<!-- 14 -->
<g id="node15" class="node">
<title>14</title>
<path fill="none" stroke="#d88d56" stroke-width="2" d="M895.5,-324C895.5,-324 795.5,-324 795.5,-324 789.5,-324 783.5,-318 783.5,-312 783.5,-312 783.5,-300 783.5,-300 783.5,-294 789.5,-288 795.5,-288 795.5,-288 895.5,-288 895.5,-288 901.5,-288 907.5,-294 907.5,-300 907.5,-300 907.5,-312 907.5,-312 907.5,-318 901.5,-324 895.5,-324"/>
<text text-anchor="middle" x="845.5" y="-303.5" font-family="sans" font-size="10.00">get_mothur_zymo_mock</text>
</g>
<!-- 9&#45;&gt;14 -->
<g id="edge23" class="edge">
<title>9&#45;&gt;14</title>
<path fill="none" stroke="grey" stroke-width="2" d="M777.38,-431.02C790.51,-407.12 813.86,-364.59 829.52,-336.1"/>
<polygon fill="grey" stroke="grey" stroke-width="2" points="832.5,-337.94 834.24,-327.49 826.36,-334.57 832.5,-337.94"/>
</g>
<!-- 10&#45;&gt;0 -->
<g id="edge5" class="edge">
<title>10&#45;&gt;0</title>
<path fill="none" stroke="grey" stroke-width="2" d="M560.86,-215.15C582.73,-183.56 620.77,-116.93 589.5,-72 566.6,-39.1 520.77,-26.57 487.14,-21.83"/>
<polygon fill="grey" stroke="grey" stroke-width="2" points="487.83,-18.39 477.48,-20.69 487,-25.34 487.83,-18.39"/>
</g>
<!-- 11&#45;&gt;0 -->
<g id="edge2" class="edge">
<title>11&#45;&gt;0</title>
<path fill="none" stroke="grey" stroke-width="2" d="M684.62,-215.19C676.52,-182.15 654.66,-111.17 609.5,-72 574.76,-41.87 522.57,-28.8 486.66,-23.18"/>
<polygon fill="grey" stroke="grey" stroke-width="2" points="487.61,-19.78 477.22,-21.85 486.63,-26.71 487.61,-19.78"/>
</g>
<!-- 12&#45;&gt;0 -->
<g id="edge4" class="edge">
<title>12&#45;&gt;0</title>
<path fill="none" stroke="grey" stroke-width="2" d="M681.12,-73.2C621.2,-59.36 536.14,-39.71 486.61,-28.27"/>
<polygon fill="grey" stroke="grey" stroke-width="2" points="487.7,-24.93 477.17,-26.09 486.12,-31.75 487.7,-24.93"/>
</g>
<!-- 13&#45;&gt;0 -->
<g id="edge11" class="edge">
<title>13&#45;&gt;0</title>
<path fill="none" stroke="grey" stroke-width="2" d="M851.23,-215.04C857,-181.74 863.74,-110.36 825.5,-72 778.76,-25.11 575.08,-19.11 487.16,-18.75"/>
<polygon fill="grey" stroke="grey" stroke-width="2" points="487.36,-15.25 477.35,-18.74 487.35,-22.25 487.36,-15.25"/>
</g>
<!-- 14&#45;&gt;13 -->
<g id="edge22" class="edge">
<title>14&#45;&gt;13</title>
<path fill="none" stroke="grey" stroke-width="2" d="M846,-287.34C846.19,-280.75 846.41,-273.08 846.62,-265.67"/>
<polygon fill="grey" stroke="grey" stroke-width="2" points="850.11,-266.02 846.9,-255.93 843.12,-265.82 850.11,-266.02"/>
</g>
<!-- 15&#45;&gt;0 -->
<g id="edge7" class="edge">
<title>15&#45;&gt;0</title>
<path fill="none" stroke="grey" stroke-width="2" d="M487.75,-143.02C479.98,-133.26 471.08,-120.63 465.5,-108 457.29,-89.44 452.54,-67.09 449.84,-49.44"/>
<polygon fill="grey" stroke="grey" stroke-width="2" points="453.33,-49.16 448.52,-39.72 446.4,-50.1 453.33,-49.16"/>
</g>
<!-- 16 -->
<g id="node17" class="node">
<title>16</title>
<path fill="none" stroke="#56a9d8" stroke-width="2" d="M568.5,-108C568.5,-108 486.5,-108 486.5,-108 480.5,-108 474.5,-102 474.5,-96 474.5,-96 474.5,-84 474.5,-84 474.5,-78 480.5,-72 486.5,-72 486.5,-72 568.5,-72 568.5,-72 574.5,-72 580.5,-78 580.5,-84 580.5,-84 580.5,-96 580.5,-96 580.5,-102 574.5,-108 568.5,-108"/>
<text text-anchor="middle" x="527.5" y="-87.5" font-family="sans" font-size="10.00">alpha_beta_diversity</text>
</g>
<!-- 15&#45;&gt;16 -->
<g id="edge25" class="edge">
<title>15&#45;&gt;16</title>
<path fill="none" stroke="grey" stroke-width="2" d="M509.56,-143.34C511.87,-136.59 514.58,-128.69 517.18,-121.11"/>
<polygon fill="grey" stroke="grey" stroke-width="2" points="520.45,-122.36 520.38,-111.77 513.83,-120.09 520.45,-122.36"/>
</g>
<!-- 16&#45;&gt;0 -->
<g id="edge10" class="edge">
<title>16&#45;&gt;0</title>
<path fill="none" stroke="grey" stroke-width="2" d="M507.06,-71.34C497.92,-63.44 486.96,-53.96 476.89,-45.26"/>
<polygon fill="grey" stroke="grey" stroke-width="2" points="479.36,-42.77 469.51,-38.88 474.78,-48.07 479.36,-42.77"/>
</g>
</g>
</svg>
