<?xml version="1.0" encoding="UTF-8" standalone="no"?>
<!DOCTYPE svg PUBLIC "-//W3C//DTD SVG 1.1//EN"
 "http://www.w3.org/Graphics/SVG/1.1/DTD/svg11.dtd">
<!-- Generated by graphviz version 6.0.1 (0)
 -->
<!-- Title: snakemake_dag Pages: 1 -->
<svg width="569pt" height="836pt"
 viewBox="0.00 0.00 568.50 836.00" xmlns="http://www.w3.org/2000/svg" xmlns:xlink="http://www.w3.org/1999/xlink">
<g id="graph0" class="graph" transform="scale(1 1) rotate(0) translate(4 832)">
<title>snakemake_dag</title>
<polygon fill="white" stroke="none" points="-4,4 -4,-832 564.5,-832 564.5,4 -4,4"/>
<!-- 0 -->
<g id="node1" class="node">
<title>0</title>
<path fill="none" stroke="#56d8c1" stroke-width="2" d="M253.5,-36C253.5,-36 223.5,-36 223.5,-36 217.5,-36 211.5,-30 211.5,-24 211.5,-24 211.5,-12 211.5,-12 211.5,-6 217.5,0 223.5,0 223.5,0 253.5,0 253.5,0 259.5,0 265.5,-6 265.5,-12 265.5,-12 265.5,-24 265.5,-24 265.5,-30 259.5,-36 253.5,-36"/>
<text text-anchor="middle" x="238.5" y="-15.5" font-family="sans" font-size="10.00">all</text>
</g>
<!-- 1 -->
<g id="node2" class="node">
<title>1</title>
<path fill="none" stroke="#d85656" stroke-width="2" d="M77,-612C77,-612 12,-612 12,-612 6,-612 0,-606 0,-600 0,-600 0,-588 0,-588 0,-582 6,-576 12,-576 12,-576 77,-576 77,-576 83,-576 89,-582 89,-588 89,-588 89,-600 89,-600 89,-606 83,-612 77,-612"/>
<text text-anchor="middle" x="44.5" y="-591.5" font-family="sans" font-size="10.00">get_zymo_mock</text>
</g>
<!-- 1&#45;&gt;0 -->
<g id="edge1" class="edge">
<title>1&#45;&gt;0</title>
<path fill="none" stroke="grey" stroke-width="2" d="M40.45,-575.62C34.61,-548.97 24.5,-496.31 24.5,-451 24.5,-451 24.5,-451 24.5,-161 24.5,-77.12 140.06,-39.84 201.34,-25.97"/>
<polygon fill="grey" stroke="grey" stroke-width="2" points="202.36,-29.32 211.4,-23.79 200.88,-22.48 202.36,-29.32"/>
</g>
<!-- 2 -->
<g id="node3" class="node">
<title>2</title>
<path fill="none" stroke="#d6d856" stroke-width="2" d="M128,-756C128,-756 71,-756 71,-756 65,-756 59,-750 59,-744 59,-744 59,-732 59,-732 59,-726 65,-720 71,-720 71,-720 128,-720 128,-720 134,-720 140,-726 140,-732 140,-732 140,-744 140,-744 140,-750 134,-756 128,-756"/>
<text text-anchor="middle" x="99.5" y="-735.5" font-family="sans" font-size="10.00">get_references</text>
</g>
<!-- 2&#45;&gt;1 -->
<g id="edge8" class="edge">
<title>2&#45;&gt;1</title>
<path fill="none" stroke="grey" stroke-width="2" d="M92.87,-719.87C83.41,-695.46 65.97,-650.43 54.82,-621.64"/>
<polygon fill="grey" stroke="grey" stroke-width="2" points="58.03,-620.25 51.16,-612.19 51.51,-622.78 58.03,-620.25"/>
</g>
<!-- 7 -->
<g id="node8" class="node">
<title>7</title>
<path fill="none" stroke="#d8bc56" stroke-width="2" d="M225.5,-612C225.5,-612 139.5,-612 139.5,-612 133.5,-612 127.5,-606 127.5,-600 127.5,-600 127.5,-588 127.5,-588 127.5,-582 133.5,-576 139.5,-576 139.5,-576 225.5,-576 225.5,-576 231.5,-576 237.5,-582 237.5,-588 237.5,-588 237.5,-600 237.5,-600 237.5,-606 231.5,-612 225.5,-612"/>
<text text-anchor="middle" x="182.5" y="-591.5" font-family="sans" font-size="10.00">denoise_n_classify80</text>
</g>
<!-- 2&#45;&gt;7 -->
<g id="edge15" class="edge">
<title>2&#45;&gt;7</title>
<path fill="none" stroke="grey" stroke-width="2" d="M105.08,-719.86C111.49,-701.37 123.01,-671.44 137.5,-648 143.56,-638.2 151.36,-628.33 158.76,-619.82"/>
<polygon fill="grey" stroke="grey" stroke-width="2" points="161.6,-621.9 165.66,-612.11 156.38,-617.23 161.6,-621.9"/>
</g>
<!-- 8 -->
<g id="node9" class="node">
<title>8</title>
<path fill="none" stroke="#d88d56" stroke-width="2" d="M206,-684C206,-684 159,-684 159,-684 153,-684 147,-678 147,-672 147,-672 147,-660 147,-660 147,-654 153,-648 159,-648 159,-648 206,-648 206,-648 212,-648 218,-654 218,-660 218,-660 218,-672 218,-672 218,-678 212,-684 206,-684"/>
<text text-anchor="middle" x="182.5" y="-663.5" font-family="sans" font-size="10.00">align_n_filter</text>
</g>
<!-- 2&#45;&gt;8 -->
<g id="edge17" class="edge">
<title>2&#45;&gt;8</title>
<path fill="none" stroke="grey" stroke-width="2" d="M120.02,-719.7C130.37,-710.97 143.09,-700.24 154.34,-690.75"/>
<polygon fill="grey" stroke="grey" stroke-width="2" points="156.83,-693.23 162.22,-684.1 152.32,-687.88 156.83,-693.23"/>
</g>
<!-- 3 -->
<g id="node4" class="node">
<title>3</title>
<path fill="none" stroke="#568ad8" stroke-width="2" d="M148,-324C148,-324 95,-324 95,-324 89,-324 83,-318 83,-312 83,-312 83,-300 83,-300 83,-294 89,-288 95,-288 95,-288 148,-288 148,-288 154,-288 160,-294 160,-300 160,-300 160,-312 160,-312 160,-318 154,-324 148,-324"/>
<text text-anchor="middle" x="121.5" y="-303.5" font-family="sans" font-size="10.00">final_otu_files</text>
</g>
<!-- 3&#45;&gt;0 -->
<g id="edge5" class="edge">
<title>3&#45;&gt;0</title>
<path fill="none" stroke="grey" stroke-width="2" d="M120.39,-287.87C118.59,-246.96 119.04,-141.8 164.5,-72 173.84,-57.66 188.52,-45.97 202.35,-37.25"/>
<polygon fill="grey" stroke="grey" stroke-width="2" points="204.44,-40.08 211.25,-31.96 200.86,-34.06 204.44,-40.08"/>
</g>
<!-- 17 -->
<g id="node18" class="node">
<title>17</title>
<path fill="none" stroke="#88d856" stroke-width="2" d="M227.5,-252C227.5,-252 155.5,-252 155.5,-252 149.5,-252 143.5,-246 143.5,-240 143.5,-240 143.5,-228 143.5,-228 143.5,-222 149.5,-216 155.5,-216 155.5,-216 227.5,-216 227.5,-216 233.5,-216 239.5,-222 239.5,-228 239.5,-228 239.5,-240 239.5,-240 239.5,-246 233.5,-252 227.5,-252"/>
<text text-anchor="middle" x="191.5" y="-231.5" font-family="sans" font-size="10.00">otutable_by_group</text>
</g>
<!-- 3&#45;&gt;17 -->
<g id="edge26" class="edge">
<title>3&#45;&gt;17</title>
<path fill="none" stroke="grey" stroke-width="2" d="M138.8,-287.7C147.36,-279.14 157.84,-268.66 167.2,-259.3"/>
<polygon fill="grey" stroke="grey" stroke-width="2" points="169.8,-261.65 174.4,-252.1 164.85,-256.7 169.8,-261.65"/>
</g>
<!-- 4 -->
<g id="node5" class="node">
<title>4</title>
<path fill="none" stroke="#56d8d8" stroke-width="2" d="M149.5,-396C149.5,-396 93.5,-396 93.5,-396 87.5,-396 81.5,-390 81.5,-384 81.5,-384 81.5,-372 81.5,-372 81.5,-366 87.5,-360 93.5,-360 93.5,-360 149.5,-360 149.5,-360 155.5,-360 161.5,-366 161.5,-372 161.5,-372 161.5,-384 161.5,-384 161.5,-390 155.5,-396 149.5,-396"/>
<text text-anchor="middle" x="121.5" y="-375.5" font-family="sans" font-size="10.00">classify_otu97</text>
</g>
<!-- 4&#45;&gt;3 -->
<g id="edge9" class="edge">
<title>4&#45;&gt;3</title>
<path fill="none" stroke="grey" stroke-width="2" d="M121.5,-359.7C121.5,-351.98 121.5,-342.71 121.5,-334.11"/>
<polygon fill="grey" stroke="grey" stroke-width="2" points="125,-334.1 121.5,-324.1 118,-334.1 125,-334.1"/>
</g>
<!-- 5 -->
<g id="node6" class="node">
<title>5</title>
<path fill="none" stroke="#d86e56" stroke-width="2" d="M154,-468C154,-468 103,-468 103,-468 97,-468 91,-462 91,-456 91,-456 91,-444 91,-444 91,-438 97,-432 103,-432 103,-432 154,-432 154,-432 160,-432 166,-438 166,-444 166,-444 166,-456 166,-456 166,-462 160,-468 154,-468"/>
<text text-anchor="middle" x="128.5" y="-447.5" font-family="sans" font-size="10.00">cluster_otu97</text>
</g>
<!-- 5&#45;&gt;4 -->
<g id="edge11" class="edge">
<title>5&#45;&gt;4</title>
<path fill="none" stroke="grey" stroke-width="2" d="M126.77,-431.7C126,-423.98 125.07,-414.71 124.21,-406.11"/>
<polygon fill="grey" stroke="grey" stroke-width="2" points="127.69,-405.71 123.21,-396.1 120.72,-406.4 127.69,-405.71"/>
</g>
<!-- 6 -->
<g id="node7" class="node">
<title>6</title>
<path fill="none" stroke="#a7d856" stroke-width="2" d="M224,-540C224,-540 141,-540 141,-540 135,-540 129,-534 129,-528 129,-528 129,-516 129,-516 129,-510 135,-504 141,-504 141,-504 224,-504 224,-504 230,-504 236,-510 236,-516 236,-516 236,-528 236,-528 236,-534 230,-540 224,-540"/>
<text text-anchor="middle" x="182.5" y="-519.5" font-family="sans" font-size="10.00">compute_seqdist003</text>
</g>
<!-- 6&#45;&gt;5 -->
<g id="edge13" class="edge">
<title>6&#45;&gt;5</title>
<path fill="none" stroke="grey" stroke-width="2" d="M169.15,-503.7C162.74,-495.39 154.94,-485.28 147.89,-476.14"/>
<polygon fill="grey" stroke="grey" stroke-width="2" points="150.57,-473.88 141.69,-468.1 145.03,-478.16 150.57,-473.88"/>
</g>
<!-- 7&#45;&gt;4 -->
<g id="edge10" class="edge">
<title>7&#45;&gt;4</title>
<path fill="none" stroke="grey" stroke-width="2" d="M151.71,-575.79C137.62,-566.65 121.63,-554.35 110.5,-540 89.36,-512.74 88.06,-501.87 81.5,-468 78.46,-452.29 76.42,-447.17 81.5,-432 84.85,-422 90.92,-412.38 97.33,-404.14"/>
<polygon fill="grey" stroke="grey" stroke-width="2" points="100.06,-406.33 103.77,-396.4 94.68,-401.85 100.06,-406.33"/>
</g>
<!-- 7&#45;&gt;5 -->
<g id="edge12" class="edge">
<title>7&#45;&gt;5</title>
<path fill="none" stroke="grey" stroke-width="2" d="M152.2,-575.8C139.62,-566.9 126.38,-554.77 119.5,-540 110.47,-520.61 113.76,-496.32 118.73,-478.02"/>
<polygon fill="grey" stroke="grey" stroke-width="2" points="122.13,-478.86 121.68,-468.28 115.43,-476.83 122.13,-478.86"/>
</g>
<!-- 7&#45;&gt;6 -->
<g id="edge14" class="edge">
<title>7&#45;&gt;6</title>
<path fill="none" stroke="grey" stroke-width="2" d="M182.5,-575.7C182.5,-567.98 182.5,-558.71 182.5,-550.11"/>
<polygon fill="grey" stroke="grey" stroke-width="2" points="186,-550.1 182.5,-540.1 179,-550.1 186,-550.1"/>
</g>
<!-- 12 -->
<g id="node13" class="node">
<title>12</title>
<path fill="none" stroke="#56c1d8" stroke-width="2" d="M340.5,-540C340.5,-540 266.5,-540 266.5,-540 260.5,-540 254.5,-534 254.5,-528 254.5,-528 254.5,-516 254.5,-516 254.5,-510 260.5,-504 266.5,-504 266.5,-504 340.5,-504 340.5,-504 346.5,-504 352.5,-510 352.5,-516 352.5,-516 352.5,-528 352.5,-528 352.5,-534 346.5,-540 340.5,-540"/>
<text text-anchor="middle" x="303.5" y="-519.5" font-family="sans" font-size="10.00">classify_phylotype</text>
</g>
<!-- 7&#45;&gt;12 -->
<g id="edge21" class="edge">
<title>7&#45;&gt;12</title>
<path fill="none" stroke="grey" stroke-width="2" d="M212.1,-575.88C228.07,-566.64 247.96,-555.13 265.11,-545.21"/>
<polygon fill="grey" stroke="grey" stroke-width="2" points="266.88,-548.23 273.79,-540.19 263.38,-542.17 266.88,-548.23"/>
</g>
<!-- 14 -->
<g id="node15" class="node">
<title>14</title>
<path fill="none" stroke="#56a2d8" stroke-width="2" d="M430,-540C430,-540 383,-540 383,-540 377,-540 371,-534 371,-528 371,-528 371,-516 371,-516 371,-510 377,-504 383,-504 383,-504 430,-504 430,-504 436,-504 442,-510 442,-516 442,-516 442,-528 442,-528 442,-534 436,-540 430,-540"/>
<text text-anchor="middle" x="406.5" y="-519.5" font-family="sans" font-size="10.00">classify_asv</text>
</g>
<!-- 7&#45;&gt;14 -->
<g id="edge23" class="edge">
<title>7&#45;&gt;14</title>
<path fill="none" stroke="grey" stroke-width="2" d="M237.67,-577.8C270.93,-568.37 314.31,-555.62 361.02,-540.05"/>
<polygon fill="grey" stroke="grey" stroke-width="2" points="362.36,-543.29 370.72,-536.79 360.13,-536.65 362.36,-543.29"/>
</g>
<!-- 16 -->
<g id="node17" class="node">
<title>16</title>
<path fill="none" stroke="#59d856" stroke-width="2" d="M548.5,-540C548.5,-540 472.5,-540 472.5,-540 466.5,-540 460.5,-534 460.5,-528 460.5,-528 460.5,-516 460.5,-516 460.5,-510 466.5,-504 472.5,-504 472.5,-504 548.5,-504 548.5,-504 554.5,-504 560.5,-510 560.5,-516 560.5,-516 560.5,-528 560.5,-528 560.5,-534 554.5,-540 548.5,-540"/>
<text text-anchor="middle" x="510.5" y="-519.5" font-family="sans" font-size="10.00">classify_phylogeny</text>
</g>
<!-- 7&#45;&gt;16 -->
<g id="edge25" class="edge">
<title>7&#45;&gt;16</title>
<path fill="none" stroke="grey" stroke-width="2" d="M237.67,-583.56C290.02,-574.29 371.07,-559.09 450.22,-540.21"/>
<polygon fill="grey" stroke="grey" stroke-width="2" points="451.46,-543.51 460.37,-537.76 449.82,-536.7 451.46,-543.51"/>
</g>
<!-- 8&#45;&gt;7 -->
<g id="edge16" class="edge">
<title>8&#45;&gt;7</title>
<path fill="none" stroke="grey" stroke-width="2" d="M182.5,-647.7C182.5,-639.98 182.5,-630.71 182.5,-622.11"/>
<polygon fill="grey" stroke="grey" stroke-width="2" points="186,-622.1 182.5,-612.1 179,-622.1 186,-622.1"/>
</g>
<!-- 9 -->
<g id="node10" class="node">
<title>9</title>
<path fill="none" stroke="#d8a456" stroke-width="2" d="M223,-756C223,-756 170,-756 170,-756 164,-756 158,-750 158,-744 158,-744 158,-732 158,-732 158,-726 164,-720 170,-720 170,-720 223,-720 223,-720 229,-720 235,-726 235,-732 235,-732 235,-744 235,-744 235,-750 229,-756 223,-756"/>
<text text-anchor="middle" x="196.5" y="-735.5" font-family="sans" font-size="10.00">make_contigs</text>
</g>
<!-- 9&#45;&gt;8 -->
<g id="edge18" class="edge">
<title>9&#45;&gt;8</title>
<path fill="none" stroke="grey" stroke-width="2" d="M193.04,-719.7C191.5,-711.98 189.64,-702.71 187.92,-694.11"/>
<polygon fill="grey" stroke="grey" stroke-width="2" points="191.31,-693.22 185.92,-684.1 184.45,-694.6 191.31,-693.22"/>
</g>
<!-- 10 -->
<g id="node11" class="node">
<title>10</title>
<path fill="none" stroke="#56d88a" stroke-width="2" d="M216.5,-828C216.5,-828 176.5,-828 176.5,-828 170.5,-828 164.5,-822 164.5,-816 164.5,-816 164.5,-804 164.5,-804 164.5,-798 170.5,-792 176.5,-792 176.5,-792 216.5,-792 216.5,-792 222.5,-792 228.5,-798 228.5,-804 228.5,-804 228.5,-816 228.5,-816 228.5,-822 222.5,-828 216.5,-828"/>
<text text-anchor="middle" x="196.5" y="-807.5" font-family="sans" font-size="10.00">make_files</text>
</g>
<!-- 10&#45;&gt;9 -->
<g id="edge19" class="edge">
<title>10&#45;&gt;9</title>
<path fill="none" stroke="grey" stroke-width="2" d="M196.5,-791.7C196.5,-783.98 196.5,-774.71 196.5,-766.11"/>
<polygon fill="grey" stroke="grey" stroke-width="2" points="200,-766.1 196.5,-756.1 193,-766.1 200,-766.1"/>
</g>
<!-- 11 -->
<g id="node12" class="node">
<title>11</title>
<path fill="none" stroke="#5673d8" stroke-width="2" d="M348,-324C348,-324 267,-324 267,-324 261,-324 255,-318 255,-312 255,-312 255,-300 255,-300 255,-294 261,-288 267,-288 267,-288 348,-288 348,-288 354,-288 360,-294 360,-300 360,-300 360,-312 360,-312 360,-318 354,-324 348,-324"/>
<text text-anchor="middle" x="307.5" y="-303.5" font-family="sans" font-size="10.00">final_phylotype_files</text>
</g>
<!-- 11&#45;&gt;0 -->
<g id="edge7" class="edge">
<title>11&#45;&gt;0</title>
<path fill="none" stroke="grey" stroke-width="2" d="M311.51,-287.74C319.95,-247.43 335.88,-144.99 299.5,-72 293.62,-60.21 283.85,-49.94 273.83,-41.66"/>
<polygon fill="grey" stroke="grey" stroke-width="2" points="275.86,-38.8 265.81,-35.45 271.58,-44.34 275.86,-38.8"/>
</g>
<!-- 12&#45;&gt;11 -->
<g id="edge20" class="edge">
<title>12&#45;&gt;11</title>
<path fill="none" stroke="grey" stroke-width="2" d="M303.82,-503.85C304.51,-466.83 306.15,-379.18 306.99,-334.39"/>
<polygon fill="grey" stroke="grey" stroke-width="2" points="310.49,-334.3 307.18,-324.23 303.49,-334.17 310.49,-334.3"/>
</g>
<!-- 13 -->
<g id="node14" class="node">
<title>13</title>
<path fill="none" stroke="#70d856" stroke-width="2" d="M422,-396C422,-396 367,-396 367,-396 361,-396 355,-390 355,-384 355,-384 355,-372 355,-372 355,-366 361,-360 367,-360 367,-360 422,-360 422,-360 428,-360 434,-366 434,-372 434,-372 434,-384 434,-384 434,-390 428,-396 422,-396"/>
<text text-anchor="middle" x="394.5" y="-375.5" font-family="sans" font-size="10.00">final_asv_files</text>
</g>
<!-- 13&#45;&gt;0 -->
<g id="edge2" class="edge">
<title>13&#45;&gt;0</title>
<path fill="none" stroke="grey" stroke-width="2" d="M394.3,-359.95C394.01,-333.29 393.5,-280.12 393.5,-235 393.5,-235 393.5,-235 393.5,-161 393.5,-97.12 321.03,-54.2 275.19,-33.45"/>
<polygon fill="grey" stroke="grey" stroke-width="2" points="276.42,-30.17 265.85,-29.36 273.61,-36.58 276.42,-30.17"/>
</g>
<!-- 14&#45;&gt;13 -->
<g id="edge22" class="edge">
<title>14&#45;&gt;13</title>
<path fill="none" stroke="grey" stroke-width="2" d="M405.05,-503.87C403.01,-479.67 399.25,-435.21 396.81,-406.39"/>
<polygon fill="grey" stroke="grey" stroke-width="2" points="400.28,-405.86 395.95,-396.19 393.31,-406.45 400.28,-405.86"/>
</g>
<!-- 15 -->
<g id="node16" class="node">
<title>15</title>
<path fill="none" stroke="#bed856" stroke-width="2" d="M535,-252C535,-252 452,-252 452,-252 446,-252 440,-246 440,-240 440,-240 440,-228 440,-228 440,-222 446,-216 452,-216 452,-216 535,-216 535,-216 541,-216 547,-222 547,-228 547,-228 547,-240 547,-240 547,-246 541,-252 535,-252"/>
<text text-anchor="middle" x="493.5" y="-231.5" font-family="sans" font-size="10.00">final_phylogeny_files</text>
</g>
<!-- 15&#45;&gt;0 -->
<g id="edge3" class="edge">
<title>15&#45;&gt;0</title>
<path fill="none" stroke="grey" stroke-width="2" d="M489.07,-215.89C479.69,-183.09 454.71,-111.13 407.5,-72 369.68,-40.66 313.26,-27.79 276.18,-22.55"/>
<polygon fill="grey" stroke="grey" stroke-width="2" points="276.16,-19.02 265.8,-21.21 275.27,-25.96 276.16,-19.02"/>
</g>
<!-- 16&#45;&gt;15 -->
<g id="edge24" class="edge">
<title>16&#45;&gt;15</title>
<path fill="none" stroke="grey" stroke-width="2" d="M509.49,-503.97C506.65,-456.29 498.62,-321.18 495.14,-262.63"/>
<polygon fill="grey" stroke="grey" stroke-width="2" points="498.62,-262.08 494.53,-252.31 491.63,-262.5 498.62,-262.08"/>
</g>
<!-- 17&#45;&gt;0 -->
<g id="edge6" class="edge">
<title>17&#45;&gt;0</title>
<path fill="none" stroke="grey" stroke-width="2" d="M184.61,-215.6C173.62,-185.01 155.5,-120.25 177.5,-72 183.06,-59.81 192.95,-49.34 203.18,-41.01"/>
<polygon fill="grey" stroke="grey" stroke-width="2" points="205.53,-43.62 211.38,-34.79 201.29,-38.04 205.53,-43.62"/>
</g>
<!-- 18 -->
<g id="node19" class="node">
<title>18</title>
<path fill="none" stroke="#56d8a2" stroke-width="2" d="M278.5,-108C278.5,-108 198.5,-108 198.5,-108 192.5,-108 186.5,-102 186.5,-96 186.5,-96 186.5,-84 186.5,-84 186.5,-78 192.5,-72 198.5,-72 198.5,-72 278.5,-72 278.5,-72 284.5,-72 290.5,-78 290.5,-84 290.5,-84 290.5,-96 290.5,-96 290.5,-102 284.5,-108 278.5,-108"/>
<text text-anchor="middle" x="238.5" y="-87.5" font-family="sans" font-size="10.00">subsample_otutable</text>
</g>
<!-- 17&#45;&gt;18 -->
<g id="edge28" class="edge">
<title>17&#45;&gt;18</title>
<path fill="none" stroke="grey" stroke-width="2" d="M194.03,-215.91C197.03,-197.72 202.74,-168.28 211.5,-144 214.76,-134.97 219.21,-125.5 223.56,-117.11"/>
<polygon fill="grey" stroke="grey" stroke-width="2" points="226.71,-118.64 228.36,-108.17 220.55,-115.33 226.71,-118.64"/>
</g>
<!-- 19 -->
<g id="node20" class="node">
<title>19</title>
<path fill="none" stroke="#56d873" stroke-width="2" d="M283,-180C283,-180 232,-180 232,-180 226,-180 220,-174 220,-168 220,-168 220,-156 220,-156 220,-150 226,-144 232,-144 232,-144 283,-144 283,-144 289,-144 295,-150 295,-156 295,-156 295,-168 295,-168 295,-174 289,-180 283,-180"/>
<text text-anchor="middle" x="257.5" y="-159.5" font-family="sans" font-size="10.00">count_groups</text>
</g>
<!-- 17&#45;&gt;19 -->
<g id="edge29" class="edge">
<title>17&#45;&gt;19</title>
<path fill="none" stroke="grey" stroke-width="2" d="M207.81,-215.7C215.81,-207.22 225.57,-196.86 234.32,-187.58"/>
<polygon fill="grey" stroke="grey" stroke-width="2" points="237.06,-189.78 241.37,-180.1 231.97,-184.98 237.06,-189.78"/>
</g>
<!-- 18&#45;&gt;0 -->
<g id="edge4" class="edge">
<title>18&#45;&gt;0</title>
<path fill="none" stroke="grey" stroke-width="2" d="M238.5,-71.7C238.5,-63.98 238.5,-54.71 238.5,-46.11"/>
<polygon fill="grey" stroke="grey" stroke-width="2" points="242,-46.1 238.5,-36.1 235,-46.1 242,-46.1"/>
</g>
<!-- 19&#45;&gt;18 -->
<g id="edge27" class="edge">
<title>19&#45;&gt;18</title>
<path fill="none" stroke="grey" stroke-width="2" d="M252.8,-143.7C250.69,-135.9 248.14,-126.51 245.78,-117.83"/>
<polygon fill="grey" stroke="grey" stroke-width="2" points="249.14,-116.84 243.14,-108.1 242.38,-118.67 249.14,-116.84"/>
</g>
</g>
</svg>
