<?xml version="1.0" encoding="UTF-8" standalone="no"?>
<!DOCTYPE svg PUBLIC "-//W3C//DTD SVG 1.1//EN"
 "http://www.w3.org/Graphics/SVG/1.1/DTD/svg11.dtd">
<!-- Generated by graphviz version 6.0.1 (0)
 -->
<!-- Title: snakemake_dag Pages: 1 -->
<svg width="947pt" height="548pt"
 viewBox="0.00 0.00 946.50 548.00" xmlns="http://www.w3.org/2000/svg" xmlns:xlink="http://www.w3.org/1999/xlink">
<g id="graph0" class="graph" transform="scale(1 1) rotate(0) translate(4 544)">
<title>snakemake_dag</title>
<polygon fill="white" stroke="none" points="-4,4 -4,-544 942.5,-544 942.5,4 -4,4"/>
<!-- 0 -->
<g id="node1" class="node">
<title>0</title>
<path fill="none" stroke="#56d8a2" stroke-width="2" d="M611,-36C611,-36 581,-36 581,-36 575,-36 569,-30 569,-24 569,-24 569,-12 569,-12 569,-6 575,0 581,0 581,0 611,0 611,0 617,0 623,-6 623,-12 623,-12 623,-24 623,-24 623,-30 617,-36 611,-36"/>
<text text-anchor="middle" x="596" y="-15.5" font-family="sans" font-size="10.00">all</text>
</g>
<!-- 1 -->
<g id="node2" class="node">
<title>1</title>
<path fill="none" stroke="#d6d856" stroke-width="2" d="M252,-108C252,-108 154,-108 154,-108 148,-108 142,-102 142,-96 142,-96 142,-84 142,-84 142,-78 148,-72 154,-72 154,-72 252,-72 252,-72 258,-72 264,-78 264,-84 264,-84 264,-96 264,-96 264,-102 258,-108 252,-108"/>
<text text-anchor="middle" x="203" y="-87.5" font-family="sans" font-size="10.00">deploy_to_github_pages</text>
</g>
<!-- 1&#45;&gt;0 -->
<g id="edge4" class="edge">
<title>1&#45;&gt;0</title>
<path fill="none" stroke="grey" stroke-width="2" d="M264.41,-78.06C346.78,-63.39 490.56,-37.78 558.45,-25.69"/>
<polygon fill="grey" stroke="grey" stroke-width="2" points="559.45,-29.07 568.68,-23.87 558.22,-22.17 559.45,-29.07"/>
</g>
<!-- 2 -->
<g id="node3" class="node">
<title>2</title>
<path fill="none" stroke="#d86e56" stroke-width="2" d="M82,-180C82,-180 12,-180 12,-180 6,-180 0,-174 0,-168 0,-168 0,-156 0,-156 0,-150 6,-144 12,-144 12,-144 82,-144 82,-144 88,-144 94,-150 94,-156 94,-156 94,-168 94,-168 94,-174 88,-180 82,-180"/>
<text text-anchor="middle" x="47" y="-159.5" font-family="sans" font-size="10.00">get_dot_rulegraph</text>
</g>
<!-- 2&#45;&gt;1 -->
<g id="edge8" class="edge">
<title>2&#45;&gt;1</title>
<path fill="none" stroke="grey" stroke-width="2" d="M85.16,-143.88C106.39,-134.35 133.01,-122.41 155.57,-112.28"/>
<polygon fill="grey" stroke="grey" stroke-width="2" points="157.27,-115.36 164.96,-108.07 154.41,-108.97 157.27,-115.36"/>
</g>
<!-- 3 -->
<g id="node4" class="node">
<title>3</title>
<path fill="none" stroke="#d8a456" stroke-width="2" d="M168,-180C168,-180 124,-180 124,-180 118,-180 112,-174 112,-168 112,-168 112,-156 112,-156 112,-150 118,-144 124,-144 124,-144 168,-144 168,-144 174,-144 180,-150 180,-156 180,-156 180,-168 180,-168 180,-174 174,-180 168,-180"/>
<text text-anchor="middle" x="146" y="-159.5" font-family="sans" font-size="10.00">project_tree</text>
</g>
<!-- 3&#45;&gt;1 -->
<g id="edge10" class="edge">
<title>3&#45;&gt;1</title>
<path fill="none" stroke="grey" stroke-width="2" d="M160.09,-143.7C166.92,-135.3 175.26,-125.07 182.76,-115.86"/>
<polygon fill="grey" stroke="grey" stroke-width="2" points="185.47,-118.07 189.07,-108.1 180.04,-113.65 185.47,-118.07"/>
</g>
<!-- 4 -->
<g id="node5" class="node">
<title>4</title>
<path fill="none" stroke="#d88d56" stroke-width="2" d="M307.5,-180C307.5,-180 210.5,-180 210.5,-180 204.5,-180 198.5,-174 198.5,-168 198.5,-168 198.5,-156 198.5,-156 198.5,-150 204.5,-144 210.5,-144 210.5,-144 307.5,-144 307.5,-144 313.5,-144 319.5,-150 319.5,-156 319.5,-156 319.5,-168 319.5,-168 319.5,-174 313.5,-180 307.5,-180"/>
<text text-anchor="middle" x="259" y="-159.5" font-family="sans" font-size="10.00">snakemake_html_report</text>
</g>
<!-- 4&#45;&gt;1 -->
<g id="edge9" class="edge">
<title>4&#45;&gt;1</title>
<path fill="none" stroke="grey" stroke-width="2" d="M245.16,-143.7C238.51,-135.39 230.42,-125.28 223.11,-116.14"/>
<polygon fill="grey" stroke="grey" stroke-width="2" points="225.66,-113.73 216.68,-108.1 220.2,-118.1 225.66,-113.73"/>
</g>
<!-- 5 -->
<g id="node6" class="node">
<title>5</title>
<path fill="none" stroke="#5673d8" stroke-width="2" d="M650.5,-108C650.5,-108 541.5,-108 541.5,-108 535.5,-108 529.5,-102 529.5,-96 529.5,-96 529.5,-84 529.5,-84 529.5,-78 535.5,-72 541.5,-72 541.5,-72 650.5,-72 650.5,-72 656.5,-72 662.5,-78 662.5,-84 662.5,-84 662.5,-96 662.5,-96 662.5,-102 656.5,-108 650.5,-108"/>
<text text-anchor="middle" x="596" y="-87.5" font-family="sans" font-size="10.00">mothur_classify_phylotype</text>
</g>
<!-- 5&#45;&gt;0 -->
<g id="edge7" class="edge">
<title>5&#45;&gt;0</title>
<path fill="none" stroke="grey" stroke-width="2" d="M596,-71.7C596,-63.98 596,-54.71 596,-46.11"/>
<polygon fill="grey" stroke="grey" stroke-width="2" points="599.5,-46.1 596,-36.1 592.5,-46.1 599.5,-46.1"/>
</g>
<!-- 6 -->
<g id="node7" class="node">
<title>6</title>
<path fill="none" stroke="#59d856" stroke-width="2" d="M703,-324C703,-324 581,-324 581,-324 575,-324 569,-318 569,-312 569,-312 569,-300 569,-300 569,-294 575,-288 581,-288 581,-288 703,-288 703,-288 709,-288 715,-294 715,-300 715,-300 715,-312 715,-312 715,-318 709,-324 703,-324"/>
<text text-anchor="middle" x="642" y="-303.5" font-family="sans" font-size="10.00">mothur_final_processed_seqs</text>
</g>
<!-- 6&#45;&gt;5 -->
<g id="edge11" class="edge">
<title>6&#45;&gt;5</title>
<path fill="none" stroke="grey" stroke-width="2" d="M611.23,-287.91C598.46,-279.02 585,-266.88 578,-252 557.5,-208.41 572.49,-151.07 584.66,-117.9"/>
<polygon fill="grey" stroke="grey" stroke-width="2" points="587.98,-119.02 588.3,-108.43 581.44,-116.51 587.98,-119.02"/>
</g>
<!-- 12 -->
<g id="node13" class="node">
<title>12</title>
<path fill="none" stroke="#56d88a" stroke-width="2" d="M815,-252C815,-252 727,-252 727,-252 721,-252 715,-246 715,-240 715,-240 715,-228 715,-228 715,-222 721,-216 727,-216 727,-216 815,-216 815,-216 821,-216 827,-222 827,-228 827,-228 827,-240 827,-240 827,-246 821,-252 815,-252"/>
<text text-anchor="middle" x="771" y="-231.5" font-family="sans" font-size="10.00">mothur_classify_asvs</text>
</g>
<!-- 6&#45;&gt;12 -->
<g id="edge17" class="edge">
<title>6&#45;&gt;12</title>
<path fill="none" stroke="grey" stroke-width="2" d="M673.56,-287.88C690.66,-278.6 711.98,-267.03 730.32,-257.08"/>
<polygon fill="grey" stroke="grey" stroke-width="2" points="732.2,-260.04 739.32,-252.19 728.86,-253.88 732.2,-260.04"/>
</g>
<!-- 13 -->
<g id="node14" class="node">
<title>13</title>
<path fill="none" stroke="#568ad8" stroke-width="2" d="M499.5,-108C499.5,-108 388.5,-108 388.5,-108 382.5,-108 376.5,-102 376.5,-96 376.5,-96 376.5,-84 376.5,-84 376.5,-78 382.5,-72 388.5,-72 388.5,-72 499.5,-72 499.5,-72 505.5,-72 511.5,-78 511.5,-84 511.5,-84 511.5,-96 511.5,-96 511.5,-102 505.5,-108 499.5,-108"/>
<text text-anchor="middle" x="444" y="-87.5" font-family="sans" font-size="10.00">mothur_classify_phylogeny</text>
</g>
<!-- 6&#45;&gt;13 -->
<g id="edge18" class="edge">
<title>6&#45;&gt;13</title>
<path fill="none" stroke="grey" stroke-width="2" d="M612.54,-287.9C597.45,-278.38 579.29,-265.71 565,-252 521.18,-209.96 481.12,-150.87 459.9,-117.2"/>
<polygon fill="grey" stroke="grey" stroke-width="2" points="462.68,-115.05 454.42,-108.42 456.74,-118.75 462.68,-115.05"/>
</g>
<!-- 14 -->
<g id="node15" class="node">
<title>14</title>
<path fill="none" stroke="#bed856" stroke-width="2" d="M926.5,-252C926.5,-252 857.5,-252 857.5,-252 851.5,-252 845.5,-246 845.5,-240 845.5,-240 845.5,-228 845.5,-228 845.5,-222 851.5,-216 857.5,-216 857.5,-216 926.5,-216 926.5,-216 932.5,-216 938.5,-222 938.5,-228 938.5,-228 938.5,-240 938.5,-240 938.5,-246 932.5,-252 926.5,-252"/>
<text text-anchor="middle" x="892" y="-231.5" font-family="sans" font-size="10.00">mothur_error_rate</text>
</g>
<!-- 6&#45;&gt;14 -->
<g id="edge19" class="edge">
<title>6&#45;&gt;14</title>
<path fill="none" stroke="grey" stroke-width="2" d="M706.35,-287.9C741.82,-278.37 786.84,-266.08 835.5,-252.11"/>
<polygon fill="grey" stroke="grey" stroke-width="2" points="836.64,-255.42 845.28,-249.29 834.7,-248.7 836.64,-255.42"/>
</g>
<!-- 18 -->
<g id="node19" class="node">
<title>18</title>
<path fill="none" stroke="#a7d856" stroke-width="2" d="M685,-252C685,-252 599,-252 599,-252 593,-252 587,-246 587,-240 587,-240 587,-228 587,-228 587,-222 593,-216 599,-216 599,-216 685,-216 685,-216 691,-216 697,-222 697,-228 697,-228 697,-240 697,-240 697,-246 691,-252 685,-252"/>
<text text-anchor="middle" x="642" y="-231.5" font-family="sans" font-size="10.00">mothur_classify_otus</text>
</g>
<!-- 6&#45;&gt;18 -->
<g id="edge24" class="edge">
<title>6&#45;&gt;18</title>
<path fill="none" stroke="grey" stroke-width="2" d="M642,-287.7C642,-279.98 642,-270.71 642,-262.11"/>
<polygon fill="grey" stroke="grey" stroke-width="2" points="645.5,-262.1 642,-252.1 638.5,-262.1 645.5,-262.1"/>
</g>
<!-- 7 -->
<g id="node8" class="node">
<title>7</title>
<path fill="none" stroke="#56d873" stroke-width="2" d="M699.5,-396C699.5,-396 584.5,-396 584.5,-396 578.5,-396 572.5,-390 572.5,-384 572.5,-384 572.5,-372 572.5,-372 572.5,-366 578.5,-360 584.5,-360 584.5,-360 699.5,-360 699.5,-360 705.5,-360 711.5,-366 711.5,-372 711.5,-372 711.5,-384 711.5,-384 711.5,-390 705.5,-396 699.5,-396"/>
<text text-anchor="middle" x="642" y="-375.5" font-family="sans" font-size="10.00">mothur_process_sequences</text>
</g>
<!-- 7&#45;&gt;6 -->
<g id="edge12" class="edge">
<title>7&#45;&gt;6</title>
<path fill="none" stroke="grey" stroke-width="2" d="M642,-359.7C642,-351.98 642,-342.71 642,-334.11"/>
<polygon fill="grey" stroke="grey" stroke-width="2" points="645.5,-334.1 642,-324.1 638.5,-334.1 645.5,-334.1"/>
</g>
<!-- 19 -->
<g id="node20" class="node">
<title>19</title>
<path fill="none" stroke="#d85656" stroke-width="2" d="M476.5,-324C476.5,-324 369.5,-324 369.5,-324 363.5,-324 357.5,-318 357.5,-312 357.5,-312 357.5,-300 357.5,-300 357.5,-294 363.5,-288 369.5,-288 369.5,-288 476.5,-288 476.5,-288 482.5,-288 488.5,-294 488.5,-300 488.5,-300 488.5,-312 488.5,-312 488.5,-318 482.5,-324 476.5,-324"/>
<text text-anchor="middle" x="423" y="-303.5" font-family="sans" font-size="10.00">remove_intermediate_files</text>
</g>
<!-- 7&#45;&gt;19 -->
<g id="edge25" class="edge">
<title>7&#45;&gt;19</title>
<path fill="none" stroke="grey" stroke-width="2" d="M588.71,-359.97C557.84,-350.1 518.8,-337.62 486.37,-327.25"/>
<polygon fill="grey" stroke="grey" stroke-width="2" points="487.12,-323.82 476.53,-324.11 484.99,-330.49 487.12,-323.82"/>
</g>
<!-- 8 -->
<g id="node9" class="node">
<title>8</title>
<path fill="none" stroke="#56d8c1" stroke-width="2" d="M572.5,-468C572.5,-468 507.5,-468 507.5,-468 501.5,-468 495.5,-462 495.5,-456 495.5,-456 495.5,-444 495.5,-444 495.5,-438 501.5,-432 507.5,-432 507.5,-432 572.5,-432 572.5,-432 578.5,-432 584.5,-438 584.5,-444 584.5,-444 584.5,-456 584.5,-456 584.5,-462 578.5,-468 572.5,-468"/>
<text text-anchor="middle" x="540" y="-447.5" font-family="sans" font-size="10.00">import_metadata</text>
</g>
<!-- 8&#45;&gt;7 -->
<g id="edge13" class="edge">
<title>8&#45;&gt;7</title>
<path fill="none" stroke="grey" stroke-width="2" d="M564.95,-431.88C578.04,-422.89 594.26,-411.76 608.44,-402.03"/>
<polygon fill="grey" stroke="grey" stroke-width="2" points="610.69,-404.73 616.95,-396.19 606.73,-398.96 610.69,-404.73"/>
</g>
<!-- 9 -->
<g id="node10" class="node">
<title>9</title>
<path fill="none" stroke="#70d856" stroke-width="2" d="M703,-468C703,-468 615,-468 615,-468 609,-468 603,-462 603,-456 603,-456 603,-444 603,-444 603,-438 609,-432 615,-432 615,-432 703,-432 703,-432 709,-432 715,-438 715,-444 715,-444 715,-456 715,-456 715,-462 709,-468 703,-468"/>
<text text-anchor="middle" x="659" y="-447.5" font-family="sans" font-size="10.00">mothur_mapping_files</text>
</g>
<!-- 9&#45;&gt;7 -->
<g id="edge14" class="edge">
<title>9&#45;&gt;7</title>
<path fill="none" stroke="grey" stroke-width="2" d="M654.8,-431.7C652.9,-423.9 650.62,-414.51 648.52,-405.83"/>
<polygon fill="grey" stroke="grey" stroke-width="2" points="651.92,-405 646.15,-396.1 645.11,-406.65 651.92,-405"/>
</g>
<!-- 10 -->
<g id="node11" class="node">
<title>10</title>
<path fill="none" stroke="#56d8d8" stroke-width="2" d="M683.5,-540C683.5,-540 634.5,-540 634.5,-540 628.5,-540 622.5,-534 622.5,-528 622.5,-528 622.5,-516 622.5,-516 622.5,-510 628.5,-504 634.5,-504 634.5,-504 683.5,-504 683.5,-504 689.5,-504 695.5,-510 695.5,-516 695.5,-516 695.5,-528 695.5,-528 695.5,-534 689.5,-540 683.5,-540"/>
<text text-anchor="middle" x="659" y="-519.5" font-family="sans" font-size="10.00">import_reads</text>
</g>
<!-- 10&#45;&gt;9 -->
<g id="edge16" class="edge">
<title>10&#45;&gt;9</title>
<path fill="none" stroke="grey" stroke-width="2" d="M659,-503.7C659,-495.98 659,-486.71 659,-478.11"/>
<polygon fill="grey" stroke="grey" stroke-width="2" points="662.5,-478.1 659,-468.1 655.5,-478.1 662.5,-478.1"/>
</g>
<!-- 11 -->
<g id="node12" class="node">
<title>11</title>
<path fill="none" stroke="#56c1d8" stroke-width="2" d="M846,-468C846,-468 754,-468 754,-468 748,-468 742,-462 742,-456 742,-456 742,-444 742,-444 742,-438 748,-432 754,-432 754,-432 846,-432 846,-432 852,-432 858,-438 858,-444 858,-444 858,-456 858,-456 858,-462 852,-468 846,-468"/>
<text text-anchor="middle" x="800" y="-447.5" font-family="sans" font-size="10.00">get_mothur_references</text>
</g>
<!-- 11&#45;&gt;7 -->
<g id="edge15" class="edge">
<title>11&#45;&gt;7</title>
<path fill="none" stroke="grey" stroke-width="2" d="M761.35,-431.88C739.75,-422.31 712.65,-410.3 689.73,-400.15"/>
<polygon fill="grey" stroke="grey" stroke-width="2" points="691.09,-396.92 680.53,-396.07 688.25,-403.32 691.09,-396.92"/>
</g>
<!-- 15 -->
<g id="node16" class="node">
<title>15</title>
<path fill="none" stroke="#d8bc56" stroke-width="2" d="M867,-396C867,-396 767,-396 767,-396 761,-396 755,-390 755,-384 755,-384 755,-372 755,-372 755,-366 761,-360 767,-360 767,-360 867,-360 867,-360 873,-360 879,-366 879,-372 879,-372 879,-384 879,-384 879,-390 873,-396 867,-396"/>
<text text-anchor="middle" x="817" y="-375.5" font-family="sans" font-size="10.00">get_mothur_zymo_mock</text>
</g>
<!-- 11&#45;&gt;15 -->
<g id="edge21" class="edge">
<title>11&#45;&gt;15</title>
<path fill="none" stroke="grey" stroke-width="2" d="M804.2,-431.7C806.1,-423.9 808.38,-414.51 810.48,-405.83"/>
<polygon fill="grey" stroke="grey" stroke-width="2" points="813.89,-406.65 812.85,-396.1 807.08,-405 813.89,-406.65"/>
</g>
<!-- 12&#45;&gt;0 -->
<g id="edge2" class="edge">
<title>12&#45;&gt;0</title>
<path fill="none" stroke="grey" stroke-width="2" d="M781.12,-215.91C798.5,-184.08 829.12,-115.04 796,-72 776.33,-46.43 685.8,-30.65 633.53,-23.51"/>
<polygon fill="grey" stroke="grey" stroke-width="2" points="633.68,-20 623.31,-22.16 632.76,-26.94 633.68,-20"/>
</g>
<!-- 13&#45;&gt;0 -->
<g id="edge5" class="edge">
<title>13&#45;&gt;0</title>
<path fill="none" stroke="grey" stroke-width="2" d="M481.18,-71.88C504.98,-60.92 535.7,-46.77 559.39,-35.86"/>
<polygon fill="grey" stroke="grey" stroke-width="2" points="561.12,-38.92 568.73,-31.56 558.19,-32.56 561.12,-38.92"/>
</g>
<!-- 14&#45;&gt;0 -->
<g id="edge6" class="edge">
<title>14&#45;&gt;0</title>
<path fill="none" stroke="grey" stroke-width="2" d="M889.2,-215.91C882.84,-182.8 864.14,-109.86 818,-72 764.75,-28.3 681.44,-19.51 633.46,-18.37"/>
<polygon fill="grey" stroke="grey" stroke-width="2" points="633.25,-14.87 623.21,-18.23 633.16,-21.87 633.25,-14.87"/>
</g>
<!-- 15&#45;&gt;14 -->
<g id="edge20" class="edge">
<title>15&#45;&gt;14</title>
<path fill="none" stroke="grey" stroke-width="2" d="M826.05,-359.87C839,-335.35 862.93,-290.03 878.13,-261.26"/>
<polygon fill="grey" stroke="grey" stroke-width="2" points="881.35,-262.67 882.92,-252.19 875.16,-259.4 881.35,-262.67"/>
</g>
<!-- 16 -->
<g id="node17" class="node">
<title>16</title>
<path fill="none" stroke="#56a2d8" stroke-width="2" d="M775,-108C775,-108 693,-108 693,-108 687,-108 681,-102 681,-96 681,-96 681,-84 681,-84 681,-78 687,-72 693,-72 693,-72 775,-72 775,-72 781,-72 787,-78 787,-84 787,-84 787,-96 787,-96 787,-102 781,-108 775,-108"/>
<text text-anchor="middle" x="734" y="-87.5" font-family="sans" font-size="10.00">alpha_beta_diversity</text>
</g>
<!-- 16&#45;&gt;0 -->
<g id="edge3" class="edge">
<title>16&#45;&gt;0</title>
<path fill="none" stroke="grey" stroke-width="2" d="M700.24,-71.88C679.67,-61.44 653.38,-48.1 632.35,-37.44"/>
<polygon fill="grey" stroke="grey" stroke-width="2" points="633.89,-34.3 623.39,-32.9 630.73,-40.54 633.89,-34.3"/>
</g>
<!-- 17 -->
<g id="node18" class="node">
<title>17</title>
<path fill="none" stroke="#88d856" stroke-width="2" d="M723,-180C723,-180 613,-180 613,-180 607,-180 601,-174 601,-168 601,-168 601,-156 601,-156 601,-150 607,-144 613,-144 613,-144 723,-144 723,-144 729,-144 735,-150 735,-156 735,-156 735,-168 735,-168 735,-174 729,-180 723,-180"/>
<text text-anchor="middle" x="668" y="-159.5" font-family="sans" font-size="10.00">mothur_split_group_shared</text>
</g>
<!-- 17&#45;&gt;16 -->
<g id="edge22" class="edge">
<title>17&#45;&gt;16</title>
<path fill="none" stroke="grey" stroke-width="2" d="M684.31,-143.7C692.31,-135.22 702.07,-124.86 710.82,-115.58"/>
<polygon fill="grey" stroke="grey" stroke-width="2" points="713.56,-117.78 717.87,-108.1 708.47,-112.98 713.56,-117.78"/>
</g>
<!-- 18&#45;&gt;17 -->
<g id="edge23" class="edge">
<title>18&#45;&gt;17</title>
<path fill="none" stroke="grey" stroke-width="2" d="M648.43,-215.7C651.36,-207.81 654.89,-198.3 658.14,-189.55"/>
<polygon fill="grey" stroke="grey" stroke-width="2" points="661.45,-190.7 661.65,-180.1 654.88,-188.26 661.45,-190.7"/>
</g>
<!-- 19&#45;&gt;0 -->
<g id="edge1" class="edge">
<title>19&#45;&gt;0</title>
<path fill="none" stroke="grey" stroke-width="2" d="M410.25,-287.98C380.78,-246.41 314.31,-138.27 367,-72 390.54,-42.39 500.06,-27.87 558.7,-22.12"/>
<polygon fill="grey" stroke="grey" stroke-width="2" points="559.06,-25.6 568.68,-21.17 558.4,-18.63 559.06,-25.6"/>
</g>
</g>
</svg>
