<?xml version="1.0" encoding="UTF-8" standalone="no"?>
<!DOCTYPE svg PUBLIC "-//W3C//DTD SVG 1.1//EN"
 "http://www.w3.org/Graphics/SVG/1.1/DTD/svg11.dtd">
<!-- Generated by graphviz version 6.0.1 (0)
 -->
<!-- Title: snakemake_dag Pages: 1 -->
<svg width="591pt" height="404pt"
 viewBox="0.00 0.00 591.43 404.00" xmlns="http://www.w3.org/2000/svg" xmlns:xlink="http://www.w3.org/1999/xlink">
<g id="graph0" class="graph" transform="scale(1 1) rotate(0) translate(4 400)">
<title>snakemake_dag</title>
<polygon fill="white" stroke="none" points="-4,4 -4,-400 587.43,-400 587.43,4 -4,4"/>
<!-- 0 -->
<g id="node1" class="node">
<title>0</title>
<path fill="none" stroke="#d8cb56" stroke-width="2" d="M242.43,-36C242.43,-36 212.43,-36 212.43,-36 206.43,-36 200.43,-30 200.43,-24 200.43,-24 200.43,-12 200.43,-12 200.43,-6 206.43,0 212.43,0 212.43,0 242.43,0 242.43,0 248.43,0 254.43,-6 254.43,-12 254.43,-12 254.43,-24 254.43,-24 254.43,-30 248.43,-36 242.43,-36"/>
<text text-anchor="middle" x="227.43" y="-15.5" font-family="sans" font-size="10.00">all</text>
</g>
<!-- 1 -->
<g id="node2" class="node">
<title>1</title>
<path fill="none" stroke="#d8a456" stroke-width="2" d="M238.93,-180C238.93,-180 189.93,-180 189.93,-180 183.93,-180 177.93,-174 177.93,-168 177.93,-168 177.93,-156 177.93,-156 177.93,-150 183.93,-144 189.93,-144 189.93,-144 238.93,-144 238.93,-144 244.93,-144 250.93,-150 250.93,-156 250.93,-156 250.93,-168 250.93,-168 250.93,-174 244.93,-180 238.93,-180"/>
<text text-anchor="middle" x="214.43" y="-159.5" font-family="sans" font-size="10.00">calc16SError</text>
</g>
<!-- 1&#45;&gt;0 -->
<g id="edge2" class="edge">
<title>1&#45;&gt;0</title>
<path fill="none" stroke="grey" stroke-width="2" d="M210.08,-143.8C206.17,-125.77 201.71,-96.69 206.43,-72 208.13,-63.06 211.33,-53.7 214.72,-45.37"/>
<polygon fill="grey" stroke="grey" stroke-width="2" points="217.94,-46.73 218.71,-36.17 211.52,-43.95 217.94,-46.73"/>
</g>
<!-- 2 -->
<g id="node3" class="node">
<title>2</title>
<path fill="none" stroke="#56d892" stroke-width="2" d="M164.93,-252C164.93,-252 99.93,-252 99.93,-252 93.93,-252 87.93,-246 87.93,-240 87.93,-240 87.93,-228 87.93,-228 87.93,-222 93.93,-216 99.93,-216 99.93,-216 164.93,-216 164.93,-216 170.93,-216 176.93,-222 176.93,-228 176.93,-228 176.93,-240 176.93,-240 176.93,-246 170.93,-252 164.93,-252"/>
<text text-anchor="middle" x="132.43" y="-231.5" font-family="sans" font-size="10.00">make16SShared</text>
</g>
<!-- 2&#45;&gt;0 -->
<g id="edge6" class="edge">
<title>2&#45;&gt;0</title>
<path fill="none" stroke="grey" stroke-width="2" d="M139.08,-215.86C150.72,-186.19 175.89,-123.5 200.43,-72 204.62,-63.19 209.4,-53.67 213.75,-45.16"/>
<polygon fill="grey" stroke="grey" stroke-width="2" points="216.97,-46.56 218.44,-36.07 210.75,-43.36 216.97,-46.56"/>
</g>
<!-- 2&#45;&gt;1 -->
<g id="edge9" class="edge">
<title>2&#45;&gt;1</title>
<path fill="none" stroke="grey" stroke-width="2" d="M152.7,-215.7C162.92,-206.97 175.49,-196.24 186.6,-186.75"/>
<polygon fill="grey" stroke="grey" stroke-width="2" points="189.06,-189.26 194.39,-180.1 184.51,-183.94 189.06,-189.26"/>
</g>
<!-- 7 -->
<g id="node8" class="node">
<title>7</title>
<path fill="none" stroke="#56d8b9" stroke-width="2" d="M97.93,-180C97.93,-180 38.93,-180 38.93,-180 32.93,-180 26.93,-174 26.93,-168 26.93,-168 26.93,-156 26.93,-156 26.93,-150 32.93,-144 38.93,-144 38.93,-144 97.93,-144 97.93,-144 103.93,-144 109.93,-150 109.93,-156 109.93,-156 109.93,-168 109.93,-168 109.93,-174 103.93,-180 97.93,-180"/>
<text text-anchor="middle" x="68.43" y="-159.5" font-family="sans" font-size="10.00">split16SShared</text>
</g>
<!-- 2&#45;&gt;7 -->
<g id="edge16" class="edge">
<title>2&#45;&gt;7</title>
<path fill="none" stroke="grey" stroke-width="2" d="M116.61,-215.7C108.86,-207.22 99.39,-196.86 90.9,-187.58"/>
<polygon fill="grey" stroke="grey" stroke-width="2" points="93.4,-185.12 84.06,-180.1 88.23,-189.85 93.4,-185.12"/>
</g>
<!-- 3 -->
<g id="node4" class="node">
<title>3</title>
<path fill="none" stroke="#d87d56" stroke-width="2" d="M97.93,-324C97.93,-324 28.93,-324 28.93,-324 22.93,-324 16.93,-318 16.93,-312 16.93,-312 16.93,-300 16.93,-300 16.93,-294 22.93,-288 28.93,-288 28.93,-288 97.93,-288 97.93,-288 103.93,-288 109.93,-294 109.93,-300 109.93,-300 109.93,-312 109.93,-312 109.93,-318 103.93,-324 97.93,-324"/>
<text text-anchor="middle" x="63.43" y="-303.5" font-family="sans" font-size="10.00">makeMappingFile</text>
</g>
<!-- 3&#45;&gt;2 -->
<g id="edge11" class="edge">
<title>3&#45;&gt;2</title>
<path fill="none" stroke="grey" stroke-width="2" d="M80.48,-287.7C88.92,-279.14 99.25,-268.66 108.47,-259.3"/>
<polygon fill="grey" stroke="grey" stroke-width="2" points="111.04,-261.68 115.57,-252.1 106.05,-256.77 111.04,-261.68"/>
</g>
<!-- 4 -->
<g id="node5" class="node">
<title>4</title>
<path fill="none" stroke="#56d86b" stroke-width="2" d="M125.43,-396C125.43,-396 75.43,-396 75.43,-396 69.43,-396 63.43,-390 63.43,-384 63.43,-384 63.43,-372 63.43,-372 63.43,-366 69.43,-360 75.43,-360 75.43,-360 125.43,-360 125.43,-360 131.43,-360 137.43,-366 137.43,-372 137.43,-372 137.43,-384 137.43,-384 137.43,-390 131.43,-396 125.43,-396"/>
<text text-anchor="middle" x="100.43" y="-375.5" font-family="sans" font-size="10.00">getReadData</text>
</g>
<!-- 4&#45;&gt;2 -->
<g id="edge13" class="edge">
<title>4&#45;&gt;2</title>
<path fill="none" stroke="grey" stroke-width="2" d="M107.19,-359.56C110.95,-349.33 115.45,-336.08 118.43,-324 123.45,-303.63 127.05,-280.16 129.34,-262.45"/>
<polygon fill="grey" stroke="grey" stroke-width="2" points="132.85,-262.59 130.6,-252.24 125.91,-261.73 132.85,-262.59"/>
</g>
<!-- 4&#45;&gt;3 -->
<g id="edge14" class="edge">
<title>4&#45;&gt;3</title>
<path fill="none" stroke="grey" stroke-width="2" d="M91.28,-359.7C87.02,-351.64 81.87,-341.89 77.16,-332.98"/>
<polygon fill="grey" stroke="grey" stroke-width="2" points="80.23,-331.31 72.47,-324.1 74.05,-334.58 80.23,-331.31"/>
</g>
<!-- 5 -->
<g id="node6" class="node">
<title>5</title>
<path fill="none" stroke="#68d856" stroke-width="2" d="M262.43,-324C262.43,-324 188.43,-324 188.43,-324 182.43,-324 176.43,-318 176.43,-312 176.43,-312 176.43,-300 176.43,-300 176.43,-294 182.43,-288 188.43,-288 188.43,-288 262.43,-288 262.43,-288 268.43,-288 274.43,-294 274.43,-300 274.43,-300 274.43,-312 274.43,-312 274.43,-318 268.43,-324 262.43,-324"/>
<text text-anchor="middle" x="225.43" y="-303.5" font-family="sans" font-size="10.00">get16SReferences</text>
</g>
<!-- 5&#45;&gt;2 -->
<g id="edge12" class="edge">
<title>5&#45;&gt;2</title>
<path fill="none" stroke="grey" stroke-width="2" d="M202.44,-287.7C190.61,-278.8 176.03,-267.82 163.25,-258.2"/>
<polygon fill="grey" stroke="grey" stroke-width="2" points="165.25,-255.32 155.15,-252.1 161.04,-260.91 165.25,-255.32"/>
</g>
<!-- 6 -->
<g id="node7" class="node">
<title>6</title>
<path fill="none" stroke="#56a9d8" stroke-width="2" d="M253.93,-252C253.93,-252 206.93,-252 206.93,-252 200.93,-252 194.93,-246 194.93,-240 194.93,-240 194.93,-228 194.93,-228 194.93,-222 200.93,-216 206.93,-216 206.93,-216 253.93,-216 253.93,-216 259.93,-216 265.93,-222 265.93,-228 265.93,-228 265.93,-240 265.93,-240 265.93,-246 259.93,-252 253.93,-252"/>
<text text-anchor="middle" x="230.43" y="-231.5" font-family="sans" font-size="10.00">get16SMock</text>
</g>
<!-- 5&#45;&gt;6 -->
<g id="edge15" class="edge">
<title>5&#45;&gt;6</title>
<path fill="none" stroke="grey" stroke-width="2" d="M226.66,-287.7C227.21,-279.98 227.88,-270.71 228.49,-262.11"/>
<polygon fill="grey" stroke="grey" stroke-width="2" points="231.98,-262.33 229.2,-252.1 225,-261.83 231.98,-262.33"/>
</g>
<!-- 6&#45;&gt;1 -->
<g id="edge10" class="edge">
<title>6&#45;&gt;1</title>
<path fill="none" stroke="grey" stroke-width="2" d="M226.47,-215.7C224.71,-207.98 222.59,-198.71 220.62,-190.11"/>
<polygon fill="grey" stroke="grey" stroke-width="2" points="223.98,-189.07 218.34,-180.1 217.15,-190.63 223.98,-189.07"/>
</g>
<!-- 7&#45;&gt;0 -->
<g id="edge5" class="edge">
<title>7&#45;&gt;0</title>
<path fill="none" stroke="grey" stroke-width="2" d="M38.92,-143.94C26.44,-134.99 13.24,-122.79 6.43,-108 -0.27,-93.47 -3.48,-84.56 6.43,-72 28.91,-43.49 133.29,-28.58 190.19,-22.45"/>
<polygon fill="grey" stroke="grey" stroke-width="2" points="190.65,-25.92 200.23,-21.41 189.92,-18.96 190.65,-25.92"/>
</g>
<!-- 8 -->
<g id="node9" class="node">
<title>8</title>
<path fill="none" stroke="#b6d856" stroke-width="2" d="M109.43,-108C109.43,-108 27.43,-108 27.43,-108 21.43,-108 15.43,-102 15.43,-96 15.43,-96 15.43,-84 15.43,-84 15.43,-78 21.43,-72 27.43,-72 27.43,-72 109.43,-72 109.43,-72 115.43,-72 121.43,-78 121.43,-84 121.43,-84 121.43,-96 121.43,-96 121.43,-102 115.43,-108 109.43,-108"/>
<text text-anchor="middle" x="68.43" y="-87.5" font-family="sans" font-size="10.00">alpha_beta_diversity</text>
</g>
<!-- 7&#45;&gt;8 -->
<g id="edge17" class="edge">
<title>7&#45;&gt;8</title>
<path fill="none" stroke="grey" stroke-width="2" d="M68.43,-143.7C68.43,-135.98 68.43,-126.71 68.43,-118.11"/>
<polygon fill="grey" stroke="grey" stroke-width="2" points="71.93,-118.1 68.43,-108.1 64.93,-118.1 71.93,-118.1"/>
</g>
<!-- 8&#45;&gt;0 -->
<g id="edge3" class="edge">
<title>8&#45;&gt;0</title>
<path fill="none" stroke="grey" stroke-width="2" d="M107.32,-71.88C132.92,-60.61 166.2,-45.96 191.23,-34.94"/>
<polygon fill="grey" stroke="grey" stroke-width="2" points="192.64,-38.14 200.39,-30.9 189.82,-31.73 192.64,-38.14"/>
</g>
<!-- 9 -->
<g id="node10" class="node">
<title>9</title>
<path fill="none" stroke="#56d0d8" stroke-width="2" d="M306.93,-108C306.93,-108 227.93,-108 227.93,-108 221.93,-108 215.93,-102 215.93,-96 215.93,-96 215.93,-84 215.93,-84 215.93,-78 221.93,-72 227.93,-72 227.93,-72 306.93,-72 306.93,-72 312.93,-72 318.93,-78 318.93,-84 318.93,-84 318.93,-96 318.93,-96 318.93,-102 312.93,-108 306.93,-108"/>
<text text-anchor="middle" x="267.43" y="-87.5" font-family="sans" font-size="10.00">get_project_tree_txt</text>
</g>
<!-- 9&#45;&gt;0 -->
<g id="edge7" class="edge">
<title>9&#45;&gt;0</title>
<path fill="none" stroke="grey" stroke-width="2" d="M257.54,-71.7C252.94,-63.64 247.37,-53.89 242.27,-44.98"/>
<polygon fill="grey" stroke="grey" stroke-width="2" points="245.2,-43.05 237.2,-36.1 239.12,-46.52 245.2,-43.05"/>
</g>
<!-- 10 -->
<g id="node11" class="node">
<title>10</title>
<path fill="none" stroke="#567bd8" stroke-width="2" d="M410.93,-180C410.93,-180 359.93,-180 359.93,-180 353.93,-180 347.93,-174 347.93,-168 347.93,-168 347.93,-156 347.93,-156 347.93,-150 353.93,-144 359.93,-144 359.93,-144 410.93,-144 410.93,-144 416.93,-144 422.93,-150 422.93,-156 422.93,-156 422.93,-168 422.93,-168 422.93,-174 416.93,-180 410.93,-180"/>
<text text-anchor="middle" x="385.43" y="-159.5" font-family="sans" font-size="10.00">get_rulegraph</text>
</g>
<!-- 10&#45;&gt;0 -->
<g id="edge8" class="edge">
<title>10&#45;&gt;0</title>
<path fill="none" stroke="grey" stroke-width="2" d="M377.52,-143.74C367.92,-124.32 350.16,-92.77 327.43,-72 309.02,-55.18 284.29,-42.01 264.03,-33.01"/>
<polygon fill="grey" stroke="grey" stroke-width="2" points="265.35,-29.77 254.78,-29.05 262.59,-36.2 265.35,-29.77"/>
</g>
<!-- 12 -->
<g id="node13" class="node">
<title>12</title>
<path fill="none" stroke="#8fd856" stroke-width="2" d="M461.43,-108C461.43,-108 387.43,-108 387.43,-108 381.43,-108 375.43,-102 375.43,-96 375.43,-96 375.43,-84 375.43,-84 375.43,-78 381.43,-72 387.43,-72 387.43,-72 461.43,-72 461.43,-72 467.43,-72 473.43,-78 473.43,-84 473.43,-84 473.43,-96 473.43,-96 473.43,-102 467.43,-108 461.43,-108"/>
<text text-anchor="middle" x="424.43" y="-87.5" font-family="sans" font-size="10.00">github_page_index</text>
</g>
<!-- 10&#45;&gt;12 -->
<g id="edge18" class="edge">
<title>10&#45;&gt;12</title>
<path fill="none" stroke="grey" stroke-width="2" d="M395.07,-143.7C399.55,-135.64 404.99,-125.89 409.95,-116.98"/>
<polygon fill="grey" stroke="grey" stroke-width="2" points="413.09,-118.54 414.9,-108.1 406.97,-115.14 413.09,-118.54"/>
</g>
<!-- 11 -->
<g id="node12" class="node">
<title>11</title>
<path fill="none" stroke="#d85656" stroke-width="2" d="M571.43,-108C571.43,-108 503.43,-108 503.43,-108 497.43,-108 491.43,-102 491.43,-96 491.43,-96 491.43,-84 491.43,-84 491.43,-78 497.43,-72 503.43,-72 503.43,-72 571.43,-72 571.43,-72 577.43,-72 583.43,-78 583.43,-84 583.43,-84 583.43,-96 583.43,-96 583.43,-102 577.43,-108 571.43,-108"/>
<text text-anchor="middle" x="537.43" y="-87.5" font-family="sans" font-size="10.00">interactive_report</text>
</g>
<!-- 11&#45;&gt;0 -->
<g id="edge1" class="edge">
<title>11&#45;&gt;0</title>
<path fill="none" stroke="grey" stroke-width="2" d="M491.3,-74.4C488.31,-73.56 485.33,-72.75 482.43,-72 405.78,-52.24 314.73,-34.72 264.8,-25.62"/>
<polygon fill="grey" stroke="grey" stroke-width="2" points="265.26,-22.14 254.79,-23.81 264.01,-29.03 265.26,-22.14"/>
</g>
<!-- 12&#45;&gt;0 -->
<g id="edge4" class="edge">
<title>12&#45;&gt;0</title>
<path fill="none" stroke="grey" stroke-width="2" d="M376.49,-71.97C341.96,-59.7 296.05,-43.38 264.35,-32.12"/>
<polygon fill="grey" stroke="grey" stroke-width="2" points="265.19,-28.7 254.59,-28.65 262.84,-35.3 265.19,-28.7"/>
</g>
</g>
</svg>
