<?xml version="1.0" encoding="UTF-8" standalone="no"?>
<!DOCTYPE svg PUBLIC "-//W3C//DTD SVG 1.1//EN"
 "http://www.w3.org/Graphics/SVG/1.1/DTD/svg11.dtd">
<!-- Generated by graphviz version 7.1.0 (0)
 -->
<!-- Title: snakemake_dag Pages: 1 -->
<svg width="499pt" height="476pt"
 viewBox="0.00 0.00 498.95 476.00" xmlns="http://www.w3.org/2000/svg" xmlns:xlink="http://www.w3.org/1999/xlink">
<g id="graph0" class="graph" transform="scale(1 1) rotate(0) translate(4 472)">
<title>snakemake_dag</title>
<polygon fill="white" stroke="none" points="-4,4 -4,-472 494.95,-472 494.95,4 -4,4"/>
<!-- 0 -->
<g id="node1" class="node">
<title>0</title>
<path fill="none" stroke="#70d856" stroke-width="2" d="M264.36,-36C264.36,-36 234.36,-36 234.36,-36 228.36,-36 222.36,-30 222.36,-24 222.36,-24 222.36,-12 222.36,-12 222.36,-6 228.36,0 234.36,0 234.36,0 264.36,0 264.36,0 270.36,0 276.36,-6 276.36,-12 276.36,-12 276.36,-24 276.36,-24 276.36,-30 270.36,-36 264.36,-36"/>
<text text-anchor="middle" x="249.36" y="-15.5" font-family="sans" font-size="10.00">all</text>
</g>
<!-- 1 -->
<g id="node2" class="node">
<title>1</title>
<path fill="none" stroke="#afd856" stroke-width="2" d="M130.36,-252C130.36,-252 44.36,-252 44.36,-252 38.36,-252 32.36,-246 32.36,-240 32.36,-240 32.36,-228 32.36,-228 32.36,-222 38.36,-216 44.36,-216 44.36,-216 130.36,-216 130.36,-216 136.36,-216 142.36,-222 142.36,-228 142.36,-228 142.36,-240 142.36,-240 142.36,-246 136.36,-252 130.36,-252"/>
<text text-anchor="middle" x="87.36" y="-231.5" font-family="sans" font-size="10.00">mothur_classify_otus</text>
</g>
<!-- 1&#45;&gt;0 -->
<g id="edge2" class="edge">
<title>1&#45;&gt;0</title>
<path fill="none" stroke="grey" stroke-width="2" d="M47.38,-215.06C33.36,-206.58 19.17,-194.97 11.36,-180 -11.58,-136.04 2.2,-104.83 39.36,-72 86.68,-30.2 162.28,-20.43 208.7,-18.66"/>
<polygon fill="grey" stroke="grey" stroke-width="2" points="208.6,-22.16 218.51,-18.42 208.43,-15.16 208.6,-22.16"/>
</g>
<!-- 12 -->
<g id="node13" class="node">
<title>12</title>
<path fill="none" stroke="#d88d56" stroke-width="2" d="M142.36,-180C142.36,-180 32.36,-180 32.36,-180 26.36,-180 20.36,-174 20.36,-168 20.36,-168 20.36,-156 20.36,-156 20.36,-150 26.36,-144 32.36,-144 32.36,-144 142.36,-144 142.36,-144 148.36,-144 154.36,-150 154.36,-156 154.36,-156 154.36,-168 154.36,-168 154.36,-174 148.36,-180 142.36,-180"/>
<text text-anchor="middle" x="87.36" y="-159.5" font-family="sans" font-size="10.00">mothur_split_group_shared</text>
</g>
<!-- 1&#45;&gt;12 -->
<g id="edge19" class="edge">
<title>1&#45;&gt;12</title>
<path fill="none" stroke="grey" stroke-width="2" d="M87.36,-215.34C87.36,-208.75 87.36,-201.08 87.36,-193.67"/>
<polygon fill="grey" stroke="grey" stroke-width="2" points="90.86,-193.93 87.36,-183.93 83.86,-193.93 90.86,-193.93"/>
</g>
<!-- 2 -->
<g id="node3" class="node">
<title>2</title>
<path fill="none" stroke="#c6d856" stroke-width="2" d="M327.36,-324C327.36,-324 205.36,-324 205.36,-324 199.36,-324 193.36,-318 193.36,-312 193.36,-312 193.36,-300 193.36,-300 193.36,-294 199.36,-288 205.36,-288 205.36,-288 327.36,-288 327.36,-288 333.36,-288 339.36,-294 339.36,-300 339.36,-300 339.36,-312 339.36,-312 339.36,-318 333.36,-324 327.36,-324"/>
<text text-anchor="middle" x="266.36" y="-303.5" font-family="sans" font-size="10.00">mothur_final_processed_seqs</text>
</g>
<!-- 2&#45;&gt;1 -->
<g id="edge8" class="edge">
<title>2&#45;&gt;1</title>
<path fill="none" stroke="grey" stroke-width="2" d="M220.73,-287.15C197.78,-278.18 169.72,-267.21 145.26,-257.64"/>
<polygon fill="grey" stroke="grey" stroke-width="2" points="146.63,-254.42 136.04,-254.04 144.08,-260.94 146.63,-254.42"/>
</g>
<!-- 7 -->
<g id="node8" class="node">
<title>7</title>
<path fill="none" stroke="#56d873" stroke-width="2" d="M303.86,-108C303.86,-108 194.86,-108 194.86,-108 188.86,-108 182.86,-102 182.86,-96 182.86,-96 182.86,-84 182.86,-84 182.86,-78 188.86,-72 194.86,-72 194.86,-72 303.86,-72 303.86,-72 309.86,-72 315.86,-78 315.86,-84 315.86,-84 315.86,-96 315.86,-96 315.86,-102 309.86,-108 303.86,-108"/>
<text text-anchor="middle" x="249.36" y="-87.5" font-family="sans" font-size="10.00">mothur_classify_phylotype</text>
</g>
<!-- 2&#45;&gt;7 -->
<g id="edge13" class="edge">
<title>2&#45;&gt;7</title>
<path fill="none" stroke="grey" stroke-width="2" d="M253.46,-287.06C237.56,-263.74 211.41,-221.11 201.36,-180 197.56,-164.46 195.6,-158.93 201.36,-144 204.99,-134.58 211.16,-125.79 217.89,-118.19"/>
<polygon fill="grey" stroke="grey" stroke-width="2" points="220.33,-120.7 224.79,-111.09 215.31,-115.83 220.33,-120.7"/>
</g>
<!-- 8 -->
<g id="node9" class="node">
<title>8</title>
<path fill="none" stroke="#5692d8" stroke-width="2" d="M310.36,-180C310.36,-180 222.36,-180 222.36,-180 216.36,-180 210.36,-174 210.36,-168 210.36,-168 210.36,-156 210.36,-156 210.36,-150 216.36,-144 222.36,-144 222.36,-144 310.36,-144 310.36,-144 316.36,-144 322.36,-150 322.36,-156 322.36,-156 322.36,-168 322.36,-168 322.36,-174 316.36,-180 310.36,-180"/>
<text text-anchor="middle" x="266.36" y="-159.5" font-family="sans" font-size="10.00">mothur_classify_asvs</text>
</g>
<!-- 2&#45;&gt;8 -->
<g id="edge14" class="edge">
<title>2&#45;&gt;8</title>
<path fill="none" stroke="grey" stroke-width="2" d="M266.36,-287.02C266.36,-263.54 266.36,-222.11 266.36,-193.64"/>
<polygon fill="grey" stroke="grey" stroke-width="2" points="269.86,-193.87 266.36,-183.87 262.86,-193.87 269.86,-193.87"/>
</g>
<!-- 9 -->
<g id="node10" class="node">
<title>9</title>
<path fill="none" stroke="#8fd856" stroke-width="2" d="M463.86,-180C463.86,-180 352.86,-180 352.86,-180 346.86,-180 340.86,-174 340.86,-168 340.86,-168 340.86,-156 340.86,-156 340.86,-150 346.86,-144 352.86,-144 352.86,-144 463.86,-144 463.86,-144 469.86,-144 475.86,-150 475.86,-156 475.86,-156 475.86,-168 475.86,-168 475.86,-174 469.86,-180 463.86,-180"/>
<text text-anchor="middle" x="408.36" y="-159.5" font-family="sans" font-size="10.00">mothur_classify_phylogeny</text>
</g>
<!-- 2&#45;&gt;9 -->
<g id="edge15" class="edge">
<title>2&#45;&gt;9</title>
<path fill="none" stroke="grey" stroke-width="2" d="M284.34,-287.02C308.88,-262.48 353.06,-218.3 381.52,-189.84"/>
<polygon fill="grey" stroke="grey" stroke-width="2" points="383.79,-192.52 388.38,-182.98 378.84,-187.58 383.79,-192.52"/>
</g>
<!-- 10 -->
<g id="node11" class="node">
<title>10</title>
<path fill="none" stroke="#5673d8" stroke-width="2" d="M453.86,-252C453.86,-252 384.86,-252 384.86,-252 378.86,-252 372.86,-246 372.86,-240 372.86,-240 372.86,-228 372.86,-228 372.86,-222 378.86,-216 384.86,-216 384.86,-216 453.86,-216 453.86,-216 459.86,-216 465.86,-222 465.86,-228 465.86,-228 465.86,-240 465.86,-240 465.86,-246 459.86,-252 453.86,-252"/>
<text text-anchor="middle" x="419.36" y="-231.5" font-family="sans" font-size="10.00">mothur_error_rate</text>
</g>
<!-- 2&#45;&gt;10 -->
<g id="edge17" class="edge">
<title>2&#45;&gt;10</title>
<path fill="none" stroke="grey" stroke-width="2" d="M305.36,-287.15C324.53,-278.38 347.87,-267.71 368.43,-258.3"/>
<polygon fill="grey" stroke="grey" stroke-width="2" points="369.77,-261.54 377.41,-254.19 366.86,-255.17 369.77,-261.54"/>
</g>
<!-- 3 -->
<g id="node4" class="node">
<title>3</title>
<path fill="none" stroke="#d87556" stroke-width="2" d="M325.86,-396C325.86,-396 210.86,-396 210.86,-396 204.86,-396 198.86,-390 198.86,-384 198.86,-384 198.86,-372 198.86,-372 198.86,-366 204.86,-360 210.86,-360 210.86,-360 325.86,-360 325.86,-360 331.86,-360 337.86,-366 337.86,-372 337.86,-372 337.86,-384 337.86,-384 337.86,-390 331.86,-396 325.86,-396"/>
<text text-anchor="middle" x="268.36" y="-375.5" font-family="sans" font-size="10.00">mothur_process_sequences</text>
</g>
<!-- 3&#45;&gt;2 -->
<g id="edge9" class="edge">
<title>3&#45;&gt;2</title>
<path fill="none" stroke="grey" stroke-width="2" d="M267.86,-359.34C267.67,-352.75 267.45,-345.08 267.24,-337.67"/>
<polygon fill="grey" stroke="grey" stroke-width="2" points="270.74,-337.82 266.96,-327.93 263.75,-338.02 270.74,-337.82"/>
</g>
<!-- 4 -->
<g id="node5" class="node">
<title>4</title>
<path fill="none" stroke="#56d8a9" stroke-width="2" d="M167.36,-468C167.36,-468 55.36,-468 55.36,-468 49.36,-468 43.36,-462 43.36,-456 43.36,-456 43.36,-444 43.36,-444 43.36,-438 49.36,-432 55.36,-432 55.36,-432 167.36,-432 167.36,-432 173.36,-432 179.36,-438 179.36,-444 179.36,-444 179.36,-456 179.36,-456 179.36,-462 173.36,-468 167.36,-468"/>
<text text-anchor="middle" x="111.36" y="-447.5" font-family="sans" font-size="10.00">auto_mothur_mapping_files</text>
</g>
<!-- 4&#45;&gt;3 -->
<g id="edge12" class="edge">
<title>4&#45;&gt;3</title>
<path fill="none" stroke="grey" stroke-width="2" d="M151.38,-431.15C171.15,-422.34 195.23,-411.61 216.4,-402.17"/>
<polygon fill="grey" stroke="grey" stroke-width="2" points="217.66,-405.44 225.37,-398.17 214.81,-399.04 217.66,-405.44"/>
</g>
<!-- 5 -->
<g id="node6" class="node">
<title>5</title>
<path fill="none" stroke="#56d892" stroke-width="2" d="M464.36,-468C464.36,-468 372.36,-468 372.36,-468 366.36,-468 360.36,-462 360.36,-456 360.36,-456 360.36,-444 360.36,-444 360.36,-438 366.36,-432 372.36,-432 372.36,-432 464.36,-432 464.36,-432 470.36,-432 476.36,-438 476.36,-444 476.36,-444 476.36,-456 476.36,-456 476.36,-462 470.36,-468 464.36,-468"/>
<text text-anchor="middle" x="418.36" y="-447.5" font-family="sans" font-size="10.00">get_mothur_references</text>
</g>
<!-- 5&#45;&gt;3 -->
<g id="edge11" class="edge">
<title>5&#45;&gt;3</title>
<path fill="none" stroke="grey" stroke-width="2" d="M380.12,-431.15C361.42,-422.43 338.66,-411.81 318.57,-402.43"/>
<polygon fill="grey" stroke="grey" stroke-width="2" points="320.08,-399.27 309.53,-398.21 317.12,-405.61 320.08,-399.27"/>
</g>
<!-- 11 -->
<g id="node12" class="node">
<title>11</title>
<path fill="none" stroke="#56a9d8" stroke-width="2" d="M469.36,-324C469.36,-324 369.36,-324 369.36,-324 363.36,-324 357.36,-318 357.36,-312 357.36,-312 357.36,-300 357.36,-300 357.36,-294 363.36,-288 369.36,-288 369.36,-288 469.36,-288 469.36,-288 475.36,-288 481.36,-294 481.36,-300 481.36,-300 481.36,-312 481.36,-312 481.36,-318 475.36,-324 469.36,-324"/>
<text text-anchor="middle" x="419.36" y="-303.5" font-family="sans" font-size="10.00">get_mothur_zymo_mock</text>
</g>
<!-- 5&#45;&gt;11 -->
<g id="edge18" class="edge">
<title>5&#45;&gt;11</title>
<path fill="none" stroke="grey" stroke-width="2" d="M418.49,-431.02C418.65,-407.54 418.94,-366.11 419.14,-337.64"/>
<polygon fill="grey" stroke="grey" stroke-width="2" points="422.64,-337.89 419.21,-327.87 415.64,-337.84 422.64,-337.89"/>
</g>
<!-- 6 -->
<g id="node7" class="node">
<title>6</title>
<path fill="none" stroke="#d85656" stroke-width="2" d="M329.36,-468C329.36,-468 209.36,-468 209.36,-468 203.36,-468 197.36,-462 197.36,-456 197.36,-456 197.36,-444 197.36,-444 197.36,-438 203.36,-432 209.36,-432 209.36,-432 329.36,-432 329.36,-432 335.36,-432 341.36,-438 341.36,-444 341.36,-444 341.36,-456 341.36,-456 341.36,-462 335.36,-468 329.36,-468"/>
<text text-anchor="middle" x="269.36" y="-447.5" font-family="sans" font-size="10.00">import_mothur_mapping_files</text>
</g>
<!-- 6&#45;&gt;3 -->
<g id="edge10" class="edge">
<title>6&#45;&gt;3</title>
<path fill="none" stroke="grey" stroke-width="2" d="M269.11,-431.34C269.01,-424.75 268.9,-417.08 268.8,-409.67"/>
<polygon fill="grey" stroke="grey" stroke-width="2" points="272.3,-409.88 268.66,-399.93 265.3,-409.98 272.3,-409.88"/>
</g>
<!-- 7&#45;&gt;0 -->
<g id="edge4" class="edge">
<title>7&#45;&gt;0</title>
<path fill="none" stroke="grey" stroke-width="2" d="M249.36,-71.34C249.36,-64.75 249.36,-57.08 249.36,-49.67"/>
<polygon fill="grey" stroke="grey" stroke-width="2" points="252.86,-49.93 249.36,-39.93 245.86,-49.93 252.86,-49.93"/>
</g>
<!-- 8&#45;&gt;0 -->
<g id="edge6" class="edge">
<title>8&#45;&gt;0</title>
<path fill="none" stroke="grey" stroke-width="2" d="M294.61,-143.07C306.11,-134.08 318.14,-122.1 324.36,-108 330.81,-93.36 331.72,-86.21 324.36,-72 316.55,-56.92 302.25,-45.21 288.22,-36.68"/>
<polygon fill="grey" stroke="grey" stroke-width="2" points="290.24,-33.8 279.8,-31.99 286.83,-39.91 290.24,-33.8"/>
</g>
<!-- 9&#45;&gt;0 -->
<g id="edge3" class="edge">
<title>9&#45;&gt;0</title>
<path fill="none" stroke="grey" stroke-width="2" d="M398.04,-143.27C386.19,-124 365.27,-93.14 341.36,-72 325.65,-58.11 305.74,-46.1 288.46,-37.04"/>
<polygon fill="grey" stroke="grey" stroke-width="2" points="290.21,-34 279.7,-32.62 287.05,-40.25 290.21,-34"/>
</g>
<!-- 10&#45;&gt;0 -->
<g id="edge7" class="edge">
<title>10&#45;&gt;0</title>
<path fill="none" stroke="grey" stroke-width="2" d="M452.46,-215.17C465.2,-206.41 478.37,-194.58 485.36,-180 492.28,-165.57 493.08,-158.01 485.36,-144 445.37,-71.45 346.24,-39.28 290,-26.47"/>
<polygon fill="grey" stroke="grey" stroke-width="2" points="290.83,-23.06 280.32,-24.38 289.36,-29.91 290.83,-23.06"/>
</g>
<!-- 11&#45;&gt;10 -->
<g id="edge16" class="edge">
<title>11&#45;&gt;10</title>
<path fill="none" stroke="grey" stroke-width="2" d="M419.36,-287.34C419.36,-280.75 419.36,-273.08 419.36,-265.67"/>
<polygon fill="grey" stroke="grey" stroke-width="2" points="422.86,-265.93 419.36,-255.93 415.86,-265.93 422.86,-265.93"/>
</g>
<!-- 12&#45;&gt;0 -->
<g id="edge1" class="edge">
<title>12&#45;&gt;0</title>
<path fill="none" stroke="grey" stroke-width="2" d="M69.65,-143.24C52.88,-124.22 32.56,-93.84 49.36,-72 68.66,-46.92 156.1,-31.26 208.77,-23.93"/>
<polygon fill="grey" stroke="grey" stroke-width="2" points="209.22,-27.4 218.66,-22.61 208.29,-20.47 209.22,-27.4"/>
</g>
<!-- 13 -->
<g id="node14" class="node">
<title>13</title>
<path fill="none" stroke="#56d8c9" stroke-width="2" d="M152.36,-108C152.36,-108 70.36,-108 70.36,-108 64.36,-108 58.36,-102 58.36,-96 58.36,-96 58.36,-84 58.36,-84 58.36,-78 64.36,-72 70.36,-72 70.36,-72 152.36,-72 152.36,-72 158.36,-72 164.36,-78 164.36,-84 164.36,-84 164.36,-96 164.36,-96 164.36,-102 158.36,-108 152.36,-108"/>
<text text-anchor="middle" x="111.36" y="-87.5" font-family="sans" font-size="10.00">alpha_beta_diversity</text>
</g>
<!-- 12&#45;&gt;13 -->
<g id="edge20" class="edge">
<title>12&#45;&gt;13</title>
<path fill="none" stroke="grey" stroke-width="2" d="M93.42,-143.34C95.73,-136.59 98.44,-128.69 101.04,-121.11"/>
<polygon fill="grey" stroke="grey" stroke-width="2" points="104.31,-122.36 104.24,-111.77 97.69,-120.09 104.31,-122.36"/>
</g>
<!-- 13&#45;&gt;0 -->
<g id="edge5" class="edge">
<title>13&#45;&gt;0</title>
<path fill="none" stroke="grey" stroke-width="2" d="M146.54,-71.15C165.94,-61.31 190.08,-49.07 210.1,-38.92"/>
<polygon fill="grey" stroke="grey" stroke-width="2" points="211.6,-42.08 218.94,-34.43 208.44,-35.83 211.6,-42.08"/>
</g>
</g>
</svg>
