<?xml version="1.0" encoding="UTF-8" standalone="no"?>
<!DOCTYPE svg PUBLIC "-//W3C//DTD SVG 1.1//EN"
 "http://www.w3.org/Graphics/SVG/1.1/DTD/svg11.dtd">
<!-- Generated by graphviz version 7.1.0 (0)
 -->
<!-- Title: snakemake_dag Pages: 1 -->
<svg width="956pt" height="476pt"
 viewBox="0.00 0.00 955.50 476.00" xmlns="http://www.w3.org/2000/svg" xmlns:xlink="http://www.w3.org/1999/xlink">
<g id="graph0" class="graph" transform="scale(1 1) rotate(0) translate(4 472)">
<title>snakemake_dag</title>
<polygon fill="white" stroke="none" points="-4,4 -4,-472 951.5,-472 951.5,4 -4,4"/>
<!-- 0 -->
<g id="node1" class="node">
<title>0</title>
<path fill="none" stroke="#afd856" stroke-width="2" d="M510,-36C510,-36 480,-36 480,-36 474,-36 468,-30 468,-24 468,-24 468,-12 468,-12 468,-6 474,0 480,0 480,0 510,0 510,0 516,0 522,-6 522,-12 522,-12 522,-24 522,-24 522,-30 516,-36 510,-36"/>
<text text-anchor="middle" x="495" y="-15.5" font-family="sans" font-size="10.00">all</text>
</g>
<!-- 1 -->
<g id="node2" class="node">
<title>1</title>
<path fill="none" stroke="#56d8a9" stroke-width="2" d="M74,-108C74,-108 12,-108 12,-108 6,-108 0,-102 0,-96 0,-96 0,-84 0,-84 0,-78 6,-72 12,-72 12,-72 74,-72 74,-72 80,-72 86,-78 86,-84 86,-84 86,-96 86,-96 86,-102 80,-108 74,-108"/>
<text text-anchor="middle" x="43" y="-87.5" font-family="sans" font-size="10.00">dot_rules_graph</text>
</g>
<!-- 1&#45;&gt;0 -->
<g id="edge7" class="edge">
<title>1&#45;&gt;0</title>
<path fill="none" stroke="grey" stroke-width="2" d="M86.81,-74.05C89.57,-73.3 92.31,-72.61 95,-72 224.57,-42.5 381.74,-27.62 454.47,-21.89"/>
<polygon fill="grey" stroke="grey" stroke-width="2" points="454.32,-25.41 464.03,-21.15 453.79,-18.43 454.32,-25.41"/>
</g>
<!-- 2 -->
<g id="node3" class="node">
<title>2</title>
<path fill="none" stroke="#c6d856" stroke-width="2" d="M214,-108C214,-108 116,-108 116,-108 110,-108 104,-102 104,-96 104,-96 104,-84 104,-84 104,-78 110,-72 116,-72 116,-72 214,-72 214,-72 220,-72 226,-78 226,-84 226,-84 226,-96 226,-96 226,-102 220,-108 214,-108"/>
<text text-anchor="middle" x="165" y="-87.5" font-family="sans" font-size="10.00">deploy_to_github_pages</text>
</g>
<!-- 2&#45;&gt;0 -->
<g id="edge4" class="edge">
<title>2&#45;&gt;0</title>
<path fill="none" stroke="grey" stroke-width="2" d="M226.81,-73.86C229.57,-73.22 232.31,-72.6 235,-72 312.39,-54.72 403.24,-36.72 454.48,-26.78"/>
<polygon fill="grey" stroke="grey" stroke-width="2" points="455.1,-30.22 464.25,-24.89 453.77,-23.35 455.1,-30.22"/>
</g>
<!-- 3 -->
<g id="node4" class="node">
<title>3</title>
<path fill="none" stroke="#d88d56" stroke-width="2" d="M353.5,-108C353.5,-108 256.5,-108 256.5,-108 250.5,-108 244.5,-102 244.5,-96 244.5,-96 244.5,-84 244.5,-84 244.5,-78 250.5,-72 256.5,-72 256.5,-72 353.5,-72 353.5,-72 359.5,-72 365.5,-78 365.5,-84 365.5,-84 365.5,-96 365.5,-96 365.5,-102 359.5,-108 353.5,-108"/>
<text text-anchor="middle" x="305" y="-87.5" font-family="sans" font-size="10.00">snakemake_html_report</text>
</g>
<!-- 3&#45;&gt;0 -->
<g id="edge3" class="edge">
<title>3&#45;&gt;0</title>
<path fill="none" stroke="grey" stroke-width="2" d="M353.44,-71.15C384.99,-59.53 425.65,-44.55 455.29,-33.63"/>
<polygon fill="grey" stroke="grey" stroke-width="2" points="456.25,-37.01 464.42,-30.26 453.83,-30.44 456.25,-37.01"/>
</g>
<!-- 4 -->
<g id="node5" class="node">
<title>4</title>
<path fill="none" stroke="#59d856" stroke-width="2" d="M526,-252C526,-252 440,-252 440,-252 434,-252 428,-246 428,-240 428,-240 428,-228 428,-228 428,-222 434,-216 440,-216 440,-216 526,-216 526,-216 532,-216 538,-222 538,-228 538,-228 538,-240 538,-240 538,-246 532,-252 526,-252"/>
<text text-anchor="middle" x="483" y="-231.5" font-family="sans" font-size="10.00">mothur_classify_otus</text>
</g>
<!-- 4&#45;&gt;0 -->
<g id="edge6" class="edge">
<title>4&#45;&gt;0</title>
<path fill="none" stroke="grey" stroke-width="2" d="M443.02,-215.06C429,-206.58 414.81,-194.97 407,-180 399.6,-165.81 402.17,-159.25 407,-144 418.99,-106.14 447.03,-69.84 468.25,-46.2"/>
<polygon fill="grey" stroke="grey" stroke-width="2" points="470.6,-48.82 474.81,-39.1 465.46,-44.07 470.6,-48.82"/>
</g>
<!-- 15 -->
<g id="node16" class="node">
<title>15</title>
<path fill="none" stroke="#d85656" stroke-width="2" d="M538,-180C538,-180 428,-180 428,-180 422,-180 416,-174 416,-168 416,-168 416,-156 416,-156 416,-150 422,-144 428,-144 428,-144 538,-144 538,-144 544,-144 550,-150 550,-156 550,-156 550,-168 550,-168 550,-174 544,-180 538,-180"/>
<text text-anchor="middle" x="483" y="-159.5" font-family="sans" font-size="10.00">mothur_split_group_shared</text>
</g>
<!-- 4&#45;&gt;15 -->
<g id="edge22" class="edge">
<title>4&#45;&gt;15</title>
<path fill="none" stroke="grey" stroke-width="2" d="M483,-215.34C483,-208.75 483,-201.08 483,-193.67"/>
<polygon fill="grey" stroke="grey" stroke-width="2" points="486.5,-193.93 483,-183.93 479.5,-193.93 486.5,-193.93"/>
</g>
<!-- 5 -->
<g id="node6" class="node">
<title>5</title>
<path fill="none" stroke="#56d892" stroke-width="2" d="M771,-324C771,-324 649,-324 649,-324 643,-324 637,-318 637,-312 637,-312 637,-300 637,-300 637,-294 643,-288 649,-288 649,-288 771,-288 771,-288 777,-288 783,-294 783,-300 783,-300 783,-312 783,-312 783,-318 777,-324 771,-324"/>
<text text-anchor="middle" x="710" y="-303.5" font-family="sans" font-size="10.00">mothur_final_processed_seqs</text>
</g>
<!-- 5&#45;&gt;4 -->
<g id="edge11" class="edge">
<title>5&#45;&gt;4</title>
<path fill="none" stroke="grey" stroke-width="2" d="M651.84,-287.06C621.11,-277.59 583.21,-265.9 551.11,-256"/>
<polygon fill="grey" stroke="grey" stroke-width="2" points="552.14,-252.66 541.56,-253.06 550.08,-259.35 552.14,-252.66"/>
</g>
<!-- 10 -->
<g id="node11" class="node">
<title>10</title>
<path fill="none" stroke="#70d856" stroke-width="2" d="M689.5,-180C689.5,-180 580.5,-180 580.5,-180 574.5,-180 568.5,-174 568.5,-168 568.5,-168 568.5,-156 568.5,-156 568.5,-150 574.5,-144 580.5,-144 580.5,-144 689.5,-144 689.5,-144 695.5,-144 701.5,-150 701.5,-156 701.5,-156 701.5,-168 701.5,-168 701.5,-174 695.5,-180 689.5,-180"/>
<text text-anchor="middle" x="635" y="-159.5" font-family="sans" font-size="10.00">mothur_classify_phylotype</text>
</g>
<!-- 5&#45;&gt;10 -->
<g id="edge16" class="edge">
<title>5&#45;&gt;10</title>
<path fill="none" stroke="grey" stroke-width="2" d="M700.5,-287.02C687.88,-263.12 665.42,-220.59 650.37,-192.1"/>
<polygon fill="grey" stroke="grey" stroke-width="2" points="653.6,-190.72 645.84,-183.52 647.41,-193.99 653.6,-190.72"/>
</g>
<!-- 11 -->
<g id="node12" class="node">
<title>11</title>
<path fill="none" stroke="#56a9d8" stroke-width="2" d="M820,-180C820,-180 732,-180 732,-180 726,-180 720,-174 720,-168 720,-168 720,-156 720,-156 720,-150 726,-144 732,-144 732,-144 820,-144 820,-144 826,-144 832,-150 832,-156 832,-156 832,-168 832,-168 832,-174 826,-180 820,-180"/>
<text text-anchor="middle" x="776" y="-159.5" font-family="sans" font-size="10.00">mothur_classify_asvs</text>
</g>
<!-- 5&#45;&gt;11 -->
<g id="edge17" class="edge">
<title>5&#45;&gt;11</title>
<path fill="none" stroke="grey" stroke-width="2" d="M699.69,-287.21C690.28,-268.43 679.59,-238.5 692,-216 698.31,-204.56 708.24,-195.25 719.09,-187.81"/>
<polygon fill="grey" stroke="grey" stroke-width="2" points="720.91,-190.81 727.58,-182.58 717.23,-184.85 720.91,-190.81"/>
</g>
<!-- 12 -->
<g id="node13" class="node">
<title>12</title>
<path fill="none" stroke="#d8cb56" stroke-width="2" d="M824.5,-252C824.5,-252 713.5,-252 713.5,-252 707.5,-252 701.5,-246 701.5,-240 701.5,-240 701.5,-228 701.5,-228 701.5,-222 707.5,-216 713.5,-216 713.5,-216 824.5,-216 824.5,-216 830.5,-216 836.5,-222 836.5,-228 836.5,-228 836.5,-240 836.5,-240 836.5,-246 830.5,-252 824.5,-252"/>
<text text-anchor="middle" x="769" y="-231.5" font-family="sans" font-size="10.00">mothur_classify_phylogeny</text>
</g>
<!-- 5&#45;&gt;12 -->
<g id="edge18" class="edge">
<title>5&#45;&gt;12</title>
<path fill="none" stroke="grey" stroke-width="2" d="M724.89,-287.34C731.2,-279.85 738.7,-270.95 745.71,-262.63"/>
<polygon fill="grey" stroke="grey" stroke-width="2" points="748.19,-265.12 751.96,-255.22 742.84,-260.61 748.19,-265.12"/>
</g>
<!-- 13 -->
<g id="node14" class="node">
<title>13</title>
<path fill="none" stroke="#56c9d8" stroke-width="2" d="M935.5,-252C935.5,-252 866.5,-252 866.5,-252 860.5,-252 854.5,-246 854.5,-240 854.5,-240 854.5,-228 854.5,-228 854.5,-222 860.5,-216 866.5,-216 866.5,-216 935.5,-216 935.5,-216 941.5,-216 947.5,-222 947.5,-228 947.5,-228 947.5,-240 947.5,-240 947.5,-246 941.5,-252 935.5,-252"/>
<text text-anchor="middle" x="901" y="-231.5" font-family="sans" font-size="10.00">mothur_error_rate</text>
</g>
<!-- 5&#45;&gt;13 -->
<g id="edge19" class="edge">
<title>5&#45;&gt;13</title>
<path fill="none" stroke="grey" stroke-width="2" d="M758.69,-287.15C783.99,-277.88 815.12,-266.47 841.81,-256.69"/>
<polygon fill="grey" stroke="grey" stroke-width="2" points="842.69,-260.1 850.88,-253.37 840.28,-253.53 842.69,-260.1"/>
</g>
<!-- 6 -->
<g id="node7" class="node">
<title>6</title>
<path fill="none" stroke="#8fd856" stroke-width="2" d="M769.5,-396C769.5,-396 654.5,-396 654.5,-396 648.5,-396 642.5,-390 642.5,-384 642.5,-384 642.5,-372 642.5,-372 642.5,-366 648.5,-360 654.5,-360 654.5,-360 769.5,-360 769.5,-360 775.5,-360 781.5,-366 781.5,-372 781.5,-372 781.5,-384 781.5,-384 781.5,-390 775.5,-396 769.5,-396"/>
<text text-anchor="middle" x="712" y="-375.5" font-family="sans" font-size="10.00">mothur_process_sequences</text>
</g>
<!-- 6&#45;&gt;5 -->
<g id="edge12" class="edge">
<title>6&#45;&gt;5</title>
<path fill="none" stroke="grey" stroke-width="2" d="M711.5,-359.34C711.31,-352.75 711.09,-345.08 710.88,-337.67"/>
<polygon fill="grey" stroke="grey" stroke-width="2" points="714.38,-337.82 710.6,-327.93 707.39,-338.02 714.38,-337.82"/>
</g>
<!-- 7 -->
<g id="node8" class="node">
<title>7</title>
<path fill="none" stroke="#5673d8" stroke-width="2" d="M621,-468C621,-468 509,-468 509,-468 503,-468 497,-462 497,-456 497,-456 497,-444 497,-444 497,-438 503,-432 509,-432 509,-432 621,-432 621,-432 627,-432 633,-438 633,-444 633,-444 633,-456 633,-456 633,-462 627,-468 621,-468"/>
<text text-anchor="middle" x="565" y="-447.5" font-family="sans" font-size="10.00">auto_mothur_mapping_files</text>
</g>
<!-- 7&#45;&gt;6 -->
<g id="edge15" class="edge">
<title>7&#45;&gt;6</title>
<path fill="none" stroke="grey" stroke-width="2" d="M602.47,-431.15C620.81,-422.43 643.11,-411.81 662.79,-402.43"/>
<polygon fill="grey" stroke="grey" stroke-width="2" points="664.08,-405.69 671.61,-398.24 661.07,-399.37 664.08,-405.69"/>
</g>
<!-- 8 -->
<g id="node9" class="node">
<title>8</title>
<path fill="none" stroke="#d8ac56" stroke-width="2" d="M922,-468C922,-468 830,-468 830,-468 824,-468 818,-462 818,-456 818,-456 818,-444 818,-444 818,-438 824,-432 830,-432 830,-432 922,-432 922,-432 928,-432 934,-438 934,-444 934,-444 934,-456 934,-456 934,-462 928,-468 922,-468"/>
<text text-anchor="middle" x="876" y="-447.5" font-family="sans" font-size="10.00">get_mothur_references</text>
</g>
<!-- 8&#45;&gt;6 -->
<g id="edge14" class="edge">
<title>8&#45;&gt;6</title>
<path fill="none" stroke="grey" stroke-width="2" d="M834.19,-431.15C813.45,-422.3 788.16,-411.51 765.97,-402.04"/>
<polygon fill="grey" stroke="grey" stroke-width="2" points="767.37,-398.83 756.8,-398.12 764.62,-405.27 767.37,-398.83"/>
</g>
<!-- 14 -->
<g id="node15" class="node">
<title>14</title>
<path fill="none" stroke="#5692d8" stroke-width="2" d="M932,-324C932,-324 832,-324 832,-324 826,-324 820,-318 820,-312 820,-312 820,-300 820,-300 820,-294 826,-288 832,-288 832,-288 932,-288 932,-288 938,-288 944,-294 944,-300 944,-300 944,-312 944,-312 944,-318 938,-324 932,-324"/>
<text text-anchor="middle" x="882" y="-303.5" font-family="sans" font-size="10.00">get_mothur_zymo_mock</text>
</g>
<!-- 8&#45;&gt;14 -->
<g id="edge21" class="edge">
<title>8&#45;&gt;14</title>
<path fill="none" stroke="grey" stroke-width="2" d="M876.76,-431.02C877.75,-407.54 879.5,-366.11 880.71,-337.64"/>
<polygon fill="grey" stroke="grey" stroke-width="2" points="884.19,-338 881.12,-327.86 877.2,-337.71 884.19,-338"/>
</g>
<!-- 9 -->
<g id="node10" class="node">
<title>9</title>
<path fill="none" stroke="#56d8c9" stroke-width="2" d="M783,-468C783,-468 663,-468 663,-468 657,-468 651,-462 651,-456 651,-456 651,-444 651,-444 651,-438 657,-432 663,-432 663,-432 783,-432 783,-432 789,-432 795,-438 795,-444 795,-444 795,-456 795,-456 795,-462 789,-468 783,-468"/>
<text text-anchor="middle" x="723" y="-447.5" font-family="sans" font-size="10.00">import_mothur_mapping_files</text>
</g>
<!-- 9&#45;&gt;6 -->
<g id="edge13" class="edge">
<title>9&#45;&gt;6</title>
<path fill="none" stroke="grey" stroke-width="2" d="M720.22,-431.34C719.19,-424.75 717.98,-417.08 716.82,-409.67"/>
<polygon fill="grey" stroke="grey" stroke-width="2" points="720.29,-409.23 715.28,-399.89 713.38,-410.31 720.29,-409.23"/>
</g>
<!-- 10&#45;&gt;0 -->
<g id="edge5" class="edge">
<title>10&#45;&gt;0</title>
<path fill="none" stroke="grey" stroke-width="2" d="M631.48,-143.31C626.8,-123.78 616.83,-92.42 598,-72 580.91,-53.46 555.85,-40.37 534.73,-31.83"/>
<polygon fill="grey" stroke="grey" stroke-width="2" points="536.26,-28.67 525.67,-28.4 533.78,-35.22 536.26,-28.67"/>
</g>
<!-- 11&#45;&gt;0 -->
<g id="edge10" class="edge">
<title>11&#45;&gt;0</title>
<path fill="none" stroke="grey" stroke-width="2" d="M747.87,-143.1C717.64,-124.23 667.89,-94.22 623,-72 594.1,-57.69 560.37,-43.84 534.79,-33.88"/>
<polygon fill="grey" stroke="grey" stroke-width="2" points="536.36,-30.73 525.77,-30.41 533.84,-37.27 536.36,-30.73"/>
</g>
<!-- 12&#45;&gt;0 -->
<g id="edge8" class="edge">
<title>12&#45;&gt;0</title>
<path fill="none" stroke="grey" stroke-width="2" d="M806.16,-215.1C819.7,-206.51 833.51,-194.82 841,-180 848.22,-165.72 849.85,-157.33 841,-144 772.93,-41.48 611.32,-22.47 535.54,-19.34"/>
<polygon fill="grey" stroke="grey" stroke-width="2" points="535.99,-15.86 525.88,-19.03 535.76,-22.85 535.99,-15.86"/>
</g>
<!-- 13&#45;&gt;0 -->
<g id="edge9" class="edge">
<title>13&#45;&gt;0</title>
<path fill="none" stroke="grey" stroke-width="2" d="M895.98,-215.25C885.16,-180.65 856.01,-104.7 801,-72 756.72,-45.68 608.02,-29.12 535.48,-22.42"/>
<polygon fill="grey" stroke="grey" stroke-width="2" points="536.16,-18.96 525.88,-21.55 535.53,-25.93 536.16,-18.96"/>
</g>
<!-- 14&#45;&gt;13 -->
<g id="edge20" class="edge">
<title>14&#45;&gt;13</title>
<path fill="none" stroke="grey" stroke-width="2" d="M886.79,-287.34C888.6,-280.67 890.72,-272.89 892.75,-265.39"/>
<polygon fill="grey" stroke="grey" stroke-width="2" points="896.11,-266.39 895.35,-255.82 889.35,-264.56 896.11,-266.39"/>
</g>
<!-- 15&#45;&gt;0 -->
<g id="edge1" class="edge">
<title>15&#45;&gt;0</title>
<path fill="none" stroke="grey" stroke-width="2" d="M478.19,-143.14C474.02,-125.07 469.34,-96.41 474,-72 475.5,-64.15 478.14,-55.98 481.05,-48.48"/>
<polygon fill="grey" stroke="grey" stroke-width="2" points="484.21,-50.01 484.88,-39.43 477.76,-47.28 484.21,-50.01"/>
</g>
<!-- 16 -->
<g id="node17" class="node">
<title>16</title>
<path fill="none" stroke="#d87556" stroke-width="2" d="M577,-108C577,-108 495,-108 495,-108 489,-108 483,-102 483,-96 483,-96 483,-84 483,-84 483,-78 489,-72 495,-72 495,-72 577,-72 577,-72 583,-72 589,-78 589,-84 589,-84 589,-96 589,-96 589,-102 583,-108 577,-108"/>
<text text-anchor="middle" x="536" y="-87.5" font-family="sans" font-size="10.00">alpha_beta_diversity</text>
</g>
<!-- 15&#45;&gt;16 -->
<g id="edge23" class="edge">
<title>15&#45;&gt;16</title>
<path fill="none" stroke="grey" stroke-width="2" d="M496.37,-143.34C501.92,-136.01 508.49,-127.34 514.67,-119.18"/>
<polygon fill="grey" stroke="grey" stroke-width="2" points="517.37,-121.4 520.62,-111.32 511.79,-117.18 517.37,-121.4"/>
</g>
<!-- 16&#45;&gt;0 -->
<g id="edge2" class="edge">
<title>16&#45;&gt;0</title>
<path fill="none" stroke="grey" stroke-width="2" d="M525.65,-71.34C521.51,-64.26 516.63,-55.92 511.99,-48"/>
<polygon fill="grey" stroke="grey" stroke-width="2" points="515.09,-46.37 507.02,-39.51 509.05,-49.91 515.09,-46.37"/>
</g>
</g>
</svg>
