<?xml version="1.0" encoding="UTF-8" standalone="no"?>
<!DOCTYPE svg PUBLIC "-//W3C//DTD SVG 1.1//EN"
 "http://www.w3.org/Graphics/SVG/1.1/DTD/svg11.dtd">
<!-- Generated by graphviz version 6.0.1 (0)
 -->
<!-- Title: snakemake_dag Pages: 1 -->
<svg width="370pt" height="188pt"
 viewBox="0.00 0.00 369.50 188.00" xmlns="http://www.w3.org/2000/svg" xmlns:xlink="http://www.w3.org/1999/xlink">
<g id="graph0" class="graph" transform="scale(1 1) rotate(0) translate(4 184)">
<title>snakemake_dag</title>
<polygon fill="white" stroke="none" points="-4,4 -4,-184 365.5,-184 365.5,4 -4,4"/>
<!-- 0 -->
<g id="node1" class="node">
<title>0</title>
<path fill="none" stroke="#56d88a" stroke-width="2" d="M171,-36C171,-36 141,-36 141,-36 135,-36 129,-30 129,-24 129,-24 129,-12 129,-12 129,-6 135,0 141,0 141,0 171,0 171,0 177,0 183,-6 183,-12 183,-12 183,-24 183,-24 183,-30 177,-36 171,-36"/>
<text text-anchor="middle" x="156" y="-15.5" font-family="sans" font-size="10.00">all</text>
</g>
<!-- 1 -->
<g id="node2" class="node">
<title>1</title>
<path fill="none" stroke="#88d856" stroke-width="2" d="M100,-180C100,-180 12,-180 12,-180 6,-180 0,-174 0,-168 0,-168 0,-156 0,-156 0,-150 6,-144 12,-144 12,-144 100,-144 100,-144 106,-144 112,-150 112,-156 112,-156 112,-168 112,-168 112,-174 106,-180 100,-180"/>
<text text-anchor="middle" x="56" y="-159.5" font-family="sans" font-size="10.00">get_bioinfo_resources</text>
</g>
<!-- 1&#45;&gt;0 -->
<g id="edge4" class="edge">
<title>1&#45;&gt;0</title>
<path fill="none" stroke="grey" stroke-width="2" d="M44.69,-143.91C33.69,-124.93 20.58,-94.06 35,-72 53.44,-43.79 90.58,-30.5 118.88,-24.3"/>
<polygon fill="grey" stroke="grey" stroke-width="2" points="119.72,-27.7 128.85,-22.32 118.36,-20.84 119.72,-27.7"/>
</g>
<!-- 2 -->
<g id="node3" class="node">
<title>2</title>
<path fill="none" stroke="#56c1d8" stroke-width="2" d="M135.5,-108C135.5,-108 56.5,-108 56.5,-108 50.5,-108 44.5,-102 44.5,-96 44.5,-96 44.5,-84 44.5,-84 44.5,-78 50.5,-72 56.5,-72 56.5,-72 135.5,-72 135.5,-72 141.5,-72 147.5,-78 147.5,-84 147.5,-84 147.5,-96 147.5,-96 147.5,-102 141.5,-108 135.5,-108"/>
<text text-anchor="middle" x="96" y="-87.5" font-family="sans" font-size="10.00">samples_units_files</text>
</g>
<!-- 1&#45;&gt;2 -->
<g id="edge5" class="edge">
<title>1&#45;&gt;2</title>
<path fill="none" stroke="grey" stroke-width="2" d="M65.89,-143.7C70.49,-135.64 76.06,-125.89 81.15,-116.98"/>
<polygon fill="grey" stroke="grey" stroke-width="2" points="84.3,-118.52 86.23,-108.1 78.23,-115.05 84.3,-118.52"/>
</g>
<!-- 2&#45;&gt;0 -->
<g id="edge2" class="edge">
<title>2&#45;&gt;0</title>
<path fill="none" stroke="grey" stroke-width="2" d="M110.83,-71.7C118.02,-63.3 126.8,-53.07 134.69,-43.86"/>
<polygon fill="grey" stroke="grey" stroke-width="2" points="137.49,-45.97 141.34,-36.1 132.17,-41.42 137.49,-45.97"/>
</g>
<!-- 3 -->
<g id="node4" class="node">
<title>3</title>
<path fill="none" stroke="#d8bc56" stroke-width="2" d="M256.5,-108C256.5,-108 177.5,-108 177.5,-108 171.5,-108 165.5,-102 165.5,-96 165.5,-96 165.5,-84 165.5,-84 165.5,-78 171.5,-72 177.5,-72 177.5,-72 256.5,-72 256.5,-72 262.5,-72 268.5,-78 268.5,-84 268.5,-84 268.5,-96 268.5,-96 268.5,-102 262.5,-108 256.5,-108"/>
<text text-anchor="middle" x="217" y="-87.5" font-family="sans" font-size="10.00">get_project_tree_txt</text>
</g>
<!-- 3&#45;&gt;0 -->
<g id="edge3" class="edge">
<title>3&#45;&gt;0</title>
<path fill="none" stroke="grey" stroke-width="2" d="M201.92,-71.7C194.61,-63.3 185.69,-53.07 177.66,-43.86"/>
<polygon fill="grey" stroke="grey" stroke-width="2" points="180.11,-41.34 170.91,-36.1 174.84,-45.94 180.11,-41.34"/>
</g>
<!-- 4 -->
<g id="node5" class="node">
<title>4</title>
<path fill="none" stroke="#d85656" stroke-width="2" d="M349.5,-108C349.5,-108 298.5,-108 298.5,-108 292.5,-108 286.5,-102 286.5,-96 286.5,-96 286.5,-84 286.5,-84 286.5,-78 292.5,-72 298.5,-72 298.5,-72 349.5,-72 349.5,-72 355.5,-72 361.5,-78 361.5,-84 361.5,-84 361.5,-96 361.5,-96 361.5,-102 355.5,-108 349.5,-108"/>
<text text-anchor="middle" x="324" y="-87.5" font-family="sans" font-size="10.00">get_rulegraph</text>
</g>
<!-- 4&#45;&gt;0 -->
<g id="edge1" class="edge">
<title>4&#45;&gt;0</title>
<path fill="none" stroke="grey" stroke-width="2" d="M286.3,-73.29C258.26,-61.61 220.21,-45.75 192.47,-34.2"/>
<polygon fill="grey" stroke="grey" stroke-width="2" points="193.7,-30.92 183.12,-30.3 191.01,-37.38 193.7,-30.92"/>
</g>
</g>
</svg>
