<?xml version="1.0" encoding="UTF-8" standalone="no"?>
<!DOCTYPE svg PUBLIC "-//W3C//DTD SVG 1.1//EN"
 "http://www.w3.org/Graphics/SVG/1.1/DTD/svg11.dtd">
<!-- Generated by graphviz version 6.0.1 (0)
 -->
<!-- Title: snakemake_dag Pages: 1 -->
<svg width="500pt" height="260pt"
 viewBox="0.00 0.00 500.00 260.00" xmlns="http://www.w3.org/2000/svg" xmlns:xlink="http://www.w3.org/1999/xlink">
<g id="graph0" class="graph" transform="scale(1 1) rotate(0) translate(4 256)">
<title>snakemake_dag</title>
<polygon fill="white" stroke="none" points="-4,4 -4,-256 496,-256 496,4 -4,4"/>
<!-- 0 -->
<g id="node1" class="node">
<title>0</title>
<path fill="none" stroke="#c6d856" stroke-width="2" d="M258,-36C258,-36 228,-36 228,-36 222,-36 216,-30 216,-24 216,-24 216,-12 216,-12 216,-6 222,0 228,0 228,0 258,0 258,0 264,0 270,-6 270,-12 270,-12 270,-24 270,-24 270,-30 264,-36 258,-36"/>
<text text-anchor="middle" x="243" y="-15.5" font-family="sans" font-size="10.00">all</text>
</g>
<!-- 1 -->
<g id="node2" class="node">
<title>1</title>
<path fill="none" stroke="#56a2d8" stroke-width="2" d="M94,-252C94,-252 12,-252 12,-252 6,-252 0,-246 0,-240 0,-240 0,-228 0,-228 0,-222 6,-216 12,-216 12,-216 94,-216 94,-216 100,-216 106,-222 106,-228 106,-228 106,-240 106,-240 106,-246 100,-252 94,-252"/>
<text text-anchor="middle" x="53" y="-231.5" font-family="sans" font-size="10.00">make_mapping_files</text>
</g>
<!-- 1&#45;&gt;0 -->
<g id="edge6" class="edge">
<title>1&#45;&gt;0</title>
<path fill="none" stroke="grey" stroke-width="2" d="M39.75,-215.92C27.36,-197.75 12.26,-168.31 23,-144 55.18,-71.14 152.13,-38.78 205.97,-26.11"/>
<polygon fill="grey" stroke="grey" stroke-width="2" points="206.82,-29.5 215.81,-23.89 205.29,-22.67 206.82,-29.5"/>
</g>
<!-- 4 -->
<g id="node5" class="node">
<title>4</title>
<path fill="none" stroke="#d8a456" stroke-width="2" d="M159.5,-180C159.5,-180 44.5,-180 44.5,-180 38.5,-180 32.5,-174 32.5,-168 32.5,-168 32.5,-156 32.5,-156 32.5,-150 38.5,-144 44.5,-144 44.5,-144 159.5,-144 159.5,-144 165.5,-144 171.5,-150 171.5,-156 171.5,-156 171.5,-168 171.5,-168 171.5,-174 165.5,-180 159.5,-180"/>
<text text-anchor="middle" x="102" y="-159.5" font-family="sans" font-size="10.00">mothur_process_sequences</text>
</g>
<!-- 1&#45;&gt;4 -->
<g id="edge9" class="edge">
<title>1&#45;&gt;4</title>
<path fill="none" stroke="grey" stroke-width="2" d="M65.11,-215.7C70.87,-207.47 77.86,-197.48 84.21,-188.42"/>
<polygon fill="grey" stroke="grey" stroke-width="2" points="87.16,-190.3 90.03,-180.1 81.42,-186.29 87.16,-190.3"/>
</g>
<!-- 2 -->
<g id="node3" class="node">
<title>2</title>
<path fill="none" stroke="#d85656" stroke-width="2" d="M298,-252C298,-252 206,-252 206,-252 200,-252 194,-246 194,-240 194,-240 194,-228 194,-228 194,-222 200,-216 206,-216 206,-216 298,-216 298,-216 304,-216 310,-222 310,-228 310,-228 310,-240 310,-240 310,-246 304,-252 298,-252"/>
<text text-anchor="middle" x="252" y="-231.5" font-family="sans" font-size="10.00">get_mothur_references</text>
</g>
<!-- 2&#45;&gt;0 -->
<g id="edge1" class="edge">
<title>2&#45;&gt;0</title>
<path fill="none" stroke="grey" stroke-width="2" d="M287.17,-215.94C300.98,-207.25 315.35,-195.26 323,-180 330.17,-165.7 326.68,-159.57 323,-144 313.84,-105.19 286.52,-67.63 266.34,-43.98"/>
<polygon fill="grey" stroke="grey" stroke-width="2" points="268.77,-41.44 259.55,-36.22 263.5,-46.05 268.77,-41.44"/>
</g>
<!-- 3 -->
<g id="node4" class="node">
<title>3</title>
<path fill="none" stroke="#56d8c9" stroke-width="2" d="M302,-180C302,-180 202,-180 202,-180 196,-180 190,-174 190,-168 190,-168 190,-156 190,-156 190,-150 196,-144 202,-144 202,-144 302,-144 302,-144 308,-144 314,-150 314,-156 314,-156 314,-168 314,-168 314,-174 308,-180 302,-180"/>
<text text-anchor="middle" x="252" y="-159.5" font-family="sans" font-size="10.00">get_mothur_zymo_mock</text>
</g>
<!-- 2&#45;&gt;3 -->
<g id="edge7" class="edge">
<title>2&#45;&gt;3</title>
<path fill="none" stroke="grey" stroke-width="2" d="M252,-215.7C252,-207.98 252,-198.71 252,-190.11"/>
<polygon fill="grey" stroke="grey" stroke-width="2" points="255.5,-190.1 252,-180.1 248.5,-190.1 255.5,-190.1"/>
</g>
<!-- 2&#45;&gt;4 -->
<g id="edge8" class="edge">
<title>2&#45;&gt;4</title>
<path fill="none" stroke="grey" stroke-width="2" d="M215.31,-215.88C194.98,-206.39 169.53,-194.51 147.9,-184.42"/>
<polygon fill="grey" stroke="grey" stroke-width="2" points="149.12,-181.13 138.57,-180.07 146.16,-187.47 149.12,-181.13"/>
</g>
<!-- 3&#45;&gt;0 -->
<g id="edge5" class="edge">
<title>3&#45;&gt;0</title>
<path fill="none" stroke="grey" stroke-width="2" d="M260.3,-143.86C267.91,-125.88 277.16,-96.84 271,-72 268.71,-62.75 264.47,-53.34 259.98,-45.07"/>
<polygon fill="grey" stroke="grey" stroke-width="2" points="262.93,-43.17 254.89,-36.28 256.87,-46.68 262.93,-43.17"/>
</g>
<!-- 5 -->
<g id="node6" class="node">
<title>5</title>
<path fill="none" stroke="#56d87b" stroke-width="2" d="M250,-108C250,-108 142,-108 142,-108 136,-108 130,-102 130,-96 130,-96 130,-84 130,-84 130,-78 136,-72 142,-72 142,-72 250,-72 250,-72 256,-72 262,-78 262,-84 262,-84 262,-96 262,-96 262,-102 256,-108 250,-108"/>
<text text-anchor="middle" x="196" y="-87.5" font-family="sans" font-size="10.00">mothur_calculate_errorrate</text>
</g>
<!-- 3&#45;&gt;5 -->
<g id="edge11" class="edge">
<title>3&#45;&gt;5</title>
<path fill="none" stroke="grey" stroke-width="2" d="M238.16,-143.7C231.51,-135.39 223.42,-125.28 216.11,-116.14"/>
<polygon fill="grey" stroke="grey" stroke-width="2" points="218.66,-113.73 209.68,-108.1 213.2,-118.1 218.66,-113.73"/>
</g>
<!-- 4&#45;&gt;0 -->
<g id="edge2" class="edge">
<title>4&#45;&gt;0</title>
<path fill="none" stroke="grey" stroke-width="2" d="M101.23,-143.96C101.26,-124.45 104.19,-92.54 121,-72 142.13,-46.17 178.29,-32.61 205.77,-25.7"/>
<polygon fill="grey" stroke="grey" stroke-width="2" points="206.88,-29.04 215.83,-23.37 205.3,-22.22 206.88,-29.04"/>
</g>
<!-- 4&#45;&gt;5 -->
<g id="edge10" class="edge">
<title>4&#45;&gt;5</title>
<path fill="none" stroke="grey" stroke-width="2" d="M125.24,-143.7C137.19,-134.8 151.92,-123.82 164.85,-114.2"/>
<polygon fill="grey" stroke="grey" stroke-width="2" points="167.1,-116.88 173.03,-108.1 162.92,-111.27 167.1,-116.88"/>
</g>
<!-- 5&#45;&gt;0 -->
<g id="edge4" class="edge">
<title>5&#45;&gt;0</title>
<path fill="none" stroke="grey" stroke-width="2" d="M207.62,-71.7C213.14,-63.47 219.85,-53.48 225.93,-44.42"/>
<polygon fill="grey" stroke="grey" stroke-width="2" points="228.85,-46.36 231.52,-36.1 223.04,-42.46 228.85,-46.36"/>
</g>
<!-- 6 -->
<g id="node7" class="node">
<title>6</title>
<path fill="none" stroke="#78d856" stroke-width="2" d="M480,-108C480,-108 382,-108 382,-108 376,-108 370,-102 370,-96 370,-96 370,-84 370,-84 370,-78 376,-72 382,-72 382,-72 480,-72 480,-72 486,-72 492,-78 492,-84 492,-84 492,-96 492,-96 492,-102 486,-108 480,-108"/>
<text text-anchor="middle" x="431" y="-87.5" font-family="sans" font-size="10.00">deploy_to_github_pages</text>
</g>
<!-- 6&#45;&gt;0 -->
<g id="edge3" class="edge">
<title>6&#45;&gt;0</title>
<path fill="none" stroke="grey" stroke-width="2" d="M385.01,-71.88C352.68,-59.84 310,-43.95 279.9,-32.74"/>
<polygon fill="grey" stroke="grey" stroke-width="2" points="280.8,-29.34 270.2,-29.13 278.35,-35.9 280.8,-29.34"/>
</g>
</g>
</svg>
