<?xml version="1.0" encoding="UTF-8" standalone="no"?>
<!DOCTYPE svg PUBLIC "-//W3C//DTD SVG 1.1//EN"
 "http://www.w3.org/Graphics/SVG/1.1/DTD/svg11.dtd">
<!-- Generated by graphviz version 6.0.1 (0)
 -->
<!-- Title: snakemake_dag Pages: 1 -->
<svg width="598pt" height="764pt"
 viewBox="0.00 0.00 598.00 764.00" xmlns="http://www.w3.org/2000/svg" xmlns:xlink="http://www.w3.org/1999/xlink">
<g id="graph0" class="graph" transform="scale(1 1) rotate(0) translate(4 760)">
<title>snakemake_dag</title>
<polygon fill="white" stroke="none" points="-4,4 -4,-760 594,-760 594,4 -4,4"/>
<!-- 0 -->
<g id="node1" class="node">
<title>0</title>
<path fill="none" stroke="#56d8c9" stroke-width="2" d="M281,-36C281,-36 251,-36 251,-36 245,-36 239,-30 239,-24 239,-24 239,-12 239,-12 239,-6 245,0 251,0 251,0 281,0 281,0 287,0 293,-6 293,-12 293,-12 293,-24 293,-24 293,-30 287,-36 281,-36"/>
<text text-anchor="middle" x="266" y="-15.5" font-family="sans" font-size="10.00">all</text>
</g>
<!-- 1 -->
<g id="node2" class="node">
<title>1</title>
<path fill="none" stroke="#70d856" stroke-width="2" d="M86.5,-612C86.5,-612 21.5,-612 21.5,-612 15.5,-612 9.5,-606 9.5,-600 9.5,-600 9.5,-588 9.5,-588 9.5,-582 15.5,-576 21.5,-576 21.5,-576 86.5,-576 86.5,-576 92.5,-576 98.5,-582 98.5,-588 98.5,-588 98.5,-600 98.5,-600 98.5,-606 92.5,-612 86.5,-612"/>
<text text-anchor="middle" x="54" y="-591.5" font-family="sans" font-size="10.00">get_zymo_mock</text>
</g>
<!-- 1&#45;&gt;0 -->
<g id="edge3" class="edge">
<title>1&#45;&gt;0</title>
<path fill="none" stroke="grey" stroke-width="2" d="M54,-575.95C54,-549.29 54,-496.11 54,-451 54,-451 54,-451 54,-161 54,-77.88 167.9,-40.32 228.73,-26.19"/>
<polygon fill="grey" stroke="grey" stroke-width="2" points="229.72,-29.55 238.72,-23.96 228.2,-22.72 229.72,-29.55"/>
</g>
<!-- 2 -->
<g id="node3" class="node">
<title>2</title>
<path fill="none" stroke="#b6d856" stroke-width="2" d="M96,-756C96,-756 12,-756 12,-756 6,-756 0,-750 0,-744 0,-744 0,-732 0,-732 0,-726 6,-720 12,-720 12,-720 96,-720 96,-720 102,-720 108,-726 108,-732 108,-732 108,-744 108,-744 108,-750 102,-756 96,-756"/>
<text text-anchor="middle" x="54" y="-735.5" font-family="sans" font-size="10.00">get_silva_alignments</text>
</g>
<!-- 2&#45;&gt;1 -->
<g id="edge8" class="edge">
<title>2&#45;&gt;1</title>
<path fill="none" stroke="grey" stroke-width="2" d="M54,-719.87C54,-695.67 54,-651.21 54,-622.39"/>
<polygon fill="grey" stroke="grey" stroke-width="2" points="57.5,-622.19 54,-612.19 50.5,-622.19 57.5,-622.19"/>
</g>
<!-- 8 -->
<g id="node9" class="node">
<title>8</title>
<path fill="none" stroke="#d89c56" stroke-width="2" d="M164.5,-684C164.5,-684 117.5,-684 117.5,-684 111.5,-684 105.5,-678 105.5,-672 105.5,-672 105.5,-660 105.5,-660 105.5,-654 111.5,-648 117.5,-648 117.5,-648 164.5,-648 164.5,-648 170.5,-648 176.5,-654 176.5,-660 176.5,-660 176.5,-672 176.5,-672 176.5,-678 170.5,-684 164.5,-684"/>
<text text-anchor="middle" x="141" y="-663.5" font-family="sans" font-size="10.00">align_n_filter</text>
</g>
<!-- 2&#45;&gt;8 -->
<g id="edge18" class="edge">
<title>2&#45;&gt;8</title>
<path fill="none" stroke="grey" stroke-width="2" d="M75.51,-719.7C86.46,-710.88 99.95,-700.03 111.82,-690.47"/>
<polygon fill="grey" stroke="grey" stroke-width="2" points="114.14,-693.1 119.74,-684.1 109.76,-687.65 114.14,-693.1"/>
</g>
<!-- 3 -->
<g id="node4" class="node">
<title>3</title>
<path fill="none" stroke="#56c9d8" stroke-width="2" d="M177.5,-324C177.5,-324 124.5,-324 124.5,-324 118.5,-324 112.5,-318 112.5,-312 112.5,-312 112.5,-300 112.5,-300 112.5,-294 118.5,-288 124.5,-288 124.5,-288 177.5,-288 177.5,-288 183.5,-288 189.5,-294 189.5,-300 189.5,-300 189.5,-312 189.5,-312 189.5,-318 183.5,-324 177.5,-324"/>
<text text-anchor="middle" x="151" y="-303.5" font-family="sans" font-size="10.00">final_otu_files</text>
</g>
<!-- 3&#45;&gt;0 -->
<g id="edge4" class="edge">
<title>3&#45;&gt;0</title>
<path fill="none" stroke="grey" stroke-width="2" d="M149.57,-287.85C147.02,-246.9 145.65,-141.65 191,-72 200.58,-57.28 215.8,-45.42 230.03,-36.68"/>
<polygon fill="grey" stroke="grey" stroke-width="2" points="231.82,-39.69 238.71,-31.64 228.3,-33.64 231.82,-39.69"/>
</g>
<!-- 17 -->
<g id="node18" class="node">
<title>17</title>
<path fill="none" stroke="#566bd8" stroke-width="2" d="M255,-252C255,-252 183,-252 183,-252 177,-252 171,-246 171,-240 171,-240 171,-228 171,-228 171,-222 177,-216 183,-216 183,-216 255,-216 255,-216 261,-216 267,-222 267,-228 267,-228 267,-240 267,-240 267,-246 261,-252 255,-252"/>
<text text-anchor="middle" x="219" y="-231.5" font-family="sans" font-size="10.00">otutable_by_group</text>
</g>
<!-- 3&#45;&gt;17 -->
<g id="edge25" class="edge">
<title>3&#45;&gt;17</title>
<path fill="none" stroke="grey" stroke-width="2" d="M167.81,-287.7C176.13,-279.14 186.31,-268.66 195.39,-259.3"/>
<polygon fill="grey" stroke="grey" stroke-width="2" points="197.93,-261.72 202.38,-252.1 192.91,-256.84 197.93,-261.72"/>
</g>
<!-- 4 -->
<g id="node5" class="node">
<title>4</title>
<path fill="none" stroke="#569ad8" stroke-width="2" d="M179,-396C179,-396 123,-396 123,-396 117,-396 111,-390 111,-384 111,-384 111,-372 111,-372 111,-366 117,-360 123,-360 123,-360 179,-360 179,-360 185,-360 191,-366 191,-372 191,-372 191,-384 191,-384 191,-390 185,-396 179,-396"/>
<text text-anchor="middle" x="151" y="-375.5" font-family="sans" font-size="10.00">classify_otu97</text>
</g>
<!-- 4&#45;&gt;3 -->
<g id="edge9" class="edge">
<title>4&#45;&gt;3</title>
<path fill="none" stroke="grey" stroke-width="2" d="M151,-359.7C151,-351.98 151,-342.71 151,-334.11"/>
<polygon fill="grey" stroke="grey" stroke-width="2" points="154.5,-334.1 151,-324.1 147.5,-334.1 154.5,-334.1"/>
</g>
<!-- 5 -->
<g id="node6" class="node">
<title>5</title>
<path fill="none" stroke="#d88556" stroke-width="2" d="M183.5,-468C183.5,-468 132.5,-468 132.5,-468 126.5,-468 120.5,-462 120.5,-456 120.5,-456 120.5,-444 120.5,-444 120.5,-438 126.5,-432 132.5,-432 132.5,-432 183.5,-432 183.5,-432 189.5,-432 195.5,-438 195.5,-444 195.5,-444 195.5,-456 195.5,-456 195.5,-462 189.5,-468 183.5,-468"/>
<text text-anchor="middle" x="158" y="-447.5" font-family="sans" font-size="10.00">cluster_otu97</text>
</g>
<!-- 5&#45;&gt;4 -->
<g id="edge11" class="edge">
<title>5&#45;&gt;4</title>
<path fill="none" stroke="grey" stroke-width="2" d="M156.27,-431.7C155.5,-423.98 154.57,-414.71 153.71,-406.11"/>
<polygon fill="grey" stroke="grey" stroke-width="2" points="157.19,-405.71 152.71,-396.1 150.22,-406.4 157.19,-405.71"/>
</g>
<!-- 6 -->
<g id="node7" class="node">
<title>6</title>
<path fill="none" stroke="#d85656" stroke-width="2" d="M253.5,-540C253.5,-540 170.5,-540 170.5,-540 164.5,-540 158.5,-534 158.5,-528 158.5,-528 158.5,-516 158.5,-516 158.5,-510 164.5,-504 170.5,-504 170.5,-504 253.5,-504 253.5,-504 259.5,-504 265.5,-510 265.5,-516 265.5,-516 265.5,-528 265.5,-528 265.5,-534 259.5,-540 253.5,-540"/>
<text text-anchor="middle" x="212" y="-519.5" font-family="sans" font-size="10.00">compute_seqdist003</text>
</g>
<!-- 6&#45;&gt;5 -->
<g id="edge13" class="edge">
<title>6&#45;&gt;5</title>
<path fill="none" stroke="grey" stroke-width="2" d="M198.65,-503.7C192.24,-495.39 184.44,-485.28 177.39,-476.14"/>
<polygon fill="grey" stroke="grey" stroke-width="2" points="180.07,-473.88 171.19,-468.1 174.53,-478.16 180.07,-473.88"/>
</g>
<!-- 7 -->
<g id="node8" class="node">
<title>7</title>
<path fill="none" stroke="#ced856" stroke-width="2" d="M269,-612C269,-612 183,-612 183,-612 177,-612 171,-606 171,-600 171,-600 171,-588 171,-588 171,-582 177,-576 183,-576 183,-576 269,-576 269,-576 275,-576 281,-582 281,-588 281,-588 281,-600 281,-600 281,-606 275,-612 269,-612"/>
<text text-anchor="middle" x="226" y="-591.5" font-family="sans" font-size="10.00">denoise_n_classify80</text>
</g>
<!-- 7&#45;&gt;4 -->
<g id="edge10" class="edge">
<title>7&#45;&gt;4</title>
<path fill="none" stroke="grey" stroke-width="2" d="M186.46,-575.97C169.96,-567.23 151.72,-555.19 139,-540 116.95,-513.68 117.33,-501.75 111,-468 108.05,-452.27 105.92,-447.17 111,-432 114.35,-422 120.42,-412.38 126.83,-404.14"/>
<polygon fill="grey" stroke="grey" stroke-width="2" points="129.56,-406.33 133.27,-396.4 124.18,-401.85 129.56,-406.33"/>
</g>
<!-- 7&#45;&gt;5 -->
<g id="edge12" class="edge">
<title>7&#45;&gt;5</title>
<path fill="none" stroke="grey" stroke-width="2" d="M186.73,-575.9C172.13,-567.37 157.16,-555.51 149,-540 138.94,-520.86 142.48,-496.22 147.81,-477.72"/>
<polygon fill="grey" stroke="grey" stroke-width="2" points="151.16,-478.74 150.88,-468.14 144.49,-476.6 151.16,-478.74"/>
</g>
<!-- 7&#45;&gt;6 -->
<g id="edge14" class="edge">
<title>7&#45;&gt;6</title>
<path fill="none" stroke="grey" stroke-width="2" d="M222.54,-575.7C221,-567.98 219.14,-558.71 217.42,-550.11"/>
<polygon fill="grey" stroke="grey" stroke-width="2" points="220.81,-549.22 215.42,-540.1 213.95,-550.6 220.81,-549.22"/>
</g>
<!-- 12 -->
<g id="node13" class="node">
<title>12</title>
<path fill="none" stroke="#56d89a" stroke-width="2" d="M370,-540C370,-540 296,-540 296,-540 290,-540 284,-534 284,-528 284,-528 284,-516 284,-516 284,-510 290,-504 296,-504 296,-504 370,-504 370,-504 376,-504 382,-510 382,-516 382,-516 382,-528 382,-528 382,-534 376,-540 370,-540"/>
<text text-anchor="middle" x="333" y="-519.5" font-family="sans" font-size="10.00">classify_phylotype</text>
</g>
<!-- 7&#45;&gt;12 -->
<g id="edge20" class="edge">
<title>7&#45;&gt;12</title>
<path fill="none" stroke="grey" stroke-width="2" d="M252.18,-575.88C266.04,-566.81 283.24,-555.55 298.21,-545.76"/>
<polygon fill="grey" stroke="grey" stroke-width="2" points="300.27,-548.59 306.72,-540.19 296.44,-542.74 300.27,-548.59"/>
</g>
<!-- 14 -->
<g id="node15" class="node">
<title>14</title>
<path fill="none" stroke="#9fd856" stroke-width="2" d="M459.5,-540C459.5,-540 412.5,-540 412.5,-540 406.5,-540 400.5,-534 400.5,-528 400.5,-528 400.5,-516 400.5,-516 400.5,-510 406.5,-504 412.5,-504 412.5,-504 459.5,-504 459.5,-504 465.5,-504 471.5,-510 471.5,-516 471.5,-516 471.5,-528 471.5,-528 471.5,-534 465.5,-540 459.5,-540"/>
<text text-anchor="middle" x="436" y="-519.5" font-family="sans" font-size="10.00">classify_asv</text>
</g>
<!-- 7&#45;&gt;14 -->
<g id="edge22" class="edge">
<title>7&#45;&gt;14</title>
<path fill="none" stroke="grey" stroke-width="2" d="M281.23,-576.02C311.13,-566.66 348.89,-554.55 390.65,-540.04"/>
<polygon fill="grey" stroke="grey" stroke-width="2" points="391.91,-543.31 400.2,-536.71 389.6,-536.7 391.91,-543.31"/>
</g>
<!-- 16 -->
<g id="node17" class="node">
<title>16</title>
<path fill="none" stroke="#d86e56" stroke-width="2" d="M578,-540C578,-540 502,-540 502,-540 496,-540 490,-534 490,-528 490,-528 490,-516 490,-516 490,-510 496,-504 502,-504 502,-504 578,-504 578,-504 584,-504 590,-510 590,-516 590,-516 590,-528 590,-528 590,-534 584,-540 578,-540"/>
<text text-anchor="middle" x="540" y="-519.5" font-family="sans" font-size="10.00">classify_phylogeny</text>
</g>
<!-- 7&#45;&gt;16 -->
<g id="edge24" class="edge">
<title>7&#45;&gt;16</title>
<path fill="none" stroke="grey" stroke-width="2" d="M281.24,-582.77C330.84,-573.3 405.85,-558.29 479.89,-540.18"/>
<polygon fill="grey" stroke="grey" stroke-width="2" points="480.99,-543.52 489.86,-537.73 479.31,-536.72 480.99,-543.52"/>
</g>
<!-- 8&#45;&gt;7 -->
<g id="edge16" class="edge">
<title>8&#45;&gt;7</title>
<path fill="none" stroke="grey" stroke-width="2" d="M162.01,-647.7C172.72,-638.88 185.89,-628.03 197.5,-618.47"/>
<polygon fill="grey" stroke="grey" stroke-width="2" points="199.74,-621.16 205.23,-612.1 195.29,-615.76 199.74,-621.16"/>
</g>
<!-- 9 -->
<g id="node10" class="node">
<title>9</title>
<path fill="none" stroke="#56d86b" stroke-width="2" d="M191.5,-756C191.5,-756 138.5,-756 138.5,-756 132.5,-756 126.5,-750 126.5,-744 126.5,-744 126.5,-732 126.5,-732 126.5,-726 132.5,-720 138.5,-720 138.5,-720 191.5,-720 191.5,-720 197.5,-720 203.5,-726 203.5,-732 203.5,-732 203.5,-744 203.5,-744 203.5,-750 197.5,-756 191.5,-756"/>
<text text-anchor="middle" x="165" y="-735.5" font-family="sans" font-size="10.00">make_contigs</text>
</g>
<!-- 9&#45;&gt;8 -->
<g id="edge17" class="edge">
<title>9&#45;&gt;8</title>
<path fill="none" stroke="grey" stroke-width="2" d="M159.07,-719.7C156.39,-711.9 153.17,-702.51 150.2,-693.83"/>
<polygon fill="grey" stroke="grey" stroke-width="2" points="153.42,-692.43 146.86,-684.1 146.8,-694.7 153.42,-692.43"/>
</g>
<!-- 10 -->
<g id="node11" class="node">
<title>10</title>
<path fill="none" stroke="#59d856" stroke-width="2" d="M275.5,-684C275.5,-684 206.5,-684 206.5,-684 200.5,-684 194.5,-678 194.5,-672 194.5,-672 194.5,-660 194.5,-660 194.5,-654 200.5,-648 206.5,-648 206.5,-648 275.5,-648 275.5,-648 281.5,-648 287.5,-654 287.5,-660 287.5,-660 287.5,-672 287.5,-672 287.5,-678 281.5,-684 275.5,-684"/>
<text text-anchor="middle" x="241" y="-663.5" font-family="sans" font-size="10.00">get_rdp_classifier</text>
</g>
<!-- 10&#45;&gt;7 -->
<g id="edge15" class="edge">
<title>10&#45;&gt;7</title>
<path fill="none" stroke="grey" stroke-width="2" d="M237.29,-647.7C235.64,-639.98 233.65,-630.71 231.81,-622.11"/>
<polygon fill="grey" stroke="grey" stroke-width="2" points="235.18,-621.15 229.67,-612.1 228.34,-622.62 235.18,-621.15"/>
</g>
<!-- 11 -->
<g id="node12" class="node">
<title>11</title>
<path fill="none" stroke="#d8b456" stroke-width="2" d="M387.5,-396C387.5,-396 306.5,-396 306.5,-396 300.5,-396 294.5,-390 294.5,-384 294.5,-384 294.5,-372 294.5,-372 294.5,-366 300.5,-360 306.5,-360 306.5,-360 387.5,-360 387.5,-360 393.5,-360 399.5,-366 399.5,-372 399.5,-372 399.5,-384 399.5,-384 399.5,-390 393.5,-396 387.5,-396"/>
<text text-anchor="middle" x="347" y="-375.5" font-family="sans" font-size="10.00">final_phylotype_files</text>
</g>
<!-- 11&#45;&gt;0 -->
<g id="edge5" class="edge">
<title>11&#45;&gt;0</title>
<path fill="none" stroke="grey" stroke-width="2" d="M347.79,-359.96C348.96,-333.3 351,-280.13 351,-235 351,-235 351,-235 351,-161 351,-120.03 348.74,-106.72 327,-72 320.01,-60.83 309.94,-50.73 299.99,-42.41"/>
<polygon fill="grey" stroke="grey" stroke-width="2" points="302.1,-39.62 292.1,-36.13 297.75,-45.1 302.1,-39.62"/>
</g>
<!-- 12&#45;&gt;11 -->
<g id="edge19" class="edge">
<title>12&#45;&gt;11</title>
<path fill="none" stroke="grey" stroke-width="2" d="M334.69,-503.87C337.07,-479.67 341.46,-435.21 344.3,-406.39"/>
<polygon fill="grey" stroke="grey" stroke-width="2" points="347.81,-406.48 345.31,-396.19 340.84,-405.8 347.81,-406.48"/>
</g>
<!-- 13 -->
<g id="node14" class="node">
<title>13</title>
<path fill="none" stroke="#88d856" stroke-width="2" d="M455.5,-324C455.5,-324 400.5,-324 400.5,-324 394.5,-324 388.5,-318 388.5,-312 388.5,-312 388.5,-300 388.5,-300 388.5,-294 394.5,-288 400.5,-288 400.5,-288 455.5,-288 455.5,-288 461.5,-288 467.5,-294 467.5,-300 467.5,-300 467.5,-312 467.5,-312 467.5,-318 461.5,-324 455.5,-324"/>
<text text-anchor="middle" x="428" y="-303.5" font-family="sans" font-size="10.00">final_asv_files</text>
</g>
<!-- 13&#45;&gt;0 -->
<g id="edge1" class="edge">
<title>13&#45;&gt;0</title>
<path fill="none" stroke="grey" stroke-width="2" d="M427.82,-287.74C426.53,-246.08 417.94,-138.59 365,-72 349.19,-52.11 323.81,-38.73 302.71,-30.39"/>
<polygon fill="grey" stroke="grey" stroke-width="2" points="303.65,-27.01 293.06,-26.8 301.21,-33.57 303.65,-27.01"/>
</g>
<!-- 14&#45;&gt;13 -->
<g id="edge21" class="edge">
<title>14&#45;&gt;13</title>
<path fill="none" stroke="grey" stroke-width="2" d="M435.36,-503.85C433.98,-466.83 430.7,-379.18 429.02,-334.39"/>
<polygon fill="grey" stroke="grey" stroke-width="2" points="432.52,-334.09 428.64,-324.23 425.52,-334.36 432.52,-334.09"/>
</g>
<!-- 15 -->
<g id="node16" class="node">
<title>15</title>
<path fill="none" stroke="#5682d8" stroke-width="2" d="M547.5,-252C547.5,-252 464.5,-252 464.5,-252 458.5,-252 452.5,-246 452.5,-240 452.5,-240 452.5,-228 452.5,-228 452.5,-222 458.5,-216 464.5,-216 464.5,-216 547.5,-216 547.5,-216 553.5,-216 559.5,-222 559.5,-228 559.5,-228 559.5,-240 559.5,-240 559.5,-246 553.5,-252 547.5,-252"/>
<text text-anchor="middle" x="506" y="-231.5" font-family="sans" font-size="10.00">final_phylogeny_files</text>
</g>
<!-- 15&#45;&gt;0 -->
<g id="edge6" class="edge">
<title>15&#45;&gt;0</title>
<path fill="none" stroke="grey" stroke-width="2" d="M501.71,-216C492.61,-183.37 468.32,-111.71 422,-72 388.05,-42.9 337.39,-29.57 303.09,-23.61"/>
<polygon fill="grey" stroke="grey" stroke-width="2" points="303.44,-20.12 293.01,-21.99 302.32,-27.03 303.44,-20.12"/>
</g>
<!-- 16&#45;&gt;15 -->
<g id="edge23" class="edge">
<title>16&#45;&gt;15</title>
<path fill="none" stroke="grey" stroke-width="2" d="M537.97,-503.97C532.3,-456.19 516.18,-320.62 509.24,-262.27"/>
<polygon fill="grey" stroke="grey" stroke-width="2" points="512.71,-261.82 508.06,-252.31 505.76,-262.65 512.71,-261.82"/>
</g>
<!-- 17&#45;&gt;0 -->
<g id="edge7" class="edge">
<title>17&#45;&gt;0</title>
<path fill="none" stroke="grey" stroke-width="2" d="M212.11,-215.6C201.12,-185.01 183,-120.25 205,-72 210.56,-59.81 220.45,-49.34 230.68,-41.01"/>
<polygon fill="grey" stroke="grey" stroke-width="2" points="233.03,-43.62 238.88,-34.79 228.79,-38.04 233.03,-43.62"/>
</g>
<!-- 18 -->
<g id="node19" class="node">
<title>18</title>
<path fill="none" stroke="#56b1d8" stroke-width="2" d="M306,-108C306,-108 226,-108 226,-108 220,-108 214,-102 214,-96 214,-96 214,-84 214,-84 214,-78 220,-72 226,-72 226,-72 306,-72 306,-72 312,-72 318,-78 318,-84 318,-84 318,-96 318,-96 318,-102 312,-108 306,-108"/>
<text text-anchor="middle" x="266" y="-87.5" font-family="sans" font-size="10.00">subsample_otutable</text>
</g>
<!-- 17&#45;&gt;18 -->
<g id="edge27" class="edge">
<title>17&#45;&gt;18</title>
<path fill="none" stroke="grey" stroke-width="2" d="M221.53,-215.91C224.53,-197.72 230.24,-168.28 239,-144 242.26,-134.97 246.71,-125.5 251.06,-117.11"/>
<polygon fill="grey" stroke="grey" stroke-width="2" points="254.21,-118.64 255.86,-108.17 248.05,-115.33 254.21,-118.64"/>
</g>
<!-- 19 -->
<g id="node20" class="node">
<title>19</title>
<path fill="none" stroke="#56d8b1" stroke-width="2" d="M310.5,-180C310.5,-180 259.5,-180 259.5,-180 253.5,-180 247.5,-174 247.5,-168 247.5,-168 247.5,-156 247.5,-156 247.5,-150 253.5,-144 259.5,-144 259.5,-144 310.5,-144 310.5,-144 316.5,-144 322.5,-150 322.5,-156 322.5,-156 322.5,-168 322.5,-168 322.5,-174 316.5,-180 310.5,-180"/>
<text text-anchor="middle" x="285" y="-159.5" font-family="sans" font-size="10.00">count_groups</text>
</g>
<!-- 17&#45;&gt;19 -->
<g id="edge28" class="edge">
<title>17&#45;&gt;19</title>
<path fill="none" stroke="grey" stroke-width="2" d="M235.31,-215.7C243.31,-207.22 253.07,-196.86 261.82,-187.58"/>
<polygon fill="grey" stroke="grey" stroke-width="2" points="264.56,-189.78 268.87,-180.1 259.47,-184.98 264.56,-189.78"/>
</g>
<!-- 18&#45;&gt;0 -->
<g id="edge2" class="edge">
<title>18&#45;&gt;0</title>
<path fill="none" stroke="grey" stroke-width="2" d="M266,-71.7C266,-63.98 266,-54.71 266,-46.11"/>
<polygon fill="grey" stroke="grey" stroke-width="2" points="269.5,-46.1 266,-36.1 262.5,-46.1 269.5,-46.1"/>
</g>
<!-- 19&#45;&gt;18 -->
<g id="edge26" class="edge">
<title>19&#45;&gt;18</title>
<path fill="none" stroke="grey" stroke-width="2" d="M280.3,-143.7C278.19,-135.9 275.64,-126.51 273.28,-117.83"/>
<polygon fill="grey" stroke="grey" stroke-width="2" points="276.64,-116.84 270.64,-108.1 269.88,-118.67 276.64,-116.84"/>
</g>
</g>
</svg>
