<?xml version="1.0" encoding="UTF-8" standalone="no"?>
<!DOCTYPE svg PUBLIC "-//W3C//DTD SVG 1.1//EN"
 "http://www.w3.org/Graphics/SVG/1.1/DTD/svg11.dtd">
<!-- Generated by graphviz version 6.0.1 (0)
 -->
<!-- Title: snakemake_dag Pages: 1 -->
<svg width="727pt" height="404pt"
 viewBox="0.00 0.00 727.00 404.00" xmlns="http://www.w3.org/2000/svg" xmlns:xlink="http://www.w3.org/1999/xlink">
<g id="graph0" class="graph" transform="scale(1 1) rotate(0) translate(4 400)">
<title>snakemake_dag</title>
<polygon fill="white" stroke="none" points="-4,4 -4,-400 723,-400 723,4 -4,4"/>
<!-- 0 -->
<g id="node1" class="node">
<title>0</title>
<path fill="none" stroke="#c6d856" stroke-width="2" d="M262.5,-36C262.5,-36 232.5,-36 232.5,-36 226.5,-36 220.5,-30 220.5,-24 220.5,-24 220.5,-12 220.5,-12 220.5,-6 226.5,0 232.5,0 232.5,0 262.5,0 262.5,0 268.5,0 274.5,-6 274.5,-12 274.5,-12 274.5,-24 274.5,-24 274.5,-30 268.5,-36 262.5,-36"/>
<text text-anchor="middle" x="247.5" y="-15.5" font-family="sans" font-size="10.00">all</text>
</g>
<!-- 1 -->
<g id="node2" class="node">
<title>1</title>
<path fill="none" stroke="#56d8c9" stroke-width="2" d="M91,-252C91,-252 12,-252 12,-252 6,-252 0,-246 0,-240 0,-240 0,-228 0,-228 0,-222 6,-216 12,-216 12,-216 91,-216 91,-216 97,-216 103,-222 103,-228 103,-228 103,-240 103,-240 103,-246 97,-252 91,-252"/>
<text text-anchor="middle" x="51.5" y="-231.5" font-family="sans" font-size="10.00">samples_units_files</text>
</g>
<!-- 1&#45;&gt;0 -->
<g id="edge6" class="edge">
<title>1&#45;&gt;0</title>
<path fill="none" stroke="grey" stroke-width="2" d="M54.12,-215.53C59.85,-183.05 76.45,-112.97 117.5,-72 142.77,-46.77 181.7,-33.06 210.37,-25.95"/>
<polygon fill="grey" stroke="grey" stroke-width="2" points="211.47,-29.29 220.42,-23.62 209.89,-22.47 211.47,-29.29"/>
</g>
<!-- 2 -->
<g id="node3" class="node">
<title>2</title>
<path fill="none" stroke="#56c9d8" stroke-width="2" d="M134.5,-396C134.5,-396 46.5,-396 46.5,-396 40.5,-396 34.5,-390 34.5,-384 34.5,-384 34.5,-372 34.5,-372 34.5,-366 40.5,-360 46.5,-360 46.5,-360 134.5,-360 134.5,-360 140.5,-360 146.5,-366 146.5,-372 146.5,-372 146.5,-384 146.5,-384 146.5,-390 140.5,-396 134.5,-396"/>
<text text-anchor="middle" x="90.5" y="-375.5" font-family="sans" font-size="10.00">get_bioinfo_resources</text>
</g>
<!-- 2&#45;&gt;1 -->
<g id="edge9" class="edge">
<title>2&#45;&gt;1</title>
<path fill="none" stroke="grey" stroke-width="2" d="M84.69,-359.9C81.26,-349.56 76.93,-336.09 73.5,-324 67.67,-303.46 61.91,-280 57.75,-262.33"/>
<polygon fill="grey" stroke="grey" stroke-width="2" points="61.05,-261.1 55.37,-252.15 54.24,-262.69 61.05,-261.1"/>
</g>
<!-- 3 -->
<g id="node4" class="node">
<title>3</title>
<path fill="none" stroke="#d87d56" stroke-width="2" d="M164,-324C164,-324 95,-324 95,-324 89,-324 83,-318 83,-312 83,-312 83,-300 83,-300 83,-294 89,-288 95,-288 95,-288 164,-288 164,-288 170,-288 176,-294 176,-300 176,-300 176,-312 176,-312 176,-318 170,-324 164,-324"/>
<text text-anchor="middle" x="129.5" y="-303.5" font-family="sans" font-size="10.00">makeMappingFile</text>
</g>
<!-- 2&#45;&gt;3 -->
<g id="edge10" class="edge">
<title>2&#45;&gt;3</title>
<path fill="none" stroke="grey" stroke-width="2" d="M100.14,-359.7C104.63,-351.64 110.06,-341.89 115.02,-332.98"/>
<polygon fill="grey" stroke="grey" stroke-width="2" points="118.16,-334.54 119.97,-324.1 112.05,-331.14 118.16,-334.54"/>
</g>
<!-- 3&#45;&gt;0 -->
<g id="edge2" class="edge">
<title>3&#45;&gt;0</title>
<path fill="none" stroke="grey" stroke-width="2" d="M131.84,-287.86C137.86,-247.82 156.48,-145.9 198.5,-72 204.29,-61.83 212.37,-52.02 220.31,-43.67"/>
<polygon fill="grey" stroke="grey" stroke-width="2" points="222.93,-46 227.49,-36.44 217.96,-41.07 222.93,-46"/>
</g>
<!-- 4 -->
<g id="node5" class="node">
<title>4</title>
<path fill="none" stroke="#d8c356" stroke-width="2" d="M274,-252C274,-252 209,-252 209,-252 203,-252 197,-246 197,-240 197,-240 197,-228 197,-228 197,-222 203,-216 209,-216 209,-216 274,-216 274,-216 280,-216 286,-222 286,-228 286,-228 286,-240 286,-240 286,-246 280,-252 274,-252"/>
<text text-anchor="middle" x="241.5" y="-231.5" font-family="sans" font-size="10.00">make16SShared</text>
</g>
<!-- 3&#45;&gt;4 -->
<g id="edge11" class="edge">
<title>3&#45;&gt;4</title>
<path fill="none" stroke="grey" stroke-width="2" d="M156.9,-287.88C171.41,-278.81 189.42,-267.55 205.09,-257.76"/>
<polygon fill="grey" stroke="grey" stroke-width="2" points="207.37,-260.46 214,-252.19 203.66,-254.52 207.37,-260.46"/>
</g>
<!-- 4&#45;&gt;0 -->
<g id="edge3" class="edge">
<title>4&#45;&gt;0</title>
<path fill="none" stroke="grey" stroke-width="2" d="M218.2,-215.82C207.6,-206.54 196.18,-194.09 190.5,-180 184.52,-165.16 187.27,-159.67 190.5,-144 197.97,-107.75 217.33,-69.52 231.42,-45.03"/>
<polygon fill="grey" stroke="grey" stroke-width="2" points="234.47,-46.74 236.52,-36.35 228.44,-43.19 234.47,-46.74"/>
</g>
<!-- 6 -->
<g id="node7" class="node">
<title>6</title>
<path fill="none" stroke="#56d87b" stroke-width="2" d="M271,-180C271,-180 212,-180 212,-180 206,-180 200,-174 200,-168 200,-168 200,-156 200,-156 200,-150 206,-144 212,-144 212,-144 271,-144 271,-144 277,-144 283,-150 283,-156 283,-156 283,-168 283,-168 283,-174 277,-180 271,-180"/>
<text text-anchor="middle" x="241.5" y="-159.5" font-family="sans" font-size="10.00">split16SShared</text>
</g>
<!-- 4&#45;&gt;6 -->
<g id="edge13" class="edge">
<title>4&#45;&gt;6</title>
<path fill="none" stroke="grey" stroke-width="2" d="M241.5,-215.7C241.5,-207.98 241.5,-198.71 241.5,-190.11"/>
<polygon fill="grey" stroke="grey" stroke-width="2" points="245,-190.1 241.5,-180.1 238,-190.1 245,-190.1"/>
</g>
<!-- 8 -->
<g id="node9" class="node">
<title>8</title>
<path fill="none" stroke="#78d856" stroke-width="2" d="M421,-108C421,-108 372,-108 372,-108 366,-108 360,-102 360,-96 360,-96 360,-84 360,-84 360,-78 366,-72 372,-72 372,-72 421,-72 421,-72 427,-72 433,-78 433,-84 433,-84 433,-96 433,-96 433,-102 427,-108 421,-108"/>
<text text-anchor="middle" x="396.5" y="-87.5" font-family="sans" font-size="10.00">calc16SError</text>
</g>
<!-- 4&#45;&gt;8 -->
<g id="edge15" class="edge">
<title>4&#45;&gt;8</title>
<path fill="none" stroke="grey" stroke-width="2" d="M260.2,-215.87C287.66,-190.71 339.03,-143.65 370.26,-115.04"/>
<polygon fill="grey" stroke="grey" stroke-width="2" points="372.73,-117.53 377.74,-108.19 368,-112.36 372.73,-117.53"/>
</g>
<!-- 5 -->
<g id="node6" class="node">
<title>5</title>
<path fill="none" stroke="#59d856" stroke-width="2" d="M280.5,-324C280.5,-324 206.5,-324 206.5,-324 200.5,-324 194.5,-318 194.5,-312 194.5,-312 194.5,-300 194.5,-300 194.5,-294 200.5,-288 206.5,-288 206.5,-288 280.5,-288 280.5,-288 286.5,-288 292.5,-294 292.5,-300 292.5,-300 292.5,-312 292.5,-312 292.5,-318 286.5,-324 280.5,-324"/>
<text text-anchor="middle" x="243.5" y="-303.5" font-family="sans" font-size="10.00">mothur_references</text>
</g>
<!-- 5&#45;&gt;4 -->
<g id="edge12" class="edge">
<title>5&#45;&gt;4</title>
<path fill="none" stroke="grey" stroke-width="2" d="M243.01,-287.7C242.79,-279.98 242.52,-270.71 242.27,-262.11"/>
<polygon fill="grey" stroke="grey" stroke-width="2" points="245.77,-262 241.99,-252.1 238.78,-262.2 245.77,-262"/>
</g>
<!-- 6&#45;&gt;0 -->
<g id="edge5" class="edge">
<title>6&#45;&gt;0</title>
<path fill="none" stroke="grey" stroke-width="2" d="M234.99,-143.9C229.01,-125.95 221.74,-96.93 226.5,-72 228.21,-63.06 231.4,-53.7 234.79,-45.37"/>
<polygon fill="grey" stroke="grey" stroke-width="2" points="238.01,-46.73 238.78,-36.17 231.59,-43.95 238.01,-46.73"/>
</g>
<!-- 7 -->
<g id="node8" class="node">
<title>7</title>
<path fill="none" stroke="#56a2d8" stroke-width="2" d="M329.5,-108C329.5,-108 247.5,-108 247.5,-108 241.5,-108 235.5,-102 235.5,-96 235.5,-96 235.5,-84 235.5,-84 235.5,-78 241.5,-72 247.5,-72 247.5,-72 329.5,-72 329.5,-72 335.5,-72 341.5,-78 341.5,-84 341.5,-84 341.5,-96 341.5,-96 341.5,-102 335.5,-108 329.5,-108"/>
<text text-anchor="middle" x="288.5" y="-87.5" font-family="sans" font-size="10.00">alpha_beta_diversity</text>
</g>
<!-- 6&#45;&gt;7 -->
<g id="edge14" class="edge">
<title>6&#45;&gt;7</title>
<path fill="none" stroke="grey" stroke-width="2" d="M253.12,-143.7C258.64,-135.47 265.35,-125.48 271.43,-116.42"/>
<polygon fill="grey" stroke="grey" stroke-width="2" points="274.35,-118.36 277.02,-108.1 268.54,-114.46 274.35,-118.36"/>
</g>
<!-- 7&#45;&gt;0 -->
<g id="edge7" class="edge">
<title>7&#45;&gt;0</title>
<path fill="none" stroke="grey" stroke-width="2" d="M278.37,-71.7C273.65,-63.64 267.94,-53.89 262.72,-44.98"/>
<polygon fill="grey" stroke="grey" stroke-width="2" points="265.59,-42.96 257.52,-36.1 259.55,-46.5 265.59,-42.96"/>
</g>
<!-- 8&#45;&gt;0 -->
<g id="edge4" class="edge">
<title>8&#45;&gt;0</title>
<path fill="none" stroke="grey" stroke-width="2" d="M360.05,-71.88C336.88,-60.99 307,-46.95 283.85,-36.07"/>
<polygon fill="grey" stroke="grey" stroke-width="2" points="285.23,-32.86 274.69,-31.78 282.26,-39.2 285.23,-32.86"/>
</g>
<!-- 9 -->
<g id="node10" class="node">
<title>9</title>
<path fill="none" stroke="#567bd8" stroke-width="2" d="M567.5,-108C567.5,-108 463.5,-108 463.5,-108 457.5,-108 451.5,-102 451.5,-96 451.5,-96 451.5,-84 451.5,-84 451.5,-78 457.5,-72 463.5,-72 463.5,-72 567.5,-72 567.5,-72 573.5,-72 579.5,-78 579.5,-84 579.5,-84 579.5,-96 579.5,-96 579.5,-102 573.5,-108 567.5,-108"/>
<text text-anchor="middle" x="515.5" y="-87.5" font-family="sans" font-size="10.00">github_summary_website</text>
</g>
<!-- 9&#45;&gt;0 -->
<g id="edge8" class="edge">
<title>9&#45;&gt;0</title>
<path fill="none" stroke="grey" stroke-width="2" d="M451.31,-72.23C399.12,-58.6 327.34,-39.85 284.37,-28.63"/>
<polygon fill="grey" stroke="grey" stroke-width="2" points="285.17,-25.22 274.61,-26.08 283.4,-32 285.17,-25.22"/>
</g>
<!-- 10 -->
<g id="node11" class="node">
<title>10</title>
<path fill="none" stroke="#9fd856" stroke-width="2" d="M481,-180C481,-180 430,-180 430,-180 424,-180 418,-174 418,-168 418,-168 418,-156 418,-156 418,-150 424,-144 430,-144 430,-144 481,-144 481,-144 487,-144 493,-150 493,-156 493,-156 493,-168 493,-168 493,-174 487,-180 481,-180"/>
<text text-anchor="middle" x="455.5" y="-159.5" font-family="sans" font-size="10.00">dot_rulegraph</text>
</g>
<!-- 10&#45;&gt;9 -->
<g id="edge17" class="edge">
<title>10&#45;&gt;9</title>
<path fill="none" stroke="grey" stroke-width="2" d="M470.33,-143.7C477.52,-135.3 486.3,-125.07 494.19,-115.86"/>
<polygon fill="grey" stroke="grey" stroke-width="2" points="496.99,-117.97 500.84,-108.1 491.67,-113.42 496.99,-117.97"/>
</g>
<!-- 11 -->
<g id="node12" class="node">
<title>11</title>
<path fill="none" stroke="#56d8a2" stroke-width="2" d="M567.5,-180C567.5,-180 523.5,-180 523.5,-180 517.5,-180 511.5,-174 511.5,-168 511.5,-168 511.5,-156 511.5,-156 511.5,-150 517.5,-144 523.5,-144 523.5,-144 567.5,-144 567.5,-144 573.5,-144 579.5,-150 579.5,-156 579.5,-156 579.5,-168 579.5,-168 579.5,-174 573.5,-180 567.5,-180"/>
<text text-anchor="middle" x="545.5" y="-159.5" font-family="sans" font-size="10.00">project_tree</text>
</g>
<!-- 11&#45;&gt;9 -->
<g id="edge16" class="edge">
<title>11&#45;&gt;9</title>
<path fill="none" stroke="grey" stroke-width="2" d="M538.08,-143.7C534.71,-135.81 530.63,-126.3 526.88,-117.55"/>
<polygon fill="grey" stroke="grey" stroke-width="2" points="529.99,-115.92 522.83,-108.1 523.55,-118.67 529.99,-115.92"/>
</g>
<!-- 12 -->
<g id="node13" class="node">
<title>12</title>
<path fill="none" stroke="#d8a456" stroke-width="2" d="M707,-108C707,-108 610,-108 610,-108 604,-108 598,-102 598,-96 598,-96 598,-84 598,-84 598,-78 604,-72 610,-72 610,-72 707,-72 707,-72 713,-72 719,-78 719,-84 719,-84 719,-96 719,-96 719,-102 713,-108 707,-108"/>
<text text-anchor="middle" x="658.5" y="-87.5" font-family="sans" font-size="10.00">snakemake_html_report</text>
</g>
<!-- 12&#45;&gt;0 -->
<g id="edge1" class="edge">
<title>12&#45;&gt;0</title>
<path fill="none" stroke="grey" stroke-width="2" d="M597.86,-73.94C594.7,-73.26 591.57,-72.61 588.5,-72 478.79,-50.19 347.73,-32 284.82,-23.75"/>
<polygon fill="grey" stroke="grey" stroke-width="2" points="284.97,-20.24 274.6,-22.42 284.07,-27.19 284.97,-20.24"/>
</g>
</g>
</svg>
