<?xml version="1.0" encoding="UTF-8" standalone="no"?>
<!DOCTYPE svg PUBLIC "-//W3C//DTD SVG 1.1//EN"
 "http://www.w3.org/Graphics/SVG/1.1/DTD/svg11.dtd">
<!-- Generated by graphviz version 6.0.1 (0)
 -->
<!-- Title: snakemake_dag Pages: 1 -->
<svg width="576pt" height="404pt"
 viewBox="0.00 0.00 576.00 404.00" xmlns="http://www.w3.org/2000/svg" xmlns:xlink="http://www.w3.org/1999/xlink">
<g id="graph0" class="graph" transform="scale(1 1) rotate(0) translate(4 400)">
<title>snakemake_dag</title>
<polygon fill="white" stroke="none" points="-4,4 -4,-400 572,-400 572,4 -4,4"/>
<!-- 0 -->
<g id="node1" class="node">
<title>0</title>
<path fill="none" stroke="#c6d856" stroke-width="2" d="M225,-36C225,-36 195,-36 195,-36 189,-36 183,-30 183,-24 183,-24 183,-12 183,-12 183,-6 189,0 195,0 195,0 225,0 225,0 231,0 237,-6 237,-12 237,-12 237,-24 237,-24 237,-30 231,-36 225,-36"/>
<text text-anchor="middle" x="210" y="-15.5" font-family="sans" font-size="10.00">all</text>
</g>
<!-- 1 -->
<g id="node2" class="node">
<title>1</title>
<path fill="none" stroke="#d8a456" stroke-width="2" d="M261.5,-180C261.5,-180 212.5,-180 212.5,-180 206.5,-180 200.5,-174 200.5,-168 200.5,-168 200.5,-156 200.5,-156 200.5,-150 206.5,-144 212.5,-144 212.5,-144 261.5,-144 261.5,-144 267.5,-144 273.5,-150 273.5,-156 273.5,-156 273.5,-168 273.5,-168 273.5,-174 267.5,-180 261.5,-180"/>
<text text-anchor="middle" x="237" y="-159.5" font-family="sans" font-size="10.00">calc16SError</text>
</g>
<!-- 1&#45;&gt;0 -->
<g id="edge2" class="edge">
<title>1&#45;&gt;0</title>
<path fill="none" stroke="grey" stroke-width="2" d="M233.74,-143.87C229.14,-119.67 220.69,-75.21 215.21,-46.39"/>
<polygon fill="grey" stroke="grey" stroke-width="2" points="218.57,-45.36 213.27,-36.19 211.7,-46.67 218.57,-45.36"/>
</g>
<!-- 2 -->
<g id="node3" class="node">
<title>2</title>
<path fill="none" stroke="#567bd8" stroke-width="2" d="M187.5,-252C187.5,-252 122.5,-252 122.5,-252 116.5,-252 110.5,-246 110.5,-240 110.5,-240 110.5,-228 110.5,-228 110.5,-222 116.5,-216 122.5,-216 122.5,-216 187.5,-216 187.5,-216 193.5,-216 199.5,-222 199.5,-228 199.5,-228 199.5,-240 199.5,-240 199.5,-246 193.5,-252 187.5,-252"/>
<text text-anchor="middle" x="155" y="-231.5" font-family="sans" font-size="10.00">make16SShared</text>
</g>
<!-- 2&#45;&gt;0 -->
<g id="edge7" class="edge">
<title>2&#45;&gt;0</title>
<path fill="none" stroke="grey" stroke-width="2" d="M159.41,-215.85C168.94,-178.75 191.54,-90.81 203.03,-46.1"/>
<polygon fill="grey" stroke="grey" stroke-width="2" points="206.47,-46.79 205.57,-36.23 199.69,-45.05 206.47,-46.79"/>
</g>
<!-- 2&#45;&gt;1 -->
<g id="edge9" class="edge">
<title>2&#45;&gt;1</title>
<path fill="none" stroke="grey" stroke-width="2" d="M175.27,-215.7C185.5,-206.97 198.06,-196.24 209.18,-186.75"/>
<polygon fill="grey" stroke="grey" stroke-width="2" points="211.63,-189.26 216.96,-180.1 207.09,-183.94 211.63,-189.26"/>
</g>
<!-- 8 -->
<g id="node9" class="node">
<title>8</title>
<path fill="none" stroke="#56d8a2" stroke-width="2" d="M131.5,-180C131.5,-180 72.5,-180 72.5,-180 66.5,-180 60.5,-174 60.5,-168 60.5,-168 60.5,-156 60.5,-156 60.5,-150 66.5,-144 72.5,-144 72.5,-144 131.5,-144 131.5,-144 137.5,-144 143.5,-150 143.5,-156 143.5,-156 143.5,-168 143.5,-168 143.5,-174 137.5,-180 131.5,-180"/>
<text text-anchor="middle" x="102" y="-159.5" font-family="sans" font-size="10.00">split16SShared</text>
</g>
<!-- 2&#45;&gt;8 -->
<g id="edge17" class="edge">
<title>2&#45;&gt;8</title>
<path fill="none" stroke="grey" stroke-width="2" d="M141.9,-215.7C135.61,-207.39 127.95,-197.28 121.04,-188.14"/>
<polygon fill="grey" stroke="grey" stroke-width="2" points="123.78,-185.96 114.95,-180.1 118.2,-190.19 123.78,-185.96"/>
</g>
<!-- 3 -->
<g id="node4" class="node">
<title>3</title>
<path fill="none" stroke="#56d87b" stroke-width="2" d="M135.5,-324C135.5,-324 66.5,-324 66.5,-324 60.5,-324 54.5,-318 54.5,-312 54.5,-312 54.5,-300 54.5,-300 54.5,-294 60.5,-288 66.5,-288 66.5,-288 135.5,-288 135.5,-288 141.5,-288 147.5,-294 147.5,-300 147.5,-300 147.5,-312 147.5,-312 147.5,-318 141.5,-324 135.5,-324"/>
<text text-anchor="middle" x="101" y="-303.5" font-family="sans" font-size="10.00">makeMappingFile</text>
</g>
<!-- 3&#45;&gt;2 -->
<g id="edge10" class="edge">
<title>3&#45;&gt;2</title>
<path fill="none" stroke="grey" stroke-width="2" d="M114.35,-287.7C120.76,-279.39 128.56,-269.28 135.61,-260.14"/>
<polygon fill="grey" stroke="grey" stroke-width="2" points="138.47,-262.16 141.81,-252.1 132.93,-257.88 138.47,-262.16"/>
</g>
<!-- 4 -->
<g id="node5" class="node">
<title>4</title>
<path fill="none" stroke="#59d856" stroke-width="2" d="M72,-396C72,-396 22,-396 22,-396 16,-396 10,-390 10,-384 10,-384 10,-372 10,-372 10,-366 16,-360 22,-360 22,-360 72,-360 72,-360 78,-360 84,-366 84,-372 84,-372 84,-384 84,-384 84,-390 78,-396 72,-396"/>
<text text-anchor="middle" x="47" y="-375.5" font-family="sans" font-size="10.00">getReadData</text>
</g>
<!-- 4&#45;&gt;2 -->
<g id="edge11" class="edge">
<title>4&#45;&gt;2</title>
<path fill="none" stroke="grey" stroke-width="2" d="M41.37,-359.79C36.25,-340.7 31.35,-309.72 45,-288 57.42,-268.23 79.51,-255.66 100.65,-247.76"/>
<polygon fill="grey" stroke="grey" stroke-width="2" points="101.95,-251.01 110.26,-244.44 99.67,-244.39 101.95,-251.01"/>
</g>
<!-- 4&#45;&gt;3 -->
<g id="edge14" class="edge">
<title>4&#45;&gt;3</title>
<path fill="none" stroke="grey" stroke-width="2" d="M60.35,-359.7C66.76,-351.39 74.56,-341.28 81.61,-332.14"/>
<polygon fill="grey" stroke="grey" stroke-width="2" points="84.47,-334.16 87.81,-324.1 78.93,-329.88 84.47,-334.16"/>
</g>
<!-- 5 -->
<g id="node6" class="node">
<title>5</title>
<path fill="none" stroke="#9fd856" stroke-width="2" d="M206,-396C206,-396 124,-396 124,-396 118,-396 112,-390 112,-384 112,-384 112,-372 112,-372 112,-366 118,-360 124,-360 124,-360 206,-360 206,-360 212,-360 218,-366 218,-372 218,-372 218,-384 218,-384 218,-390 212,-396 206,-396"/>
<text text-anchor="middle" x="165" y="-375.5" font-family="sans" font-size="10.00">download_sra_reads</text>
</g>
<!-- 5&#45;&gt;2 -->
<g id="edge13" class="edge">
<title>5&#45;&gt;2</title>
<path fill="none" stroke="grey" stroke-width="2" d="M163.79,-359.87C162.09,-335.67 158.96,-291.21 156.93,-262.39"/>
<polygon fill="grey" stroke="grey" stroke-width="2" points="160.4,-261.92 156.21,-252.19 153.42,-262.41 160.4,-261.92"/>
</g>
<!-- 5&#45;&gt;3 -->
<g id="edge15" class="edge">
<title>5&#45;&gt;3</title>
<path fill="none" stroke="grey" stroke-width="2" d="M149.18,-359.7C141.43,-351.22 131.96,-340.86 123.48,-331.58"/>
<polygon fill="grey" stroke="grey" stroke-width="2" points="125.97,-329.12 116.64,-324.1 120.8,-333.85 125.97,-329.12"/>
</g>
<!-- 6 -->
<g id="node7" class="node">
<title>6</title>
<path fill="none" stroke="#56a2d8" stroke-width="2" d="M290,-324C290,-324 216,-324 216,-324 210,-324 204,-318 204,-312 204,-312 204,-300 204,-300 204,-294 210,-288 216,-288 216,-288 290,-288 290,-288 296,-288 302,-294 302,-300 302,-300 302,-312 302,-312 302,-318 296,-324 290,-324"/>
<text text-anchor="middle" x="253" y="-303.5" font-family="sans" font-size="10.00">get16SReferences</text>
</g>
<!-- 6&#45;&gt;2 -->
<g id="edge12" class="edge">
<title>6&#45;&gt;2</title>
<path fill="none" stroke="grey" stroke-width="2" d="M229.03,-287.88C216.45,-278.89 200.87,-267.76 187.25,-258.03"/>
<polygon fill="grey" stroke="grey" stroke-width="2" points="189.24,-255.15 179.07,-252.19 185.17,-260.85 189.24,-255.15"/>
</g>
<!-- 7 -->
<g id="node8" class="node">
<title>7</title>
<path fill="none" stroke="#78d856" stroke-width="2" d="M276.5,-252C276.5,-252 229.5,-252 229.5,-252 223.5,-252 217.5,-246 217.5,-240 217.5,-240 217.5,-228 217.5,-228 217.5,-222 223.5,-216 229.5,-216 229.5,-216 276.5,-216 276.5,-216 282.5,-216 288.5,-222 288.5,-228 288.5,-228 288.5,-240 288.5,-240 288.5,-246 282.5,-252 276.5,-252"/>
<text text-anchor="middle" x="253" y="-231.5" font-family="sans" font-size="10.00">get16SMock</text>
</g>
<!-- 6&#45;&gt;7 -->
<g id="edge16" class="edge">
<title>6&#45;&gt;7</title>
<path fill="none" stroke="grey" stroke-width="2" d="M253,-287.7C253,-279.98 253,-270.71 253,-262.11"/>
<polygon fill="grey" stroke="grey" stroke-width="2" points="256.5,-262.1 253,-252.1 249.5,-262.1 256.5,-262.1"/>
</g>
<!-- 7&#45;&gt;1 -->
<g id="edge8" class="edge">
<title>7&#45;&gt;1</title>
<path fill="none" stroke="grey" stroke-width="2" d="M249.04,-215.7C247.28,-207.98 245.16,-198.71 243.2,-190.11"/>
<polygon fill="grey" stroke="grey" stroke-width="2" points="246.55,-189.07 240.91,-180.1 239.73,-190.63 246.55,-189.07"/>
</g>
<!-- 8&#45;&gt;0 -->
<g id="edge4" class="edge">
<title>8&#45;&gt;0</title>
<path fill="none" stroke="grey" stroke-width="2" d="M111.31,-143.88C121.68,-125.41 139.44,-95.49 158,-72 165.79,-62.14 175.18,-52.11 183.83,-43.46"/>
<polygon fill="grey" stroke="grey" stroke-width="2" points="186.49,-45.76 191.18,-36.26 181.59,-40.76 186.49,-45.76"/>
</g>
<!-- 9 -->
<g id="node10" class="node">
<title>9</title>
<path fill="none" stroke="#56d8c9" stroke-width="2" d="M94,-108C94,-108 12,-108 12,-108 6,-108 0,-102 0,-96 0,-96 0,-84 0,-84 0,-78 6,-72 12,-72 12,-72 94,-72 94,-72 100,-72 106,-78 106,-84 106,-84 106,-96 106,-96 106,-102 100,-108 94,-108"/>
<text text-anchor="middle" x="53" y="-87.5" font-family="sans" font-size="10.00">alpha_beta_diversity</text>
</g>
<!-- 8&#45;&gt;9 -->
<g id="edge18" class="edge">
<title>8&#45;&gt;9</title>
<path fill="none" stroke="grey" stroke-width="2" d="M89.89,-143.7C84.13,-135.47 77.14,-125.48 70.79,-116.42"/>
<polygon fill="grey" stroke="grey" stroke-width="2" points="73.58,-114.29 64.97,-108.1 67.84,-118.3 73.58,-114.29"/>
</g>
<!-- 9&#45;&gt;0 -->
<g id="edge5" class="edge">
<title>9&#45;&gt;0</title>
<path fill="none" stroke="grey" stroke-width="2" d="M91.41,-71.88C116.41,-60.73 148.83,-46.27 173.46,-35.29"/>
<polygon fill="grey" stroke="grey" stroke-width="2" points="175.11,-38.39 182.82,-31.12 172.26,-32 175.11,-38.39"/>
</g>
<!-- 10 -->
<g id="node11" class="node">
<title>10</title>
<path fill="none" stroke="#d8c356" stroke-width="2" d="M329.5,-108C329.5,-108 250.5,-108 250.5,-108 244.5,-108 238.5,-102 238.5,-96 238.5,-96 238.5,-84 238.5,-84 238.5,-78 244.5,-72 250.5,-72 250.5,-72 329.5,-72 329.5,-72 335.5,-72 341.5,-78 341.5,-84 341.5,-84 341.5,-96 341.5,-96 341.5,-102 335.5,-108 329.5,-108"/>
<text text-anchor="middle" x="290" y="-87.5" font-family="sans" font-size="10.00">get_project_tree_txt</text>
</g>
<!-- 10&#45;&gt;0 -->
<g id="edge3" class="edge">
<title>10&#45;&gt;0</title>
<path fill="none" stroke="grey" stroke-width="2" d="M270.22,-71.7C260.25,-62.97 247.99,-52.24 237.14,-42.75"/>
<polygon fill="grey" stroke="grey" stroke-width="2" points="239.38,-40.06 229.55,-36.1 234.77,-45.32 239.38,-40.06"/>
</g>
<!-- 11 -->
<g id="node12" class="node">
<title>11</title>
<path fill="none" stroke="#56c9d8" stroke-width="2" d="M440,-108C440,-108 372,-108 372,-108 366,-108 360,-102 360,-96 360,-96 360,-84 360,-84 360,-78 366,-72 372,-72 372,-72 440,-72 440,-72 446,-72 452,-78 452,-84 452,-84 452,-96 452,-96 452,-102 446,-108 440,-108"/>
<text text-anchor="middle" x="406" y="-87.5" font-family="sans" font-size="10.00">interactive_report</text>
</g>
<!-- 11&#45;&gt;0 -->
<g id="edge6" class="edge">
<title>11&#45;&gt;0</title>
<path fill="none" stroke="grey" stroke-width="2" d="M359.55,-72.41C325.13,-60.12 278.84,-43.59 246.92,-32.19"/>
<polygon fill="grey" stroke="grey" stroke-width="2" points="247.69,-28.75 237.1,-28.68 245.34,-35.34 247.69,-28.75"/>
</g>
<!-- 12 -->
<g id="node13" class="node">
<title>12</title>
<path fill="none" stroke="#d85656" stroke-width="2" d="M556,-108C556,-108 482,-108 482,-108 476,-108 470,-102 470,-96 470,-96 470,-84 470,-84 470,-78 476,-72 482,-72 482,-72 556,-72 556,-72 562,-72 568,-78 568,-84 568,-84 568,-96 568,-96 568,-102 562,-108 556,-108"/>
<text text-anchor="middle" x="519" y="-87.5" font-family="sans" font-size="10.00">github_page_index</text>
</g>
<!-- 12&#45;&gt;0 -->
<g id="edge1" class="edge">
<title>12&#45;&gt;0</title>
<path fill="none" stroke="grey" stroke-width="2" d="M469.71,-74.27C466.77,-73.48 463.85,-72.72 461,-72 385.6,-53.02 296.31,-35.28 247.14,-25.91"/>
<polygon fill="grey" stroke="grey" stroke-width="2" points="247.75,-22.47 237.27,-24.04 246.45,-29.34 247.75,-22.47"/>
</g>
<!-- 13 -->
<g id="node14" class="node">
<title>13</title>
<path fill="none" stroke="#d87d56" stroke-width="2" d="M544.5,-180C544.5,-180 493.5,-180 493.5,-180 487.5,-180 481.5,-174 481.5,-168 481.5,-168 481.5,-156 481.5,-156 481.5,-150 487.5,-144 493.5,-144 493.5,-144 544.5,-144 544.5,-144 550.5,-144 556.5,-150 556.5,-156 556.5,-156 556.5,-168 556.5,-168 556.5,-174 550.5,-180 544.5,-180"/>
<text text-anchor="middle" x="519" y="-159.5" font-family="sans" font-size="10.00">get_rulegraph</text>
</g>
<!-- 13&#45;&gt;12 -->
<g id="edge19" class="edge">
<title>13&#45;&gt;12</title>
<path fill="none" stroke="grey" stroke-width="2" d="M519,-143.7C519,-135.98 519,-126.71 519,-118.11"/>
<polygon fill="grey" stroke="grey" stroke-width="2" points="522.5,-118.1 519,-108.1 515.5,-118.1 522.5,-118.1"/>
</g>
</g>
</svg>
