<?xml version="1.0" encoding="UTF-8" standalone="no"?>
<!DOCTYPE svg PUBLIC "-//W3C//DTD SVG 1.1//EN"
 "http://www.w3.org/Graphics/SVG/1.1/DTD/svg11.dtd">
<!-- Generated by graphviz version 6.0.1 (0)
 -->
<!-- Title: snakemake_dag Pages: 1 -->
<svg width="1017pt" height="476pt"
 viewBox="0.00 0.00 1016.50 476.00" xmlns="http://www.w3.org/2000/svg" xmlns:xlink="http://www.w3.org/1999/xlink">
<g id="graph0" class="graph" transform="scale(1 1) rotate(0) translate(4 472)">
<title>snakemake_dag</title>
<polygon fill="white" stroke="none" points="-4,4 -4,-472 1012.5,-472 1012.5,4 -4,4"/>
<!-- 0 -->
<g id="node1" class="node">
<title>0</title>
<path fill="none" stroke="#b6d856" stroke-width="2" d="M456,-36C456,-36 426,-36 426,-36 420,-36 414,-30 414,-24 414,-24 414,-12 414,-12 414,-6 420,0 426,0 426,0 456,0 456,0 462,0 468,-6 468,-12 468,-12 468,-24 468,-24 468,-30 462,-36 456,-36"/>
<text text-anchor="middle" x="441" y="-15.5" font-family="sans" font-size="10.00">all</text>
</g>
<!-- 1 -->
<g id="node2" class="node">
<title>1</title>
<path fill="none" stroke="#ced856" stroke-width="2" d="M82,-180C82,-180 12,-180 12,-180 6,-180 0,-174 0,-168 0,-168 0,-156 0,-156 0,-150 6,-144 12,-144 12,-144 82,-144 82,-144 88,-144 94,-150 94,-156 94,-156 94,-168 94,-168 94,-174 88,-180 82,-180"/>
<text text-anchor="middle" x="47" y="-159.5" font-family="sans" font-size="10.00">get_dot_rulegraph</text>
</g>
<!-- 1&#45;&gt;0 -->
<g id="edge10" class="edge">
<title>1&#45;&gt;0</title>
<path fill="none" stroke="grey" stroke-width="2" d="M47.47,-143.64C49.01,-123.2 54.87,-89.8 76,-72 125.03,-30.7 320.64,-21.58 403.55,-19.57"/>
<polygon fill="grey" stroke="grey" stroke-width="2" points="403.86,-23.06 413.78,-19.34 403.71,-16.07 403.86,-23.06"/>
</g>
<!-- 2 -->
<g id="node3" class="node">
<title>2</title>
<path fill="none" stroke="#56d882" stroke-width="2" d="M195,-108C195,-108 97,-108 97,-108 91,-108 85,-102 85,-96 85,-96 85,-84 85,-84 85,-78 91,-72 97,-72 97,-72 195,-72 195,-72 201,-72 207,-78 207,-84 207,-84 207,-96 207,-96 207,-102 201,-108 195,-108"/>
<text text-anchor="middle" x="146" y="-87.5" font-family="sans" font-size="10.00">deploy_to_github_pages</text>
</g>
<!-- 1&#45;&gt;2 -->
<g id="edge14" class="edge">
<title>1&#45;&gt;2</title>
<path fill="none" stroke="grey" stroke-width="2" d="M71.22,-143.88C83.92,-134.89 99.66,-123.76 113.42,-114.03"/>
<polygon fill="grey" stroke="grey" stroke-width="2" points="115.54,-116.82 121.69,-108.19 111.5,-111.11 115.54,-116.82"/>
</g>
<!-- 2&#45;&gt;0 -->
<g id="edge13" class="edge">
<title>2&#45;&gt;0</title>
<path fill="none" stroke="grey" stroke-width="2" d="M207.12,-74.5C266.37,-60.44 354.31,-39.57 403.75,-27.84"/>
<polygon fill="grey" stroke="grey" stroke-width="2" points="404.77,-31.19 413.69,-25.48 403.16,-24.38 404.77,-31.19"/>
</g>
<!-- 3 -->
<g id="node4" class="node">
<title>3</title>
<path fill="none" stroke="#56a9d8" stroke-width="2" d="M168,-180C168,-180 124,-180 124,-180 118,-180 112,-174 112,-168 112,-168 112,-156 112,-156 112,-150 118,-144 124,-144 124,-144 168,-144 168,-144 174,-144 180,-150 180,-156 180,-156 180,-168 180,-168 180,-174 174,-180 168,-180"/>
<text text-anchor="middle" x="146" y="-159.5" font-family="sans" font-size="10.00">project_tree</text>
</g>
<!-- 3&#45;&gt;2 -->
<g id="edge15" class="edge">
<title>3&#45;&gt;2</title>
<path fill="none" stroke="grey" stroke-width="2" d="M146,-143.7C146,-135.98 146,-126.71 146,-118.11"/>
<polygon fill="grey" stroke="grey" stroke-width="2" points="149.5,-118.1 146,-108.1 142.5,-118.1 149.5,-118.1"/>
</g>
<!-- 4 -->
<g id="node5" class="node">
<title>4</title>
<path fill="none" stroke="#61d856" stroke-width="2" d="M307.5,-180C307.5,-180 210.5,-180 210.5,-180 204.5,-180 198.5,-174 198.5,-168 198.5,-168 198.5,-156 198.5,-156 198.5,-150 204.5,-144 210.5,-144 210.5,-144 307.5,-144 307.5,-144 313.5,-144 319.5,-150 319.5,-156 319.5,-156 319.5,-168 319.5,-168 319.5,-174 313.5,-180 307.5,-180"/>
<text text-anchor="middle" x="259" y="-159.5" font-family="sans" font-size="10.00">snakemake_html_report</text>
</g>
<!-- 4&#45;&gt;0 -->
<g id="edge3" class="edge">
<title>4&#45;&gt;0</title>
<path fill="none" stroke="grey" stroke-width="2" d="M251.96,-143.68C245.29,-124.21 238.41,-92.62 254,-72 272.05,-48.13 354.87,-31.89 404.03,-24.17"/>
<polygon fill="grey" stroke="grey" stroke-width="2" points="404.62,-27.62 413.98,-22.65 403.56,-20.7 404.62,-27.62"/>
</g>
<!-- 4&#45;&gt;2 -->
<g id="edge16" class="edge">
<title>4&#45;&gt;2</title>
<path fill="none" stroke="grey" stroke-width="2" d="M231.36,-143.88C216.58,-134.72 198.21,-123.34 182.3,-113.48"/>
<polygon fill="grey" stroke="grey" stroke-width="2" points="184.09,-110.48 173.75,-108.19 180.41,-116.43 184.09,-110.48"/>
</g>
<!-- 5 -->
<g id="node6" class="node">
<title>5</title>
<path fill="none" stroke="#568ad8" stroke-width="2" d="M324.5,-108C324.5,-108 275.5,-108 275.5,-108 269.5,-108 263.5,-102 263.5,-96 263.5,-96 263.5,-84 263.5,-84 263.5,-78 269.5,-72 275.5,-72 275.5,-72 324.5,-72 324.5,-72 330.5,-72 336.5,-78 336.5,-84 336.5,-84 336.5,-96 336.5,-96 336.5,-102 330.5,-108 324.5,-108"/>
<text text-anchor="middle" x="300" y="-87.5" font-family="sans" font-size="10.00">import_reads</text>
</g>
<!-- 5&#45;&gt;0 -->
<g id="edge11" class="edge">
<title>5&#45;&gt;0</title>
<path fill="none" stroke="grey" stroke-width="2" d="M334.49,-71.88C355.8,-61.3 383.1,-47.74 404.73,-37.01"/>
<polygon fill="grey" stroke="grey" stroke-width="2" points="406.52,-40.03 413.92,-32.44 403.41,-33.76 406.52,-40.03"/>
</g>
<!-- 6 -->
<g id="node7" class="node">
<title>6</title>
<path fill="none" stroke="#56d863" stroke-width="2" d="M520.5,-468C520.5,-468 455.5,-468 455.5,-468 449.5,-468 443.5,-462 443.5,-456 443.5,-456 443.5,-444 443.5,-444 443.5,-438 449.5,-432 455.5,-432 455.5,-432 520.5,-432 520.5,-432 526.5,-432 532.5,-438 532.5,-444 532.5,-444 532.5,-456 532.5,-456 532.5,-462 526.5,-468 520.5,-468"/>
<text text-anchor="middle" x="488" y="-447.5" font-family="sans" font-size="10.00">import_metadata</text>
</g>
<!-- 6&#45;&gt;0 -->
<g id="edge9" class="edge">
<title>6&#45;&gt;0</title>
<path fill="none" stroke="grey" stroke-width="2" d="M457.91,-431.89C421.5,-408.7 365,-363.59 365,-307 365,-307 365,-307 365,-161 365,-115.64 395.52,-70.75 417.88,-43.95"/>
<polygon fill="grey" stroke="grey" stroke-width="2" points="420.64,-46.09 424.51,-36.23 415.34,-41.53 420.64,-46.09"/>
</g>
<!-- 10 -->
<g id="node11" class="node">
<title>10</title>
<path fill="none" stroke="#56c1d8" stroke-width="2" d="M740.5,-396C740.5,-396 625.5,-396 625.5,-396 619.5,-396 613.5,-390 613.5,-384 613.5,-384 613.5,-372 613.5,-372 613.5,-366 619.5,-360 625.5,-360 625.5,-360 740.5,-360 740.5,-360 746.5,-360 752.5,-366 752.5,-372 752.5,-372 752.5,-384 752.5,-384 752.5,-390 746.5,-396 740.5,-396"/>
<text text-anchor="middle" x="683" y="-375.5" font-family="sans" font-size="10.00">mothur_process_sequences</text>
</g>
<!-- 6&#45;&gt;10 -->
<g id="edge20" class="edge">
<title>6&#45;&gt;10</title>
<path fill="none" stroke="grey" stroke-width="2" d="M532.74,-432.94C560.44,-423 596.27,-410.14 625.99,-399.47"/>
<polygon fill="grey" stroke="grey" stroke-width="2" points="627.18,-402.76 635.41,-396.08 624.81,-396.17 627.18,-402.76"/>
</g>
<!-- 7 -->
<g id="node8" class="node">
<title>7</title>
<path fill="none" stroke="#56d8d0" stroke-width="2" d="M996.5,-108C996.5,-108 847.5,-108 847.5,-108 841.5,-108 835.5,-102 835.5,-96 835.5,-96 835.5,-84 835.5,-84 835.5,-78 841.5,-72 847.5,-72 847.5,-72 996.5,-72 996.5,-72 1002.5,-72 1008.5,-78 1008.5,-84 1008.5,-84 1008.5,-96 1008.5,-96 1008.5,-102 1002.5,-108 996.5,-108"/>
<text text-anchor="middle" x="922" y="-87.5" font-family="sans" font-size="10.00">mothur_autogenerate_mapping_files</text>
</g>
<!-- 7&#45;&gt;0 -->
<g id="edge6" class="edge">
<title>7&#45;&gt;0</title>
<path fill="none" stroke="grey" stroke-width="2" d="M835.25,-74.24C830.43,-73.47 825.66,-72.72 821,-72 695.7,-52.72 546.68,-32.81 478.46,-23.87"/>
<polygon fill="grey" stroke="grey" stroke-width="2" points="478.59,-20.36 468.22,-22.53 477.69,-27.3 478.59,-20.36"/>
</g>
<!-- 8 -->
<g id="node9" class="node">
<title>8</title>
<path fill="none" stroke="#d88d56" stroke-width="2" d="M491,-252C491,-252 405,-252 405,-252 399,-252 393,-246 393,-240 393,-240 393,-228 393,-228 393,-222 399,-216 405,-216 405,-216 491,-216 491,-216 497,-216 503,-222 503,-228 503,-228 503,-240 503,-240 503,-246 497,-252 491,-252"/>
<text text-anchor="middle" x="448" y="-231.5" font-family="sans" font-size="10.00">mothur_classify_otus</text>
</g>
<!-- 8&#45;&gt;0 -->
<g id="edge7" class="edge">
<title>8&#45;&gt;0</title>
<path fill="none" stroke="grey" stroke-width="2" d="M436.95,-215.61C431.26,-205.62 424.92,-192.58 422,-180 411.21,-133.49 423.06,-77.92 432.29,-45.73"/>
<polygon fill="grey" stroke="grey" stroke-width="2" points="435.64,-46.72 435.16,-36.13 428.94,-44.71 435.64,-46.72"/>
</g>
<!-- 17 -->
<g id="node18" class="node">
<title>17</title>
<path fill="none" stroke="#d87556" stroke-width="2" d="M553,-180C553,-180 443,-180 443,-180 437,-180 431,-174 431,-168 431,-168 431,-156 431,-156 431,-150 437,-144 443,-144 443,-144 553,-144 553,-144 559,-144 565,-150 565,-156 565,-156 565,-168 565,-168 565,-174 559,-180 553,-180"/>
<text text-anchor="middle" x="498" y="-159.5" font-family="sans" font-size="10.00">mothur_split_group_shared</text>
</g>
<!-- 8&#45;&gt;17 -->
<g id="edge27" class="edge">
<title>8&#45;&gt;17</title>
<path fill="none" stroke="grey" stroke-width="2" d="M460.36,-215.7C466.23,-207.47 473.37,-197.48 479.84,-188.42"/>
<polygon fill="grey" stroke="grey" stroke-width="2" points="482.82,-190.28 485.78,-180.1 477.12,-186.21 482.82,-190.28"/>
</g>
<!-- 9 -->
<g id="node10" class="node">
<title>9</title>
<path fill="none" stroke="#d8c356" stroke-width="2" d="M744,-324C744,-324 622,-324 622,-324 616,-324 610,-318 610,-312 610,-312 610,-300 610,-300 610,-294 616,-288 622,-288 622,-288 744,-288 744,-288 750,-288 756,-294 756,-300 756,-300 756,-312 756,-312 756,-318 750,-324 744,-324"/>
<text text-anchor="middle" x="683" y="-303.5" font-family="sans" font-size="10.00">mothur_final_processed_seqs</text>
</g>
<!-- 9&#45;&gt;8 -->
<g id="edge17" class="edge">
<title>9&#45;&gt;8</title>
<path fill="none" stroke="grey" stroke-width="2" d="M625.81,-287.97C591.66,-277.79 548.19,-264.84 512.77,-254.29"/>
<polygon fill="grey" stroke="grey" stroke-width="2" points="513.59,-250.89 503.01,-251.39 511.6,-257.6 513.59,-250.89"/>
</g>
<!-- 12 -->
<g id="node13" class="node">
<title>12</title>
<path fill="none" stroke="#5673d8" stroke-width="2" d="M642.5,-252C642.5,-252 533.5,-252 533.5,-252 527.5,-252 521.5,-246 521.5,-240 521.5,-240 521.5,-228 521.5,-228 521.5,-222 527.5,-216 533.5,-216 533.5,-216 642.5,-216 642.5,-216 648.5,-216 654.5,-222 654.5,-228 654.5,-228 654.5,-240 654.5,-240 654.5,-246 648.5,-252 642.5,-252"/>
<text text-anchor="middle" x="588" y="-231.5" font-family="sans" font-size="10.00">mothur_classify_phylotype</text>
</g>
<!-- 9&#45;&gt;12 -->
<g id="edge21" class="edge">
<title>9&#45;&gt;12</title>
<path fill="none" stroke="grey" stroke-width="2" d="M659.52,-287.7C647.44,-278.8 632.55,-267.82 619.48,-258.2"/>
<polygon fill="grey" stroke="grey" stroke-width="2" points="621.34,-255.22 611.21,-252.1 617.19,-260.85 621.34,-255.22"/>
</g>
<!-- 13 -->
<g id="node14" class="node">
<title>13</title>
<path fill="none" stroke="#d8ac56" stroke-width="2" d="M729,-180C729,-180 641,-180 641,-180 635,-180 629,-174 629,-168 629,-168 629,-156 629,-156 629,-150 635,-144 641,-144 641,-144 729,-144 729,-144 735,-144 741,-150 741,-156 741,-156 741,-168 741,-168 741,-174 735,-180 729,-180"/>
<text text-anchor="middle" x="685" y="-159.5" font-family="sans" font-size="10.00">mothur_classify_asvs</text>
</g>
<!-- 9&#45;&gt;13 -->
<g id="edge22" class="edge">
<title>9&#45;&gt;13</title>
<path fill="none" stroke="grey" stroke-width="2" d="M683.24,-287.87C683.58,-263.67 684.21,-219.21 684.61,-190.39"/>
<polygon fill="grey" stroke="grey" stroke-width="2" points="688.12,-190.24 684.76,-180.19 681.12,-190.14 688.12,-190.24"/>
</g>
<!-- 14 -->
<g id="node15" class="node">
<title>14</title>
<path fill="none" stroke="#56d8b9" stroke-width="2" d="M834.5,-252C834.5,-252 723.5,-252 723.5,-252 717.5,-252 711.5,-246 711.5,-240 711.5,-240 711.5,-228 711.5,-228 711.5,-222 717.5,-216 723.5,-216 723.5,-216 834.5,-216 834.5,-216 840.5,-216 846.5,-222 846.5,-228 846.5,-228 846.5,-240 846.5,-240 846.5,-246 840.5,-252 834.5,-252"/>
<text text-anchor="middle" x="779" y="-231.5" font-family="sans" font-size="10.00">mothur_classify_phylogeny</text>
</g>
<!-- 9&#45;&gt;14 -->
<g id="edge23" class="edge">
<title>9&#45;&gt;14</title>
<path fill="none" stroke="grey" stroke-width="2" d="M706.73,-287.7C718.94,-278.8 733.99,-267.82 747.18,-258.2"/>
<polygon fill="grey" stroke="grey" stroke-width="2" points="749.52,-260.82 755.54,-252.1 745.4,-255.17 749.52,-260.82"/>
</g>
<!-- 15 -->
<g id="node16" class="node">
<title>15</title>
<path fill="none" stroke="#56d89a" stroke-width="2" d="M945.5,-252C945.5,-252 876.5,-252 876.5,-252 870.5,-252 864.5,-246 864.5,-240 864.5,-240 864.5,-228 864.5,-228 864.5,-222 870.5,-216 876.5,-216 876.5,-216 945.5,-216 945.5,-216 951.5,-216 957.5,-222 957.5,-228 957.5,-228 957.5,-240 957.5,-240 957.5,-246 951.5,-252 945.5,-252"/>
<text text-anchor="middle" x="911" y="-231.5" font-family="sans" font-size="10.00">mothur_error_rate</text>
</g>
<!-- 9&#45;&gt;15 -->
<g id="edge25" class="edge">
<title>9&#45;&gt;15</title>
<path fill="none" stroke="grey" stroke-width="2" d="M738.48,-287.97C773.67,-277.16 819.05,-263.23 854.44,-252.37"/>
<polygon fill="grey" stroke="grey" stroke-width="2" points="855.6,-255.67 864.14,-249.39 853.55,-248.98 855.6,-255.67"/>
</g>
<!-- 10&#45;&gt;9 -->
<g id="edge18" class="edge">
<title>10&#45;&gt;9</title>
<path fill="none" stroke="grey" stroke-width="2" d="M683,-359.7C683,-351.98 683,-342.71 683,-334.11"/>
<polygon fill="grey" stroke="grey" stroke-width="2" points="686.5,-334.1 683,-324.1 679.5,-334.1 686.5,-334.1"/>
</g>
<!-- 11 -->
<g id="node12" class="node">
<title>11</title>
<path fill="none" stroke="#80d856" stroke-width="2" d="M778,-468C778,-468 686,-468 686,-468 680,-468 674,-462 674,-456 674,-456 674,-444 674,-444 674,-438 680,-432 686,-432 686,-432 778,-432 778,-432 784,-432 790,-438 790,-444 790,-444 790,-456 790,-456 790,-462 784,-468 778,-468"/>
<text text-anchor="middle" x="732" y="-447.5" font-family="sans" font-size="10.00">get_mothur_references</text>
</g>
<!-- 11&#45;&gt;10 -->
<g id="edge19" class="edge">
<title>11&#45;&gt;10</title>
<path fill="none" stroke="grey" stroke-width="2" d="M719.89,-431.7C714.13,-423.47 707.14,-413.48 700.79,-404.42"/>
<polygon fill="grey" stroke="grey" stroke-width="2" points="703.58,-402.29 694.97,-396.1 697.84,-406.3 703.58,-402.29"/>
</g>
<!-- 16 -->
<g id="node17" class="node">
<title>16</title>
<path fill="none" stroke="#97d856" stroke-width="2" d="M923,-324C923,-324 823,-324 823,-324 817,-324 811,-318 811,-312 811,-312 811,-300 811,-300 811,-294 817,-288 823,-288 823,-288 923,-288 923,-288 929,-288 935,-294 935,-300 935,-300 935,-312 935,-312 935,-318 929,-324 923,-324"/>
<text text-anchor="middle" x="873" y="-303.5" font-family="sans" font-size="10.00">get_mothur_zymo_mock</text>
</g>
<!-- 11&#45;&gt;16 -->
<g id="edge26" class="edge">
<title>11&#45;&gt;16</title>
<path fill="none" stroke="grey" stroke-width="2" d="M749.01,-431.87C773.89,-406.82 820.32,-360.05 848.77,-331.41"/>
<polygon fill="grey" stroke="grey" stroke-width="2" points="851.37,-333.75 855.93,-324.19 846.4,-328.82 851.37,-333.75"/>
</g>
<!-- 12&#45;&gt;0 -->
<g id="edge12" class="edge">
<title>12&#45;&gt;0</title>
<path fill="none" stroke="grey" stroke-width="2" d="M593.29,-215.79C601.92,-184.05 615.13,-115.57 584,-72 559.94,-38.32 511.94,-26.01 478.21,-21.53"/>
<polygon fill="grey" stroke="grey" stroke-width="2" points="478.58,-18.05 468.24,-20.38 477.77,-25 478.58,-18.05"/>
</g>
<!-- 13&#45;&gt;0 -->
<g id="edge8" class="edge">
<title>13&#45;&gt;0</title>
<path fill="none" stroke="grey" stroke-width="2" d="M676.34,-143.99C665.25,-123.89 644.18,-90.81 617,-72 574.79,-42.78 516.13,-29.36 478.36,-23.41"/>
<polygon fill="grey" stroke="grey" stroke-width="2" points="478.69,-19.92 468.29,-21.93 477.67,-26.85 478.69,-19.92"/>
</g>
<!-- 14&#45;&gt;0 -->
<g id="edge2" class="edge">
<title>14&#45;&gt;0</title>
<path fill="none" stroke="grey" stroke-width="2" d="M776.69,-215.8C773.42,-196.71 765.96,-165.75 750,-144 717.38,-99.56 699.01,-95.2 649,-72 592.32,-45.7 520.66,-31.12 477.95,-24.18"/>
<polygon fill="grey" stroke="grey" stroke-width="2" points="478.43,-20.71 468.01,-22.62 477.34,-27.63 478.43,-20.71"/>
</g>
<!-- 15&#45;&gt;0 -->
<g id="edge1" class="edge">
<title>15&#45;&gt;0</title>
<path fill="none" stroke="grey" stroke-width="2" d="M893.89,-215.78C859.71,-182.46 779.19,-109.15 697,-72 623.87,-38.94 529.64,-26.27 478.34,-21.59"/>
<polygon fill="grey" stroke="grey" stroke-width="2" points="478.63,-18.1 468.36,-20.73 478.03,-25.07 478.63,-18.1"/>
</g>
<!-- 16&#45;&gt;15 -->
<g id="edge24" class="edge">
<title>16&#45;&gt;15</title>
<path fill="none" stroke="grey" stroke-width="2" d="M882.39,-287.7C886.76,-279.64 892.06,-269.89 896.9,-260.98"/>
<polygon fill="grey" stroke="grey" stroke-width="2" points="900.02,-262.56 901.71,-252.1 893.87,-259.22 900.02,-262.56"/>
</g>
<!-- 17&#45;&gt;0 -->
<g id="edge5" class="edge">
<title>17&#45;&gt;0</title>
<path fill="none" stroke="grey" stroke-width="2" d="M483.02,-143.97C475.06,-134.09 465.77,-121.05 460,-108 451.28,-88.28 446.46,-64.3 443.86,-46.2"/>
<polygon fill="grey" stroke="grey" stroke-width="2" points="447.3,-45.51 442.54,-36.04 440.36,-46.41 447.3,-45.51"/>
</g>
<!-- 18 -->
<g id="node19" class="node">
<title>18</title>
<path fill="none" stroke="#d85656" stroke-width="2" d="M563,-108C563,-108 481,-108 481,-108 475,-108 469,-102 469,-96 469,-96 469,-84 469,-84 469,-78 475,-72 481,-72 481,-72 563,-72 563,-72 569,-72 575,-78 575,-84 575,-84 575,-96 575,-96 575,-102 569,-108 563,-108"/>
<text text-anchor="middle" x="522" y="-87.5" font-family="sans" font-size="10.00">alpha_beta_diversity</text>
</g>
<!-- 17&#45;&gt;18 -->
<g id="edge28" class="edge">
<title>17&#45;&gt;18</title>
<path fill="none" stroke="grey" stroke-width="2" d="M503.93,-143.7C506.61,-135.9 509.83,-126.51 512.8,-117.83"/>
<polygon fill="grey" stroke="grey" stroke-width="2" points="516.2,-118.7 516.14,-108.1 509.58,-116.43 516.2,-118.7"/>
</g>
<!-- 18&#45;&gt;0 -->
<g id="edge4" class="edge">
<title>18&#45;&gt;0</title>
<path fill="none" stroke="grey" stroke-width="2" d="M501.98,-71.7C491.87,-62.97 479.46,-52.24 468.48,-42.75"/>
<polygon fill="grey" stroke="grey" stroke-width="2" points="470.65,-39.99 460.79,-36.1 466.07,-45.29 470.65,-39.99"/>
</g>
</g>
</svg>
