<?xml version="1.0" encoding="UTF-8" standalone="no"?>
<!DOCTYPE svg PUBLIC "-//W3C//DTD SVG 1.1//EN"
 "http://www.w3.org/Graphics/SVG/1.1/DTD/svg11.dtd">
<!-- Generated by graphviz version 7.1.0 (0)
 -->
<!-- Title: snakemake_dag Pages: 1 -->
<svg width="877pt" height="332pt"
 viewBox="0.00 0.00 877.00 332.00" xmlns="http://www.w3.org/2000/svg" xmlns:xlink="http://www.w3.org/1999/xlink">
<g id="graph0" class="graph" transform="scale(1 1) rotate(0) translate(4 328)">
<title>snakemake_dag</title>
<polygon fill="white" stroke="none" points="-4,4 -4,-328 873,-328 873,4 -4,4"/>
<!-- 0 -->
<g id="node1" class="node">
<title>0</title>
<path fill="none" stroke="#56d863" stroke-width="2" d="M306,-36C306,-36 276,-36 276,-36 270,-36 264,-30 264,-24 264,-24 264,-12 264,-12 264,-6 270,0 276,0 276,0 306,0 306,0 312,0 318,-6 318,-12 318,-12 318,-24 318,-24 318,-30 312,-36 306,-36"/>
<text text-anchor="middle" x="291" y="-15.5" font-family="sans" font-size="10.00">all</text>
</g>
<!-- 1 -->
<g id="node2" class="node">
<title>1</title>
<path fill="none" stroke="#a7d856" stroke-width="2" d="M282.5,-252C282.5,-252 167.5,-252 167.5,-252 161.5,-252 155.5,-246 155.5,-240 155.5,-240 155.5,-228 155.5,-228 155.5,-222 161.5,-216 167.5,-216 167.5,-216 282.5,-216 282.5,-216 288.5,-216 294.5,-222 294.5,-228 294.5,-228 294.5,-240 294.5,-240 294.5,-246 288.5,-252 282.5,-252"/>
<text text-anchor="middle" x="225" y="-231.5" font-family="sans" font-size="10.00">mothur_process_sequences</text>
</g>
<!-- 1&#45;&gt;0 -->
<g id="edge6" class="edge">
<title>1&#45;&gt;0</title>
<path fill="none" stroke="grey" stroke-width="2" d="M208.58,-215.37C200.7,-205.71 192.11,-193.06 188,-180 183.2,-164.74 182.59,-159.06 188,-144 202.26,-104.28 235.2,-68.17 260.01,-45.09"/>
<polygon fill="grey" stroke="grey" stroke-width="2" points="262.08,-47.94 267.16,-38.64 257.39,-42.74 262.08,-47.94"/>
</g>
<!-- 5 -->
<g id="node6" class="node">
<title>5</title>
<path fill="none" stroke="#d6d856" stroke-width="2" d="M469,-180C469,-180 361,-180 361,-180 355,-180 349,-174 349,-168 349,-168 349,-156 349,-156 349,-150 355,-144 361,-144 361,-144 469,-144 469,-144 475,-144 481,-150 481,-156 481,-156 481,-168 481,-168 481,-174 475,-180 469,-180"/>
<text text-anchor="middle" x="415" y="-159.5" font-family="sans" font-size="10.00">mothur_calculate_errorrate</text>
</g>
<!-- 1&#45;&gt;5 -->
<g id="edge14" class="edge">
<title>1&#45;&gt;5</title>
<path fill="none" stroke="grey" stroke-width="2" d="M273.44,-215.15C298.02,-206.1 328.13,-195.01 354.25,-185.38"/>
<polygon fill="grey" stroke="grey" stroke-width="2" points="355.31,-188.72 363.48,-181.98 352.89,-182.15 355.31,-188.72"/>
</g>
<!-- 7 -->
<g id="node8" class="node">
<title>7</title>
<path fill="none" stroke="#56d8d0" stroke-width="2" d="M319,-180C319,-180 209,-180 209,-180 203,-180 197,-174 197,-168 197,-168 197,-156 197,-156 197,-150 203,-144 209,-144 209,-144 319,-144 319,-144 325,-144 331,-150 331,-156 331,-156 331,-168 331,-168 331,-174 325,-180 319,-180"/>
<text text-anchor="middle" x="264" y="-159.5" font-family="sans" font-size="10.00">remove_intermedeate_files</text>
</g>
<!-- 1&#45;&gt;7 -->
<g id="edge16" class="edge">
<title>1&#45;&gt;7</title>
<path fill="none" stroke="grey" stroke-width="2" d="M234.84,-215.34C238.74,-208.34 243.32,-200.12 247.69,-192.28"/>
<polygon fill="grey" stroke="grey" stroke-width="2" points="250.74,-193.99 252.55,-183.55 244.63,-190.58 250.74,-193.99"/>
</g>
<!-- 9 -->
<g id="node10" class="node">
<title>9</title>
<path fill="none" stroke="#56b1d8" stroke-width="2" d="M129,-180C129,-180 19,-180 19,-180 13,-180 7,-174 7,-168 7,-168 7,-156 7,-156 7,-150 13,-144 19,-144 19,-144 129,-144 129,-144 135,-144 141,-150 141,-156 141,-156 141,-168 141,-168 141,-174 135,-180 129,-180"/>
<text text-anchor="middle" x="74" y="-159.5" font-family="sans" font-size="10.00">mothur_split_group_shared</text>
</g>
<!-- 1&#45;&gt;9 -->
<g id="edge17" class="edge">
<title>1&#45;&gt;9</title>
<path fill="none" stroke="grey" stroke-width="2" d="M186.51,-215.15C167.59,-206.38 144.55,-195.71 124.26,-186.3"/>
<polygon fill="grey" stroke="grey" stroke-width="2" points="125.98,-183.24 115.43,-182.21 123.03,-189.59 125.98,-183.24"/>
</g>
<!-- 2 -->
<g id="node3" class="node">
<title>2</title>
<path fill="none" stroke="#78d856" stroke-width="2" d="M124,-324C124,-324 12,-324 12,-324 6,-324 0,-318 0,-312 0,-312 0,-300 0,-300 0,-294 6,-288 12,-288 12,-288 124,-288 124,-288 130,-288 136,-294 136,-300 136,-300 136,-312 136,-312 136,-318 130,-324 124,-324"/>
<text text-anchor="middle" x="68" y="-303.5" font-family="sans" font-size="10.00">auto_mothur_mapping_files</text>
</g>
<!-- 2&#45;&gt;1 -->
<g id="edge10" class="edge">
<title>2&#45;&gt;1</title>
<path fill="none" stroke="grey" stroke-width="2" d="M108.02,-287.15C127.79,-278.34 151.87,-267.61 173.04,-258.17"/>
<polygon fill="grey" stroke="grey" stroke-width="2" points="174.3,-261.44 182.01,-254.17 171.45,-255.04 174.3,-261.44"/>
</g>
<!-- 3 -->
<g id="node4" class="node">
<title>3</title>
<path fill="none" stroke="#56d8a2" stroke-width="2" d="M421,-324C421,-324 329,-324 329,-324 323,-324 317,-318 317,-312 317,-312 317,-300 317,-300 317,-294 323,-288 329,-288 329,-288 421,-288 421,-288 427,-288 433,-294 433,-300 433,-300 433,-312 433,-312 433,-318 427,-324 421,-324"/>
<text text-anchor="middle" x="375" y="-303.5" font-family="sans" font-size="10.00">get_mothur_references</text>
</g>
<!-- 3&#45;&gt;1 -->
<g id="edge11" class="edge">
<title>3&#45;&gt;1</title>
<path fill="none" stroke="grey" stroke-width="2" d="M336.76,-287.15C318.06,-278.43 295.3,-267.81 275.21,-258.43"/>
<polygon fill="grey" stroke="grey" stroke-width="2" points="276.72,-255.27 266.17,-254.21 273.75,-261.61 276.72,-255.27"/>
</g>
<!-- 6 -->
<g id="node7" class="node">
<title>6</title>
<path fill="none" stroke="#5682d8" stroke-width="2" d="M425,-252C425,-252 325,-252 325,-252 319,-252 313,-246 313,-240 313,-240 313,-228 313,-228 313,-222 319,-216 325,-216 325,-216 425,-216 425,-216 431,-216 437,-222 437,-228 437,-228 437,-240 437,-240 437,-246 431,-252 425,-252"/>
<text text-anchor="middle" x="375" y="-231.5" font-family="sans" font-size="10.00">get_mothur_zymo_mock</text>
</g>
<!-- 3&#45;&gt;6 -->
<g id="edge15" class="edge">
<title>3&#45;&gt;6</title>
<path fill="none" stroke="grey" stroke-width="2" d="M375,-287.34C375,-280.75 375,-273.08 375,-265.67"/>
<polygon fill="grey" stroke="grey" stroke-width="2" points="378.5,-265.93 375,-255.93 371.5,-265.93 378.5,-265.93"/>
</g>
<!-- 4 -->
<g id="node5" class="node">
<title>4</title>
<path fill="none" stroke="#d85656" stroke-width="2" d="M286,-324C286,-324 166,-324 166,-324 160,-324 154,-318 154,-312 154,-312 154,-300 154,-300 154,-294 160,-288 166,-288 166,-288 286,-288 286,-288 292,-288 298,-294 298,-300 298,-300 298,-312 298,-312 298,-318 292,-324 286,-324"/>
<text text-anchor="middle" x="226" y="-303.5" font-family="sans" font-size="10.00">import_mothur_mapping_files</text>
</g>
<!-- 4&#45;&gt;1 -->
<g id="edge12" class="edge">
<title>4&#45;&gt;1</title>
<path fill="none" stroke="grey" stroke-width="2" d="M225.75,-287.34C225.65,-280.75 225.54,-273.08 225.44,-265.67"/>
<polygon fill="grey" stroke="grey" stroke-width="2" points="228.94,-265.88 225.3,-255.93 221.94,-265.98 228.94,-265.88"/>
</g>
<!-- 5&#45;&gt;0 -->
<g id="edge3" class="edge">
<title>5&#45;&gt;0</title>
<path fill="none" stroke="grey" stroke-width="2" d="M357.52,-143.09C339.91,-134.98 322.03,-123.61 310,-108 297.25,-91.47 292.6,-68.29 291.09,-49.74"/>
<polygon fill="grey" stroke="grey" stroke-width="2" points="294.59,-49.76 290.61,-39.94 287.6,-50.1 294.59,-49.76"/>
</g>
<!-- 6&#45;&gt;5 -->
<g id="edge13" class="edge">
<title>6&#45;&gt;5</title>
<path fill="none" stroke="grey" stroke-width="2" d="M385.09,-215.34C389.14,-208.26 393.9,-199.92 398.43,-192"/>
<polygon fill="grey" stroke="grey" stroke-width="2" points="401.35,-193.95 403.27,-183.53 395.27,-190.48 401.35,-193.95"/>
</g>
<!-- 7&#45;&gt;0 -->
<g id="edge4" class="edge">
<title>7&#45;&gt;0</title>
<path fill="none" stroke="grey" stroke-width="2" d="M266,-143.17C268.17,-125.12 272,-96.48 277,-72 278.54,-64.45 280.51,-56.37 282.48,-48.85"/>
<polygon fill="grey" stroke="grey" stroke-width="2" points="285.79,-50.04 285.04,-39.47 279.03,-48.2 285.79,-50.04"/>
</g>
<!-- 8 -->
<g id="node9" class="node">
<title>8</title>
<path fill="none" stroke="#d8c356" stroke-width="2" d="M414.5,-108C414.5,-108 331.5,-108 331.5,-108 325.5,-108 319.5,-102 319.5,-96 319.5,-96 319.5,-84 319.5,-84 319.5,-78 325.5,-72 331.5,-72 331.5,-72 414.5,-72 414.5,-72 420.5,-72 426.5,-78 426.5,-84 426.5,-84 426.5,-96 426.5,-96 426.5,-102 420.5,-108 414.5,-108"/>
<text text-anchor="middle" x="373" y="-87.5" font-family="sans" font-size="10.00">get_files4smk_report</text>
</g>
<!-- 8&#45;&gt;0 -->
<g id="edge2" class="edge">
<title>8&#45;&gt;0</title>
<path fill="none" stroke="grey" stroke-width="2" d="M352.31,-71.34C343.06,-63.44 331.96,-53.96 321.76,-45.26"/>
<polygon fill="grey" stroke="grey" stroke-width="2" points="324.15,-42.7 314.27,-38.87 319.61,-48.02 324.15,-42.7"/>
</g>
<!-- 9&#45;&gt;0 -->
<g id="edge7" class="edge">
<title>9&#45;&gt;0</title>
<path fill="none" stroke="grey" stroke-width="2" d="M52.42,-143.06C32.28,-124.16 7.86,-94.13 26,-72 53.9,-37.97 183.19,-25.35 250.31,-21.04"/>
<polygon fill="grey" stroke="grey" stroke-width="2" points="250.45,-24.54 260.22,-20.45 250.03,-17.55 250.45,-24.54"/>
</g>
<!-- 10 -->
<g id="node11" class="node">
<title>10</title>
<path fill="none" stroke="#56d8b9" stroke-width="2" d="M129,-108C129,-108 47,-108 47,-108 41,-108 35,-102 35,-96 35,-96 35,-84 35,-84 35,-78 41,-72 47,-72 47,-72 129,-72 129,-72 135,-72 141,-78 141,-84 141,-84 141,-96 141,-96 141,-102 135,-108 129,-108"/>
<text text-anchor="middle" x="88" y="-87.5" font-family="sans" font-size="10.00">alpha_beta_diversity</text>
</g>
<!-- 9&#45;&gt;10 -->
<g id="edge18" class="edge">
<title>9&#45;&gt;10</title>
<path fill="none" stroke="grey" stroke-width="2" d="M77.53,-143.34C78.85,-136.75 80.38,-129.08 81.87,-121.67"/>
<polygon fill="grey" stroke="grey" stroke-width="2" points="85.3,-122.36 83.83,-111.87 78.43,-120.99 85.3,-122.36"/>
</g>
<!-- 10&#45;&gt;0 -->
<g id="edge5" class="edge">
<title>10&#45;&gt;0</title>
<path fill="none" stroke="grey" stroke-width="2" d="M140.01,-71.06C174.65,-59.12 219.47,-43.67 251.25,-32.71"/>
<polygon fill="grey" stroke="grey" stroke-width="2" points="251.99,-36.15 260.31,-29.58 249.71,-29.53 251.99,-36.15"/>
</g>
<!-- 11 -->
<g id="node12" class="node">
<title>11</title>
<path fill="none" stroke="#569ad8" stroke-width="2" d="M583,-108C583,-108 457,-108 457,-108 451,-108 445,-102 445,-96 445,-96 445,-84 445,-84 445,-78 451,-72 457,-72 457,-72 583,-72 583,-72 589,-72 595,-78 595,-84 595,-84 595,-96 595,-96 595,-102 589,-108 583,-108"/>
<text text-anchor="middle" x="520" y="-87.5" font-family="sans" font-size="10.00">qiime2_create_n_view_qc_qvz</text>
</g>
<!-- 11&#45;&gt;0 -->
<g id="edge8" class="edge">
<title>11&#45;&gt;0</title>
<path fill="none" stroke="grey" stroke-width="2" d="M461.32,-71.06C420.61,-58.62 367.42,-42.36 331.39,-31.35"/>
<polygon fill="grey" stroke="grey" stroke-width="2" points="332.43,-28 321.84,-28.43 330.38,-34.7 332.43,-28"/>
</g>
<!-- 12 -->
<g id="node13" class="node">
<title>12</title>
<path fill="none" stroke="#d88556" stroke-width="2" d="M573,-252C573,-252 467,-252 467,-252 461,-252 455,-246 455,-240 455,-240 455,-228 455,-228 455,-222 461,-216 467,-216 467,-216 573,-216 573,-216 579,-216 585,-222 585,-228 585,-228 585,-240 585,-240 585,-246 579,-252 573,-252"/>
<text text-anchor="middle" x="520" y="-231.5" font-family="sans" font-size="10.00">qiime2_validate_metadata</text>
</g>
<!-- 12&#45;&gt;11 -->
<g id="edge20" class="edge">
<title>12&#45;&gt;11</title>
<path fill="none" stroke="grey" stroke-width="2" d="M520,-215.02C520,-191.54 520,-150.11 520,-121.64"/>
<polygon fill="grey" stroke="grey" stroke-width="2" points="523.5,-121.87 520,-111.87 516.5,-121.87 523.5,-121.87"/>
</g>
<!-- 13 -->
<g id="node14" class="node">
<title>13</title>
<path fill="none" stroke="#566bd8" stroke-width="2" d="M656.5,-324C656.5,-324 537.5,-324 537.5,-324 531.5,-324 525.5,-318 525.5,-312 525.5,-312 525.5,-300 525.5,-300 525.5,-294 531.5,-288 537.5,-288 537.5,-288 656.5,-288 656.5,-288 662.5,-288 668.5,-294 668.5,-300 668.5,-300 668.5,-312 668.5,-312 668.5,-318 662.5,-324 656.5,-324"/>
<text text-anchor="middle" x="597" y="-303.5" font-family="sans" font-size="10.00">import_qiime2_mapping_files</text>
</g>
<!-- 13&#45;&gt;12 -->
<g id="edge21" class="edge">
<title>13&#45;&gt;12</title>
<path fill="none" stroke="grey" stroke-width="2" d="M577.57,-287.34C568.97,-279.52 558.68,-270.16 549.19,-261.53"/>
<polygon fill="grey" stroke="grey" stroke-width="2" points="551.69,-259.07 541.93,-254.94 546.98,-264.25 551.69,-259.07"/>
</g>
<!-- 15 -->
<g id="node16" class="node">
<title>15</title>
<path fill="none" stroke="#56d892" stroke-width="2" d="M727,-252C727,-252 615,-252 615,-252 609,-252 603,-246 603,-240 603,-240 603,-228 603,-228 603,-222 609,-216 615,-216 615,-216 727,-216 727,-216 733,-216 739,-222 739,-228 739,-228 739,-240 739,-240 739,-246 733,-252 727,-252"/>
<text text-anchor="middle" x="671" y="-231.5" font-family="sans" font-size="10.00">qiime2_import_paired_fastq</text>
</g>
<!-- 13&#45;&gt;15 -->
<g id="edge23" class="edge">
<title>13&#45;&gt;15</title>
<path fill="none" stroke="grey" stroke-width="2" d="M615.67,-287.34C623.85,-279.6 633.62,-270.36 642.66,-261.81"/>
<polygon fill="grey" stroke="grey" stroke-width="2" points="645.02,-264.4 649.88,-254.98 640.21,-259.31 645.02,-264.4"/>
</g>
<!-- 14 -->
<g id="node15" class="node">
<title>14</title>
<path fill="none" stroke="#bed856" stroke-width="2" d="M701.5,-180C701.5,-180 640.5,-180 640.5,-180 634.5,-180 628.5,-174 628.5,-168 628.5,-168 628.5,-156 628.5,-156 628.5,-150 634.5,-144 640.5,-144 640.5,-144 701.5,-144 701.5,-144 707.5,-144 713.5,-150 713.5,-156 713.5,-156 713.5,-168 713.5,-168 713.5,-174 707.5,-180 701.5,-180"/>
<text text-anchor="middle" x="671" y="-159.5" font-family="sans" font-size="10.00">qiime2_read_qc</text>
</g>
<!-- 14&#45;&gt;11 -->
<g id="edge19" class="edge">
<title>14&#45;&gt;11</title>
<path fill="none" stroke="grey" stroke-width="2" d="M632.51,-143.15C613.59,-134.38 590.55,-123.71 570.26,-114.3"/>
<polygon fill="grey" stroke="grey" stroke-width="2" points="571.98,-111.24 561.43,-110.21 569.03,-117.59 571.98,-111.24"/>
</g>
<!-- 16 -->
<g id="node17" class="node">
<title>16</title>
<path fill="none" stroke="#d89c56" stroke-width="2" d="M717,-108C717,-108 625,-108 625,-108 619,-108 613,-102 613,-96 613,-96 613,-84 613,-84 613,-78 619,-72 625,-72 625,-72 717,-72 717,-72 723,-72 729,-78 729,-84 729,-84 729,-96 729,-96 729,-102 723,-108 717,-108"/>
<text text-anchor="middle" x="671" y="-87.5" font-family="sans" font-size="10.00">qiime2_denovo_cluster</text>
</g>
<!-- 14&#45;&gt;16 -->
<g id="edge24" class="edge">
<title>14&#45;&gt;16</title>
<path fill="none" stroke="grey" stroke-width="2" d="M671,-143.34C671,-136.75 671,-129.08 671,-121.67"/>
<polygon fill="grey" stroke="grey" stroke-width="2" points="674.5,-121.93 671,-111.93 667.5,-121.93 674.5,-121.93"/>
</g>
<!-- 15&#45;&gt;14 -->
<g id="edge22" class="edge">
<title>15&#45;&gt;14</title>
<path fill="none" stroke="grey" stroke-width="2" d="M671,-215.34C671,-208.75 671,-201.08 671,-193.67"/>
<polygon fill="grey" stroke="grey" stroke-width="2" points="674.5,-193.93 671,-183.93 667.5,-193.93 674.5,-193.93"/>
</g>
<!-- 16&#45;&gt;0 -->
<g id="edge9" class="edge">
<title>16&#45;&gt;0</title>
<path fill="none" stroke="grey" stroke-width="2" d="M612.24,-73.8C609.46,-73.18 606.7,-72.57 604,-72 506.74,-51.46 391.17,-33.56 331.36,-24.77"/>
<polygon fill="grey" stroke="grey" stroke-width="2" points="332.17,-21.35 321.77,-23.37 331.16,-28.28 332.17,-21.35"/>
</g>
<!-- 17 -->
<g id="node18" class="node">
<title>17</title>
<path fill="none" stroke="#56d87b" stroke-width="2" d="M857,-108C857,-108 759,-108 759,-108 753,-108 747,-102 747,-96 747,-96 747,-84 747,-84 747,-78 753,-72 759,-72 759,-72 857,-72 857,-72 863,-72 869,-78 869,-84 869,-84 869,-96 869,-96 869,-102 863,-108 857,-108"/>
<text text-anchor="middle" x="808" y="-87.5" font-family="sans" font-size="10.00">deploy_to_github_pages</text>
</g>
<!-- 17&#45;&gt;0 -->
<g id="edge1" class="edge">
<title>17&#45;&gt;0</title>
<path fill="none" stroke="grey" stroke-width="2" d="M746.25,-73.58C743.47,-73.02 740.71,-72.49 738,-72 589.32,-45.23 410.29,-28.67 331.53,-22.16"/>
<polygon fill="grey" stroke="grey" stroke-width="2" points="332.16,-18.7 321.91,-21.38 331.6,-25.68 332.16,-18.7"/>
</g>
</g>
</svg>
