<?xml version="1.0" encoding="UTF-8" standalone="no"?>
<!DOCTYPE svg PUBLIC "-//W3C//DTD SVG 1.1//EN"
 "http://www.w3.org/Graphics/SVG/1.1/DTD/svg11.dtd">
<!-- Generated by graphviz version 6.0.1 (0)
 -->
<!-- Title: snakemake_dag Pages: 1 -->
<svg width="890pt" height="692pt"
 viewBox="0.00 0.00 890.00 692.00" xmlns="http://www.w3.org/2000/svg" xmlns:xlink="http://www.w3.org/1999/xlink">
<g id="graph0" class="graph" transform="scale(1 1) rotate(0) translate(4 688)">
<title>snakemake_dag</title>
<polygon fill="white" stroke="none" points="-4,4 -4,-688 886,-688 886,4 -4,4"/>
<!-- 0 -->
<g id="node1" class="node">
<title>0</title>
<path fill="none" stroke="#70d856" stroke-width="2" d="M526,-36C526,-36 496,-36 496,-36 490,-36 484,-30 484,-24 484,-24 484,-12 484,-12 484,-6 490,0 496,0 496,0 526,0 526,0 532,0 538,-6 538,-12 538,-12 538,-24 538,-24 538,-30 532,-36 526,-36"/>
<text text-anchor="middle" x="511" y="-15.5" font-family="sans" font-size="10.00">all</text>
</g>
<!-- 1 -->
<g id="node2" class="node">
<title>1</title>
<path fill="none" stroke="#56b9d8" stroke-width="2" d="M92,-108C92,-108 12,-108 12,-108 6,-108 0,-102 0,-96 0,-96 0,-84 0,-84 0,-78 6,-72 12,-72 12,-72 92,-72 92,-72 98,-72 104,-78 104,-84 104,-84 104,-96 104,-96 104,-102 98,-108 92,-108"/>
<text text-anchor="middle" x="52" y="-87.5" font-family="sans" font-size="10.00">ggplot_variable_freq</text>
</g>
<!-- 1&#45;&gt;0 -->
<g id="edge8" class="edge">
<title>1&#45;&gt;0</title>
<path fill="none" stroke="grey" stroke-width="2" d="M104.13,-73.96C107.12,-73.26 110.09,-72.6 113,-72 244.21,-45.12 402.66,-28.73 473.55,-22.23"/>
<polygon fill="grey" stroke="grey" stroke-width="2" points="474.11,-25.69 483.76,-21.31 473.48,-18.72 474.11,-25.69"/>
</g>
<!-- 2 -->
<g id="node3" class="node">
<title>2</title>
<path fill="none" stroke="#afd856" stroke-width="2" d="M148.5,-180C148.5,-180 77.5,-180 77.5,-180 71.5,-180 65.5,-174 65.5,-168 65.5,-168 65.5,-156 65.5,-156 65.5,-150 71.5,-144 77.5,-144 77.5,-144 148.5,-144 148.5,-144 154.5,-144 160.5,-150 160.5,-156 160.5,-156 160.5,-168 160.5,-168 160.5,-174 154.5,-180 148.5,-180"/>
<text text-anchor="middle" x="113" y="-159.5" font-family="sans" font-size="10.00">get_sra_metadata</text>
</g>
<!-- 2&#45;&gt;1 -->
<g id="edge12" class="edge">
<title>2&#45;&gt;1</title>
<path fill="none" stroke="grey" stroke-width="2" d="M97.92,-143.7C90.61,-135.3 81.69,-125.07 73.66,-115.86"/>
<polygon fill="grey" stroke="grey" stroke-width="2" points="76.11,-113.34 66.91,-108.1 70.84,-117.94 76.11,-113.34"/>
</g>
<!-- 3 -->
<g id="node4" class="node">
<title>3</title>
<path fill="none" stroke="#d85656" stroke-width="2" d="M211.5,-108C211.5,-108 134.5,-108 134.5,-108 128.5,-108 122.5,-102 122.5,-96 122.5,-96 122.5,-84 122.5,-84 122.5,-78 128.5,-72 134.5,-72 134.5,-72 211.5,-72 211.5,-72 217.5,-72 223.5,-78 223.5,-84 223.5,-84 223.5,-96 223.5,-96 223.5,-102 217.5,-108 211.5,-108"/>
<text text-anchor="middle" x="173" y="-87.5" font-family="sans" font-size="10.00">leaflet_sample_gps</text>
</g>
<!-- 2&#45;&gt;3 -->
<g id="edge13" class="edge">
<title>2&#45;&gt;3</title>
<path fill="none" stroke="grey" stroke-width="2" d="M127.83,-143.7C135.02,-135.3 143.8,-125.07 151.69,-115.86"/>
<polygon fill="grey" stroke="grey" stroke-width="2" points="154.49,-117.97 158.34,-108.1 149.17,-113.42 154.49,-117.97"/>
</g>
<!-- 3&#45;&gt;0 -->
<g id="edge1" class="edge">
<title>3&#45;&gt;0</title>
<path fill="none" stroke="grey" stroke-width="2" d="M223.66,-74.31C226.81,-73.5 229.94,-72.72 233,-72 318.62,-51.75 420.47,-33.9 473.96,-25"/>
<polygon fill="grey" stroke="grey" stroke-width="2" points="474.7,-28.42 484,-23.34 473.56,-21.52 474.7,-28.42"/>
</g>
<!-- 4 -->
<g id="node5" class="node">
<title>4</title>
<path fill="none" stroke="#56d89a" stroke-width="2" d="M302,-108C302,-108 254,-108 254,-108 248,-108 242,-102 242,-96 242,-96 242,-84 242,-84 242,-78 248,-72 254,-72 254,-72 302,-72 302,-72 308,-72 314,-78 314,-84 314,-84 314,-96 314,-96 314,-102 308,-108 302,-108"/>
<text text-anchor="middle" x="278" y="-87.5" font-family="sans" font-size="10.00">qc_rawreads</text>
</g>
<!-- 4&#45;&gt;0 -->
<g id="edge11" class="edge">
<title>4&#45;&gt;0</title>
<path fill="none" stroke="grey" stroke-width="2" d="M314.26,-76.45C318.87,-74.92 323.54,-73.4 328,-72 378.33,-56.17 436.98,-39.49 474.05,-29.16"/>
<polygon fill="grey" stroke="grey" stroke-width="2" points="475.21,-32.48 483.91,-26.43 473.34,-25.73 475.21,-32.48"/>
</g>
<!-- 5 -->
<g id="node6" class="node">
<title>5</title>
<path fill="none" stroke="#d88d56" stroke-width="2" d="M403.5,-324C403.5,-324 350.5,-324 350.5,-324 344.5,-324 338.5,-318 338.5,-312 338.5,-312 338.5,-300 338.5,-300 338.5,-294 344.5,-288 350.5,-288 350.5,-288 403.5,-288 403.5,-288 409.5,-288 415.5,-294 415.5,-300 415.5,-300 415.5,-312 415.5,-312 415.5,-318 409.5,-324 403.5,-324"/>
<text text-anchor="middle" x="377" y="-303.5" font-family="sans" font-size="10.00">final_otu_files</text>
</g>
<!-- 5&#45;&gt;0 -->
<g id="edge4" class="edge">
<title>5&#45;&gt;0</title>
<path fill="none" stroke="grey" stroke-width="2" d="M363.85,-287.91C357.08,-278.01 349.51,-264.96 346,-252 331.32,-197.82 345.1,-102.28 370,-72 395.55,-40.92 441.32,-28.06 473.77,-22.74"/>
<polygon fill="grey" stroke="grey" stroke-width="2" points="474.42,-26.18 483.8,-21.26 473.4,-19.26 474.42,-26.18"/>
</g>
<!-- 19 -->
<g id="node20" class="node">
<title>19</title>
<path fill="none" stroke="#d8cb56" stroke-width="2" d="M423,-252C423,-252 367,-252 367,-252 361,-252 355,-246 355,-240 355,-240 355,-228 355,-228 355,-222 361,-216 367,-216 367,-216 423,-216 423,-216 429,-216 435,-222 435,-228 435,-228 435,-240 435,-240 435,-246 429,-252 423,-252"/>
<text text-anchor="middle" x="395" y="-231.5" font-family="sans" font-size="10.00">split_by_group</text>
</g>
<!-- 5&#45;&gt;19 -->
<g id="edge29" class="edge">
<title>5&#45;&gt;19</title>
<path fill="none" stroke="grey" stroke-width="2" d="M381.45,-287.7C383.45,-279.9 385.87,-270.51 388.1,-261.83"/>
<polygon fill="grey" stroke="grey" stroke-width="2" points="391.5,-262.66 390.6,-252.1 384.72,-260.92 391.5,-262.66"/>
</g>
<!-- 6 -->
<g id="node7" class="node">
<title>6</title>
<path fill="none" stroke="#bed856" stroke-width="2" d="M405,-396C405,-396 349,-396 349,-396 343,-396 337,-390 337,-384 337,-384 337,-372 337,-372 337,-366 343,-360 349,-360 349,-360 405,-360 405,-360 411,-360 417,-366 417,-372 417,-372 417,-384 417,-384 417,-390 411,-396 405,-396"/>
<text text-anchor="middle" x="377" y="-375.5" font-family="sans" font-size="10.00">classify_otu97</text>
</g>
<!-- 6&#45;&gt;5 -->
<g id="edge14" class="edge">
<title>6&#45;&gt;5</title>
<path fill="none" stroke="grey" stroke-width="2" d="M377,-359.7C377,-351.98 377,-342.71 377,-334.11"/>
<polygon fill="grey" stroke="grey" stroke-width="2" points="380.5,-334.1 377,-324.1 373.5,-334.1 380.5,-334.1"/>
</g>
<!-- 7 -->
<g id="node8" class="node">
<title>7</title>
<path fill="none" stroke="#d8a456" stroke-width="2" d="M578,-468C578,-468 492,-468 492,-468 486,-468 480,-462 480,-456 480,-456 480,-444 480,-444 480,-438 486,-432 492,-432 492,-432 578,-432 578,-432 584,-432 590,-438 590,-444 590,-444 590,-456 590,-456 590,-462 584,-468 578,-468"/>
<text text-anchor="middle" x="535" y="-447.5" font-family="sans" font-size="10.00">denoise_n_classify80</text>
</g>
<!-- 7&#45;&gt;6 -->
<g id="edge15" class="edge">
<title>7&#45;&gt;6</title>
<path fill="none" stroke="grey" stroke-width="2" d="M496.35,-431.88C474.75,-422.31 447.65,-410.3 424.73,-400.15"/>
<polygon fill="grey" stroke="grey" stroke-width="2" points="426.09,-396.92 415.53,-396.07 423.25,-403.32 426.09,-396.92"/>
</g>
<!-- 13 -->
<g id="node14" class="node">
<title>13</title>
<path fill="none" stroke="#61d856" stroke-width="2" d="M521,-396C521,-396 447,-396 447,-396 441,-396 435,-390 435,-384 435,-384 435,-372 435,-372 435,-366 441,-360 447,-360 447,-360 521,-360 521,-360 527,-360 533,-366 533,-372 533,-372 533,-384 533,-384 533,-390 527,-396 521,-396"/>
<text text-anchor="middle" x="484" y="-375.5" font-family="sans" font-size="10.00">classify_phylotype</text>
</g>
<!-- 7&#45;&gt;13 -->
<g id="edge22" class="edge">
<title>7&#45;&gt;13</title>
<path fill="none" stroke="grey" stroke-width="2" d="M522.39,-431.7C516.4,-423.47 509.12,-413.48 502.52,-404.42"/>
<polygon fill="grey" stroke="grey" stroke-width="2" points="505.18,-402.13 496.46,-396.1 499.52,-406.25 505.18,-402.13"/>
</g>
<!-- 15 -->
<g id="node16" class="node">
<title>15</title>
<path fill="none" stroke="#56c9d8" stroke-width="2" d="M610.5,-396C610.5,-396 563.5,-396 563.5,-396 557.5,-396 551.5,-390 551.5,-384 551.5,-384 551.5,-372 551.5,-372 551.5,-366 557.5,-360 563.5,-360 563.5,-360 610.5,-360 610.5,-360 616.5,-360 622.5,-366 622.5,-372 622.5,-372 622.5,-384 622.5,-384 622.5,-390 616.5,-396 610.5,-396"/>
<text text-anchor="middle" x="587" y="-375.5" font-family="sans" font-size="10.00">classify_asv</text>
</g>
<!-- 7&#45;&gt;15 -->
<g id="edge24" class="edge">
<title>7&#45;&gt;15</title>
<path fill="none" stroke="grey" stroke-width="2" d="M547.85,-431.7C554.03,-423.39 561.54,-413.28 568.32,-404.14"/>
<polygon fill="grey" stroke="grey" stroke-width="2" points="571.14,-406.22 574.29,-396.1 565.52,-402.04 571.14,-406.22"/>
</g>
<!-- 17 -->
<g id="node18" class="node">
<title>17</title>
<path fill="none" stroke="#d86656" stroke-width="2" d="M729,-396C729,-396 653,-396 653,-396 647,-396 641,-390 641,-384 641,-384 641,-372 641,-372 641,-366 647,-360 653,-360 653,-360 729,-360 729,-360 735,-360 741,-366 741,-372 741,-372 741,-384 741,-384 741,-390 735,-396 729,-396"/>
<text text-anchor="middle" x="691" y="-375.5" font-family="sans" font-size="10.00">classify_phylogeny</text>
</g>
<!-- 7&#45;&gt;17 -->
<g id="edge26" class="edge">
<title>7&#45;&gt;17</title>
<path fill="none" stroke="grey" stroke-width="2" d="M573.16,-431.88C594.39,-422.35 621.01,-410.41 643.57,-400.28"/>
<polygon fill="grey" stroke="grey" stroke-width="2" points="645.27,-403.36 652.96,-396.07 642.41,-396.97 645.27,-403.36"/>
</g>
<!-- 8 -->
<g id="node9" class="node">
<title>8</title>
<path fill="none" stroke="#56d88a" stroke-width="2" d="M526.5,-540C526.5,-540 479.5,-540 479.5,-540 473.5,-540 467.5,-534 467.5,-528 467.5,-528 467.5,-516 467.5,-516 467.5,-510 473.5,-504 479.5,-504 479.5,-504 526.5,-504 526.5,-504 532.5,-504 538.5,-510 538.5,-516 538.5,-516 538.5,-528 538.5,-528 538.5,-534 532.5,-540 526.5,-540"/>
<text text-anchor="middle" x="503" y="-519.5" font-family="sans" font-size="10.00">align_n_filter</text>
</g>
<!-- 8&#45;&gt;7 -->
<g id="edge17" class="edge">
<title>8&#45;&gt;7</title>
<path fill="none" stroke="grey" stroke-width="2" d="M510.91,-503.7C514.55,-495.73 518.95,-486.1 522.99,-477.26"/>
<polygon fill="grey" stroke="grey" stroke-width="2" points="526.21,-478.65 527.18,-468.1 519.84,-475.74 526.21,-478.65"/>
</g>
<!-- 9 -->
<g id="node10" class="node">
<title>9</title>
<path fill="none" stroke="#d6d856" stroke-width="2" d="M496.5,-612C496.5,-612 443.5,-612 443.5,-612 437.5,-612 431.5,-606 431.5,-600 431.5,-600 431.5,-588 431.5,-588 431.5,-582 437.5,-576 443.5,-576 443.5,-576 496.5,-576 496.5,-576 502.5,-576 508.5,-582 508.5,-588 508.5,-588 508.5,-600 508.5,-600 508.5,-606 502.5,-612 496.5,-612"/>
<text text-anchor="middle" x="470" y="-591.5" font-family="sans" font-size="10.00">make_contigs</text>
</g>
<!-- 9&#45;&gt;8 -->
<g id="edge18" class="edge">
<title>9&#45;&gt;8</title>
<path fill="none" stroke="grey" stroke-width="2" d="M478.16,-575.7C481.91,-567.73 486.45,-558.1 490.62,-549.26"/>
<polygon fill="grey" stroke="grey" stroke-width="2" points="493.84,-550.64 494.94,-540.1 487.51,-547.66 493.84,-550.64"/>
</g>
<!-- 10 -->
<g id="node11" class="node">
<title>10</title>
<path fill="none" stroke="#88d856" stroke-width="2" d="M490,-684C490,-684 450,-684 450,-684 444,-684 438,-678 438,-672 438,-672 438,-660 438,-660 438,-654 444,-648 450,-648 450,-648 490,-648 490,-648 496,-648 502,-654 502,-660 502,-660 502,-672 502,-672 502,-678 496,-684 490,-684"/>
<text text-anchor="middle" x="470" y="-663.5" font-family="sans" font-size="10.00">make_files</text>
</g>
<!-- 10&#45;&gt;9 -->
<g id="edge20" class="edge">
<title>10&#45;&gt;9</title>
<path fill="none" stroke="grey" stroke-width="2" d="M470,-647.7C470,-639.98 470,-630.71 470,-622.11"/>
<polygon fill="grey" stroke="grey" stroke-width="2" points="473.5,-622.1 470,-612.1 466.5,-622.1 473.5,-622.1"/>
</g>
<!-- 11 -->
<g id="node12" class="node">
<title>11</title>
<path fill="none" stroke="#567bd8" stroke-width="2" d="M595.5,-612C595.5,-612 538.5,-612 538.5,-612 532.5,-612 526.5,-606 526.5,-600 526.5,-600 526.5,-588 526.5,-588 526.5,-582 532.5,-576 538.5,-576 538.5,-576 595.5,-576 595.5,-576 601.5,-576 607.5,-582 607.5,-588 607.5,-588 607.5,-600 607.5,-600 607.5,-606 601.5,-612 595.5,-612"/>
<text text-anchor="middle" x="567" y="-591.5" font-family="sans" font-size="10.00">get_references</text>
</g>
<!-- 11&#45;&gt;7 -->
<g id="edge16" class="edge">
<title>11&#45;&gt;7</title>
<path fill="none" stroke="grey" stroke-width="2" d="M563.17,-575.94C559.15,-558.02 552.65,-529.03 547,-504 545.1,-495.59 543.03,-486.43 541.15,-478.12"/>
<polygon fill="grey" stroke="grey" stroke-width="2" points="544.52,-477.16 538.9,-468.18 537.69,-478.71 544.52,-477.16"/>
</g>
<!-- 11&#45;&gt;8 -->
<g id="edge19" class="edge">
<title>11&#45;&gt;8</title>
<path fill="none" stroke="grey" stroke-width="2" d="M551.18,-575.7C543.43,-567.22 533.96,-556.86 525.48,-547.58"/>
<polygon fill="grey" stroke="grey" stroke-width="2" points="527.97,-545.12 518.64,-540.1 522.8,-549.85 527.97,-545.12"/>
</g>
<!-- 12 -->
<g id="node13" class="node">
<title>12</title>
<path fill="none" stroke="#97d856" stroke-width="2" d="M546.5,-252C546.5,-252 465.5,-252 465.5,-252 459.5,-252 453.5,-246 453.5,-240 453.5,-240 453.5,-228 453.5,-228 453.5,-222 459.5,-216 465.5,-216 465.5,-216 546.5,-216 546.5,-216 552.5,-216 558.5,-222 558.5,-228 558.5,-228 558.5,-240 558.5,-240 558.5,-246 552.5,-252 546.5,-252"/>
<text text-anchor="middle" x="506" y="-231.5" font-family="sans" font-size="10.00">final_phylotype_files</text>
</g>
<!-- 12&#45;&gt;0 -->
<g id="edge5" class="edge">
<title>12&#45;&gt;0</title>
<path fill="none" stroke="grey" stroke-width="2" d="M506.4,-215.85C507.27,-178.83 509.31,-91.18 510.36,-46.39"/>
<polygon fill="grey" stroke="grey" stroke-width="2" points="513.86,-46.31 510.6,-36.23 506.86,-46.15 513.86,-46.31"/>
</g>
<!-- 13&#45;&gt;12 -->
<g id="edge21" class="edge">
<title>13&#45;&gt;12</title>
<path fill="none" stroke="grey" stroke-width="2" d="M486.65,-359.87C490.4,-335.67 497.29,-291.21 501.76,-262.39"/>
<polygon fill="grey" stroke="grey" stroke-width="2" points="505.26,-262.61 503.34,-252.19 498.35,-261.54 505.26,-262.61"/>
</g>
<!-- 14 -->
<g id="node15" class="node">
<title>14</title>
<path fill="none" stroke="#56d863" stroke-width="2" d="M614.5,-324C614.5,-324 559.5,-324 559.5,-324 553.5,-324 547.5,-318 547.5,-312 547.5,-312 547.5,-300 547.5,-300 547.5,-294 553.5,-288 559.5,-288 559.5,-288 614.5,-288 614.5,-288 620.5,-288 626.5,-294 626.5,-300 626.5,-300 626.5,-312 626.5,-312 626.5,-318 620.5,-324 614.5,-324"/>
<text text-anchor="middle" x="587" y="-303.5" font-family="sans" font-size="10.00">final_asv_files</text>
</g>
<!-- 14&#45;&gt;0 -->
<g id="edge9" class="edge">
<title>14&#45;&gt;0</title>
<path fill="none" stroke="grey" stroke-width="2" d="M583.45,-287.87C579.65,-269.9 573.32,-240.86 567,-216 551.42,-154.74 530.47,-83.55 519.13,-45.77"/>
<polygon fill="grey" stroke="grey" stroke-width="2" points="522.43,-44.61 516.19,-36.04 515.73,-46.63 522.43,-44.61"/>
</g>
<!-- 15&#45;&gt;14 -->
<g id="edge23" class="edge">
<title>15&#45;&gt;14</title>
<path fill="none" stroke="grey" stroke-width="2" d="M587,-359.7C587,-351.98 587,-342.71 587,-334.11"/>
<polygon fill="grey" stroke="grey" stroke-width="2" points="590.5,-334.1 587,-324.1 583.5,-334.1 590.5,-334.1"/>
</g>
<!-- 16 -->
<g id="node17" class="node">
<title>16</title>
<path fill="none" stroke="#56d8a9" stroke-width="2" d="M721.5,-252C721.5,-252 638.5,-252 638.5,-252 632.5,-252 626.5,-246 626.5,-240 626.5,-240 626.5,-228 626.5,-228 626.5,-222 632.5,-216 638.5,-216 638.5,-216 721.5,-216 721.5,-216 727.5,-216 733.5,-222 733.5,-228 733.5,-228 733.5,-240 733.5,-240 733.5,-246 727.5,-252 721.5,-252"/>
<text text-anchor="middle" x="680" y="-231.5" font-family="sans" font-size="10.00">final_phylogeny_files</text>
</g>
<!-- 16&#45;&gt;0 -->
<g id="edge2" class="edge">
<title>16&#45;&gt;0</title>
<path fill="none" stroke="grey" stroke-width="2" d="M672.46,-215.52C658.38,-184.22 625.7,-117.65 584,-72 573.19,-60.16 559.35,-49.32 546.63,-40.56"/>
<polygon fill="grey" stroke="grey" stroke-width="2" points="548.32,-37.48 538.06,-34.85 544.44,-43.31 548.32,-37.48"/>
</g>
<!-- 17&#45;&gt;16 -->
<g id="edge25" class="edge">
<title>17&#45;&gt;16</title>
<path fill="none" stroke="grey" stroke-width="2" d="M689.67,-359.87C687.8,-335.67 684.35,-291.21 682.12,-262.39"/>
<polygon fill="grey" stroke="grey" stroke-width="2" points="685.59,-261.89 681.33,-252.19 678.61,-262.43 685.59,-261.89"/>
</g>
<!-- 18 -->
<g id="node19" class="node">
<title>18</title>
<path fill="none" stroke="#56d873" stroke-width="2" d="M471,-108C471,-108 391,-108 391,-108 385,-108 379,-102 379,-96 379,-96 379,-84 379,-84 379,-78 385,-72 391,-72 391,-72 471,-72 471,-72 477,-72 483,-78 483,-84 483,-84 483,-96 483,-96 483,-102 477,-108 471,-108"/>
<text text-anchor="middle" x="431" y="-87.5" font-family="sans" font-size="10.00">subsample_otutable</text>
</g>
<!-- 18&#45;&gt;0 -->
<g id="edge10" class="edge">
<title>18&#45;&gt;0</title>
<path fill="none" stroke="grey" stroke-width="2" d="M450.78,-71.7C460.75,-62.97 473.01,-52.24 483.86,-42.75"/>
<polygon fill="grey" stroke="grey" stroke-width="2" points="486.23,-45.32 491.45,-36.1 481.62,-40.06 486.23,-45.32"/>
</g>
<!-- 19&#45;&gt;18 -->
<g id="edge28" class="edge">
<title>19&#45;&gt;18</title>
<path fill="none" stroke="grey" stroke-width="2" d="M390.27,-215.75C386.1,-197.43 381.84,-167.87 390,-144 393.44,-133.93 399.66,-124.28 406.23,-116.05"/>
<polygon fill="grey" stroke="grey" stroke-width="2" points="409,-118.2 412.83,-108.32 403.68,-113.65 409,-118.2"/>
</g>
<!-- 20 -->
<g id="node21" class="node">
<title>20</title>
<path fill="none" stroke="#56d8c1" stroke-width="2" d="M462.5,-180C462.5,-180 411.5,-180 411.5,-180 405.5,-180 399.5,-174 399.5,-168 399.5,-168 399.5,-156 399.5,-156 399.5,-150 405.5,-144 411.5,-144 411.5,-144 462.5,-144 462.5,-144 468.5,-144 474.5,-150 474.5,-156 474.5,-156 474.5,-168 474.5,-168 474.5,-174 468.5,-180 462.5,-180"/>
<text text-anchor="middle" x="437" y="-159.5" font-family="sans" font-size="10.00">count_groups</text>
</g>
<!-- 19&#45;&gt;20 -->
<g id="edge30" class="edge">
<title>19&#45;&gt;20</title>
<path fill="none" stroke="grey" stroke-width="2" d="M405.38,-215.7C410.26,-207.56 416.19,-197.69 421.58,-188.7"/>
<polygon fill="grey" stroke="grey" stroke-width="2" points="424.59,-190.48 426.74,-180.1 418.59,-186.88 424.59,-190.48"/>
</g>
<!-- 20&#45;&gt;18 -->
<g id="edge27" class="edge">
<title>20&#45;&gt;18</title>
<path fill="none" stroke="grey" stroke-width="2" d="M435.52,-143.7C434.86,-135.98 434.06,-126.71 433.32,-118.11"/>
<polygon fill="grey" stroke="grey" stroke-width="2" points="436.81,-117.77 432.47,-108.1 429.83,-118.37 436.81,-117.77"/>
</g>
<!-- 21 -->
<g id="node22" class="node">
<title>21</title>
<path fill="none" stroke="#d87d56" stroke-width="2" d="M708,-180C708,-180 678,-180 678,-180 672,-180 666,-174 666,-168 666,-168 666,-156 666,-156 666,-150 672,-144 678,-144 678,-144 708,-144 708,-144 714,-144 720,-150 720,-156 720,-156 720,-168 720,-168 720,-174 714,-180 708,-180"/>
<text text-anchor="middle" x="693" y="-159.5" font-family="sans" font-size="10.00">get_dag</text>
</g>
<!-- 21&#45;&gt;0 -->
<g id="edge3" class="edge">
<title>21&#45;&gt;0</title>
<path fill="none" stroke="grey" stroke-width="2" d="M682.59,-143.65C670.18,-124.15 647.84,-92.54 622,-72 599.62,-54.21 570.29,-40.54 547.4,-31.53"/>
<polygon fill="grey" stroke="grey" stroke-width="2" points="548.62,-28.25 538.02,-27.96 546.12,-34.79 548.62,-28.25"/>
</g>
<!-- 23 -->
<g id="node24" class="node">
<title>23</title>
<path fill="none" stroke="#d8b456" stroke-width="2" d="M760,-108C760,-108 686,-108 686,-108 680,-108 674,-102 674,-96 674,-96 674,-84 674,-84 674,-78 680,-72 686,-72 686,-72 760,-72 760,-72 766,-72 772,-78 772,-84 772,-84 772,-96 772,-96 772,-102 766,-108 760,-108"/>
<text text-anchor="middle" x="723" y="-87.5" font-family="sans" font-size="10.00">github_page_index</text>
</g>
<!-- 21&#45;&gt;23 -->
<g id="edge31" class="edge">
<title>21&#45;&gt;23</title>
<path fill="none" stroke="grey" stroke-width="2" d="M700.42,-143.7C703.79,-135.81 707.87,-126.3 711.62,-117.55"/>
<polygon fill="grey" stroke="grey" stroke-width="2" points="714.95,-118.67 715.67,-108.1 708.51,-115.92 714.95,-118.67"/>
</g>
<!-- 22 -->
<g id="node23" class="node">
<title>22</title>
<path fill="none" stroke="#56d8d0" stroke-width="2" d="M870,-108C870,-108 802,-108 802,-108 796,-108 790,-102 790,-96 790,-96 790,-84 790,-84 790,-78 796,-72 802,-72 802,-72 870,-72 870,-72 876,-72 882,-78 882,-84 882,-84 882,-96 882,-96 882,-102 876,-108 870,-108"/>
<text text-anchor="middle" x="836" y="-87.5" font-family="sans" font-size="10.00">interactive_report</text>
</g>
<!-- 22&#45;&gt;0 -->
<g id="edge6" class="edge">
<title>22&#45;&gt;0</title>
<path fill="none" stroke="grey" stroke-width="2" d="M789.89,-74.36C786.89,-73.53 783.91,-72.73 781,-72 698.66,-51.26 600.49,-33.77 548.18,-25.01"/>
<polygon fill="grey" stroke="grey" stroke-width="2" points="548.47,-21.51 538.04,-23.33 547.33,-28.42 548.47,-21.51"/>
</g>
<!-- 23&#45;&gt;0 -->
<g id="edge7" class="edge">
<title>23&#45;&gt;0</title>
<path fill="none" stroke="grey" stroke-width="2" d="M673.83,-72.76C635.42,-60.08 582.88,-42.73 547.99,-31.21"/>
<polygon fill="grey" stroke="grey" stroke-width="2" points="548.79,-27.79 538.2,-27.98 546.6,-34.44 548.79,-27.79"/>
</g>
</g>
</svg>
