<?xml version="1.0" encoding="UTF-8" standalone="no"?>
<!DOCTYPE svg PUBLIC "-//W3C//DTD SVG 1.1//EN"
 "http://www.w3.org/Graphics/SVG/1.1/DTD/svg11.dtd">
<!-- Generated by graphviz version 6.0.1 (0)
 -->
<!-- Title: snakemake_dag Pages: 1 -->
<svg width="874pt" height="692pt"
 viewBox="0.00 0.00 874.00 692.00" xmlns="http://www.w3.org/2000/svg" xmlns:xlink="http://www.w3.org/1999/xlink">
<g id="graph0" class="graph" transform="scale(1 1) rotate(0) translate(4 688)">
<title>snakemake_dag</title>
<polygon fill="white" stroke="none" points="-4,4 -4,-688 870,-688 870,4 -4,4"/>
<!-- 0 -->
<g id="node1" class="node">
<title>0</title>
<path fill="none" stroke="#d6d856" stroke-width="2" d="M486,-36C486,-36 456,-36 456,-36 450,-36 444,-30 444,-24 444,-24 444,-12 444,-12 444,-6 450,0 456,0 456,0 486,0 486,0 492,0 498,-6 498,-12 498,-12 498,-24 498,-24 498,-30 492,-36 486,-36"/>
<text text-anchor="middle" x="471" y="-15.5" font-family="sans" font-size="10.00">all</text>
</g>
<!-- 1 -->
<g id="node2" class="node">
<title>1</title>
<path fill="none" stroke="#d87d56" stroke-width="2" d="M92,-108C92,-108 12,-108 12,-108 6,-108 0,-102 0,-96 0,-96 0,-84 0,-84 0,-78 6,-72 12,-72 12,-72 92,-72 92,-72 98,-72 104,-78 104,-84 104,-84 104,-96 104,-96 104,-102 98,-108 92,-108"/>
<text text-anchor="middle" x="52" y="-87.5" font-family="sans" font-size="10.00">ggplot_variable_freq</text>
</g>
<!-- 1&#45;&gt;0 -->
<g id="edge3" class="edge">
<title>1&#45;&gt;0</title>
<path fill="none" stroke="grey" stroke-width="2" d="M104.14,-74.01C107.13,-73.29 110.1,-72.62 113,-72 228.85,-47.38 368.2,-30.28 433.63,-22.98"/>
<polygon fill="grey" stroke="grey" stroke-width="2" points="434.29,-26.42 443.85,-21.85 433.52,-19.47 434.29,-26.42"/>
</g>
<!-- 2 -->
<g id="node3" class="node">
<title>2</title>
<path fill="none" stroke="#88d856" stroke-width="2" d="M148.5,-180C148.5,-180 77.5,-180 77.5,-180 71.5,-180 65.5,-174 65.5,-168 65.5,-168 65.5,-156 65.5,-156 65.5,-150 71.5,-144 77.5,-144 77.5,-144 148.5,-144 148.5,-144 154.5,-144 160.5,-150 160.5,-156 160.5,-156 160.5,-168 160.5,-168 160.5,-174 154.5,-180 148.5,-180"/>
<text text-anchor="middle" x="113" y="-159.5" font-family="sans" font-size="10.00">get_sra_metadata</text>
</g>
<!-- 2&#45;&gt;1 -->
<g id="edge11" class="edge">
<title>2&#45;&gt;1</title>
<path fill="none" stroke="grey" stroke-width="2" d="M97.92,-143.7C90.61,-135.3 81.69,-125.07 73.66,-115.86"/>
<polygon fill="grey" stroke="grey" stroke-width="2" points="76.11,-113.34 66.91,-108.1 70.84,-117.94 76.11,-113.34"/>
</g>
<!-- 3 -->
<g id="node4" class="node">
<title>3</title>
<path fill="none" stroke="#56c9d8" stroke-width="2" d="M211.5,-108C211.5,-108 134.5,-108 134.5,-108 128.5,-108 122.5,-102 122.5,-96 122.5,-96 122.5,-84 122.5,-84 122.5,-78 128.5,-72 134.5,-72 134.5,-72 211.5,-72 211.5,-72 217.5,-72 223.5,-78 223.5,-84 223.5,-84 223.5,-96 223.5,-96 223.5,-102 217.5,-108 211.5,-108"/>
<text text-anchor="middle" x="173" y="-87.5" font-family="sans" font-size="10.00">leaflet_sample_gps</text>
</g>
<!-- 2&#45;&gt;3 -->
<g id="edge12" class="edge">
<title>2&#45;&gt;3</title>
<path fill="none" stroke="grey" stroke-width="2" d="M127.83,-143.7C135.02,-135.3 143.8,-125.07 151.69,-115.86"/>
<polygon fill="grey" stroke="grey" stroke-width="2" points="154.49,-117.97 158.34,-108.1 149.17,-113.42 154.49,-117.97"/>
</g>
<!-- 3&#45;&gt;0 -->
<g id="edge10" class="edge">
<title>3&#45;&gt;0</title>
<path fill="none" stroke="grey" stroke-width="2" d="M223.68,-74.42C226.83,-73.58 229.96,-72.77 233,-72 303.59,-54.16 386.75,-36.37 433.74,-26.61"/>
<polygon fill="grey" stroke="grey" stroke-width="2" points="434.67,-29.99 443.75,-24.54 433.25,-23.14 434.67,-29.99"/>
</g>
<!-- 4 -->
<g id="node5" class="node">
<title>4</title>
<path fill="none" stroke="#56d8c1" stroke-width="2" d="M302,-108C302,-108 254,-108 254,-108 248,-108 242,-102 242,-96 242,-96 242,-84 242,-84 242,-78 248,-72 254,-72 254,-72 302,-72 302,-72 308,-72 314,-78 314,-84 314,-84 314,-96 314,-96 314,-102 308,-108 302,-108"/>
<text text-anchor="middle" x="278" y="-87.5" font-family="sans" font-size="10.00">qc_rawreads</text>
</g>
<!-- 4&#45;&gt;0 -->
<g id="edge6" class="edge">
<title>4&#45;&gt;0</title>
<path fill="none" stroke="grey" stroke-width="2" d="M314.3,-75.83C348.59,-63.4 399.76,-44.84 434.21,-32.34"/>
<polygon fill="grey" stroke="grey" stroke-width="2" points="435.68,-35.53 443.89,-28.83 433.29,-28.95 435.68,-35.53"/>
</g>
<!-- 5 -->
<g id="node6" class="node">
<title>5</title>
<path fill="none" stroke="#afd856" stroke-width="2" d="M408.5,-324C408.5,-324 355.5,-324 355.5,-324 349.5,-324 343.5,-318 343.5,-312 343.5,-312 343.5,-300 343.5,-300 343.5,-294 349.5,-288 355.5,-288 355.5,-288 408.5,-288 408.5,-288 414.5,-288 420.5,-294 420.5,-300 420.5,-300 420.5,-312 420.5,-312 420.5,-318 414.5,-324 408.5,-324"/>
<text text-anchor="middle" x="382" y="-303.5" font-family="sans" font-size="10.00">final_otu_files</text>
</g>
<!-- 5&#45;&gt;0 -->
<g id="edge9" class="edge">
<title>5&#45;&gt;0</title>
<path fill="none" stroke="grey" stroke-width="2" d="M368.85,-287.91C362.08,-278.01 354.51,-264.96 351,-252 337.19,-201.02 341.69,-112.56 370,-72 385.2,-50.22 412.21,-36.71 434.47,-28.79"/>
<polygon fill="grey" stroke="grey" stroke-width="2" points="435.6,-32.1 443.99,-25.63 433.39,-25.46 435.6,-32.1"/>
</g>
<!-- 19 -->
<g id="node20" class="node">
<title>19</title>
<path fill="none" stroke="#56d8a9" stroke-width="2" d="M428,-252C428,-252 372,-252 372,-252 366,-252 360,-246 360,-240 360,-240 360,-228 360,-228 360,-222 366,-216 372,-216 372,-216 428,-216 428,-216 434,-216 440,-222 440,-228 440,-228 440,-240 440,-240 440,-246 434,-252 428,-252"/>
<text text-anchor="middle" x="400" y="-231.5" font-family="sans" font-size="10.00">split_by_group</text>
</g>
<!-- 5&#45;&gt;19 -->
<g id="edge28" class="edge">
<title>5&#45;&gt;19</title>
<path fill="none" stroke="grey" stroke-width="2" d="M386.45,-287.7C388.45,-279.9 390.87,-270.51 393.1,-261.83"/>
<polygon fill="grey" stroke="grey" stroke-width="2" points="396.5,-262.66 395.6,-252.1 389.72,-260.92 396.5,-262.66"/>
</g>
<!-- 6 -->
<g id="node7" class="node">
<title>6</title>
<path fill="none" stroke="#d8b456" stroke-width="2" d="M410,-396C410,-396 354,-396 354,-396 348,-396 342,-390 342,-384 342,-384 342,-372 342,-372 342,-366 348,-360 354,-360 354,-360 410,-360 410,-360 416,-360 422,-366 422,-372 422,-372 422,-384 422,-384 422,-390 416,-396 410,-396"/>
<text text-anchor="middle" x="382" y="-375.5" font-family="sans" font-size="10.00">classify_otu97</text>
</g>
<!-- 6&#45;&gt;5 -->
<g id="edge13" class="edge">
<title>6&#45;&gt;5</title>
<path fill="none" stroke="grey" stroke-width="2" d="M382,-359.7C382,-351.98 382,-342.71 382,-334.11"/>
<polygon fill="grey" stroke="grey" stroke-width="2" points="385.5,-334.1 382,-324.1 378.5,-334.1 385.5,-334.1"/>
</g>
<!-- 7 -->
<g id="node8" class="node">
<title>7</title>
<path fill="none" stroke="#bed856" stroke-width="2" d="M583,-468C583,-468 497,-468 497,-468 491,-468 485,-462 485,-456 485,-456 485,-444 485,-444 485,-438 491,-432 497,-432 497,-432 583,-432 583,-432 589,-432 595,-438 595,-444 595,-444 595,-456 595,-456 595,-462 589,-468 583,-468"/>
<text text-anchor="middle" x="540" y="-447.5" font-family="sans" font-size="10.00">denoise_n_classify80</text>
</g>
<!-- 7&#45;&gt;6 -->
<g id="edge14" class="edge">
<title>7&#45;&gt;6</title>
<path fill="none" stroke="grey" stroke-width="2" d="M501.35,-431.88C479.75,-422.31 452.65,-410.3 429.73,-400.15"/>
<polygon fill="grey" stroke="grey" stroke-width="2" points="431.09,-396.92 420.53,-396.07 428.25,-403.32 431.09,-396.92"/>
</g>
<!-- 13 -->
<g id="node14" class="node">
<title>13</title>
<path fill="none" stroke="#56d863" stroke-width="2" d="M526,-396C526,-396 452,-396 452,-396 446,-396 440,-390 440,-384 440,-384 440,-372 440,-372 440,-366 446,-360 452,-360 452,-360 526,-360 526,-360 532,-360 538,-366 538,-372 538,-372 538,-384 538,-384 538,-390 532,-396 526,-396"/>
<text text-anchor="middle" x="489" y="-375.5" font-family="sans" font-size="10.00">classify_phylotype</text>
</g>
<!-- 7&#45;&gt;13 -->
<g id="edge21" class="edge">
<title>7&#45;&gt;13</title>
<path fill="none" stroke="grey" stroke-width="2" d="M527.39,-431.7C521.4,-423.47 514.12,-413.48 507.52,-404.42"/>
<polygon fill="grey" stroke="grey" stroke-width="2" points="510.18,-402.13 501.46,-396.1 504.52,-406.25 510.18,-402.13"/>
</g>
<!-- 15 -->
<g id="node16" class="node">
<title>15</title>
<path fill="none" stroke="#566bd8" stroke-width="2" d="M615.5,-396C615.5,-396 568.5,-396 568.5,-396 562.5,-396 556.5,-390 556.5,-384 556.5,-384 556.5,-372 556.5,-372 556.5,-366 562.5,-360 568.5,-360 568.5,-360 615.5,-360 615.5,-360 621.5,-360 627.5,-366 627.5,-372 627.5,-372 627.5,-384 627.5,-384 627.5,-390 621.5,-396 615.5,-396"/>
<text text-anchor="middle" x="592" y="-375.5" font-family="sans" font-size="10.00">classify_asv</text>
</g>
<!-- 7&#45;&gt;15 -->
<g id="edge23" class="edge">
<title>7&#45;&gt;15</title>
<path fill="none" stroke="grey" stroke-width="2" d="M552.85,-431.7C559.03,-423.39 566.54,-413.28 573.32,-404.14"/>
<polygon fill="grey" stroke="grey" stroke-width="2" points="576.14,-406.22 579.29,-396.1 570.52,-402.04 576.14,-406.22"/>
</g>
<!-- 17 -->
<g id="node18" class="node">
<title>17</title>
<path fill="none" stroke="#56a2d8" stroke-width="2" d="M734,-396C734,-396 658,-396 658,-396 652,-396 646,-390 646,-384 646,-384 646,-372 646,-372 646,-366 652,-360 658,-360 658,-360 734,-360 734,-360 740,-360 746,-366 746,-372 746,-372 746,-384 746,-384 746,-390 740,-396 734,-396"/>
<text text-anchor="middle" x="696" y="-375.5" font-family="sans" font-size="10.00">classify_phylogeny</text>
</g>
<!-- 7&#45;&gt;17 -->
<g id="edge25" class="edge">
<title>7&#45;&gt;17</title>
<path fill="none" stroke="grey" stroke-width="2" d="M578.16,-431.88C599.39,-422.35 626.01,-410.41 648.57,-400.28"/>
<polygon fill="grey" stroke="grey" stroke-width="2" points="650.27,-403.36 657.96,-396.07 647.41,-396.97 650.27,-403.36"/>
</g>
<!-- 8 -->
<g id="node9" class="node">
<title>8</title>
<path fill="none" stroke="#d88d56" stroke-width="2" d="M531.5,-540C531.5,-540 484.5,-540 484.5,-540 478.5,-540 472.5,-534 472.5,-528 472.5,-528 472.5,-516 472.5,-516 472.5,-510 478.5,-504 484.5,-504 484.5,-504 531.5,-504 531.5,-504 537.5,-504 543.5,-510 543.5,-516 543.5,-516 543.5,-528 543.5,-528 543.5,-534 537.5,-540 531.5,-540"/>
<text text-anchor="middle" x="508" y="-519.5" font-family="sans" font-size="10.00">align_n_filter</text>
</g>
<!-- 8&#45;&gt;7 -->
<g id="edge15" class="edge">
<title>8&#45;&gt;7</title>
<path fill="none" stroke="grey" stroke-width="2" d="M515.91,-503.7C519.55,-495.73 523.95,-486.1 527.99,-477.26"/>
<polygon fill="grey" stroke="grey" stroke-width="2" points="531.21,-478.65 532.18,-468.1 524.84,-475.74 531.21,-478.65"/>
</g>
<!-- 9 -->
<g id="node10" class="node">
<title>9</title>
<path fill="none" stroke="#97d856" stroke-width="2" d="M501.5,-612C501.5,-612 448.5,-612 448.5,-612 442.5,-612 436.5,-606 436.5,-600 436.5,-600 436.5,-588 436.5,-588 436.5,-582 442.5,-576 448.5,-576 448.5,-576 501.5,-576 501.5,-576 507.5,-576 513.5,-582 513.5,-588 513.5,-588 513.5,-600 513.5,-600 513.5,-606 507.5,-612 501.5,-612"/>
<text text-anchor="middle" x="475" y="-591.5" font-family="sans" font-size="10.00">make_contigs</text>
</g>
<!-- 9&#45;&gt;8 -->
<g id="edge18" class="edge">
<title>9&#45;&gt;8</title>
<path fill="none" stroke="grey" stroke-width="2" d="M483.16,-575.7C486.91,-567.73 491.45,-558.1 495.62,-549.26"/>
<polygon fill="grey" stroke="grey" stroke-width="2" points="498.84,-550.64 499.94,-540.1 492.51,-547.66 498.84,-550.64"/>
</g>
<!-- 10 -->
<g id="node11" class="node">
<title>10</title>
<path fill="none" stroke="#70d856" stroke-width="2" d="M495,-684C495,-684 455,-684 455,-684 449,-684 443,-678 443,-672 443,-672 443,-660 443,-660 443,-654 449,-648 455,-648 455,-648 495,-648 495,-648 501,-648 507,-654 507,-660 507,-660 507,-672 507,-672 507,-678 501,-684 495,-684"/>
<text text-anchor="middle" x="475" y="-663.5" font-family="sans" font-size="10.00">make_files</text>
</g>
<!-- 10&#45;&gt;9 -->
<g id="edge19" class="edge">
<title>10&#45;&gt;9</title>
<path fill="none" stroke="grey" stroke-width="2" d="M475,-647.7C475,-639.98 475,-630.71 475,-622.11"/>
<polygon fill="grey" stroke="grey" stroke-width="2" points="478.5,-622.1 475,-612.1 471.5,-622.1 478.5,-622.1"/>
</g>
<!-- 11 -->
<g id="node12" class="node">
<title>11</title>
<path fill="none" stroke="#d8a456" stroke-width="2" d="M600.5,-612C600.5,-612 543.5,-612 543.5,-612 537.5,-612 531.5,-606 531.5,-600 531.5,-600 531.5,-588 531.5,-588 531.5,-582 537.5,-576 543.5,-576 543.5,-576 600.5,-576 600.5,-576 606.5,-576 612.5,-582 612.5,-588 612.5,-588 612.5,-600 612.5,-600 612.5,-606 606.5,-612 600.5,-612"/>
<text text-anchor="middle" x="572" y="-591.5" font-family="sans" font-size="10.00">get_references</text>
</g>
<!-- 11&#45;&gt;7 -->
<g id="edge16" class="edge">
<title>11&#45;&gt;7</title>
<path fill="none" stroke="grey" stroke-width="2" d="M568.51,-575.9C564.81,-557.96 558.72,-528.95 553,-504 551.06,-495.56 548.85,-486.39 546.81,-478.09"/>
<polygon fill="grey" stroke="grey" stroke-width="2" points="550.15,-477.02 544.35,-468.15 543.36,-478.7 550.15,-477.02"/>
</g>
<!-- 11&#45;&gt;8 -->
<g id="edge17" class="edge">
<title>11&#45;&gt;8</title>
<path fill="none" stroke="grey" stroke-width="2" d="M556.18,-575.7C548.43,-567.22 538.96,-556.86 530.48,-547.58"/>
<polygon fill="grey" stroke="grey" stroke-width="2" points="532.97,-545.12 523.64,-540.1 527.8,-549.85 532.97,-545.12"/>
</g>
<!-- 12 -->
<g id="node13" class="node">
<title>12</title>
<path fill="none" stroke="#567bd8" stroke-width="2" d="M551.5,-252C551.5,-252 470.5,-252 470.5,-252 464.5,-252 458.5,-246 458.5,-240 458.5,-240 458.5,-228 458.5,-228 458.5,-222 464.5,-216 470.5,-216 470.5,-216 551.5,-216 551.5,-216 557.5,-216 563.5,-222 563.5,-228 563.5,-228 563.5,-240 563.5,-240 563.5,-246 557.5,-252 551.5,-252"/>
<text text-anchor="middle" x="511" y="-231.5" font-family="sans" font-size="10.00">final_phylotype_files</text>
</g>
<!-- 12&#45;&gt;0 -->
<g id="edge5" class="edge">
<title>12&#45;&gt;0</title>
<path fill="none" stroke="grey" stroke-width="2" d="M510.43,-215.82C509.13,-186.08 504.96,-123.3 492,-72 489.77,-63.17 486.43,-53.84 483.07,-45.52"/>
<polygon fill="grey" stroke="grey" stroke-width="2" points="486.29,-44.14 479.17,-36.29 479.84,-46.86 486.29,-44.14"/>
</g>
<!-- 13&#45;&gt;12 -->
<g id="edge20" class="edge">
<title>13&#45;&gt;12</title>
<path fill="none" stroke="grey" stroke-width="2" d="M491.65,-359.87C495.4,-335.67 502.29,-291.21 506.76,-262.39"/>
<polygon fill="grey" stroke="grey" stroke-width="2" points="510.26,-262.61 508.34,-252.19 503.35,-261.54 510.26,-262.61"/>
</g>
<!-- 14 -->
<g id="node15" class="node">
<title>14</title>
<path fill="none" stroke="#56d873" stroke-width="2" d="M619.5,-324C619.5,-324 564.5,-324 564.5,-324 558.5,-324 552.5,-318 552.5,-312 552.5,-312 552.5,-300 552.5,-300 552.5,-294 558.5,-288 564.5,-288 564.5,-288 619.5,-288 619.5,-288 625.5,-288 631.5,-294 631.5,-300 631.5,-300 631.5,-312 631.5,-312 631.5,-318 625.5,-324 619.5,-324"/>
<text text-anchor="middle" x="592" y="-303.5" font-family="sans" font-size="10.00">final_asv_files</text>
</g>
<!-- 14&#45;&gt;0 -->
<g id="edge7" class="edge">
<title>14&#45;&gt;0</title>
<path fill="none" stroke="grey" stroke-width="2" d="M589.45,-287.99C586.49,-269.88 580.96,-240.49 573,-216 551.35,-149.39 543.81,-132.77 509,-72 503.6,-62.57 496.9,-52.76 490.65,-44.18"/>
<polygon fill="grey" stroke="grey" stroke-width="2" points="493.38,-41.99 484.6,-36.07 487.77,-46.18 493.38,-41.99"/>
</g>
<!-- 15&#45;&gt;14 -->
<g id="edge22" class="edge">
<title>15&#45;&gt;14</title>
<path fill="none" stroke="grey" stroke-width="2" d="M592,-359.7C592,-351.98 592,-342.71 592,-334.11"/>
<polygon fill="grey" stroke="grey" stroke-width="2" points="595.5,-334.1 592,-324.1 588.5,-334.1 595.5,-334.1"/>
</g>
<!-- 16 -->
<g id="node17" class="node">
<title>16</title>
<path fill="none" stroke="#56b9d8" stroke-width="2" d="M726.5,-252C726.5,-252 643.5,-252 643.5,-252 637.5,-252 631.5,-246 631.5,-240 631.5,-240 631.5,-228 631.5,-228 631.5,-222 637.5,-216 643.5,-216 643.5,-216 726.5,-216 726.5,-216 732.5,-216 738.5,-222 738.5,-228 738.5,-228 738.5,-240 738.5,-240 738.5,-246 732.5,-252 726.5,-252"/>
<text text-anchor="middle" x="685" y="-231.5" font-family="sans" font-size="10.00">final_phylogeny_files</text>
</g>
<!-- 16&#45;&gt;0 -->
<g id="edge2" class="edge">
<title>16&#45;&gt;0</title>
<path fill="none" stroke="grey" stroke-width="2" d="M681.03,-215.94C672.66,-183.55 650.2,-112.71 606,-72 578.58,-46.75 537.73,-32.98 508.15,-25.85"/>
<polygon fill="grey" stroke="grey" stroke-width="2" points="508.72,-22.39 498.19,-23.6 507.18,-29.22 508.72,-22.39"/>
</g>
<!-- 17&#45;&gt;16 -->
<g id="edge24" class="edge">
<title>17&#45;&gt;16</title>
<path fill="none" stroke="grey" stroke-width="2" d="M694.67,-359.87C692.8,-335.67 689.35,-291.21 687.12,-262.39"/>
<polygon fill="grey" stroke="grey" stroke-width="2" points="690.59,-261.89 686.33,-252.19 683.61,-262.43 690.59,-261.89"/>
</g>
<!-- 18 -->
<g id="node19" class="node">
<title>18</title>
<path fill="none" stroke="#56d8d0" stroke-width="2" d="M471,-108C471,-108 391,-108 391,-108 385,-108 379,-102 379,-96 379,-96 379,-84 379,-84 379,-78 385,-72 391,-72 391,-72 471,-72 471,-72 477,-72 483,-78 483,-84 483,-84 483,-96 483,-96 483,-102 477,-108 471,-108"/>
<text text-anchor="middle" x="431" y="-87.5" font-family="sans" font-size="10.00">subsample_otutable</text>
</g>
<!-- 18&#45;&gt;0 -->
<g id="edge8" class="edge">
<title>18&#45;&gt;0</title>
<path fill="none" stroke="grey" stroke-width="2" d="M440.89,-71.7C445.49,-63.64 451.06,-53.89 456.15,-44.98"/>
<polygon fill="grey" stroke="grey" stroke-width="2" points="459.3,-46.52 461.23,-36.1 453.23,-43.05 459.3,-46.52"/>
</g>
<!-- 19&#45;&gt;18 -->
<g id="edge27" class="edge">
<title>19&#45;&gt;18</title>
<path fill="none" stroke="grey" stroke-width="2" d="M395.56,-215.84C391.64,-197.6 387.59,-168.11 395,-144 398.01,-134.22 403.51,-124.62 409.32,-116.33"/>
<polygon fill="grey" stroke="grey" stroke-width="2" points="412.19,-118.33 415.39,-108.23 406.59,-114.13 412.19,-118.33"/>
</g>
<!-- 20 -->
<g id="node21" class="node">
<title>20</title>
<path fill="none" stroke="#d85656" stroke-width="2" d="M467.5,-180C467.5,-180 416.5,-180 416.5,-180 410.5,-180 404.5,-174 404.5,-168 404.5,-168 404.5,-156 404.5,-156 404.5,-150 410.5,-144 416.5,-144 416.5,-144 467.5,-144 467.5,-144 473.5,-144 479.5,-150 479.5,-156 479.5,-156 479.5,-168 479.5,-168 479.5,-174 473.5,-180 467.5,-180"/>
<text text-anchor="middle" x="442" y="-159.5" font-family="sans" font-size="10.00">count_groups</text>
</g>
<!-- 19&#45;&gt;20 -->
<g id="edge29" class="edge">
<title>19&#45;&gt;20</title>
<path fill="none" stroke="grey" stroke-width="2" d="M410.38,-215.7C415.26,-207.56 421.19,-197.69 426.58,-188.7"/>
<polygon fill="grey" stroke="grey" stroke-width="2" points="429.59,-190.48 431.74,-180.1 423.59,-186.88 429.59,-190.48"/>
</g>
<!-- 20&#45;&gt;18 -->
<g id="edge26" class="edge">
<title>20&#45;&gt;18</title>
<path fill="none" stroke="grey" stroke-width="2" d="M439.28,-143.7C438.07,-135.98 436.61,-126.71 435.26,-118.11"/>
<polygon fill="grey" stroke="grey" stroke-width="2" points="438.7,-117.44 433.69,-108.1 431.78,-118.53 438.7,-117.44"/>
</g>
<!-- 21 -->
<g id="node22" class="node">
<title>21</title>
<path fill="none" stroke="#56d89a" stroke-width="2" d="M738,-108C738,-108 670,-108 670,-108 664,-108 658,-102 658,-96 658,-96 658,-84 658,-84 658,-78 664,-72 670,-72 670,-72 738,-72 738,-72 744,-72 750,-78 750,-84 750,-84 750,-96 750,-96 750,-102 744,-108 738,-108"/>
<text text-anchor="middle" x="704" y="-87.5" font-family="sans" font-size="10.00">interactive_report</text>
</g>
<!-- 21&#45;&gt;0 -->
<g id="edge4" class="edge">
<title>21&#45;&gt;0</title>
<path fill="none" stroke="grey" stroke-width="2" d="M657.97,-75.17C613.95,-61.95 548.44,-42.27 507.8,-30.05"/>
<polygon fill="grey" stroke="grey" stroke-width="2" points="508.61,-26.65 498.03,-27.12 506.6,-33.35 508.61,-26.65"/>
</g>
<!-- 22 -->
<g id="node23" class="node">
<title>22</title>
<path fill="none" stroke="#d86656" stroke-width="2" d="M854,-108C854,-108 780,-108 780,-108 774,-108 768,-102 768,-96 768,-96 768,-84 768,-84 768,-78 774,-72 780,-72 780,-72 854,-72 854,-72 860,-72 866,-78 866,-84 866,-84 866,-96 866,-96 866,-102 860,-108 854,-108"/>
<text text-anchor="middle" x="817" y="-87.5" font-family="sans" font-size="10.00">github_page_index</text>
</g>
<!-- 22&#45;&gt;0 -->
<g id="edge1" class="edge">
<title>22&#45;&gt;0</title>
<path fill="none" stroke="grey" stroke-width="2" d="M767.73,-74.18C764.79,-73.41 761.86,-72.68 759,-72 669.79,-50.78 563.31,-33.15 508.19,-24.59"/>
<polygon fill="grey" stroke="grey" stroke-width="2" points="508.61,-21.11 498.19,-23.05 507.54,-28.03 508.61,-21.11"/>
</g>
<!-- 23 -->
<g id="node24" class="node">
<title>23</title>
<path fill="none" stroke="#d8cb56" stroke-width="2" d="M832,-180C832,-180 802,-180 802,-180 796,-180 790,-174 790,-168 790,-168 790,-156 790,-156 790,-150 796,-144 802,-144 802,-144 832,-144 832,-144 838,-144 844,-150 844,-156 844,-156 844,-168 844,-168 844,-174 838,-180 832,-180"/>
<text text-anchor="middle" x="817" y="-159.5" font-family="sans" font-size="10.00">get_dag</text>
</g>
<!-- 23&#45;&gt;22 -->
<g id="edge30" class="edge">
<title>23&#45;&gt;22</title>
<path fill="none" stroke="grey" stroke-width="2" d="M817,-143.7C817,-135.98 817,-126.71 817,-118.11"/>
<polygon fill="grey" stroke="grey" stroke-width="2" points="820.5,-118.1 817,-108.1 813.5,-118.1 820.5,-118.1"/>
</g>
</g>
</svg>
