<?xml version="1.0" encoding="UTF-8" standalone="no"?>
<!DOCTYPE svg PUBLIC "-//W3C//DTD SVG 1.1//EN"
 "http://www.w3.org/Graphics/SVG/1.1/DTD/svg11.dtd">
<!-- Generated by graphviz version 6.0.1 (0)
 -->
<!-- Title: snakemake_dag Pages: 1 -->
<svg width="699pt" height="404pt"
 viewBox="0.00 0.00 699.00 404.00" xmlns="http://www.w3.org/2000/svg" xmlns:xlink="http://www.w3.org/1999/xlink">
<g id="graph0" class="graph" transform="scale(1 1) rotate(0) translate(4 400)">
<title>snakemake_dag</title>
<polygon fill="white" stroke="none" points="-4,4 -4,-400 695,-400 695,4 -4,4"/>
<!-- 0 -->
<g id="node1" class="node">
<title>0</title>
<path fill="none" stroke="#88d856" stroke-width="2" d="M274.5,-36C274.5,-36 244.5,-36 244.5,-36 238.5,-36 232.5,-30 232.5,-24 232.5,-24 232.5,-12 232.5,-12 232.5,-6 238.5,0 244.5,0 244.5,0 274.5,0 274.5,0 280.5,0 286.5,-6 286.5,-12 286.5,-12 286.5,-24 286.5,-24 286.5,-30 280.5,-36 274.5,-36"/>
<text text-anchor="middle" x="259.5" y="-15.5" font-family="sans" font-size="10.00">all</text>
</g>
<!-- 1 -->
<g id="node2" class="node">
<title>1</title>
<path fill="none" stroke="#569ad8" stroke-width="2" d="M113,-252C113,-252 12,-252 12,-252 6,-252 0,-246 0,-240 0,-240 0,-228 0,-228 0,-222 6,-216 12,-216 12,-216 113,-216 113,-216 119,-216 125,-222 125,-228 125,-228 125,-240 125,-240 125,-246 119,-252 113,-252"/>
<text text-anchor="middle" x="62.5" y="-231.5" font-family="sans" font-size="10.00">samples_units_metadata</text>
</g>
<!-- 1&#45;&gt;0 -->
<g id="edge8" class="edge">
<title>1&#45;&gt;0</title>
<path fill="none" stroke="grey" stroke-width="2" d="M66.53,-215.61C74.84,-183.27 96.8,-113.42 139.5,-72 162.52,-49.67 196.52,-35.87 222.46,-27.97"/>
<polygon fill="grey" stroke="grey" stroke-width="2" points="223.67,-31.26 232.31,-25.13 221.74,-24.54 223.67,-31.26"/>
</g>
<!-- 2 -->
<g id="node3" class="node">
<title>2</title>
<path fill="none" stroke="#56d8a9" stroke-width="2" d="M143.5,-396C143.5,-396 55.5,-396 55.5,-396 49.5,-396 43.5,-390 43.5,-384 43.5,-384 43.5,-372 43.5,-372 43.5,-366 49.5,-360 55.5,-360 55.5,-360 143.5,-360 143.5,-360 149.5,-360 155.5,-366 155.5,-372 155.5,-372 155.5,-384 155.5,-384 155.5,-390 149.5,-396 143.5,-396"/>
<text text-anchor="middle" x="99.5" y="-375.5" font-family="sans" font-size="10.00">get_bioinfo_resources</text>
</g>
<!-- 2&#45;&gt;1 -->
<g id="edge9" class="edge">
<title>2&#45;&gt;1</title>
<path fill="none" stroke="grey" stroke-width="2" d="M93.15,-359.97C89.45,-349.66 84.86,-336.18 81.5,-324 75.87,-303.57 70.92,-280.11 67.49,-262.4"/>
<polygon fill="grey" stroke="grey" stroke-width="2" points="70.86,-261.38 65.55,-252.21 63.98,-262.68 70.86,-261.38"/>
</g>
<!-- 4 -->
<g id="node5" class="node">
<title>4</title>
<path fill="none" stroke="#567bd8" stroke-width="2" d="M172,-324C172,-324 103,-324 103,-324 97,-324 91,-318 91,-312 91,-312 91,-300 91,-300 91,-294 97,-288 103,-288 103,-288 172,-288 172,-288 178,-288 184,-294 184,-300 184,-300 184,-312 184,-312 184,-318 178,-324 172,-324"/>
<text text-anchor="middle" x="137.5" y="-303.5" font-family="sans" font-size="10.00">makeMappingFile</text>
</g>
<!-- 2&#45;&gt;4 -->
<g id="edge12" class="edge">
<title>2&#45;&gt;4</title>
<path fill="none" stroke="grey" stroke-width="2" d="M108.89,-359.7C113.26,-351.64 118.56,-341.89 123.4,-332.98"/>
<polygon fill="grey" stroke="grey" stroke-width="2" points="126.52,-334.56 128.21,-324.1 120.37,-331.22 126.52,-334.56"/>
</g>
<!-- 3 -->
<g id="node4" class="node">
<title>3</title>
<path fill="none" stroke="#d89c56" stroke-width="2" d="M228,-252C228,-252 163,-252 163,-252 157,-252 151,-246 151,-240 151,-240 151,-228 151,-228 151,-222 157,-216 163,-216 163,-216 228,-216 228,-216 234,-216 240,-222 240,-228 240,-228 240,-240 240,-240 240,-246 234,-252 228,-252"/>
<text text-anchor="middle" x="195.5" y="-231.5" font-family="sans" font-size="10.00">make16SShared</text>
</g>
<!-- 3&#45;&gt;0 -->
<g id="edge3" class="edge">
<title>3&#45;&gt;0</title>
<path fill="none" stroke="grey" stroke-width="2" d="M172.2,-215.82C161.6,-206.54 150.18,-194.09 144.5,-180 136.93,-161.22 142.1,-82.92 149.5,-72 166.12,-47.48 197.37,-33.93 222.33,-26.69"/>
<polygon fill="grey" stroke="grey" stroke-width="2" points="223.48,-30.01 232.23,-24.04 221.67,-23.24 223.48,-30.01"/>
</g>
<!-- 6 -->
<g id="node7" class="node">
<title>6</title>
<path fill="none" stroke="#56d86b" stroke-width="2" d="M225,-180C225,-180 166,-180 166,-180 160,-180 154,-174 154,-168 154,-168 154,-156 154,-156 154,-150 160,-144 166,-144 166,-144 225,-144 225,-144 231,-144 237,-150 237,-156 237,-156 237,-168 237,-168 237,-174 231,-180 225,-180"/>
<text text-anchor="middle" x="195.5" y="-159.5" font-family="sans" font-size="10.00">split16SShared</text>
</g>
<!-- 3&#45;&gt;6 -->
<g id="edge13" class="edge">
<title>3&#45;&gt;6</title>
<path fill="none" stroke="grey" stroke-width="2" d="M195.5,-215.7C195.5,-207.98 195.5,-198.71 195.5,-190.11"/>
<polygon fill="grey" stroke="grey" stroke-width="2" points="199,-190.1 195.5,-180.1 192,-190.1 199,-190.1"/>
</g>
<!-- 8 -->
<g id="node9" class="node">
<title>8</title>
<path fill="none" stroke="#d8bc56" stroke-width="2" d="M320,-180C320,-180 271,-180 271,-180 265,-180 259,-174 259,-168 259,-168 259,-156 259,-156 259,-150 265,-144 271,-144 271,-144 320,-144 320,-144 326,-144 332,-150 332,-156 332,-156 332,-168 332,-168 332,-174 326,-180 320,-180"/>
<text text-anchor="middle" x="295.5" y="-159.5" font-family="sans" font-size="10.00">calc16SError</text>
</g>
<!-- 3&#45;&gt;8 -->
<g id="edge15" class="edge">
<title>3&#45;&gt;8</title>
<path fill="none" stroke="grey" stroke-width="2" d="M219.96,-215.88C232.8,-206.89 248.7,-195.76 262.59,-186.03"/>
<polygon fill="grey" stroke="grey" stroke-width="2" points="264.76,-188.79 270.94,-180.19 260.74,-183.06 264.76,-188.79"/>
</g>
<!-- 4&#45;&gt;3 -->
<g id="edge11" class="edge">
<title>4&#45;&gt;3</title>
<path fill="none" stroke="grey" stroke-width="2" d="M151.84,-287.7C158.79,-279.3 167.27,-269.07 174.9,-259.86"/>
<polygon fill="grey" stroke="grey" stroke-width="2" points="177.64,-262.04 181.33,-252.1 172.25,-257.57 177.64,-262.04"/>
</g>
<!-- 5 -->
<g id="node6" class="node">
<title>5</title>
<path fill="none" stroke="#56d8d0" stroke-width="2" d="M288.5,-324C288.5,-324 214.5,-324 214.5,-324 208.5,-324 202.5,-318 202.5,-312 202.5,-312 202.5,-300 202.5,-300 202.5,-294 208.5,-288 214.5,-288 214.5,-288 288.5,-288 288.5,-288 294.5,-288 300.5,-294 300.5,-300 300.5,-300 300.5,-312 300.5,-312 300.5,-318 294.5,-324 288.5,-324"/>
<text text-anchor="middle" x="251.5" y="-303.5" font-family="sans" font-size="10.00">mothur_references</text>
</g>
<!-- 5&#45;&gt;3 -->
<g id="edge10" class="edge">
<title>5&#45;&gt;3</title>
<path fill="none" stroke="grey" stroke-width="2" d="M237.66,-287.7C231.01,-279.39 222.92,-269.28 215.61,-260.14"/>
<polygon fill="grey" stroke="grey" stroke-width="2" points="218.16,-257.73 209.18,-252.1 212.7,-262.1 218.16,-257.73"/>
</g>
<!-- 6&#45;&gt;0 -->
<g id="edge6" class="edge">
<title>6&#45;&gt;0</title>
<path fill="none" stroke="grey" stroke-width="2" d="M178.76,-143.9C162.82,-125.45 143.2,-95.55 157.5,-72 171.58,-48.82 199.45,-35.32 222.51,-27.75"/>
<polygon fill="grey" stroke="grey" stroke-width="2" points="223.81,-31.01 232.37,-24.76 221.78,-24.31 223.81,-31.01"/>
</g>
<!-- 7 -->
<g id="node8" class="node">
<title>7</title>
<path fill="none" stroke="#ced856" stroke-width="2" d="M260.5,-108C260.5,-108 178.5,-108 178.5,-108 172.5,-108 166.5,-102 166.5,-96 166.5,-96 166.5,-84 166.5,-84 166.5,-78 172.5,-72 178.5,-72 178.5,-72 260.5,-72 260.5,-72 266.5,-72 272.5,-78 272.5,-84 272.5,-84 272.5,-96 272.5,-96 272.5,-102 266.5,-108 260.5,-108"/>
<text text-anchor="middle" x="219.5" y="-87.5" font-family="sans" font-size="10.00">alpha_beta_diversity</text>
</g>
<!-- 6&#45;&gt;7 -->
<g id="edge14" class="edge">
<title>6&#45;&gt;7</title>
<path fill="none" stroke="grey" stroke-width="2" d="M201.43,-143.7C204.11,-135.9 207.33,-126.51 210.3,-117.83"/>
<polygon fill="grey" stroke="grey" stroke-width="2" points="213.7,-118.7 213.64,-108.1 207.08,-116.43 213.7,-118.7"/>
</g>
<!-- 7&#45;&gt;0 -->
<g id="edge5" class="edge">
<title>7&#45;&gt;0</title>
<path fill="none" stroke="grey" stroke-width="2" d="M229.39,-71.7C233.99,-63.64 239.56,-53.89 244.65,-44.98"/>
<polygon fill="grey" stroke="grey" stroke-width="2" points="247.8,-46.52 249.73,-36.1 241.73,-43.05 247.8,-46.52"/>
</g>
<!-- 8&#45;&gt;0 -->
<g id="edge4" class="edge">
<title>8&#45;&gt;0</title>
<path fill="none" stroke="grey" stroke-width="2" d="M294,-143.68C292.15,-125.55 288.37,-96.39 281.5,-72 279.01,-63.18 275.47,-53.85 271.96,-45.52"/>
<polygon fill="grey" stroke="grey" stroke-width="2" points="275.13,-44.04 267.91,-36.29 268.72,-46.86 275.13,-44.04"/>
</g>
<!-- 9 -->
<g id="node10" class="node">
<title>9</title>
<path fill="none" stroke="#d85656" stroke-width="2" d="M444.5,-108C444.5,-108 340.5,-108 340.5,-108 334.5,-108 328.5,-102 328.5,-96 328.5,-96 328.5,-84 328.5,-84 328.5,-78 334.5,-72 340.5,-72 340.5,-72 444.5,-72 444.5,-72 450.5,-72 456.5,-78 456.5,-84 456.5,-84 456.5,-96 456.5,-96 456.5,-102 450.5,-108 444.5,-108"/>
<text text-anchor="middle" x="392.5" y="-87.5" font-family="sans" font-size="10.00">github_summary_website</text>
</g>
<!-- 9&#45;&gt;0 -->
<g id="edge1" class="edge">
<title>9&#45;&gt;0</title>
<path fill="none" stroke="grey" stroke-width="2" d="M359.96,-71.88C340.49,-61.63 315.71,-48.58 295.63,-38.01"/>
<polygon fill="grey" stroke="grey" stroke-width="2" points="297.25,-34.91 286.77,-33.35 293.99,-41.11 297.25,-34.91"/>
</g>
<!-- 10 -->
<g id="node11" class="node">
<title>10</title>
<path fill="none" stroke="#68d856" stroke-width="2" d="M415,-180C415,-180 364,-180 364,-180 358,-180 352,-174 352,-168 352,-168 352,-156 352,-156 352,-150 358,-144 364,-144 364,-144 415,-144 415,-144 421,-144 427,-150 427,-156 427,-156 427,-168 427,-168 427,-174 421,-180 415,-180"/>
<text text-anchor="middle" x="389.5" y="-159.5" font-family="sans" font-size="10.00">dot_rulegraph</text>
</g>
<!-- 10&#45;&gt;9 -->
<g id="edge16" class="edge">
<title>10&#45;&gt;9</title>
<path fill="none" stroke="grey" stroke-width="2" d="M390.24,-143.7C390.57,-135.98 390.97,-126.71 391.34,-118.11"/>
<polygon fill="grey" stroke="grey" stroke-width="2" points="394.84,-118.25 391.77,-108.1 387.84,-117.95 394.84,-118.25"/>
</g>
<!-- 11 -->
<g id="node12" class="node">
<title>11</title>
<path fill="none" stroke="#56d88a" stroke-width="2" d="M501.5,-180C501.5,-180 457.5,-180 457.5,-180 451.5,-180 445.5,-174 445.5,-168 445.5,-168 445.5,-156 445.5,-156 445.5,-150 451.5,-144 457.5,-144 457.5,-144 501.5,-144 501.5,-144 507.5,-144 513.5,-150 513.5,-156 513.5,-156 513.5,-168 513.5,-168 513.5,-174 507.5,-180 501.5,-180"/>
<text text-anchor="middle" x="479.5" y="-159.5" font-family="sans" font-size="10.00">project_tree</text>
</g>
<!-- 11&#45;&gt;9 -->
<g id="edge17" class="edge">
<title>11&#45;&gt;9</title>
<path fill="none" stroke="grey" stroke-width="2" d="M457.99,-143.7C447.04,-134.88 433.55,-124.03 421.68,-114.47"/>
<polygon fill="grey" stroke="grey" stroke-width="2" points="423.74,-111.65 413.76,-108.1 419.36,-117.1 423.74,-111.65"/>
</g>
<!-- 12 -->
<g id="node13" class="node">
<title>12</title>
<path fill="none" stroke="#d87556" stroke-width="2" d="M584,-108C584,-108 487,-108 487,-108 481,-108 475,-102 475,-96 475,-96 475,-84 475,-84 475,-78 481,-72 487,-72 487,-72 584,-72 584,-72 590,-72 596,-78 596,-84 596,-84 596,-96 596,-96 596,-102 590,-108 584,-108"/>
<text text-anchor="middle" x="535.5" y="-87.5" font-family="sans" font-size="10.00">snakemake_html_report</text>
</g>
<!-- 12&#45;&gt;0 -->
<g id="edge2" class="edge">
<title>12&#45;&gt;0</title>
<path fill="none" stroke="grey" stroke-width="2" d="M474.93,-73.64C420.49,-59.83 342.29,-40 296.61,-28.41"/>
<polygon fill="grey" stroke="grey" stroke-width="2" points="297.38,-25 286.83,-25.93 295.66,-31.78 297.38,-25"/>
</g>
<!-- 13 -->
<g id="node14" class="node">
<title>13</title>
<path fill="none" stroke="#56c1d8" stroke-width="2" d="M679,-108C679,-108 626,-108 626,-108 620,-108 614,-102 614,-96 614,-96 614,-84 614,-84 614,-78 620,-72 626,-72 626,-72 679,-72 679,-72 685,-72 691,-78 691,-84 691,-84 691,-96 691,-96 691,-102 685,-108 679,-108"/>
<text text-anchor="middle" x="652.5" y="-87.5" font-family="sans" font-size="10.00">get_final_files</text>
</g>
<!-- 13&#45;&gt;0 -->
<g id="edge7" class="edge">
<title>13&#45;&gt;0</title>
<path fill="none" stroke="grey" stroke-width="2" d="M613.96,-74.38C611.12,-73.51 608.27,-72.71 605.5,-72 495.05,-43.85 360.72,-28.5 296.78,-22.3"/>
<polygon fill="grey" stroke="grey" stroke-width="2" points="297.06,-18.81 286.78,-21.35 296.4,-25.78 297.06,-18.81"/>
</g>
</g>
</svg>
